  0
SECTION
  2
HEADER
  9
$ACADVER
  1
AC1032
  9
$ACADMAINTVER
 90
4
  9
$DWGCODEPAGE
  3
ANSI_1252
  9
$LASTSAVEDBY
  1
ezdxf
  9
$REQUIREDVERSIONS
160
0
  9
$INSBASE
 10
0.0
 20
0.0
 30
0.0
  9
$EXTMIN
 10
1e+20
 20
1e+20
 30
1e+20
  9
$EXTMAX
 10
-1e+20
 20
-1e+20
 30
-1e+20
  9
$LIMMIN
 10
0.0
 20
0.0
  9
$LIMMAX
 10
420.0
 20
297.0
  9
$ORTHOMODE
 70
0
  9
$REGENMODE
 70
1
  9
$FILLMODE
 70
1
  9
$QTEXTMODE
 70
0
  9
$MIRRTEXT
 70
1
  9
$LTSCALE
 40
1.0
  9
$ATTMODE
 70
1
  9
$TEXTSIZE
 40
2.5
  9
$TRACEWID
 40
1.0
  9
$TEXTSTYLE
  7
OpenSans
  9
$CLAYER
  8
0
  9
$CELTYPE
  6
ByLayer
  9
$CECOLOR
 62
256
  9
$CELTSCALE
 40
1.0
  9
$DISPSILH
 70
0
  9
$DIMSCALE
 40
1.0
  9
$DIMASZ
 40
0.175
  9
$DIMEXO
 40
0.125
  9
$DIMDLI
 40
3.75
  9
$DIMRND
 40
0.0
  9
$DIMDLE
 40
0.0
  9
$DIMEXE
 40
0.375
  9
$DIMTP
 40
0.0
  9
$DIMTM
 40
0.0
  9
$DIMTXT
 40
0.25
  9
$DIMCEN
 40
2.5
  9
$DIMTSZ
 40
0.0
  9
$DIMTOL
 70
0
  9
$DIMLIM
 70
0
  9
$DIMTIH
 70
0
  9
$DIMTOH
 70
0
  9
$DIMSE1
 70
0
  9
$DIMSE2
 70
0
  9
$DIMTAD
 70
1
  9
$DIMZIN
 70
12
  9
$DIMBLK
  1
ARCHTICK
  9
$DIMASO
 70
1
  9
$DIMSHO
 70
1
  9
$DIMPOST
  1

  9
$DIMAPOST
  1

  9
$DIMALT
 70
0
  9
$DIMALTD
 70
3
  9
$DIMALTF
 40
0.03937007874
  9
$DIMLFAC
 40
100.0
  9
$DIMTOFL
 70
1
  9
$DIMTVP
 40
0.0
  9
$DIMTIX
 70
0
  9
$DIMSOXD
 70
0
  9
$DIMSAH
 70
0
  9
$DIMBLK1
  1

  9
$DIMBLK2
  1

  9
$DIMSTYLE
  2
EZDXF
  9
$DIMCLRD
 70
0
  9
$DIMCLRE
 70
0
  9
$DIMCLRT
 70
0
  9
$DIMTFAC
 40
0.5
  9
$DIMGAP
 40
0.1
  9
$DIMJUST
 70
0
  9
$DIMSD1
 70
0
  9
$DIMSD2
 70
0
  9
$DIMTOLJ
 70
0
  9
$DIMTZIN
 70
8
  9
$DIMALTZ
 70
0
  9
$DIMALTTZ
 70
0
  9
$DIMUPT
 70
1
  9
$DIMDEC
 70
2
  9
$DIMTDEC
 70
2
  9
$DIMALTU
 70
2
  9
$DIMALTTD
 70
3
  9
$DIMTXSTY
  7
OpenSansCondensed-Light
  9
$DIMAUNIT
 70
0
  9
$DIMADEC
 70
2
  9
$DIMALTRND
 40
0.0
  9
$DIMAZIN
 70
3
  9
$DIMDSEP
 70
46
  9
$DIMATFIT
 70
3
  9
$DIMFRAC
 70
0
  9
$DIMLDRBLK
  1

  9
$DIMLUNIT
 70
2
  9
$DIMLWD
 70
-2
  9
$DIMLWE
 70
-2
  9
$DIMTMOVE
 70
2
  9
$DIMFXL
 40
1.0
  9
$DIMFXLON
 70
0
  9
$DIMJOGANG
 40
0.785398163397
  9
$DIMTFILL
 70
0
  9
$DIMTFILLCLR
 70
0
  9
$DIMARCSYM
 70
0
  9
$DIMLTYPE
  6

  9
$DIMLTEX1
  6

  9
$DIMLTEX2
  6

  9
$DIMTXTDIRECTION
 70
0
  9
$LUNITS
 70
2
  9
$LUPREC
 70
2
  9
$SKETCHINC
 40
1.0
  9
$FILLETRAD
 40
10.0
  9
$AUNITS
 70
1
  9
$AUPREC
 70
2
  9
$MENU
  1
.
  9
$ELEVATION
 40
0.0
  9
$PELEVATION
 40
0.0
  9
$THICKNESS
 40
0.0
  9
$LIMCHECK
 70
0
  9
$CHAMFERA
 40
0.0
  9
$CHAMFERB
 40
0.0
  9
$CHAMFERC
 40
0.0
  9
$CHAMFERD
 40
0.0
  9
$SKPOLY
 70
0
  9
$TDCREATE
 40
2461321.100289352
  9
$TDUCREATE
 40
2458532.153996898
  9
$TDUPDATE
 40
2461321.100289352
  9
$TDUUPDATE
 40
2458532.1544311
  9
$TDINDWG
 40
0.0
  9
$TDUSRTIMER
 40
0.0
  9
$USRTIMER
 70
1
  9
$ANGBASE
 50
0.0
  9
$ANGDIR
 70
0
  9
$PDMODE
 70
0
  9
$PDSIZE
 40
0.0
  9
$PLINEWID
 40
0.0
  9
$SPLFRAME
 70
0
  9
$SPLINETYPE
 70
6
  9
$SPLINESEGS
 70
8
  9
$HANDSEED
  5
399
  9
$SURFTAB1
 70
6
  9
$SURFTAB2
 70
6
  9
$SURFTYPE
 70
6
  9
$SURFU
 70
6
  9
$SURFV
 70
6
  9
$UCSBASE
  2

  9
$UCSNAME
  2

  9
$UCSORG
 10
0.0
 20
0.0
 30
0.0
  9
$UCSXDIR
 10
1.0
 20
0.0
 30
0.0
  9
$UCSYDIR
 10
0.0
 20
1.0
 30
0.0
  9
$UCSORTHOREF
  2

  9
$UCSORTHOVIEW
 70
0
  9
$UCSORGTOP
 10
0.0
 20
0.0
 30
0.0
  9
$UCSORGBOTTOM
 10
0.0
 20
0.0
 30
0.0
  9
$UCSORGLEFT
 10
0.0
 20
0.0
 30
0.0
  9
$UCSORGRIGHT
 10
0.0
 20
0.0
 30
0.0
  9
$UCSORGFRONT
 10
0.0
 20
0.0
 30
0.0
  9
$UCSORGBACK
 10
0.0
 20
0.0
 30
0.0
  9
$PUCSBASE
  2

  9
$PUCSNAME
  2

  9
$PUCSORG
 10
0.0
 20
0.0
 30
0.0
  9
$PUCSXDIR
 10
1.0
 20
0.0
 30
0.0
  9
$PUCSYDIR
 10
0.0
 20
1.0
 30
0.0
  9
$PUCSORTHOREF
  2

  9
$PUCSORTHOVIEW
 70
0
  9
$PUCSORGTOP
 10
0.0
 20
0.0
 30
0.0
  9
$PUCSORGBOTTOM
 10
0.0
 20
0.0
 30
0.0
  9
$PUCSORGLEFT
 10
0.0
 20
0.0
 30
0.0
  9
$PUCSORGRIGHT
 10
0.0
 20
0.0
 30
0.0
  9
$PUCSORGFRONT
 10
0.0
 20
0.0
 30
0.0
  9
$PUCSORGBACK
 10
0.0
 20
0.0
 30
0.0
  9
$USERI1
 70
0
  9
$USERI2
 70
0
  9
$USERI3
 70
0
  9
$USERI4
 70
0
  9
$USERI5
 70
0
  9
$USERR1
 40
0.0
  9
$USERR2
 40
0.0
  9
$USERR3
 40
0.0
  9
$USERR4
 40
0.0
  9
$USERR5
 40
0.0
  9
$WORLDVIEW
 70
1
  9
$SHADEDGE
 70
3
  9
$SHADEDIF
 70
70
  9
$TILEMODE
 70
1
  9
$MAXACTVP
 70
64
  9
$PINSBASE
 10
0.0
 20
0.0
 30
0.0
  9
$PLIMCHECK
 70
0
  9
$PEXTMIN
 10
1e+20
 20
1e+20
 30
1e+20
  9
$PEXTMAX
 10
-1e+20
 20
-1e+20
 30
-1e+20
  9
$PLIMMIN
 10
-0.0
 20
-0.0
  9
$PLIMMAX
 10
841.0
 20
594.0
  9
$UNITMODE
 70
0
  9
$VISRETAIN
 70
1
  9
$PLINEGEN
 70
0
  9
$PSLTSCALE
 70
1
  9
$TREEDEPTH
 70
3020
  9
$CMLSTYLE
  2
Standard
  9
$CMLJUST
 70
0
  9
$CMLSCALE
 40
20.0
  9
$PROXYGRAPHICS
 70
1
  9
$MEASUREMENT
 70
1
  9
$CELWEIGHT
370
-1
  9
$ENDCAPS
280
0
  9
$JOINSTYLE
280
0
  9
$LWDISPLAY
290
1
  9
$INSUNITS
 70
6
  9
$HYPERLINKBASE
  1

  9
$STYLESHEET
  1

  9
$XEDIT
290
1
  9
$CEPSNTYPE
380
0
  9
$PSTYLEMODE
290
1
  9
$FINGERPRINTGUID
  2
{E177A1E5-366D-4010-A42F-7EA49B469F9D}
  9
$VERSIONGUID
  2
{8413AE41-4F78-4A0F-97DE-083827AE8DA1}
  9
$EXTNAMES
290
1
  9
$PSVPSCALE
 40
0.0
  9
$OLESTARTUP
290
0
  9
$SORTENTS
280
127
  9
$INDEXCTL
280
0
  9
$HIDETEXT
280
1
  9
$XCLIPFRAME
280
1
  9
$HALOGAP
280
0
  9
$OBSCOLOR
 70
257
  9
$OBSLTYPE
280
0
  9
$INTERSECTIONDISPLAY
280
0
  9
$INTERSECTIONCOLOR
 70
257
  9
$DIMASSOC
280
2
  9
$PROJECTNAME
  1

  9
$CAMERADISPLAY
290
0
  9
$LENSLENGTH
 40
50.0
  9
$CAMERAHEIGHT
 40
0.0
  9
$STEPSPERSEC
 40
24.0
  9
$STEPSIZE
 40
100.0
  9
$3DDWFPREC
 40
2.0
  9
$PSOLWIDTH
 40
0.005
  9
$PSOLHEIGHT
 40
0.08
  9
$LOFTANG1
 40
1.570796326795
  9
$LOFTANG2
 40
1.570796326795
  9
$LOFTMAG1
 40
0.0
  9
$LOFTMAG2
 40
0.0
  9
$LOFTPARAM
 70
7
  9
$LOFTNORMALS
280
1
  9
$LATITUDE
 40
37.795
  9
$LONGITUDE
 40
-122.394
  9
$NORTHDIRECTION
 40
0.0
  9
$TIMEZONE
 70
-8000
  9
$LIGHTGLYPHDISPLAY
280
1
  9
$TILEMODELIGHTSYNCH
280
1
  9
$CMATERIAL
347
20
  9
$SOLIDHIST
280
0
  9
$SHOWHIST
280
1
  9
$DWFFRAME
280
2
  9
$DGNFRAME
280
2
  9
$REALWORLDSCALE
290
1
  9
$INTERFERECOLOR
 62
256
  9
$CSHADOW
280
0
  9
$SHADOWPLANELOCATION
 40
0.0
  0
ENDSEC
  0
SECTION
  2
CLASSES
  0
CLASS
  1
ACDBDICTIONARYWDFLT
  2
AcDbDictionaryWithDefault
  3
ObjectDBX Classes
 90
0
 91
0
280
0
281
0
  0
CLASS
  1
SUN
  2
AcDbSun
  3
SCENEOE
 90
1153
 91
0
280
0
281
0
  0
CLASS
  1
VISUALSTYLE
  2
AcDbVisualStyle
  3
ObjectDBX Classes
 90
4095
 91
0
280
0
281
0
  0
CLASS
  1
MATERIAL
  2
AcDbMaterial
  3
ObjectDBX Classes
 90
1153
 91
0
280
0
281
0
  0
CLASS
  1
SCALE
  2
AcDbScale
  3
ObjectDBX Classes
 90
1153
 91
0
280
0
281
0
  0
CLASS
  1
TABLESTYLE
  2
AcDbTableStyle
  3
ObjectDBX Classes
 90
4095
 91
0
280
0
281
0
  0
CLASS
  1
MLEADERSTYLE
  2
AcDbMLeaderStyle
  3
ACDB_MLEADERSTYLE_CLASS
 90
4095
 91
0
280
0
281
0
  0
CLASS
  1
DICTIONARYVAR
  2
AcDbDictionaryVar
  3
ObjectDBX Classes
 90
0
 91
0
280
0
281
0
  0
CLASS
  1
CELLSTYLEMAP
  2
AcDbCellStyleMap
  3
ObjectDBX Classes
 90
1152
 91
0
280
0
281
0
  0
CLASS
  1
MENTALRAYRENDERSETTINGS
  2
AcDbMentalRayRenderSettings
  3
SCENEOE
 90
1024
 91
0
280
0
281
0
  0
CLASS
  1
ACDBDETAILVIEWSTYLE
  2
AcDbDetailViewStyle
  3
ObjectDBX Classes
 90
1025
 91
0
280
0
281
0
  0
CLASS
  1
ACDBSECTIONVIEWSTYLE
  2
AcDbSectionViewStyle
  3
ObjectDBX Classes
 90
1025
 91
0
280
0
281
0
  0
CLASS
  1
RASTERVARIABLES
  2
AcDbRasterVariables
  3
ISM
 90
0
 91
0
280
0
281
0
  0
CLASS
  1
ACDBPLACEHOLDER
  2
AcDbPlaceHolder
  3
ObjectDBX Classes
 90
0
 91
0
280
0
281
0
  0
CLASS
  1
LAYOUT
  2
AcDbLayout
  3
ObjectDBX Classes
 90
0
 91
0
280
0
281
0
  0
ENDSEC
  0
SECTION
  2
TABLES
  0
TABLE
  2
VPORT
  5
8
330
0
100
AcDbSymbolTable
 70
1
  0
VPORT
  5
23
330
8
100
AcDbSymbolTableRecord
100
AcDbViewportTableRecord
  2
*Active
 70
0
 10
0.0
 20
0.0
 11
1.0
 21
1.0
 12
0.0
 22
0.0
 13
0.0
 23
0.0
 14
0.5
 24
0.5
 15
0.5
 25
0.5
 16
0.0
 26
0.0
 36
1.0
 17
0.0
 27
0.0
 37
0.0
 40
1000.0
 41
1.34
 42
50.0
 43
0.0
 44
0.0
 50
0.0
 51
0.0
 71
0
 72
1000
 73
1
 74
3
 75
0
 76
0
 77
0
 78
0
281
0
 65
0
146
0.0
  0
ENDTAB
  0
TABLE
  2
LTYPE
  5
2
330
0
100
AcDbSymbolTable
 70
21
  0
LTYPE
  5
24
330
2
100
AcDbSymbolTableRecord
100
AcDbLinetypeTableRecord
  2
ByBlock
 70
0
  3

 72
65
 73
0
 40
0.0
  0
LTYPE
  5
25
330
2
100
AcDbSymbolTableRecord
100
AcDbLinetypeTableRecord
  2
ByLayer
 70
0
  3

 72
65
 73
0
 40
0.0
  0
LTYPE
  5
26
330
2
100
AcDbSymbolTableRecord
100
AcDbLinetypeTableRecord
  2
Continuous
 70
0
  3

 72
65
 73
0
 40
0.0
  0
LTYPE
  5
2F
330
2
100
AcDbSymbolTableRecord
100
AcDbLinetypeTableRecord
  2
CENTER
 70
0
  3
Center ____ _ ____ _ ____ _ ____ _ ____ _ ____
 72
65
 73
4
 40
5.08
 49
3.175
 74
0
 49
-0.635
 74
0
 49
0.635
 74
0
 49
-0.635
 74
0
  0
LTYPE
  5
30
330
2
100
AcDbSymbolTableRecord
100
AcDbLinetypeTableRecord
  2
CENTERX2
 70
0
  3
Center (2x) ________  __  ________  __  ________
 72
65
 73
4
 40
8.89
 49
6.35
 74
0
 49
-0.635
 74
0
 49
1.27
 74
0
 49
-0.635
 74
0
  0
LTYPE
  5
31
330
2
100
AcDbSymbolTableRecord
100
AcDbLinetypeTableRecord
  2
CENTER2
 70
0
  3
Center (.5x) ____ _ ____ _ ____ _ ____ _ ____
 72
65
 73
4
 40
2.54
 49
1.587
 74
0
 49
-0.318
 74
0
 49
0.318
 74
0
 49
-0.318
 74
0
  0
LTYPE
  5
32
330
2
100
AcDbSymbolTableRecord
100
AcDbLinetypeTableRecord
  2
DASHED
 70
0
  3
Dashed __ __ __ __ __ __ __ __ __ __ __ __ __ _
 72
65
 73
2
 40
1.524
 49
1.27
 74
0
 49
-0.254
 74
0
  0
LTYPE
  5
33
330
2
100
AcDbSymbolTableRecord
100
AcDbLinetypeTableRecord
  2
DASHEDX2
 70
0
  3
Dashed (2x) ____  ____  ____  ____  ____  ____
 72
65
 73
2
 40
3.048
 49
2.54
 74
0
 49
-0.508
 74
0
  0
LTYPE
  5
34
330
2
100
AcDbSymbolTableRecord
100
AcDbLinetypeTableRecord
  2
DASHED2
 70
0
  3
Dashed (.5x) _ _ _ _ _ _ _ _ _ _ _ _ _ _
 72
65
 73
2
 40
0.762
 49
0.635
 74
0
 49
-0.127
 74
0
  0
LTYPE
  5
35
330
2
100
AcDbSymbolTableRecord
100
AcDbLinetypeTableRecord
  2
PHANTOM
 70
0
  3
Phantom ______  __  __  ______  __  __  ______
 72
65
 73
6
 40
6.35
 49
3.175
 74
0
 49
-0.635
 74
0
 49
0.635
 74
0
 49
-0.635
 74
0
 49
0.635
 74
0
 49
-0.635
 74
0
  0
LTYPE
  5
36
330
2
100
AcDbSymbolTableRecord
100
AcDbLinetypeTableRecord
  2
PHANTOMX2
 70
0
  3
Phantom (2x)____________    ____    ____    ____________
 72
65
 73
6
 40
10.795
 49
6.35
 74
0
 49
-0.635
 74
0
 49
1.27
 74
0
 49
-0.635
 74
0
 49
1.27
 74
0
 49
-0.635
 74
0
  0
LTYPE
  5
37
330
2
100
AcDbSymbolTableRecord
100
AcDbLinetypeTableRecord
  2
PHANTOM2
 70
0
  3
Phantom (.5x) ___ _ _ ___ _ _ ___ _ _ ___ _ _ ___
 72
65
 73
6
 40
3.175
 49
1.587
 74
0
 49
-0.318
 74
0
 49
0.318
 74
0
 49
-0.318
 74
0
 49
0.318
 74
0
 49
-0.318
 74
0
  0
LTYPE
  5
38
330
2
100
AcDbSymbolTableRecord
100
AcDbLinetypeTableRecord
  2
DASHDOT
 70
0
  3
Dash dot __ . __ . __ . __ . __ . __ . __ . __
 72
65
 73
4
 40
3.556
 49
2.54
 74
0
 49
-0.508
 74
0
 49
0.0
 74
0
 49
-0.508
 74
0
  0
LTYPE
  5
39
330
2
100
AcDbSymbolTableRecord
100
AcDbLinetypeTableRecord
  2
DASHDOTX2
 70
0
  3
Dash dot (2x) ____  .  ____  .  ____  .  ____
 72
65
 73
4
 40
6.096
 49
5.08
 74
0
 49
-0.508
 74
0
 49
0.0
 74
0
 49
-0.508
 74
0
  0
LTYPE
  5
3A
330
2
100
AcDbSymbolTableRecord
100
AcDbLinetypeTableRecord
  2
DASHDOT2
 70
0
  3
Dash dot (.5x) _ . _ . _ . _ . _ . _ . _ . _
 72
65
 73
4
 40
1.778
 49
1.27
 74
0
 49
-0.254
 74
0
 49
0.0
 74
0
 49
-0.254
 74
0
  0
LTYPE
  5
3B
330
2
100
AcDbSymbolTableRecord
100
AcDbLinetypeTableRecord
  2
DOT
 70
0
  3
Dot .  .  .  .  .  .  .  .  .  .  .  .  .  .  .  .
 72
65
 73
2
 40
0.508
 49
0.0
 74
0
 49
-0.508
 74
0
  0
LTYPE
  5
3C
330
2
100
AcDbSymbolTableRecord
100
AcDbLinetypeTableRecord
  2
DOTX2
 70
0
  3
Dot (2x) .    .    .    .    .    .    .    . 
 72
65
 73
2
 40
1.016
 49
0.0
 74
0
 49
-1.016
 74
0
  0
LTYPE
  5
3D
330
2
100
AcDbSymbolTableRecord
100
AcDbLinetypeTableRecord
  2
DOT2
 70
0
  3
Dot (.5) . . . . . . . . . . . . . . . . . . . 
 72
65
 73
2
 40
0.254
 49
0.0
 74
0
 49
-0.254
 74
0
  0
LTYPE
  5
3E
330
2
100
AcDbSymbolTableRecord
100
AcDbLinetypeTableRecord
  2
DIVIDE
 70
0
  3
Divide __ . . __ . . __ . . __ . . __ . . __
 72
65
 73
6
 40
4.064
 49
2.54
 74
0
 49
-0.508
 74
0
 49
0.0
 74
0
 49
-0.508
 74
0
 49
0.0
 74
0
 49
-0.508
 74
0
  0
LTYPE
  5
3F
330
2
100
AcDbSymbolTableRecord
100
AcDbLinetypeTableRecord
  2
DIVIDEX2
 70
0
  3
Divide (2x) ____  . .  ____  . .  ____  . .  ____
 72
65
 73
6
 40
6.604
 49
5.08
 74
0
 49
-0.508
 74
0
 49
0.0
 74
0
 49
-0.508
 74
0
 49
0.0
 74
0
 49
-0.508
 74
0
  0
LTYPE
  5
40
330
2
100
AcDbSymbolTableRecord
100
AcDbLinetypeTableRecord
  2
DIVIDE2
 70
0
  3
Divide(.5x) _ . _ . _ . _ . _ . _ . _ . _
 72
65
 73
6
 40
2.032
 49
1.27
 74
0
 49
-0.254
 74
0
 49
0.0
 74
0
 49
-0.254
 74
0
 49
0.0
 74
0
 49
-0.254
 74
0
  0
ENDTAB
  0
TABLE
  2
LAYER
  5
1
330
0
100
AcDbSymbolTable
 70
50
  0
LAYER
  5
27
330
1
100
AcDbSymbolTableRecord
100
AcDbLayerTableRecord
  2
0
 70
0
 62
7
  6
Continuous
370
-3
390
13
347
21
  0
LAYER
  5
28
330
1
100
AcDbSymbolTableRecord
100
AcDbLayerTableRecord
  2
Defpoints
 70
0
 62
7
  6
Continuous
290
0
370
-3
390
13
347
21
  0
LAYER
  5
8B
330
1
100
AcDbSymbolTableRecord
100
AcDbLayerTableRecord
  2
A-MARCO
 70
0
 62
7
  6
Continuous
370
70
390
13
347
21
  0
LAYER
  5
8C
330
1
100
AcDbSymbolTableRecord
100
AcDbLayerTableRecord
  2
A-CAJETIN
 70
0
 62
7
  6
Continuous
370
35
390
13
347
21
  0
LAYER
  5
8D
330
1
100
AcDbSymbolTableRecord
100
AcDbLayerTableRecord
  2
A-CAJETIN-TXT
 70
0
 62
7
  6
Continuous
370
25
390
13
347
21
  0
LAYER
  5
8E
330
1
100
AcDbSymbolTableRecord
100
AcDbLayerTableRecord
  2
A-TITULOS
 70
0
 62
7
  6
Continuous
370
35
390
13
347
21
  0
LAYER
  5
8F
330
1
100
AcDbSymbolTableRecord
100
AcDbLayerTableRecord
  2
A-TEXTO
 70
0
 62
7
  6
Continuous
370
18
390
13
347
21
  0
LAYER
  5
90
330
1
100
AcDbSymbolTableRecord
100
AcDbLayerTableRecord
  2
A-TABLAS
 70
0
 62
7
  6
Continuous
370
25
390
13
347
21
  0
LAYER
  5
91
330
1
100
AcDbSymbolTableRecord
100
AcDbLayerTableRecord
  2
A-NOTAS
 70
0
 62
7
  6
Continuous
370
18
390
13
347
21
  0
LAYER
  5
92
330
1
100
AcDbSymbolTableRecord
100
AcDbLayerTableRecord
  2
A-ESCALA-GRAF
 70
0
 62
7
  6
Continuous
370
18
390
13
347
21
  0
LAYER
  5
93
330
1
100
AcDbSymbolTableRecord
100
AcDbLayerTableRecord
  2
A-NORTE
 70
0
 62
7
  6
Continuous
370
25
390
13
347
21
  0
LAYER
  5
94
330
1
100
AcDbSymbolTableRecord
100
AcDbLayerTableRecord
  2
A-IMAGEN-REF
 70
0
 62
7
  6
Continuous
370
13
390
13
347
21
  0
LAYER
  5
95
330
1
100
AcDbSymbolTableRecord
100
AcDbLayerTableRecord
  2
A-VIEWPORT
 70
0
 62
8
  6
Continuous
290
0
370
13
390
13
347
21
  0
LAYER
  5
96
330
1
100
AcDbSymbolTableRecord
100
AcDbLayerTableRecord
  2
A-PENDIENTE
 70
0
 62
1
  6
Continuous
370
25
390
13
347
21
  0
LAYER
  5
97
330
1
100
AcDbSymbolTableRecord
100
AcDbLayerTableRecord
  2
T-LINDERO
 70
0
 62
7
  6
Continuous
370
50
390
13
347
21
  0
LAYER
  5
98
330
1
100
AcDbSymbolTableRecord
100
AcDbLayerTableRecord
  2
T-VERTICE
 70
0
 62
7
  6
Continuous
370
25
390
13
347
21
  0
LAYER
  5
99
330
1
100
AcDbSymbolTableRecord
100
AcDbLayerTableRecord
  2
T-CALLE
 70
0
 62
8
  6
DASHED
370
18
390
13
347
21
  0
LAYER
  5
9A
330
1
100
AcDbSymbolTableRecord
100
AcDbLayerTableRecord
  2
T-TXT-200
 70
0
 62
7
  6
Continuous
370
18
390
13
347
21
  0
LAYER
  5
9B
330
1
100
AcDbSymbolTableRecord
100
AcDbLayerTableRecord
  2
T-COTA-200
 70
0
 62
7
  6
Continuous
370
18
390
13
347
21
  0
LAYER
  5
9C
330
1
100
AcDbSymbolTableRecord
100
AcDbLayerTableRecord
  2
T-TXT-100
 70
0
 62
7
  6
Continuous
370
18
390
13
347
21
  0
LAYER
  5
9D
330
1
100
AcDbSymbolTableRecord
100
AcDbLayerTableRecord
  2
T-COTA-100
 70
0
 62
7
  6
Continuous
370
18
390
13
347
21
  0
LAYER
  5
9E
330
1
100
AcDbSymbolTableRecord
100
AcDbLayerTableRecord
  2
A-HUELLA
 70
0
 62
7
  6
Continuous
370
35
390
13
347
21
  0
LAYER
  5
9F
330
1
100
AcDbSymbolTableRecord
100
AcDbLayerTableRecord
  2
A-HUELLA-TRAMA
 70
0
 62
8
  6
Continuous
370
9
390
13
347
21
  0
LAYER
  5
A0
330
1
100
AcDbSymbolTableRecord
100
AcDbLayerTableRecord
  2
A-PATIO
 70
0
 62
7
  6
Continuous
370
25
390
13
347
21
  0
LAYER
  5
A1
330
1
100
AcDbSymbolTableRecord
100
AcDbLayerTableRecord
  2
A-RETIRO
 70
0
 62
8
  6
DASHED2
370
18
390
13
347
21
  0
LAYER
  5
A2
330
1
100
AcDbSymbolTableRecord
100
AcDbLayerTableRecord
  2
A-MURO
 70
0
 62
7
  6
Continuous
370
50
390
13
347
21
  0
LAYER
  5
A3
330
1
100
AcDbSymbolTableRecord
100
AcDbLayerTableRecord
  2
A-MURO-TRAMA
 70
0
 62
8
  6
Continuous
370
9
390
13
347
21
  0
LAYER
  5
A4
330
1
100
AcDbSymbolTableRecord
100
AcDbLayerTableRecord
  2
A-PUERTA
 70
0
 62
7
  6
Continuous
370
25
390
13
347
21
  0
LAYER
  5
A5
330
1
100
AcDbSymbolTableRecord
100
AcDbLayerTableRecord
  2
A-VENTANA
 70
0
 62
7
  6
Continuous
370
25
390
13
347
21
  0
LAYER
  5
A6
330
1
100
AcDbSymbolTableRecord
100
AcDbLayerTableRecord
  2
A-ESCALERA
 70
0
 62
7
  6
Continuous
370
25
390
13
347
21
  0
LAYER
  5
A7
330
1
100
AcDbSymbolTableRecord
100
AcDbLayerTableRecord
  2
A-VEHICULO
 70
0
 62
8
  6
Continuous
370
18
390
13
347
21
  0
LAYER
  5
A8
330
1
100
AcDbSymbolTableRecord
100
AcDbLayerTableRecord
  2
A-MOBILIARIO
 70
0
 62
8
  6
Continuous
370
18
390
13
347
21
  0
LAYER
  5
A9
330
1
100
AcDbSymbolTableRecord
100
AcDbLayerTableRecord
  2
A-DEMARCACION
 70
0
 62
8
  6
DASHED
370
18
390
13
347
21
  0
LAYER
  5
AA
330
1
100
AcDbSymbolTableRecord
100
AcDbLayerTableRecord
  2
A-PROYECCION
 70
0
 62
8
  6
DASHED
370
18
390
13
347
21
  0
LAYER
  5
AB
330
1
100
AcDbSymbolTableRecord
100
AcDbLayerTableRecord
  2
A-EJES
 70
0
 62
8
  6
CENTER
370
13
390
13
347
21
  0
LAYER
  5
AC
330
1
100
AcDbSymbolTableRecord
100
AcDbLayerTableRecord
  2
A-EJES-TXT
 70
0
 62
7
  6
Continuous
370
25
390
13
347
21
  0
LAYER
  5
AD
330
1
100
AcDbSymbolTableRecord
100
AcDbLayerTableRecord
  2
A-COTA-50
 70
0
 62
7
  6
Continuous
370
18
390
13
347
21
  0
LAYER
  5
AE
330
1
100
AcDbSymbolTableRecord
100
AcDbLayerTableRecord
  2
A-TXT-50
 70
0
 62
7
  6
Continuous
370
18
390
13
347
21
  0
LAYER
  5
AF
330
1
100
AcDbSymbolTableRecord
100
AcDbLayerTableRecord
  2
A-ESPACIOS
 70
0
 62
7
  6
Continuous
370
25
390
13
347
21
  0
LAYER
  5
B0
330
1
100
AcDbSymbolTableRecord
100
AcDbLayerTableRecord
  2
A-NIVELES
 70
0
 62
7
  6
Continuous
370
18
390
13
347
21
  0
LAYER
  5
B1
330
1
100
AcDbSymbolTableRecord
100
AcDbLayerTableRecord
  2
A-CORTES
 70
0
 62
7
  6
Continuous
370
35
390
13
347
21
  0
LAYER
  5
B2
330
1
100
AcDbSymbolTableRecord
100
AcDbLayerTableRecord
  2
A-JARDIN
 70
0
 62
8
  6
Continuous
370
9
390
13
347
21
  0
LAYER
  5
B3
330
1
100
AcDbSymbolTableRecord
100
AcDbLayerTableRecord
  2
E-COLUMNA
 70
0
 62
7
  6
Continuous
370
35
390
13
347
21
  0
LAYER
  5
B7
330
1
100
AcDbSymbolTableRecord
100
AcDbLayerTableRecord
  2
S-CORTE
 70
0
 62
7
  6
Continuous
370
50
390
13
347
21
  0
LAYER
  5
B8
330
1
100
AcDbSymbolTableRecord
100
AcDbLayerTableRecord
  2
S-VISTA
 70
0
 62
7
  6
Continuous
370
25
390
13
347
21
  0
LAYER
  5
B9
330
1
100
AcDbSymbolTableRecord
100
AcDbLayerTableRecord
  2
S-OCULTO
 70
0
 62
8
  6
DASHED
370
13
390
13
347
21
  0
LAYER
  5
BA
330
1
100
AcDbSymbolTableRecord
100
AcDbLayerTableRecord
  2
S-TRAMA
 70
0
 62
8
  6
Continuous
370
9
390
13
347
21
  0
LAYER
  5
BB
330
1
100
AcDbSymbolTableRecord
100
AcDbLayerTableRecord
  2
S-BARANDA
 70
0
 62
7
  6
Continuous
370
25
390
13
347
21
  0
LAYER
  5
BC
330
1
100
AcDbSymbolTableRecord
100
AcDbLayerTableRecord
  2
S-TXT
 70
0
 62
7
  6
Continuous
370
18
390
13
347
21
  0
LAYER
  5
BD
330
1
100
AcDbSymbolTableRecord
100
AcDbLayerTableRecord
  2
S-COTA
 70
0
 62
7
  6
Continuous
370
18
390
13
347
21
  0
ENDTAB
  0
TABLE
  2
STYLE
  5
5
330
0
100
AcDbSymbolTable
 70
27
  0
STYLE
  5
29
330
5
100
AcDbSymbolTableRecord
100
AcDbTextStyleTableRecord
  2
Standard
 70
0
 40
0.0
 41
1.0
 50
0.0
 71
0
 42
2.5
  3
txt
  4

  0
STYLE
  5
41
330
5
100
AcDbSymbolTableRecord
100
AcDbTextStyleTableRecord
  2
OpenSans-Light
 70
0
 40
0.0
 41
1.0
 50
0.0
 71
0
 42
2.5
  3
OpenSans-Light.ttf
  4

  0
STYLE
  5
42
330
5
100
AcDbSymbolTableRecord
100
AcDbTextStyleTableRecord
  2
OpenSans-Light-Italic
 70
0
 40
0.0
 41
1.0
 50
0.0
 71
0
 42
2.5
  3
OpenSans-LightItalic.ttf
  4

  0
STYLE
  5
43
330
5
100
AcDbSymbolTableRecord
100
AcDbTextStyleTableRecord
  2
OpenSans
 70
0
 40
0.0
 41
1.0
 50
0.0
 71
0
 42
2.5
  3
OpenSans-Regular.ttf
  4

  0
STYLE
  5
44
330
5
100
AcDbSymbolTableRecord
100
AcDbTextStyleTableRecord
  2
OpenSans-Italic
 70
0
 40
0.0
 41
1.0
 50
0.0
 71
0
 42
2.5
  3
OpenSans-Italic.ttf
  4

  0
STYLE
  5
45
330
5
100
AcDbSymbolTableRecord
100
AcDbTextStyleTableRecord
  2
OpenSans-SemiBold
 70
0
 40
0.0
 41
1.0
 50
0.0
 71
0
 42
2.5
  3
OpenSans-SemiBold.ttf
  4

  0
STYLE
  5
46
330
5
100
AcDbSymbolTableRecord
100
AcDbTextStyleTableRecord
  2
OpenSans-SemiBoldItalic
 70
0
 40
0.0
 41
1.0
 50
0.0
 71
0
 42
2.5
  3
OpenSans-SemiBoldItalic.ttf
  4

  0
STYLE
  5
47
330
5
100
AcDbSymbolTableRecord
100
AcDbTextStyleTableRecord
  2
OpenSans-Bold
 70
0
 40
0.0
 41
1.0
 50
0.0
 71
0
 42
2.5
  3
OpenSans-Bold.ttf
  4

  0
STYLE
  5
48
330
5
100
AcDbSymbolTableRecord
100
AcDbTextStyleTableRecord
  2
OpenSans-BoldItalic
 70
0
 40
0.0
 41
1.0
 50
0.0
 71
0
 42
2.5
  3
OpenSans-BoldItalic.ttf
  4

  0
STYLE
  5
49
330
5
100
AcDbSymbolTableRecord
100
AcDbTextStyleTableRecord
  2
OpenSans-ExtraBold
 70
0
 40
0.0
 41
1.0
 50
0.0
 71
0
 42
2.5
  3
OpenSans-ExtraBold.ttf
  4

  0
STYLE
  5
4A
330
5
100
AcDbSymbolTableRecord
100
AcDbTextStyleTableRecord
  2
OpenSans-ExtraBoldItalic
 70
0
 40
0.0
 41
1.0
 50
0.0
 71
0
 42
2.5
  3
OpenSans-ExtraBoldItalic.ttf
  4

  0
STYLE
  5
4B
330
5
100
AcDbSymbolTableRecord
100
AcDbTextStyleTableRecord
  2
OpenSansCondensed-Bold
 70
0
 40
0.0
 41
1.0
 50
0.0
 71
0
 42
2.5
  3
OpenSansCondensed-Bold.ttf
  4

  0
STYLE
  5
4C
330
5
100
AcDbSymbolTableRecord
100
AcDbTextStyleTableRecord
  2
OpenSansCondensed-Light
 70
0
 40
0.0
 41
1.0
 50
0.0
 71
0
 42
2.5
  3
OpenSansCondensed-Light.ttf
  4

  0
STYLE
  5
4D
330
5
100
AcDbSymbolTableRecord
100
AcDbTextStyleTableRecord
  2
OpenSansCondensed-Italic
 70
0
 40
0.0
 41
1.0
 50
0.0
 71
0
 42
2.5
  3
OpenSansCondensed-LightItalic.ttf
  4

  0
STYLE
  5
4E
330
5
100
AcDbSymbolTableRecord
100
AcDbTextStyleTableRecord
  2
LiberationSans
 70
0
 40
0.0
 41
1.0
 50
0.0
 71
0
 42
2.5
  3
LiberationSans-Regular.ttf
  4

  0
STYLE
  5
4F
330
5
100
AcDbSymbolTableRecord
100
AcDbTextStyleTableRecord
  2
LiberationSans-Bold
 70
0
 40
0.0
 41
1.0
 50
0.0
 71
0
 42
2.5
  3
LiberationSans-Bold.ttf
  4

  0
STYLE
  5
50
330
5
100
AcDbSymbolTableRecord
100
AcDbTextStyleTableRecord
  2
LiberationSans-BoldItalic
 70
0
 40
0.0
 41
1.0
 50
0.0
 71
0
 42
2.5
  3
LiberationSans-BoldItalic.ttf
  4

  0
STYLE
  5
51
330
5
100
AcDbSymbolTableRecord
100
AcDbTextStyleTableRecord
  2
LiberationSans-Italic
 70
0
 40
0.0
 41
1.0
 50
0.0
 71
0
 42
2.5
  3
LiberationSans-Italic.ttf
  4

  0
STYLE
  5
52
330
5
100
AcDbSymbolTableRecord
100
AcDbTextStyleTableRecord
  2
LiberationSerif
 70
0
 40
0.0
 41
1.0
 50
0.0
 71
0
 42
2.5
  3
LiberationSerif-Regular.ttf
  4

  0
STYLE
  5
53
330
5
100
AcDbSymbolTableRecord
100
AcDbTextStyleTableRecord
  2
LiberationSerif-Bold
 70
0
 40
0.0
 41
1.0
 50
0.0
 71
0
 42
2.5
  3
LiberationSerif-Bold.ttf
  4

  0
STYLE
  5
54
330
5
100
AcDbSymbolTableRecord
100
AcDbTextStyleTableRecord
  2
LiberationSerif-BoldItalic
 70
0
 40
0.0
 41
1.0
 50
0.0
 71
0
 42
2.5
  3
LiberationSerif-BoldItalic.ttf
  4

  0
STYLE
  5
55
330
5
100
AcDbSymbolTableRecord
100
AcDbTextStyleTableRecord
  2
LiberationSerif-Italic
 70
0
 40
0.0
 41
1.0
 50
0.0
 71
0
 42
2.5
  3
LiberationSerif-Italic.ttf
  4

  0
STYLE
  5
56
330
5
100
AcDbSymbolTableRecord
100
AcDbTextStyleTableRecord
  2
LiberationMono
 70
0
 40
0.0
 41
1.0
 50
0.0
 71
0
 42
2.5
  3
LiberationMono-Regular.ttf
  4

  0
STYLE
  5
57
330
5
100
AcDbSymbolTableRecord
100
AcDbTextStyleTableRecord
  2
LiberationMono-Bold
 70
0
 40
0.0
 41
1.0
 50
0.0
 71
0
 42
2.5
  3
LiberationMono-Bold.ttf
  4

  0
STYLE
  5
58
330
5
100
AcDbSymbolTableRecord
100
AcDbTextStyleTableRecord
  2
LiberationMono-BoldItalic
 70
0
 40
0.0
 41
1.0
 50
0.0
 71
0
 42
2.5
  3
LiberationMono-BoldItalic.ttf
  4

  0
STYLE
  5
59
330
5
100
AcDbSymbolTableRecord
100
AcDbTextStyleTableRecord
  2
LiberationMono-Italic
 70
0
 40
0.0
 41
1.0
 50
0.0
 71
0
 42
2.5
  3
LiberationMono-Italic.ttf
  4

  0
STYLE
  5
8A
330
5
100
AcDbSymbolTableRecord
100
AcDbTextStyleTableRecord
  2
ARIAL
 70
0
 40
0.0
 41
1.0
 50
0.0
 71
0
 42
2.5
  3
arial.ttf
  4

  0
ENDTAB
  0
TABLE
  2
VIEW
  5
7
330
0
100
AcDbSymbolTable
 70
0
  0
ENDTAB
  0
TABLE
  2
UCS
  5
6
330
0
100
AcDbSymbolTable
 70
0
  0
ENDTAB
  0
TABLE
  2
APPID
  5
3
330
0
100
AcDbSymbolTable
 70
3
  0
APPID
  5
2A
330
3
100
AcDbSymbolTableRecord
100
AcDbRegAppTableRecord
  2
ACAD
 70
0
  0
APPID
  5
396
330
3
100
AcDbSymbolTableRecord
100
AcDbRegAppTableRecord
  2
HATCHBACKGROUNDCOLOR
 70
0
  0
APPID
  5
397
330
3
100
AcDbSymbolTableRecord
100
AcDbRegAppTableRecord
  2
EZDXF
 70
0
  0
ENDTAB
  0
TABLE
  2
DIMSTYLE
  5
4
330
0
100
AcDbSymbolTable
 70
17
100
AcDbDimStyleTable
  0
DIMSTYLE
105
2B
330
4
100
AcDbSymbolTableRecord
100
AcDbDimStyleTableRecord
  2
Standard
 70
0
 40
1.0
 41
2.5
 42
0.625
 43
3.75
 44
1.25
 45
0.0
 46
0.0
 47
0.0
 48
0.0
 49
2.5
140
2.5
141
2.5
142
0.0
143
0.03937007874
144
1.0
145
0.0
146
1.0
147
0.625
148
0.0
 69
0
 70
0
 71
0
 72
0
 73
0
 74
0
 75
0
 76
0
 77
1
 78
8
 79
3
170
0
171
3
172
1
173
0
174
0
175
0
176
0
177
0
178
0
179
2
271
2
272
2
273
2
274
3
275
0
276
0
277
2
278
44
279
0
280
0
281
0
282
0
283
0
284
8
285
0
286
0
288
0
289
3
290
0
371
-2
372
-2
  0
DIMSTYLE
105
73
330
4
100
AcDbSymbolTableRecord
100
AcDbDimStyleTableRecord
  2
EZDXF
 70
0
 40
1.0
 41
0.175
 42
0.125
 43
3.75
 44
0.375
 45
0.0
 46
0.0
 47
0.0
 48
0.0
 49
2.5
140
0.25
141
2.5
142
0.0
143
0.03937007874
144
100.0
145
0.0
146
0.5
147
0.1
148
0.0
 69
0
 70
0
 71
0
 72
0
 73
0
 74
0
 75
0
 76
0
 77
1
 78
12
 79
3
170
0
171
3
172
1
173
0
174
0
175
0
176
0
177
0
178
0
179
2
271
2
272
2
273
2
274
3
275
0
276
0
277
2
278
46
279
2
280
0
281
0
282
0
283
0
284
8
285
0
286
0
288
1
289
3
290
0
340
4C
342
74
371
-2
372
-2
  0
DIMSTYLE
105
7C
330
4
100
AcDbSymbolTableRecord
100
AcDbDimStyleTableRecord
  2
EZ_M_100_H25_CM
 70
0
 40
1.0
 41
0.25
 42
0.125
 43
3.75
 44
0.375
 45
0.0
 46
0.0
 47
0.0
 48
0.0
 49
2.5
140
0.25
141
2.5
142
0.125
143
0.03937007874
144
100.0
145
0.0
146
0.5
147
0.1
148
0.0
 69
0
 70
0
 71
0
 72
0
 73
0
 74
0
 75
0
 76
0
 77
1
 78
12
 79
3
170
0
171
3
172
1
173
0
174
0
175
0
176
0
177
0
178
0
179
2
271
2
272
2
273
2
274
3
275
0
276
0
277
2
278
46
279
2
280
0
281
0
282
0
283
0
284
8
285
0
286
0
288
1
289
3
290
0
340
4C
371
-2
372
-2
  0
DIMSTYLE
105
7D
330
4
100
AcDbSymbolTableRecord
100
AcDbDimStyleTableRecord
  2
EZ_M_50_H25_CM
 70
0
 40
1.0
 41
0.125
 42
0.0625
 43
3.75
 44
0.1875
 45
0.0
 46
0.0
 47
0.0
 48
0.0
 49
2.5
140
0.125
141
2.5
142
0.0625
143
0.03937007874
144
100.0
145
0.0
146
0.5
147
0.05
148
0.0
 69
0
 70
0
 71
0
 72
0
 73
0
 74
0
 75
0
 76
0
 77
1
 78
12
 79
3
170
0
171
3
172
1
173
0
174
0
175
0
176
0
177
0
178
0
179
2
271
2
272
2
273
2
274
3
275
0
276
0
277
2
278
46
279
2
280
0
281
0
282
0
283
0
284
8
285
0
286
0
288
1
289
3
290
0
340
4C
371
-2
372
-2
  0
DIMSTYLE
105
7E
330
4
100
AcDbSymbolTableRecord
100
AcDbDimStyleTableRecord
  2
EZ_M_25_H25_CM
 70
0
 40
1.0
 41
0.0625
 42
0.03125
 43
3.75
 44
0.09375
 45
0.0
 46
0.0
 47
0.0
 48
0.0
 49
2.5
140
0.0625
141
2.5
142
0.03125
143
0.03937007874
144
100.0
145
0.0
146
0.5
147
0.025
148
0.0
 69
0
 70
0
 71
0
 72
0
 73
0
 74
0
 75
0
 76
0
 77
1
 78
12
 79
3
170
0
171
3
172
1
173
0
174
0
175
0
176
0
177
0
178
0
179
2
271
2
272
2
273
2
274
3
275
0
276
0
277
2
278
46
279
2
280
0
281
0
282
0
283
0
284
8
285
0
286
0
288
1
289
3
290
0
340
4C
371
-2
372
-2
  0
DIMSTYLE
105
7F
330
4
100
AcDbSymbolTableRecord
100
AcDbDimStyleTableRecord
  2
EZ_M_20_H25_CM
 70
0
 40
1.0
 41
0.05
 42
0.025
 43
3.75
 44
0.07500000000000001
 45
0.0
 46
0.0
 47
0.0
 48
0.0
 49
2.5
140
0.05
141
2.5
142
0.025
143
0.03937007874
144
100.0
145
0.0
146
0.5
147
0.020000000000000004
148
0.0
 69
0
 70
0
 71
0
 72
0
 73
0
 74
0
 75
0
 76
0
 77
1
 78
12
 79
3
170
0
171
3
172
1
173
0
174
0
175
0
176
0
177
0
178
0
179
2
271
2
272
2
273
2
274
3
275
0
276
0
277
2
278
46
279
2
280
0
281
0
282
0
283
0
284
8
285
0
286
0
288
1
289
3
290
0
340
4C
371
-2
372
-2
  0
DIMSTYLE
105
80
330
4
100
AcDbSymbolTableRecord
100
AcDbDimStyleTableRecord
  2
EZ_M_10_H25_CM
 70
0
 40
1.0
 41
0.025
 42
0.0125
 43
3.75
 44
0.037500000000000006
 45
0.0
 46
0.0
 47
0.0
 48
0.0
 49
2.5
140
0.025
141
2.5
142
0.0125
143
0.03937007874
144
100.0
145
0.0
146
0.5
147
0.010000000000000002
148
0.0
 69
0
 70
0
 71
0
 72
0
 73
0
 74
0
 75
0
 76
0
 77
1
 78
12
 79
3
170
0
171
3
172
1
173
0
174
0
175
0
176
0
177
0
178
0
179
2
271
2
272
2
273
2
274
3
275
0
276
0
277
2
278
46
279
2
280
0
281
0
282
0
283
0
284
8
285
0
286
0
288
1
289
3
290
0
340
4C
371
-2
372
-2
  0
DIMSTYLE
105
81
330
4
100
AcDbSymbolTableRecord
100
AcDbDimStyleTableRecord
  2
EZ_M_5_H25_CM
 70
0
 40
1.0
 41
0.0125
 42
0.00625
 43
3.75
 44
0.018750000000000003
 45
0.0
 46
0.0
 47
0.0
 48
0.0
 49
2.5
140
0.0125
141
2.5
142
0.00625
143
0.03937007874
144
100.0
145
0.0
146
0.5
147
0.005000000000000001
148
0.0
 69
0
 70
0
 71
0
 72
0
 73
0
 74
0
 75
0
 76
0
 77
1
 78
12
 79
3
170
0
171
3
172
1
173
0
174
0
175
0
176
0
177
0
178
0
179
2
271
2
272
2
273
2
274
3
275
0
276
0
277
2
278
46
279
2
280
0
281
0
282
0
283
0
284
8
285
0
286
0
288
1
289
3
290
0
340
4C
371
-2
372
-2
  0
DIMSTYLE
105
82
330
4
100
AcDbSymbolTableRecord
100
AcDbDimStyleTableRecord
  2
EZ_M_1_H25_CM
 70
0
 40
1.0
 41
0.0025
 42
0.00125
 43
3.75
 44
0.00375
 45
0.0
 46
0.0
 47
0.0
 48
0.0
 49
2.5
140
0.0025
141
2.5
142
0.00125
143
0.03937007874
144
100.0
145
0.0
146
0.5
147
0.001
148
0.0
 69
0
 70
0
 71
0
 72
0
 73
0
 74
0
 75
0
 76
0
 77
1
 78
12
 79
3
170
0
171
3
172
1
173
0
174
0
175
0
176
0
177
0
178
0
179
2
271
2
272
2
273
2
274
3
275
0
276
0
277
2
278
46
279
2
280
0
281
0
282
0
283
0
284
8
285
0
286
0
288
1
289
3
290
0
340
4C
371
-2
372
-2
  0
DIMSTYLE
105
83
330
4
100
AcDbSymbolTableRecord
100
AcDbDimStyleTableRecord
  2
EZ_RADIUS
 70
0
 40
1.0
 41
0.25
 42
0.125
 43
3.75
 44
0.375
 45
0.0
 46
0.0
 47
0.0
 48
0.0
 49
2.5
140
0.25
141
0.0
142
0.0
143
0.03937007874
144
100.0
145
0.0
146
0.5
147
0.1
148
0.0
 69
0
 70
0
 71
0
 72
0
 73
0
 74
0
 75
0
 76
0
 77
1
 78
12
 79
3
170
0
171
3
172
0
173
0
174
0
175
0
176
0
177
0
178
0
179
2
271
2
272
2
273
2
274
3
275
0
276
0
277
2
278
46
279
1
280
0
281
0
282
0
283
0
284
8
285
0
286
0
288
1
289
3
290
0
340
4C
342
84
371
-2
372
-2
  0
DIMSTYLE
105
88
330
4
100
AcDbSymbolTableRecord
100
AcDbDimStyleTableRecord
  2
EZ_RADIUS_INSIDE
 70
0
 40
1.0
 41
0.25
 42
0.125
 43
3.75
 44
0.375
 45
0.0
 46
0.0
 47
0.0
 48
0.0
 49
2.5
140
0.25
141
0.0
142
0.0
143
0.03937007874
144
100.0
145
0.0
146
0.5
147
0.1
148
0.0
 69
0
 70
0
 71
0
 72
0
 73
0
 74
0
 75
0
 76
0
 77
0
 78
12
 79
3
170
0
171
3
172
0
173
0
174
1
175
0
176
0
177
0
178
0
179
2
271
2
272
2
273
2
274
3
275
0
276
0
277
2
278
46
279
0
280
0
281
0
282
0
283
0
284
8
285
0
286
0
288
1
289
0
290
0
340
4C
342
84
371
-2
372
-2
  0
DIMSTYLE
105
89
330
4
100
AcDbSymbolTableRecord
100
AcDbDimStyleTableRecord
  2
EZ_CURVED
 70
0
 40
1.0
 41
0.25
 42
0.125
 43
3.75
 44
0.375
 45
0.0
 46
0.0
 47
0.0
 48
0.0
 49
2.5
140
0.25
141
2.5
142
0.0
143
0.03937007874
144
100.0
145
0.0
146
0.5
147
0.1
148
0.0
 69
0
 70
0
 71
0
 72
0
 73
0
 74
0
 75
0
 76
0
 77
1
 78
12
 79
2
 90
2
170
0
171
3
172
1
173
0
174
0
175
0
176
0
177
0
178
0
179
2
271
2
272
2
273
2
274
3
275
0
276
0
277
2
278
46
279
2
280
0
281
0
282
0
283
0
284
8
285
0
286
0
288
1
289
3
290
0
340
4C
371
-2
372
-2
  0
DIMSTYLE
105
B4
330
4
100
AcDbSymbolTableRecord
100
AcDbDimStyleTableRecord
  2
COTA-50
 70
0
 40
1.0
 41
0.06
 42
0.05
 43
3.75
 44
0.05
 45
0.0
 46
0.05
 47
0.0
 48
0.0
 49
2.5
140
0.11000000000000001
141
2.5
142
0.06
143
0.03937007874
144
1.0
145
0.0
146
1.0
147
0.04000000000000001
148
0.0
 69
0
 70
0
 71
0
 72
0
 73
0
 74
0
 75
0
 76
0
 77
1
 78
0
 79
3
170
0
171
3
172
1
173
0
174
0
175
0
176
7
177
7
178
7
179
2
271
2
272
2
273
2
274
3
275
0
276
0
277
2
278
46
279
0
280
0
281
0
282
0
283
0
284
8
285
0
286
0
288
0
289
3
290
0
340
8A
371
18
372
13
  0
DIMSTYLE
105
B5
330
4
100
AcDbSymbolTableRecord
100
AcDbDimStyleTableRecord
  2
COTA-100
 70
0
 40
1.0
 41
0.12
 42
0.1
 43
3.75
 44
0.1
 45
0.0
 46
0.1
 47
0.0
 48
0.0
 49
2.5
140
0.22000000000000003
141
2.5
142
0.12
143
0.03937007874
144
1.0
145
0.0
146
1.0
147
0.08000000000000002
148
0.0
 69
0
 70
0
 71
0
 72
0
 73
0
 74
0
 75
0
 76
0
 77
1
 78
0
 79
3
170
0
171
3
172
1
173
0
174
0
175
0
176
7
177
7
178
7
179
2
271
2
272
2
273
2
274
3
275
0
276
0
277
2
278
46
279
0
280
0
281
0
282
0
283
0
284
8
285
0
286
0
288
0
289
3
290
0
340
8A
371
18
372
13
  0
DIMSTYLE
105
B6
330
4
100
AcDbSymbolTableRecord
100
AcDbDimStyleTableRecord
  2
COTA-200
 70
0
 40
1.0
 41
0.24
 42
0.2
 43
3.75
 44
0.2
 45
0.0
 46
0.2
 47
0.0
 48
0.0
 49
2.5
140
0.44000000000000006
141
2.5
142
0.24
143
0.03937007874
144
1.0
145
0.0
146
1.0
147
0.16000000000000003
148
0.0
 69
0
 70
0
 71
0
 72
0
 73
0
 74
0
 75
0
 76
0
 77
1
 78
0
 79
3
170
0
171
3
172
1
173
0
174
0
175
0
176
7
177
7
178
7
179
2
271
2
272
2
273
2
274
3
275
0
276
0
277
2
278
46
279
0
280
0
281
0
282
0
283
0
284
8
285
0
286
0
288
0
289
3
290
0
340
8A
371
18
372
13
  0
DIMSTYLE
105
BE
330
4
100
AcDbSymbolTableRecord
100
AcDbDimStyleTableRecord
  2
COTA-10
 70
0
 40
1.0
 41
0.012
 42
0.01
 43
3.75
 44
0.01
 45
0.0
 46
0.01
 47
0.0
 48
0.0
 49
2.5
140
0.022000000000000002
141
2.5
142
0.012
143
0.03937007874
144
1.0
145
0.0
146
1.0
147
0.008
148
0.0
 69
0
 70
0
 71
0
 72
0
 73
0
 74
0
 75
0
 76
0
 77
1
 78
0
 79
3
170
0
171
3
172
1
173
0
174
0
175
0
176
7
177
7
178
7
179
2
271
2
272
2
273
2
274
3
275
0
276
0
277
2
278
46
279
0
280
0
281
0
282
0
283
0
284
8
285
0
286
0
288
0
289
3
290
0
340
8A
371
18
372
13
  0
DIMSTYLE
105
BF
330
4
100
AcDbSymbolTableRecord
100
AcDbDimStyleTableRecord
  2
COTA-25
 70
0
 40
1.0
 41
0.03
 42
0.025
 43
3.75
 44
0.025
 45
0.0
 46
0.025
 47
0.0
 48
0.0
 49
2.5
140
0.05500000000000001
141
2.5
142
0.03
143
0.03937007874
144
1.0
145
0.0
146
1.0
147
0.020000000000000004
148
0.0
 69
0
 70
0
 71
0
 72
0
 73
0
 74
0
 75
0
 76
0
 77
1
 78
0
 79
3
170
0
171
3
172
1
173
0
174
0
175
0
176
7
177
7
178
7
179
2
271
2
272
2
273
2
274
3
275
0
276
0
277
2
278
46
279
0
280
0
281
0
282
0
283
0
284
8
285
0
286
0
288
0
289
3
290
0
340
8A
371
18
372
13
  0
ENDTAB
  0
TABLE
  2
BLOCK_RECORD
  5
9
330
0
100
AcDbSymbolTable
 70
36
  0
BLOCK_RECORD
  5
17
330
9
100
AcDbSymbolTableRecord
100
AcDbBlockTableRecord
  2
*Model_Space
340
1A
 70
0
280
1
281
0
  0
BLOCK_RECORD
  5
74
330
9
100
AcDbSymbolTableRecord
100
AcDbBlockTableRecord
  2
_ARCHTICK
340
0
 70
0
280
1
281
0
  0
BLOCK_RECORD
  5
78
330
9
100
AcDbSymbolTableRecord
100
AcDbBlockTableRecord
  2
_CLOSEDFILLED
340
0
 70
0
280
1
281
0
  0
BLOCK_RECORD
  5
84
330
9
100
AcDbSymbolTableRecord
100
AcDbBlockTableRecord
  2
_CLOSEDBLANK
340
0
 70
0
280
1
281
0
  0
BLOCK_RECORD
  5
F4
330
9
100
AcDbSymbolTableRecord
100
AcDbBlockTableRecord
  2
*D1
340
0
 70
0
280
1
281
0
  0
BLOCK_RECORD
  5
F9
330
9
100
AcDbSymbolTableRecord
100
AcDbBlockTableRecord
  2
_OBLIQUE
340
0
 70
0
280
1
281
0
  0
BLOCK_RECORD
  5
107
330
9
100
AcDbSymbolTableRecord
100
AcDbBlockTableRecord
  2
*D2
340
0
 70
0
280
1
281
0
  0
BLOCK_RECORD
  5
116
330
9
100
AcDbSymbolTableRecord
100
AcDbBlockTableRecord
  2
*D3
340
0
 70
0
280
1
281
0
  0
BLOCK_RECORD
  5
125
330
9
100
AcDbSymbolTableRecord
100
AcDbBlockTableRecord
  2
*D4
340
0
 70
0
280
1
281
0
  0
BLOCK_RECORD
  5
134
330
9
100
AcDbSymbolTableRecord
100
AcDbBlockTableRecord
  2
*D5
340
0
 70
0
280
1
281
0
  0
BLOCK_RECORD
  5
143
330
9
100
AcDbSymbolTableRecord
100
AcDbBlockTableRecord
  2
*D6
340
0
 70
0
280
1
281
0
  0
BLOCK_RECORD
  5
152
330
9
100
AcDbSymbolTableRecord
100
AcDbBlockTableRecord
  2
*D7
340
0
 70
0
280
1
281
0
  0
BLOCK_RECORD
  5
161
330
9
100
AcDbSymbolTableRecord
100
AcDbBlockTableRecord
  2
*D8
340
0
 70
0
280
1
281
0
  0
BLOCK_RECORD
  5
170
330
9
100
AcDbSymbolTableRecord
100
AcDbBlockTableRecord
  2
*D9
340
0
 70
0
280
1
281
0
  0
BLOCK_RECORD
  5
17F
330
9
100
AcDbSymbolTableRecord
100
AcDbBlockTableRecord
  2
*D10
340
0
 70
0
280
1
281
0
  0
BLOCK_RECORD
  5
18E
330
9
100
AcDbSymbolTableRecord
100
AcDbBlockTableRecord
  2
*D11
340
0
 70
0
280
1
281
0
  0
BLOCK_RECORD
  5
19D
330
9
100
AcDbSymbolTableRecord
100
AcDbBlockTableRecord
  2
*D12
340
0
 70
0
280
1
281
0
  0
BLOCK_RECORD
  5
1AC
330
9
100
AcDbSymbolTableRecord
100
AcDbBlockTableRecord
  2
*D13
340
0
 70
0
280
1
281
0
  0
BLOCK_RECORD
  5
1BB
330
9
100
AcDbSymbolTableRecord
100
AcDbBlockTableRecord
  2
*D14
340
0
 70
0
280
1
281
0
  0
BLOCK_RECORD
  5
1CA
330
9
100
AcDbSymbolTableRecord
100
AcDbBlockTableRecord
  2
*D15
340
0
 70
0
280
1
281
0
  0
BLOCK_RECORD
  5
200
330
9
100
AcDbSymbolTableRecord
100
AcDbBlockTableRecord
  2
*D16
340
0
 70
0
280
1
281
0
  0
BLOCK_RECORD
  5
20F
330
9
100
AcDbSymbolTableRecord
100
AcDbBlockTableRecord
  2
*D17
340
0
 70
0
280
1
281
0
  0
BLOCK_RECORD
  5
21E
330
9
100
AcDbSymbolTableRecord
100
AcDbBlockTableRecord
  2
*D18
340
0
 70
0
280
1
281
0
  0
BLOCK_RECORD
  5
22D
330
9
100
AcDbSymbolTableRecord
100
AcDbBlockTableRecord
  2
*D19
340
0
 70
0
280
1
281
0
  0
BLOCK_RECORD
  5
23C
330
9
100
AcDbSymbolTableRecord
100
AcDbBlockTableRecord
  2
*D20
340
0
 70
0
280
1
281
0
  0
BLOCK_RECORD
  5
24B
330
9
100
AcDbSymbolTableRecord
100
AcDbBlockTableRecord
  2
*D21
340
0
 70
0
280
1
281
0
  0
BLOCK_RECORD
  5
25A
330
9
100
AcDbSymbolTableRecord
100
AcDbBlockTableRecord
  2
*D22
340
0
 70
0
280
1
281
0
  0
BLOCK_RECORD
  5
269
330
9
100
AcDbSymbolTableRecord
100
AcDbBlockTableRecord
  2
*D23
340
0
 70
0
280
1
281
0
  0
BLOCK_RECORD
  5
27E
330
9
100
AcDbSymbolTableRecord
100
AcDbBlockTableRecord
  2
*D24
340
0
 70
0
280
1
281
0
  0
BLOCK_RECORD
  5
28D
330
9
100
AcDbSymbolTableRecord
100
AcDbBlockTableRecord
  2
*D25
340
0
 70
0
280
1
281
0
  0
BLOCK_RECORD
  5
2B2
330
9
100
AcDbSymbolTableRecord
100
AcDbBlockTableRecord
  2
*D26
340
0
 70
0
280
1
281
0
  0
BLOCK_RECORD
  5
2C1
330
9
100
AcDbSymbolTableRecord
100
AcDbBlockTableRecord
  2
*D27
340
0
 70
0
280
1
281
0
  0
BLOCK_RECORD
  5
2D0
330
9
100
AcDbSymbolTableRecord
100
AcDbBlockTableRecord
  2
*D28
340
0
 70
0
280
1
281
0
  0
BLOCK_RECORD
  5
2DE
330
9
100
AcDbSymbolTableRecord
100
AcDbBlockTableRecord
  2
*Paper_Space
340
2E1
 70
0
280
1
281
0
  0
BLOCK_RECORD
  5
1B
330
9
100
AcDbSymbolTableRecord
100
AcDbBlockTableRecord
  2
*Paper_Space0
340
1E
 70
0
280
1
281
0
  0
BLOCK_RECORD
  5
32A
330
9
100
AcDbSymbolTableRecord
100
AcDbBlockTableRecord
  2
CAJETIN_A1
340
0
 70
0
280
1
281
0
  0
ENDTAB
  0
ENDSEC
  0
SECTION
  2
BLOCKS
  0
BLOCK
  5
18
330
17
100
AcDbEntity
  8
0
100
AcDbBlockBegin
  2
*Model_Space
 70
0
 10
0.0
 20
0.0
 30
0.0
  3
*Model_Space
  1

  0
ENDBLK
  5
19
330
17
100
AcDbEntity
  8
0
100
AcDbBlockEnd
  0
BLOCK
  5
75
330
74
100
AcDbEntity
  8
0
100
AcDbBlockBegin
  2
_ARCHTICK
 70
0
 10
0.0
 20
0.0
 30
0.0
  3
_ARCHTICK
  1

  0
LWPOLYLINE
  5
77
330
74
100
AcDbEntity
  8
0
  6
BYBLOCK
 62
0
100
AcDbPolyline
 90
2
 70
0
 43
0.15
 10
-0.5
 20
-0.5
 10
0.5
 20
0.5
  0
ENDBLK
  5
76
330
74
100
AcDbEntity
  8
0
100
AcDbBlockEnd
  0
BLOCK
  5
79
330
78
100
AcDbEntity
  8
0
100
AcDbBlockBegin
  2
_CLOSEDFILLED
 70
0
 10
0.0
 20
0.0
 30
0.0
  3
_CLOSEDFILLED
  1

  0
SOLID
  5
7B
330
78
100
AcDbEntity
  8
0
  6
BYBLOCK
 62
0
100
AcDbTrace
 10
-1.0
 20
0.16439898372402537
 30
0.0
 11
0.0
 21
0.0
 31
0.0
 12
-1.0
 22
-0.16439898372402537
 32
0.0
 13
-1.0
 23
-0.16439898372402537
 33
0.0
  0
ENDBLK
  5
7A
330
78
100
AcDbEntity
  8
0
100
AcDbBlockEnd
  0
BLOCK
  5
85
330
84
100
AcDbEntity
  8
0
100
AcDbBlockBegin
  2
_CLOSEDBLANK
 70
0
 10
0.0
 20
0.0
 30
0.0
  3
_CLOSEDBLANK
  1

  0
LWPOLYLINE
  5
87
330
84
100
AcDbEntity
  8
0
  6
BYBLOCK
 62
0
100
AcDbPolyline
 90
3
 70
1
 10
-1.0
 20
0.16439898372402537
 10
0.0
 20
0.0
 10
-1.0
 20
-0.16439898372402537
  0
ENDBLK
  5
86
330
84
100
AcDbEntity
  8
0
100
AcDbBlockEnd
  0
BLOCK
  5
F5
330
F4
100
AcDbEntity
  8
0
100
AcDbBlockBegin
  2
*D1
 70
1
 10
0.0
 20
0.0
 30
0.0
  3
*D1
  1

  0
LINE
  5
F7
330
F4
100
AcDbEntity
  8
0
 62
7
370
13
100
AcDbLine
 10
1.35
 20
-16.405
 30
0.0
 11
1.35
 21
-16.405
 31
0.0
  0
LINE
  5
F8
330
F4
100
AcDbEntity
  8
0
 62
7
370
13
100
AcDbLine
 10
1.6300000000000001
 20
-16.405
 30
0.0
 11
1.6300000000000001
 21
-16.405
 31
0.0
  0
INSERT
  5
FD
330
F4
100
AcDbEntity
  8
S-COTA
 62
7
100
AcDbBlockReference
  2
_OBLIQUE
 10
1.35
 20
-16.43
 30
0.0
 41
0.06
 42
0.06
  0
INSERT
  5
FF
330
F4
100
AcDbEntity
  8
S-COTA
 62
7
100
AcDbBlockReference
  2
_OBLIQUE
 10
1.6300000000000001
 20
-16.43
 30
0.0
 41
0.06
 42
0.06
  0
LINE
  5
101
330
F4
100
AcDbEntity
  8
0
 62
7
370
18
100
AcDbLine
 10
1.3250000000000002
 20
-16.43
 30
0.0
 11
1.655
 21
-16.43
 31
0.0
  0
MTEXT
  5
102
330
F4
100
AcDbEntity
  8
S-COTA
 62
7
100
AcDbMText
 10
1.4900000000000002
 20
-16.3825
 30
0.0
 40
0.05500000000000001
 71
5
  1
0.28
  7
ARIAL
  0
POINT
  5
103
330
F4
100
AcDbEntity
  8
Defpoints
100
AcDbPoint
 10
1.35
 20
-16.43
 30
0.0
  0
POINT
  5
104
330
F4
100
AcDbEntity
  8
Defpoints
100
AcDbPoint
 10
1.35
 20
-16.43
 30
0.0
  0
POINT
  5
105
330
F4
100
AcDbEntity
  8
Defpoints
100
AcDbPoint
 10
1.6300000000000001
 20
-16.43
 30
0.0
  0
ENDBLK
  5
F6
330
F4
100
AcDbEntity
  8
0
100
AcDbBlockEnd
  0
BLOCK
  5
FA
330
F9
100
AcDbEntity
  8
0
100
AcDbBlockBegin
  2
_OBLIQUE
 70
0
 10
0.0
 20
0.0
 30
0.0
  3
_OBLIQUE
  1

  0
LINE
  5
FC
330
F9
100
AcDbEntity
  8
0
  6
BYBLOCK
 62
0
100
AcDbLine
 10
-0.5
 20
-0.5
 30
0.0
 11
0.5
 21
0.5
 31
0.0
  0
ENDBLK
  5
FB
330
F9
100
AcDbEntity
  8
0
100
AcDbBlockEnd
  0
BLOCK
  5
108
330
107
100
AcDbEntity
  8
0
100
AcDbBlockBegin
  2
*D2
 70
1
 10
0.0
 20
0.0
 30
0.0
  3
*D2
  1

  0
LINE
  5
10A
330
107
100
AcDbEntity
  8
0
 62
7
370
13
100
AcDbLine
 10
1.6300000000000001
 20
-16.405
 30
0.0
 11
1.6300000000000001
 21
-16.405
 31
0.0
  0
LINE
  5
10B
330
107
100
AcDbEntity
  8
0
 62
7
370
13
100
AcDbLine
 10
1.9100000000000001
 20
-16.405
 30
0.0
 11
1.9100000000000001
 21
-16.405
 31
0.0
  0
INSERT
  5
10C
330
107
100
AcDbEntity
  8
S-COTA
 62
7
100
AcDbBlockReference
  2
_OBLIQUE
 10
1.6300000000000001
 20
-16.43
 30
0.0
 41
0.06
 42
0.06
  0
INSERT
  5
10E
330
107
100
AcDbEntity
  8
S-COTA
 62
7
100
AcDbBlockReference
  2
_OBLIQUE
 10
1.9100000000000001
 20
-16.43
 30
0.0
 41
0.06
 42
0.06
  0
LINE
  5
110
330
107
100
AcDbEntity
  8
0
 62
7
370
18
100
AcDbLine
 10
1.6050000000000002
 20
-16.43
 30
0.0
 11
1.935
 21
-16.43
 31
0.0
  0
MTEXT
  5
111
330
107
100
AcDbEntity
  8
S-COTA
 62
7
100
AcDbMText
 10
1.77
 20
-16.3825
 30
0.0
 40
0.05500000000000001
 71
5
  1
0.28
  7
ARIAL
  0
POINT
  5
112
330
107
100
AcDbEntity
  8
Defpoints
100
AcDbPoint
 10
1.6300000000000001
 20
-16.43
 30
0.0
  0
POINT
  5
113
330
107
100
AcDbEntity
  8
Defpoints
100
AcDbPoint
 10
1.6300000000000001
 20
-16.43
 30
0.0
  0
POINT
  5
114
330
107
100
AcDbEntity
  8
Defpoints
100
AcDbPoint
 10
1.9100000000000001
 20
-16.43
 30
0.0
  0
ENDBLK
  5
109
330
107
100
AcDbEntity
  8
0
100
AcDbBlockEnd
  0
BLOCK
  5
117
330
116
100
AcDbEntity
  8
0
100
AcDbBlockBegin
  2
*D3
 70
1
 10
0.0
 20
0.0
 30
0.0
  3
*D3
  1

  0
LINE
  5
119
330
116
100
AcDbEntity
  8
0
 62
7
370
13
100
AcDbLine
 10
1.9100000000000001
 20
-16.405
 30
0.0
 11
1.9100000000000001
 21
-16.405
 31
0.0
  0
LINE
  5
11A
330
116
100
AcDbEntity
  8
0
 62
7
370
13
100
AcDbLine
 10
2.1900000000000004
 20
-16.405
 30
0.0
 11
2.1900000000000004
 21
-16.405
 31
0.0
  0
INSERT
  5
11B
330
116
100
AcDbEntity
  8
S-COTA
 62
7
100
AcDbBlockReference
  2
_OBLIQUE
 10
1.9100000000000001
 20
-16.43
 30
0.0
 41
0.06
 42
0.06
  0
INSERT
  5
11D
330
116
100
AcDbEntity
  8
S-COTA
 62
7
100
AcDbBlockReference
  2
_OBLIQUE
 10
2.1900000000000004
 20
-16.43
 30
0.0
 41
0.06
 42
0.06
  0
LINE
  5
11F
330
116
100
AcDbEntity
  8
0
 62
7
370
18
100
AcDbLine
 10
1.8850000000000002
 20
-16.43
 30
0.0
 11
2.2150000000000003
 21
-16.43
 31
0.0
  0
MTEXT
  5
120
330
116
100
AcDbEntity
  8
S-COTA
 62
7
100
AcDbMText
 10
2.0500000000000003
 20
-16.3825
 30
0.0
 40
0.05500000000000001
 71
5
  1
0.28
  7
ARIAL
  0
POINT
  5
121
330
116
100
AcDbEntity
  8
Defpoints
100
AcDbPoint
 10
1.9100000000000001
 20
-16.43
 30
0.0
  0
POINT
  5
122
330
116
100
AcDbEntity
  8
Defpoints
100
AcDbPoint
 10
1.9100000000000001
 20
-16.43
 30
0.0
  0
POINT
  5
123
330
116
100
AcDbEntity
  8
Defpoints
100
AcDbPoint
 10
2.1900000000000004
 20
-16.43
 30
0.0
  0
ENDBLK
  5
118
330
116
100
AcDbEntity
  8
0
100
AcDbBlockEnd
  0
BLOCK
  5
126
330
125
100
AcDbEntity
  8
0
100
AcDbBlockBegin
  2
*D4
 70
1
 10
0.0
 20
0.0
 30
0.0
  3
*D4
  1

  0
LINE
  5
128
330
125
100
AcDbEntity
  8
0
 62
7
370
13
100
AcDbLine
 10
2.1900000000000004
 20
-16.405
 30
0.0
 11
2.1900000000000004
 21
-16.405
 31
0.0
  0
LINE
  5
129
330
125
100
AcDbEntity
  8
0
 62
7
370
13
100
AcDbLine
 10
2.47
 20
-16.405
 30
0.0
 11
2.47
 21
-16.405
 31
0.0
  0
INSERT
  5
12A
330
125
100
AcDbEntity
  8
S-COTA
 62
7
100
AcDbBlockReference
  2
_OBLIQUE
 10
2.1900000000000004
 20
-16.43
 30
0.0
 41
0.06
 42
0.06
  0
INSERT
  5
12C
330
125
100
AcDbEntity
  8
S-COTA
 62
7
100
AcDbBlockReference
  2
_OBLIQUE
 10
2.47
 20
-16.43
 30
0.0
 41
0.06
 42
0.06
  0
LINE
  5
12E
330
125
100
AcDbEntity
  8
0
 62
7
370
18
100
AcDbLine
 10
2.1650000000000005
 20
-16.43
 30
0.0
 11
2.495
 21
-16.43
 31
0.0
  0
MTEXT
  5
12F
330
125
100
AcDbEntity
  8
S-COTA
 62
7
100
AcDbMText
 10
2.33
 20
-16.3825
 30
0.0
 40
0.05500000000000001
 71
5
  1
0.28
  7
ARIAL
  0
POINT
  5
130
330
125
100
AcDbEntity
  8
Defpoints
100
AcDbPoint
 10
2.1900000000000004
 20
-16.43
 30
0.0
  0
POINT
  5
131
330
125
100
AcDbEntity
  8
Defpoints
100
AcDbPoint
 10
2.1900000000000004
 20
-16.43
 30
0.0
  0
POINT
  5
132
330
125
100
AcDbEntity
  8
Defpoints
100
AcDbPoint
 10
2.47
 20
-16.43
 30
0.0
  0
ENDBLK
  5
127
330
125
100
AcDbEntity
  8
0
100
AcDbBlockEnd
  0
BLOCK
  5
135
330
134
100
AcDbEntity
  8
0
100
AcDbBlockBegin
  2
*D5
 70
1
 10
0.0
 20
0.0
 30
0.0
  3
*D5
  1

  0
LINE
  5
137
330
134
100
AcDbEntity
  8
0
 62
7
370
13
100
AcDbLine
 10
2.47
 20
-16.405
 30
0.0
 11
2.47
 21
-16.405
 31
0.0
  0
LINE
  5
138
330
134
100
AcDbEntity
  8
0
 62
7
370
13
100
AcDbLine
 10
2.75
 20
-16.405
 30
0.0
 11
2.75
 21
-16.405
 31
0.0
  0
INSERT
  5
139
330
134
100
AcDbEntity
  8
S-COTA
 62
7
100
AcDbBlockReference
  2
_OBLIQUE
 10
2.47
 20
-16.43
 30
0.0
 41
0.06
 42
0.06
  0
INSERT
  5
13B
330
134
100
AcDbEntity
  8
S-COTA
 62
7
100
AcDbBlockReference
  2
_OBLIQUE
 10
2.75
 20
-16.43
 30
0.0
 41
0.06
 42
0.06
  0
LINE
  5
13D
330
134
100
AcDbEntity
  8
0
 62
7
370
18
100
AcDbLine
 10
2.4450000000000003
 20
-16.43
 30
0.0
 11
2.775
 21
-16.43
 31
0.0
  0
MTEXT
  5
13E
330
134
100
AcDbEntity
  8
S-COTA
 62
7
100
AcDbMText
 10
2.6100000000000003
 20
-16.3825
 30
0.0
 40
0.05500000000000001
 71
5
  1
0.28
  7
ARIAL
  0
POINT
  5
13F
330
134
100
AcDbEntity
  8
Defpoints
100
AcDbPoint
 10
2.47
 20
-16.43
 30
0.0
  0
POINT
  5
140
330
134
100
AcDbEntity
  8
Defpoints
100
AcDbPoint
 10
2.47
 20
-16.43
 30
0.0
  0
POINT
  5
141
330
134
100
AcDbEntity
  8
Defpoints
100
AcDbPoint
 10
2.75
 20
-16.43
 30
0.0
  0
ENDBLK
  5
136
330
134
100
AcDbEntity
  8
0
100
AcDbBlockEnd
  0
BLOCK
  5
144
330
143
100
AcDbEntity
  8
0
100
AcDbBlockBegin
  2
*D6
 70
1
 10
0.0
 20
0.0
 30
0.0
  3
*D6
  1

  0
LINE
  5
146
330
143
100
AcDbEntity
  8
0
 62
7
370
13
100
AcDbLine
 10
2.75
 20
-16.405
 30
0.0
 11
2.75
 21
-16.405
 31
0.0
  0
LINE
  5
147
330
143
100
AcDbEntity
  8
0
 62
7
370
13
100
AcDbLine
 10
3.0300000000000002
 20
-16.405
 30
0.0
 11
3.0300000000000002
 21
-16.405
 31
0.0
  0
INSERT
  5
148
330
143
100
AcDbEntity
  8
S-COTA
 62
7
100
AcDbBlockReference
  2
_OBLIQUE
 10
2.75
 20
-16.43
 30
0.0
 41
0.06
 42
0.06
  0
INSERT
  5
14A
330
143
100
AcDbEntity
  8
S-COTA
 62
7
100
AcDbBlockReference
  2
_OBLIQUE
 10
3.0300000000000002
 20
-16.43
 30
0.0
 41
0.06
 42
0.06
  0
LINE
  5
14C
330
143
100
AcDbEntity
  8
0
 62
7
370
18
100
AcDbLine
 10
2.725
 20
-16.43
 30
0.0
 11
3.055
 21
-16.43
 31
0.0
  0
MTEXT
  5
14D
330
143
100
AcDbEntity
  8
S-COTA
 62
7
100
AcDbMText
 10
2.89
 20
-16.3825
 30
0.0
 40
0.05500000000000001
 71
5
  1
0.28
  7
ARIAL
  0
POINT
  5
14E
330
143
100
AcDbEntity
  8
Defpoints
100
AcDbPoint
 10
2.75
 20
-16.43
 30
0.0
  0
POINT
  5
14F
330
143
100
AcDbEntity
  8
Defpoints
100
AcDbPoint
 10
2.75
 20
-16.43
 30
0.0
  0
POINT
  5
150
330
143
100
AcDbEntity
  8
Defpoints
100
AcDbPoint
 10
3.0300000000000002
 20
-16.43
 30
0.0
  0
ENDBLK
  5
145
330
143
100
AcDbEntity
  8
0
100
AcDbBlockEnd
  0
BLOCK
  5
153
330
152
100
AcDbEntity
  8
0
100
AcDbBlockBegin
  2
*D7
 70
1
 10
0.0
 20
0.0
 30
0.0
  3
*D7
  1

  0
LINE
  5
155
330
152
100
AcDbEntity
  8
0
 62
7
370
13
100
AcDbLine
 10
3.0300000000000002
 20
-16.405
 30
0.0
 11
3.0300000000000002
 21
-16.405
 31
0.0
  0
LINE
  5
156
330
152
100
AcDbEntity
  8
0
 62
7
370
13
100
AcDbLine
 10
3.3100000000000005
 20
-16.405
 30
0.0
 11
3.3100000000000005
 21
-16.405
 31
0.0
  0
INSERT
  5
157
330
152
100
AcDbEntity
  8
S-COTA
 62
7
100
AcDbBlockReference
  2
_OBLIQUE
 10
3.0300000000000002
 20
-16.43
 30
0.0
 41
0.06
 42
0.06
  0
INSERT
  5
159
330
152
100
AcDbEntity
  8
S-COTA
 62
7
100
AcDbBlockReference
  2
_OBLIQUE
 10
3.3100000000000005
 20
-16.43
 30
0.0
 41
0.06
 42
0.06
  0
LINE
  5
15B
330
152
100
AcDbEntity
  8
0
 62
7
370
18
100
AcDbLine
 10
3.0050000000000003
 20
-16.43
 30
0.0
 11
3.3350000000000004
 21
-16.43
 31
0.0
  0
MTEXT
  5
15C
330
152
100
AcDbEntity
  8
S-COTA
 62
7
100
AcDbMText
 10
3.1700000000000004
 20
-16.3825
 30
0.0
 40
0.05500000000000001
 71
5
  1
0.28
  7
ARIAL
  0
POINT
  5
15D
330
152
100
AcDbEntity
  8
Defpoints
100
AcDbPoint
 10
3.0300000000000002
 20
-16.43
 30
0.0
  0
POINT
  5
15E
330
152
100
AcDbEntity
  8
Defpoints
100
AcDbPoint
 10
3.0300000000000002
 20
-16.43
 30
0.0
  0
POINT
  5
15F
330
152
100
AcDbEntity
  8
Defpoints
100
AcDbPoint
 10
3.3100000000000005
 20
-16.43
 30
0.0
  0
ENDBLK
  5
154
330
152
100
AcDbEntity
  8
0
100
AcDbBlockEnd
  0
BLOCK
  5
162
330
161
100
AcDbEntity
  8
0
100
AcDbBlockBegin
  2
*D8
 70
1
 10
0.0
 20
0.0
 30
0.0
  3
*D8
  1

  0
LINE
  5
164
330
161
100
AcDbEntity
  8
0
 62
7
370
13
100
AcDbLine
 10
3.3100000000000005
 20
-16.405
 30
0.0
 11
3.3100000000000005
 21
-16.405
 31
0.0
  0
LINE
  5
165
330
161
100
AcDbEntity
  8
0
 62
7
370
13
100
AcDbLine
 10
3.5900000000000003
 20
-16.405
 30
0.0
 11
3.5900000000000003
 21
-16.405
 31
0.0
  0
INSERT
  5
166
330
161
100
AcDbEntity
  8
S-COTA
 62
7
100
AcDbBlockReference
  2
_OBLIQUE
 10
3.3100000000000005
 20
-16.43
 30
0.0
 41
0.06
 42
0.06
  0
INSERT
  5
168
330
161
100
AcDbEntity
  8
S-COTA
 62
7
100
AcDbBlockReference
  2
_OBLIQUE
 10
3.5900000000000003
 20
-16.43
 30
0.0
 41
0.06
 42
0.06
  0
LINE
  5
16A
330
161
100
AcDbEntity
  8
0
 62
7
370
18
100
AcDbLine
 10
3.2850000000000006
 20
-16.43
 30
0.0
 11
3.615
 21
-16.43
 31
0.0
  0
MTEXT
  5
16B
330
161
100
AcDbEntity
  8
S-COTA
 62
7
100
AcDbMText
 10
3.45
 20
-16.3825
 30
0.0
 40
0.05500000000000001
 71
5
  1
0.28
  7
ARIAL
  0
POINT
  5
16C
330
161
100
AcDbEntity
  8
Defpoints
100
AcDbPoint
 10
3.3100000000000005
 20
-16.43
 30
0.0
  0
POINT
  5
16D
330
161
100
AcDbEntity
  8
Defpoints
100
AcDbPoint
 10
3.3100000000000005
 20
-16.43
 30
0.0
  0
POINT
  5
16E
330
161
100
AcDbEntity
  8
Defpoints
100
AcDbPoint
 10
3.5900000000000003
 20
-16.43
 30
0.0
  0
ENDBLK
  5
163
330
161
100
AcDbEntity
  8
0
100
AcDbBlockEnd
  0
BLOCK
  5
171
330
170
100
AcDbEntity
  8
0
100
AcDbBlockBegin
  2
*D9
 70
1
 10
0.0
 20
0.0
 30
0.0
  3
*D9
  1

  0
LINE
  5
173
330
170
100
AcDbEntity
  8
0
 62
7
370
13
100
AcDbLine
 10
3.5900000000000003
 20
-16.405
 30
0.0
 11
3.5900000000000003
 21
-16.405
 31
0.0
  0
LINE
  5
174
330
170
100
AcDbEntity
  8
0
 62
7
370
13
100
AcDbLine
 10
4.69
 20
-16.405
 30
0.0
 11
4.69
 21
-16.405
 31
0.0
  0
INSERT
  5
175
330
170
100
AcDbEntity
  8
S-COTA
 62
7
100
AcDbBlockReference
  2
_OBLIQUE
 10
3.5900000000000003
 20
-16.43
 30
0.0
 41
0.06
 42
0.06
  0
INSERT
  5
177
330
170
100
AcDbEntity
  8
S-COTA
 62
7
100
AcDbBlockReference
  2
_OBLIQUE
 10
4.69
 20
-16.43
 30
0.0
 41
0.06
 42
0.06
  0
LINE
  5
179
330
170
100
AcDbEntity
  8
0
 62
7
370
18
100
AcDbLine
 10
3.5650000000000004
 20
-16.43
 30
0.0
 11
4.715000000000001
 21
-16.43
 31
0.0
  0
MTEXT
  5
17A
330
170
100
AcDbEntity
  8
S-COTA
 62
7
100
AcDbMText
 10
4.140000000000001
 20
-16.3825
 30
0.0
 40
0.05500000000000001
 71
5
  1
1.10
  7
ARIAL
  0
POINT
  5
17B
330
170
100
AcDbEntity
  8
Defpoints
100
AcDbPoint
 10
3.5900000000000003
 20
-16.43
 30
0.0
  0
POINT
  5
17C
330
170
100
AcDbEntity
  8
Defpoints
100
AcDbPoint
 10
3.5900000000000003
 20
-16.43
 30
0.0
  0
POINT
  5
17D
330
170
100
AcDbEntity
  8
Defpoints
100
AcDbPoint
 10
4.69
 20
-16.43
 30
0.0
  0
ENDBLK
  5
172
330
170
100
AcDbEntity
  8
0
100
AcDbBlockEnd
  0
BLOCK
  5
180
330
17F
100
AcDbEntity
  8
0
100
AcDbBlockBegin
  2
*D10
 70
1
 10
0.0
 20
0.0
 30
0.0
  3
*D10
  1

  0
LINE
  5
182
330
17F
100
AcDbEntity
  8
0
 62
7
370
13
100
AcDbLine
 10
1.35
 20
-16.005000000000003
 30
0.0
 11
1.35
 21
-16.005000000000003
 31
0.0
  0
LINE
  5
183
330
17F
100
AcDbEntity
  8
0
 62
7
370
13
100
AcDbLine
 10
4.69
 20
-16.005000000000003
 30
0.0
 11
4.69
 21
-16.005000000000003
 31
0.0
  0
INSERT
  5
184
330
17F
100
AcDbEntity
  8
S-COTA
 62
7
100
AcDbBlockReference
  2
_OBLIQUE
 10
1.35
 20
-16.03
 30
0.0
 41
0.06
 42
0.06
  0
INSERT
  5
186
330
17F
100
AcDbEntity
  8
S-COTA
 62
7
100
AcDbBlockReference
  2
_OBLIQUE
 10
4.69
 20
-16.03
 30
0.0
 41
0.06
 42
0.06
  0
LINE
  5
188
330
17F
100
AcDbEntity
  8
0
 62
7
370
18
100
AcDbLine
 10
1.3250000000000002
 20
-16.03
 30
0.0
 11
4.715000000000001
 21
-16.03
 31
0.0
  0
MTEXT
  5
189
330
17F
100
AcDbEntity
  8
S-COTA
 62
7
100
AcDbMText
 10
3.0200000000000005
 20
-15.982500000000002
 30
0.0
 40
0.05500000000000001
 71
5
  1
3.34
  7
ARIAL
  0
POINT
  5
18A
330
17F
100
AcDbEntity
  8
Defpoints
100
AcDbPoint
 10
1.35
 20
-16.03
 30
0.0
  0
POINT
  5
18B
330
17F
100
AcDbEntity
  8
Defpoints
100
AcDbPoint
 10
1.35
 20
-16.03
 30
0.0
  0
POINT
  5
18C
330
17F
100
AcDbEntity
  8
Defpoints
100
AcDbPoint
 10
4.69
 20
-16.03
 30
0.0
  0
ENDBLK
  5
181
330
17F
100
AcDbEntity
  8
0
100
AcDbBlockEnd
  0
BLOCK
  5
18F
330
18E
100
AcDbEntity
  8
0
100
AcDbBlockBegin
  2
*D11
 70
1
 10
0.0
 20
0.0
 30
0.0
  3
*D11
  1

  0
LINE
  5
191
330
18E
100
AcDbEntity
  8
0
 62
7
370
13
100
AcDbLine
 10
0.15
 20
-19.955000000000002
 30
0.0
 11
0.15
 21
-19.955000000000002
 31
0.0
  0
LINE
  5
192
330
18E
100
AcDbEntity
  8
0
 62
7
370
13
100
AcDbLine
 10
1.35
 20
-19.955000000000002
 30
0.0
 11
1.35
 21
-19.955000000000002
 31
0.0
  0
INSERT
  5
193
330
18E
100
AcDbEntity
  8
S-COTA
 62
7
100
AcDbBlockReference
  2
_OBLIQUE
 10
0.15
 20
-19.98
 30
0.0
 41
0.06
 42
0.06
  0
INSERT
  5
195
330
18E
100
AcDbEntity
  8
S-COTA
 62
7
100
AcDbBlockReference
  2
_OBLIQUE
 10
1.35
 20
-19.98
 30
0.0
 41
0.06
 42
0.06
  0
LINE
  5
197
330
18E
100
AcDbEntity
  8
0
 62
7
370
18
100
AcDbLine
 10
0.125
 20
-19.98
 30
0.0
 11
1.375
 21
-19.98
 31
0.0
  0
MTEXT
  5
198
330
18E
100
AcDbEntity
  8
S-COTA
 62
7
100
AcDbMText
 10
0.7500000000000001
 20
-19.9325
 30
0.0
 40
0.05500000000000001
 71
5
  1
1.20
  7
ARIAL
  0
POINT
  5
199
330
18E
100
AcDbEntity
  8
Defpoints
100
AcDbPoint
 10
0.15
 20
-19.98
 30
0.0
  0
POINT
  5
19A
330
18E
100
AcDbEntity
  8
Defpoints
100
AcDbPoint
 10
0.15
 20
-19.98
 30
0.0
  0
POINT
  5
19B
330
18E
100
AcDbEntity
  8
Defpoints
100
AcDbPoint
 10
1.35
 20
-19.98
 30
0.0
  0
ENDBLK
  5
190
330
18E
100
AcDbEntity
  8
0
100
AcDbBlockEnd
  0
BLOCK
  5
19E
330
19D
100
AcDbEntity
  8
0
100
AcDbBlockBegin
  2
*D12
 70
1
 10
0.0
 20
0.0
 30
0.0
  3
*D12
  1

  0
LINE
  5
1A0
330
19D
100
AcDbEntity
  8
0
 62
7
370
13
100
AcDbLine
 10
5.234999999999999
 20
-16.98
 30
0.0
 11
5.234999999999999
 21
-16.98
 31
0.0
  0
LINE
  5
1A1
330
19D
100
AcDbEntity
  8
0
 62
7
370
13
100
AcDbLine
 10
5.234999999999999
 20
-18.080000000000002
 30
0.0
 11
5.234999999999999
 21
-18.080000000000002
 31
0.0
  0
INSERT
  5
1A2
330
19D
100
AcDbEntity
  8
S-COTA
 62
7
100
AcDbBlockReference
  2
_OBLIQUE
 10
5.26
 20
-16.98
 30
0.0
 41
0.06
 42
0.06
 50
90.0
  0
INSERT
  5
1A4
330
19D
100
AcDbEntity
  8
S-COTA
 62
7
100
AcDbBlockReference
  2
_OBLIQUE
 10
5.26
 20
-18.080000000000002
 30
0.0
 41
0.06
 42
0.06
 50
90.0
  0
LINE
  5
1A6
330
19D
100
AcDbEntity
  8
0
 62
7
370
18
100
AcDbLine
 10
5.26
 20
-16.955000000000002
 30
0.0
 11
5.26
 21
-18.105
 31
0.0
  0
MTEXT
  5
1A7
330
19D
100
AcDbEntity
  8
S-COTA
 62
7
100
AcDbMText
 10
5.3075
 20
-17.53
 30
0.0
 40
0.05500000000000001
 71
5
  1
1.10
  7
ARIAL
 50
90.0
  0
POINT
  5
1A8
330
19D
100
AcDbEntity
  8
Defpoints
100
AcDbPoint
 10
5.26
 20
-16.98
 30
0.0
  0
POINT
  5
1A9
330
19D
100
AcDbEntity
  8
Defpoints
100
AcDbPoint
 10
5.26
 20
-16.98
 30
0.0
  0
POINT
  5
1AA
330
19D
100
AcDbEntity
  8
Defpoints
100
AcDbPoint
 10
5.26
 20
-18.080000000000002
 30
0.0
  0
ENDBLK
  5
19F
330
19D
100
AcDbEntity
  8
0
100
AcDbBlockEnd
  0
BLOCK
  5
1AD
330
1AC
100
AcDbEntity
  8
0
100
AcDbBlockBegin
  2
*D13
 70
1
 10
0.0
 20
0.0
 30
0.0
  3
*D13
  1

  0
LINE
  5
1AF
330
1AC
100
AcDbEntity
  8
0
 62
7
370
13
100
AcDbLine
 10
5.234999999999999
 20
-18.080000000000002
 30
0.0
 11
5.234999999999999
 21
-18.080000000000002
 31
0.0
  0
LINE
  5
1B0
330
1AC
100
AcDbEntity
  8
0
 62
7
370
13
100
AcDbLine
 10
5.234999999999999
 20
-18.38
 30
0.0
 11
5.234999999999999
 21
-18.38
 31
0.0
  0
INSERT
  5
1B1
330
1AC
100
AcDbEntity
  8
S-COTA
 62
7
100
AcDbBlockReference
  2
_OBLIQUE
 10
5.26
 20
-18.080000000000002
 30
0.0
 41
0.06
 42
0.06
 50
90.0
  0
INSERT
  5
1B3
330
1AC
100
AcDbEntity
  8
S-COTA
 62
7
100
AcDbBlockReference
  2
_OBLIQUE
 10
5.26
 20
-18.38
 30
0.0
 41
0.06
 42
0.06
 50
90.0
  0
LINE
  5
1B5
330
1AC
100
AcDbEntity
  8
0
 62
7
370
18
100
AcDbLine
 10
5.26
 20
-18.055000000000003
 30
0.0
 11
5.26
 21
-18.404999999999998
 31
0.0
  0
MTEXT
  5
1B6
330
1AC
100
AcDbEntity
  8
S-COTA
 62
7
100
AcDbMText
 10
5.3075
 20
-18.23
 30
0.0
 40
0.05500000000000001
 71
5
  1
0.30
  7
ARIAL
 50
90.0
  0
POINT
  5
1B7
330
1AC
100
AcDbEntity
  8
Defpoints
100
AcDbPoint
 10
5.26
 20
-18.080000000000002
 30
0.0
  0
POINT
  5
1B8
330
1AC
100
AcDbEntity
  8
Defpoints
100
AcDbPoint
 10
5.26
 20
-18.080000000000002
 30
0.0
  0
POINT
  5
1B9
330
1AC
100
AcDbEntity
  8
Defpoints
100
AcDbPoint
 10
5.26
 20
-18.38
 30
0.0
  0
ENDBLK
  5
1AE
330
1AC
100
AcDbEntity
  8
0
100
AcDbBlockEnd
  0
BLOCK
  5
1BC
330
1BB
100
AcDbEntity
  8
0
100
AcDbBlockBegin
  2
*D14
 70
1
 10
0.0
 20
0.0
 30
0.0
  3
*D14
  1

  0
LINE
  5
1BE
330
1BB
100
AcDbEntity
  8
0
 62
7
370
13
100
AcDbLine
 10
5.234999999999999
 20
-18.38
 30
0.0
 11
5.234999999999999
 21
-18.38
 31
0.0
  0
LINE
  5
1BF
330
1BB
100
AcDbEntity
  8
0
 62
7
370
13
100
AcDbLine
 10
5.234999999999999
 20
-19.48
 30
0.0
 11
5.234999999999999
 21
-19.48
 31
0.0
  0
INSERT
  5
1C0
330
1BB
100
AcDbEntity
  8
S-COTA
 62
7
100
AcDbBlockReference
  2
_OBLIQUE
 10
5.26
 20
-18.38
 30
0.0
 41
0.06
 42
0.06
 50
90.0
  0
INSERT
  5
1C2
330
1BB
100
AcDbEntity
  8
S-COTA
 62
7
100
AcDbBlockReference
  2
_OBLIQUE
 10
5.26
 20
-19.48
 30
0.0
 41
0.06
 42
0.06
 50
90.0
  0
LINE
  5
1C4
330
1BB
100
AcDbEntity
  8
0
 62
7
370
18
100
AcDbLine
 10
5.26
 20
-18.355
 30
0.0
 11
5.26
 21
-19.505
 31
0.0
  0
MTEXT
  5
1C5
330
1BB
100
AcDbEntity
  8
S-COTA
 62
7
100
AcDbMText
 10
5.3075
 20
-18.93
 30
0.0
 40
0.05500000000000001
 71
5
  1
1.10
  7
ARIAL
 50
90.0
  0
POINT
  5
1C6
330
1BB
100
AcDbEntity
  8
Defpoints
100
AcDbPoint
 10
5.26
 20
-18.38
 30
0.0
  0
POINT
  5
1C7
330
1BB
100
AcDbEntity
  8
Defpoints
100
AcDbPoint
 10
5.26
 20
-18.38
 30
0.0
  0
POINT
  5
1C8
330
1BB
100
AcDbEntity
  8
Defpoints
100
AcDbPoint
 10
5.26
 20
-19.48
 30
0.0
  0
ENDBLK
  5
1BD
330
1BB
100
AcDbEntity
  8
0
100
AcDbBlockEnd
  0
BLOCK
  5
1CB
330
1CA
100
AcDbEntity
  8
0
100
AcDbBlockBegin
  2
*D15
 70
1
 10
0.0
 20
0.0
 30
0.0
  3
*D15
  1

  0
LINE
  5
1CD
330
1CA
100
AcDbEntity
  8
0
 62
7
370
13
100
AcDbLine
 10
5.634999999999999
 20
-16.98
 30
0.0
 11
5.634999999999999
 21
-16.98
 31
0.0
  0
LINE
  5
1CE
330
1CA
100
AcDbEntity
  8
0
 62
7
370
13
100
AcDbLine
 10
5.634999999999999
 20
-19.48
 30
0.0
 11
5.634999999999999
 21
-19.48
 31
0.0
  0
INSERT
  5
1CF
330
1CA
100
AcDbEntity
  8
S-COTA
 62
7
100
AcDbBlockReference
  2
_OBLIQUE
 10
5.659999999999999
 20
-16.98
 30
0.0
 41
0.06
 42
0.06
 50
90.0
  0
INSERT
  5
1D1
330
1CA
100
AcDbEntity
  8
S-COTA
 62
7
100
AcDbBlockReference
  2
_OBLIQUE
 10
5.659999999999999
 20
-19.48
 30
0.0
 41
0.06
 42
0.06
 50
90.0
  0
LINE
  5
1D3
330
1CA
100
AcDbEntity
  8
0
 62
7
370
18
100
AcDbLine
 10
5.659999999999999
 20
-16.955000000000002
 30
0.0
 11
5.659999999999999
 21
-19.505
 31
0.0
  0
MTEXT
  5
1D4
330
1CA
100
AcDbEntity
  8
S-COTA
 62
7
100
AcDbMText
 10
5.7075
 20
-18.23
 30
0.0
 40
0.05500000000000001
 71
5
  1
2.50
  7
ARIAL
 50
90.0
  0
POINT
  5
1D5
330
1CA
100
AcDbEntity
  8
Defpoints
100
AcDbPoint
 10
5.659999999999999
 20
-16.98
 30
0.0
  0
POINT
  5
1D6
330
1CA
100
AcDbEntity
  8
Defpoints
100
AcDbPoint
 10
5.659999999999999
 20
-16.98
 30
0.0
  0
POINT
  5
1D7
330
1CA
100
AcDbEntity
  8
Defpoints
100
AcDbPoint
 10
5.659999999999999
 20
-19.48
 30
0.0
  0
ENDBLK
  5
1CC
330
1CA
100
AcDbEntity
  8
0
100
AcDbBlockEnd
  0
BLOCK
  5
201
330
200
100
AcDbEntity
  8
0
100
AcDbBlockBegin
  2
*D16
 70
1
 10
0.0
 20
0.0
 30
0.0
  3
*D16
  1

  0
LINE
  5
203
330
200
100
AcDbEntity
  8
0
 62
7
370
13
100
AcDbLine
 10
9.674999999999999
 20
3.061616997868383e-18
 30
0.0
 11
9.674999999999999
 21
3.061616997868383e-18
 31
0.0
  0
LINE
  5
204
330
200
100
AcDbEntity
  8
0
 62
7
370
13
100
AcDbLine
 10
9.674999999999999
 20
1.5882352941176472
 30
0.0
 11
9.674999999999999
 21
1.5882352941176472
 31
0.0
  0
INSERT
  5
205
330
200
100
AcDbEntity
  8
S-COTA
 62
7
100
AcDbBlockReference
  2
_OBLIQUE
 10
9.7
 20
0.0
 30
0.0
 41
0.06
 42
0.06
 50
90.0
  0
INSERT
  5
207
330
200
100
AcDbEntity
  8
S-COTA
 62
7
100
AcDbBlockReference
  2
_OBLIQUE
 10
9.7
 20
1.5882352941176472
 30
0.0
 41
0.06
 42
0.06
 50
90.0
  0
LINE
  5
209
330
200
100
AcDbEntity
  8
0
 62
7
370
18
100
AcDbLine
 10
9.7
 20
-0.024999999999999998
 30
0.0
 11
9.7
 21
1.613235294117647
 31
0.0
  0
MTEXT
  5
20A
330
200
100
AcDbEntity
  8
S-COTA
 62
7
100
AcDbMText
 10
9.6525
 20
0.7941176470588236
 30
0.0
 40
0.05500000000000001
 71
5
  1
1.59
  7
ARIAL
 50
90.0
  0
POINT
  5
20B
330
200
100
AcDbEntity
  8
Defpoints
100
AcDbPoint
 10
9.7
 20
0.0
 30
0.0
  0
POINT
  5
20C
330
200
100
AcDbEntity
  8
Defpoints
100
AcDbPoint
 10
9.7
 20
0.0
 30
0.0
  0
POINT
  5
20D
330
200
100
AcDbEntity
  8
Defpoints
100
AcDbPoint
 10
9.7
 20
1.5882352941176472
 30
0.0
  0
ENDBLK
  5
202
330
200
100
AcDbEntity
  8
0
100
AcDbBlockEnd
  0
BLOCK
  5
210
330
20F
100
AcDbEntity
  8
0
100
AcDbBlockBegin
  2
*D17
 70
1
 10
0.0
 20
0.0
 30
0.0
  3
*D17
  1

  0
LINE
  5
212
330
20F
100
AcDbEntity
  8
0
 62
7
370
13
100
AcDbLine
 10
9.674999999999999
 20
1.5882352941176472
 30
0.0
 11
9.674999999999999
 21
1.5882352941176472
 31
0.0
  0
LINE
  5
213
330
20F
100
AcDbEntity
  8
0
 62
7
370
13
100
AcDbLine
 10
9.674999999999999
 20
3.0
 30
0.0
 11
9.674999999999999
 21
3.0
 31
0.0
  0
INSERT
  5
214
330
20F
100
AcDbEntity
  8
S-COTA
 62
7
100
AcDbBlockReference
  2
_OBLIQUE
 10
9.7
 20
1.5882352941176472
 30
0.0
 41
0.06
 42
0.06
 50
90.0
  0
INSERT
  5
216
330
20F
100
AcDbEntity
  8
S-COTA
 62
7
100
AcDbBlockReference
  2
_OBLIQUE
 10
9.7
 20
3.0
 30
0.0
 41
0.06
 42
0.06
 50
90.0
  0
LINE
  5
218
330
20F
100
AcDbEntity
  8
0
 62
7
370
18
100
AcDbLine
 10
9.7
 20
1.5632352941176473
 30
0.0
 11
9.7
 21
3.025
 31
0.0
  0
MTEXT
  5
219
330
20F
100
AcDbEntity
  8
S-COTA
 62
7
100
AcDbMText
 10
9.6525
 20
2.2941176470588234
 30
0.0
 40
0.05500000000000001
 71
5
  1
1.41
  7
ARIAL
 50
90.0
  0
POINT
  5
21A
330
20F
100
AcDbEntity
  8
Defpoints
100
AcDbPoint
 10
9.7
 20
1.5882352941176472
 30
0.0
  0
POINT
  5
21B
330
20F
100
AcDbEntity
  8
Defpoints
100
AcDbPoint
 10
9.7
 20
1.5882352941176472
 30
0.0
  0
POINT
  5
21C
330
20F
100
AcDbEntity
  8
Defpoints
100
AcDbPoint
 10
9.7
 20
3.0
 30
0.0
  0
ENDBLK
  5
211
330
20F
100
AcDbEntity
  8
0
100
AcDbBlockEnd
  0
BLOCK
  5
21F
330
21E
100
AcDbEntity
  8
0
100
AcDbBlockBegin
  2
*D18
 70
1
 10
0.0
 20
0.0
 30
0.0
  3
*D18
  1

  0
LINE
  5
221
330
21E
100
AcDbEntity
  8
0
 62
7
370
13
100
AcDbLine
 10
9.355
 20
3.061616997868383e-18
 30
0.0
 11
9.355
 21
3.061616997868383e-18
 31
0.0
  0
LINE
  5
222
330
21E
100
AcDbEntity
  8
0
 62
7
370
13
100
AcDbLine
 10
9.355
 20
3.0
 30
0.0
 11
9.355
 21
3.0
 31
0.0
  0
INSERT
  5
223
330
21E
100
AcDbEntity
  8
S-COTA
 62
7
100
AcDbBlockReference
  2
_OBLIQUE
 10
9.38
 20
0.0
 30
0.0
 41
0.06
 42
0.06
 50
90.0
  0
INSERT
  5
225
330
21E
100
AcDbEntity
  8
S-COTA
 62
7
100
AcDbBlockReference
  2
_OBLIQUE
 10
9.38
 20
3.0
 30
0.0
 41
0.06
 42
0.06
 50
90.0
  0
LINE
  5
227
330
21E
100
AcDbEntity
  8
0
 62
7
370
18
100
AcDbLine
 10
9.38
 20
-0.025
 30
0.0
 11
9.38
 21
3.025
 31
0.0
  0
MTEXT
  5
228
330
21E
100
AcDbEntity
  8
S-COTA
 62
7
100
AcDbMText
 10
9.332500000000001
 20
1.5
 30
0.0
 40
0.05500000000000001
 71
5
  1
3.00
  7
ARIAL
 50
90.0
  0
POINT
  5
229
330
21E
100
AcDbEntity
  8
Defpoints
100
AcDbPoint
 10
9.38
 20
0.0
 30
0.0
  0
POINT
  5
22A
330
21E
100
AcDbEntity
  8
Defpoints
100
AcDbPoint
 10
9.38
 20
0.0
 30
0.0
  0
POINT
  5
22B
330
21E
100
AcDbEntity
  8
Defpoints
100
AcDbPoint
 10
9.38
 20
3.0
 30
0.0
  0
ENDBLK
  5
220
330
21E
100
AcDbEntity
  8
0
100
AcDbBlockEnd
  0
BLOCK
  5
22E
330
22D
100
AcDbEntity
  8
0
100
AcDbBlockBegin
  2
*D19
 70
1
 10
0.0
 20
0.0
 30
0.0
  3
*D19
  1

  0
LINE
  5
230
330
22D
100
AcDbEntity
  8
0
 62
7
370
13
100
AcDbLine
 10
11.35
 20
-0.27499999999999997
 30
0.0
 11
11.35
 21
-0.27499999999999997
 31
0.0
  0
LINE
  5
231
330
22D
100
AcDbEntity
  8
0
 62
7
370
13
100
AcDbLine
 10
11.63
 20
-0.27499999999999997
 30
0.0
 11
11.63
 21
-0.27499999999999997
 31
0.0
  0
INSERT
  5
232
330
22D
100
AcDbEntity
  8
S-COTA
 62
7
100
AcDbBlockReference
  2
_OBLIQUE
 10
11.35
 20
-0.3
 30
0.0
 41
0.06
 42
0.06
  0
INSERT
  5
234
330
22D
100
AcDbEntity
  8
S-COTA
 62
7
100
AcDbBlockReference
  2
_OBLIQUE
 10
11.63
 20
-0.3
 30
0.0
 41
0.06
 42
0.06
  0
LINE
  5
236
330
22D
100
AcDbEntity
  8
0
 62
7
370
18
100
AcDbLine
 10
11.325
 20
-0.3
 30
0.0
 11
11.655000000000001
 21
-0.3
 31
0.0
  0
MTEXT
  5
237
330
22D
100
AcDbEntity
  8
S-COTA
 62
7
100
AcDbMText
 10
11.49
 20
-0.2525
 30
0.0
 40
0.05500000000000001
 71
5
  1
0.28
  7
ARIAL
  0
POINT
  5
238
330
22D
100
AcDbEntity
  8
Defpoints
100
AcDbPoint
 10
11.35
 20
-0.3
 30
0.0
  0
POINT
  5
239
330
22D
100
AcDbEntity
  8
Defpoints
100
AcDbPoint
 10
11.35
 20
-0.3
 30
0.0
  0
POINT
  5
23A
330
22D
100
AcDbEntity
  8
Defpoints
100
AcDbPoint
 10
11.63
 20
-0.3
 30
0.0
  0
ENDBLK
  5
22F
330
22D
100
AcDbEntity
  8
0
100
AcDbBlockEnd
  0
BLOCK
  5
23D
330
23C
100
AcDbEntity
  8
0
100
AcDbBlockBegin
  2
*D20
 70
1
 10
0.0
 20
0.0
 30
0.0
  3
*D20
  1

  0
LINE
  5
23F
330
23C
100
AcDbEntity
  8
0
 62
7
370
13
100
AcDbLine
 10
11.63
 20
-0.27499999999999997
 30
0.0
 11
11.63
 21
-0.27499999999999997
 31
0.0
  0
LINE
  5
240
330
23C
100
AcDbEntity
  8
0
 62
7
370
13
100
AcDbLine
 10
11.91
 20
-0.27499999999999997
 30
0.0
 11
11.91
 21
-0.27499999999999997
 31
0.0
  0
INSERT
  5
241
330
23C
100
AcDbEntity
  8
S-COTA
 62
7
100
AcDbBlockReference
  2
_OBLIQUE
 10
11.63
 20
-0.3
 30
0.0
 41
0.06
 42
0.06
  0
INSERT
  5
243
330
23C
100
AcDbEntity
  8
S-COTA
 62
7
100
AcDbBlockReference
  2
_OBLIQUE
 10
11.91
 20
-0.3
 30
0.0
 41
0.06
 42
0.06
  0
LINE
  5
245
330
23C
100
AcDbEntity
  8
0
 62
7
370
18
100
AcDbLine
 10
11.605
 20
-0.3
 30
0.0
 11
11.935
 21
-0.3
 31
0.0
  0
MTEXT
  5
246
330
23C
100
AcDbEntity
  8
S-COTA
 62
7
100
AcDbMText
 10
11.77
 20
-0.2525
 30
0.0
 40
0.05500000000000001
 71
5
  1
0.28
  7
ARIAL
  0
POINT
  5
247
330
23C
100
AcDbEntity
  8
Defpoints
100
AcDbPoint
 10
11.63
 20
-0.3
 30
0.0
  0
POINT
  5
248
330
23C
100
AcDbEntity
  8
Defpoints
100
AcDbPoint
 10
11.63
 20
-0.3
 30
0.0
  0
POINT
  5
249
330
23C
100
AcDbEntity
  8
Defpoints
100
AcDbPoint
 10
11.91
 20
-0.3
 30
0.0
  0
ENDBLK
  5
23E
330
23C
100
AcDbEntity
  8
0
100
AcDbBlockEnd
  0
BLOCK
  5
24C
330
24B
100
AcDbEntity
  8
0
100
AcDbBlockBegin
  2
*D21
 70
1
 10
0.0
 20
0.0
 30
0.0
  3
*D21
  1

  0
LINE
  5
24E
330
24B
100
AcDbEntity
  8
0
 62
7
370
13
100
AcDbLine
 10
11.35
 20
-0.625
 30
0.0
 11
11.35
 21
-0.625
 31
0.0
  0
LINE
  5
24F
330
24B
100
AcDbEntity
  8
0
 62
7
370
13
100
AcDbLine
 10
13.59
 20
-0.625
 30
0.0
 11
13.59
 21
-0.625
 31
0.0
  0
INSERT
  5
250
330
24B
100
AcDbEntity
  8
S-COTA
 62
7
100
AcDbBlockReference
  2
_OBLIQUE
 10
11.35
 20
-0.65
 30
0.0
 41
0.06
 42
0.06
  0
INSERT
  5
252
330
24B
100
AcDbEntity
  8
S-COTA
 62
7
100
AcDbBlockReference
  2
_OBLIQUE
 10
13.59
 20
-0.65
 30
0.0
 41
0.06
 42
0.06
  0
LINE
  5
254
330
24B
100
AcDbEntity
  8
0
 62
7
370
18
100
AcDbLine
 10
11.325
 20
-0.65
 30
0.0
 11
13.615
 21
-0.65
 31
0.0
  0
MTEXT
  5
255
330
24B
100
AcDbEntity
  8
S-COTA
 62
7
100
AcDbMText
 10
12.469999999999999
 20
-0.6025
 30
0.0
 40
0.05500000000000001
 71
5
  1
2.24
  7
ARIAL
  0
POINT
  5
256
330
24B
100
AcDbEntity
  8
Defpoints
100
AcDbPoint
 10
11.35
 20
-0.65
 30
0.0
  0
POINT
  5
257
330
24B
100
AcDbEntity
  8
Defpoints
100
AcDbPoint
 10
11.35
 20
-0.65
 30
0.0
  0
POINT
  5
258
330
24B
100
AcDbEntity
  8
Defpoints
100
AcDbPoint
 10
13.59
 20
-0.65
 30
0.0
  0
ENDBLK
  5
24D
330
24B
100
AcDbEntity
  8
0
100
AcDbBlockEnd
  0
BLOCK
  5
25B
330
25A
100
AcDbEntity
  8
0
100
AcDbBlockBegin
  2
*D22
 70
1
 10
0.0
 20
0.0
 30
0.0
  3
*D22
  1

  0
LINE
  5
25D
330
25A
100
AcDbEntity
  8
0
 62
7
370
13
100
AcDbLine
 10
13.59
 20
-0.625
 30
0.0
 11
13.59
 21
-0.625
 31
0.0
  0
LINE
  5
25E
330
25A
100
AcDbEntity
  8
0
 62
7
370
13
100
AcDbLine
 10
14.690000000000001
 20
-0.625
 30
0.0
 11
14.690000000000001
 21
-0.625
 31
0.0
  0
INSERT
  5
25F
330
25A
100
AcDbEntity
  8
S-COTA
 62
7
100
AcDbBlockReference
  2
_OBLIQUE
 10
13.59
 20
-0.65
 30
0.0
 41
0.06
 42
0.06
  0
INSERT
  5
261
330
25A
100
AcDbEntity
  8
S-COTA
 62
7
100
AcDbBlockReference
  2
_OBLIQUE
 10
14.690000000000001
 20
-0.65
 30
0.0
 41
0.06
 42
0.06
  0
LINE
  5
263
330
25A
100
AcDbEntity
  8
0
 62
7
370
18
100
AcDbLine
 10
13.565
 20
-0.65
 30
0.0
 11
14.715000000000002
 21
-0.65
 31
0.0
  0
MTEXT
  5
264
330
25A
100
AcDbEntity
  8
S-COTA
 62
7
100
AcDbMText
 10
14.14
 20
-0.6025
 30
0.0
 40
0.05500000000000001
 71
5
  1
1.10
  7
ARIAL
  0
POINT
  5
265
330
25A
100
AcDbEntity
  8
Defpoints
100
AcDbPoint
 10
13.59
 20
-0.65
 30
0.0
  0
POINT
  5
266
330
25A
100
AcDbEntity
  8
Defpoints
100
AcDbPoint
 10
13.59
 20
-0.65
 30
0.0
  0
POINT
  5
267
330
25A
100
AcDbEntity
  8
Defpoints
100
AcDbPoint
 10
14.690000000000001
 20
-0.65
 30
0.0
  0
ENDBLK
  5
25C
330
25A
100
AcDbEntity
  8
0
100
AcDbBlockEnd
  0
BLOCK
  5
26A
330
269
100
AcDbEntity
  8
0
100
AcDbBlockBegin
  2
*D23
 70
1
 10
0.0
 20
0.0
 30
0.0
  3
*D23
  1

  0
LINE
  5
26C
330
269
100
AcDbEntity
  8
0
 62
7
370
13
100
AcDbLine
 10
11.075
 20
3.061616997868383e-18
 30
0.0
 11
11.075
 21
3.061616997868383e-18
 31
0.0
  0
LINE
  5
26D
330
269
100
AcDbEntity
  8
0
 62
7
370
13
100
AcDbLine
 10
11.075
 20
0.17647058823529413
 30
0.0
 11
11.075
 21
0.17647058823529413
 31
0.0
  0
INSERT
  5
26E
330
269
100
AcDbEntity
  8
S-COTA
 62
7
100
AcDbBlockReference
  2
_OBLIQUE
 10
11.1
 20
0.0
 30
0.0
 41
0.06
 42
0.06
 50
90.0
  0
INSERT
  5
270
330
269
100
AcDbEntity
  8
S-COTA
 62
7
100
AcDbBlockReference
  2
_OBLIQUE
 10
11.1
 20
0.17647058823529413
 30
0.0
 41
0.06
 42
0.06
 50
90.0
  0
LINE
  5
272
330
269
100
AcDbEntity
  8
0
 62
7
370
18
100
AcDbLine
 10
11.1
 20
-0.025
 30
0.0
 11
11.1
 21
0.20147058823529412
 31
0.0
  0
MTEXT
  5
273
330
269
100
AcDbEntity
  8
S-COTA
 62
7
100
AcDbMText
 10
11.0275
 20
0.08823529411764706
 30
0.0
 40
0.05500000000000001
 71
5
  1
0.18
  7
ARIAL
 50
90.0
  0
POINT
  5
274
330
269
100
AcDbEntity
  8
Defpoints
100
AcDbPoint
 10
11.1
 20
0.0
 30
0.0
  0
POINT
  5
275
330
269
100
AcDbEntity
  8
Defpoints
100
AcDbPoint
 10
11.1
 20
0.0
 30
0.0
  0
POINT
  5
276
330
269
100
AcDbEntity
  8
Defpoints
100
AcDbPoint
 10
11.1
 20
0.17647058823529413
 30
0.0
  0
ENDBLK
  5
26B
330
269
100
AcDbEntity
  8
0
100
AcDbBlockEnd
  0
BLOCK
  5
27F
330
27E
100
AcDbEntity
  8
0
100
AcDbBlockBegin
  2
*D24
 70
1
 10
0.0
 20
0.0
 30
0.0
  3
*D24
  1

  0
LINE
  5
281
330
27E
100
AcDbEntity
  8
0
 62
7
370
13
100
AcDbLine
 10
20.3
 20
0.9394117647058824
 30
0.0
 11
20.3
 21
0.9394117647058824
 31
0.0
  0
LINE
  5
282
330
27E
100
AcDbEntity
  8
0
 62
7
370
13
100
AcDbLine
 10
20.58
 20
0.9394117647058824
 30
0.0
 11
20.58
 21
0.9394117647058824
 31
0.0
  0
INSERT
  5
283
330
27E
100
AcDbEntity
  8
S-COTA
 62
7
100
AcDbBlockReference
  2
_OBLIQUE
 10
20.3
 20
0.9294117647058824
 30
0.0
 41
0.024
 42
0.024
  0
INSERT
  5
285
330
27E
100
AcDbEntity
  8
S-COTA
 62
7
100
AcDbBlockReference
  2
_OBLIQUE
 10
20.58
 20
0.9294117647058824
 30
0.0
 41
0.024
 42
0.024
  0
LINE
  5
287
330
27E
100
AcDbEntity
  8
0
 62
7
370
18
100
AcDbLine
 10
20.29
 20
0.9294117647058824
 30
0.0
 11
20.59
 21
0.9294117647058824
 31
0.0
  0
MTEXT
  5
288
330
27E
100
AcDbEntity
  8
S-COTA
 62
7
100
AcDbMText
 10
20.439999999999998
 20
0.9484117647058824
 30
0.0
 40
0.022000000000000002
 71
5
  1
0.28
  7
ARIAL
  0
POINT
  5
289
330
27E
100
AcDbEntity
  8
Defpoints
100
AcDbPoint
 10
20.3
 20
0.9294117647058824
 30
0.0
  0
POINT
  5
28A
330
27E
100
AcDbEntity
  8
Defpoints
100
AcDbPoint
 10
20.3
 20
0.9294117647058824
 30
0.0
  0
POINT
  5
28B
330
27E
100
AcDbEntity
  8
Defpoints
100
AcDbPoint
 10
20.58
 20
0.9294117647058824
 30
0.0
  0
ENDBLK
  5
280
330
27E
100
AcDbEntity
  8
0
100
AcDbBlockEnd
  0
BLOCK
  5
28E
330
28D
100
AcDbEntity
  8
0
100
AcDbBlockBegin
  2
*D25
 70
1
 10
0.0
 20
0.0
 30
0.0
  3
*D25
  1

  0
LINE
  5
290
330
28D
100
AcDbEntity
  8
0
 62
7
370
13
100
AcDbLine
 10
21.38
 20
0.5029411764705882
 30
0.0
 11
21.38
 21
0.5029411764705882
 31
0.0
  0
LINE
  5
291
330
28D
100
AcDbEntity
  8
0
 62
7
370
13
100
AcDbLine
 10
21.38
 20
0.6794117647058824
 30
0.0
 11
21.38
 21
0.6794117647058824
 31
0.0
  0
INSERT
  5
292
330
28D
100
AcDbEntity
  8
S-COTA
 62
7
100
AcDbBlockReference
  2
_OBLIQUE
 10
21.39
 20
0.5029411764705882
 30
0.0
 41
0.024
 42
0.024
 50
90.0
  0
INSERT
  5
294
330
28D
100
AcDbEntity
  8
S-COTA
 62
7
100
AcDbBlockReference
  2
_OBLIQUE
 10
21.39
 20
0.6794117647058824
 30
0.0
 41
0.024
 42
0.024
 50
90.0
  0
LINE
  5
296
330
28D
100
AcDbEntity
  8
0
 62
7
370
18
100
AcDbLine
 10
21.39
 20
0.4929411764705882
 30
0.0
 11
21.39
 21
0.6894117647058824
 31
0.0
  0
MTEXT
  5
297
330
28D
100
AcDbEntity
  8
S-COTA
 62
7
100
AcDbMText
 10
21.371000000000002
 20
0.5911764705882353
 30
0.0
 40
0.022000000000000002
 71
5
  1
0.18
  7
ARIAL
 50
90.0
  0
POINT
  5
298
330
28D
100
AcDbEntity
  8
Defpoints
100
AcDbPoint
 10
21.39
 20
0.5029411764705882
 30
0.0
  0
POINT
  5
299
330
28D
100
AcDbEntity
  8
Defpoints
100
AcDbPoint
 10
21.39
 20
0.5029411764705882
 30
0.0
  0
POINT
  5
29A
330
28D
100
AcDbEntity
  8
Defpoints
100
AcDbPoint
 10
21.39
 20
0.6794117647058824
 30
0.0
  0
ENDBLK
  5
28F
330
28D
100
AcDbEntity
  8
0
100
AcDbBlockEnd
  0
BLOCK
  5
2B3
330
2B2
100
AcDbEntity
  8
0
100
AcDbBlockBegin
  2
*D26
 70
1
 10
0.0
 20
0.0
 30
0.0
  3
*D26
  1

  0
LINE
  5
2B5
330
2B2
100
AcDbEntity
  8
0
 62
7
370
13
100
AcDbLine
 10
25.74
 20
1.2246467991473532e-18
 30
0.0
 11
25.74
 21
1.2246467991473532e-18
 31
0.0
  0
LINE
  5
2B6
330
2B2
100
AcDbEntity
  8
0
 62
7
370
13
100
AcDbLine
 10
25.74
 20
1.07
 30
0.0
 11
25.74
 21
1.07
 31
0.0
  0
INSERT
  5
2B7
330
2B2
100
AcDbEntity
  8
S-COTA
 62
7
100
AcDbBlockReference
  2
_OBLIQUE
 10
25.75
 20
0.0
 30
0.0
 41
0.024
 42
0.024
 50
90.0
  0
INSERT
  5
2B9
330
2B2
100
AcDbEntity
  8
S-COTA
 62
7
100
AcDbBlockReference
  2
_OBLIQUE
 10
25.75
 20
1.07
 30
0.0
 41
0.024
 42
0.024
 50
90.0
  0
LINE
  5
2BB
330
2B2
100
AcDbEntity
  8
0
 62
7
370
18
100
AcDbLine
 10
25.75
 20
-0.01
 30
0.0
 11
25.75
 21
1.08
 31
0.0
  0
MTEXT
  5
2BC
330
2B2
100
AcDbEntity
  8
S-COTA
 62
7
100
AcDbMText
 10
25.731
 20
0.535
 30
0.0
 40
0.022000000000000002
 71
5
  1
1.07
  7
ARIAL
 50
90.0
  0
POINT
  5
2BD
330
2B2
100
AcDbEntity
  8
Defpoints
100
AcDbPoint
 10
25.75
 20
0.0
 30
0.0
  0
POINT
  5
2BE
330
2B2
100
AcDbEntity
  8
Defpoints
100
AcDbPoint
 10
25.75
 20
0.0
 30
0.0
  0
POINT
  5
2BF
330
2B2
100
AcDbEntity
  8
Defpoints
100
AcDbPoint
 10
25.75
 20
1.07
 30
0.0
  0
ENDBLK
  5
2B4
330
2B2
100
AcDbEntity
  8
0
100
AcDbBlockEnd
  0
BLOCK
  5
2C2
330
2C1
100
AcDbEntity
  8
0
100
AcDbBlockBegin
  2
*D27
 70
1
 10
0.0
 20
0.0
 30
0.0
  3
*D27
  1

  0
LINE
  5
2C4
330
2C1
100
AcDbEntity
  8
0
 62
7
370
13
100
AcDbLine
 10
25.869999999999997
 20
1.2246467991473532e-18
 30
0.0
 11
25.869999999999997
 21
1.2246467991473532e-18
 31
0.0
  0
LINE
  5
2C5
330
2C1
100
AcDbEntity
  8
0
 62
7
370
13
100
AcDbLine
 10
25.869999999999997
 20
0.9
 30
0.0
 11
25.869999999999997
 21
0.9
 31
0.0
  0
INSERT
  5
2C6
330
2C1
100
AcDbEntity
  8
S-COTA
 62
7
100
AcDbBlockReference
  2
_OBLIQUE
 10
25.88
 20
0.0
 30
0.0
 41
0.024
 42
0.024
 50
90.0
  0
INSERT
  5
2C8
330
2C1
100
AcDbEntity
  8
S-COTA
 62
7
100
AcDbBlockReference
  2
_OBLIQUE
 10
25.88
 20
0.9
 30
0.0
 41
0.024
 42
0.024
 50
90.0
  0
LINE
  5
2CA
330
2C1
100
AcDbEntity
  8
0
 62
7
370
18
100
AcDbLine
 10
25.88
 20
-0.01
 30
0.0
 11
25.88
 21
0.91
 31
0.0
  0
MTEXT
  5
2CB
330
2C1
100
AcDbEntity
  8
S-COTA
 62
7
100
AcDbMText
 10
25.861
 20
0.45
 30
0.0
 40
0.022000000000000002
 71
5
  1
0.90
  7
ARIAL
 50
90.0
  0
POINT
  5
2CC
330
2C1
100
AcDbEntity
  8
Defpoints
100
AcDbPoint
 10
25.88
 20
0.0
 30
0.0
  0
POINT
  5
2CD
330
2C1
100
AcDbEntity
  8
Defpoints
100
AcDbPoint
 10
25.88
 20
0.0
 30
0.0
  0
POINT
  5
2CE
330
2C1
100
AcDbEntity
  8
Defpoints
100
AcDbPoint
 10
25.88
 20
0.9
 30
0.0
  0
ENDBLK
  5
2C3
330
2C1
100
AcDbEntity
  8
0
100
AcDbBlockEnd
  0
BLOCK
  5
2D1
330
2D0
100
AcDbEntity
  8
0
100
AcDbBlockBegin
  2
*D28
 70
1
 10
0.0
 20
0.0
 30
0.0
  3
*D28
  1

  0
LINE
  5
2D3
330
2D0
100
AcDbEntity
  8
0
 62
7
370
13
100
AcDbLine
 10
27.31
 20
1.2246467991473532e-18
 30
0.0
 11
27.31
 21
1.2246467991473532e-18
 31
0.0
  0
LINE
  5
2D4
330
2D0
100
AcDbEntity
  8
0
 62
7
370
13
100
AcDbLine
 10
27.31
 20
0.1
 30
0.0
 11
27.31
 21
0.1
 31
0.0
  0
INSERT
  5
2D5
330
2D0
100
AcDbEntity
  8
S-COTA
 62
7
100
AcDbBlockReference
  2
_OBLIQUE
 10
27.32
 20
0.0
 30
0.0
 41
0.024
 42
0.024
 50
90.0
  0
INSERT
  5
2D7
330
2D0
100
AcDbEntity
  8
S-COTA
 62
7
100
AcDbBlockReference
  2
_OBLIQUE
 10
27.32
 20
0.1
 30
0.0
 41
0.024
 42
0.024
 50
90.0
  0
LINE
  5
2D9
330
2D0
100
AcDbEntity
  8
0
 62
7
370
18
100
AcDbLine
 10
27.32
 20
-0.01
 30
0.0
 11
27.32
 21
0.11
 31
0.0
  0
MTEXT
  5
2DA
330
2D0
100
AcDbEntity
  8
S-COTA
 62
7
100
AcDbMText
 10
27.301000000000002
 20
0.05
 30
0.0
 40
0.022000000000000002
 71
5
  1
0.10
  7
ARIAL
 50
90.0
  0
POINT
  5
2DB
330
2D0
100
AcDbEntity
  8
Defpoints
100
AcDbPoint
 10
27.32
 20
0.0
 30
0.0
  0
POINT
  5
2DC
330
2D0
100
AcDbEntity
  8
Defpoints
100
AcDbPoint
 10
27.32
 20
0.0
 30
0.0
  0
POINT
  5
2DD
330
2D0
100
AcDbEntity
  8
Defpoints
100
AcDbPoint
 10
27.32
 20
0.1
 30
0.0
  0
ENDBLK
  5
2D2
330
2D0
100
AcDbEntity
  8
0
100
AcDbBlockEnd
  0
BLOCK
  5
2DF
330
2DE
100
AcDbEntity
  8
0
100
AcDbBlockBegin
  2
*Paper_Space
 70
0
 10
0.0
 20
0.0
 30
0.0
  3
*Paper_Space
  1

  0
ENDBLK
  5
2E0
330
2DE
100
AcDbEntity
  8
0
100
AcDbBlockEnd
  0
BLOCK
  5
1C
330
1B
100
AcDbEntity
  8
0
100
AcDbBlockBegin
  2
*Paper_Space0
 70
0
 10
0.0
 20
0.0
 30
0.0
  3
*Paper_Space0
  1

  0
ENDBLK
  5
1D
330
1B
100
AcDbEntity
  8
0
100
AcDbBlockEnd
  0
BLOCK
  5
32B
330
32A
100
AcDbEntity
  8
0
100
AcDbBlockBegin
  2
CAJETIN_A1
 70
2
 10
0.0
 20
0.0
 30
0.0
  3
CAJETIN_A1
  1

  0
LWPOLYLINE
  5
32D
330
32A
100
AcDbEntity
  8
0
100
AcDbPolyline
 90
4
 70
1
 10
0.0
 20
0.0
 10
120.0
 20
0.0
 10
120.0
 20
574.0
 10
0.0
 20
574.0
  0
TEXT
  5
32E
330
32A
100
AcDbEntity
  8
0
100
AcDbText
 10
3.0
 20
571.0
 30
0.0
 40
2.0
  1
ESPACIO PARA SELLOS Y TIMBRES
  7
ARIAL
 11
3.0
 21
571.0
 31
0.0
100
AcDbText
 73
3
  0
LINE
  5
32F
330
32A
100
AcDbEntity
  8
0
100
AcDbLine
 10
0.0
 20
255.6
 30
0.0
 11
120.0
 21
255.6
 31
0.0
  0
ATTDEF
  5
330
330
32A
100
AcDbEntity
  8
0
100
AcDbText
 10
60.0
 20
251.6
 30
0.0
 40
3.2
  1

  7
ARIAL
 72
1
 11
60.0
 21
251.6
 31
0.0
100
AcDbAttributeDefinition
  3

  2
EMPRESA
 70
0
 74
3
 71
1
 72
0
 11
60.0
 21
251.6
 31
0.0
  0
ATTDEF
  5
331
330
32A
100
AcDbEntity
  8
0
100
AcDbText
 10
60.0
 20
245.6
 30
0.0
 40
2.5
  1

  7
ARIAL
 72
1
 11
60.0
 21
245.6
 31
0.0
100
AcDbAttributeDefinition
  3

  2
EMPRESA_CED
 70
0
 74
3
 71
1
 72
0
 11
60.0
 21
245.6
 31
0.0
  0
LINE
  5
332
330
32A
100
AcDbEntity
  8
0
100
AcDbLine
 10
0.0
 20
237.6
 30
0.0
 11
120.0
 21
237.6
 31
0.0
  0
TEXT
  5
333
330
32A
100
AcDbEntity
  8
0
100
AcDbText
 10
3.0
 20
235.1
 30
0.0
 40
2.2
  1
PROFESIONAL RESPONSABLE:
  7
ARIAL
 11
3.0
 21
235.1
 31
0.0
100
AcDbText
 73
3
  0
ATTDEF
  5
334
330
32A
100
AcDbEntity
  8
0
100
AcDbText
 10
3.0
 20
230.1
 30
0.0
 40
2.6
  1

  7
ARIAL
 11
3.0
 21
230.1
 31
0.0
100
AcDbAttributeDefinition
  3

  2
PROF_1
 70
0
 74
3
 71
1
 72
0
 11
3.0
 21
230.1
 31
0.0
  0
ATTDEF
  5
335
330
32A
100
AcDbEntity
  8
0
100
AcDbText
 10
3.0
 20
225.6
 30
0.0
 40
2.6
  1

  7
ARIAL
 11
3.0
 21
225.6
 31
0.0
100
AcDbAttributeDefinition
  3

  2
PROF_2
 70
0
 74
3
 71
1
 72
0
 11
3.0
 21
225.6
 31
0.0
  0
ATTDEF
  5
336
330
32A
100
AcDbEntity
  8
0
100
AcDbText
 10
3.0
 20
221.1
 30
0.0
 40
2.6
  1

  7
ARIAL
 11
3.0
 21
221.1
 31
0.0
100
AcDbAttributeDefinition
  3

  2
PROF_3
 70
0
 74
3
 71
1
 72
0
 11
3.0
 21
221.1
 31
0.0
  0
LINE
  5
337
330
32A
100
AcDbEntity
  8
0
100
AcDbLine
 10
0.0
 20
215.6
 30
0.0
 11
120.0
 21
215.6
 31
0.0
  0
TEXT
  5
338
330
32A
100
AcDbEntity
  8
0
100
AcDbText
 10
3.0
 20
213.1
 30
0.0
 40
2.2
  1
PROYECTO:
  7
ARIAL
 11
3.0
 21
213.1
 31
0.0
100
AcDbText
 73
3
  0
ATTDEF
  5
339
330
32A
100
AcDbEntity
  8
0
100
AcDbText
 10
3.0
 20
208.1
 30
0.0
 40
4.2
  1

  7
ARIAL
 11
3.0
 21
208.1
 31
0.0
100
AcDbAttributeDefinition
  3

  2
PROYECTO
 70
0
 74
3
 71
1
 72
0
 11
3.0
 21
208.1
 31
0.0
  0
ATTDEF
  5
33A
330
32A
100
AcDbEntity
  8
0
100
AcDbText
 10
3.0
 20
201.1
 30
0.0
 40
2.5
  1

  7
ARIAL
 11
3.0
 21
201.1
 31
0.0
100
AcDbAttributeDefinition
  3

  2
UBIC_1
 70
0
 74
3
 71
1
 72
0
 11
3.0
 21
201.1
 31
0.0
  0
ATTDEF
  5
33B
330
32A
100
AcDbEntity
  8
0
100
AcDbText
 10
3.0
 20
196.6
 30
0.0
 40
2.5
  1

  7
ARIAL
 11
3.0
 21
196.6
 31
0.0
100
AcDbAttributeDefinition
  3

  2
UBIC_2
 70
0
 74
3
 71
1
 72
0
 11
3.0
 21
196.6
 31
0.0
  0
ATTDEF
  5
33C
330
32A
100
AcDbEntity
  8
0
100
AcDbText
 10
3.0
 20
192.1
 30
0.0
 40
2.5
  1

  7
ARIAL
 11
3.0
 21
192.1
 31
0.0
100
AcDbAttributeDefinition
  3

  2
UBIC_3
 70
0
 74
3
 71
1
 72
0
 11
3.0
 21
192.1
 31
0.0
  0
LINE
  5
33D
330
32A
100
AcDbEntity
  8
0
100
AcDbLine
 10
0.0
 20
186.6
 30
0.0
 11
120.0
 21
186.6
 31
0.0
  0
TEXT
  5
33E
330
32A
100
AcDbEntity
  8
0
100
AcDbText
 10
3.0
 20
184.1
 30
0.0
 40
2.2
  1
INFORMACIÓN REGISTRO PÚBLICO:
  7
ARIAL
 11
3.0
 21
184.1
 31
0.0
100
AcDbText
 73
3
  0
ATTDEF
  5
33F
330
32A
100
AcDbEntity
  8
0
100
AcDbText
 10
3.0
 20
179.1
 30
0.0
 40
2.5
  1

  7
ARIAL
 11
3.0
 21
179.1
 31
0.0
100
AcDbAttributeDefinition
  3

  2
REG_1
 70
0
 74
3
 71
1
 72
0
 11
3.0
 21
179.1
 31
0.0
  0
ATTDEF
  5
340
330
32A
100
AcDbEntity
  8
0
100
AcDbText
 10
3.0
 20
174.6
 30
0.0
 40
2.5
  1

  7
ARIAL
 11
3.0
 21
174.6
 31
0.0
100
AcDbAttributeDefinition
  3

  2
REG_2
 70
0
 74
3
 71
1
 72
0
 11
3.0
 21
174.6
 31
0.0
  0
ATTDEF
  5
341
330
32A
100
AcDbEntity
  8
0
100
AcDbText
 10
3.0
 20
170.1
 30
0.0
 40
2.5
  1

  7
ARIAL
 11
3.0
 21
170.1
 31
0.0
100
AcDbAttributeDefinition
  3

  2
REG_3
 70
0
 74
3
 71
1
 72
0
 11
3.0
 21
170.1
 31
0.0
  0
LINE
  5
342
330
32A
100
AcDbEntity
  8
0
100
AcDbLine
 10
0.0
 20
164.6
 30
0.0
 11
120.0
 21
164.6
 31
0.0
  0
TEXT
  5
343
330
32A
100
AcDbEntity
  8
0
100
AcDbText
 10
3.0
 20
162.1
 30
0.0
 40
2.2
  1
CONTENIDO:
  7
ARIAL
 11
3.0
 21
162.1
 31
0.0
100
AcDbText
 73
3
  0
ATTDEF
  5
344
330
32A
100
AcDbEntity
  8
0
100
AcDbText
 10
3.0
 20
157.1
 30
0.0
 40
5.0
  1

  7
ARIAL
 11
3.0
 21
157.1
 31
0.0
100
AcDbAttributeDefinition
  3

  2
CONT_TIT
 70
0
 74
3
 71
1
 72
0
 11
3.0
 21
157.1
 31
0.0
  0
ATTDEF
  5
345
330
32A
100
AcDbEntity
  8
0
100
AcDbText
 10
3.0
 20
149.6
 30
0.0
 40
3.0
  1

  7
ARIAL
 11
3.0
 21
149.6
 31
0.0
100
AcDbAttributeDefinition
  3

  2
CONT_1
 70
0
 74
3
 71
1
 72
0
 11
3.0
 21
149.6
 31
0.0
  0
ATTDEF
  5
346
330
32A
100
AcDbEntity
  8
0
100
AcDbText
 10
3.0
 20
144.1
 30
0.0
 40
3.0
  1

  7
ARIAL
 11
3.0
 21
144.1
 31
0.0
100
AcDbAttributeDefinition
  3

  2
CONT_2
 70
0
 74
3
 71
1
 72
0
 11
3.0
 21
144.1
 31
0.0
  0
ATTDEF
  5
347
330
32A
100
AcDbEntity
  8
0
100
AcDbText
 10
3.0
 20
138.6
 30
0.0
 40
3.0
  1

  7
ARIAL
 11
3.0
 21
138.6
 31
0.0
100
AcDbAttributeDefinition
  3

  2
CONT_3
 70
0
 74
3
 71
1
 72
0
 11
3.0
 21
138.6
 31
0.0
  0
ATTDEF
  5
348
330
32A
100
AcDbEntity
  8
0
100
AcDbText
 10
3.0
 20
133.1
 30
0.0
 40
3.0
  1

  7
ARIAL
 11
3.0
 21
133.1
 31
0.0
100
AcDbAttributeDefinition
  3

  2
CONT_4
 70
0
 74
3
 71
1
 72
0
 11
3.0
 21
133.1
 31
0.0
  0
ATTDEF
  5
349
330
32A
100
AcDbEntity
  8
0
100
AcDbText
 10
3.0
 20
127.6
 30
0.0
 40
3.0
  1

  7
ARIAL
 11
3.0
 21
127.6
 31
0.0
100
AcDbAttributeDefinition
  3

  2
CONT_5
 70
0
 74
3
 71
1
 72
0
 11
3.0
 21
127.6
 31
0.0
  0
ATTDEF
  5
34A
330
32A
100
AcDbEntity
  8
0
100
AcDbText
 10
3.0
 20
122.1
 30
0.0
 40
3.0
  1

  7
ARIAL
 11
3.0
 21
122.1
 31
0.0
100
AcDbAttributeDefinition
  3

  2
CONT_6
 70
0
 74
3
 71
1
 72
0
 11
3.0
 21
122.1
 31
0.0
  0
LINE
  5
34B
330
32A
100
AcDbEntity
  8
0
100
AcDbLine
 10
0.0
 20
114.6
 30
0.0
 11
120.0
 21
114.6
 31
0.0
  0
TEXT
  5
34C
330
32A
100
AcDbEntity
  8
0
100
AcDbText
 10
3.0
 20
112.1
 30
0.0
 40
2.2
  1
ESCALAS:
  7
ARIAL
 11
3.0
 21
112.1
 31
0.0
100
AcDbText
 73
3
  0
ATTDEF
  5
34D
330
32A
100
AcDbEntity
  8
0
100
AcDbText
 10
25.0
 20
112.1
 30
0.0
 40
2.2
  1

  7
ARIAL
 11
25.0
 21
112.1
 31
0.0
100
AcDbAttributeDefinition
  3

  2
ESCALAS
 70
0
 74
3
 71
1
 72
0
 11
25.0
 21
112.1
 31
0.0
  0
LINE
  5
34E
330
32A
100
AcDbEntity
  8
0
100
AcDbLine
 10
0.0
 20
107.6
 30
0.0
 11
120.0
 21
107.6
 31
0.0
  0
TEXT
  5
34F
330
32A
100
AcDbEntity
  8
0
100
AcDbText
 10
3.0
 20
105.6
 30
0.0
 40
2.2
  1
CONTROL DE REVISIONES
  7
ARIAL
 11
3.0
 21
105.6
 31
0.0
100
AcDbText
 73
3
  0
LINE
  5
350
330
32A
100
AcDbEntity
  8
0
100
AcDbLine
 10
0.0
 20
101.6
 30
0.0
 11
120.0
 21
101.6
 31
0.0
  0
TEXT
  5
351
330
32A
100
AcDbEntity
  8
0
100
AcDbText
 10
6.0
 20
99.1
 30
0.0
 40
2.0
  1
REV.
  7
ARIAL
 72
1
 11
6.0
 21
99.1
 31
0.0
100
AcDbText
 73
2
  0
TEXT
  5
352
330
32A
100
AcDbEntity
  8
0
100
AcDbText
 10
23.0
 20
99.1
 30
0.0
 40
2.0
  1
FECHA
  7
ARIAL
 72
1
 11
23.0
 21
99.1
 31
0.0
100
AcDbText
 73
2
  0
TEXT
  5
353
330
32A
100
AcDbEntity
  8
0
100
AcDbText
 10
77.0
 20
99.1
 30
0.0
 40
2.0
  1
DESCRIPCIÓN
  7
ARIAL
 72
1
 11
77.0
 21
99.1
 31
0.0
100
AcDbText
 73
2
  0
LINE
  5
354
330
32A
100
AcDbEntity
  8
0
100
AcDbLine
 10
0.0
 20
96.6
 30
0.0
 11
120.0
 21
96.6
 31
0.0
  0
ATTDEF
  5
355
330
32A
100
AcDbEntity
  8
0
100
AcDbText
 10
6.0
 20
94.0
 30
0.0
 40
2.0
  1

  7
ARIAL
 72
1
 11
6.0
 21
94.0
 31
0.0
100
AcDbAttributeDefinition
  3

  2
REV0_N
 70
0
 74
2
 71
1
 72
0
 11
6.0
 21
94.0
 31
0.0
  0
ATTDEF
  5
356
330
32A
100
AcDbEntity
  8
0
100
AcDbText
 10
23.0
 20
94.0
 30
0.0
 40
2.0
  1

  7
ARIAL
 72
1
 11
23.0
 21
94.0
 31
0.0
100
AcDbAttributeDefinition
  3

  2
REV0_F
 70
0
 74
2
 71
1
 72
0
 11
23.0
 21
94.0
 31
0.0
  0
ATTDEF
  5
357
330
32A
100
AcDbEntity
  8
0
100
AcDbText
 10
35.5
 20
94.0
 30
0.0
 40
2.0
  1

  7
ARIAL
 11
35.5
 21
94.0
 31
0.0
100
AcDbAttributeDefinition
  3

  2
REV0_D
 70
0
 74
2
 71
1
 72
0
 11
35.5
 21
94.0
 31
0.0
  0
LINE
  5
358
330
32A
100
AcDbEntity
  8
0
100
AcDbLine
 10
0.0
 20
91.39999999999999
 30
0.0
 11
120.0
 21
91.39999999999999
 31
0.0
  0
ATTDEF
  5
359
330
32A
100
AcDbEntity
  8
0
100
AcDbText
 10
6.0
 20
88.8
 30
0.0
 40
2.0
  1

  7
ARIAL
 72
1
 11
6.0
 21
88.8
 31
0.0
100
AcDbAttributeDefinition
  3

  2
REV1_N
 70
0
 74
2
 71
1
 72
0
 11
6.0
 21
88.8
 31
0.0
  0
ATTDEF
  5
35A
330
32A
100
AcDbEntity
  8
0
100
AcDbText
 10
23.0
 20
88.8
 30
0.0
 40
2.0
  1

  7
ARIAL
 72
1
 11
23.0
 21
88.8
 31
0.0
100
AcDbAttributeDefinition
  3

  2
REV1_F
 70
0
 74
2
 71
1
 72
0
 11
23.0
 21
88.8
 31
0.0
  0
ATTDEF
  5
35B
330
32A
100
AcDbEntity
  8
0
100
AcDbText
 10
35.5
 20
88.8
 30
0.0
 40
2.0
  1

  7
ARIAL
 11
35.5
 21
88.8
 31
0.0
100
AcDbAttributeDefinition
  3

  2
REV1_D
 70
0
 74
2
 71
1
 72
0
 11
35.5
 21
88.8
 31
0.0
  0
LINE
  5
35C
330
32A
100
AcDbEntity
  8
0
100
AcDbLine
 10
0.0
 20
86.19999999999999
 30
0.0
 11
120.0
 21
86.19999999999999
 31
0.0
  0
ATTDEF
  5
35D
330
32A
100
AcDbEntity
  8
0
100
AcDbText
 10
6.0
 20
83.6
 30
0.0
 40
2.0
  1

  7
ARIAL
 72
1
 11
6.0
 21
83.6
 31
0.0
100
AcDbAttributeDefinition
  3

  2
REV2_N
 70
0
 74
2
 71
1
 72
0
 11
6.0
 21
83.6
 31
0.0
  0
ATTDEF
  5
35E
330
32A
100
AcDbEntity
  8
0
100
AcDbText
 10
23.0
 20
83.6
 30
0.0
 40
2.0
  1

  7
ARIAL
 72
1
 11
23.0
 21
83.6
 31
0.0
100
AcDbAttributeDefinition
  3

  2
REV2_F
 70
0
 74
2
 71
1
 72
0
 11
23.0
 21
83.6
 31
0.0
  0
ATTDEF
  5
35F
330
32A
100
AcDbEntity
  8
0
100
AcDbText
 10
35.5
 20
83.6
 30
0.0
 40
2.0
  1

  7
ARIAL
 11
35.5
 21
83.6
 31
0.0
100
AcDbAttributeDefinition
  3

  2
REV2_D
 70
0
 74
2
 71
1
 72
0
 11
35.5
 21
83.6
 31
0.0
  0
LINE
  5
360
330
32A
100
AcDbEntity
  8
0
100
AcDbLine
 10
0.0
 20
80.99999999999999
 30
0.0
 11
120.0
 21
80.99999999999999
 31
0.0
  0
LINE
  5
361
330
32A
100
AcDbEntity
  8
0
100
AcDbLine
 10
12.0
 20
101.6
 30
0.0
 11
12.0
 21
80.99999999999999
 31
0.0
  0
LINE
  5
362
330
32A
100
AcDbEntity
  8
0
100
AcDbLine
 10
34.0
 20
101.6
 30
0.0
 11
34.0
 21
80.99999999999999
 31
0.0
  0
TEXT
  5
363
330
32A
100
AcDbEntity
  8
0
100
AcDbText
 10
3.0
 20
78.49999999999999
 30
0.0
 40
2.2
  1
ESTADO:
  7
ARIAL
 11
3.0
 21
78.49999999999999
 31
0.0
100
AcDbText
 73
3
  0
ATTDEF
  5
364
330
32A
100
AcDbEntity
  8
0
100
AcDbText
 10
60.0
 20
72.99999999999999
 30
0.0
 40
3.0
  1

  7
ARIAL
 72
1
 11
60.0
 21
72.99999999999999
 31
0.0
100
AcDbAttributeDefinition
  3

  2
ESTADO_1
 70
0
 74
3
 71
1
 72
0
 11
60.0
 21
72.99999999999999
 31
0.0
  0
ATTDEF
  5
365
330
32A
100
AcDbEntity
  8
0
100
AcDbText
 10
60.0
 20
67.99999999999999
 30
0.0
 40
2.4
  1

  7
ARIAL
 72
1
 11
60.0
 21
67.99999999999999
 31
0.0
100
AcDbAttributeDefinition
  3

  2
ESTADO_2
 70
0
 74
3
 71
1
 72
0
 11
60.0
 21
67.99999999999999
 31
0.0
  0
LINE
  5
366
330
32A
100
AcDbEntity
  8
0
100
AcDbLine
 10
0.0
 20
61.999999999999986
 30
0.0
 11
120.0
 21
61.999999999999986
 31
0.0
  0
LINE
  5
367
330
32A
100
AcDbEntity
  8
0
100
AcDbLine
 10
0.0
 20
52.999999999999986
 30
0.0
 11
120.0
 21
52.999999999999986
 31
0.0
  0
LINE
  5
368
330
32A
100
AcDbEntity
  8
0
100
AcDbLine
 10
0.0
 20
26.999999999999986
 30
0.0
 11
120.0
 21
26.999999999999986
 31
0.0
  0
LINE
  5
369
330
32A
100
AcDbEntity
  8
0
100
AcDbLine
 10
66.0
 20
61.999999999999986
 30
0.0
 11
66.0
 21
0.0
 31
0.0
  0
TEXT
  5
36A
330
32A
100
AcDbEntity
  8
0
100
AcDbText
 10
33.0
 20
57.499999999999986
 30
0.0
 40
3.0
  1
LUGAR
  7
ARIAL
 72
1
 11
33.0
 21
57.499999999999986
 31
0.0
100
AcDbText
 73
2
  0
TEXT
  5
36B
330
32A
100
AcDbEntity
  8
0
100
AcDbText
 10
93.0
 20
57.499999999999986
 30
0.0
 40
3.0
  1
LÁMINA
  7
ARIAL
 72
1
 11
93.0
 21
57.499999999999986
 31
0.0
100
AcDbText
 73
2
  0
ATTDEF
  5
36C
330
32A
100
AcDbEntity
  8
0
100
AcDbText
 10
33.0
 20
39.999999999999986
 30
0.0
 40
5.0
  1

  7
ARIAL
 72
1
 11
33.0
 21
39.999999999999986
 31
0.0
100
AcDbAttributeDefinition
  3

  2
LUGAR
 70
0
 74
2
 71
1
 72
0
 11
33.0
 21
39.999999999999986
 31
0.0
  0
ATTDEF
  5
36D
330
32A
100
AcDbEntity
  8
0
100
AcDbText
 10
93.0
 20
39.999999999999986
 30
0.0
 40
14.0
  1

  7
ARIAL
 72
1
 11
93.0
 21
39.999999999999986
 31
0.0
100
AcDbAttributeDefinition
  3

  2
LAMINA
 70
0
 74
2
 71
1
 72
0
 11
93.0
 21
39.999999999999986
 31
0.0
  0
ATTDEF
  5
36E
330
32A
100
AcDbEntity
  8
0
100
AcDbText
 10
33.0
 20
13.499999999999993
 30
0.0
 40
6.0
  1

  7
ARIAL
 72
1
 11
33.0
 21
13.499999999999993
 31
0.0
100
AcDbAttributeDefinition
  3

  2
FECHA
 70
0
 74
2
 71
1
 72
0
 11
33.0
 21
13.499999999999993
 31
0.0
  0
TEXT
  5
36F
330
32A
100
AcDbEntity
  8
0
100
AcDbText
 10
70.0
 20
13.499999999999993
 30
0.0
 40
3.0
  1
TOTAL
  7
ARIAL
 11
70.0
 21
13.499999999999993
 31
0.0
100
AcDbText
 73
2
  0
ATTDEF
  5
370
330
32A
100
AcDbEntity
  8
0
100
AcDbText
 10
104.0
 20
13.499999999999993
 30
0.0
 40
9.0
  1

  7
ARIAL
 72
1
 11
104.0
 21
13.499999999999993
 31
0.0
100
AcDbAttributeDefinition
  3

  2
TOTAL
 70
0
 74
2
 71
1
 72
0
 11
104.0
 21
13.499999999999993
 31
0.0
  0
ENDBLK
  5
32C
330
32A
100
AcDbEntity
  8
0
100
AcDbBlockEnd
  0
ENDSEC
  0
SECTION
  2
ENTITIES
  0
HATCH
  5
C0
330
17
100
AcDbEntity
  8
S-TRAMA
 62
7
100
AcDbHatch
 10
0.0
 20
0.0
 30
0.0
210
0.0
220
0.0
230
1.0
  2
ANSI31
 70
0
 71
0
 91
1
 92
3
 72
0
 73
1
 93
4
 10
0.0
 20
-16.580000000000002
 10
0.15
 20
-16.580000000000002
 10
0.15
 20
-19.88
 10
0.0
 20
-19.88
 97
0
 75
1
 76
1
 52
0.0
 41
0.0048
 77
0
 78
1
 53
45.0
 43
0.0
 44
0.0
 45
-0.0107763073
 46
0.0107763073
 79
0
 98
0
  0
LWPOLYLINE
  5
C1
330
17
100
AcDbEntity
  8
S-CORTE
100
AcDbPolyline
 90
4
 70
1
 10
0.0
 20
-16.580000000000002
 10
0.15
 20
-16.580000000000002
 10
0.15
 20
-19.88
 10
0.0
 20
-19.88
  0
LWPOLYLINE
  5
C2
330
17
100
AcDbEntity
  8
S-CORTE
100
AcDbPolyline
 90
4
 70
1
 10
0.15
 20
-16.86
 10
0.25
 20
-16.86
 10
0.25
 20
-16.98
 10
0.15
 20
-16.98
  0
LINE
  5
C3
330
17
100
AcDbEntity
  8
S-OCULTO
 48
0.0075
100
AcDbLine
 10
0.2
 20
-16.92
 30
0.0
 11
0.2
 21
-16.92
 31
0.0
  0
LWPOLYLINE
  5
C4
330
17
100
AcDbEntity
  8
S-CORTE
100
AcDbPolyline
 90
4
 70
1
 10
1.25
 20
-16.86
 10
4.81
 20
-16.86
 10
4.81
 20
-16.98
 10
1.25
 20
-16.98
  0
LINE
  5
C5
330
17
100
AcDbEntity
  8
S-OCULTO
 48
0.0075
100
AcDbLine
 10
1.28
 20
-16.92
 30
0.0
 11
4.779999999999999
 21
-16.92
 31
0.0
  0
LWPOLYLINE
  5
C6
330
17
100
AcDbEntity
  8
S-CORTE
100
AcDbPolyline
 90
4
 70
1
 10
4.69
 20
-16.98
 10
4.81
 20
-16.98
 10
4.81
 20
-19.48
 10
4.69
 20
-19.48
  0
LINE
  5
C7
330
17
100
AcDbEntity
  8
S-OCULTO
 48
0.0075
100
AcDbLine
 10
4.75
 20
-17.01
 30
0.0
 11
4.75
 21
-19.45
 31
0.0
  0
LWPOLYLINE
  5
C8
330
17
100
AcDbEntity
  8
S-CORTE
100
AcDbPolyline
 90
4
 70
1
 10
0.15
 20
-19.48
 10
4.81
 20
-19.48
 10
4.81
 20
-19.6
 10
0.15
 20
-19.6
  0
LINE
  5
C9
330
17
100
AcDbEntity
  8
S-OCULTO
 48
0.0075
100
AcDbLine
 10
0.18
 20
-19.54
 30
0.0
 11
4.779999999999999
 21
-19.54
 31
0.0
  0
HATCH
  5
CA
330
17
100
AcDbEntity
  8
S-CORTE
 62
7
100
AcDbHatch
 10
0.0
 20
0.0
 30
0.0
210
0.0
220
0.0
230
1.0
  2
SOLID
 70
1
 71
0
 91
1
 92
3
 72
0
 73
1
 93
4
 10
4.69
 20
-16.755000000000003
 10
4.99
 20
-16.755000000000003
 10
4.99
 20
-17.055
 10
4.69
 20
-17.055
 97
0
 75
0
 76
1
 98
0
  0
LWPOLYLINE
  5
CB
330
17
100
AcDbEntity
  8
S-CORTE
100
AcDbPolyline
 90
4
 70
1
 10
4.69
 20
-16.755000000000003
 10
4.99
 20
-16.755000000000003
 10
4.99
 20
-17.055
 10
4.69
 20
-17.055
  0
HATCH
  5
CC
330
17
100
AcDbEntity
  8
S-CORTE
 62
7
100
AcDbHatch
 10
0.0
 20
0.0
 30
0.0
210
0.0
220
0.0
230
1.0
  2
SOLID
 70
1
 71
0
 91
1
 92
3
 72
0
 73
1
 93
4
 10
4.69
 20
-19.405
 10
4.99
 20
-19.405
 10
4.99
 20
-19.705
 10
4.69
 20
-19.705
 97
0
 75
0
 76
1
 98
0
  0
LWPOLYLINE
  5
CD
330
17
100
AcDbEntity
  8
S-CORTE
100
AcDbPolyline
 90
4
 70
1
 10
4.69
 20
-19.405
 10
4.99
 20
-19.405
 10
4.99
 20
-19.705
 10
4.69
 20
-19.705
  0
LINE
  5
CE
330
17
100
AcDbEntity
  8
S-BARANDA
100
AcDbLine
 10
0.25
 20
-16.98
 30
0.0
 11
0.25
 21
-17.98
 31
0.0
  0
ARC
  5
CF
330
17
100
AcDbEntity
  8
S-VISTA
100
AcDbCircle
 10
0.25
 20
-16.98
 30
0.0
 40
1.0
100
AcDbArc
 50
270.0
 51
360.0
  0
LINE
  5
D0
330
17
100
AcDbEntity
  8
S-VISTA
100
AcDbLine
 10
1.35
 20
-16.98
 30
0.0
 11
1.35
 21
-18.080000000000002
 31
0.0
  0
LINE
  5
D1
330
17
100
AcDbEntity
  8
S-VISTA
100
AcDbLine
 10
1.6300000000000001
 20
-16.98
 30
0.0
 11
1.6300000000000001
 21
-18.080000000000002
 31
0.0
  0
LINE
  5
D2
330
17
100
AcDbEntity
  8
S-VISTA
100
AcDbLine
 10
1.9100000000000001
 20
-16.98
 30
0.0
 11
1.9100000000000001
 21
-18.080000000000002
 31
0.0
  0
LINE
  5
D3
330
17
100
AcDbEntity
  8
S-VISTA
100
AcDbLine
 10
2.1900000000000004
 20
-16.98
 30
0.0
 11
2.1900000000000004
 21
-18.080000000000002
 31
0.0
  0
LINE
  5
D4
330
17
100
AcDbEntity
  8
S-VISTA
100
AcDbLine
 10
2.47
 20
-16.98
 30
0.0
 11
2.47
 21
-18.080000000000002
 31
0.0
  0
LINE
  5
D5
330
17
100
AcDbEntity
  8
S-VISTA
100
AcDbLine
 10
2.75
 20
-16.98
 30
0.0
 11
2.75
 21
-18.080000000000002
 31
0.0
  0
LINE
  5
D6
330
17
100
AcDbEntity
  8
S-VISTA
100
AcDbLine
 10
3.0300000000000002
 20
-16.98
 30
0.0
 11
3.0300000000000002
 21
-18.080000000000002
 31
0.0
  0
LINE
  5
D7
330
17
100
AcDbEntity
  8
S-VISTA
100
AcDbLine
 10
3.3100000000000005
 20
-16.98
 30
0.0
 11
3.3100000000000005
 21
-18.080000000000002
 31
0.0
  0
LINE
  5
D8
330
17
100
AcDbEntity
  8
S-VISTA
100
AcDbLine
 10
3.5900000000000003
 20
-16.98
 30
0.0
 11
3.5900000000000003
 21
-18.080000000000002
 31
0.0
  0
LINE
  5
D9
330
17
100
AcDbEntity
  8
S-VISTA
100
AcDbLine
 10
1.35
 20
-18.080000000000002
 30
0.0
 11
3.5900000000000003
 21
-18.080000000000002
 31
0.0
  0
LINE
  5
DA
330
17
100
AcDbEntity
  8
S-VISTA
100
AcDbLine
 10
3.5900000000000003
 20
-18.38
 30
0.0
 11
3.5900000000000003
 21
-19.48
 31
0.0
  0
LINE
  5
DB
330
17
100
AcDbEntity
  8
S-VISTA
100
AcDbLine
 10
3.3100000000000005
 20
-18.38
 30
0.0
 11
3.3100000000000005
 21
-19.48
 31
0.0
  0
LINE
  5
DC
330
17
100
AcDbEntity
  8
S-VISTA
100
AcDbLine
 10
3.0300000000000002
 20
-18.38
 30
0.0
 11
3.0300000000000002
 21
-19.48
 31
0.0
  0
LINE
  5
DD
330
17
100
AcDbEntity
  8
S-VISTA
100
AcDbLine
 10
2.75
 20
-18.38
 30
0.0
 11
2.75
 21
-19.48
 31
0.0
  0
LINE
  5
DE
330
17
100
AcDbEntity
  8
S-VISTA
100
AcDbLine
 10
2.47
 20
-18.38
 30
0.0
 11
2.47
 21
-19.48
 31
0.0
  0
LINE
  5
DF
330
17
100
AcDbEntity
  8
S-VISTA
100
AcDbLine
 10
2.1900000000000004
 20
-18.38
 30
0.0
 11
2.1900000000000004
 21
-19.48
 31
0.0
  0
LINE
  5
E0
330
17
100
AcDbEntity
  8
S-VISTA
100
AcDbLine
 10
1.9100000000000001
 20
-18.38
 30
0.0
 11
1.9100000000000001
 21
-19.48
 31
0.0
  0
LINE
  5
E1
330
17
100
AcDbEntity
  8
S-VISTA
100
AcDbLine
 10
1.6300000000000001
 20
-18.38
 30
0.0
 11
1.6300000000000001
 21
-19.48
 31
0.0
  0
LINE
  5
E2
330
17
100
AcDbEntity
  8
S-VISTA
100
AcDbLine
 10
1.6300000000000001
 20
-18.38
 30
0.0
 11
3.5900000000000003
 21
-18.38
 31
0.0
  0
LINE
  5
E3
330
17
100
AcDbEntity
  8
S-VISTA
100
AcDbLine
 10
3.5900000000000003
 20
-16.98
 30
0.0
 11
3.5900000000000003
 21
-19.48
 31
0.0
  0
LINE
  5
E4
330
17
100
AcDbEntity
  8
S-BARANDA
100
AcDbLine
 10
1.5
 20
-18.110000000000003
 30
0.0
 11
3.5900000000000003
 21
-18.110000000000003
 31
0.0
  0
LINE
  5
E5
330
17
100
AcDbEntity
  8
S-BARANDA
100
AcDbLine
 10
1.6300000000000001
 20
-18.349999999999998
 30
0.0
 11
3.5900000000000003
 21
-18.349999999999998
 31
0.0
  0
LINE
  5
E6
330
17
100
AcDbEntity
  8
S-BARANDA
100
AcDbLine
 10
3.5900000000000003
 20
-18.110000000000003
 30
0.0
 11
3.5900000000000003
 21
-18.349999999999998
 31
0.0
  0
LINE
  5
E7
330
17
100
AcDbEntity
  8
S-OCULTO
 48
0.0075
100
AcDbLine
 10
1.35
 20
-17.06
 30
0.0
 11
4.61
 21
-17.06
 31
0.0
  0
LINE
  5
E8
330
17
100
AcDbEntity
  8
S-OCULTO
 48
0.0075
100
AcDbLine
 10
4.61
 20
-17.06
 30
0.0
 11
4.61
 21
-19.400000000000002
 31
0.0
  0
LINE
  5
E9
330
17
100
AcDbEntity
  8
S-OCULTO
 48
0.0075
100
AcDbLine
 10
4.61
 20
-19.400000000000002
 30
0.0
 11
1.6300000000000001
 21
-19.400000000000002
 31
0.0
  0
LINE
  5
EA
330
17
100
AcDbEntity
  8
S-VISTA
100
AcDbLine
 10
1.5
 20
-17.53
 30
0.0
 11
3.39
 21
-17.53
 31
0.0
  0
SOLID
  5
EB
330
17
100
AcDbEntity
  8
S-VISTA
100
AcDbTrace
 10
3.39
 20
-17.53
 30
0.0
 11
3.24
 21
-17.46
 31
0.0
 12
3.24
 22
-17.6
 32
0.0
 13
3.24
 23
-17.6
 33
0.0
  0
TEXT
  5
EC
330
17
100
AcDbEntity
  8
S-TXT
100
AcDbText
 10
1.9000000000000001
 20
-17.35
 30
0.0
 40
0.05500000000000001
  1
SUBE
  7
ARIAL
 72
1
 11
1.9000000000000001
 21
-17.35
 31
0.0
100
AcDbText
 73
2
  0
TEXT
  5
ED
330
17
100
AcDbEntity
  8
S-TXT
100
AcDbText
 10
4.140000000000001
 20
-18.23
 30
0.0
 40
0.05500000000000001
  1
DESCANSO +1.59
 50
90.0
  7
ARIAL
 72
1
 11
4.140000000000001
 21
-18.23
 31
0.0
100
AcDbText
 73
2
  0
TEXT
  5
EE
330
17
100
AcDbEntity
  8
S-TXT
100
AcDbText
 10
0.75
 20
-18.4
 30
0.0
 40
0.06
  1
VESTÍBULO
 50
90.0
  7
ARIAL
 72
1
 11
0.75
 21
-18.4
 31
0.0
100
AcDbText
 73
2
  0
TEXT
  5
EF
330
17
100
AcDbEntity
  8
S-TXT
100
AcDbText
 10
0.75
 20
-16.53
 30
0.0
 40
0.05500000000000001
  1
P-01
  7
ARIAL
 72
1
 11
0.75
 21
-16.53
 31
0.0
100
AcDbText
 73
2
  0
TEXT
  5
F0
330
17
100
AcDbEntity
  8
S-TXT
100
AcDbText
 10
2.45
 20
-17.860000000000003
 30
0.0
 40
0.045000000000000005
  1
TRAMO 1: 9 CH
  7
ARIAL
 72
1
 11
2.45
 21
-17.860000000000003
 31
0.0
100
AcDbText
 73
2
  0
TEXT
  5
F1
330
17
100
AcDbEntity
  8
S-TXT
100
AcDbText
 10
2.45
 20
-18.599999999999998
 30
0.0
 40
0.045000000000000005
  1
TRAMO 2: 8 CH
  7
ARIAL
 72
1
 11
2.45
 21
-18.599999999999998
 31
0.0
100
AcDbText
 73
2
  0
TEXT
  5
F2
330
17
100
AcDbEntity
  8
S-TXT
100
AcDbText
 10
2.45
 20
-18.23
 30
0.0
 40
0.04000000000000001
  1
OJO 0.30 - BARANDA
  7
ARIAL
 72
1
 11
2.45
 21
-18.23
 31
0.0
100
AcDbText
 73
2
  0
DIMENSION
  5
F3
330
17
100
AcDbEntity
  8
S-COTA
100
AcDbDimension
280
0
  2
*D1
  3
COTA-25
 10
1.35
 20
-16.43
 30
0.0
 11
1.4900000000000002
 21
-16.3825
 31
0.0
 70
32
 71
5
  1
<>
100
AcDbAlignedDimension
 13
1.35
 23
-16.43
 33
0.0
 14
1.6300000000000001
 24
-16.43
 34
0.0
 50
0.0
100
AcDbRotatedDimension
  0
DIMENSION
  5
106
330
17
100
AcDbEntity
  8
S-COTA
100
AcDbDimension
280
0
  2
*D2
  3
COTA-25
 10
1.6300000000000001
 20
-16.43
 30
0.0
 11
1.77
 21
-16.3825
 31
0.0
 70
32
 71
5
  1
<>
100
AcDbAlignedDimension
 13
1.6300000000000001
 23
-16.43
 33
0.0
 14
1.9100000000000001
 24
-16.43
 34
0.0
 50
0.0
100
AcDbRotatedDimension
  0
DIMENSION
  5
115
330
17
100
AcDbEntity
  8
S-COTA
100
AcDbDimension
280
0
  2
*D3
  3
COTA-25
 10
1.9100000000000001
 20
-16.43
 30
0.0
 11
2.0500000000000003
 21
-16.3825
 31
0.0
 70
32
 71
5
  1
<>
100
AcDbAlignedDimension
 13
1.9100000000000001
 23
-16.43
 33
0.0
 14
2.1900000000000004
 24
-16.43
 34
0.0
 50
0.0
100
AcDbRotatedDimension
  0
DIMENSION
  5
124
330
17
100
AcDbEntity
  8
S-COTA
100
AcDbDimension
280
0
  2
*D4
  3
COTA-25
 10
2.1900000000000004
 20
-16.43
 30
0.0
 11
2.33
 21
-16.3825
 31
0.0
 70
32
 71
5
  1
<>
100
AcDbAlignedDimension
 13
2.1900000000000004
 23
-16.43
 33
0.0
 14
2.47
 24
-16.43
 34
0.0
 50
0.0
100
AcDbRotatedDimension
  0
DIMENSION
  5
133
330
17
100
AcDbEntity
  8
S-COTA
100
AcDbDimension
280
0
  2
*D5
  3
COTA-25
 10
2.47
 20
-16.43
 30
0.0
 11
2.6100000000000003
 21
-16.3825
 31
0.0
 70
32
 71
5
  1
<>
100
AcDbAlignedDimension
 13
2.47
 23
-16.43
 33
0.0
 14
2.75
 24
-16.43
 34
0.0
 50
0.0
100
AcDbRotatedDimension
  0
DIMENSION
  5
142
330
17
100
AcDbEntity
  8
S-COTA
100
AcDbDimension
280
0
  2
*D6
  3
COTA-25
 10
2.75
 20
-16.43
 30
0.0
 11
2.89
 21
-16.3825
 31
0.0
 70
32
 71
5
  1
<>
100
AcDbAlignedDimension
 13
2.75
 23
-16.43
 33
0.0
 14
3.0300000000000002
 24
-16.43
 34
0.0
 50
0.0
100
AcDbRotatedDimension
  0
DIMENSION
  5
151
330
17
100
AcDbEntity
  8
S-COTA
100
AcDbDimension
280
0
  2
*D7
  3
COTA-25
 10
3.0300000000000002
 20
-16.43
 30
0.0
 11
3.1700000000000004
 21
-16.3825
 31
0.0
 70
32
 71
5
  1
<>
100
AcDbAlignedDimension
 13
3.0300000000000002
 23
-16.43
 33
0.0
 14
3.3100000000000005
 24
-16.43
 34
0.0
 50
0.0
100
AcDbRotatedDimension
  0
DIMENSION
  5
160
330
17
100
AcDbEntity
  8
S-COTA
100
AcDbDimension
280
0
  2
*D8
  3
COTA-25
 10
3.3100000000000005
 20
-16.43
 30
0.0
 11
3.45
 21
-16.3825
 31
0.0
 70
32
 71
5
  1
<>
100
AcDbAlignedDimension
 13
3.3100000000000005
 23
-16.43
 33
0.0
 14
3.5900000000000003
 24
-16.43
 34
0.0
 50
0.0
100
AcDbRotatedDimension
  0
DIMENSION
  5
16F
330
17
100
AcDbEntity
  8
S-COTA
100
AcDbDimension
280
0
  2
*D9
  3
COTA-25
 10
3.5900000000000003
 20
-16.43
 30
0.0
 11
4.140000000000001
 21
-16.3825
 31
0.0
 70
32
 71
5
  1
<>
100
AcDbAlignedDimension
 13
3.5900000000000003
 23
-16.43
 33
0.0
 14
4.69
 24
-16.43
 34
0.0
 50
0.0
100
AcDbRotatedDimension
  0
DIMENSION
  5
17E
330
17
100
AcDbEntity
  8
S-COTA
100
AcDbDimension
280
0
  2
*D10
  3
COTA-25
 10
1.35
 20
-16.03
 30
0.0
 11
3.0200000000000005
 21
-15.982500000000002
 31
0.0
 70
32
 71
5
  1
<>
100
AcDbAlignedDimension
 13
1.35
 23
-16.03
 33
0.0
 14
4.69
 24
-16.03
 34
0.0
 50
0.0
100
AcDbRotatedDimension
  0
DIMENSION
  5
18D
330
17
100
AcDbEntity
  8
S-COTA
100
AcDbDimension
280
0
  2
*D11
  3
COTA-25
 10
0.15
 20
-19.98
 30
0.0
 11
0.7500000000000001
 21
-19.9325
 31
0.0
 70
32
 71
5
  1
<>
100
AcDbAlignedDimension
 13
0.15
 23
-19.98
 33
0.0
 14
1.35
 24
-19.98
 34
0.0
 50
0.0
100
AcDbRotatedDimension
  0
DIMENSION
  5
19C
330
17
100
AcDbEntity
  8
S-COTA
100
AcDbDimension
280
0
  2
*D12
  3
COTA-25
 10
5.26
 20
-16.98
 30
0.0
 11
5.3075
 21
-17.53
 31
0.0
 70
32
 71
5
  1
<>
100
AcDbAlignedDimension
 13
5.26
 23
-16.98
 33
0.0
 14
5.26
 24
-18.080000000000002
 34
0.0
 50
90.0
100
AcDbRotatedDimension
  0
DIMENSION
  5
1AB
330
17
100
AcDbEntity
  8
S-COTA
100
AcDbDimension
280
0
  2
*D13
  3
COTA-25
 10
5.26
 20
-18.080000000000002
 30
0.0
 11
5.3075
 21
-18.23
 31
0.0
 70
32
 71
5
  1
<>
100
AcDbAlignedDimension
 13
5.26
 23
-18.080000000000002
 33
0.0
 14
5.26
 24
-18.38
 34
0.0
 50
90.0
100
AcDbRotatedDimension
  0
DIMENSION
  5
1BA
330
17
100
AcDbEntity
  8
S-COTA
100
AcDbDimension
280
0
  2
*D14
  3
COTA-25
 10
5.26
 20
-18.38
 30
0.0
 11
5.3075
 21
-18.93
 31
0.0
 70
32
 71
5
  1
<>
100
AcDbAlignedDimension
 13
5.26
 23
-18.38
 33
0.0
 14
5.26
 24
-19.48
 34
0.0
 50
90.0
100
AcDbRotatedDimension
  0
DIMENSION
  5
1C9
330
17
100
AcDbEntity
  8
S-COTA
100
AcDbDimension
280
0
  2
*D15
  3
COTA-25
 10
5.659999999999999
 20
-16.98
 30
0.0
 11
5.7075
 21
-18.23
 31
0.0
 70
32
 71
5
  1
<>
100
AcDbAlignedDimension
 13
5.659999999999999
 23
-16.98
 33
0.0
 14
5.659999999999999
 24
-19.48
 34
0.0
 50
90.0
100
AcDbRotatedDimension
  0
LINE
  5
1D8
330
17
100
AcDbEntity
  8
S-CORTE
100
AcDbLine
 10
9.7
 20
0.0
 30
0.0
 11
15.3
 21
0.0
 31
0.0
  0
HATCH
  5
1D9
330
17
100
AcDbEntity
  8
S-CORTE
 62
8
100
AcDbHatch
 10
0.0
 20
0.0
 30
0.0
210
0.0
220
0.0
230
1.0
  2
SOLID
 70
1
 71
0
 91
1
 92
3
 72
0
 73
1
 93
4
 10
10.0
 20
-0.1
 10
14.99
 20
-0.1
 10
14.99
 20
0.0
 10
10.0
 20
0.0
 97
0
 75
0
 76
1
 98
0
  0
LWPOLYLINE
  5
1DA
330
17
100
AcDbEntity
  8
S-CORTE
100
AcDbPolyline
 90
4
 70
1
 10
10.0
 20
-0.1
 10
14.99
 20
-0.1
 10
14.99
 20
0.0
 10
10.0
 20
0.0
  0
HATCH
  5
1DB
330
17
100
AcDbEntity
  8
S-TRAMA
 62
7
100
AcDbHatch
 10
0.0
 20
0.0
 30
0.0
210
0.0
220
0.0
230
1.0
  2
ANSI31
 70
0
 71
0
 91
1
 92
3
 72
0
 73
1
 93
4
 10
10.0
 20
-0.1
 10
10.15
 20
-0.1
 10
10.15
 20
4.2
 10
10.0
 20
4.2
 97
0
 75
1
 76
1
 52
0.0
 41
0.0048
 77
0
 78
1
 53
45.0
 43
0.0
 44
0.0
 45
-0.0107763073
 46
0.0107763073
 79
0
 98
0
  0
LWPOLYLINE
  5
1DC
330
17
100
AcDbEntity
  8
S-CORTE
100
AcDbPolyline
 90
4
 70
1
 10
10.0
 20
-0.1
 10
10.15
 20
-0.1
 10
10.15
 20
4.2
 10
10.0
 20
4.2
  0
LWPOLYLINE
  5
1DD
330
17
100
AcDbEntity
  8
S-CORTE
100
AcDbPolyline
 90
4
 70
1
 10
14.690000000000001
 20
0.0
 10
14.809999999999999
 20
0.0
 10
14.809999999999999
 20
2.9
 10
14.690000000000001
 20
2.9
  0
LWPOLYLINE
  5
1DE
330
17
100
AcDbEntity
  8
S-CORTE
100
AcDbPolyline
 90
4
 70
1
 10
14.690000000000001
 20
3.0
 10
14.809999999999999
 20
3.0
 10
14.809999999999999
 20
4.2
 10
14.690000000000001
 20
4.2
  0
HATCH
  5
1DF
330
17
100
AcDbEntity
  8
S-CORTE
 62
8
100
AcDbHatch
 10
0.0
 20
0.0
 30
0.0
210
0.0
220
0.0
230
1.0
  2
SOLID
 70
1
 71
0
 91
1
 92
3
 72
0
 73
1
 93
4
 10
10.15
 20
2.9
 10
11.35
 20
2.9
 10
11.35
 20
3.0
 10
10.15
 20
3.0
 97
0
 75
0
 76
1
 98
0
  0
LWPOLYLINE
  5
1E0
330
17
100
AcDbEntity
  8
S-CORTE
100
AcDbPolyline
 90
4
 70
1
 10
10.15
 20
2.9
 10
11.35
 20
2.9
 10
11.35
 20
3.0
 10
10.15
 20
3.0
  0
HATCH
  5
1E1
330
17
100
AcDbEntity
  8
S-CORTE
 62
7
100
AcDbHatch
 10
0.0
 20
0.0
 30
0.0
210
0.0
220
0.0
230
1.0
  2
SOLID
 70
1
 71
0
 91
1
 92
3
 72
0
 73
1
 93
4
 10
11.2
 20
2.6999999999999997
 10
11.35
 20
2.6999999999999997
 10
11.35
 20
2.9
 10
11.2
 20
2.9
 97
0
 75
0
 76
1
 98
0
  0
LWPOLYLINE
  5
1E2
330
17
100
AcDbEntity
  8
S-CORTE
100
AcDbPolyline
 90
4
 70
1
 10
11.2
 20
2.6999999999999997
 10
11.35
 20
2.6999999999999997
 10
11.35
 20
2.9
 10
11.2
 20
2.9
  0
LWPOLYLINE
  5
1E3
330
17
100
AcDbEntity
  8
S-VISTA
100
AcDbPolyline
 90
4
 70
1
 10
10.15
 20
0.0
 10
14.690000000000001
 20
0.0
 10
14.690000000000001
 20
2.6999999999999997
 10
10.15
 20
2.6999999999999997
  0
HATCH
  5
1E4
330
17
100
AcDbEntity
  8
S-CORTE
 62
8
100
AcDbHatch
 10
0.0
 20
0.0
 30
0.0
210
0.0
220
0.0
230
1.0
  2
SOLID
 70
1
 71
0
 91
1
 92
3
 72
0
 73
1
 93
21
 10
11.35
 20
0.0
 10
11.35
 20
0.17647058823529413
 10
11.63
 20
0.17647058823529413
 10
11.63
 20
0.35294117647058826
 10
11.91
 20
0.35294117647058826
 10
11.91
 20
0.5294117647058824
 10
12.190000000000001
 20
0.5294117647058824
 10
12.190000000000001
 20
0.7058823529411765
 10
12.47
 20
0.7058823529411765
 10
12.47
 20
0.8823529411764707
 10
12.75
 20
0.8823529411764707
 10
12.75
 20
1.0588235294117647
 10
13.030000000000001
 20
1.0588235294117647
 10
13.030000000000001
 20
1.2352941176470589
 10
13.31
 20
1.2352941176470589
 10
13.31
 20
1.411764705882353
 10
13.59
 20
1.411764705882353
 10
13.59
 20
1.5882352941176472
 10
13.59
 20
1.5882352941176472
 10
13.59
 20
1.4382352941176473
 10
11.39
 20
0.0
 97
0
 75
0
 76
1
 98
0
  0
LWPOLYLINE
  5
1E5
330
17
100
AcDbEntity
  8
S-CORTE
100
AcDbPolyline
 90
21
 70
1
 10
11.35
 20
0.0
 10
11.35
 20
0.17647058823529413
 10
11.63
 20
0.17647058823529413
 10
11.63
 20
0.35294117647058826
 10
11.91
 20
0.35294117647058826
 10
11.91
 20
0.5294117647058824
 10
12.190000000000001
 20
0.5294117647058824
 10
12.190000000000001
 20
0.7058823529411765
 10
12.47
 20
0.7058823529411765
 10
12.47
 20
0.8823529411764707
 10
12.75
 20
0.8823529411764707
 10
12.75
 20
1.0588235294117647
 10
13.030000000000001
 20
1.0588235294117647
 10
13.030000000000001
 20
1.2352941176470589
 10
13.31
 20
1.2352941176470589
 10
13.31
 20
1.411764705882353
 10
13.59
 20
1.411764705882353
 10
13.59
 20
1.5882352941176472
 10
13.59
 20
1.5882352941176472
 10
13.59
 20
1.4382352941176473
 10
11.39
 20
0.0
  0
HATCH
  5
1E6
330
17
100
AcDbEntity
  8
S-CORTE
 62
8
100
AcDbHatch
 10
0.0
 20
0.0
 30
0.0
210
0.0
220
0.0
230
1.0
  2
SOLID
 70
1
 71
0
 91
1
 92
3
 72
0
 73
1
 93
4
 10
13.59
 20
1.4382352941176473
 10
14.690000000000001
 20
1.4382352941176473
 10
14.690000000000001
 20
1.5882352941176472
 10
13.59
 20
1.5882352941176472
 97
0
 75
0
 76
1
 98
0
  0
LWPOLYLINE
  5
1E7
330
17
100
AcDbEntity
  8
S-CORTE
100
AcDbPolyline
 90
4
 70
1
 10
13.59
 20
1.4382352941176473
 10
14.690000000000001
 20
1.4382352941176473
 10
14.690000000000001
 20
1.5882352941176472
 10
13.59
 20
1.5882352941176472
  0
LWPOLYLINE
  5
1E8
330
17
100
AcDbEntity
  8
S-OCULTO
 48
0.0075
100
AcDbPolyline
 90
17
 70
0
 10
13.59
 20
1.5882352941176472
 10
13.59
 20
1.7647058823529413
 10
13.31
 20
1.7647058823529413
 10
13.31
 20
1.9411764705882355
 10
13.030000000000001
 20
1.9411764705882355
 10
13.030000000000001
 20
2.1176470588235294
 10
12.75
 20
2.1176470588235294
 10
12.75
 20
2.294117647058824
 10
12.469999999999999
 20
2.294117647058824
 10
12.469999999999999
 20
2.4705882352941178
 10
12.19
 20
2.4705882352941178
 10
12.19
 20
2.647058823529412
 10
11.91
 20
2.647058823529412
 10
11.91
 20
2.823529411764706
 10
11.629999999999999
 20
2.823529411764706
 10
11.629999999999999
 20
3.0
 10
11.35
 20
3.0
  0
LWPOLYLINE
  5
1E9
330
17
100
AcDbEntity
  8
S-BARANDA
100
AcDbPolyline
 90
4
 70
1
 10
11.425
 20
0.2394957983193278
 10
11.475
 20
0.2394957983193278
 10
11.475
 20
1.3094957983193278
 10
11.425
 20
1.3094957983193278
  0
LWPOLYLINE
  5
1EA
330
17
100
AcDbEntity
  8
S-BARANDA
100
AcDbPolyline
 90
4
 70
1
 10
12.375
 20
0.8382352941176473
 10
12.425
 20
0.8382352941176473
 10
12.425
 20
1.9082352941176475
 10
12.375
 20
1.9082352941176475
  0
LWPOLYLINE
  5
1EB
330
17
100
AcDbEntity
  8
S-BARANDA
100
AcDbPolyline
 90
4
 70
1
 10
13.325
 20
1.4369747899159664
 10
13.375
 20
1.4369747899159664
 10
13.375
 20
2.5069747899159665
 10
13.325
 20
2.5069747899159665
  0
LWPOLYLINE
  5
1EC
330
17
100
AcDbEntity
  8
S-BARANDA
100
AcDbPolyline
 90
4
 70
1
 10
13.615
 20
1.5882352941176472
 10
13.665
 20
1.5882352941176472
 10
13.665
 20
2.658235294117647
 10
13.615
 20
2.658235294117647
  0
LWPOLYLINE
  5
1ED
330
17
100
AcDbEntity
  8
S-BARANDA
100
AcDbPolyline
 90
3
 70
0
 10
11.45
 20
0.3394957983193278
 10
13.59
 20
1.6882352941176473
 10
14.64
 20
1.6882352941176473
  0
LWPOLYLINE
  5
1EE
330
17
100
AcDbEntity
  8
S-BARANDA
100
AcDbPolyline
 90
3
 70
0
 10
11.45
 20
0.43949579831932784
 10
13.59
 20
1.7882352941176471
 10
14.64
 20
1.7882352941176471
  0
LWPOLYLINE
  5
1EF
330
17
100
AcDbEntity
  8
S-BARANDA
100
AcDbPolyline
 90
3
 70
0
 10
11.45
 20
0.5394957983193278
 10
13.59
 20
1.8882352941176472
 10
14.64
 20
1.8882352941176472
  0
LWPOLYLINE
  5
1F0
330
17
100
AcDbEntity
  8
S-BARANDA
100
AcDbPolyline
 90
3
 70
0
 10
11.45
 20
0.6394957983193278
 10
13.59
 20
1.988235294117647
 10
14.64
 20
1.988235294117647
  0
LWPOLYLINE
  5
1F1
330
17
100
AcDbEntity
  8
S-BARANDA
100
AcDbPolyline
 90
3
 70
0
 10
11.45
 20
0.7394957983193278
 10
13.59
 20
2.088235294117647
 10
14.64
 20
2.088235294117647
  0
LWPOLYLINE
  5
1F2
330
17
100
AcDbEntity
  8
S-BARANDA
100
AcDbPolyline
 90
3
 70
0
 10
11.45
 20
0.8394957983193277
 10
13.59
 20
2.1882352941176473
 10
14.64
 20
2.1882352941176473
  0
LWPOLYLINE
  5
1F3
330
17
100
AcDbEntity
  8
S-BARANDA
100
AcDbPolyline
 90
3
 70
0
 10
11.45
 20
0.9394957983193277
 10
13.59
 20
2.288235294117647
 10
14.64
 20
2.288235294117647
  0
LWPOLYLINE
  5
1F4
330
17
100
AcDbEntity
  8
S-BARANDA
100
AcDbPolyline
 90
3
 70
0
 10
11.45
 20
1.0394957983193278
 10
13.59
 20
2.3882352941176475
 10
14.64
 20
2.3882352941176475
  0
LWPOLYLINE
  5
1F5
330
17
100
AcDbEntity
  8
S-BARANDA
100
AcDbPolyline
 90
3
 70
0
 10
11.45
 20
1.139495798319328
 10
13.59
 20
2.488235294117647
 10
14.64
 20
2.488235294117647
  0
LWPOLYLINE
  5
1F6
330
17
100
AcDbEntity
  8
S-CORTE
100
AcDbPolyline
 90
3
 70
0
 10
11.45
 20
1.3094957983193278
 10
13.59
 20
2.658235294117647
 10
14.64
 20
2.658235294117647
  0
LWPOLYLINE
  5
1F7
330
17
100
AcDbEntity
  8
S-BARANDA
100
AcDbPolyline
 90
4
 70
0
 10
11.25
 20
0.926470588235294
 10
11.35
 20
1.076470588235294
 10
13.59
 20
2.488235294117647
 10
14.64
 20
2.488235294117647
  0
LWPOLYLINE
  5
1F8
330
17
100
AcDbEntity
  8
S-BARANDA
100
AcDbPolyline
 90
4
 70
1
 10
11.325
 20
3.0
 10
11.375
 20
3.0
 10
11.375
 20
4.07
 10
11.325
 20
4.07
  0
LINE
  5
1F9
330
17
100
AcDbEntity
  8
S-VISTA
100
AcDbLine
 10
14.91
 20
0.0
 30
0.0
 11
15.71
 21
0.0
 31
0.0
  0
TEXT
  5
1FA
330
17
100
AcDbEntity
  8
S-TXT
100
AcDbText
 10
14.96
 20
0.1
 30
0.0
 40
0.05
  1
NPT ±0.00
  7
ARIAL
 11
14.96
 21
0.1
 31
0.0
100
AcDbText
 73
1
  0
LINE
  5
1FB
330
17
100
AcDbEntity
  8
S-VISTA
100
AcDbLine
 10
14.91
 20
1.5882352941176472
 30
0.0
 11
15.71
 21
1.5882352941176472
 31
0.0
  0
TEXT
  5
1FC
330
17
100
AcDbEntity
  8
S-TXT
100
AcDbText
 10
14.96
 20
1.6882352941176473
 30
0.0
 40
0.05
  1
DESCANSO +1.59
  7
ARIAL
 11
14.96
 21
1.6882352941176473
 31
0.0
100
AcDbText
 73
1
  0
LINE
  5
1FD
330
17
100
AcDbEntity
  8
S-VISTA
100
AcDbLine
 10
14.91
 20
3.0
 30
0.0
 11
15.71
 21
3.0
 31
0.0
  0
TEXT
  5
1FE
330
17
100
AcDbEntity
  8
S-TXT
100
AcDbText
 10
14.96
 20
3.1
 30
0.0
 40
0.05
  1
NPT +3.00
  7
ARIAL
 11
14.96
 21
3.1
 31
0.0
100
AcDbText
 73
1
  0
DIMENSION
  5
1FF
330
17
100
AcDbEntity
  8
S-COTA
100
AcDbDimension
280
0
  2
*D16
  3
COTA-25
 10
9.7
 20
0.0
 30
0.0
 11
9.6525
 21
0.7941176470588236
 31
0.0
 70
32
 71
5
  1
<>
100
AcDbAlignedDimension
 13
9.7
 23
0.0
 33
0.0
 14
9.7
 24
1.5882352941176472
 34
0.0
 50
90.0
100
AcDbRotatedDimension
  0
DIMENSION
  5
20E
330
17
100
AcDbEntity
  8
S-COTA
100
AcDbDimension
280
0
  2
*D17
  3
COTA-25
 10
9.7
 20
1.5882352941176472
 30
0.0
 11
9.6525
 21
2.2941176470588234
 31
0.0
 70
32
 71
5
  1
<>
100
AcDbAlignedDimension
 13
9.7
 23
1.5882352941176472
 33
0.0
 14
9.7
 24
3.0
 34
0.0
 50
90.0
100
AcDbRotatedDimension
  0
DIMENSION
  5
21D
330
17
100
AcDbEntity
  8
S-COTA
100
AcDbDimension
280
0
  2
*D18
  3
COTA-25
 10
9.38
 20
0.0
 30
0.0
 11
9.332500000000001
 21
1.5
 31
0.0
 70
32
 71
5
  1
<>
100
AcDbAlignedDimension
 13
9.38
 23
0.0
 33
0.0
 14
9.38
 24
3.0
 34
0.0
 50
90.0
100
AcDbRotatedDimension
  0
DIMENSION
  5
22C
330
17
100
AcDbEntity
  8
S-COTA
100
AcDbDimension
280
0
  2
*D19
  3
COTA-25
 10
11.35
 20
-0.3
 30
0.0
 11
11.49
 21
-0.2525
 31
0.0
 70
32
 71
5
  1
<>
100
AcDbAlignedDimension
 13
11.35
 23
-0.3
 33
0.0
 14
11.63
 24
-0.3
 34
0.0
 50
0.0
100
AcDbRotatedDimension
  0
DIMENSION
  5
23B
330
17
100
AcDbEntity
  8
S-COTA
100
AcDbDimension
280
0
  2
*D20
  3
COTA-25
 10
11.63
 20
-0.3
 30
0.0
 11
11.77
 21
-0.2525
 31
0.0
 70
32
 71
5
  1
<>
100
AcDbAlignedDimension
 13
11.63
 23
-0.3
 33
0.0
 14
11.91
 24
-0.3
 34
0.0
 50
0.0
100
AcDbRotatedDimension
  0
DIMENSION
  5
24A
330
17
100
AcDbEntity
  8
S-COTA
100
AcDbDimension
280
0
  2
*D21
  3
COTA-25
 10
11.35
 20
-0.65
 30
0.0
 11
12.469999999999999
 21
-0.6025
 31
0.0
 70
32
 71
5
  1
<>
100
AcDbAlignedDimension
 13
11.35
 23
-0.65
 33
0.0
 14
13.59
 24
-0.65
 34
0.0
 50
0.0
100
AcDbRotatedDimension
  0
DIMENSION
  5
259
330
17
100
AcDbEntity
  8
S-COTA
100
AcDbDimension
280
0
  2
*D22
  3
COTA-25
 10
13.59
 20
-0.65
 30
0.0
 11
14.14
 21
-0.6025
 31
0.0
 70
32
 71
5
  1
<>
100
AcDbAlignedDimension
 13
13.59
 23
-0.65
 33
0.0
 14
14.690000000000001
 24
-0.65
 34
0.0
 50
0.0
100
AcDbRotatedDimension
  0
DIMENSION
  5
268
330
17
100
AcDbEntity
  8
S-COTA
100
AcDbDimension
280
0
  2
*D23
  3
COTA-25
 10
11.1
 20
0.0
 30
0.0
 11
11.0275
 21
0.08823529411764706
 31
0.0
 70
32
 71
5
  1
<>
100
AcDbAlignedDimension
 13
11.1
 23
0.0
 33
0.0
 14
11.1
 24
0.17647058823529413
 34
0.0
 50
90.0
100
AcDbRotatedDimension
  0
HATCH
  5
277
330
17
100
AcDbEntity
  8
S-TRAMA
 62
7
100
AcDbHatch
 10
0.0
 20
0.0
 30
0.0
210
0.0
220
0.0
230
1.0
  2
AR-CONC
 70
0
 71
0
 91
1
 92
3
 72
0
 73
1
 93
12
 10
20.0
 20
0.0
 10
20.0
 20
0.15
 10
20.3
 20
0.15
 10
20.3
 20
0.3264705882352941
 10
20.58
 20
0.3264705882352941
 10
20.58
 20
0.5029411764705882
 10
20.86
 20
0.5029411764705882
 10
20.86
 20
0.6794117647058824
 10
21.240000000000002
 20
0.6794117647058824
 10
21.240000000000002
 20
0.5594117647058824
 10
20.3
 20
-0.020000000000000004
 10
20.3
 20
0.0
 97
0
 75
1
 76
1
 52
0.0
 41
0.004
 77
0
 78
13
 53
50.0
 43
0.0
 44
0.0
 45
0.728738676
 46
-0.0637563422
 79
2
 49
0.0762
 49
-0.8382
 53
355.0
 43
0.0
 44
0.0
 45
-0.1409736857
 46
0.764227381
 79
2
 49
0.06096
 49
-0.6705623367
 53
100.4514447
 43
0.060728028
 44
-0.005313014
 45
0.5877649884
 46
0.7004710076
 79
2
 49
0.0647600352
 49
-0.7123609784
 53
46.1842
 43
0.0
 44
0.2032
 45
1.0843161636
 46
-0.1681693117
 79
2
 49
0.1143
 49
-1.2573
 53
96.63555761
 43
0.0903596
 44
0.189186
 45
0.9496165362
 46
0.9897044984
 79
2
 49
0.0971400926
 49
-1.0685424326
 53
351.18415117
 43
0.0
 44
0.2032
 45
0.9496165363
 46
0.9897044983
 79
2
 49
0.0914398683
 49
-1.0058389277
 53
21.0
 43
0.1016
 44
0.1524
 45
0.6064575651
 46
-0.4090607927
 79
2
 49
0.0762
 49
-0.8382
 53
326.0
 43
0.1016
 44
0.1524
 45
0.2472081134
 46
0.7367518645
 79
2
 49
0.06096
 49
-0.67056
 53
71.451445
 43
0.1521381304
 44
0.1183116004
 45
0.8536656771
 46
0.3276910755
 79
2
 49
0.0647600352
 49
-0.7123597504
 53
37.5
 43
0.0
 44
0.0
 45
0.012354413
 46
0.3382201555
 79
6
 49
0.0
 49
-0.662432
 49
0.0
 49
-0.68072
 49
0.0
 49
-0.6731
 53
7.5
 43
0.0
 44
0.0
 45
0.26727865
 46
0.4007222993
 79
6
 49
0.0
 49
-0.388112
 49
0.0
 49
-0.647192
 49
0.0
 49
-0.25654
 53
-32.5
 43
-0.226568
 44
0.0
 45
0.5423623807
 46
-0.022914976
 79
6
 49
0.0
 49
-0.254
 49
0.0
 49
-0.79248
 49
0.0
 49
-1.05156
 53
-42.5
 43
-0.328168
 44
0.0
 45
0.5925167255
 46
0.1017059641
 79
6
 49
0.0
 49
-0.3302
 49
0.0
 49
-0.526288
 49
0.0
 49
-0.74676
 98
0
  0
LWPOLYLINE
  5
278
330
17
100
AcDbEntity
  8
S-CORTE
100
AcDbPolyline
 90
12
 70
1
 10
20.0
 20
0.0
 10
20.0
 20
0.15
 10
20.3
 20
0.15
 10
20.3
 20
0.3264705882352941
 10
20.58
 20
0.3264705882352941
 10
20.58
 20
0.5029411764705882
 10
20.86
 20
0.5029411764705882
 10
20.86
 20
0.6794117647058824
 10
21.240000000000002
 20
0.6794117647058824
 10
21.240000000000002
 20
0.5594117647058824
 10
20.3
 20
-0.020000000000000004
 10
20.3
 20
0.0
  0
LINE
  5
279
330
17
100
AcDbEntity
  8
S-CORTE
100
AcDbLine
 10
20.05
 20
0.05
 30
0.0
 11
21.14
 21
0.5994117647058824
 31
0.0
  0
LINE
  5
27A
330
17
100
AcDbEntity
  8
S-VISTA
100
AcDbLine
 10
20.285
 20
0.34147058823529414
 30
0.0
 11
20.58
 21
0.34147058823529414
 31
0.0
  0
LINE
  5
27B
330
17
100
AcDbEntity
  8
S-VISTA
100
AcDbLine
 10
20.565
 20
0.5179411764705882
 30
0.0
 11
20.86
 21
0.5179411764705882
 31
0.0
  0
LINE
  5
27C
330
17
100
AcDbEntity
  8
S-VISTA
100
AcDbLine
 10
20.845
 20
0.6944117647058824
 30
0.0
 11
21.14
 21
0.6944117647058824
 31
0.0
  0
DIMENSION
  5
27D
330
17
100
AcDbEntity
  8
S-COTA
100
AcDbDimension
280
0
  2
*D24
  3
COTA-10
 10
20.3
 20
0.9294117647058824
 30
0.0
 11
20.439999999999998
 21
0.9484117647058824
 31
0.0
 70
32
 71
5
  1
<>
100
AcDbAlignedDimension
 13
20.3
 23
0.9294117647058824
 33
0.0
 14
20.58
 24
0.9294117647058824
 34
0.0
 50
0.0
100
AcDbRotatedDimension
  0
DIMENSION
  5
28C
330
17
100
AcDbEntity
  8
S-COTA
100
AcDbDimension
280
0
  2
*D25
  3
COTA-10
 10
21.39
 20
0.5029411764705882
 30
0.0
 11
21.371000000000002
 21
0.5911764705882353
 31
0.0
 70
32
 71
5
  1
<>
100
AcDbAlignedDimension
 13
21.39
 23
0.5029411764705882
 33
0.0
 14
21.39
 24
0.6794117647058824
 34
0.0
 50
90.0
100
AcDbRotatedDimension
  0
CIRCLE
  5
29B
330
17
100
AcDbEntity
  8
S-CORTE
100
AcDbCircle
 10
23.0
 20
0.25
 30
0.0
 40
0.05
  0
CIRCLE
  5
29C
330
17
100
AcDbEntity
  8
S-VISTA
100
AcDbCircle
 10
23.0
 20
0.25
 30
0.0
 40
0.045
  0
HATCH
  5
29D
330
17
100
AcDbEntity
  8
S-TRAMA
 62
7
100
AcDbHatch
 10
0.0
 20
0.0
 30
0.0
210
0.0
220
0.0
230
1.0
  2
ANSI31
 70
0
 71
0
 91
1
 92
1
 93
1
 72
2
 10
23.0
 20
0.25
 40
0.02
 50
0
 51
360
 73
1
 97
0
 75
1
 76
1
 52
0.0
 41
0.002
 77
0
 78
1
 53
45.0
 43
0.0
 44
0.0
 45
-0.0044901281
 46
0.0044901281
 79
0
 98
0
  0
CIRCLE
  5
29E
330
17
100
AcDbEntity
  8
S-CORTE
100
AcDbCircle
 10
23.0
 20
0.25
 30
0.0
 40
0.02
  0
CIRCLE
  5
29F
330
17
100
AcDbEntity
  8
S-VISTA
100
AcDbCircle
 10
23.0
 20
0.28300000000000003
 30
0.0
 40
0.005
  0
CIRCLE
  5
2A0
330
17
100
AcDbEntity
  8
S-VISTA
100
AcDbCircle
 10
22.971421161675114
 20
0.23349999999999999
 30
0.0
 40
0.005
  0
CIRCLE
  5
2A1
330
17
100
AcDbEntity
  8
S-VISTA
100
AcDbCircle
 10
23.028578838324886
 20
0.23349999999999999
 30
0.0
 40
0.005
  0
HATCH
  5
2A2
330
17
100
AcDbEntity
  8
S-TRAMA
 62
7
100
AcDbHatch
 10
0.0
 20
0.0
 30
0.0
210
0.0
220
0.0
230
1.0
  2
AR-CONC
 70
0
 71
0
 91
1
 92
3
 72
0
 73
1
 93
4
 10
25.9
 20
-0.06
 10
27.4
 20
-0.06
 10
27.4
 20
0.0
 10
25.9
 20
0.0
 97
0
 75
1
 76
1
 52
0.0
 41
0.004
 77
0
 78
13
 53
50.0
 43
0.0
 44
0.0
 45
0.728738676
 46
-0.0637563422
 79
2
 49
0.0762
 49
-0.8382
 53
355.0
 43
0.0
 44
0.0
 45
-0.1409736857
 46
0.764227381
 79
2
 49
0.06096
 49
-0.6705623367
 53
100.4514447
 43
0.060728028
 44
-0.005313014
 45
0.5877649884
 46
0.7004710076
 79
2
 49
0.0647600352
 49
-0.7123609784
 53
46.1842
 43
0.0
 44
0.2032
 45
1.0843161636
 46
-0.1681693117
 79
2
 49
0.1143
 49
-1.2573
 53
96.63555761
 43
0.0903596
 44
0.189186
 45
0.9496165362
 46
0.9897044984
 79
2
 49
0.0971400926
 49
-1.0685424326
 53
351.18415117
 43
0.0
 44
0.2032
 45
0.9496165363
 46
0.9897044983
 79
2
 49
0.0914398683
 49
-1.0058389277
 53
21.0
 43
0.1016
 44
0.1524
 45
0.6064575651
 46
-0.4090607927
 79
2
 49
0.0762
 49
-0.8382
 53
326.0
 43
0.1016
 44
0.1524
 45
0.2472081134
 46
0.7367518645
 79
2
 49
0.06096
 49
-0.67056
 53
71.451445
 43
0.1521381304
 44
0.1183116004
 45
0.8536656771
 46
0.3276910755
 79
2
 49
0.0647600352
 49
-0.7123597504
 53
37.5
 43
0.0
 44
0.0
 45
0.012354413
 46
0.3382201555
 79
6
 49
0.0
 49
-0.662432
 49
0.0
 49
-0.68072
 49
0.0
 49
-0.6731
 53
7.5
 43
0.0
 44
0.0
 45
0.26727865
 46
0.4007222993
 79
6
 49
0.0
 49
-0.388112
 49
0.0
 49
-0.647192
 49
0.0
 49
-0.25654
 53
-32.5
 43
-0.226568
 44
0.0
 45
0.5423623807
 46
-0.022914976
 79
6
 49
0.0
 49
-0.254
 49
0.0
 49
-0.79248
 49
0.0
 49
-1.05156
 53
-42.5
 43
-0.328168
 44
0.0
 45
0.5925167255
 46
0.1017059641
 79
6
 49
0.0
 49
-0.3302
 49
0.0
 49
-0.526288
 49
0.0
 49
-0.74676
 98
0
  0
LWPOLYLINE
  5
2A3
330
17
100
AcDbEntity
  8
S-CORTE
100
AcDbPolyline
 90
4
 70
1
 10
25.9
 20
-0.06
 10
27.4
 20
-0.06
 10
27.4
 20
0.0
 10
25.9
 20
0.0
  0
LWPOLYLINE
  5
2A4
330
17
100
AcDbEntity
  8
S-BARANDA
100
AcDbPolyline
 90
4
 70
1
 10
26.075
 20
0.0
 10
26.125
 20
0.0
 10
26.125
 20
1.07
 10
26.075
 20
1.07
  0
LWPOLYLINE
  5
2A5
330
17
100
AcDbEntity
  8
S-BARANDA
100
AcDbPolyline
 90
4
 70
1
 10
27.175
 20
0.0
 10
27.225
 20
0.0
 10
27.225
 20
1.07
 10
27.175
 20
1.07
  0
LINE
  5
2A6
330
17
100
AcDbEntity
  8
S-BARANDA
100
AcDbLine
 10
26.125
 20
0.1
 30
0.0
 11
27.175
 21
0.1
 31
0.0
  0
LINE
  5
2A7
330
17
100
AcDbEntity
  8
S-BARANDA
100
AcDbLine
 10
26.125
 20
0.2
 30
0.0
 11
27.175
 21
0.2
 31
0.0
  0
LINE
  5
2A8
330
17
100
AcDbEntity
  8
S-BARANDA
100
AcDbLine
 10
26.125
 20
0.3
 30
0.0
 11
27.175
 21
0.3
 31
0.0
  0
LINE
  5
2A9
330
17
100
AcDbEntity
  8
S-BARANDA
100
AcDbLine
 10
26.125
 20
0.4
 30
0.0
 11
27.175
 21
0.4
 31
0.0
  0
LINE
  5
2AA
330
17
100
AcDbEntity
  8
S-BARANDA
100
AcDbLine
 10
26.125
 20
0.5
 30
0.0
 11
27.175
 21
0.5
 31
0.0
  0
LINE
  5
2AB
330
17
100
AcDbEntity
  8
S-BARANDA
100
AcDbLine
 10
26.125
 20
0.6
 30
0.0
 11
27.175
 21
0.6
 31
0.0
  0
LINE
  5
2AC
330
17
100
AcDbEntity
  8
S-BARANDA
100
AcDbLine
 10
26.125
 20
0.7
 30
0.0
 11
27.175
 21
0.7
 31
0.0
  0
LINE
  5
2AD
330
17
100
AcDbEntity
  8
S-BARANDA
100
AcDbLine
 10
26.125
 20
0.8
 30
0.0
 11
27.175
 21
0.8
 31
0.0
  0
LINE
  5
2AE
330
17
100
AcDbEntity
  8
S-BARANDA
100
AcDbLine
 10
26.125
 20
0.9
 30
0.0
 11
27.175
 21
0.9
 31
0.0
  0
LWPOLYLINE
  5
2AF
330
17
100
AcDbEntity
  8
S-CORTE
100
AcDbPolyline
 90
4
 70
1
 10
26.075
 20
1.05
 10
27.225
 20
1.05
 10
27.225
 20
1.09
 10
26.075
 20
1.09
  0
LWPOLYLINE
  5
2B0
330
17
100
AcDbEntity
  8
S-BARANDA
100
AcDbPolyline
 90
4
 70
1
 10
25.95
 20
0.88
 10
27.35
 20
0.88
 10
27.35
 20
0.92
 10
25.95
 20
0.92
  0
DIMENSION
  5
2B1
330
17
100
AcDbEntity
  8
S-COTA
100
AcDbDimension
280
0
  2
*D26
  3
COTA-10
 10
25.75
 20
0.0
 30
0.0
 11
25.731
 21
0.535
 31
0.0
 70
32
 71
5
  1
<>
100
AcDbAlignedDimension
 13
25.75
 23
0.0
 33
0.0
 14
25.75
 24
1.07
 34
0.0
 50
90.0
100
AcDbRotatedDimension
  0
DIMENSION
  5
2C0
330
17
100
AcDbEntity
  8
S-COTA
100
AcDbDimension
280
0
  2
*D27
  3
COTA-10
 10
25.88
 20
0.0
 30
0.0
 11
25.861
 21
0.45
 31
0.0
 70
32
 71
5
  1
<>
100
AcDbAlignedDimension
 13
25.88
 23
0.0
 33
0.0
 14
25.88
 24
0.9
 34
0.0
 50
90.0
100
AcDbRotatedDimension
  0
DIMENSION
  5
2CF
330
17
100
AcDbEntity
  8
S-COTA
100
AcDbDimension
280
0
  2
*D28
  3
COTA-10
 10
27.32
 20
0.0
 30
0.0
 11
27.301000000000002
 21
0.05
 31
0.0
 70
32
 71
5
  1
<>
100
AcDbAlignedDimension
 13
27.32
 23
0.0
 33
0.0
 14
27.32
 24
0.1
 34
0.0
 50
90.0
100
AcDbRotatedDimension
  0
VIEWPORT
  5
2E2
330
2DE
100
AcDbEntity
 67
1
  8
VIEWPORTS
100
AcDbViewport
 10
420.5
 20
297.0
 30
0.0
 40
925.1
 41
653.4000000000001
 68
1
 69
1
 12
420.5
 22
297.0
 13
0.0
 23
0.0
 14
10.0
 24
10.0
 15
10.0
 25
10.0
 16
0.0
 26
0.0
 36
1.0
 17
0.0
 27
0.0
 37
0.0
 42
50.0
 43
0.0
 44
0.0
 45
653.4000000000001
 50
0.0
 51
0.0
 72
100
 90
557088
  1

281
0
 71
0
 74
0
110
0.0
120
0.0
130
0.0
111
1.0
121
0.0
131
0.0
112
0.0
122
1.0
132
0.0
 79
0
146
0.0
282
0
  0
LWPOLYLINE
  5
2E3
330
2DE
100
AcDbEntity
 67
1
  8
A-VIEWPORT
100
AcDbPolyline
 90
4
 70
1
 10
0.0
 20
0.0
 10
841.0
 20
0.0
 10
841.0
 20
594.0
 10
0.0
 20
594.0
  0
LWPOLYLINE
  5
2E4
330
2DE
100
AcDbEntity
 67
1
  8
A-MARCO
100
AcDbPolyline
 90
4
 70
1
 10
25.0
 20
10.0
 10
831.0
 20
10.0
 10
831.0
 20
584.0
 10
25.0
 20
584.0
  0
TEXT
  5
2E5
330
2DE
100
AcDbEntity
 67
1
  8
A-TEXTO
100
AcDbText
 10
25.0
 20
4.0
 30
0.0
 40
1.8
  1
FORMATO A1  841 mm x 594 mm
  7
ARIAL
 11
25.0
 21
4.0
 31
0.0
100
AcDbText
  0
VIEWPORT
  5
2E6
330
2DE
100
AcDbEntity
 67
1
  8
A-VIEWPORT
100
AcDbViewport
 10
165.0
 20
490.0
 30
0.0
 40
270.0
 41
175.0
 68
2
 69
3
 12
2.6
 22
-18.1
 13
0.0
 23
0.0
 14
10.0
 24
10.0
 15
10.0
 25
10.0
 16
0.0
 26
0.0
 36
1.0
 17
0.0
 27
0.0
 37
0.0
 42
50.0
 43
0.0
 44
0.0
 45
4.375
 50
0.0
 51
0.0
 72
100
 90
16384
  1

281
0
 71
0
 74
0
110
0.0
120
0.0
130
0.0
111
1.0
121
0.0
131
0.0
112
0.0
122
1.0
132
0.0
 79
0
146
0.0
282
0
  0
TEXT
  5
2E7
330
2DE
100
AcDbEntity
 67
1
  8
A-TITULOS
100
AcDbText
 10
35.0
 20
395.0
 30
0.0
 40
6.0
  1
PLANTA DE ESCALERA
  7
ARIAL
 11
35.0
 21
395.0
 31
0.0
100
AcDbText
 73
1
  0
LINE
  5
2E8
330
2DE
100
AcDbEntity
 67
1
  8
A-TITULOS
100
AcDbLine
 10
35.0
 20
393.5
 30
0.0
 11
185.0
 21
393.5
 31
0.0
  0
TEXT
  5
2E9
330
2DE
100
AcDbEntity
 67
1
  8
A-TEXTO
100
AcDbText
 10
35.0
 20
387.5
 30
0.0
 40
3.5
  1
NIVEL 1 (VESTÍBULO); NIVELES 2 Y 3 IGUALES
  7
ARIAL
 11
35.0
 21
387.5
 31
0.0
100
AcDbText
 73
1
  0
TEXT
  5
2EA
330
2DE
100
AcDbEntity
 67
1
  8
A-TEXTO
100
AcDbText
 10
35.0
 20
382.0
 30
0.0
 40
3.0
  1
Esc. 1:25
  7
ARIAL
 11
35.0
 21
382.0
 31
0.0
100
AcDbText
 73
1
  0
VIEWPORT
  5
2EB
330
2DE
100
AcDbEntity
 67
1
  8
A-VIEWPORT
100
AcDbViewport
 10
165.0
 20
262.0
 30
0.0
 40
270.0
 41
215.0
 68
2
 69
4
 12
12.5
 22
1.75
 13
0.0
 23
0.0
 14
10.0
 24
10.0
 15
10.0
 25
10.0
 16
0.0
 26
0.0
 36
1.0
 17
0.0
 27
0.0
 37
0.0
 42
50.0
 43
0.0
 44
0.0
 45
5.375
 50
0.0
 51
0.0
 72
100
 90
16384
  1

281
0
 71
0
 74
0
110
0.0
120
0.0
130
0.0
111
1.0
121
0.0
131
0.0
112
0.0
122
1.0
132
0.0
 79
0
146
0.0
282
0
  0
TEXT
  5
2EC
330
2DE
100
AcDbEntity
 67
1
  8
A-TITULOS
100
AcDbText
 10
35.0
 20
143.0
 30
0.0
 40
6.0
  1
CORTE DE ESCALERA (EN EL OJO, VISTA HACIA EL EJE 4)
  7
ARIAL
 11
35.0
 21
143.0
 31
0.0
100
AcDbText
 73
1
  0
LINE
  5
2ED
330
2DE
100
AcDbEntity
 67
1
  8
A-TITULOS
100
AcDbLine
 10
35.0
 20
141.5
 30
0.0
 11
225.0
 21
141.5
 31
0.0
  0
TEXT
  5
2EE
330
2DE
100
AcDbEntity
 67
1
  8
A-TEXTO
100
AcDbText
 10
35.0
 20
135.5
 30
0.0
 40
3.5
  1
TRAMO NIVEL 1 A NIVEL 2; TRAMO NIVEL 2 A NIVEL 3 IGUAL
  7
ARIAL
 11
35.0
 21
135.5
 31
0.0
100
AcDbText
 73
1
  0
TEXT
  5
2EF
330
2DE
100
AcDbEntity
 67
1
  8
A-TEXTO
100
AcDbText
 10
35.0
 20
130.0
 30
0.0
 40
3.0
  1
Esc. 1:25
  7
ARIAL
 11
35.0
 21
130.0
 31
0.0
100
AcDbText
 73
1
  0
LINE
  5
2F0
330
2DE
100
AcDbEntity
 67
1
  8
A-TEXTO
100
AcDbLine
 10
300.0
 20
366.0
 30
0.0
 11
199.0
 21
292.27899159663866
 31
0.0
  0
CIRCLE
  5
2F1
330
2DE
100
AcDbEntity
 67
1
  8
A-TEXTO
100
AcDbCircle
 10
199.0
 20
292.27899159663866
 30
0.0
 40
0.6
  0
MTEXT
  5
2F2
330
2DE
100
AcDbEntity
 67
1
  8
A-TEXTO
100
AcDbMText
 10
302.0
 20
366.0
 30
0.0
 40
1.9
 41
128.0
 71
4
  1
BARANDAL A 1,07m DE ALTURA CON RESPECTO AL NIVEL DE PISO TERMINADO.
  7
ARIAL
  0
LINE
  5
2F3
330
2DE
100
AcDbEntity
 67
1
  8
A-TEXTO
100
AcDbLine
 10
300.0
 20
352.0
 30
0.0
 11
175.0
 21
270.3529411764706
 31
0.0
  0
CIRCLE
  5
2F4
330
2DE
100
AcDbEntity
 67
1
  8
A-TEXTO
100
AcDbCircle
 10
175.0
 20
270.3529411764706
 30
0.0
 40
0.6
  0
MTEXT
  5
2F5
330
2DE
100
AcDbEntity
 67
1
  8
A-TEXTO
100
AcDbMText
 10
302.0
 20
352.0
 30
0.0
 40
1.9
 41
128.0
 71
4
  1
PASAMANOS A 90cm DE ALTURA CON RESPECTO AL NIVEL DE PISO TERMINADO.
  7
ARIAL
  0
LINE
  5
2F6
330
2DE
100
AcDbEntity
 67
1
  8
A-TEXTO
100
AcDbLine
 10
300.0
 20
336.0
 30
0.0
 11
187.00000000000003
 21
261.9159663865546
 31
0.0
  0
CIRCLE
  5
2F7
330
2DE
100
AcDbEntity
 67
1
  8
A-TEXTO
100
AcDbCircle
 10
187.00000000000003
 20
261.9159663865546
 30
0.0
 40
0.6
  0
MTEXT
  5
2F8
330
2DE
100
AcDbEntity
 67
1
  8
A-TEXTO
100
AcDbMText
 10
302.0
 20
336.0
 30
0.0
 40
1.9
 41
128.0
 71
4
  1
BARRAS INTERMEDIAS A CADA 10cm, HASTA UNA ALTURA DE 92cm CON RESPECTO AL NIVEL DE PISO TERMINADO, EN TUBO REDONDO DE 12,7mm DE DIÁMETRO X 1,5mm DE ESPESOR.
  7
ARIAL
  0
LINE
  5
2F9
330
2DE
100
AcDbEntity
 67
1
  8
A-TEXTO
100
AcDbLine
 10
300.0
 20
318.0
 30
0.0
 11
161.0
 21
237.52941176470588
 31
0.0
  0
CIRCLE
  5
2FA
330
2DE
100
AcDbEntity
 67
1
  8
A-TEXTO
100
AcDbCircle
 10
161.0
 20
237.52941176470588
 30
0.0
 40
0.6
  0
MTEXT
  5
2FB
330
2DE
100
AcDbEntity
 67
1
  8
A-TEXTO
100
AcDbMText
 10
302.0
 20
318.0
 30
0.0
 40
1.9
 41
128.0
 71
4
  1
TUBO PEDESTAL DE 50,8mm DE DIÁMETRO X 2mm DE ESPESOR, CON SOPORTE DE PASAMANOS Y FLANGER INFERIOR O SIMILAR.
  7
ARIAL
  0
LINE
  5
2FC
330
2DE
100
AcDbEntity
 67
1
  8
A-TEXTO
100
AcDbLine
 10
300.0
 20
302.0
 30
0.0
 11
115.79999999999998
 21
230.25882352941176
 31
0.0
  0
CIRCLE
  5
2FD
330
2DE
100
AcDbEntity
 67
1
  8
A-TEXTO
100
AcDbCircle
 10
115.79999999999998
 20
230.25882352941176
 30
0.0
 40
0.6
  0
MTEXT
  5
2FE
330
2DE
100
AcDbEntity
 67
1
  8
A-TEXTO
100
AcDbMText
 10
302.0
 20
302.0
 30
0.0
 40
1.9
 41
128.0
 71
4
  1
EL EXTREMO INFERIOR DEL PASAMANOS REMATA HACIA EL PISO.
  7
ARIAL
  0
LINE
  5
2FF
330
2DE
100
AcDbEntity
 67
1
  8
A-TEXTO
100
AcDbLine
 10
300.0
 20
288.0
 30
0.0
 11
240.60000000000002
 21
291.52941176470586
 31
0.0
  0
CIRCLE
  5
300
330
2DE
100
AcDbEntity
 67
1
  8
A-TEXTO
100
AcDbCircle
 10
240.60000000000002
 20
291.52941176470586
 30
0.0
 40
0.6
  0
MTEXT
  5
301
330
2DE
100
AcDbEntity
 67
1
  8
A-TEXTO
100
AcDbMText
 10
302.0
 20
288.0
 30
0.0
 40
1.9
 41
128.0
 71
4
  1
PASAMANOS CONTINUO EN TODO SU RECORRIDO, INCLUIDO EL DESCANSO.
  7
ARIAL
  0
MTEXT
  5
302
330
2DE
100
AcDbEntity
 67
1
  8
A-TEXTO
100
AcDbMText
 10
302.0
 20
274.0
 30
0.0
 40
1.9
 41
128.0
 71
1
  3
SISTEMA DE PASAMANOS EN ACERO INOXIDABLE SS 304 ACABADO INOXIDABLE O SIMILAR. DEBE INCLUIR TODOS LOS ACCESORIOS (CONECTORES, TUBOS, TAPAS, SOPORTES, ETC.) DEL SISTEMA, ASÍ COMO TODOS LOS COMPONENTES NECESARIOS PARA SU ADECUADA INSTALACIÓN. EL PASAMAN
  1
OS PERIMETRAL DE FIJACIÓN A PARED DEBE SER CONTINUO EN TODO SU RECORRIDO, INCLUIDO EL DESCANSO.
  7
ARIAL
  0
MTEXT
  5
303
330
2DE
100
AcDbEntity
 67
1
  8
A-TEXTO
100
AcDbMText
 10
302.0
 20
246.0
 30
0.0
 40
1.9
 41
128.0
 71
1
  1
PASAMANOS A PARED: TUBO DE 42,4mm DE DIÁMETRO X 1,5mm DE ESPESOR O SIMILAR, SEPARADO 8cm DE LA PARED, CON SOPORTES ANCLADOS A PARED DE 1,5mm DE ESPESOR O SIMILAR.
  7
ARIAL
  0
VIEWPORT
  5
304
330
2DE
100
AcDbEntity
 67
1
  8
A-VIEWPORT
100
AcDbViewport
 10
520.0
 20
520.0
 30
0.0
 40
170.0
 41
100.0
 68
2
 69
5
 12
20.7
 22
0.42
 13
0.0
 23
0.0
 14
10.0
 24
10.0
 15
10.0
 25
10.0
 16
0.0
 26
0.0
 36
1.0
 17
0.0
 27
0.0
 37
0.0
 42
50.0
 43
0.0
 44
0.0
 45
1.0
 50
0.0
 51
0.0
 72
100
 90
16384
  1

281
0
 71
0
 74
0
110
0.0
120
0.0
130
0.0
111
1.0
121
0.0
131
0.0
112
0.0
122
1.0
132
0.0
 79
0
146
0.0
282
0
  0
TEXT
  5
305
330
2DE
100
AcDbEntity
 67
1
  8
A-TITULOS
100
AcDbText
 10
440.0
 20
470.0
 30
0.0
 40
4.0
  1
DETALLE DE ESCALÓN
  7
ARIAL
 11
440.0
 21
470.0
 31
0.0
100
AcDbText
 73
3
  0
TEXT
  5
306
330
2DE
100
AcDbEntity
 67
1
  8
A-TEXTO
100
AcDbText
 10
440.0
 20
464.0
 30
0.0
 40
2.5
  1
Esc. 1:10
  7
ARIAL
 11
440.0
 21
464.0
 31
0.0
100
AcDbText
 73
3
  0
MTEXT
  5
307
330
2DE
100
AcDbEntity
 67
1
  8
A-TEXTO
100
AcDbMText
 10
440.0
 20
456.0
 30
0.0
 40
1.9
 41
140.0
 71
1
  1
LOSA DE ESCALERA DE CONCRETO ARMADO; ESPESOR Y REFUERZO SEGÚN PLANOS ESTRUCTURALES . CONTRAHUELLA 0,176 m Y HUELLA 0,28 m. ACABADO DE GRADAS: PORCELANATO PI-A ANTIDESLIZANTE CON NARIZ (VER A7).
  7
ARIAL
  0
VIEWPORT
  5
308
330
2DE
100
AcDbEntity
 67
1
  8
A-VIEWPORT
100
AcDbViewport
 10
640.0
 20
520.0
 30
0.0
 40
60.0
 41
60.0
 68
2
 69
6
 12
23.0
 22
0.25
 13
0.0
 23
0.0
 14
10.0
 24
10.0
 15
10.0
 25
10.0
 16
0.0
 26
0.0
 36
1.0
 17
0.0
 27
0.0
 37
0.0
 42
50.0
 43
0.0
 44
0.0
 45
0.6
 50
0.0
 51
0.0
 72
100
 90
16384
  1

281
0
 71
0
 74
0
110
0.0
120
0.0
130
0.0
111
1.0
121
0.0
131
0.0
112
0.0
122
1.0
132
0.0
 79
0
146
0.0
282
0
  0
TEXT
  5
309
330
2DE
100
AcDbEntity
 67
1
  8
A-TITULOS
100
AcDbText
 10
612.0
 20
486.0
 30
0.0
 40
3.0
  1
ANCLAJE DE PASAMANOS
  7
ARIAL
 11
612.0
 21
486.0
 31
0.0
100
AcDbText
 73
3
  0
TEXT
  5
30A
330
2DE
100
AcDbEntity
 67
1
  8
A-TEXTO
100
AcDbText
 10
612.0
 20
481.0
 30
0.0
 40
2.2
  1
Esc. 1:10
  7
ARIAL
 11
612.0
 21
481.0
 31
0.0
100
AcDbText
 73
3
  0
LINE
  5
30B
330
2DE
100
AcDbEntity
 67
1
  8
A-TEXTO
100
AcDbLine
 10
653.0
 20
555.0
 30
0.0
 11
640.0
 21
525.0
 31
0.0
  0
CIRCLE
  5
30C
330
2DE
100
AcDbEntity
 67
1
  8
A-TEXTO
100
AcDbCircle
 10
640.0
 20
525.0
 30
0.0
 40
0.6
  0
MTEXT
  5
30D
330
2DE
100
AcDbEntity
 67
1
  8
A-TEXTO
100
AcDbMText
 10
655.0
 20
555.0
 30
0.0
 40
1.6
 41
40.0
 71
4
  1
ANCLAJE SUPERIOR APROBADO PARA LA FIJACIÓN DEL PASAMANOS
  7
ARIAL
  0
LINE
  5
30E
330
2DE
100
AcDbEntity
 67
1
  8
A-TEXTO
100
AcDbLine
 10
666.0
 20
528.0
 30
0.0
 11
640.0
 21
520.0
 31
0.0
  0
CIRCLE
  5
30F
330
2DE
100
AcDbEntity
 67
1
  8
A-TEXTO
100
AcDbCircle
 10
640.0
 20
520.0
 30
0.0
 40
0.6
  0
MTEXT
  5
310
330
2DE
100
AcDbEntity
 67
1
  8
A-TEXTO
100
AcDbMText
 10
668.0
 20
528.0
 30
0.0
 40
1.6
 41
40.0
 71
4
  1
VARILLA
  7
ARIAL
  0
LINE
  5
311
330
2DE
100
AcDbEntity
 67
1
  8
A-TEXTO
100
AcDbLine
 10
653.0
 20
500.0
 30
0.0
 11
643.5
 21
516.5
 31
0.0
  0
CIRCLE
  5
312
330
2DE
100
AcDbEntity
 67
1
  8
A-TEXTO
100
AcDbCircle
 10
643.5
 20
516.5
 30
0.0
 40
0.6
  0
MTEXT
  5
313
330
2DE
100
AcDbEntity
 67
1
  8
A-TEXTO
100
AcDbMText
 10
655.0
 20
500.0
 30
0.0
 40
1.6
 41
40.0
 71
4
  1
PLACA DE HIERRO NEGRO BISELADO DE 4,8mm DE ESPESOR
  7
ARIAL
  0
VIEWPORT
  5
314
330
2DE
100
AcDbEntity
 67
1
  8
A-VIEWPORT
100
AcDbViewport
 10
560.0
 20
330.0
 30
0.0
 40
230.0
 41
150.0
 68
2
 69
7
 12
26.65
 22
0.55
 13
0.0
 23
0.0
 14
10.0
 24
10.0
 15
10.0
 25
10.0
 16
0.0
 26
0.0
 36
1.0
 17
0.0
 27
0.0
 37
0.0
 42
50.0
 43
0.0
 44
0.0
 45
1.5
 50
0.0
 51
0.0
 72
100
 90
16384
  1

281
0
 71
0
 74
0
110
0.0
120
0.0
130
0.0
111
1.0
121
0.0
131
0.0
112
0.0
122
1.0
132
0.0
 79
0
146
0.0
282
0
  0
TEXT
  5
315
330
2DE
100
AcDbEntity
 67
1
  8
A-TITULOS
100
AcDbText
 10
445.0
 20
250.0
 30
0.0
 40
4.0
  1
DETALLE DE BARANDA Y PASAMANOS
  7
ARIAL
 11
445.0
 21
250.0
 31
0.0
100
AcDbText
 73
3
  0
TEXT
  5
316
330
2DE
100
AcDbEntity
 67
1
  8
A-TEXTO
100
AcDbText
 10
445.0
 20
244.0
 30
0.0
 40
2.5
  1
Esc. 1:10
  7
ARIAL
 11
445.0
 21
244.0
 31
0.0
100
AcDbText
 73
3
  0
LINE
  5
317
330
2DE
100
AcDbEntity
 67
1
  8
A-TEXTO
100
AcDbLine
 10
598.0
 20
405.0
 30
0.0
 11
555.0000000000002
 21
382.0
 31
0.0
  0
CIRCLE
  5
318
330
2DE
100
AcDbEntity
 67
1
  8
A-TEXTO
100
AcDbCircle
 10
555.0000000000002
 20
382.0
 30
0.0
 40
0.6
  0
MTEXT
  5
319
330
2DE
100
AcDbEntity
 67
1
  8
A-TEXTO
100
AcDbMText
 10
600.0
 20
405.0
 30
0.0
 40
1.8
 41
60.0
 71
4
  1
BARANDAL A 1,07m (PASAMANOS CONTINUO DE SECCIÓN CIRCULAR DE 4cm)
  7
ARIAL
  0
LINE
  5
31A
330
2DE
100
AcDbEntity
 67
1
  8
A-TEXTO
100
AcDbLine
 10
638.0
 20
392.0
 30
0.0
 11
625.0000000000002
 21
365.0
 31
0.0
  0
CIRCLE
  5
31B
330
2DE
100
AcDbEntity
 67
1
  8
A-TEXTO
100
AcDbCircle
 10
625.0000000000002
 20
365.0
 30
0.0
 40
0.6
  0
MTEXT
  5
31C
330
2DE
100
AcDbEntity
 67
1
  8
A-TEXTO
100
AcDbMText
 10
640.0
 20
392.0
 30
0.0
 40
1.8
 41
60.0
 71
4
  1
PASAMANOS A 0,90m, SEPARADO DE LA BARANDA 5cm
  7
ARIAL
  0
LINE
  5
31D
330
2DE
100
AcDbEntity
 67
1
  8
A-TEXTO
100
AcDbLine
 10
638.0
 20
360.0
 30
0.0
 11
555.0000000000002
 21
325.0
 31
0.0
  0
CIRCLE
  5
31E
330
2DE
100
AcDbEntity
 67
1
  8
A-TEXTO
100
AcDbCircle
 10
555.0000000000002
 20
325.0
 30
0.0
 40
0.6
  0
MTEXT
  5
31F
330
2DE
100
AcDbEntity
 67
1
  8
A-TEXTO
100
AcDbMText
 10
640.0
 20
360.0
 30
0.0
 40
1.8
 41
60.0
 71
4
  1
BARRAS INTERMEDIAS A CADA 10cm HASTA 0,92m
  7
ARIAL
  0
LINE
  5
320
330
2DE
100
AcDbEntity
 67
1
  8
A-TEXTO
100
AcDbLine
 10
598.0
 20
280.0
 30
0.0
 11
505.0000000000003
 21
305.0
 31
0.0
  0
CIRCLE
  5
321
330
2DE
100
AcDbEntity
 67
1
  8
A-TEXTO
100
AcDbCircle
 10
505.0000000000003
 20
305.0
 30
0.0
 40
0.6
  0
MTEXT
  5
322
330
2DE
100
AcDbEntity
 67
1
  8
A-TEXTO
100
AcDbMText
 10
600.0
 20
280.0
 30
0.0
 40
1.8
 41
60.0
 71
4
  1
TUBO PEDESTAL Ø 50,8mm
  7
ARIAL
  0
MTEXT
  5
323
330
2DE
100
AcDbEntity
 67
1
  8
A-TEXTO
100
AcDbMText
 10
445.0
 20
236.0
 30
0.0
 40
1.9
 41
240.0
 71
1
  1
DISEÑO DE LAS BARANDAS Y PASAMANOS DE FORMA TAL QUE NO HAYA PROYECCIONES QUE PUEDAN ENGANCHARSE A LAS ROPAS SUELTAS.
  7
ARIAL
  0
TEXT
  5
324
330
2DE
100
AcDbEntity
 67
1
  8
A-TITULOS
100
AcDbText
 10
445.0
 20
222.0
 30
0.0
 40
3.5
  1
NOTAS:
  7
ARIAL
 11
445.0
 21
222.0
 31
0.0
100
AcDbText
 73
3
  0
MTEXT
  5
325
330
2DE
100
AcDbEntity
 67
1
  8
A-NOTAS
100
AcDbMText
 10
445.0
 20
216.0
 30
0.0
 40
2.0
 41
250.0
 71
1
  1
1.- TODAS LAS MEDIDAS ESTÁN DADAS EN METROS, SALVO INDICACIÓN CONTRARIA.
  7
ARIAL
  0
MTEXT
  5
326
330
2DE
100
AcDbEntity
 67
1
  8
A-NOTAS
100
AcDbMText
 10
445.0
 20
212.0
 30
0.0
 40
2.0
 41
250.0
 71
1
  1
2.- ESCALERA EN U ENTRE EL NIVEL 1 Y EL NIVEL 3: 17 CONTRAHUELLAS DE 0,176 m Y HUELLA DE 0,28 m POR NIVEL (TRAMO 1: 9 CH; TRAMO 2: 8 CH); ANCHO DE TRAMO 1,10 m; OJO 0,30 m; DESCANSO 1,10 x 2,50 m A +1,59 (N1-N2) Y +4,59 (N2-N3).
  7
ARIAL
  0
MTEXT
  5
327
330
2DE
100
AcDbEntity
 67
1
  8
A-NOTAS
100
AcDbMText
 10
445.0
 20
205.1
 30
0.0
 40
2.0
 41
250.0
 71
1
  3
3.- EN EL NIVEL 1 LA ESCALERA QUEDA EN EL VESTÍBULO CERRADO (PAREDES STEEL TECH 0,12 m, PUERTA PRINCIPAL P-01). BARANDA EN EL OJO DE LA ESCALERA Y EN EL BORDE DEL PASILLO HACIA EL VACÍO EN LOS NIVELES 2 Y 3; PASAMANOS A PARED EN EL LADO EXTERIOR DE L
  1
OS TRAMOS.
  7
ARIAL
  0
MTEXT
  5
328
330
2DE
100
AcDbEntity
 67
1
  8
A-NOTAS
100
AcDbMText
 10
445.0
 20
198.2
 30
0.0
 40
2.0
 41
250.0
 71
1
  1
4.- GRADAS Y DESCANSOS CON ACABADO DE PORCELANATO PI-A ANTIDESLIZANTE CON NARIZ.
  7
ARIAL
  0
MTEXT
  5
329
330
2DE
100
AcDbEntity
 67
1
  8
A-NOTAS
100
AcDbMText
 10
445.0
 20
194.2
 30
0.0
 40
2.0
 41
250.0
 71
1
  1
5.- ESTRUCTURA DE LA ESCALERA SEGÚN PLANOS ESTRUCTURALES.
  7
ARIAL
  0
INSERT
  5
371
330
2DE
100
AcDbEntity
 67
1
  8
A-CAJETIN
100
AcDbBlockReference
 66
1
  2
CAJETIN_A1
 10
711.0
 20
10.0
 30
0.0
  0
ATTRIB
  5
373
330
2DE
100
AcDbEntity
 67
1
  8
A-CAJETIN-TXT
100
AcDbText
 10
771.0
 20
261.6
 30
0.0
 40
3.2
  1
CivilCon Diseño y Construcción SRLTDA
  7
ARIAL
 72
1
 11
771.0
 21
261.6
 31
0.0
100
AcDbAttribute
  2
EMPRESA
 70
0
 74
3
 71
1
 72
0
 11
771.0
 21
261.6
 31
0.0
  0
ATTRIB
  5
374
330
2DE
100
AcDbEntity
 67
1
  8
A-CAJETIN-TXT
100
AcDbText
 10
771.0
 20
255.6
 30
0.0
 40
2.5
  1
Céd. Jurídica: 3-102-762712
  7
ARIAL
 72
1
 11
771.0
 21
255.6
 31
0.0
100
AcDbAttribute
  2
EMPRESA_CED
 70
0
 74
3
 71
1
 72
0
 11
771.0
 21
255.6
 31
0.0
  0
ATTRIB
  5
375
330
2DE
100
AcDbEntity
 67
1
  8
A-CAJETIN-TXT
100
AcDbText
 10
714.0
 20
240.1
 30
0.0
 40
2.6
  1
DIRECTOR TÉCNICO:
  7
ARIAL
 11
714.0
 21
240.1
 31
0.0
100
AcDbAttribute
  2
PROF_1
 70
0
 74
3
 71
1
 72
0
 11
714.0
 21
240.1
 31
0.0
  0
ATTRIB
  5
376
330
2DE
100
AcDbEntity
 67
1
  8
A-CAJETIN-TXT
100
AcDbText
 10
714.0
 20
235.6
 30
0.0
 40
2.6
  1
Steven Viales (Civil) IC-40759
  7
ARIAL
 11
714.0
 21
235.6
 31
0.0
100
AcDbAttribute
  2
PROF_2
 70
0
 74
3
 71
1
 72
0
 11
714.0
 21
235.6
 31
0.0
  0
ATTRIB
  5
377
330
2DE
100
AcDbEntity
 67
1
  8
A-CAJETIN-TXT
100
AcDbText
 10
714.0
 20
231.1
 30
0.0
 40
2.6
  1
David Barrantes (Electricidad) IE-27499
  7
ARIAL
 11
714.0
 21
231.1
 31
0.0
100
AcDbAttribute
  2
PROF_3
 70
0
 74
3
 71
1
 72
0
 11
714.0
 21
231.1
 31
0.0
  0
ATTRIB
  5
378
330
2DE
100
AcDbEntity
 67
1
  8
A-CAJETIN-TXT
100
AcDbText
 10
714.0
 20
218.1
 30
0.0
 40
4.2
  1
VIVIENDA UNIFAMILIAR
  7
ARIAL
 11
714.0
 21
218.1
 31
0.0
100
AcDbAttribute
  2
PROYECTO
 70
0
 74
3
 71
1
 72
0
 11
714.0
 21
218.1
 31
0.0
  0
ATTRIB
  5
379
330
2DE
100
AcDbEntity
 67
1
  8
A-CAJETIN-TXT
100
AcDbText
 10
714.0
 20
211.1
 30
0.0
 40
2.5
  1
DISTRITO 03 SANTIAGO, CANTÓN 05 SAN RAFAEL,
  7
ARIAL
 11
714.0
 21
211.1
 31
0.0
100
AcDbAttribute
  2
UBIC_1
 70
0
 74
3
 71
1
 72
0
 11
714.0
 21
211.1
 31
0.0
  0
ATTRIB
  5
37A
330
2DE
100
AcDbEntity
 67
1
  8
A-CAJETIN-TXT
100
AcDbText
 10
714.0
 20
206.6
 30
0.0
 40
2.5
  1
PROVINCIA 04 HEREDIA, COSTA RICA.
  7
ARIAL
 11
714.0
 21
206.6
 31
0.0
100
AcDbAttribute
  2
UBIC_2
 70
0
 74
3
 71
1
 72
0
 11
714.0
 21
206.6
 31
0.0
  0
ATTRIB
  5
37B
330
2DE
100
AcDbEntity
 67
1
  8
A-CAJETIN-TXT
100
AcDbText
 10
714.0
 20
202.1
 30
0.0
 40
2.5
  1

  7
ARIAL
 11
714.0
 21
202.1
 31
0.0
100
AcDbAttribute
  2
UBIC_3
 70
0
 74
3
 71
1
 72
0
 11
714.0
 21
202.1
 31
0.0
  0
ATTRIB
  5
37C
330
2DE
100
AcDbEntity
 67
1
  8
A-CAJETIN-TXT
100
AcDbText
 10
714.0
 20
189.1
 30
0.0
 40
2.5
  1
FOLIO REAL: 4-041200-000
  7
ARIAL
 11
714.0
 21
189.1
 31
0.0
100
AcDbAttribute
  2
REG_1
 70
0
 74
3
 71
1
 72
0
 11
714.0
 21
189.1
 31
0.0
  0
ATTRIB
  5
37D
330
2DE
100
AcDbEntity
 67
1
  8
A-CAJETIN-TXT
100
AcDbText
 10
714.0
 20
184.6
 30
0.0
 40
2.5
  1
PLANO CATASTRADO: 4-57389-2023
  7
ARIAL
 11
714.0
 21
184.6
 31
0.0
100
AcDbAttribute
  2
REG_2
 70
0
 74
3
 71
1
 72
0
 11
714.0
 21
184.6
 31
0.0
  0
ATTRIB
  5
37E
330
2DE
100
AcDbEntity
 67
1
  8
A-CAJETIN-TXT
100
AcDbText
 10
714.0
 20
180.1
 30
0.0
 40
2.5
  1
ÁREA SEGÚN CATASTRO: 256 m²
  7
ARIAL
 11
714.0
 21
180.1
 31
0.0
100
AcDbAttribute
  2
REG_3
 70
0
 74
3
 71
1
 72
0
 11
714.0
 21
180.1
 31
0.0
  0
ATTRIB
  5
37F
330
2DE
100
AcDbEntity
 67
1
  8
A-CAJETIN-TXT
100
AcDbText
 10
714.0
 20
167.1
 30
0.0
 40
5.0
  1
ESCALERA
  7
ARIAL
 11
714.0
 21
167.1
 31
0.0
100
AcDbAttribute
  2
CONT_TIT
 70
0
 74
3
 71
1
 72
0
 11
714.0
 21
167.1
 31
0.0
  0
ATTRIB
  5
380
330
2DE
100
AcDbEntity
 67
1
  8
A-CAJETIN-TXT
100
AcDbText
 10
714.0
 20
159.6
 30
0.0
 40
3.0
  1
PLANTA.
  7
ARIAL
 11
714.0
 21
159.6
 31
0.0
100
AcDbAttribute
  2
CONT_1
 70
0
 74
3
 71
1
 72
0
 11
714.0
 21
159.6
 31
0.0
  0
ATTRIB
  5
381
330
2DE
100
AcDbEntity
 67
1
  8
A-CAJETIN-TXT
100
AcDbText
 10
714.0
 20
154.1
 30
0.0
 40
3.0
  1
CORTE.
  7
ARIAL
 11
714.0
 21
154.1
 31
0.0
100
AcDbAttribute
  2
CONT_2
 70
0
 74
3
 71
1
 72
0
 11
714.0
 21
154.1
 31
0.0
  0
ATTRIB
  5
382
330
2DE
100
AcDbEntity
 67
1
  8
A-CAJETIN-TXT
100
AcDbText
 10
714.0
 20
148.6
 30
0.0
 40
3.0
  1
DETALLES DE ESCALÓN, BARANDA
  7
ARIAL
 11
714.0
 21
148.6
 31
0.0
100
AcDbAttribute
  2
CONT_3
 70
0
 74
3
 71
1
 72
0
 11
714.0
 21
148.6
 31
0.0
  0
ATTRIB
  5
383
330
2DE
100
AcDbEntity
 67
1
  8
A-CAJETIN-TXT
100
AcDbText
 10
714.0
 20
143.1
 30
0.0
 40
3.0
  1
Y PASAMANOS.
  7
ARIAL
 11
714.0
 21
143.1
 31
0.0
100
AcDbAttribute
  2
CONT_4
 70
0
 74
3
 71
1
 72
0
 11
714.0
 21
143.1
 31
0.0
  0
ATTRIB
  5
384
330
2DE
100
AcDbEntity
 67
1
  8
A-CAJETIN-TXT
100
AcDbText
 10
714.0
 20
137.6
 30
0.0
 40
3.0
  1
NOTAS.
  7
ARIAL
 11
714.0
 21
137.6
 31
0.0
100
AcDbAttribute
  2
CONT_5
 70
0
 74
3
 71
1
 72
0
 11
714.0
 21
137.6
 31
0.0
  0
ATTRIB
  5
385
330
2DE
100
AcDbEntity
 67
1
  8
A-CAJETIN-TXT
100
AcDbText
 10
714.0
 20
132.1
 30
0.0
 40
3.0
  1

  7
ARIAL
 11
714.0
 21
132.1
 31
0.0
100
AcDbAttribute
  2
CONT_6
 70
0
 74
3
 71
1
 72
0
 11
714.0
 21
132.1
 31
0.0
  0
ATTRIB
  5
386
330
2DE
100
AcDbEntity
 67
1
  8
A-CAJETIN-TXT
100
AcDbText
 10
736.0
 20
122.1
 30
0.0
 40
2.2
  1
INDICADAS
  7
ARIAL
 11
736.0
 21
122.1
 31
0.0
100
AcDbAttribute
  2
ESCALAS
 70
0
 74
3
 71
1
 72
0
 11
736.0
 21
122.1
 31
0.0
  0
ATTRIB
  5
387
330
2DE
100
AcDbEntity
 67
1
  8
A-CAJETIN-TXT
100
AcDbText
 10
717.0
 20
104.0
 30
0.0
 40
2.0
  1
0
  7
ARIAL
 72
1
 11
717.0
 21
104.0
 31
0.0
100
AcDbAttribute
  2
REV0_N
 70
0
 74
2
 71
1
 72
0
 11
717.0
 21
104.0
 31
0.0
  0
ATTRIB
  5
388
330
2DE
100
AcDbEntity
 67
1
  8
A-CAJETIN-TXT
100
AcDbText
 10
734.0
 20
104.0
 30
0.0
 40
2.0
  1
06-10-2026
  7
ARIAL
 72
1
 11
734.0
 21
104.0
 31
0.0
100
AcDbAttribute
  2
REV0_F
 70
0
 74
2
 71
1
 72
0
 11
734.0
 21
104.0
 31
0.0
  0
ATTRIB
  5
389
330
2DE
100
AcDbEntity
 67
1
  8
A-CAJETIN-TXT
100
AcDbText
 10
746.5
 20
104.0
 30
0.0
 40
2.0
  1
VERSIÓN DE TRABAJO PARA REVISIÓN
  7
ARIAL
 11
746.5
 21
104.0
 31
0.0
100
AcDbAttribute
  2
REV0_D
 70
0
 74
2
 71
1
 72
0
 11
746.5
 21
104.0
 31
0.0
  0
ATTRIB
  5
38A
330
2DE
100
AcDbEntity
 67
1
  8
A-CAJETIN-TXT
100
AcDbText
 10
717.0
 20
98.8
 30
0.0
 40
2.0
  1
1
  7
ARIAL
 72
1
 11
717.0
 21
98.8
 31
0.0
100
AcDbAttribute
  2
REV1_N
 70
0
 74
2
 71
1
 72
0
 11
717.0
 21
98.8
 31
0.0
  0
ATTRIB
  5
38B
330
2DE
100
AcDbEntity
 67
1
  8
A-CAJETIN-TXT
100
AcDbText
 10
734.0
 20
98.8
 30
0.0
 40
2.0
  1
06-10-2026
  7
ARIAL
 72
1
 11
734.0
 21
98.8
 31
0.0
100
AcDbAttribute
  2
REV1_F
 70
0
 74
2
 71
1
 72
0
 11
734.0
 21
98.8
 31
0.0
  0
ATTRIB
  5
38C
330
2DE
100
AcDbEntity
 67
1
  8
A-CAJETIN-TXT
100
AcDbText
 10
746.5
 20
98.8
 30
0.0
 40
2.0
  1
ACABADO DE GRADAS; SIN CITAS NI MARCAS
  7
ARIAL
 11
746.5
 21
98.8
 31
0.0
100
AcDbAttribute
  2
REV1_D
 70
0
 74
2
 71
1
 72
0
 11
746.5
 21
98.8
 31
0.0
  0
ATTRIB
  5
38D
330
2DE
100
AcDbEntity
 67
1
  8
A-CAJETIN-TXT
100
AcDbText
 10
717.0
 20
93.6
 30
0.0
 40
2.0
  1
2
  7
ARIAL
 72
1
 11
717.0
 21
93.6
 31
0.0
100
AcDbAttribute
  2
REV2_N
 70
0
 74
2
 71
1
 72
0
 11
717.0
 21
93.6
 31
0.0
  0
ATTRIB
  5
38E
330
2DE
100
AcDbEntity
 67
1
  8
A-CAJETIN-TXT
100
AcDbText
 10
734.0
 20
93.6
 30
0.0
 40
2.0
  1
07-10-2026
  7
ARIAL
 72
1
 11
734.0
 21
93.6
 31
0.0
100
AcDbAttribute
  2
REV2_F
 70
0
 74
2
 71
1
 72
0
 11
734.0
 21
93.6
 31
0.0
  0
ATTRIB
  5
38F
330
2DE
100
AcDbEntity
 67
1
  8
A-CAJETIN-TXT
100
AcDbText
 10
746.5
 20
93.6
 30
0.0
 40
2.0
  1
LISTA DEFINITIVA (22); PARA TRÁMITE
  7
ARIAL
 11
746.5
 21
93.6
 31
0.0
100
AcDbAttribute
  2
REV2_D
 70
0
 74
2
 71
1
 72
0
 11
746.5
 21
93.6
 31
0.0
  0
ATTRIB
  5
390
330
2DE
100
AcDbEntity
 67
1
  8
A-CAJETIN-TXT
100
AcDbText
 10
771.0
 20
82.99999999999999
 30
0.0
 40
3.0
  1
PARA TRÁMITE
  7
ARIAL
 72
1
 11
771.0
 21
82.99999999999999
 31
0.0
100
AcDbAttribute
  2
ESTADO_1
 70
0
 74
3
 71
1
 72
0
 11
771.0
 21
82.99999999999999
 31
0.0
  0
ATTRIB
  5
391
330
2DE
100
AcDbEntity
 67
1
  8
A-CAJETIN-TXT
100
AcDbText
 10
771.0
 20
77.99999999999999
 30
0.0
 40
2.4
  1
CFIA Y MUNICIPALIDAD
  7
ARIAL
 72
1
 11
771.0
 21
77.99999999999999
 31
0.0
100
AcDbAttribute
  2
ESTADO_2
 70
0
 74
3
 71
1
 72
0
 11
771.0
 21
77.99999999999999
 31
0.0
  0
ATTRIB
  5
392
330
2DE
100
AcDbEntity
 67
1
  8
A-CAJETIN-TXT
100
AcDbText
 10
744.0
 20
49.999999999999986
 30
0.0
 40
5.0
  1
COSTA RICA
  7
ARIAL
 72
1
 11
744.0
 21
49.999999999999986
 31
0.0
100
AcDbAttribute
  2
LUGAR
 70
0
 74
2
 71
1
 72
0
 11
744.0
 21
49.999999999999986
 31
0.0
  0
ATTRIB
  5
393
330
2DE
100
AcDbEntity
 67
1
  8
A-CAJETIN-TXT
100
AcDbText
 10
804.0
 20
49.999999999999986
 30
0.0
 40
14.0
  1
A8
  7
ARIAL
 72
1
 11
804.0
 21
49.999999999999986
 31
0.0
100
AcDbAttribute
  2
LAMINA
 70
0
 74
2
 71
1
 72
0
 11
804.0
 21
49.999999999999986
 31
0.0
  0
ATTRIB
  5
394
330
2DE
100
AcDbEntity
 67
1
  8
A-CAJETIN-TXT
100
AcDbText
 10
744.0
 20
23.499999999999993
 30
0.0
 40
6.0
  1
OCT 2026
  7
ARIAL
 72
1
 11
744.0
 21
23.499999999999993
 31
0.0
100
AcDbAttribute
  2
FECHA
 70
0
 74
2
 71
1
 72
0
 11
744.0
 21
23.499999999999993
 31
0.0
  0
ATTRIB
  5
395
330
2DE
100
AcDbEntity
 67
1
  8
A-CAJETIN-TXT
100
AcDbText
 10
815.0
 20
23.499999999999993
 30
0.0
 40
9.0
  1
22
  7
ARIAL
 72
1
 11
815.0
 21
23.499999999999993
 31
0.0
100
AcDbAttribute
  2
TOTAL
 70
0
 74
2
 71
1
 72
0
 11
815.0
 21
23.499999999999993
 31
0.0
  0
SEQEND
  5
372
330
371
100
AcDbEntity
 67
1
  8
A-CAJETIN
  0
ENDSEC
  0
SECTION
  2
OBJECTS
  0
DICTIONARY
  5
A
330
0
100
AcDbDictionary
281
1
  3
ACAD_COLOR
350
B
  3
ACAD_GROUP
350
C
  3
ACAD_LAYOUT
350
D
  3
ACAD_MATERIAL
350
E
  3
ACAD_MLEADERSTYLE
350
F
  3
ACAD_MLINESTYLE
350
10
  3
ACAD_PLOTSETTINGS
350
11
  3
ACAD_PLOTSTYLENAME
350
12
  3
ACAD_SCALELIST
350
14
  3
ACAD_TABLESTYLE
350
15
  3
ACAD_VISUALSTYLE
350
16
  3
EZDXF_META
350
2D
  0
DICTIONARY
  5
B
330
A
100
AcDbDictionary
281
1
  0
DICTIONARY
  5
C
330
A
100
AcDbDictionary
281
1
  0
DICTIONARY
  5
D
330
A
100
AcDbDictionary
281
1
  3
Model
350
1A
  3
Layout1
350
1E
  3
A8-ESCALERA
350
2E1
  0
DICTIONARY
  5
E
330
A
100
AcDbDictionary
281
1
  3
ByBlock
350
1F
  3
ByLayer
350
20
  3
Global
350
21
  0
DICTIONARY
  5
F
330
A
100
AcDbDictionary
281
1
  3
Standard
350
2C
  0
DICTIONARY
  5
10
330
A
100
AcDbDictionary
281
1
  3
Standard
350
22
  0
DICTIONARY
  5
11
330
A
100
AcDbDictionary
281
1
  0
ACDBDICTIONARYWDFLT
  5
12
330
A
100
AcDbDictionary
281
1
  3
Normal
350
13
100
AcDbDictionaryWithDefault
340
13
  0
ACDBPLACEHOLDER
  5
13
330
12
  0
DICTIONARY
  5
14
330
A
100
AcDbDictionary
281
1
  0
DICTIONARY
  5
15
330
A
100
AcDbDictionary
281
1
  0
DICTIONARY
  5
16
330
A
100
AcDbDictionary
281
1
  3
2dWireframe
350
5A
  3
Basic
350
5B
  3
Brighten
350
5C
  3
ColorChange
350
5D
  3
Conceptual
350
5E
  3
Dim
350
5F
  3
EdgeColorOff
350
60
  3
Facepattern
350
61
  3
Flat
350
62
  3
FlatWithEdges
350
63
  3
Gouraud
350
64
  3
GouraudWithEdges
350
65
  3
Hidden
350
66
  3
JitterOff
350
67
  3
Linepattern
350
68
  3
Modeling
350
69
  3
OverhangOff
350
6A
  3
Realistic
350
6B
  3
Shaded
350
6C
  3
Shaded with edges
350
6D
  3
Shades of Gray
350
6E
  3
Sketchy
350
6F
  3
Thicken
350
70
  3
Wireframe
350
71
  3
X-Ray
350
72
  0
LAYOUT
  5
1A
330
D
100
AcDbPlotSettings
  1

  4
A3
  6

 40
7.5
 41
20.0
 42
7.5
 43
20.0
 44
420.0
 45
297.0
 46
0.0
 47
0.0
 48
0.0
 49
0.0
140
0.0
141
0.0
142
1.0
143
1.0
 70
1024
 72
1
 73
0
 74
5
  7

 75
16
 76
0
 77
2
 78
300
147
1.0
148
0.0
149
0.0
100
AcDbLayout
  1
Model
 70
1
 71
0
 10
0.0
 20
0.0
 11
420.0
 21
297.0
 12
0.0
 22
0.0
 32
0.0
 14
1e+20
 24
1e+20
 34
1e+20
 15
-1e+20
 25
-1e+20
 35
-1e+20
146
0.0
 13
0.0
 23
0.0
 33
0.0
 16
1.0
 26
0.0
 36
0.0
 17
0.0
 27
1.0
 37
0.0
 76
1
330
17
  0
LAYOUT
  5
1E
330
D
100
AcDbPlotSettings
  1

  4
A3
  6

 40
7.5
 41
20.0
 42
7.5
 43
20.0
 44
420.0
 45
297.0
 46
0.0
 47
0.0
 48
0.0
 49
0.0
140
0.0
141
0.0
142
1.0
143
1.0
 70
0
 72
1
 73
0
 74
5
  7

 75
16
 76
0
 77
2
 78
300
147
1.0
148
0.0
149
0.0
100
AcDbLayout
  1
Layout1
 70
1
 71
1
 10
0.0
 20
0.0
 11
420.0
 21
297.0
 12
0.0
 22
0.0
 32
0.0
 14
1e+20
 24
1e+20
 34
1e+20
 15
-1e+20
 25
-1e+20
 35
-1e+20
146
0.0
 13
0.0
 23
0.0
 33
0.0
 16
1.0
 26
0.0
 36
0.0
 17
0.0
 27
1.0
 37
0.0
 76
1
330
1B
  0
MATERIAL
  5
1F
102
{ACAD_REACTORS
330
E
102
}
330
E
100
AcDbMaterial
  1
ByBlock
  2

 70
0
 40
1.0
 71
1
 41
1.0
 91
-1023410177
 42
1.0
 72
1
  3

 73
1
 74
1
 75
1
 44
0.5
 73
0
 45
1.0
 46
1.0
 77
1
  4

 78
1
 79
1
170
1
 48
1.0
171
1
  6

172
1
173
1
174
1
140
1.0
141
1.0
175
1
  7

176
1
177
1
178
1
143
1.0
179
1
  8

270
1
271
1
272
1
145
1.0
146
1.0
273
1
  9

274
1
275
1
276
1
 42
1.0
 72
1
  3

 73
1
 74
1
 75
1
 94
63
  0
MATERIAL
  5
20
102
{ACAD_REACTORS
330
E
102
}
330
E
100
AcDbMaterial
  1
ByLayer
  2

 70
0
 40
1.0
 71
1
 41
1.0
 91
-1023410177
 42
1.0
 72
1
  3

 73
1
 74
1
 75
1
 44
0.5
 73
0
 45
1.0
 46
1.0
 77
1
  4

 78
1
 79
1
170
1
 48
1.0
171
1
  6

172
1
173
1
174
1
140
1.0
141
1.0
175
1
  7

176
1
177
1
178
1
143
1.0
179
1
  8

270
1
271
1
272
1
145
1.0
146
1.0
273
1
  9

274
1
275
1
276
1
 42
1.0
 72
1
  3

 73
1
 74
1
 75
1
 94
63
  0
MATERIAL
  5
21
102
{ACAD_REACTORS
330
E
102
}
330
E
100
AcDbMaterial
  1
Global
  2

 70
0
 40
1.0
 71
1
 41
1.0
 91
-1023410177
 42
1.0
 72
1
  3

 73
1
 74
1
 75
1
 44
0.5
 73
0
 45
1.0
 46
1.0
 77
1
  4

 78
1
 79
1
170
1
 48
1.0
171
1
  6

172
1
173
1
174
1
140
1.0
141
1.0
175
1
  7

176
1
177
1
178
1
143
1.0
179
1
  8

270
1
271
1
272
1
145
1.0
146
1.0
273
1
  9

274
1
275
1
276
1
 42
1.0
 72
1
  3

 73
1
 74
1
 75
1
 94
63
  0
MLINESTYLE
  5
22
102
{ACAD_REACTORS
330
10
102
}
330
10
100
AcDbMlineStyle
  2
Standard
 70
0
  3

 62
256
 51
90.0
 52
90.0
 71
2
 49
0.5
 62
256
  6
BYLAYER
 49
-0.5
 62
256
  6
BYLAYER
  0
MLEADERSTYLE
  5
2C
102
{ACAD_REACTORS
330
F
102
}
330
F
100
AcDbMLeaderStyle
179
2
170
2
171
1
172
0
 90
2
 40
0.0
 41
0.0
173
1
 91
-1056964608
 92
-2
290
1
 42
2.0
291
1
 43
8.0
  3
Standard
 44
4.0
300

342
29
174
1
175
1
176
0
178
1
 93
-1056964608
 45
4.0
292
0
297
0
 46
4.0
 94
-1056964608
 47
1.0
 49
1.0
140
1.0
294
1
141
0.0
177
0
142
1.0
295
0
296
0
143
3.75
271
0
272
9
273
9
  0
DICTIONARY
  5
2D
330
A
100
AcDbDictionary
280
1
281
1
  3
CREATED_BY_EZDXF
350
2E
  3
WRITTEN_BY_EZDXF
350
398
  0
DICTIONARYVAR
  5
2E
330
2D
100
DictionaryVariables
280
0
  1
1.4.4 @ 2026-10-07T02:24:25.911376+00:00
  0
VISUALSTYLE
  5
5A
102
{ACAD_REACTORS
330
16
102
}
330
16
100
AcDbVisualStyle
  2
2dWireframe
 70
4
177
3
291
0
 70
58
 90
2
176
1
 90
2
176
1
 90
0
176
1
 90
0
176
1
 40
0.6
176
1
 40
30.0
176
1
 62
7
420
16777215
176
1
 90
1
176
1
 90
4
176
1
 62
7
176
1
 62
257
176
1
 90
1
176
1
 90
1
176
1
 40
1.0
176
1
 90
8
176
1
 62
7
176
1
 40
1.0
176
1
 90
1
176
1
 90
6
176
1
 90
2
176
1
 62
7
176
1
 90
5
176
1
 90
0
176
1
 90
0
176
1
290
0
176
1
 90
1
176
1
 40
0.0
176
1
 90
0
176
1
290
1
176
1
290
1
176
1
290
0
176
1
290
0
176
1
290
0
176
1
290
0
176
1
290
0
176
1
290
0
176
1
290
0
176
1
 90
50
176
1
 40
0.0
176
1
 40
1.0
176
1
 90
0
176
1
 62
18
420
0
176
1
 90
50
176
1
 90
3
176
1
 62
5
420
255
176
1
290
0
176
1
 90
50
176
1
 90
50
176
1
 90
50
176
1
290
0
176
1
 90
50
176
1
 62
256
176
0
 40
1.0
176
0
 90
2
176
1
  1
strokes_ogs.tif
176
1
290
0
176
1
 40
1.0
176
1
 40
1.0
176
1
  0
VISUALSTYLE
  5
5B
102
{ACAD_REACTORS
330
16
102
}
330
16
100
AcDbVisualStyle
  2
Basic
 70
7
177
3
291
1
 70
58
 90
2
176
1
 90
2
176
1
 90
0
176
1
 90
1
176
1
 40
0.6
176
1
 40
30.0
176
1
 62
7
420
16777215
176
1
 90
1
176
1
 90
4
176
1
 62
7
176
1
 62
257
176
1
 90
1
176
1
 90
1
176
1
 40
1.0
176
1
 90
8
176
1
 62
7
176
1
 40
1.0
176
1
 90
1
176
1
 90
6
176
1
 90
2
176
1
 62
7
176
1
 90
5
176
1
 90
0
176
1
 90
0
176
1
290
0
176
1
 90
1
176
1
 40
0.0
176
1
 90
0
176
1
290
0
176
1
290
1
176
1
290
1
176
1
290
0
176
1
290
0
176
1
290
0
176
1
290
0
176
1
290
0
176
1
290
0
176
1
 90
50
176
1
 40
0.0
176
1
 40
1.0
176
1
 90
0
176
1
 62
18
420
0
176
1
 90
50
176
1
 90
3
176
1
 62
5
420
255
176
1
290
0
176
1
 90
50
176
1
 90
50
176
1
 90
50
176
1
290
0
176
1
 90
50
176
1
 62
256
176
0
 40
1.0
176
0
 90
2
176
1
  1
strokes_ogs.tif
176
1
290
0
176
1
 40
1.0
176
1
 40
1.0
176
1
  0
VISUALSTYLE
  5
5C
102
{ACAD_REACTORS
330
16
102
}
330
16
100
AcDbVisualStyle
  2
Brighten
 70
12
177
3
291
1
 70
58
 90
2
176
1
 90
2
176
1
 90
0
176
1
 90
2
176
1
 40
0.6
176
1
 40
30.0
176
1
 62
7
420
16777215
176
1
 90
1
176
1
 90
4
176
1
 62
7
176
1
 62
257
176
1
 90
1
176
1
 90
1
176
1
 40
1.0
176
1
 90
8
176
1
 62
7
176
1
 40
1.0
176
1
 90
1
176
1
 90
6
176
1
 90
2
176
1
 62
7
176
1
 90
5
176
1
 90
0
176
1
 90
0
176
1
290
0
176
1
 90
1
176
1
 40
0.0
176
1
 90
0
176
1
290
0
176
1
290
1
176
1
290
1
176
1
290
0
176
1
290
0
176
1
290
0
176
1
290
0
176
1
290
0
176
1
290
0
176
1
 90
50
176
1
 40
0.0
176
1
 40
1.0
176
1
 90
0
176
1
 62
18
420
0
176
1
 90
50
176
1
 90
3
176
1
 62
5
420
255
176
1
290
0
176
1
 90
50
176
1
 90
50
176
1
 90
50
176
1
290
0
176
1
 90
50
176
1
 62
256
176
0
 40
1.0
176
0
 90
2
176
1
  1
strokes_ogs.tif
176
1
290
0
176
1
 40
1.0
176
1
 40
1.0
176
1
  0
VISUALSTYLE
  5
5D
102
{ACAD_REACTORS
330
16
102
}
330
16
100
AcDbVisualStyle
  2
ColorChange
 70
16
177
3
291
1
 70
58
 90
2
176
1
 90
2
176
1
 90
0
176
1
 90
2
176
1
 40
0.6
176
1
 40
30.0
176
1
 62
7
420
16777215
176
1
 90
1
176
1
 90
4
176
1
 62
7
176
1
 62
257
176
1
 90
1
176
1
 90
1
176
1
 40
1.0
176
1
 90
8
176
1
 62
7
176
1
 40
1.0
176
1
 90
1
176
1
 90
6
176
1
 90
2
176
1
 62
7
176
1
 90
5
176
1
 90
0
176
1
 90
0
176
1
290
0
176
1
 90
1
176
1
 40
0.0
176
1
 90
0
176
1
290
0
176
1
290
1
176
1
290
1
176
1
290
0
176
1
290
0
176
1
290
0
176
1
290
0
176
1
290
0
176
1
290
0
176
1
 90
50
176
1
 40
0.0
176
1
 40
1.0
176
1
 90
0
176
1
 62
18
420
0
176
1
 90
50
176
1
 90
3
176
1
 62
5
420
255
176
1
290
0
176
1
 90
50
176
1
 90
50
176
1
 90
50
176
1
290
0
176
1
 90
50
176
1
 62
256
176
0
 40
1.0
176
0
 90
2
176
1
  1
strokes_ogs.tif
176
1
290
0
176
1
 40
1.0
176
1
 40
1.0
176
1
  0
VISUALSTYLE
  5
5E
102
{ACAD_REACTORS
330
16
102
}
330
16
100
AcDbVisualStyle
  2
Conceptual
 70
9
177
3
291
0
 70
58
 90
2
176
1
 90
2
176
1
 90
0
176
1
 90
3
176
1
 40
0.6
176
1
 40
30.0
176
1
 62
7
420
16777215
176
1
 90
1
176
1
 90
4
176
1
 62
7
176
1
 62
257
176
1
 90
1
176
1
 90
1
176
1
 40
1.0
176
1
 90
8
176
1
 62
7
176
1
 40
1.0
176
1
 90
1
176
1
 90
6
176
1
 90
2
176
1
 62
7
176
1
 90
5
176
1
 90
0
176
1
 90
0
176
1
290
0
176
1
 90
1
176
1
 40
0.0
176
1
 90
0
176
1
290
0
176
1
290
1
176
1
290
1
176
1
290
0
176
1
290
0
176
1
290
0
176
1
290
0
176
1
290
0
176
1
290
0
176
1
 90
50
176
1
 40
0.0
176
1
 40
1.0
176
1
 90
0
176
1
 62
18
420
0
176
1
 90
50
176
1
 90
3
176
1
 62
5
420
255
176
1
290
0
176
1
 90
50
176
1
 90
50
176
1
 90
50
176
1
290
0
176
1
 90
50
176
1
 62
256
176
0
 40
1.0
176
0
 90
2
176
1
  1
strokes_ogs.tif
176
1
290
0
176
1
 40
1.0
176
1
 40
1.0
176
1
  0
VISUALSTYLE
  5
5F
102
{ACAD_REACTORS
330
16
102
}
330
16
100
AcDbVisualStyle
  2
Dim
 70
11
177
3
291
1
 70
58
 90
2
176
1
 90
2
176
1
 90
0
176
1
 90
2
176
1
 40
0.6
176
1
 40
30.0
176
1
 62
7
420
16777215
176
1
 90
1
176
1
 90
4
176
1
 62
7
176
1
 62
257
176
1
 90
1
176
1
 90
1
176
1
 40
1.0
176
1
 90
8
176
1
 62
7
176
1
 40
1.0
176
1
 90
1
176
1
 90
6
176
1
 90
2
176
1
 62
7
176
1
 90
5
176
1
 90
0
176
1
 90
0
176
1
290
0
176
1
 90
1
176
1
 40
0.0
176
1
 90
0
176
1
290
0
176
1
290
1
176
1
290
1
176
1
290
0
176
1
290
0
176
1
290
0
176
1
290
0
176
1
290
0
176
1
290
0
176
1
 90
50
176
1
 40
0.0
176
1
 40
1.0
176
1
 90
0
176
1
 62
18
420
0
176
1
 90
50
176
1
 90
3
176
1
 62
5
420
255
176
1
290
0
176
1
 90
50
176
1
 90
50
176
1
 90
50
176
1
290
0
176
1
 90
50
176
1
 62
256
176
0
 40
1.0
176
0
 90
2
176
1
  1
strokes_ogs.tif
176
1
290
0
176
1
 40
1.0
176
1
 40
1.0
176
1
  0
VISUALSTYLE
  5
60
102
{ACAD_REACTORS
330
16
102
}
330
16
100
AcDbVisualStyle
  2
EdgeColorOff
 70
22
177
3
291
1
 70
58
 90
2
176
1
 90
2
176
1
 90
0
176
1
 90
2
176
1
 40
0.6
176
1
 40
30.0
176
1
 62
7
420
16777215
176
1
 90
1
176
1
 90
4
176
1
 62
7
176
1
 62
257
176
1
 90
1
176
1
 90
1
176
1
 40
1.0
176
1
 90
8
176
1
 62
7
176
1
 40
1.0
176
1
 90
1
176
1
 90
6
176
1
 90
2
176
1
 62
7
176
1
 90
5
176
1
 90
0
176
1
 90
0
176
1
290
0
176
1
 90
1
176
1
 40
0.0
176
1
 90
0
176
1
290
0
176
1
290
1
176
1
290
1
176
1
290
0
176
1
290
0
176
1
290
0
176
1
290
0
176
1
290
0
176
1
290
0
176
1
 90
50
176
1
 40
0.0
176
1
 40
1.0
176
1
 90
0
176
1
 62
18
420
0
176
1
 90
50
176
1
 90
3
176
1
 62
5
420
255
176
1
290
0
176
1
 90
50
176
1
 90
50
176
1
 90
50
176
1
290
0
176
1
 90
50
176
1
 62
256
176
0
 40
1.0
176
0
 90
2
176
1
  1
strokes_ogs.tif
176
1
290
0
176
1
 40
1.0
176
1
 40
1.0
176
1
  0
VISUALSTYLE
  5
61
102
{ACAD_REACTORS
330
16
102
}
330
16
100
AcDbVisualStyle
  2
Facepattern
 70
15
177
3
291
1
 70
58
 90
2
176
1
 90
2
176
1
 90
0
176
1
 90
2
176
1
 40
0.6
176
1
 40
30.0
176
1
 62
7
420
16777215
176
1
 90
1
176
1
 90
4
176
1
 62
7
176
1
 62
257
176
1
 90
1
176
1
 90
1
176
1
 40
1.0
176
1
 90
8
176
1
 62
7
176
1
 40
1.0
176
1
 90
1
176
1
 90
6
176
1
 90
2
176
1
 62
7
176
1
 90
5
176
1
 90
0
176
1
 90
0
176
1
290
0
176
1
 90
1
176
1
 40
0.0
176
1
 90
0
176
1
290
0
176
1
290
1
176
1
290
1
176
1
290
0
176
1
290
0
176
1
290
0
176
1
290
0
176
1
290
0
176
1
290
0
176
1
 90
50
176
1
 40
0.0
176
1
 40
1.0
176
1
 90
0
176
1
 62
18
420
0
176
1
 90
50
176
1
 90
3
176
1
 62
5
420
255
176
1
290
0
176
1
 90
50
176
1
 90
50
176
1
 90
50
176
1
290
0
176
1
 90
50
176
1
 62
256
176
0
 40
1.0
176
0
 90
2
176
1
  1
strokes_ogs.tif
176
1
290
0
176
1
 40
1.0
176
1
 40
1.0
176
1
  0
VISUALSTYLE
  5
62
102
{ACAD_REACTORS
330
16
102
}
330
16
100
AcDbVisualStyle
  2
Flat
 70
0
177
3
291
1
 70
58
 90
2
176
1
 90
2
176
1
 90
0
176
1
 90
2
176
1
 40
0.6
176
1
 40
30.0
176
1
 62
7
420
16777215
176
1
 90
1
176
1
 90
4
176
1
 62
7
176
1
 62
257
176
1
 90
1
176
1
 90
1
176
1
 40
1.0
176
1
 90
8
176
1
 62
7
176
1
 40
1.0
176
1
 90
1
176
1
 90
6
176
1
 90
2
176
1
 62
7
176
1
 90
5
176
1
 90
0
176
1
 90
0
176
1
290
0
176
1
 90
1
176
1
 40
0.0
176
1
 90
0
176
1
290
0
176
1
290
1
176
1
290
1
176
1
290
0
176
1
290
0
176
1
290
0
176
1
290
0
176
1
290
0
176
1
290
0
176
1
 90
50
176
1
 40
0.0
176
1
 40
1.0
176
1
 90
0
176
1
 62
18
420
0
176
1
 90
50
176
1
 90
3
176
1
 62
5
420
255
176
1
290
0
176
1
 90
50
176
1
 90
50
176
1
 90
50
176
1
290
0
176
1
 90
50
176
1
 62
256
176
0
 40
1.0
176
0
 90
2
176
1
  1
strokes_ogs.tif
176
1
290
0
176
1
 40
1.0
176
1
 40
1.0
176
1
  0
VISUALSTYLE
  5
63
102
{ACAD_REACTORS
330
16
102
}
330
16
100
AcDbVisualStyle
  2
FlatWithEdges
 70
1
177
3
291
1
 70
58
 90
2
176
1
 90
2
176
1
 90
0
176
1
 90
2
176
1
 40
0.6
176
1
 40
30.0
176
1
 62
7
420
16777215
176
1
 90
1
176
1
 90
4
176
1
 62
7
176
1
 62
257
176
1
 90
1
176
1
 90
1
176
1
 40
1.0
176
1
 90
8
176
1
 62
7
176
1
 40
1.0
176
1
 90
1
176
1
 90
6
176
1
 90
2
176
1
 62
7
176
1
 90
5
176
1
 90
0
176
1
 90
0
176
1
290
0
176
1
 90
1
176
1
 40
0.0
176
1
 90
0
176
1
290
0
176
1
290
1
176
1
290
1
176
1
290
0
176
1
290
0
176
1
290
0
176
1
290
0
176
1
290
0
176
1
290
0
176
1
 90
50
176
1
 40
0.0
176
1
 40
1.0
176
1
 90
0
176
1
 62
18
420
0
176
1
 90
50
176
1
 90
3
176
1
 62
5
420
255
176
1
290
0
176
1
 90
50
176
1
 90
50
176
1
 90
50
176
1
290
0
176
1
 90
50
176
1
 62
256
176
0
 40
1.0
176
0
 90
2
176
1
  1
strokes_ogs.tif
176
1
290
0
176
1
 40
1.0
176
1
 40
1.0
176
1
  0
VISUALSTYLE
  5
64
102
{ACAD_REACTORS
330
16
102
}
330
16
100
AcDbVisualStyle
  2
Gouraud
 70
2
177
3
291
1
 70
58
 90
2
176
1
 90
2
176
1
 90
0
176
1
 90
2
176
1
 40
0.6
176
1
 40
30.0
176
1
 62
7
420
16777215
176
1
 90
1
176
1
 90
4
176
1
 62
7
176
1
 62
257
176
1
 90
1
176
1
 90
1
176
1
 40
1.0
176
1
 90
8
176
1
 62
7
176
1
 40
1.0
176
1
 90
1
176
1
 90
6
176
1
 90
2
176
1
 62
7
176
1
 90
5
176
1
 90
0
176
1
 90
0
176
1
290
0
176
1
 90
1
176
1
 40
0.0
176
1
 90
0
176
1
290
0
176
1
290
1
176
1
290
1
176
1
290
0
176
1
290
0
176
1
290
0
176
1
290
0
176
1
290
0
176
1
290
0
176
1
 90
50
176
1
 40
0.0
176
1
 40
1.0
176
1
 90
0
176
1
 62
18
420
0
176
1
 90
50
176
1
 90
3
176
1
 62
5
420
255
176
1
290
0
176
1
 90
50
176
1
 90
50
176
1
 90
50
176
1
290
0
176
1
 90
50
176
1
 62
256
176
0
 40
1.0
176
0
 90
2
176
1
  1
strokes_ogs.tif
176
1
290
0
176
1
 40
1.0
176
1
 40
1.0
176
1
  0
VISUALSTYLE
  5
65
102
{ACAD_REACTORS
330
16
102
}
330
16
100
AcDbVisualStyle
  2
GouraudWithEdges
 70
3
177
3
291
1
 70
58
 90
2
176
1
 90
2
176
1
 90
0
176
1
 90
2
176
1
 40
0.6
176
1
 40
30.0
176
1
 62
7
420
16777215
176
1
 90
1
176
1
 90
4
176
1
 62
7
176
1
 62
257
176
1
 90
1
176
1
 90
1
176
1
 40
1.0
176
1
 90
8
176
1
 62
7
176
1
 40
1.0
176
1
 90
1
176
1
 90
6
176
1
 90
2
176
1
 62
7
176
1
 90
5
176
1
 90
0
176
1
 90
0
176
1
290
0
176
1
 90
1
176
1
 40
0.0
176
1
 90
0
176
1
290
0
176
1
290
1
176
1
290
1
176
1
290
0
176
1
290
0
176
1
290
0
176
1
290
0
176
1
290
0
176
1
290
0
176
1
 90
50
176
1
 40
0.0
176
1
 40
1.0
176
1
 90
0
176
1
 62
18
420
0
176
1
 90
50
176
1
 90
3
176
1
 62
5
420
255
176
1
290
0
176
1
 90
50
176
1
 90
50
176
1
 90
50
176
1
290
0
176
1
 90
50
176
1
 62
256
176
0
 40
1.0
176
0
 90
2
176
1
  1
strokes_ogs.tif
176
1
290
0
176
1
 40
1.0
176
1
 40
1.0
176
1
  0
VISUALSTYLE
  5
66
102
{ACAD_REACTORS
330
16
102
}
330
16
100
AcDbVisualStyle
  2
Hidden
 70
6
177
3
291
0
 70
58
 90
2
176
1
 90
2
176
1
 90
0
176
1
 90
1
176
1
 40
0.6
176
1
 40
30.0
176
1
 62
7
420
16777215
176
1
 90
1
176
1
 90
4
176
1
 62
7
176
1
 62
257
176
1
 90
1
176
1
 90
1
176
1
 40
1.0
176
1
 90
8
176
1
 62
7
176
1
 40
1.0
176
1
 90
1
176
1
 90
6
176
1
 90
2
176
1
 62
7
176
1
 90
5
176
1
 90
0
176
1
 90
0
176
1
290
0
176
1
 90
1
176
1
 40
0.0
176
1
 90
0
176
1
290
0
176
1
290
1
176
1
290
1
176
1
290
0
176
1
290
0
176
1
290
0
176
1
290
0
176
1
290
0
176
1
290
0
176
1
 90
50
176
1
 40
0.0
176
1
 40
1.0
176
1
 90
0
176
1
 62
18
420
0
176
1
 90
50
176
1
 90
3
176
1
 62
5
420
255
176
1
290
0
176
1
 90
50
176
1
 90
50
176
1
 90
50
176
1
290
0
176
1
 90
50
176
1
 62
256
176
0
 40
1.0
176
0
 90
2
176
1
  1
strokes_ogs.tif
176
1
290
0
176
1
 40
1.0
176
1
 40
1.0
176
1
  0
VISUALSTYLE
  5
67
102
{ACAD_REACTORS
330
16
102
}
330
16
100
AcDbVisualStyle
  2
JitterOff
 70
20
177
3
291
1
 70
58
 90
2
176
1
 90
2
176
1
 90
0
176
1
 90
2
176
1
 40
0.6
176
1
 40
30.0
176
1
 62
7
420
16777215
176
1
 90
1
176
1
 90
4
176
1
 62
7
176
1
 62
257
176
1
 90
1
176
1
 90
1
176
1
 40
1.0
176
1
 90
8
176
1
 62
7
176
1
 40
1.0
176
1
 90
1
176
1
 90
6
176
1
 90
2
176
1
 62
7
176
1
 90
5
176
1
 90
0
176
1
 90
0
176
1
290
0
176
1
 90
1
176
1
 40
0.0
176
1
 90
0
176
1
290
0
176
1
290
1
176
1
290
1
176
1
290
0
176
1
290
0
176
1
290
0
176
1
290
0
176
1
290
0
176
1
290
0
176
1
 90
50
176
1
 40
0.0
176
1
 40
1.0
176
1
 90
0
176
1
 62
18
420
0
176
1
 90
50
176
1
 90
3
176
1
 62
5
420
255
176
1
290
0
176
1
 90
50
176
1
 90
50
176
1
 90
50
176
1
290
0
176
1
 90
50
176
1
 62
256
176
0
 40
1.0
176
0
 90
2
176
1
  1
strokes_ogs.tif
176
1
290
0
176
1
 40
1.0
176
1
 40
1.0
176
1
  0
VISUALSTYLE
  5
68
102
{ACAD_REACTORS
330
16
102
}
330
16
100
AcDbVisualStyle
  2
Linepattern
 70
14
177
3
291
1
 70
58
 90
2
176
1
 90
2
176
1
 90
0
176
1
 90
2
176
1
 40
0.6
176
1
 40
30.0
176
1
 62
7
420
16777215
176
1
 90
1
176
1
 90
4
176
1
 62
7
176
1
 62
257
176
1
 90
1
176
1
 90
1
176
1
 40
1.0
176
1
 90
8
176
1
 62
7
176
1
 40
1.0
176
1
 90
1
176
1
 90
6
176
1
 90
2
176
1
 62
7
176
1
 90
5
176
1
 90
0
176
1
 90
0
176
1
290
0
176
1
 90
1
176
1
 40
0.0
176
1
 90
0
176
1
290
0
176
1
290
1
176
1
290
1
176
1
290
0
176
1
290
0
176
1
290
0
176
1
290
0
176
1
290
0
176
1
290
0
176
1
 90
50
176
1
 40
0.0
176
1
 40
1.0
176
1
 90
0
176
1
 62
18
420
0
176
1
 90
50
176
1
 90
3
176
1
 62
5
420
255
176
1
290
0
176
1
 90
50
176
1
 90
50
176
1
 90
50
176
1
290
0
176
1
 90
50
176
1
 62
256
176
0
 40
1.0
176
0
 90
2
176
1
  1
strokes_ogs.tif
176
1
290
0
176
1
 40
1.0
176
1
 40
1.0
176
1
  0
VISUALSTYLE
  5
69
102
{ACAD_REACTORS
330
16
102
}
330
16
100
AcDbVisualStyle
  2
Modeling
 70
10
177
3
291
0
 70
58
 90
2
176
1
 90
2
176
1
 90
0
176
1
 90
2
176
1
 40
0.6
176
1
 40
30.0
176
1
 62
7
420
16777215
176
1
 90
1
176
1
 90
4
176
1
 62
7
176
1
 62
257
176
1
 90
1
176
1
 90
1
176
1
 40
1.0
176
1
 90
8
176
1
 62
7
176
1
 40
1.0
176
1
 90
1
176
1
 90
6
176
1
 90
2
176
1
 62
7
176
1
 90
5
176
1
 90
0
176
1
 90
0
176
1
290
0
176
1
 90
1
176
1
 40
0.0
176
1
 90
0
176
1
290
0
176
1
290
1
176
1
290
1
176
1
290
0
176
1
290
0
176
1
290
0
176
1
290
0
176
1
290
0
176
1
290
0
176
1
 90
50
176
1
 40
0.0
176
1
 40
1.0
176
1
 90
0
176
1
 62
18
420
0
176
1
 90
50
176
1
 90
3
176
1
 62
5
420
255
176
1
290
0
176
1
 90
50
176
1
 90
50
176
1
 90
50
176
1
290
0
176
1
 90
50
176
1
 62
256
176
0
 40
1.0
176
0
 90
2
176
1
  1
strokes_ogs.tif
176
1
290
0
176
1
 40
1.0
176
1
 40
1.0
176
1
  0
VISUALSTYLE
  5
6A
102
{ACAD_REACTORS
330
16
102
}
330
16
100
AcDbVisualStyle
  2
OverhangOff
 70
21
177
3
291
1
 70
58
 90
2
176
1
 90
2
176
1
 90
0
176
1
 90
2
176
1
 40
0.6
176
1
 40
30.0
176
1
 62
7
420
16777215
176
1
 90
1
176
1
 90
4
176
1
 62
7
176
1
 62
257
176
1
 90
1
176
1
 90
1
176
1
 40
1.0
176
1
 90
8
176
1
 62
7
176
1
 40
1.0
176
1
 90
1
176
1
 90
6
176
1
 90
2
176
1
 62
7
176
1
 90
5
176
1
 90
0
176
1
 90
0
176
1
290
0
176
1
 90
1
176
1
 40
0.0
176
1
 90
0
176
1
290
0
176
1
290
1
176
1
290
1
176
1
290
0
176
1
290
0
176
1
290
0
176
1
290
0
176
1
290
0
176
1
290
0
176
1
 90
50
176
1
 40
0.0
176
1
 40
1.0
176
1
 90
0
176
1
 62
18
420
0
176
1
 90
50
176
1
 90
3
176
1
 62
5
420
255
176
1
290
0
176
1
 90
50
176
1
 90
50
176
1
 90
50
176
1
290
0
176
1
 90
50
176
1
 62
256
176
0
 40
1.0
176
0
 90
2
176
1
  1
strokes_ogs.tif
176
1
290
0
176
1
 40
1.0
176
1
 40
1.0
176
1
  0
VISUALSTYLE
  5
6B
102
{ACAD_REACTORS
330
16
102
}
330
16
100
AcDbVisualStyle
  2
Realistic
 70
8
177
3
291
0
 70
58
 90
2
176
1
 90
2
176
1
 90
0
176
1
 90
2
176
1
 40
0.6
176
1
 40
30.0
176
1
 62
7
420
16777215
176
1
 90
1
176
1
 90
4
176
1
 62
7
176
1
 62
257
176
1
 90
1
176
1
 90
1
176
1
 40
1.0
176
1
 90
8
176
1
 62
7
176
1
 40
1.0
176
1
 90
1
176
1
 90
6
176
1
 90
2
176
1
 62
7
176
1
 90
5
176
1
 90
0
176
1
 90
0
176
1
290
0
176
1
 90
1
176
1
 40
0.0
176
1
 90
0
176
1
290
0
176
1
290
1
176
1
290
1
176
1
290
0
176
1
290
0
176
1
290
0
176
1
290
0
176
1
290
0
176
1
290
0
176
1
 90
50
176
1
 40
0.0
176
1
 40
1.0
176
1
 90
0
176
1
 62
18
420
0
176
1
 90
50
176
1
 90
3
176
1
 62
5
420
255
176
1
290
0
176
1
 90
50
176
1
 90
50
176
1
 90
50
176
1
290
0
176
1
 90
50
176
1
 62
256
176
0
 40
1.0
176
0
 90
2
176
1
  1
strokes_ogs.tif
176
1
290
0
176
1
 40
1.0
176
1
 40
1.0
176
1
  0
VISUALSTYLE
  5
6C
102
{ACAD_REACTORS
330
16
102
}
330
16
100
AcDbVisualStyle
  2
Shaded
 70
27
177
3
291
0
 70
58
 90
2
176
1
 90
2
176
1
 90
0
176
1
 90
2
176
1
 40
0.6
176
1
 40
30.0
176
1
 62
7
420
16777215
176
1
 90
1
176
1
 90
4
176
1
 62
7
176
1
 62
257
176
1
 90
1
176
1
 90
1
176
1
 40
1.0
176
1
 90
8
176
1
 62
7
176
1
 40
1.0
176
1
 90
1
176
1
 90
6
176
1
 90
2
176
1
 62
7
176
1
 90
5
176
1
 90
0
176
1
 90
0
176
1
290
0
176
1
 90
1
176
1
 40
0.0
176
1
 90
0
176
1
290
0
176
1
290
1
176
1
290
1
176
1
290
0
176
1
290
0
176
1
290
0
176
1
290
0
176
1
290
0
176
1
290
0
176
1
 90
50
176
1
 40
0.0
176
1
 40
1.0
176
1
 90
0
176
1
 62
18
420
0
176
1
 90
50
176
1
 90
3
176
1
 62
5
420
255
176
1
290
0
176
1
 90
50
176
1
 90
50
176
1
 90
50
176
1
290
0
176
1
 90
50
176
1
 62
256
176
0
 40
1.0
176
0
 90
2
176
1
  1
strokes_ogs.tif
176
1
290
0
176
1
 40
1.0
176
1
 40
1.0
176
1
  0
VISUALSTYLE
  5
6D
102
{ACAD_REACTORS
330
16
102
}
330
16
100
AcDbVisualStyle
  2
Shaded with edges
 70
26
177
3
291
0
 70
58
 90
2
176
1
 90
2
176
1
 90
0
176
1
 90
2
176
1
 40
0.6
176
1
 40
30.0
176
1
 62
7
420
16777215
176
1
 90
1
176
1
 90
4
176
1
 62
7
176
1
 62
257
176
1
 90
1
176
1
 90
1
176
1
 40
1.0
176
1
 90
8
176
1
 62
7
176
1
 40
1.0
176
1
 90
1
176
1
 90
6
176
1
 90
2
176
1
 62
7
176
1
 90
5
176
1
 90
0
176
1
 90
0
176
1
290
0
176
1
 90
1
176
1
 40
0.0
176
1
 90
0
176
1
290
0
176
1
290
1
176
1
290
1
176
1
290
0
176
1
290
0
176
1
290
0
176
1
290
0
176
1
290
0
176
1
290
0
176
1
 90
50
176
1
 40
0.0
176
1
 40
1.0
176
1
 90
0
176
1
 62
18
420
0
176
1
 90
50
176
1
 90
3
176
1
 62
5
420
255
176
1
290
0
176
1
 90
50
176
1
 90
50
176
1
 90
50
176
1
290
0
176
1
 90
50
176
1
 62
256
176
0
 40
1.0
176
0
 90
2
176
1
  1
strokes_ogs.tif
176
1
290
0
176
1
 40
1.0
176
1
 40
1.0
176
1
  0
VISUALSTYLE
  5
6E
102
{ACAD_REACTORS
330
16
102
}
330
16
100
AcDbVisualStyle
  2
Shades of Gray
 70
23
177
3
291
0
 70
58
 90
2
176
1
 90
2
176
1
 90
0
176
1
 90
2
176
1
 40
0.6
176
1
 40
30.0
176
1
 62
7
420
16777215
176
1
 90
1
176
1
 90
4
176
1
 62
7
176
1
 62
257
176
1
 90
1
176
1
 90
1
176
1
 40
1.0
176
1
 90
8
176
1
 62
7
176
1
 40
1.0
176
1
 90
1
176
1
 90
6
176
1
 90
2
176
1
 62
7
176
1
 90
5
176
1
 90
0
176
1
 90
0
176
1
290
0
176
1
 90
1
176
1
 40
0.0
176
1
 90
0
176
1
290
0
176
1
290
1
176
1
290
1
176
1
290
0
176
1
290
0
176
1
290
0
176
1
290
0
176
1
290
0
176
1
290
0
176
1
 90
50
176
1
 40
0.0
176
1
 40
1.0
176
1
 90
0
176
1
 62
18
420
0
176
1
 90
50
176
1
 90
3
176
1
 62
5
420
255
176
1
290
0
176
1
 90
50
176
1
 90
50
176
1
 90
50
176
1
290
0
176
1
 90
50
176
1
 62
256
176
0
 40
1.0
176
0
 90
2
176
1
  1
strokes_ogs.tif
176
1
290
0
176
1
 40
1.0
176
1
 40
1.0
176
1
  0
VISUALSTYLE
  5
6F
102
{ACAD_REACTORS
330
16
102
}
330
16
100
AcDbVisualStyle
  2
Sketchy
 70
24
177
3
291
0
 70
58
 90
2
176
1
 90
2
176
1
 90
0
176
1
 90
1
176
1
 40
0.6
176
1
 40
30.0
176
1
 62
7
420
16777215
176
1
 90
1
176
1
 90
4
176
1
 62
7
176
1
 62
257
176
1
 90
1
176
1
 90
1
176
1
 40
1.0
176
1
 90
8
176
1
 62
7
176
1
 40
1.0
176
1
 90
1
176
1
 90
6
176
1
 90
2
176
1
 62
7
176
1
 90
5
176
1
 90
0
176
1
 90
0
176
1
290
0
176
1
 90
1
176
1
 40
0.0
176
1
 90
0
176
1
290
0
176
1
290
1
176
1
290
1
176
1
290
0
176
1
290
0
176
1
290
0
176
1
290
0
176
1
290
0
176
1
290
0
176
1
 90
50
176
1
 40
0.0
176
1
 40
1.0
176
1
 90
0
176
1
 62
18
420
0
176
1
 90
50
176
1
 90
3
176
1
 62
5
420
255
176
1
290
0
176
1
 90
50
176
1
 90
50
176
1
 90
50
176
1
290
0
176
1
 90
50
176
1
 62
256
176
0
 40
1.0
176
0
 90
2
176
1
  1
strokes_ogs.tif
176
1
290
0
176
1
 40
1.0
176
1
 40
1.0
176
1
  0
VISUALSTYLE
  5
70
102
{ACAD_REACTORS
330
16
102
}
330
16
100
AcDbVisualStyle
  2
Thicken
 70
13
177
3
291
1
 70
58
 90
2
176
1
 90
2
176
1
 90
0
176
1
 90
2
176
1
 40
0.6
176
1
 40
30.0
176
1
 62
7
420
16777215
176
1
 90
1
176
1
 90
4
176
1
 62
7
176
1
 62
257
176
1
 90
1
176
1
 90
1
176
1
 40
1.0
176
1
 90
8
176
1
 62
7
176
1
 40
1.0
176
1
 90
1
176
1
 90
6
176
1
 90
2
176
1
 62
7
176
1
 90
5
176
1
 90
0
176
1
 90
0
176
1
290
0
176
1
 90
1
176
1
 40
0.0
176
1
 90
0
176
1
290
0
176
1
290
1
176
1
290
1
176
1
290
0
176
1
290
0
176
1
290
0
176
1
290
0
176
1
290
0
176
1
290
0
176
1
 90
50
176
1
 40
0.0
176
1
 40
1.0
176
1
 90
0
176
1
 62
18
420
0
176
1
 90
50
176
1
 90
3
176
1
 62
5
420
255
176
1
290
0
176
1
 90
50
176
1
 90
50
176
1
 90
50
176
1
290
0
176
1
 90
50
176
1
 62
256
176
0
 40
1.0
176
0
 90
2
176
1
  1
strokes_ogs.tif
176
1
290
0
176
1
 40
1.0
176
1
 40
1.0
176
1
  0
VISUALSTYLE
  5
71
102
{ACAD_REACTORS
330
16
102
}
330
16
100
AcDbVisualStyle
  2
Wireframe
 70
5
177
3
291
0
 70
58
 90
2
176
1
 90
2
176
1
 90
0
176
1
 90
0
176
1
 40
0.6
176
1
 40
30.0
176
1
 62
7
420
16777215
176
1
 90
1
176
1
 90
4
176
1
 62
7
176
1
 62
257
176
1
 90
1
176
1
 90
1
176
1
 40
1.0
176
1
 90
8
176
1
 62
7
176
1
 40
1.0
176
1
 90
1
176
1
 90
6
176
1
 90
2
176
1
 62
7
176
1
 90
5
176
1
 90
0
176
1
 90
0
176
1
290
0
176
1
 90
1
176
1
 40
0.0
176
1
 90
0
176
1
290
0
176
1
290
1
176
1
290
1
176
1
290
0
176
1
290
0
176
1
290
0
176
1
290
0
176
1
290
0
176
1
290
0
176
1
 90
50
176
1
 40
0.0
176
1
 40
1.0
176
1
 90
0
176
1
 62
18
420
0
176
1
 90
50
176
1
 90
3
176
1
 62
5
420
255
176
1
290
0
176
1
 90
50
176
1
 90
50
176
1
 90
50
176
1
290
0
176
1
 90
50
176
1
 62
256
176
0
 40
1.0
176
0
 90
2
176
1
  1
strokes_ogs.tif
176
1
290
0
176
1
 40
1.0
176
1
 40
1.0
176
1
  0
VISUALSTYLE
  5
72
102
{ACAD_REACTORS
330
16
102
}
330
16
100
AcDbVisualStyle
  2
X-Ray
 70
25
177
3
291
0
 70
58
 90
2
176
1
 90
2
176
1
 90
0
176
1
 90
2
176
1
 40
0.5
176
1
 40
30.0
176
1
 62
7
420
16777215
176
1
 90
1
176
1
 90
4
176
1
 62
7
176
1
 62
257
176
1
 90
1
176
1
 90
1
176
1
 40
1.0
176
1
 90
8
176
1
 62
7
176
1
 40
1.0
176
1
 90
1
176
1
 90
6
176
1
 90
2
176
1
 62
7
176
1
 90
5
176
1
 90
0
176
1
 90
0
176
1
290
0
176
1
 90
1
176
1
 40
0.0
176
1
 90
0
176
1
290
0
176
1
290
1
176
1
290
1
176
1
290
0
176
1
290
0
176
1
290
0
176
1
290
0
176
1
290
0
176
1
290
0
176
1
 90
50
176
1
 40
0.0
176
1
 40
1.0
176
1
 90
0
176
1
 62
18
420
0
176
1
 90
50
176
1
 90
3
176
1
 62
5
420
255
176
1
290
0
176
1
 90
50
176
1
 90
50
176
1
 90
50
176
1
290
0
176
1
 90
50
176
1
 62
256
176
0
 40
1.0
176
0
 90
2
176
1
  1
strokes_ogs.tif
176
1
290
0
176
1
 40
1.0
176
1
 40
1.0
176
1
  0
LAYOUT
  5
2E1
330
D
100
AcDbPlotSettings
  1

  2
DWG to PDF.pc3
  4
ezdxf_(841.00_x_594.00_MM)
  6

 40
0.0
 41
0.0
 42
0.0
 43
0.0
 44
841.0
 45
594.0
 46
0.0
 47
0.0
 48
0.0
 49
0.0
140
0.0
141
0.0
142
1.0
143
1.0
 70
672
 72
1
 73
0
 74
5
  7

 75
16
 76
0
 77
2
 78
300
147
1.0
148
0.0
149
0.0
100
AcDbLayout
  1
A8-ESCALERA
 70
1
 71
3
 10
-0.0
 20
-0.0
 11
841.0
 21
594.0
 12
0.0
 22
0.0
 32
0.0
 14
1e+20
 24
1e+20
 34
1e+20
 15
-1e+20
 25
-1e+20
 35
-1e+20
146
0.0
 13
0.0
 23
0.0
 33
0.0
 16
1.0
 26
0.0
 36
0.0
 17
0.0
 27
1.0
 37
0.0
 76
1
330
2DE
331
2E2
  0
DICTIONARYVAR
  5
398
330
2D
100
DictionaryVariables
280
0
  1
1.4.4 @ 2026-10-07T02:24:25.933948+00:00
  0
ENDSEC
  0
EOF
