  0
SECTION
  2
HEADER
  9
$ACADVER
  1
AC1032
  9
$ACADMAINTVER
 90
4
  9
$DWGCODEPAGE
  3
ANSI_1252
  9
$LASTSAVEDBY
  1
ezdxf
  9
$REQUIREDVERSIONS
160
0
  9
$INSBASE
 10
0.0
 20
0.0
 30
0.0
  9
$EXTMIN
 10
1e+20
 20
1e+20
 30
1e+20
  9
$EXTMAX
 10
-1e+20
 20
-1e+20
 30
-1e+20
  9
$LIMMIN
 10
0.0
 20
0.0
  9
$LIMMAX
 10
420.0
 20
297.0
  9
$ORTHOMODE
 70
0
  9
$REGENMODE
 70
1
  9
$FILLMODE
 70
1
  9
$QTEXTMODE
 70
0
  9
$MIRRTEXT
 70
1
  9
$LTSCALE
 40
1.0
  9
$ATTMODE
 70
1
  9
$TEXTSIZE
 40
2.5
  9
$TRACEWID
 40
1.0
  9
$TEXTSTYLE
  7
OpenSans
  9
$CLAYER
  8
0
  9
$CELTYPE
  6
ByLayer
  9
$CECOLOR
 62
256
  9
$CELTSCALE
 40
1.0
  9
$DISPSILH
 70
0
  9
$DIMSCALE
 40
1.0
  9
$DIMASZ
 40
0.175
  9
$DIMEXO
 40
0.125
  9
$DIMDLI
 40
3.75
  9
$DIMRND
 40
0.0
  9
$DIMDLE
 40
0.0
  9
$DIMEXE
 40
0.375
  9
$DIMTP
 40
0.0
  9
$DIMTM
 40
0.0
  9
$DIMTXT
 40
0.25
  9
$DIMCEN
 40
2.5
  9
$DIMTSZ
 40
0.0
  9
$DIMTOL
 70
0
  9
$DIMLIM
 70
0
  9
$DIMTIH
 70
0
  9
$DIMTOH
 70
0
  9
$DIMSE1
 70
0
  9
$DIMSE2
 70
0
  9
$DIMTAD
 70
1
  9
$DIMZIN
 70
12
  9
$DIMBLK
  1
ARCHTICK
  9
$DIMASO
 70
1
  9
$DIMSHO
 70
1
  9
$DIMPOST
  1

  9
$DIMAPOST
  1

  9
$DIMALT
 70
0
  9
$DIMALTD
 70
3
  9
$DIMALTF
 40
0.03937007874
  9
$DIMLFAC
 40
100.0
  9
$DIMTOFL
 70
1
  9
$DIMTVP
 40
0.0
  9
$DIMTIX
 70
0
  9
$DIMSOXD
 70
0
  9
$DIMSAH
 70
0
  9
$DIMBLK1
  1

  9
$DIMBLK2
  1

  9
$DIMSTYLE
  2
EZDXF
  9
$DIMCLRD
 70
0
  9
$DIMCLRE
 70
0
  9
$DIMCLRT
 70
0
  9
$DIMTFAC
 40
0.5
  9
$DIMGAP
 40
0.1
  9
$DIMJUST
 70
0
  9
$DIMSD1
 70
0
  9
$DIMSD2
 70
0
  9
$DIMTOLJ
 70
0
  9
$DIMTZIN
 70
8
  9
$DIMALTZ
 70
0
  9
$DIMALTTZ
 70
0
  9
$DIMUPT
 70
1
  9
$DIMDEC
 70
2
  9
$DIMTDEC
 70
2
  9
$DIMALTU
 70
2
  9
$DIMALTTD
 70
3
  9
$DIMTXSTY
  7
OpenSansCondensed-Light
  9
$DIMAUNIT
 70
0
  9
$DIMADEC
 70
2
  9
$DIMALTRND
 40
0.0
  9
$DIMAZIN
 70
3
  9
$DIMDSEP
 70
46
  9
$DIMATFIT
 70
3
  9
$DIMFRAC
 70
0
  9
$DIMLDRBLK
  1

  9
$DIMLUNIT
 70
2
  9
$DIMLWD
 70
-2
  9
$DIMLWE
 70
-2
  9
$DIMTMOVE
 70
2
  9
$DIMFXL
 40
1.0
  9
$DIMFXLON
 70
0
  9
$DIMJOGANG
 40
0.785398163397
  9
$DIMTFILL
 70
0
  9
$DIMTFILLCLR
 70
0
  9
$DIMARCSYM
 70
0
  9
$DIMLTYPE
  6

  9
$DIMLTEX1
  6

  9
$DIMLTEX2
  6

  9
$DIMTXTDIRECTION
 70
0
  9
$LUNITS
 70
2
  9
$LUPREC
 70
2
  9
$SKETCHINC
 40
1.0
  9
$FILLETRAD
 40
10.0
  9
$AUNITS
 70
1
  9
$AUPREC
 70
2
  9
$MENU
  1
.
  9
$ELEVATION
 40
0.0
  9
$PELEVATION
 40
0.0
  9
$THICKNESS
 40
0.0
  9
$LIMCHECK
 70
0
  9
$CHAMFERA
 40
0.0
  9
$CHAMFERB
 40
0.0
  9
$CHAMFERC
 40
0.0
  9
$CHAMFERD
 40
0.0
  9
$SKPOLY
 70
0
  9
$TDCREATE
 40
2461321.0957638887
  9
$TDUCREATE
 40
2458532.153996898
  9
$TDUPDATE
 40
2461321.0957638887
  9
$TDUUPDATE
 40
2458532.1544311
  9
$TDINDWG
 40
0.0
  9
$TDUSRTIMER
 40
0.0
  9
$USRTIMER
 70
1
  9
$ANGBASE
 50
0.0
  9
$ANGDIR
 70
0
  9
$PDMODE
 70
0
  9
$PDSIZE
 40
0.0
  9
$PLINEWID
 40
0.0
  9
$SPLFRAME
 70
0
  9
$SPLINETYPE
 70
6
  9
$SPLINESEGS
 70
8
  9
$HANDSEED
  5
368
  9
$SURFTAB1
 70
6
  9
$SURFTAB2
 70
6
  9
$SURFTYPE
 70
6
  9
$SURFU
 70
6
  9
$SURFV
 70
6
  9
$UCSBASE
  2

  9
$UCSNAME
  2

  9
$UCSORG
 10
0.0
 20
0.0
 30
0.0
  9
$UCSXDIR
 10
1.0
 20
0.0
 30
0.0
  9
$UCSYDIR
 10
0.0
 20
1.0
 30
0.0
  9
$UCSORTHOREF
  2

  9
$UCSORTHOVIEW
 70
0
  9
$UCSORGTOP
 10
0.0
 20
0.0
 30
0.0
  9
$UCSORGBOTTOM
 10
0.0
 20
0.0
 30
0.0
  9
$UCSORGLEFT
 10
0.0
 20
0.0
 30
0.0
  9
$UCSORGRIGHT
 10
0.0
 20
0.0
 30
0.0
  9
$UCSORGFRONT
 10
0.0
 20
0.0
 30
0.0
  9
$UCSORGBACK
 10
0.0
 20
0.0
 30
0.0
  9
$PUCSBASE
  2

  9
$PUCSNAME
  2

  9
$PUCSORG
 10
0.0
 20
0.0
 30
0.0
  9
$PUCSXDIR
 10
1.0
 20
0.0
 30
0.0
  9
$PUCSYDIR
 10
0.0
 20
1.0
 30
0.0
  9
$PUCSORTHOREF
  2

  9
$PUCSORTHOVIEW
 70
0
  9
$PUCSORGTOP
 10
0.0
 20
0.0
 30
0.0
  9
$PUCSORGBOTTOM
 10
0.0
 20
0.0
 30
0.0
  9
$PUCSORGLEFT
 10
0.0
 20
0.0
 30
0.0
  9
$PUCSORGRIGHT
 10
0.0
 20
0.0
 30
0.0
  9
$PUCSORGFRONT
 10
0.0
 20
0.0
 30
0.0
  9
$PUCSORGBACK
 10
0.0
 20
0.0
 30
0.0
  9
$USERI1
 70
0
  9
$USERI2
 70
0
  9
$USERI3
 70
0
  9
$USERI4
 70
0
  9
$USERI5
 70
0
  9
$USERR1
 40
0.0
  9
$USERR2
 40
0.0
  9
$USERR3
 40
0.0
  9
$USERR4
 40
0.0
  9
$USERR5
 40
0.0
  9
$WORLDVIEW
 70
1
  9
$SHADEDGE
 70
3
  9
$SHADEDIF
 70
70
  9
$TILEMODE
 70
1
  9
$MAXACTVP
 70
64
  9
$PINSBASE
 10
0.0
 20
0.0
 30
0.0
  9
$PLIMCHECK
 70
0
  9
$PEXTMIN
 10
1e+20
 20
1e+20
 30
1e+20
  9
$PEXTMAX
 10
-1e+20
 20
-1e+20
 30
-1e+20
  9
$PLIMMIN
 10
-0.0
 20
-0.0
  9
$PLIMMAX
 10
841.0
 20
594.0
  9
$UNITMODE
 70
0
  9
$VISRETAIN
 70
1
  9
$PLINEGEN
 70
0
  9
$PSLTSCALE
 70
1
  9
$TREEDEPTH
 70
3020
  9
$CMLSTYLE
  2
Standard
  9
$CMLJUST
 70
0
  9
$CMLSCALE
 40
20.0
  9
$PROXYGRAPHICS
 70
1
  9
$MEASUREMENT
 70
1
  9
$CELWEIGHT
370
-1
  9
$ENDCAPS
280
0
  9
$JOINSTYLE
280
0
  9
$LWDISPLAY
290
1
  9
$INSUNITS
 70
6
  9
$HYPERLINKBASE
  1

  9
$STYLESHEET
  1

  9
$XEDIT
290
1
  9
$CEPSNTYPE
380
0
  9
$PSTYLEMODE
290
1
  9
$FINGERPRINTGUID
  2
{E62CFF98-A7A2-4FF1-955F-9EA7702F180F}
  9
$VERSIONGUID
  2
{C8476665-03EB-4EA0-A229-9099CCF22141}
  9
$EXTNAMES
290
1
  9
$PSVPSCALE
 40
0.0
  9
$OLESTARTUP
290
0
  9
$SORTENTS
280
127
  9
$INDEXCTL
280
0
  9
$HIDETEXT
280
1
  9
$XCLIPFRAME
280
1
  9
$HALOGAP
280
0
  9
$OBSCOLOR
 70
257
  9
$OBSLTYPE
280
0
  9
$INTERSECTIONDISPLAY
280
0
  9
$INTERSECTIONCOLOR
 70
257
  9
$DIMASSOC
280
2
  9
$PROJECTNAME
  1

  9
$CAMERADISPLAY
290
0
  9
$LENSLENGTH
 40
50.0
  9
$CAMERAHEIGHT
 40
0.0
  9
$STEPSPERSEC
 40
24.0
  9
$STEPSIZE
 40
100.0
  9
$3DDWFPREC
 40
2.0
  9
$PSOLWIDTH
 40
0.005
  9
$PSOLHEIGHT
 40
0.08
  9
$LOFTANG1
 40
1.570796326795
  9
$LOFTANG2
 40
1.570796326795
  9
$LOFTMAG1
 40
0.0
  9
$LOFTMAG2
 40
0.0
  9
$LOFTPARAM
 70
7
  9
$LOFTNORMALS
280
1
  9
$LATITUDE
 40
37.795
  9
$LONGITUDE
 40
-122.394
  9
$NORTHDIRECTION
 40
0.0
  9
$TIMEZONE
 70
-8000
  9
$LIGHTGLYPHDISPLAY
280
1
  9
$TILEMODELIGHTSYNCH
280
1
  9
$CMATERIAL
347
20
  9
$SOLIDHIST
280
0
  9
$SHOWHIST
280
1
  9
$DWFFRAME
280
2
  9
$DGNFRAME
280
2
  9
$REALWORLDSCALE
290
1
  9
$INTERFERECOLOR
 62
256
  9
$CSHADOW
280
0
  9
$SHADOWPLANELOCATION
 40
0.0
  0
ENDSEC
  0
SECTION
  2
CLASSES
  0
CLASS
  1
ACDBDICTIONARYWDFLT
  2
AcDbDictionaryWithDefault
  3
ObjectDBX Classes
 90
0
 91
0
280
0
281
0
  0
CLASS
  1
SUN
  2
AcDbSun
  3
SCENEOE
 90
1153
 91
0
280
0
281
0
  0
CLASS
  1
VISUALSTYLE
  2
AcDbVisualStyle
  3
ObjectDBX Classes
 90
4095
 91
0
280
0
281
0
  0
CLASS
  1
MATERIAL
  2
AcDbMaterial
  3
ObjectDBX Classes
 90
1153
 91
0
280
0
281
0
  0
CLASS
  1
SCALE
  2
AcDbScale
  3
ObjectDBX Classes
 90
1153
 91
0
280
0
281
0
  0
CLASS
  1
TABLESTYLE
  2
AcDbTableStyle
  3
ObjectDBX Classes
 90
4095
 91
0
280
0
281
0
  0
CLASS
  1
MLEADERSTYLE
  2
AcDbMLeaderStyle
  3
ACDB_MLEADERSTYLE_CLASS
 90
4095
 91
0
280
0
281
0
  0
CLASS
  1
DICTIONARYVAR
  2
AcDbDictionaryVar
  3
ObjectDBX Classes
 90
0
 91
0
280
0
281
0
  0
CLASS
  1
CELLSTYLEMAP
  2
AcDbCellStyleMap
  3
ObjectDBX Classes
 90
1152
 91
0
280
0
281
0
  0
CLASS
  1
MENTALRAYRENDERSETTINGS
  2
AcDbMentalRayRenderSettings
  3
SCENEOE
 90
1024
 91
0
280
0
281
0
  0
CLASS
  1
ACDBDETAILVIEWSTYLE
  2
AcDbDetailViewStyle
  3
ObjectDBX Classes
 90
1025
 91
0
280
0
281
0
  0
CLASS
  1
ACDBSECTIONVIEWSTYLE
  2
AcDbSectionViewStyle
  3
ObjectDBX Classes
 90
1025
 91
0
280
0
281
0
  0
CLASS
  1
RASTERVARIABLES
  2
AcDbRasterVariables
  3
ISM
 90
0
 91
0
280
0
281
0
  0
CLASS
  1
IMAGE
  2
AcDbRasterImage
  3
ISM
 90
2175
 91
0
280
0
281
1
  0
CLASS
  1
IMAGEDEF
  2
AcDbRasterImageDef
  3
ISM
 90
0
 91
0
280
0
281
0
  0
CLASS
  1
IMAGEDEF_REACTOR
  2
AcDbRasterImageDefReactor
  3
ISM
 90
1
 91
0
280
0
281
0
  0
CLASS
  1
ACDBPLACEHOLDER
  2
AcDbPlaceHolder
  3
ObjectDBX Classes
 90
0
 91
0
280
0
281
0
  0
CLASS
  1
LAYOUT
  2
AcDbLayout
  3
ObjectDBX Classes
 90
0
 91
0
280
0
281
0
  0
ENDSEC
  0
SECTION
  2
TABLES
  0
TABLE
  2
VPORT
  5
8
330
0
100
AcDbSymbolTable
 70
1
  0
VPORT
  5
23
330
8
100
AcDbSymbolTableRecord
100
AcDbViewportTableRecord
  2
*Active
 70
0
 10
0.0
 20
0.0
 11
1.0
 21
1.0
 12
0.0
 22
0.0
 13
0.0
 23
0.0
 14
0.5
 24
0.5
 15
0.5
 25
0.5
 16
0.0
 26
0.0
 36
1.0
 17
0.0
 27
0.0
 37
0.0
 40
1000.0
 41
1.34
 42
50.0
 43
0.0
 44
0.0
 50
0.0
 51
0.0
 71
0
 72
1000
 73
1
 74
3
 75
0
 76
0
 77
0
 78
0
281
0
 65
0
146
0.0
  0
ENDTAB
  0
TABLE
  2
LTYPE
  5
2
330
0
100
AcDbSymbolTable
 70
21
  0
LTYPE
  5
24
330
2
100
AcDbSymbolTableRecord
100
AcDbLinetypeTableRecord
  2
ByBlock
 70
0
  3

 72
65
 73
0
 40
0.0
  0
LTYPE
  5
25
330
2
100
AcDbSymbolTableRecord
100
AcDbLinetypeTableRecord
  2
ByLayer
 70
0
  3

 72
65
 73
0
 40
0.0
  0
LTYPE
  5
26
330
2
100
AcDbSymbolTableRecord
100
AcDbLinetypeTableRecord
  2
Continuous
 70
0
  3

 72
65
 73
0
 40
0.0
  0
LTYPE
  5
2F
330
2
100
AcDbSymbolTableRecord
100
AcDbLinetypeTableRecord
  2
CENTER
 70
0
  3
Center ____ _ ____ _ ____ _ ____ _ ____ _ ____
 72
65
 73
4
 40
5.08
 49
3.175
 74
0
 49
-0.635
 74
0
 49
0.635
 74
0
 49
-0.635
 74
0
  0
LTYPE
  5
30
330
2
100
AcDbSymbolTableRecord
100
AcDbLinetypeTableRecord
  2
CENTERX2
 70
0
  3
Center (2x) ________  __  ________  __  ________
 72
65
 73
4
 40
8.89
 49
6.35
 74
0
 49
-0.635
 74
0
 49
1.27
 74
0
 49
-0.635
 74
0
  0
LTYPE
  5
31
330
2
100
AcDbSymbolTableRecord
100
AcDbLinetypeTableRecord
  2
CENTER2
 70
0
  3
Center (.5x) ____ _ ____ _ ____ _ ____ _ ____
 72
65
 73
4
 40
2.54
 49
1.587
 74
0
 49
-0.318
 74
0
 49
0.318
 74
0
 49
-0.318
 74
0
  0
LTYPE
  5
32
330
2
100
AcDbSymbolTableRecord
100
AcDbLinetypeTableRecord
  2
DASHED
 70
0
  3
Dashed __ __ __ __ __ __ __ __ __ __ __ __ __ _
 72
65
 73
2
 40
1.524
 49
1.27
 74
0
 49
-0.254
 74
0
  0
LTYPE
  5
33
330
2
100
AcDbSymbolTableRecord
100
AcDbLinetypeTableRecord
  2
DASHEDX2
 70
0
  3
Dashed (2x) ____  ____  ____  ____  ____  ____
 72
65
 73
2
 40
3.048
 49
2.54
 74
0
 49
-0.508
 74
0
  0
LTYPE
  5
34
330
2
100
AcDbSymbolTableRecord
100
AcDbLinetypeTableRecord
  2
DASHED2
 70
0
  3
Dashed (.5x) _ _ _ _ _ _ _ _ _ _ _ _ _ _
 72
65
 73
2
 40
0.762
 49
0.635
 74
0
 49
-0.127
 74
0
  0
LTYPE
  5
35
330
2
100
AcDbSymbolTableRecord
100
AcDbLinetypeTableRecord
  2
PHANTOM
 70
0
  3
Phantom ______  __  __  ______  __  __  ______
 72
65
 73
6
 40
6.35
 49
3.175
 74
0
 49
-0.635
 74
0
 49
0.635
 74
0
 49
-0.635
 74
0
 49
0.635
 74
0
 49
-0.635
 74
0
  0
LTYPE
  5
36
330
2
100
AcDbSymbolTableRecord
100
AcDbLinetypeTableRecord
  2
PHANTOMX2
 70
0
  3
Phantom (2x)____________    ____    ____    ____________
 72
65
 73
6
 40
10.795
 49
6.35
 74
0
 49
-0.635
 74
0
 49
1.27
 74
0
 49
-0.635
 74
0
 49
1.27
 74
0
 49
-0.635
 74
0
  0
LTYPE
  5
37
330
2
100
AcDbSymbolTableRecord
100
AcDbLinetypeTableRecord
  2
PHANTOM2
 70
0
  3
Phantom (.5x) ___ _ _ ___ _ _ ___ _ _ ___ _ _ ___
 72
65
 73
6
 40
3.175
 49
1.587
 74
0
 49
-0.318
 74
0
 49
0.318
 74
0
 49
-0.318
 74
0
 49
0.318
 74
0
 49
-0.318
 74
0
  0
LTYPE
  5
38
330
2
100
AcDbSymbolTableRecord
100
AcDbLinetypeTableRecord
  2
DASHDOT
 70
0
  3
Dash dot __ . __ . __ . __ . __ . __ . __ . __
 72
65
 73
4
 40
3.556
 49
2.54
 74
0
 49
-0.508
 74
0
 49
0.0
 74
0
 49
-0.508
 74
0
  0
LTYPE
  5
39
330
2
100
AcDbSymbolTableRecord
100
AcDbLinetypeTableRecord
  2
DASHDOTX2
 70
0
  3
Dash dot (2x) ____  .  ____  .  ____  .  ____
 72
65
 73
4
 40
6.096
 49
5.08
 74
0
 49
-0.508
 74
0
 49
0.0
 74
0
 49
-0.508
 74
0
  0
LTYPE
  5
3A
330
2
100
AcDbSymbolTableRecord
100
AcDbLinetypeTableRecord
  2
DASHDOT2
 70
0
  3
Dash dot (.5x) _ . _ . _ . _ . _ . _ . _ . _
 72
65
 73
4
 40
1.778
 49
1.27
 74
0
 49
-0.254
 74
0
 49
0.0
 74
0
 49
-0.254
 74
0
  0
LTYPE
  5
3B
330
2
100
AcDbSymbolTableRecord
100
AcDbLinetypeTableRecord
  2
DOT
 70
0
  3
Dot .  .  .  .  .  .  .  .  .  .  .  .  .  .  .  .
 72
65
 73
2
 40
0.508
 49
0.0
 74
0
 49
-0.508
 74
0
  0
LTYPE
  5
3C
330
2
100
AcDbSymbolTableRecord
100
AcDbLinetypeTableRecord
  2
DOTX2
 70
0
  3
Dot (2x) .    .    .    .    .    .    .    . 
 72
65
 73
2
 40
1.016
 49
0.0
 74
0
 49
-1.016
 74
0
  0
LTYPE
  5
3D
330
2
100
AcDbSymbolTableRecord
100
AcDbLinetypeTableRecord
  2
DOT2
 70
0
  3
Dot (.5) . . . . . . . . . . . . . . . . . . . 
 72
65
 73
2
 40
0.254
 49
0.0
 74
0
 49
-0.254
 74
0
  0
LTYPE
  5
3E
330
2
100
AcDbSymbolTableRecord
100
AcDbLinetypeTableRecord
  2
DIVIDE
 70
0
  3
Divide __ . . __ . . __ . . __ . . __ . . __
 72
65
 73
6
 40
4.064
 49
2.54
 74
0
 49
-0.508
 74
0
 49
0.0
 74
0
 49
-0.508
 74
0
 49
0.0
 74
0
 49
-0.508
 74
0
  0
LTYPE
  5
3F
330
2
100
AcDbSymbolTableRecord
100
AcDbLinetypeTableRecord
  2
DIVIDEX2
 70
0
  3
Divide (2x) ____  . .  ____  . .  ____  . .  ____
 72
65
 73
6
 40
6.604
 49
5.08
 74
0
 49
-0.508
 74
0
 49
0.0
 74
0
 49
-0.508
 74
0
 49
0.0
 74
0
 49
-0.508
 74
0
  0
LTYPE
  5
40
330
2
100
AcDbSymbolTableRecord
100
AcDbLinetypeTableRecord
  2
DIVIDE2
 70
0
  3
Divide(.5x) _ . _ . _ . _ . _ . _ . _ . _
 72
65
 73
6
 40
2.032
 49
1.27
 74
0
 49
-0.254
 74
0
 49
0.0
 74
0
 49
-0.254
 74
0
 49
0.0
 74
0
 49
-0.254
 74
0
  0
ENDTAB
  0
TABLE
  2
LAYER
  5
1
330
0
100
AcDbSymbolTable
 70
43
  0
LAYER
  5
27
330
1
100
AcDbSymbolTableRecord
100
AcDbLayerTableRecord
  2
0
 70
0
 62
7
  6
Continuous
370
-3
390
13
347
21
  0
LAYER
  5
28
330
1
100
AcDbSymbolTableRecord
100
AcDbLayerTableRecord
  2
Defpoints
 70
0
 62
7
  6
Continuous
290
0
370
-3
390
13
347
21
  0
LAYER
  5
8B
330
1
100
AcDbSymbolTableRecord
100
AcDbLayerTableRecord
  2
A-MARCO
 70
0
 62
7
  6
Continuous
370
70
390
13
347
21
  0
LAYER
  5
8C
330
1
100
AcDbSymbolTableRecord
100
AcDbLayerTableRecord
  2
A-CAJETIN
 70
0
 62
7
  6
Continuous
370
35
390
13
347
21
  0
LAYER
  5
8D
330
1
100
AcDbSymbolTableRecord
100
AcDbLayerTableRecord
  2
A-CAJETIN-TXT
 70
0
 62
7
  6
Continuous
370
25
390
13
347
21
  0
LAYER
  5
8E
330
1
100
AcDbSymbolTableRecord
100
AcDbLayerTableRecord
  2
A-TITULOS
 70
0
 62
7
  6
Continuous
370
35
390
13
347
21
  0
LAYER
  5
8F
330
1
100
AcDbSymbolTableRecord
100
AcDbLayerTableRecord
  2
A-TEXTO
 70
0
 62
7
  6
Continuous
370
18
390
13
347
21
  0
LAYER
  5
90
330
1
100
AcDbSymbolTableRecord
100
AcDbLayerTableRecord
  2
A-TABLAS
 70
0
 62
7
  6
Continuous
370
25
390
13
347
21
  0
LAYER
  5
91
330
1
100
AcDbSymbolTableRecord
100
AcDbLayerTableRecord
  2
A-NOTAS
 70
0
 62
7
  6
Continuous
370
18
390
13
347
21
  0
LAYER
  5
92
330
1
100
AcDbSymbolTableRecord
100
AcDbLayerTableRecord
  2
A-ESCALA-GRAF
 70
0
 62
7
  6
Continuous
370
18
390
13
347
21
  0
LAYER
  5
93
330
1
100
AcDbSymbolTableRecord
100
AcDbLayerTableRecord
  2
A-NORTE
 70
0
 62
7
  6
Continuous
370
25
390
13
347
21
  0
LAYER
  5
94
330
1
100
AcDbSymbolTableRecord
100
AcDbLayerTableRecord
  2
A-IMAGEN-REF
 70
0
 62
7
  6
Continuous
370
13
390
13
347
21
  0
LAYER
  5
95
330
1
100
AcDbSymbolTableRecord
100
AcDbLayerTableRecord
  2
A-VIEWPORT
 70
0
 62
8
  6
Continuous
290
0
370
13
390
13
347
21
  0
LAYER
  5
96
330
1
100
AcDbSymbolTableRecord
100
AcDbLayerTableRecord
  2
A-PENDIENTE
 70
0
 62
1
  6
Continuous
370
25
390
13
347
21
  0
LAYER
  5
97
330
1
100
AcDbSymbolTableRecord
100
AcDbLayerTableRecord
  2
T-LINDERO
 70
0
 62
7
  6
Continuous
370
50
390
13
347
21
  0
LAYER
  5
98
330
1
100
AcDbSymbolTableRecord
100
AcDbLayerTableRecord
  2
T-VERTICE
 70
0
 62
7
  6
Continuous
370
25
390
13
347
21
  0
LAYER
  5
99
330
1
100
AcDbSymbolTableRecord
100
AcDbLayerTableRecord
  2
T-CALLE
 70
0
 62
8
  6
DASHED
370
18
390
13
347
21
  0
LAYER
  5
9A
330
1
100
AcDbSymbolTableRecord
100
AcDbLayerTableRecord
  2
T-TXT-200
 70
0
 62
7
  6
Continuous
370
18
390
13
347
21
  0
LAYER
  5
9B
330
1
100
AcDbSymbolTableRecord
100
AcDbLayerTableRecord
  2
T-COTA-200
 70
0
 62
7
  6
Continuous
370
18
390
13
347
21
  0
LAYER
  5
9C
330
1
100
AcDbSymbolTableRecord
100
AcDbLayerTableRecord
  2
T-TXT-100
 70
0
 62
7
  6
Continuous
370
18
390
13
347
21
  0
LAYER
  5
9D
330
1
100
AcDbSymbolTableRecord
100
AcDbLayerTableRecord
  2
T-COTA-100
 70
0
 62
7
  6
Continuous
370
18
390
13
347
21
  0
LAYER
  5
9E
330
1
100
AcDbSymbolTableRecord
100
AcDbLayerTableRecord
  2
A-HUELLA
 70
0
 62
7
  6
Continuous
370
35
390
13
347
21
  0
LAYER
  5
9F
330
1
100
AcDbSymbolTableRecord
100
AcDbLayerTableRecord
  2
A-HUELLA-TRAMA
 70
0
 62
8
  6
Continuous
370
9
390
13
347
21
  0
LAYER
  5
A0
330
1
100
AcDbSymbolTableRecord
100
AcDbLayerTableRecord
  2
A-PATIO
 70
0
 62
7
  6
Continuous
370
25
390
13
347
21
  0
LAYER
  5
A1
330
1
100
AcDbSymbolTableRecord
100
AcDbLayerTableRecord
  2
A-RETIRO
 70
0
 62
8
  6
DASHED2
370
18
390
13
347
21
  0
LAYER
  5
A2
330
1
100
AcDbSymbolTableRecord
100
AcDbLayerTableRecord
  2
A-MURO
 70
0
 62
7
  6
Continuous
370
50
390
13
347
21
  0
LAYER
  5
A3
330
1
100
AcDbSymbolTableRecord
100
AcDbLayerTableRecord
  2
A-MURO-TRAMA
 70
0
 62
8
  6
Continuous
370
9
390
13
347
21
  0
LAYER
  5
A4
330
1
100
AcDbSymbolTableRecord
100
AcDbLayerTableRecord
  2
A-PUERTA
 70
0
 62
7
  6
Continuous
370
25
390
13
347
21
  0
LAYER
  5
A5
330
1
100
AcDbSymbolTableRecord
100
AcDbLayerTableRecord
  2
A-VENTANA
 70
0
 62
7
  6
Continuous
370
25
390
13
347
21
  0
LAYER
  5
A6
330
1
100
AcDbSymbolTableRecord
100
AcDbLayerTableRecord
  2
A-ESCALERA
 70
0
 62
7
  6
Continuous
370
25
390
13
347
21
  0
LAYER
  5
A7
330
1
100
AcDbSymbolTableRecord
100
AcDbLayerTableRecord
  2
A-VEHICULO
 70
0
 62
8
  6
Continuous
370
18
390
13
347
21
  0
LAYER
  5
A8
330
1
100
AcDbSymbolTableRecord
100
AcDbLayerTableRecord
  2
A-MOBILIARIO
 70
0
 62
8
  6
Continuous
370
18
390
13
347
21
  0
LAYER
  5
A9
330
1
100
AcDbSymbolTableRecord
100
AcDbLayerTableRecord
  2
A-DEMARCACION
 70
0
 62
8
  6
DASHED
370
18
390
13
347
21
  0
LAYER
  5
AA
330
1
100
AcDbSymbolTableRecord
100
AcDbLayerTableRecord
  2
A-PROYECCION
 70
0
 62
8
  6
DASHED
370
18
390
13
347
21
  0
LAYER
  5
AB
330
1
100
AcDbSymbolTableRecord
100
AcDbLayerTableRecord
  2
A-EJES
 70
0
 62
8
  6
CENTER
370
13
390
13
347
21
  0
LAYER
  5
AC
330
1
100
AcDbSymbolTableRecord
100
AcDbLayerTableRecord
  2
A-EJES-TXT
 70
0
 62
7
  6
Continuous
370
25
390
13
347
21
  0
LAYER
  5
AD
330
1
100
AcDbSymbolTableRecord
100
AcDbLayerTableRecord
  2
A-COTA-50
 70
0
 62
7
  6
Continuous
370
18
390
13
347
21
  0
LAYER
  5
AE
330
1
100
AcDbSymbolTableRecord
100
AcDbLayerTableRecord
  2
A-TXT-50
 70
0
 62
7
  6
Continuous
370
18
390
13
347
21
  0
LAYER
  5
AF
330
1
100
AcDbSymbolTableRecord
100
AcDbLayerTableRecord
  2
A-ESPACIOS
 70
0
 62
7
  6
Continuous
370
25
390
13
347
21
  0
LAYER
  5
B0
330
1
100
AcDbSymbolTableRecord
100
AcDbLayerTableRecord
  2
A-NIVELES
 70
0
 62
7
  6
Continuous
370
18
390
13
347
21
  0
LAYER
  5
B1
330
1
100
AcDbSymbolTableRecord
100
AcDbLayerTableRecord
  2
A-CORTES
 70
0
 62
7
  6
Continuous
370
35
390
13
347
21
  0
LAYER
  5
B2
330
1
100
AcDbSymbolTableRecord
100
AcDbLayerTableRecord
  2
A-JARDIN
 70
0
 62
8
  6
Continuous
370
9
390
13
347
21
  0
LAYER
  5
B3
330
1
100
AcDbSymbolTableRecord
100
AcDbLayerTableRecord
  2
E-COLUMNA
 70
0
 62
7
  6
Continuous
370
35
390
13
347
21
  0
ENDTAB
  0
TABLE
  2
STYLE
  5
5
330
0
100
AcDbSymbolTable
 70
27
  0
STYLE
  5
29
330
5
100
AcDbSymbolTableRecord
100
AcDbTextStyleTableRecord
  2
Standard
 70
0
 40
0.0
 41
1.0
 50
0.0
 71
0
 42
2.5
  3
txt
  4

  0
STYLE
  5
41
330
5
100
AcDbSymbolTableRecord
100
AcDbTextStyleTableRecord
  2
OpenSans-Light
 70
0
 40
0.0
 41
1.0
 50
0.0
 71
0
 42
2.5
  3
OpenSans-Light.ttf
  4

  0
STYLE
  5
42
330
5
100
AcDbSymbolTableRecord
100
AcDbTextStyleTableRecord
  2
OpenSans-Light-Italic
 70
0
 40
0.0
 41
1.0
 50
0.0
 71
0
 42
2.5
  3
OpenSans-LightItalic.ttf
  4

  0
STYLE
  5
43
330
5
100
AcDbSymbolTableRecord
100
AcDbTextStyleTableRecord
  2
OpenSans
 70
0
 40
0.0
 41
1.0
 50
0.0
 71
0
 42
2.5
  3
OpenSans-Regular.ttf
  4

  0
STYLE
  5
44
330
5
100
AcDbSymbolTableRecord
100
AcDbTextStyleTableRecord
  2
OpenSans-Italic
 70
0
 40
0.0
 41
1.0
 50
0.0
 71
0
 42
2.5
  3
OpenSans-Italic.ttf
  4

  0
STYLE
  5
45
330
5
100
AcDbSymbolTableRecord
100
AcDbTextStyleTableRecord
  2
OpenSans-SemiBold
 70
0
 40
0.0
 41
1.0
 50
0.0
 71
0
 42
2.5
  3
OpenSans-SemiBold.ttf
  4

  0
STYLE
  5
46
330
5
100
AcDbSymbolTableRecord
100
AcDbTextStyleTableRecord
  2
OpenSans-SemiBoldItalic
 70
0
 40
0.0
 41
1.0
 50
0.0
 71
0
 42
2.5
  3
OpenSans-SemiBoldItalic.ttf
  4

  0
STYLE
  5
47
330
5
100
AcDbSymbolTableRecord
100
AcDbTextStyleTableRecord
  2
OpenSans-Bold
 70
0
 40
0.0
 41
1.0
 50
0.0
 71
0
 42
2.5
  3
OpenSans-Bold.ttf
  4

  0
STYLE
  5
48
330
5
100
AcDbSymbolTableRecord
100
AcDbTextStyleTableRecord
  2
OpenSans-BoldItalic
 70
0
 40
0.0
 41
1.0
 50
0.0
 71
0
 42
2.5
  3
OpenSans-BoldItalic.ttf
  4

  0
STYLE
  5
49
330
5
100
AcDbSymbolTableRecord
100
AcDbTextStyleTableRecord
  2
OpenSans-ExtraBold
 70
0
 40
0.0
 41
1.0
 50
0.0
 71
0
 42
2.5
  3
OpenSans-ExtraBold.ttf
  4

  0
STYLE
  5
4A
330
5
100
AcDbSymbolTableRecord
100
AcDbTextStyleTableRecord
  2
OpenSans-ExtraBoldItalic
 70
0
 40
0.0
 41
1.0
 50
0.0
 71
0
 42
2.5
  3
OpenSans-ExtraBoldItalic.ttf
  4

  0
STYLE
  5
4B
330
5
100
AcDbSymbolTableRecord
100
AcDbTextStyleTableRecord
  2
OpenSansCondensed-Bold
 70
0
 40
0.0
 41
1.0
 50
0.0
 71
0
 42
2.5
  3
OpenSansCondensed-Bold.ttf
  4

  0
STYLE
  5
4C
330
5
100
AcDbSymbolTableRecord
100
AcDbTextStyleTableRecord
  2
OpenSansCondensed-Light
 70
0
 40
0.0
 41
1.0
 50
0.0
 71
0
 42
2.5
  3
OpenSansCondensed-Light.ttf
  4

  0
STYLE
  5
4D
330
5
100
AcDbSymbolTableRecord
100
AcDbTextStyleTableRecord
  2
OpenSansCondensed-Italic
 70
0
 40
0.0
 41
1.0
 50
0.0
 71
0
 42
2.5
  3
OpenSansCondensed-LightItalic.ttf
  4

  0
STYLE
  5
4E
330
5
100
AcDbSymbolTableRecord
100
AcDbTextStyleTableRecord
  2
LiberationSans
 70
0
 40
0.0
 41
1.0
 50
0.0
 71
0
 42
2.5
  3
LiberationSans-Regular.ttf
  4

  0
STYLE
  5
4F
330
5
100
AcDbSymbolTableRecord
100
AcDbTextStyleTableRecord
  2
LiberationSans-Bold
 70
0
 40
0.0
 41
1.0
 50
0.0
 71
0
 42
2.5
  3
LiberationSans-Bold.ttf
  4

  0
STYLE
  5
50
330
5
100
AcDbSymbolTableRecord
100
AcDbTextStyleTableRecord
  2
LiberationSans-BoldItalic
 70
0
 40
0.0
 41
1.0
 50
0.0
 71
0
 42
2.5
  3
LiberationSans-BoldItalic.ttf
  4

  0
STYLE
  5
51
330
5
100
AcDbSymbolTableRecord
100
AcDbTextStyleTableRecord
  2
LiberationSans-Italic
 70
0
 40
0.0
 41
1.0
 50
0.0
 71
0
 42
2.5
  3
LiberationSans-Italic.ttf
  4

  0
STYLE
  5
52
330
5
100
AcDbSymbolTableRecord
100
AcDbTextStyleTableRecord
  2
LiberationSerif
 70
0
 40
0.0
 41
1.0
 50
0.0
 71
0
 42
2.5
  3
LiberationSerif-Regular.ttf
  4

  0
STYLE
  5
53
330
5
100
AcDbSymbolTableRecord
100
AcDbTextStyleTableRecord
  2
LiberationSerif-Bold
 70
0
 40
0.0
 41
1.0
 50
0.0
 71
0
 42
2.5
  3
LiberationSerif-Bold.ttf
  4

  0
STYLE
  5
54
330
5
100
AcDbSymbolTableRecord
100
AcDbTextStyleTableRecord
  2
LiberationSerif-BoldItalic
 70
0
 40
0.0
 41
1.0
 50
0.0
 71
0
 42
2.5
  3
LiberationSerif-BoldItalic.ttf
  4

  0
STYLE
  5
55
330
5
100
AcDbSymbolTableRecord
100
AcDbTextStyleTableRecord
  2
LiberationSerif-Italic
 70
0
 40
0.0
 41
1.0
 50
0.0
 71
0
 42
2.5
  3
LiberationSerif-Italic.ttf
  4

  0
STYLE
  5
56
330
5
100
AcDbSymbolTableRecord
100
AcDbTextStyleTableRecord
  2
LiberationMono
 70
0
 40
0.0
 41
1.0
 50
0.0
 71
0
 42
2.5
  3
LiberationMono-Regular.ttf
  4

  0
STYLE
  5
57
330
5
100
AcDbSymbolTableRecord
100
AcDbTextStyleTableRecord
  2
LiberationMono-Bold
 70
0
 40
0.0
 41
1.0
 50
0.0
 71
0
 42
2.5
  3
LiberationMono-Bold.ttf
  4

  0
STYLE
  5
58
330
5
100
AcDbSymbolTableRecord
100
AcDbTextStyleTableRecord
  2
LiberationMono-BoldItalic
 70
0
 40
0.0
 41
1.0
 50
0.0
 71
0
 42
2.5
  3
LiberationMono-BoldItalic.ttf
  4

  0
STYLE
  5
59
330
5
100
AcDbSymbolTableRecord
100
AcDbTextStyleTableRecord
  2
LiberationMono-Italic
 70
0
 40
0.0
 41
1.0
 50
0.0
 71
0
 42
2.5
  3
LiberationMono-Italic.ttf
  4

  0
STYLE
  5
8A
330
5
100
AcDbSymbolTableRecord
100
AcDbTextStyleTableRecord
  2
ARIAL
 70
0
 40
0.0
 41
1.0
 50
0.0
 71
0
 42
2.5
  3
arial.ttf
  4

  0
ENDTAB
  0
TABLE
  2
VIEW
  5
7
330
0
100
AcDbSymbolTable
 70
0
  0
ENDTAB
  0
TABLE
  2
UCS
  5
6
330
0
100
AcDbSymbolTable
 70
1
  0
UCS
  5
C2
330
6
100
AcDbSymbolTableRecord
100
AcDbUCSTableRecord
  2
CRTM05
 70
0
 10
-541190.9422756801
 20
-1082031.2332330009
 30
0.0
 11
0.9988784298161442
 21
-0.047348521075471196
 31
0.0
 12
0.047348521075471196
 22
0.9988784298161442
 32
0.0
  0
ENDTAB
  0
TABLE
  2
APPID
  5
3
330
0
100
AcDbSymbolTable
 70
3
  0
APPID
  5
2A
330
3
100
AcDbSymbolTableRecord
100
AcDbRegAppTableRecord
  2
ACAD
 70
0
  0
APPID
  5
365
330
3
100
AcDbSymbolTableRecord
100
AcDbRegAppTableRecord
  2
HATCHBACKGROUNDCOLOR
 70
0
  0
APPID
  5
366
330
3
100
AcDbSymbolTableRecord
100
AcDbRegAppTableRecord
  2
EZDXF
 70
0
  0
ENDTAB
  0
TABLE
  2
DIMSTYLE
  5
4
330
0
100
AcDbSymbolTable
 70
15
100
AcDbDimStyleTable
  0
DIMSTYLE
105
2B
330
4
100
AcDbSymbolTableRecord
100
AcDbDimStyleTableRecord
  2
Standard
 70
0
 40
1.0
 41
2.5
 42
0.625
 43
3.75
 44
1.25
 45
0.0
 46
0.0
 47
0.0
 48
0.0
 49
2.5
140
2.5
141
2.5
142
0.0
143
0.03937007874
144
1.0
145
0.0
146
1.0
147
0.625
148
0.0
 69
0
 70
0
 71
0
 72
0
 73
0
 74
0
 75
0
 76
0
 77
1
 78
8
 79
3
170
0
171
3
172
1
173
0
174
0
175
0
176
0
177
0
178
0
179
2
271
2
272
2
273
2
274
3
275
0
276
0
277
2
278
44
279
0
280
0
281
0
282
0
283
0
284
8
285
0
286
0
288
0
289
3
290
0
371
-2
372
-2
  0
DIMSTYLE
105
73
330
4
100
AcDbSymbolTableRecord
100
AcDbDimStyleTableRecord
  2
EZDXF
 70
0
 40
1.0
 41
0.175
 42
0.125
 43
3.75
 44
0.375
 45
0.0
 46
0.0
 47
0.0
 48
0.0
 49
2.5
140
0.25
141
2.5
142
0.0
143
0.03937007874
144
100.0
145
0.0
146
0.5
147
0.1
148
0.0
 69
0
 70
0
 71
0
 72
0
 73
0
 74
0
 75
0
 76
0
 77
1
 78
12
 79
3
170
0
171
3
172
1
173
0
174
0
175
0
176
0
177
0
178
0
179
2
271
2
272
2
273
2
274
3
275
0
276
0
277
2
278
46
279
2
280
0
281
0
282
0
283
0
284
8
285
0
286
0
288
1
289
3
290
0
340
4C
342
74
371
-2
372
-2
  0
DIMSTYLE
105
7C
330
4
100
AcDbSymbolTableRecord
100
AcDbDimStyleTableRecord
  2
EZ_M_100_H25_CM
 70
0
 40
1.0
 41
0.25
 42
0.125
 43
3.75
 44
0.375
 45
0.0
 46
0.0
 47
0.0
 48
0.0
 49
2.5
140
0.25
141
2.5
142
0.125
143
0.03937007874
144
100.0
145
0.0
146
0.5
147
0.1
148
0.0
 69
0
 70
0
 71
0
 72
0
 73
0
 74
0
 75
0
 76
0
 77
1
 78
12
 79
3
170
0
171
3
172
1
173
0
174
0
175
0
176
0
177
0
178
0
179
2
271
2
272
2
273
2
274
3
275
0
276
0
277
2
278
46
279
2
280
0
281
0
282
0
283
0
284
8
285
0
286
0
288
1
289
3
290
0
340
4C
371
-2
372
-2
  0
DIMSTYLE
105
7D
330
4
100
AcDbSymbolTableRecord
100
AcDbDimStyleTableRecord
  2
EZ_M_50_H25_CM
 70
0
 40
1.0
 41
0.125
 42
0.0625
 43
3.75
 44
0.1875
 45
0.0
 46
0.0
 47
0.0
 48
0.0
 49
2.5
140
0.125
141
2.5
142
0.0625
143
0.03937007874
144
100.0
145
0.0
146
0.5
147
0.05
148
0.0
 69
0
 70
0
 71
0
 72
0
 73
0
 74
0
 75
0
 76
0
 77
1
 78
12
 79
3
170
0
171
3
172
1
173
0
174
0
175
0
176
0
177
0
178
0
179
2
271
2
272
2
273
2
274
3
275
0
276
0
277
2
278
46
279
2
280
0
281
0
282
0
283
0
284
8
285
0
286
0
288
1
289
3
290
0
340
4C
371
-2
372
-2
  0
DIMSTYLE
105
7E
330
4
100
AcDbSymbolTableRecord
100
AcDbDimStyleTableRecord
  2
EZ_M_25_H25_CM
 70
0
 40
1.0
 41
0.0625
 42
0.03125
 43
3.75
 44
0.09375
 45
0.0
 46
0.0
 47
0.0
 48
0.0
 49
2.5
140
0.0625
141
2.5
142
0.03125
143
0.03937007874
144
100.0
145
0.0
146
0.5
147
0.025
148
0.0
 69
0
 70
0
 71
0
 72
0
 73
0
 74
0
 75
0
 76
0
 77
1
 78
12
 79
3
170
0
171
3
172
1
173
0
174
0
175
0
176
0
177
0
178
0
179
2
271
2
272
2
273
2
274
3
275
0
276
0
277
2
278
46
279
2
280
0
281
0
282
0
283
0
284
8
285
0
286
0
288
1
289
3
290
0
340
4C
371
-2
372
-2
  0
DIMSTYLE
105
7F
330
4
100
AcDbSymbolTableRecord
100
AcDbDimStyleTableRecord
  2
EZ_M_20_H25_CM
 70
0
 40
1.0
 41
0.05
 42
0.025
 43
3.75
 44
0.07500000000000001
 45
0.0
 46
0.0
 47
0.0
 48
0.0
 49
2.5
140
0.05
141
2.5
142
0.025
143
0.03937007874
144
100.0
145
0.0
146
0.5
147
0.020000000000000004
148
0.0
 69
0
 70
0
 71
0
 72
0
 73
0
 74
0
 75
0
 76
0
 77
1
 78
12
 79
3
170
0
171
3
172
1
173
0
174
0
175
0
176
0
177
0
178
0
179
2
271
2
272
2
273
2
274
3
275
0
276
0
277
2
278
46
279
2
280
0
281
0
282
0
283
0
284
8
285
0
286
0
288
1
289
3
290
0
340
4C
371
-2
372
-2
  0
DIMSTYLE
105
80
330
4
100
AcDbSymbolTableRecord
100
AcDbDimStyleTableRecord
  2
EZ_M_10_H25_CM
 70
0
 40
1.0
 41
0.025
 42
0.0125
 43
3.75
 44
0.037500000000000006
 45
0.0
 46
0.0
 47
0.0
 48
0.0
 49
2.5
140
0.025
141
2.5
142
0.0125
143
0.03937007874
144
100.0
145
0.0
146
0.5
147
0.010000000000000002
148
0.0
 69
0
 70
0
 71
0
 72
0
 73
0
 74
0
 75
0
 76
0
 77
1
 78
12
 79
3
170
0
171
3
172
1
173
0
174
0
175
0
176
0
177
0
178
0
179
2
271
2
272
2
273
2
274
3
275
0
276
0
277
2
278
46
279
2
280
0
281
0
282
0
283
0
284
8
285
0
286
0
288
1
289
3
290
0
340
4C
371
-2
372
-2
  0
DIMSTYLE
105
81
330
4
100
AcDbSymbolTableRecord
100
AcDbDimStyleTableRecord
  2
EZ_M_5_H25_CM
 70
0
 40
1.0
 41
0.0125
 42
0.00625
 43
3.75
 44
0.018750000000000003
 45
0.0
 46
0.0
 47
0.0
 48
0.0
 49
2.5
140
0.0125
141
2.5
142
0.00625
143
0.03937007874
144
100.0
145
0.0
146
0.5
147
0.005000000000000001
148
0.0
 69
0
 70
0
 71
0
 72
0
 73
0
 74
0
 75
0
 76
0
 77
1
 78
12
 79
3
170
0
171
3
172
1
173
0
174
0
175
0
176
0
177
0
178
0
179
2
271
2
272
2
273
2
274
3
275
0
276
0
277
2
278
46
279
2
280
0
281
0
282
0
283
0
284
8
285
0
286
0
288
1
289
3
290
0
340
4C
371
-2
372
-2
  0
DIMSTYLE
105
82
330
4
100
AcDbSymbolTableRecord
100
AcDbDimStyleTableRecord
  2
EZ_M_1_H25_CM
 70
0
 40
1.0
 41
0.0025
 42
0.00125
 43
3.75
 44
0.00375
 45
0.0
 46
0.0
 47
0.0
 48
0.0
 49
2.5
140
0.0025
141
2.5
142
0.00125
143
0.03937007874
144
100.0
145
0.0
146
0.5
147
0.001
148
0.0
 69
0
 70
0
 71
0
 72
0
 73
0
 74
0
 75
0
 76
0
 77
1
 78
12
 79
3
170
0
171
3
172
1
173
0
174
0
175
0
176
0
177
0
178
0
179
2
271
2
272
2
273
2
274
3
275
0
276
0
277
2
278
46
279
2
280
0
281
0
282
0
283
0
284
8
285
0
286
0
288
1
289
3
290
0
340
4C
371
-2
372
-2
  0
DIMSTYLE
105
83
330
4
100
AcDbSymbolTableRecord
100
AcDbDimStyleTableRecord
  2
EZ_RADIUS
 70
0
 40
1.0
 41
0.25
 42
0.125
 43
3.75
 44
0.375
 45
0.0
 46
0.0
 47
0.0
 48
0.0
 49
2.5
140
0.25
141
0.0
142
0.0
143
0.03937007874
144
100.0
145
0.0
146
0.5
147
0.1
148
0.0
 69
0
 70
0
 71
0
 72
0
 73
0
 74
0
 75
0
 76
0
 77
1
 78
12
 79
3
170
0
171
3
172
0
173
0
174
0
175
0
176
0
177
0
178
0
179
2
271
2
272
2
273
2
274
3
275
0
276
0
277
2
278
46
279
1
280
0
281
0
282
0
283
0
284
8
285
0
286
0
288
1
289
3
290
0
340
4C
342
84
371
-2
372
-2
  0
DIMSTYLE
105
88
330
4
100
AcDbSymbolTableRecord
100
AcDbDimStyleTableRecord
  2
EZ_RADIUS_INSIDE
 70
0
 40
1.0
 41
0.25
 42
0.125
 43
3.75
 44
0.375
 45
0.0
 46
0.0
 47
0.0
 48
0.0
 49
2.5
140
0.25
141
0.0
142
0.0
143
0.03937007874
144
100.0
145
0.0
146
0.5
147
0.1
148
0.0
 69
0
 70
0
 71
0
 72
0
 73
0
 74
0
 75
0
 76
0
 77
0
 78
12
 79
3
170
0
171
3
172
0
173
0
174
1
175
0
176
0
177
0
178
0
179
2
271
2
272
2
273
2
274
3
275
0
276
0
277
2
278
46
279
0
280
0
281
0
282
0
283
0
284
8
285
0
286
0
288
1
289
0
290
0
340
4C
342
84
371
-2
372
-2
  0
DIMSTYLE
105
89
330
4
100
AcDbSymbolTableRecord
100
AcDbDimStyleTableRecord
  2
EZ_CURVED
 70
0
 40
1.0
 41
0.25
 42
0.125
 43
3.75
 44
0.375
 45
0.0
 46
0.0
 47
0.0
 48
0.0
 49
2.5
140
0.25
141
2.5
142
0.0
143
0.03937007874
144
100.0
145
0.0
146
0.5
147
0.1
148
0.0
 69
0
 70
0
 71
0
 72
0
 73
0
 74
0
 75
0
 76
0
 77
1
 78
12
 79
2
 90
2
170
0
171
3
172
1
173
0
174
0
175
0
176
0
177
0
178
0
179
2
271
2
272
2
273
2
274
3
275
0
276
0
277
2
278
46
279
2
280
0
281
0
282
0
283
0
284
8
285
0
286
0
288
1
289
3
290
0
340
4C
371
-2
372
-2
  0
DIMSTYLE
105
B4
330
4
100
AcDbSymbolTableRecord
100
AcDbDimStyleTableRecord
  2
COTA-50
 70
0
 40
1.0
 41
0.06
 42
0.05
 43
3.75
 44
0.05
 45
0.0
 46
0.05
 47
0.0
 48
0.0
 49
2.5
140
0.11000000000000001
141
2.5
142
0.06
143
0.03937007874
144
1.0
145
0.0
146
1.0
147
0.04000000000000001
148
0.0
 69
0
 70
0
 71
0
 72
0
 73
0
 74
0
 75
0
 76
0
 77
1
 78
0
 79
3
170
0
171
3
172
1
173
0
174
0
175
0
176
7
177
7
178
7
179
2
271
2
272
2
273
2
274
3
275
0
276
0
277
2
278
46
279
0
280
0
281
0
282
0
283
0
284
8
285
0
286
0
288
0
289
3
290
0
340
8A
371
18
372
13
  0
DIMSTYLE
105
B5
330
4
100
AcDbSymbolTableRecord
100
AcDbDimStyleTableRecord
  2
COTA-100
 70
0
 40
1.0
 41
0.12
 42
0.1
 43
3.75
 44
0.1
 45
0.0
 46
0.1
 47
0.0
 48
0.0
 49
2.5
140
0.22000000000000003
141
2.5
142
0.12
143
0.03937007874
144
1.0
145
0.0
146
1.0
147
0.08000000000000002
148
0.0
 69
0
 70
0
 71
0
 72
0
 73
0
 74
0
 75
0
 76
0
 77
1
 78
0
 79
3
170
0
171
3
172
1
173
0
174
0
175
0
176
7
177
7
178
7
179
2
271
2
272
2
273
2
274
3
275
0
276
0
277
2
278
46
279
0
280
0
281
0
282
0
283
0
284
8
285
0
286
0
288
0
289
3
290
0
340
8A
371
18
372
13
  0
DIMSTYLE
105
B6
330
4
100
AcDbSymbolTableRecord
100
AcDbDimStyleTableRecord
  2
COTA-200
 70
0
 40
1.0
 41
0.24
 42
0.2
 43
3.75
 44
0.2
 45
0.0
 46
0.2
 47
0.0
 48
0.0
 49
2.5
140
0.44000000000000006
141
2.5
142
0.24
143
0.03937007874
144
1.0
145
0.0
146
1.0
147
0.16000000000000003
148
0.0
 69
0
 70
0
 71
0
 72
0
 73
0
 74
0
 75
0
 76
0
 77
1
 78
0
 79
3
170
0
171
3
172
1
173
0
174
0
175
0
176
7
177
7
178
7
179
2
271
2
272
2
273
2
274
3
275
0
276
0
277
2
278
46
279
0
280
0
281
0
282
0
283
0
284
8
285
0
286
0
288
0
289
3
290
0
340
8A
371
18
372
13
  0
ENDTAB
  0
TABLE
  2
BLOCK_RECORD
  5
9
330
0
100
AcDbSymbolTable
 70
28
  0
BLOCK_RECORD
  5
17
330
9
100
AcDbSymbolTableRecord
100
AcDbBlockTableRecord
  2
*Model_Space
340
1A
 70
0
280
1
281
0
  0
BLOCK_RECORD
  5
74
330
9
100
AcDbSymbolTableRecord
100
AcDbBlockTableRecord
  2
_ARCHTICK
340
0
 70
0
280
1
281
0
  0
BLOCK_RECORD
  5
78
330
9
100
AcDbSymbolTableRecord
100
AcDbBlockTableRecord
  2
_CLOSEDFILLED
340
0
 70
0
280
1
281
0
  0
BLOCK_RECORD
  5
84
330
9
100
AcDbSymbolTableRecord
100
AcDbBlockTableRecord
  2
_CLOSEDBLANK
340
0
 70
0
280
1
281
0
  0
BLOCK_RECORD
  5
B7
330
9
100
AcDbSymbolTableRecord
100
AcDbBlockTableRecord
  2
NORTE
340
0
 70
0
280
1
281
0
  0
BLOCK_RECORD
  5
BE
330
9
100
AcDbSymbolTableRecord
100
AcDbBlockTableRecord
  2
VERTICE
340
0
 70
0
280
1
281
0
  0
BLOCK_RECORD
  5
D9
330
9
100
AcDbSymbolTableRecord
100
AcDbBlockTableRecord
  2
*D1
340
0
 70
0
280
1
281
0
  0
BLOCK_RECORD
  5
DE
330
9
100
AcDbSymbolTableRecord
100
AcDbBlockTableRecord
  2
_OBLIQUE
340
0
 70
0
280
1
281
0
  0
BLOCK_RECORD
  5
EC
330
9
100
AcDbSymbolTableRecord
100
AcDbBlockTableRecord
  2
*D2
340
0
 70
0
280
1
281
0
  0
BLOCK_RECORD
  5
FB
330
9
100
AcDbSymbolTableRecord
100
AcDbBlockTableRecord
  2
*D3
340
0
 70
0
280
1
281
0
  0
BLOCK_RECORD
  5
10A
330
9
100
AcDbSymbolTableRecord
100
AcDbBlockTableRecord
  2
*D4
340
0
 70
0
280
1
281
0
  0
BLOCK_RECORD
  5
119
330
9
100
AcDbSymbolTableRecord
100
AcDbBlockTableRecord
  2
*D5
340
0
 70
0
280
1
281
0
  0
BLOCK_RECORD
  5
141
330
9
100
AcDbSymbolTableRecord
100
AcDbBlockTableRecord
  2
*D6
340
0
 70
0
280
1
281
0
  0
BLOCK_RECORD
  5
14F
330
9
100
AcDbSymbolTableRecord
100
AcDbBlockTableRecord
  2
*D7
340
0
 70
0
280
1
281
0
  0
BLOCK_RECORD
  5
15D
330
9
100
AcDbSymbolTableRecord
100
AcDbBlockTableRecord
  2
*D8
340
0
 70
0
280
1
281
0
  0
BLOCK_RECORD
  5
16B
330
9
100
AcDbSymbolTableRecord
100
AcDbBlockTableRecord
  2
*D9
340
0
 70
0
280
1
281
0
  0
BLOCK_RECORD
  5
179
330
9
100
AcDbSymbolTableRecord
100
AcDbBlockTableRecord
  2
*D10
340
0
 70
0
280
1
281
0
  0
BLOCK_RECORD
  5
187
330
9
100
AcDbSymbolTableRecord
100
AcDbBlockTableRecord
  2
*D11
340
0
 70
0
280
1
281
0
  0
BLOCK_RECORD
  5
195
330
9
100
AcDbSymbolTableRecord
100
AcDbBlockTableRecord
  2
*D12
340
0
 70
0
280
1
281
0
  0
BLOCK_RECORD
  5
1A3
330
9
100
AcDbSymbolTableRecord
100
AcDbBlockTableRecord
  2
*D13
340
0
 70
0
280
1
281
0
  0
BLOCK_RECORD
  5
1B1
330
9
100
AcDbSymbolTableRecord
100
AcDbBlockTableRecord
  2
*D14
340
0
 70
0
280
1
281
0
  0
BLOCK_RECORD
  5
1BF
330
9
100
AcDbSymbolTableRecord
100
AcDbBlockTableRecord
  2
*D15
340
0
 70
0
280
1
281
0
  0
BLOCK_RECORD
  5
1CD
330
9
100
AcDbSymbolTableRecord
100
AcDbBlockTableRecord
  2
*D16
340
0
 70
0
280
1
281
0
  0
BLOCK_RECORD
  5
1DB
330
9
100
AcDbSymbolTableRecord
100
AcDbBlockTableRecord
  2
*D17
340
0
 70
0
280
1
281
0
  0
BLOCK_RECORD
  5
1E9
330
9
100
AcDbSymbolTableRecord
100
AcDbBlockTableRecord
  2
*D18
340
0
 70
0
280
1
281
0
  0
BLOCK_RECORD
  5
204
330
9
100
AcDbSymbolTableRecord
100
AcDbBlockTableRecord
  2
*Paper_Space
340
207
 70
0
280
1
281
0
  0
BLOCK_RECORD
  5
1B
330
9
100
AcDbSymbolTableRecord
100
AcDbBlockTableRecord
  2
*Paper_Space0
340
1E
 70
0
280
1
281
0
  0
BLOCK_RECORD
  5
2F9
330
9
100
AcDbSymbolTableRecord
100
AcDbBlockTableRecord
  2
CAJETIN_A1
340
0
 70
0
280
1
281
0
  0
ENDTAB
  0
ENDSEC
  0
SECTION
  2
BLOCKS
  0
BLOCK
  5
18
330
17
100
AcDbEntity
  8
0
100
AcDbBlockBegin
  2
*Model_Space
 70
0
 10
0.0
 20
0.0
 30
0.0
  3
*Model_Space
  1

  0
ENDBLK
  5
19
330
17
100
AcDbEntity
  8
0
100
AcDbBlockEnd
  0
BLOCK
  5
75
330
74
100
AcDbEntity
  8
0
100
AcDbBlockBegin
  2
_ARCHTICK
 70
0
 10
0.0
 20
0.0
 30
0.0
  3
_ARCHTICK
  1

  0
LWPOLYLINE
  5
77
330
74
100
AcDbEntity
  8
0
  6
BYBLOCK
 62
0
100
AcDbPolyline
 90
2
 70
0
 43
0.15
 10
-0.5
 20
-0.5
 10
0.5
 20
0.5
  0
ENDBLK
  5
76
330
74
100
AcDbEntity
  8
0
100
AcDbBlockEnd
  0
BLOCK
  5
79
330
78
100
AcDbEntity
  8
0
100
AcDbBlockBegin
  2
_CLOSEDFILLED
 70
0
 10
0.0
 20
0.0
 30
0.0
  3
_CLOSEDFILLED
  1

  0
SOLID
  5
7B
330
78
100
AcDbEntity
  8
0
  6
BYBLOCK
 62
0
100
AcDbTrace
 10
-1.0
 20
0.16439898372402537
 30
0.0
 11
0.0
 21
0.0
 31
0.0
 12
-1.0
 22
-0.16439898372402537
 32
0.0
 13
-1.0
 23
-0.16439898372402537
 33
0.0
  0
ENDBLK
  5
7A
330
78
100
AcDbEntity
  8
0
100
AcDbBlockEnd
  0
BLOCK
  5
85
330
84
100
AcDbEntity
  8
0
100
AcDbBlockBegin
  2
_CLOSEDBLANK
 70
0
 10
0.0
 20
0.0
 30
0.0
  3
_CLOSEDBLANK
  1

  0
LWPOLYLINE
  5
87
330
84
100
AcDbEntity
  8
0
  6
BYBLOCK
 62
0
100
AcDbPolyline
 90
3
 70
1
 10
-1.0
 20
0.16439898372402537
 10
0.0
 20
0.0
 10
-1.0
 20
-0.16439898372402537
  0
ENDBLK
  5
86
330
84
100
AcDbEntity
  8
0
100
AcDbBlockEnd
  0
BLOCK
  5
B8
330
B7
100
AcDbEntity
  8
0
100
AcDbBlockBegin
  2
NORTE
 70
0
 10
0.0
 20
0.0
 30
0.0
  3
NORTE
  1

  0
LWPOLYLINE
  5
BA
330
B7
100
AcDbEntity
  8
0
100
AcDbPolyline
 90
4
 70
1
 10
0.0
 20
12.0
 10
-4.5
 20
-9.0
 10
0.0
 20
-5.0
 10
4.5
 20
-9.0
  0
HATCH
  5
BB
330
B7
100
AcDbEntity
  8
0
 62
0
100
AcDbHatch
 10
0.0
 20
0.0
 30
0.0
210
0.0
220
0.0
230
1.0
  2
SOLID
 70
1
 71
0
 91
1
 92
3
 72
0
 73
1
 93
3
 10
0.0
 20
12.0
 10
0.0
 20
-5.0
 10
-4.5
 20
-9.0
 97
0
 75
0
 76
1
 98
0
  0
CIRCLE
  5
BC
330
B7
100
AcDbEntity
  8
0
100
AcDbCircle
 10
0.0
 20
0.0
 30
0.0
 40
10.5
  0
TEXT
  5
BD
330
B7
100
AcDbEntity
  8
0
100
AcDbText
 10
0.0
 20
14.5
 30
0.0
 40
5.0
  1
N
  7
ARIAL
 72
1
 11
0.0
 21
14.5
 31
0.0
100
AcDbText
 73
1
  0
ENDBLK
  5
B9
330
B7
100
AcDbEntity
  8
0
100
AcDbBlockEnd
  0
BLOCK
  5
BF
330
BE
100
AcDbEntity
  8
0
100
AcDbBlockBegin
  2
VERTICE
 70
0
 10
0.0
 20
0.0
 30
0.0
  3
VERTICE
  1

  0
CIRCLE
  5
C1
330
BE
100
AcDbEntity
  8
0
100
AcDbCircle
 10
0.0
 20
0.0
 30
0.0
 40
0.35
  0
ENDBLK
  5
C0
330
BE
100
AcDbEntity
  8
0
100
AcDbBlockEnd
  0
BLOCK
  5
DA
330
D9
100
AcDbEntity
  8
0
100
AcDbBlockBegin
  2
*D1
 70
1
 10
0.0
 20
0.0
 30
0.0
  3
*D1
  1

  0
LINE
  5
DC
330
D9
100
AcDbEntity
  8
0
 62
7
370
13
100
AcDbLine
 10
0.00046646384590594275
 20
0.1999994560279614
 30
0.0
 11
0.004198174613153484
 21
1.7999951042516524
 31
0.0
  0
LINE
  5
DD
330
D9
100
AcDbEntity
  8
0
 62
7
370
13
100
AcDbLine
 10
4.665183136187641
 20
0.18911981804165745
 30
0.0
 11
4.6689148469548885
 21
1.7891154662653486
 31
0.0
  0
INSERT
  5
E2
330
D9
100
AcDbEntity
  8
T-COTA-200
 62
7
100
AcDbBlockReference
  2
_OBLIQUE
 10
0.0037317107672475416
 20
1.599995648223691
 30
0.0
 41
0.48
 42
0.48
 50
-0.1336321694828747
  0
INSERT
  5
E4
330
D9
100
AcDbEntity
  8
T-COTA-200
 62
7
100
AcDbBlockReference
  2
_OBLIQUE
 10
4.6684483831089825
 20
1.5891160102373871
 30
0.0
 41
0.48
 42
0.48
 50
-0.1336321694828747
  0
LINE
  5
E6
330
D9
100
AcDbEntity
  8
0
 62
7
370
18
100
AcDbLine
 10
-0.19626774526071383
 20
1.600462112069597
 30
0.0
 11
4.868447839136944
 21
1.5886495463914811
 31
0.0
  0
MTEXT
  5
E7
330
D9
100
AcDbEntity
  8
T-COTA-200
 62
7
100
AcDbMText
 10
2.3369763282453357
 20
1.9745547956836658
 30
0.0
 40
0.44000000000000006
 71
5
  1
4.66
  7
ARIAL
 50
-0.1336321694828747
  0
POINT
  5
E8
330
D9
100
AcDbEntity
  8
Defpoints
100
AcDbPoint
 10
0.0037317107672475416
 20
1.599995648223691
 30
0.0
  0
POINT
  5
E9
330
D9
100
AcDbEntity
  8
Defpoints
100
AcDbPoint
 10
0.0
 20
-0.0
 30
0.0
  0
POINT
  5
EA
330
D9
100
AcDbEntity
  8
Defpoints
100
AcDbPoint
 10
4.664716672341735
 20
-0.010879637986303953
 30
0.0
  0
ENDBLK
  5
DB
330
D9
100
AcDbEntity
  8
0
100
AcDbBlockEnd
  0
BLOCK
  5
DF
330
DE
100
AcDbEntity
  8
0
100
AcDbBlockBegin
  2
_OBLIQUE
 70
0
 10
0.0
 20
0.0
 30
0.0
  3
_OBLIQUE
  1

  0
LINE
  5
E1
330
DE
100
AcDbEntity
  8
0
  6
BYBLOCK
 62
0
100
AcDbLine
 10
-0.5
 20
-0.5
 30
0.0
 11
0.5
 21
0.5
 31
0.0
  0
ENDBLK
  5
E0
330
DE
100
AcDbEntity
  8
0
100
AcDbBlockEnd
  0
BLOCK
  5
ED
330
EC
100
AcDbEntity
  8
0
100
AcDbBlockBegin
  2
*D2
 70
1
 10
0.0
 20
0.0
 30
0.0
  3
*D2
  1

  0
LINE
  5
EF
330
EC
100
AcDbEntity
  8
0
 62
7
370
13
100
AcDbLine
 10
4.666819945478654
 20
0.1891093023131824
 30
0.0
 11
4.683646130574005
 21
1.7890208247090735
 31
0.0
  0
LINE
  5
F0
330
EC
100
AcDbEntity
  8
0
 62
7
370
13
100
AcDbLine
 10
9.009528094285434
 20
0.14343726976385227
 30
0.0
 11
9.026354279380785
 21
1.7433487921597433
 31
0.0
  0
INSERT
  5
F1
330
EC
100
AcDbEntity
  8
T-COTA-200
 62
7
100
AcDbBlockReference
  2
_OBLIQUE
 10
4.681542857437086
 20
1.5890318844095872
 30
0.0
 41
0.48
 42
0.48
 50
-0.602554476371176
  0
INSERT
  5
F3
330
EC
100
AcDbEntity
  8
T-COTA-200
 62
7
100
AcDbBlockReference
  2
_OBLIQUE
 10
9.024251006243865
 20
1.543359851860257
 30
0.0
 41
0.48
 42
0.48
 50
-0.602554476371176
  0
LINE
  5
F5
330
EC
100
AcDbEntity
  8
0
 62
7
370
18
100
AcDbLine
 10
4.4815539171375995
 20
1.591135157546506
 30
0.0
 11
9.224239946543351
 21
1.541256578723338
 31
0.0
  0
MTEXT
  5
F6
330
EC
100
AcDbEntity
  8
T-COTA-200
 62
7
100
AcDbMText
 10
6.856893150800622
 20
1.9461748547039464
 30
0.0
 40
0.44000000000000006
 71
5
  1
4.34
  7
ARIAL
 50
-0.602554476371176
  0
POINT
  5
F7
330
EC
100
AcDbEntity
  8
Defpoints
100
AcDbPoint
 10
4.681542857437086
 20
1.5890318844095872
 30
0.0
  0
POINT
  5
F8
330
EC
100
AcDbEntity
  8
Defpoints
100
AcDbPoint
 10
4.664716672341735
 20
-0.010879637986303953
 30
0.0
  0
POINT
  5
F9
330
EC
100
AcDbEntity
  8
Defpoints
100
AcDbPoint
 10
9.007424821148515
 20
-0.05655167053563409
 30
0.0
  0
ENDBLK
  5
EE
330
EC
100
AcDbEntity
  8
0
100
AcDbBlockEnd
  0
BLOCK
  5
FC
330
FB
100
AcDbEntity
  8
0
100
AcDbBlockBegin
  2
*D3
 70
1
 10
0.0
 20
0.0
 30
0.0
  3
*D3
  1

  0
LINE
  5
FE
330
FB
100
AcDbEntity
  8
0
 62
7
370
13
100
AcDbLine
 10
9.19980345571554
 20
-28.518166004062415
 30
0.0
 11
10.79980339835182
 21
-28.51859444763654
 31
0.0
  0
LINE
  5
FF
330
FB
100
AcDbEntity
  8
0
 62
7
370
13
100
AcDbLine
 10
9.207424813978049
 20
-0.0566052259833452
 30
0.0
 11
10.807424756614328
 21
-0.05703366956503406
 31
0.0
  0
INSERT
  5
100
330
FB
100
AcDbEntity
  8
T-COTA-200
 62
7
100
AcDbBlockReference
  2
_OBLIQUE
 10
10.599803405522284
 20
-28.518540892189776
 30
0.0
 41
0.48
 42
0.48
 50
89.98465749452158
  0
INSERT
  5
102
330
FB
100
AcDbEntity
  8
T-COTA-200
 62
7
100
AcDbBlockReference
  2
_OBLIQUE
 10
10.607424763784794
 20
-0.056980114117322955
 30
0.0
 41
0.48
 42
0.48
 50
89.98465749452158
  0
LINE
  5
104
330
FB
100
AcDbEntity
  8
0
 62
7
370
18
100
AcDbLine
 10
10.599749850075703
 20
-28.718540885019312
 30
0.0
 11
10.607478319231374
 21
0.1430198787122123
 31
0.0
  0
MTEXT
  5
105
330
FB
100
AcDbEntity
  8
T-COTA-200
 62
7
100
AcDbMText
 10
10.223614098277423
 20
-14.287658747805047
 30
0.0
 40
0.44000000000000006
 71
5
  1
28.46
  7
ARIAL
 50
89.98465749452158
  0
POINT
  5
106
330
FB
100
AcDbEntity
  8
Defpoints
100
AcDbPoint
 10
10.599803405522284
 20
-28.518540892189776
 30
0.0
  0
POINT
  5
107
330
FB
100
AcDbEntity
  8
Defpoints
100
AcDbPoint
 10
8.999803462886003
 20
-28.51811244861565
 30
0.0
  0
POINT
  5
108
330
FB
100
AcDbEntity
  8
Defpoints
100
AcDbPoint
 10
9.007424821148515
 20
-0.05655167053563409
 30
0.0
  0
ENDBLK
  5
FD
330
FB
100
AcDbEntity
  8
0
100
AcDbBlockEnd
  0
BLOCK
  5
10B
330
10A
100
AcDbEntity
  8
0
100
AcDbBlockBegin
  2
*D4
 70
1
 10
0.0
 20
0.0
 30
0.0
  3
*D4
  1

  0
LINE
  5
10D
330
10A
100
AcDbEntity
  8
0
 62
7
370
13
100
AcDbLine
 10
-0.00013631992343077638
 20
-28.711978138138154
 30
0.0
 11
-0.0012268793108769862
 21
-30.311977766475678
 31
0.0
  0
LINE
  5
10E
330
10A
100
AcDbEntity
  8
0
 62
7
370
13
100
AcDbLine
 10
8.999667142962572
 20
-28.71811240215784
 30
0.0
 11
8.998576583575124
 21
-30.318112030495364
 31
0.0
  0
INSERT
  5
10F
330
10A
100
AcDbEntity
  8
T-COTA-200
 62
7
100
AcDbBlockReference
  2
_OBLIQUE
 10
-0.00109055938744621
 20
-30.11197781293349
 30
0.0
 41
0.48
 42
0.48
 50
-0.03905278440449431
  0
INSERT
  5
111
330
10A
100
AcDbEntity
  8
T-COTA-200
 62
7
100
AcDbBlockReference
  2
_OBLIQUE
 10
8.998712903498555
 20
-30.118112076953174
 30
0.0
 41
0.48
 42
0.48
 50
-0.03905278440449431
  0
LINE
  5
113
330
10A
100
AcDbEntity
  8
0
 62
7
370
18
100
AcDbLine
 10
-0.20109051292963698
 20
-30.111841493010058
 30
0.0
 11
9.198712857040746
 21
-30.118248396876606
 31
0.0
  0
MTEXT
  5
114
330
10A
100
AcDbEntity
  8
T-COTA-200
 62
7
100
AcDbMText
 10
4.499070179910073
 20
-29.73504503321317
 30
0.0
 40
0.44000000000000006
 71
5
  1
9.00
  7
ARIAL
 50
-0.03905278440449431
  0
POINT
  5
115
330
10A
100
AcDbEntity
  8
Defpoints
100
AcDbPoint
 10
-0.00109055938744621
 20
-30.11197781293349
 30
0.0
  0
POINT
  5
116
330
10A
100
AcDbEntity
  8
Defpoints
100
AcDbPoint
 10
0.0
 20
-28.511978184595964
 30
0.0
  0
POINT
  5
117
330
10A
100
AcDbEntity
  8
Defpoints
100
AcDbPoint
 10
8.999803462886003
 20
-28.51811244861565
 30
0.0
  0
ENDBLK
  5
10C
330
10A
100
AcDbEntity
  8
0
100
AcDbBlockEnd
  0
BLOCK
  5
11A
330
119
100
AcDbEntity
  8
0
100
AcDbBlockBegin
  2
*D5
 70
1
 10
0.0
 20
0.0
 30
0.0
  3
*D5
  1

  0
LINE
  5
11C
330
119
100
AcDbEntity
  8
0
 62
7
370
13
100
AcDbLine
 10
-0.2
 20
-28.511978184595964
 30
0.0
 11
-1.8
 21
-28.511978184595964
 31
0.0
  0
LINE
  5
11D
330
119
100
AcDbEntity
  8
0
 62
7
370
13
100
AcDbLine
 10
-0.2
 20
0.0
 30
0.0
 11
-1.8
 21
0.0
 31
0.0
  0
INSERT
  5
11E
330
119
100
AcDbEntity
  8
T-COTA-200
 62
7
100
AcDbBlockReference
  2
_OBLIQUE
 10
-1.6
 20
-28.511978184595964
 30
0.0
 41
0.48
 42
0.48
 50
90.0
  0
INSERT
  5
120
330
119
100
AcDbEntity
  8
T-COTA-200
 62
7
100
AcDbBlockReference
  2
_OBLIQUE
 10
-1.6
 20
-0.0
 30
0.0
 41
0.48
 42
0.48
 50
90.0
  0
LINE
  5
122
330
119
100
AcDbEntity
  8
0
 62
7
370
18
100
AcDbLine
 10
-1.6
 20
-28.711978184595964
 30
0.0
 11
-1.6
 21
0.2
 31
0.0
  0
MTEXT
  5
123
330
119
100
AcDbEntity
  8
T-COTA-200
 62
7
100
AcDbMText
 10
-1.9800000000000002
 20
-14.255989092297982
 30
0.0
 40
0.44000000000000006
 71
5
  1
28.51
  7
ARIAL
 50
90.0
  0
POINT
  5
124
330
119
100
AcDbEntity
  8
Defpoints
100
AcDbPoint
 10
-1.6
 20
-28.511978184595964
 30
0.0
  0
POINT
  5
125
330
119
100
AcDbEntity
  8
Defpoints
100
AcDbPoint
 10
0.0
 20
-28.511978184595964
 30
0.0
  0
POINT
  5
126
330
119
100
AcDbEntity
  8
Defpoints
100
AcDbPoint
 10
0.0
 20
-0.0
 30
0.0
  0
ENDBLK
  5
11B
330
119
100
AcDbEntity
  8
0
100
AcDbBlockEnd
  0
BLOCK
  5
142
330
141
100
AcDbEntity
  8
0
100
AcDbBlockBegin
  2
*D6
 70
1
 10
0.0
 20
0.0
 30
0.0
  3
*D6
  1

  0
LINE
  5
144
330
141
100
AcDbEntity
  8
0
 62
7
370
13
100
AcDbLine
 10
-0.1
 20
0.0
 30
0.0
 11
-1.3
 21
0.0
 31
0.0
  0
LINE
  5
145
330
141
100
AcDbEntity
  8
0
 62
7
370
13
100
AcDbLine
 10
-0.1
 20
-2.06
 30
0.0
 11
-1.3
 21
-2.06
 31
0.0
  0
INSERT
  5
146
330
141
100
AcDbEntity
  8
T-COTA-100
 62
7
100
AcDbBlockReference
  2
_OBLIQUE
 10
-1.2
 20
-0.0
 30
0.0
 41
0.24
 42
0.24
 50
90.0
  0
INSERT
  5
148
330
141
100
AcDbEntity
  8
T-COTA-100
 62
7
100
AcDbBlockReference
  2
_OBLIQUE
 10
-1.2
 20
-2.06
 30
0.0
 41
0.24
 42
0.24
 50
90.0
  0
LINE
  5
14A
330
141
100
AcDbEntity
  8
0
 62
7
370
18
100
AcDbLine
 10
-1.2
 20
0.1
 30
0.0
 11
-1.2
 21
-2.16
 31
0.0
  0
MTEXT
  5
14B
330
141
100
AcDbEntity
  8
T-COTA-100
 62
7
100
AcDbMText
 10
-1.01
 20
-1.03
 30
0.0
 40
0.22000000000000003
 71
5
  1
2.06
  7
ARIAL
 50
90.0
  0
POINT
  5
14C
330
141
100
AcDbEntity
  8
Defpoints
100
AcDbPoint
 10
-1.2
 20
-0.0
 30
0.0
  0
POINT
  5
14D
330
141
100
AcDbEntity
  8
Defpoints
100
AcDbPoint
 10
0.0
 20
-0.0
 30
0.0
  0
POINT
  5
14E
330
141
100
AcDbEntity
  8
Defpoints
100
AcDbPoint
 10
0.0
 20
-2.06
 30
0.0
  0
ENDBLK
  5
143
330
141
100
AcDbEntity
  8
0
100
AcDbBlockEnd
  0
BLOCK
  5
150
330
14F
100
AcDbEntity
  8
0
100
AcDbBlockBegin
  2
*D7
 70
1
 10
0.0
 20
0.0
 30
0.0
  3
*D7
  1

  0
LINE
  5
152
330
14F
100
AcDbEntity
  8
0
 62
7
370
13
100
AcDbLine
 10
-0.1
 20
-2.06
 30
0.0
 11
-1.3
 21
-2.06
 31
0.0
  0
LINE
  5
153
330
14F
100
AcDbEntity
  8
0
 62
7
370
13
100
AcDbLine
 10
-0.1
 20
-25.18
 30
0.0
 11
-1.3
 21
-25.18
 31
0.0
  0
INSERT
  5
154
330
14F
100
AcDbEntity
  8
T-COTA-100
 62
7
100
AcDbBlockReference
  2
_OBLIQUE
 10
-1.2
 20
-2.06
 30
0.0
 41
0.24
 42
0.24
 50
90.0
  0
INSERT
  5
156
330
14F
100
AcDbEntity
  8
T-COTA-100
 62
7
100
AcDbBlockReference
  2
_OBLIQUE
 10
-1.2
 20
-25.18
 30
0.0
 41
0.24
 42
0.24
 50
90.0
  0
LINE
  5
158
330
14F
100
AcDbEntity
  8
0
 62
7
370
18
100
AcDbLine
 10
-1.2
 20
-1.96
 30
0.0
 11
-1.2
 21
-25.28
 31
0.0
  0
MTEXT
  5
159
330
14F
100
AcDbEntity
  8
T-COTA-100
 62
7
100
AcDbMText
 10
-1.01
 20
-13.620000000000001
 30
0.0
 40
0.22000000000000003
 71
5
  1
23.12
  7
ARIAL
 50
90.0
  0
POINT
  5
15A
330
14F
100
AcDbEntity
  8
Defpoints
100
AcDbPoint
 10
-1.2
 20
-2.06
 30
0.0
  0
POINT
  5
15B
330
14F
100
AcDbEntity
  8
Defpoints
100
AcDbPoint
 10
0.0
 20
-2.06
 30
0.0
  0
POINT
  5
15C
330
14F
100
AcDbEntity
  8
Defpoints
100
AcDbPoint
 10
0.0
 20
-25.18
 30
0.0
  0
ENDBLK
  5
151
330
14F
100
AcDbEntity
  8
0
100
AcDbBlockEnd
  0
BLOCK
  5
15E
330
15D
100
AcDbEntity
  8
0
100
AcDbBlockBegin
  2
*D8
 70
1
 10
0.0
 20
0.0
 30
0.0
  3
*D8
  1

  0
LINE
  5
160
330
15D
100
AcDbEntity
  8
0
 62
7
370
13
100
AcDbLine
 10
-0.1
 20
-25.18
 30
0.0
 11
-1.3
 21
-25.18
 31
0.0
  0
LINE
  5
161
330
15D
100
AcDbEntity
  8
0
 62
7
370
13
100
AcDbLine
 10
-0.1
 20
-28.511978184595964
 30
0.0
 11
-1.3
 21
-28.511978184595964
 31
0.0
  0
INSERT
  5
162
330
15D
100
AcDbEntity
  8
T-COTA-100
 62
7
100
AcDbBlockReference
  2
_OBLIQUE
 10
-1.2
 20
-25.18
 30
0.0
 41
0.24
 42
0.24
 50
90.0
  0
INSERT
  5
164
330
15D
100
AcDbEntity
  8
T-COTA-100
 62
7
100
AcDbBlockReference
  2
_OBLIQUE
 10
-1.2
 20
-28.511978184595964
 30
0.0
 41
0.24
 42
0.24
 50
90.0
  0
LINE
  5
166
330
15D
100
AcDbEntity
  8
0
 62
7
370
18
100
AcDbLine
 10
-1.2
 20
-25.08
 30
0.0
 11
-1.2
 21
-28.611978184595966
 31
0.0
  0
MTEXT
  5
167
330
15D
100
AcDbEntity
  8
T-COTA-100
 62
7
100
AcDbMText
 10
-1.01
 20
-26.845989092297984
 30
0.0
 40
0.22000000000000003
 71
5
  1
3.33
  7
ARIAL
 50
90.0
  0
POINT
  5
168
330
15D
100
AcDbEntity
  8
Defpoints
100
AcDbPoint
 10
-1.2
 20
-25.18
 30
0.0
  0
POINT
  5
169
330
15D
100
AcDbEntity
  8
Defpoints
100
AcDbPoint
 10
0.0
 20
-25.18
 30
0.0
  0
POINT
  5
16A
330
15D
100
AcDbEntity
  8
Defpoints
100
AcDbPoint
 10
0.0
 20
-28.511978184595964
 30
0.0
  0
ENDBLK
  5
15F
330
15D
100
AcDbEntity
  8
0
100
AcDbBlockEnd
  0
BLOCK
  5
16C
330
16B
100
AcDbEntity
  8
0
100
AcDbBlockBegin
  2
*D9
 70
1
 10
0.0
 20
0.0
 30
0.0
  3
*D9
  1

  0
LINE
  5
16E
330
16B
100
AcDbEntity
  8
0
 62
7
370
13
100
AcDbLine
 10
9.1
 20
-0.05655167053563409
 30
0.0
 11
10.5
 21
-0.05655167053563409
 31
0.0
  0
LINE
  5
16F
330
16B
100
AcDbEntity
  8
0
 62
7
370
13
100
AcDbLine
 10
9.1
 20
-2.06
 30
0.0
 11
10.5
 21
-2.06
 31
0.0
  0
INSERT
  5
170
330
16B
100
AcDbEntity
  8
T-COTA-100
 62
7
100
AcDbBlockReference
  2
_OBLIQUE
 10
10.4
 20
-0.05655167053563409
 30
0.0
 41
0.24
 42
0.24
 50
90.0
  0
INSERT
  5
172
330
16B
100
AcDbEntity
  8
T-COTA-100
 62
7
100
AcDbBlockReference
  2
_OBLIQUE
 10
10.4
 20
-2.06
 30
0.0
 41
0.24
 42
0.24
 50
90.0
  0
LINE
  5
174
330
16B
100
AcDbEntity
  8
0
 62
7
370
18
100
AcDbLine
 10
10.4
 20
0.043448329464365915
 30
0.0
 11
10.4
 21
-2.16
 31
0.0
  0
MTEXT
  5
175
330
16B
100
AcDbEntity
  8
T-COTA-100
 62
7
100
AcDbMText
 10
10.59
 20
-1.0582758352678172
 30
0.0
 40
0.22000000000000003
 71
5
  1
2.00
  7
ARIAL
 50
90.0
  0
POINT
  5
176
330
16B
100
AcDbEntity
  8
Defpoints
100
AcDbPoint
 10
10.4
 20
-0.05655167053563409
 30
0.0
  0
POINT
  5
177
330
16B
100
AcDbEntity
  8
Defpoints
100
AcDbPoint
 10
9.0
 20
-0.05655167053563409
 30
0.0
  0
POINT
  5
178
330
16B
100
AcDbEntity
  8
Defpoints
100
AcDbPoint
 10
9.0
 20
-2.06
 30
0.0
  0
ENDBLK
  5
16D
330
16B
100
AcDbEntity
  8
0
100
AcDbBlockEnd
  0
BLOCK
  5
17A
330
179
100
AcDbEntity
  8
0
100
AcDbBlockBegin
  2
*D10
 70
1
 10
0.0
 20
0.0
 30
0.0
  3
*D10
  1

  0
LINE
  5
17C
330
179
100
AcDbEntity
  8
0
 62
7
370
13
100
AcDbLine
 10
9.1
 20
-2.06
 30
0.0
 11
10.5
 21
-2.06
 31
0.0
  0
LINE
  5
17D
330
179
100
AcDbEntity
  8
0
 62
7
370
13
100
AcDbLine
 10
9.1
 20
-7.76
 30
0.0
 11
10.5
 21
-7.76
 31
0.0
  0
INSERT
  5
17E
330
179
100
AcDbEntity
  8
T-COTA-100
 62
7
100
AcDbBlockReference
  2
_OBLIQUE
 10
10.4
 20
-2.06
 30
0.0
 41
0.24
 42
0.24
 50
90.0
  0
INSERT
  5
180
330
179
100
AcDbEntity
  8
T-COTA-100
 62
7
100
AcDbBlockReference
  2
_OBLIQUE
 10
10.4
 20
-7.76
 30
0.0
 41
0.24
 42
0.24
 50
90.0
  0
LINE
  5
182
330
179
100
AcDbEntity
  8
0
 62
7
370
18
100
AcDbLine
 10
10.4
 20
-1.96
 30
0.0
 11
10.4
 21
-7.859999999999999
 31
0.0
  0
MTEXT
  5
183
330
179
100
AcDbEntity
  8
T-COTA-100
 62
7
100
AcDbMText
 10
10.59
 20
-4.91
 30
0.0
 40
0.22000000000000003
 71
5
  1
5.70
  7
ARIAL
 50
90.0
  0
POINT
  5
184
330
179
100
AcDbEntity
  8
Defpoints
100
AcDbPoint
 10
10.4
 20
-2.06
 30
0.0
  0
POINT
  5
185
330
179
100
AcDbEntity
  8
Defpoints
100
AcDbPoint
 10
9.0
 20
-2.06
 30
0.0
  0
POINT
  5
186
330
179
100
AcDbEntity
  8
Defpoints
100
AcDbPoint
 10
9.0
 20
-7.76
 30
0.0
  0
ENDBLK
  5
17B
330
179
100
AcDbEntity
  8
0
100
AcDbBlockEnd
  0
BLOCK
  5
188
330
187
100
AcDbEntity
  8
0
100
AcDbBlockBegin
  2
*D11
 70
1
 10
0.0
 20
0.0
 30
0.0
  3
*D11
  1

  0
LINE
  5
18A
330
187
100
AcDbEntity
  8
0
 62
7
370
13
100
AcDbLine
 10
9.1
 20
-7.76
 30
0.0
 11
10.5
 21
-7.76
 31
0.0
  0
LINE
  5
18B
330
187
100
AcDbEntity
  8
0
 62
7
370
13
100
AcDbLine
 10
9.1
 20
-10.26
 30
0.0
 11
10.5
 21
-10.26
 31
0.0
  0
INSERT
  5
18C
330
187
100
AcDbEntity
  8
T-COTA-100
 62
7
100
AcDbBlockReference
  2
_OBLIQUE
 10
10.4
 20
-7.76
 30
0.0
 41
0.24
 42
0.24
 50
90.0
  0
INSERT
  5
18E
330
187
100
AcDbEntity
  8
T-COTA-100
 62
7
100
AcDbBlockReference
  2
_OBLIQUE
 10
10.4
 20
-10.26
 30
0.0
 41
0.24
 42
0.24
 50
90.0
  0
LINE
  5
190
330
187
100
AcDbEntity
  8
0
 62
7
370
18
100
AcDbLine
 10
10.4
 20
-7.66
 30
0.0
 11
10.4
 21
-10.36
 31
0.0
  0
MTEXT
  5
191
330
187
100
AcDbEntity
  8
T-COTA-100
 62
7
100
AcDbMText
 10
10.59
 20
-9.01
 30
0.0
 40
0.22000000000000003
 71
5
  1
2.50
  7
ARIAL
 50
90.0
  0
POINT
  5
192
330
187
100
AcDbEntity
  8
Defpoints
100
AcDbPoint
 10
10.4
 20
-7.76
 30
0.0
  0
POINT
  5
193
330
187
100
AcDbEntity
  8
Defpoints
100
AcDbPoint
 10
9.0
 20
-7.76
 30
0.0
  0
POINT
  5
194
330
187
100
AcDbEntity
  8
Defpoints
100
AcDbPoint
 10
9.0
 20
-10.26
 30
0.0
  0
ENDBLK
  5
189
330
187
100
AcDbEntity
  8
0
100
AcDbBlockEnd
  0
BLOCK
  5
196
330
195
100
AcDbEntity
  8
0
100
AcDbBlockBegin
  2
*D12
 70
1
 10
0.0
 20
0.0
 30
0.0
  3
*D12
  1

  0
LINE
  5
198
330
195
100
AcDbEntity
  8
0
 62
7
370
13
100
AcDbLine
 10
9.1
 20
-10.26
 30
0.0
 11
10.5
 21
-10.26
 31
0.0
  0
LINE
  5
199
330
195
100
AcDbEntity
  8
0
 62
7
370
13
100
AcDbLine
 10
9.1
 20
-16.98
 30
0.0
 11
10.5
 21
-16.98
 31
0.0
  0
INSERT
  5
19A
330
195
100
AcDbEntity
  8
T-COTA-100
 62
7
100
AcDbBlockReference
  2
_OBLIQUE
 10
10.4
 20
-10.26
 30
0.0
 41
0.24
 42
0.24
 50
90.0
  0
INSERT
  5
19C
330
195
100
AcDbEntity
  8
T-COTA-100
 62
7
100
AcDbBlockReference
  2
_OBLIQUE
 10
10.4
 20
-16.98
 30
0.0
 41
0.24
 42
0.24
 50
90.0
  0
LINE
  5
19E
330
195
100
AcDbEntity
  8
0
 62
7
370
18
100
AcDbLine
 10
10.4
 20
-10.16
 30
0.0
 11
10.4
 21
-17.080000000000002
 31
0.0
  0
MTEXT
  5
19F
330
195
100
AcDbEntity
  8
T-COTA-100
 62
7
100
AcDbMText
 10
10.59
 20
-13.620000000000001
 30
0.0
 40
0.22000000000000003
 71
5
  1
6.72
  7
ARIAL
 50
90.0
  0
POINT
  5
1A0
330
195
100
AcDbEntity
  8
Defpoints
100
AcDbPoint
 10
10.4
 20
-10.26
 30
0.0
  0
POINT
  5
1A1
330
195
100
AcDbEntity
  8
Defpoints
100
AcDbPoint
 10
9.0
 20
-10.26
 30
0.0
  0
POINT
  5
1A2
330
195
100
AcDbEntity
  8
Defpoints
100
AcDbPoint
 10
9.0
 20
-16.98
 30
0.0
  0
ENDBLK
  5
197
330
195
100
AcDbEntity
  8
0
100
AcDbBlockEnd
  0
BLOCK
  5
1A4
330
1A3
100
AcDbEntity
  8
0
100
AcDbBlockBegin
  2
*D13
 70
1
 10
0.0
 20
0.0
 30
0.0
  3
*D13
  1

  0
LINE
  5
1A6
330
1A3
100
AcDbEntity
  8
0
 62
7
370
13
100
AcDbLine
 10
9.1
 20
-16.98
 30
0.0
 11
10.5
 21
-16.98
 31
0.0
  0
LINE
  5
1A7
330
1A3
100
AcDbEntity
  8
0
 62
7
370
13
100
AcDbLine
 10
9.1
 20
-19.48
 30
0.0
 11
10.5
 21
-19.48
 31
0.0
  0
INSERT
  5
1A8
330
1A3
100
AcDbEntity
  8
T-COTA-100
 62
7
100
AcDbBlockReference
  2
_OBLIQUE
 10
10.4
 20
-16.98
 30
0.0
 41
0.24
 42
0.24
 50
90.0
  0
INSERT
  5
1AA
330
1A3
100
AcDbEntity
  8
T-COTA-100
 62
7
100
AcDbBlockReference
  2
_OBLIQUE
 10
10.4
 20
-19.48
 30
0.0
 41
0.24
 42
0.24
 50
90.0
  0
LINE
  5
1AC
330
1A3
100
AcDbEntity
  8
0
 62
7
370
18
100
AcDbLine
 10
10.4
 20
-16.88
 30
0.0
 11
10.4
 21
-19.580000000000002
 31
0.0
  0
MTEXT
  5
1AD
330
1A3
100
AcDbEntity
  8
T-COTA-100
 62
7
100
AcDbMText
 10
10.59
 20
-18.23
 30
0.0
 40
0.22000000000000003
 71
5
  1
2.50
  7
ARIAL
 50
90.0
  0
POINT
  5
1AE
330
1A3
100
AcDbEntity
  8
Defpoints
100
AcDbPoint
 10
10.4
 20
-16.98
 30
0.0
  0
POINT
  5
1AF
330
1A3
100
AcDbEntity
  8
Defpoints
100
AcDbPoint
 10
9.0
 20
-16.98
 30
0.0
  0
POINT
  5
1B0
330
1A3
100
AcDbEntity
  8
Defpoints
100
AcDbPoint
 10
9.0
 20
-19.48
 30
0.0
  0
ENDBLK
  5
1A5
330
1A3
100
AcDbEntity
  8
0
100
AcDbBlockEnd
  0
BLOCK
  5
1B2
330
1B1
100
AcDbEntity
  8
0
100
AcDbBlockBegin
  2
*D14
 70
1
 10
0.0
 20
0.0
 30
0.0
  3
*D14
  1

  0
LINE
  5
1B4
330
1B1
100
AcDbEntity
  8
0
 62
7
370
13
100
AcDbLine
 10
9.1
 20
-19.48
 30
0.0
 11
10.5
 21
-19.48
 31
0.0
  0
LINE
  5
1B5
330
1B1
100
AcDbEntity
  8
0
 62
7
370
13
100
AcDbLine
 10
9.1
 20
-25.18
 30
0.0
 11
10.5
 21
-25.18
 31
0.0
  0
INSERT
  5
1B6
330
1B1
100
AcDbEntity
  8
T-COTA-100
 62
7
100
AcDbBlockReference
  2
_OBLIQUE
 10
10.4
 20
-19.48
 30
0.0
 41
0.24
 42
0.24
 50
90.0
  0
INSERT
  5
1B8
330
1B1
100
AcDbEntity
  8
T-COTA-100
 62
7
100
AcDbBlockReference
  2
_OBLIQUE
 10
10.4
 20
-25.18
 30
0.0
 41
0.24
 42
0.24
 50
90.0
  0
LINE
  5
1BA
330
1B1
100
AcDbEntity
  8
0
 62
7
370
18
100
AcDbLine
 10
10.4
 20
-19.38
 30
0.0
 11
10.4
 21
-25.28
 31
0.0
  0
MTEXT
  5
1BB
330
1B1
100
AcDbEntity
  8
T-COTA-100
 62
7
100
AcDbMText
 10
10.59
 20
-22.33
 30
0.0
 40
0.22000000000000003
 71
5
  1
5.70
  7
ARIAL
 50
90.0
  0
POINT
  5
1BC
330
1B1
100
AcDbEntity
  8
Defpoints
100
AcDbPoint
 10
10.4
 20
-19.48
 30
0.0
  0
POINT
  5
1BD
330
1B1
100
AcDbEntity
  8
Defpoints
100
AcDbPoint
 10
9.0
 20
-19.48
 30
0.0
  0
POINT
  5
1BE
330
1B1
100
AcDbEntity
  8
Defpoints
100
AcDbPoint
 10
9.0
 20
-25.18
 30
0.0
  0
ENDBLK
  5
1B3
330
1B1
100
AcDbEntity
  8
0
100
AcDbBlockEnd
  0
BLOCK
  5
1C0
330
1BF
100
AcDbEntity
  8
0
100
AcDbBlockBegin
  2
*D15
 70
1
 10
0.0
 20
0.0
 30
0.0
  3
*D15
  1

  0
LINE
  5
1C2
330
1BF
100
AcDbEntity
  8
0
 62
7
370
13
100
AcDbLine
 10
9.1
 20
-25.18
 30
0.0
 11
10.5
 21
-25.18
 31
0.0
  0
LINE
  5
1C3
330
1BF
100
AcDbEntity
  8
0
 62
7
370
13
100
AcDbLine
 10
9.1
 20
-28.51811244861565
 30
0.0
 11
10.5
 21
-28.51811244861565
 31
0.0
  0
INSERT
  5
1C4
330
1BF
100
AcDbEntity
  8
T-COTA-100
 62
7
100
AcDbBlockReference
  2
_OBLIQUE
 10
10.4
 20
-25.18
 30
0.0
 41
0.24
 42
0.24
 50
90.0
  0
INSERT
  5
1C6
330
1BF
100
AcDbEntity
  8
T-COTA-100
 62
7
100
AcDbBlockReference
  2
_OBLIQUE
 10
10.4
 20
-28.51811244861565
 30
0.0
 41
0.24
 42
0.24
 50
90.0
  0
LINE
  5
1C8
330
1BF
100
AcDbEntity
  8
0
 62
7
370
18
100
AcDbLine
 10
10.4
 20
-25.08
 30
0.0
 11
10.4
 21
-28.61811244861565
 31
0.0
  0
MTEXT
  5
1C9
330
1BF
100
AcDbEntity
  8
T-COTA-100
 62
7
100
AcDbMText
 10
10.59
 20
-26.849056224307823
 30
0.0
 40
0.22000000000000003
 71
5
  1
3.34
  7
ARIAL
 50
90.0
  0
POINT
  5
1CA
330
1BF
100
AcDbEntity
  8
Defpoints
100
AcDbPoint
 10
10.4
 20
-25.18
 30
0.0
  0
POINT
  5
1CB
330
1BF
100
AcDbEntity
  8
Defpoints
100
AcDbPoint
 10
9.0
 20
-25.18
 30
0.0
  0
POINT
  5
1CC
330
1BF
100
AcDbEntity
  8
Defpoints
100
AcDbPoint
 10
9.0
 20
-28.51811244861565
 30
0.0
  0
ENDBLK
  5
1C1
330
1BF
100
AcDbEntity
  8
0
100
AcDbBlockEnd
  0
BLOCK
  5
1CE
330
1CD
100
AcDbEntity
  8
0
100
AcDbBlockBegin
  2
*D16
 70
1
 10
0.0
 20
0.0
 30
0.0
  3
*D16
  1

  0
LINE
  5
1D0
330
1CD
100
AcDbEntity
  8
0
 62
7
370
13
100
AcDbLine
 10
1.47
 20
-7.859999999999999
 30
0.0
 11
1.47
 21
-8.41
 31
0.0
  0
LINE
  5
1D1
330
1CD
100
AcDbEntity
  8
0
 62
7
370
13
100
AcDbLine
 10
8.85
 20
-7.859999999999999
 30
0.0
 11
8.85
 21
-8.41
 31
0.0
  0
INSERT
  5
1D2
330
1CD
100
AcDbEntity
  8
T-COTA-100
 62
7
100
AcDbBlockReference
  2
_OBLIQUE
 10
1.47
 20
-8.31
 30
0.0
 41
0.24
 42
0.24
  0
INSERT
  5
1D4
330
1CD
100
AcDbEntity
  8
T-COTA-100
 62
7
100
AcDbBlockReference
  2
_OBLIQUE
 10
8.85
 20
-8.31
 30
0.0
 41
0.24
 42
0.24
  0
LINE
  5
1D6
330
1CD
100
AcDbEntity
  8
0
 62
7
370
18
100
AcDbLine
 10
1.3699999999999999
 20
-8.31
 30
0.0
 11
8.95
 21
-8.31
 31
0.0
  0
MTEXT
  5
1D7
330
1CD
100
AcDbEntity
  8
T-COTA-100
 62
7
100
AcDbMText
 10
5.16
 20
-8.120000000000001
 30
0.0
 40
0.22000000000000003
 71
5
  1
7.38
  7
ARIAL
  0
POINT
  5
1D8
330
1CD
100
AcDbEntity
  8
Defpoints
100
AcDbPoint
 10
1.47
 20
-8.31
 30
0.0
  0
POINT
  5
1D9
330
1CD
100
AcDbEntity
  8
Defpoints
100
AcDbPoint
 10
1.47
 20
-7.76
 30
0.0
  0
POINT
  5
1DA
330
1CD
100
AcDbEntity
  8
Defpoints
100
AcDbPoint
 10
8.85
 20
-7.76
 30
0.0
  0
ENDBLK
  5
1CF
330
1CD
100
AcDbEntity
  8
0
100
AcDbBlockEnd
  0
BLOCK
  5
1DC
330
1DB
100
AcDbEntity
  8
0
100
AcDbBlockBegin
  2
*D17
 70
1
 10
0.0
 20
0.0
 30
0.0
  3
*D17
  1

  0
LINE
  5
1DE
330
1DB
100
AcDbEntity
  8
0
 62
7
370
13
100
AcDbLine
 10
4.81
 20
-17.080000000000002
 30
0.0
 11
4.81
 21
-17.630000000000003
 31
0.0
  0
LINE
  5
1DF
330
1DB
100
AcDbEntity
  8
0
 62
7
370
13
100
AcDbLine
 10
8.85
 20
-17.080000000000002
 30
0.0
 11
8.85
 21
-17.630000000000003
 31
0.0
  0
INSERT
  5
1E0
330
1DB
100
AcDbEntity
  8
T-COTA-100
 62
7
100
AcDbBlockReference
  2
_OBLIQUE
 10
4.81
 20
-17.53
 30
0.0
 41
0.24
 42
0.24
  0
INSERT
  5
1E2
330
1DB
100
AcDbEntity
  8
T-COTA-100
 62
7
100
AcDbBlockReference
  2
_OBLIQUE
 10
8.85
 20
-17.53
 30
0.0
 41
0.24
 42
0.24
  0
LINE
  5
1E4
330
1DB
100
AcDbEntity
  8
0
 62
7
370
18
100
AcDbLine
 10
4.71
 20
-17.53
 30
0.0
 11
8.95
 21
-17.53
 31
0.0
  0
MTEXT
  5
1E5
330
1DB
100
AcDbEntity
  8
T-COTA-100
 62
7
100
AcDbMText
 10
6.83
 20
-17.34
 30
0.0
 40
0.22000000000000003
 71
5
  1
4.04
  7
ARIAL
  0
POINT
  5
1E6
330
1DB
100
AcDbEntity
  8
Defpoints
100
AcDbPoint
 10
4.81
 20
-17.53
 30
0.0
  0
POINT
  5
1E7
330
1DB
100
AcDbEntity
  8
Defpoints
100
AcDbPoint
 10
4.81
 20
-16.98
 30
0.0
  0
POINT
  5
1E8
330
1DB
100
AcDbEntity
  8
Defpoints
100
AcDbPoint
 10
8.85
 20
-16.98
 30
0.0
  0
ENDBLK
  5
1DD
330
1DB
100
AcDbEntity
  8
0
100
AcDbBlockEnd
  0
BLOCK
  5
1EA
330
1E9
100
AcDbEntity
  8
0
100
AcDbBlockBegin
  2
*D18
 70
1
 10
0.0
 20
0.0
 30
0.0
  3
*D18
  1

  0
LINE
  5
1EC
330
1E9
100
AcDbEntity
  8
0
 62
7
370
13
100
AcDbLine
 10
0.0
 20
-25.28
 30
0.0
 11
0.0
 21
-25.880000000000003
 31
0.0
  0
LINE
  5
1ED
330
1E9
100
AcDbEntity
  8
0
 62
7
370
13
100
AcDbLine
 10
9.0
 20
-25.28
 30
0.0
 11
9.0
 21
-25.880000000000003
 31
0.0
  0
INSERT
  5
1EE
330
1E9
100
AcDbEntity
  8
T-COTA-100
 62
7
100
AcDbBlockReference
  2
_OBLIQUE
 10
0.0
 20
-25.78
 30
0.0
 41
0.24
 42
0.24
  0
INSERT
  5
1F0
330
1E9
100
AcDbEntity
  8
T-COTA-100
 62
7
100
AcDbBlockReference
  2
_OBLIQUE
 10
9.0
 20
-25.78
 30
0.0
 41
0.24
 42
0.24
  0
LINE
  5
1F2
330
1E9
100
AcDbEntity
  8
0
 62
7
370
18
100
AcDbLine
 10
-0.1
 20
-25.78
 30
0.0
 11
9.1
 21
-25.78
 31
0.0
  0
MTEXT
  5
1F3
330
1E9
100
AcDbEntity
  8
T-COTA-100
 62
7
100
AcDbMText
 10
4.5
 20
-25.59
 30
0.0
 40
0.22000000000000003
 71
5
  1
9.00
  7
ARIAL
  0
POINT
  5
1F4
330
1E9
100
AcDbEntity
  8
Defpoints
100
AcDbPoint
 10
0.0
 20
-25.78
 30
0.0
  0
POINT
  5
1F5
330
1E9
100
AcDbEntity
  8
Defpoints
100
AcDbPoint
 10
0.0
 20
-25.18
 30
0.0
  0
POINT
  5
1F6
330
1E9
100
AcDbEntity
  8
Defpoints
100
AcDbPoint
 10
9.0
 20
-25.18
 30
0.0
  0
ENDBLK
  5
1EB
330
1E9
100
AcDbEntity
  8
0
100
AcDbBlockEnd
  0
BLOCK
  5
205
330
204
100
AcDbEntity
  8
0
100
AcDbBlockBegin
  2
*Paper_Space
 70
0
 10
0.0
 20
0.0
 30
0.0
  3
*Paper_Space
  1

  0
ENDBLK
  5
206
330
204
100
AcDbEntity
  8
0
100
AcDbBlockEnd
  0
BLOCK
  5
1C
330
1B
100
AcDbEntity
  8
0
100
AcDbBlockBegin
  2
*Paper_Space0
 70
0
 10
0.0
 20
0.0
 30
0.0
  3
*Paper_Space0
  1

  0
ENDBLK
  5
1D
330
1B
100
AcDbEntity
  8
0
100
AcDbBlockEnd
  0
BLOCK
  5
2FA
330
2F9
100
AcDbEntity
  8
0
100
AcDbBlockBegin
  2
CAJETIN_A1
 70
2
 10
0.0
 20
0.0
 30
0.0
  3
CAJETIN_A1
  1

  0
LWPOLYLINE
  5
2FC
330
2F9
100
AcDbEntity
  8
0
100
AcDbPolyline
 90
4
 70
1
 10
0.0
 20
0.0
 10
120.0
 20
0.0
 10
120.0
 20
574.0
 10
0.0
 20
574.0
  0
TEXT
  5
2FD
330
2F9
100
AcDbEntity
  8
0
100
AcDbText
 10
3.0
 20
571.0
 30
0.0
 40
2.0
  1
ESPACIO PARA SELLOS Y TIMBRES
  7
ARIAL
 11
3.0
 21
571.0
 31
0.0
100
AcDbText
 73
3
  0
LINE
  5
2FE
330
2F9
100
AcDbEntity
  8
0
100
AcDbLine
 10
0.0
 20
255.6
 30
0.0
 11
120.0
 21
255.6
 31
0.0
  0
ATTDEF
  5
2FF
330
2F9
100
AcDbEntity
  8
0
100
AcDbText
 10
60.0
 20
251.6
 30
0.0
 40
3.2
  1

  7
ARIAL
 72
1
 11
60.0
 21
251.6
 31
0.0
100
AcDbAttributeDefinition
  3

  2
EMPRESA
 70
0
 74
3
 71
1
 72
0
 11
60.0
 21
251.6
 31
0.0
  0
ATTDEF
  5
300
330
2F9
100
AcDbEntity
  8
0
100
AcDbText
 10
60.0
 20
245.6
 30
0.0
 40
2.5
  1

  7
ARIAL
 72
1
 11
60.0
 21
245.6
 31
0.0
100
AcDbAttributeDefinition
  3

  2
EMPRESA_CED
 70
0
 74
3
 71
1
 72
0
 11
60.0
 21
245.6
 31
0.0
  0
LINE
  5
301
330
2F9
100
AcDbEntity
  8
0
100
AcDbLine
 10
0.0
 20
237.6
 30
0.0
 11
120.0
 21
237.6
 31
0.0
  0
TEXT
  5
302
330
2F9
100
AcDbEntity
  8
0
100
AcDbText
 10
3.0
 20
235.1
 30
0.0
 40
2.2
  1
PROFESIONAL RESPONSABLE:
  7
ARIAL
 11
3.0
 21
235.1
 31
0.0
100
AcDbText
 73
3
  0
ATTDEF
  5
303
330
2F9
100
AcDbEntity
  8
0
100
AcDbText
 10
3.0
 20
230.1
 30
0.0
 40
2.6
  1

  7
ARIAL
 11
3.0
 21
230.1
 31
0.0
100
AcDbAttributeDefinition
  3

  2
PROF_1
 70
0
 74
3
 71
1
 72
0
 11
3.0
 21
230.1
 31
0.0
  0
ATTDEF
  5
304
330
2F9
100
AcDbEntity
  8
0
100
AcDbText
 10
3.0
 20
225.6
 30
0.0
 40
2.6
  1

  7
ARIAL
 11
3.0
 21
225.6
 31
0.0
100
AcDbAttributeDefinition
  3

  2
PROF_2
 70
0
 74
3
 71
1
 72
0
 11
3.0
 21
225.6
 31
0.0
  0
ATTDEF
  5
305
330
2F9
100
AcDbEntity
  8
0
100
AcDbText
 10
3.0
 20
221.1
 30
0.0
 40
2.6
  1

  7
ARIAL
 11
3.0
 21
221.1
 31
0.0
100
AcDbAttributeDefinition
  3

  2
PROF_3
 70
0
 74
3
 71
1
 72
0
 11
3.0
 21
221.1
 31
0.0
  0
LINE
  5
306
330
2F9
100
AcDbEntity
  8
0
100
AcDbLine
 10
0.0
 20
215.6
 30
0.0
 11
120.0
 21
215.6
 31
0.0
  0
TEXT
  5
307
330
2F9
100
AcDbEntity
  8
0
100
AcDbText
 10
3.0
 20
213.1
 30
0.0
 40
2.2
  1
PROYECTO:
  7
ARIAL
 11
3.0
 21
213.1
 31
0.0
100
AcDbText
 73
3
  0
ATTDEF
  5
308
330
2F9
100
AcDbEntity
  8
0
100
AcDbText
 10
3.0
 20
208.1
 30
0.0
 40
4.2
  1

  7
ARIAL
 11
3.0
 21
208.1
 31
0.0
100
AcDbAttributeDefinition
  3

  2
PROYECTO
 70
0
 74
3
 71
1
 72
0
 11
3.0
 21
208.1
 31
0.0
  0
ATTDEF
  5
309
330
2F9
100
AcDbEntity
  8
0
100
AcDbText
 10
3.0
 20
201.1
 30
0.0
 40
2.5
  1

  7
ARIAL
 11
3.0
 21
201.1
 31
0.0
100
AcDbAttributeDefinition
  3

  2
UBIC_1
 70
0
 74
3
 71
1
 72
0
 11
3.0
 21
201.1
 31
0.0
  0
ATTDEF
  5
30A
330
2F9
100
AcDbEntity
  8
0
100
AcDbText
 10
3.0
 20
196.6
 30
0.0
 40
2.5
  1

  7
ARIAL
 11
3.0
 21
196.6
 31
0.0
100
AcDbAttributeDefinition
  3

  2
UBIC_2
 70
0
 74
3
 71
1
 72
0
 11
3.0
 21
196.6
 31
0.0
  0
ATTDEF
  5
30B
330
2F9
100
AcDbEntity
  8
0
100
AcDbText
 10
3.0
 20
192.1
 30
0.0
 40
2.5
  1

  7
ARIAL
 11
3.0
 21
192.1
 31
0.0
100
AcDbAttributeDefinition
  3

  2
UBIC_3
 70
0
 74
3
 71
1
 72
0
 11
3.0
 21
192.1
 31
0.0
  0
LINE
  5
30C
330
2F9
100
AcDbEntity
  8
0
100
AcDbLine
 10
0.0
 20
186.6
 30
0.0
 11
120.0
 21
186.6
 31
0.0
  0
TEXT
  5
30D
330
2F9
100
AcDbEntity
  8
0
100
AcDbText
 10
3.0
 20
184.1
 30
0.0
 40
2.2
  1
INFORMACIÓN REGISTRO PÚBLICO:
  7
ARIAL
 11
3.0
 21
184.1
 31
0.0
100
AcDbText
 73
3
  0
ATTDEF
  5
30E
330
2F9
100
AcDbEntity
  8
0
100
AcDbText
 10
3.0
 20
179.1
 30
0.0
 40
2.5
  1

  7
ARIAL
 11
3.0
 21
179.1
 31
0.0
100
AcDbAttributeDefinition
  3

  2
REG_1
 70
0
 74
3
 71
1
 72
0
 11
3.0
 21
179.1
 31
0.0
  0
ATTDEF
  5
30F
330
2F9
100
AcDbEntity
  8
0
100
AcDbText
 10
3.0
 20
174.6
 30
0.0
 40
2.5
  1

  7
ARIAL
 11
3.0
 21
174.6
 31
0.0
100
AcDbAttributeDefinition
  3

  2
REG_2
 70
0
 74
3
 71
1
 72
0
 11
3.0
 21
174.6
 31
0.0
  0
ATTDEF
  5
310
330
2F9
100
AcDbEntity
  8
0
100
AcDbText
 10
3.0
 20
170.1
 30
0.0
 40
2.5
  1

  7
ARIAL
 11
3.0
 21
170.1
 31
0.0
100
AcDbAttributeDefinition
  3

  2
REG_3
 70
0
 74
3
 71
1
 72
0
 11
3.0
 21
170.1
 31
0.0
  0
LINE
  5
311
330
2F9
100
AcDbEntity
  8
0
100
AcDbLine
 10
0.0
 20
164.6
 30
0.0
 11
120.0
 21
164.6
 31
0.0
  0
TEXT
  5
312
330
2F9
100
AcDbEntity
  8
0
100
AcDbText
 10
3.0
 20
162.1
 30
0.0
 40
2.2
  1
CONTENIDO:
  7
ARIAL
 11
3.0
 21
162.1
 31
0.0
100
AcDbText
 73
3
  0
ATTDEF
  5
313
330
2F9
100
AcDbEntity
  8
0
100
AcDbText
 10
3.0
 20
157.1
 30
0.0
 40
5.0
  1

  7
ARIAL
 11
3.0
 21
157.1
 31
0.0
100
AcDbAttributeDefinition
  3

  2
CONT_TIT
 70
0
 74
3
 71
1
 72
0
 11
3.0
 21
157.1
 31
0.0
  0
ATTDEF
  5
314
330
2F9
100
AcDbEntity
  8
0
100
AcDbText
 10
3.0
 20
149.6
 30
0.0
 40
3.0
  1

  7
ARIAL
 11
3.0
 21
149.6
 31
0.0
100
AcDbAttributeDefinition
  3

  2
CONT_1
 70
0
 74
3
 71
1
 72
0
 11
3.0
 21
149.6
 31
0.0
  0
ATTDEF
  5
315
330
2F9
100
AcDbEntity
  8
0
100
AcDbText
 10
3.0
 20
144.1
 30
0.0
 40
3.0
  1

  7
ARIAL
 11
3.0
 21
144.1
 31
0.0
100
AcDbAttributeDefinition
  3

  2
CONT_2
 70
0
 74
3
 71
1
 72
0
 11
3.0
 21
144.1
 31
0.0
  0
ATTDEF
  5
316
330
2F9
100
AcDbEntity
  8
0
100
AcDbText
 10
3.0
 20
138.6
 30
0.0
 40
3.0
  1

  7
ARIAL
 11
3.0
 21
138.6
 31
0.0
100
AcDbAttributeDefinition
  3

  2
CONT_3
 70
0
 74
3
 71
1
 72
0
 11
3.0
 21
138.6
 31
0.0
  0
ATTDEF
  5
317
330
2F9
100
AcDbEntity
  8
0
100
AcDbText
 10
3.0
 20
133.1
 30
0.0
 40
3.0
  1

  7
ARIAL
 11
3.0
 21
133.1
 31
0.0
100
AcDbAttributeDefinition
  3

  2
CONT_4
 70
0
 74
3
 71
1
 72
0
 11
3.0
 21
133.1
 31
0.0
  0
ATTDEF
  5
318
330
2F9
100
AcDbEntity
  8
0
100
AcDbText
 10
3.0
 20
127.6
 30
0.0
 40
3.0
  1

  7
ARIAL
 11
3.0
 21
127.6
 31
0.0
100
AcDbAttributeDefinition
  3

  2
CONT_5
 70
0
 74
3
 71
1
 72
0
 11
3.0
 21
127.6
 31
0.0
  0
ATTDEF
  5
319
330
2F9
100
AcDbEntity
  8
0
100
AcDbText
 10
3.0
 20
122.1
 30
0.0
 40
3.0
  1

  7
ARIAL
 11
3.0
 21
122.1
 31
0.0
100
AcDbAttributeDefinition
  3

  2
CONT_6
 70
0
 74
3
 71
1
 72
0
 11
3.0
 21
122.1
 31
0.0
  0
LINE
  5
31A
330
2F9
100
AcDbEntity
  8
0
100
AcDbLine
 10
0.0
 20
114.6
 30
0.0
 11
120.0
 21
114.6
 31
0.0
  0
TEXT
  5
31B
330
2F9
100
AcDbEntity
  8
0
100
AcDbText
 10
3.0
 20
112.1
 30
0.0
 40
2.2
  1
ESCALAS:
  7
ARIAL
 11
3.0
 21
112.1
 31
0.0
100
AcDbText
 73
3
  0
ATTDEF
  5
31C
330
2F9
100
AcDbEntity
  8
0
100
AcDbText
 10
25.0
 20
112.1
 30
0.0
 40
2.2
  1

  7
ARIAL
 11
25.0
 21
112.1
 31
0.0
100
AcDbAttributeDefinition
  3

  2
ESCALAS
 70
0
 74
3
 71
1
 72
0
 11
25.0
 21
112.1
 31
0.0
  0
LINE
  5
31D
330
2F9
100
AcDbEntity
  8
0
100
AcDbLine
 10
0.0
 20
107.6
 30
0.0
 11
120.0
 21
107.6
 31
0.0
  0
TEXT
  5
31E
330
2F9
100
AcDbEntity
  8
0
100
AcDbText
 10
3.0
 20
105.6
 30
0.0
 40
2.2
  1
CONTROL DE REVISIONES
  7
ARIAL
 11
3.0
 21
105.6
 31
0.0
100
AcDbText
 73
3
  0
LINE
  5
31F
330
2F9
100
AcDbEntity
  8
0
100
AcDbLine
 10
0.0
 20
101.6
 30
0.0
 11
120.0
 21
101.6
 31
0.0
  0
TEXT
  5
320
330
2F9
100
AcDbEntity
  8
0
100
AcDbText
 10
6.0
 20
99.1
 30
0.0
 40
2.0
  1
REV.
  7
ARIAL
 72
1
 11
6.0
 21
99.1
 31
0.0
100
AcDbText
 73
2
  0
TEXT
  5
321
330
2F9
100
AcDbEntity
  8
0
100
AcDbText
 10
23.0
 20
99.1
 30
0.0
 40
2.0
  1
FECHA
  7
ARIAL
 72
1
 11
23.0
 21
99.1
 31
0.0
100
AcDbText
 73
2
  0
TEXT
  5
322
330
2F9
100
AcDbEntity
  8
0
100
AcDbText
 10
77.0
 20
99.1
 30
0.0
 40
2.0
  1
DESCRIPCIÓN
  7
ARIAL
 72
1
 11
77.0
 21
99.1
 31
0.0
100
AcDbText
 73
2
  0
LINE
  5
323
330
2F9
100
AcDbEntity
  8
0
100
AcDbLine
 10
0.0
 20
96.6
 30
0.0
 11
120.0
 21
96.6
 31
0.0
  0
ATTDEF
  5
324
330
2F9
100
AcDbEntity
  8
0
100
AcDbText
 10
6.0
 20
94.0
 30
0.0
 40
2.0
  1

  7
ARIAL
 72
1
 11
6.0
 21
94.0
 31
0.0
100
AcDbAttributeDefinition
  3

  2
REV0_N
 70
0
 74
2
 71
1
 72
0
 11
6.0
 21
94.0
 31
0.0
  0
ATTDEF
  5
325
330
2F9
100
AcDbEntity
  8
0
100
AcDbText
 10
23.0
 20
94.0
 30
0.0
 40
2.0
  1

  7
ARIAL
 72
1
 11
23.0
 21
94.0
 31
0.0
100
AcDbAttributeDefinition
  3

  2
REV0_F
 70
0
 74
2
 71
1
 72
0
 11
23.0
 21
94.0
 31
0.0
  0
ATTDEF
  5
326
330
2F9
100
AcDbEntity
  8
0
100
AcDbText
 10
35.5
 20
94.0
 30
0.0
 40
2.0
  1

  7
ARIAL
 11
35.5
 21
94.0
 31
0.0
100
AcDbAttributeDefinition
  3

  2
REV0_D
 70
0
 74
2
 71
1
 72
0
 11
35.5
 21
94.0
 31
0.0
  0
LINE
  5
327
330
2F9
100
AcDbEntity
  8
0
100
AcDbLine
 10
0.0
 20
91.39999999999999
 30
0.0
 11
120.0
 21
91.39999999999999
 31
0.0
  0
ATTDEF
  5
328
330
2F9
100
AcDbEntity
  8
0
100
AcDbText
 10
6.0
 20
88.8
 30
0.0
 40
2.0
  1

  7
ARIAL
 72
1
 11
6.0
 21
88.8
 31
0.0
100
AcDbAttributeDefinition
  3

  2
REV1_N
 70
0
 74
2
 71
1
 72
0
 11
6.0
 21
88.8
 31
0.0
  0
ATTDEF
  5
329
330
2F9
100
AcDbEntity
  8
0
100
AcDbText
 10
23.0
 20
88.8
 30
0.0
 40
2.0
  1

  7
ARIAL
 72
1
 11
23.0
 21
88.8
 31
0.0
100
AcDbAttributeDefinition
  3

  2
REV1_F
 70
0
 74
2
 71
1
 72
0
 11
23.0
 21
88.8
 31
0.0
  0
ATTDEF
  5
32A
330
2F9
100
AcDbEntity
  8
0
100
AcDbText
 10
35.5
 20
88.8
 30
0.0
 40
2.0
  1

  7
ARIAL
 11
35.5
 21
88.8
 31
0.0
100
AcDbAttributeDefinition
  3

  2
REV1_D
 70
0
 74
2
 71
1
 72
0
 11
35.5
 21
88.8
 31
0.0
  0
LINE
  5
32B
330
2F9
100
AcDbEntity
  8
0
100
AcDbLine
 10
0.0
 20
86.19999999999999
 30
0.0
 11
120.0
 21
86.19999999999999
 31
0.0
  0
ATTDEF
  5
32C
330
2F9
100
AcDbEntity
  8
0
100
AcDbText
 10
6.0
 20
83.6
 30
0.0
 40
2.0
  1

  7
ARIAL
 72
1
 11
6.0
 21
83.6
 31
0.0
100
AcDbAttributeDefinition
  3

  2
REV2_N
 70
0
 74
2
 71
1
 72
0
 11
6.0
 21
83.6
 31
0.0
  0
ATTDEF
  5
32D
330
2F9
100
AcDbEntity
  8
0
100
AcDbText
 10
23.0
 20
83.6
 30
0.0
 40
2.0
  1

  7
ARIAL
 72
1
 11
23.0
 21
83.6
 31
0.0
100
AcDbAttributeDefinition
  3

  2
REV2_F
 70
0
 74
2
 71
1
 72
0
 11
23.0
 21
83.6
 31
0.0
  0
ATTDEF
  5
32E
330
2F9
100
AcDbEntity
  8
0
100
AcDbText
 10
35.5
 20
83.6
 30
0.0
 40
2.0
  1

  7
ARIAL
 11
35.5
 21
83.6
 31
0.0
100
AcDbAttributeDefinition
  3

  2
REV2_D
 70
0
 74
2
 71
1
 72
0
 11
35.5
 21
83.6
 31
0.0
  0
LINE
  5
32F
330
2F9
100
AcDbEntity
  8
0
100
AcDbLine
 10
0.0
 20
80.99999999999999
 30
0.0
 11
120.0
 21
80.99999999999999
 31
0.0
  0
LINE
  5
330
330
2F9
100
AcDbEntity
  8
0
100
AcDbLine
 10
12.0
 20
101.6
 30
0.0
 11
12.0
 21
80.99999999999999
 31
0.0
  0
LINE
  5
331
330
2F9
100
AcDbEntity
  8
0
100
AcDbLine
 10
34.0
 20
101.6
 30
0.0
 11
34.0
 21
80.99999999999999
 31
0.0
  0
TEXT
  5
332
330
2F9
100
AcDbEntity
  8
0
100
AcDbText
 10
3.0
 20
78.49999999999999
 30
0.0
 40
2.2
  1
ESTADO:
  7
ARIAL
 11
3.0
 21
78.49999999999999
 31
0.0
100
AcDbText
 73
3
  0
ATTDEF
  5
333
330
2F9
100
AcDbEntity
  8
0
100
AcDbText
 10
60.0
 20
72.99999999999999
 30
0.0
 40
3.0
  1

  7
ARIAL
 72
1
 11
60.0
 21
72.99999999999999
 31
0.0
100
AcDbAttributeDefinition
  3

  2
ESTADO_1
 70
0
 74
3
 71
1
 72
0
 11
60.0
 21
72.99999999999999
 31
0.0
  0
ATTDEF
  5
334
330
2F9
100
AcDbEntity
  8
0
100
AcDbText
 10
60.0
 20
67.99999999999999
 30
0.0
 40
2.4
  1

  7
ARIAL
 72
1
 11
60.0
 21
67.99999999999999
 31
0.0
100
AcDbAttributeDefinition
  3

  2
ESTADO_2
 70
0
 74
3
 71
1
 72
0
 11
60.0
 21
67.99999999999999
 31
0.0
  0
LINE
  5
335
330
2F9
100
AcDbEntity
  8
0
100
AcDbLine
 10
0.0
 20
61.999999999999986
 30
0.0
 11
120.0
 21
61.999999999999986
 31
0.0
  0
LINE
  5
336
330
2F9
100
AcDbEntity
  8
0
100
AcDbLine
 10
0.0
 20
52.999999999999986
 30
0.0
 11
120.0
 21
52.999999999999986
 31
0.0
  0
LINE
  5
337
330
2F9
100
AcDbEntity
  8
0
100
AcDbLine
 10
0.0
 20
26.999999999999986
 30
0.0
 11
120.0
 21
26.999999999999986
 31
0.0
  0
LINE
  5
338
330
2F9
100
AcDbEntity
  8
0
100
AcDbLine
 10
66.0
 20
61.999999999999986
 30
0.0
 11
66.0
 21
0.0
 31
0.0
  0
TEXT
  5
339
330
2F9
100
AcDbEntity
  8
0
100
AcDbText
 10
33.0
 20
57.499999999999986
 30
0.0
 40
3.0
  1
LUGAR
  7
ARIAL
 72
1
 11
33.0
 21
57.499999999999986
 31
0.0
100
AcDbText
 73
2
  0
TEXT
  5
33A
330
2F9
100
AcDbEntity
  8
0
100
AcDbText
 10
93.0
 20
57.499999999999986
 30
0.0
 40
3.0
  1
LÁMINA
  7
ARIAL
 72
1
 11
93.0
 21
57.499999999999986
 31
0.0
100
AcDbText
 73
2
  0
ATTDEF
  5
33B
330
2F9
100
AcDbEntity
  8
0
100
AcDbText
 10
33.0
 20
39.999999999999986
 30
0.0
 40
5.0
  1

  7
ARIAL
 72
1
 11
33.0
 21
39.999999999999986
 31
0.0
100
AcDbAttributeDefinition
  3

  2
LUGAR
 70
0
 74
2
 71
1
 72
0
 11
33.0
 21
39.999999999999986
 31
0.0
  0
ATTDEF
  5
33C
330
2F9
100
AcDbEntity
  8
0
100
AcDbText
 10
93.0
 20
39.999999999999986
 30
0.0
 40
14.0
  1

  7
ARIAL
 72
1
 11
93.0
 21
39.999999999999986
 31
0.0
100
AcDbAttributeDefinition
  3

  2
LAMINA
 70
0
 74
2
 71
1
 72
0
 11
93.0
 21
39.999999999999986
 31
0.0
  0
ATTDEF
  5
33D
330
2F9
100
AcDbEntity
  8
0
100
AcDbText
 10
33.0
 20
13.499999999999993
 30
0.0
 40
6.0
  1

  7
ARIAL
 72
1
 11
33.0
 21
13.499999999999993
 31
0.0
100
AcDbAttributeDefinition
  3

  2
FECHA
 70
0
 74
2
 71
1
 72
0
 11
33.0
 21
13.499999999999993
 31
0.0
  0
TEXT
  5
33E
330
2F9
100
AcDbEntity
  8
0
100
AcDbText
 10
70.0
 20
13.499999999999993
 30
0.0
 40
3.0
  1
TOTAL
  7
ARIAL
 11
70.0
 21
13.499999999999993
 31
0.0
100
AcDbText
 73
2
  0
ATTDEF
  5
33F
330
2F9
100
AcDbEntity
  8
0
100
AcDbText
 10
104.0
 20
13.499999999999993
 30
0.0
 40
9.0
  1

  7
ARIAL
 72
1
 11
104.0
 21
13.499999999999993
 31
0.0
100
AcDbAttributeDefinition
  3

  2
TOTAL
 70
0
 74
2
 71
1
 72
0
 11
104.0
 21
13.499999999999993
 31
0.0
  0
ENDBLK
  5
2FB
330
2F9
100
AcDbEntity
  8
0
100
AcDbBlockEnd
  0
ENDSEC
  0
SECTION
  2
ENTITIES
  0
LWPOLYLINE
  5
C3
330
17
100
AcDbEntity
  8
T-LINDERO
100
AcDbPolyline
 90
5
 70
1
 10
0.0
 20
-0.0
 10
4.664716672341735
 20
-0.010879637986303953
 10
9.007424821148515
 20
-0.05655167053563409
 10
8.999803462886003
 20
-28.51811244861565
 10
0.0
 20
-28.511978184595964
  0
INSERT
  5
C4
330
17
100
AcDbEntity
  8
T-VERTICE
100
AcDbBlockReference
  2
VERTICE
 10
0.0
 20
-0.0
 30
0.0
  0
TEXT
  5
C6
330
17
100
AcDbEntity
  8
T-TXT-200
100
AcDbText
 10
-0.75
 20
0.75
 30
0.0
 40
0.4
  1
1
  7
ARIAL
 72
1
 11
-0.75
 21
0.75
 31
0.0
100
AcDbText
 73
2
  0
TEXT
  5
C7
330
17
100
AcDbEntity
  8
T-TXT-100
100
AcDbText
 10
-0.5
 20
0.5
 30
0.0
 40
0.25
  1
1
  7
ARIAL
 72
1
 11
-0.5
 21
0.5
 31
0.0
100
AcDbText
 73
2
  0
INSERT
  5
C8
330
17
100
AcDbEntity
  8
T-VERTICE
100
AcDbBlockReference
  2
VERTICE
 10
4.664716672341735
 20
-0.010879637986303953
 30
0.0
  0
TEXT
  5
CA
330
17
100
AcDbEntity
  8
T-TXT-200
100
AcDbText
 10
5.339716672341734
 20
-0.760879637986304
 30
0.0
 40
0.4
  1
2
  7
ARIAL
 72
1
 11
5.339716672341734
 21
-0.760879637986304
 31
0.0
100
AcDbText
 73
2
  0
TEXT
  5
CB
330
17
100
AcDbEntity
  8
T-TXT-100
100
AcDbText
 10
5.114716672341735
 20
-0.510879637986304
 30
0.0
 40
0.25
  1
2
  7
ARIAL
 72
1
 11
5.114716672341735
 21
-0.510879637986304
 31
0.0
100
AcDbText
 73
2
  0
INSERT
  5
CC
330
17
100
AcDbEntity
  8
T-VERTICE
100
AcDbBlockReference
  2
VERTICE
 10
9.007424821148515
 20
-0.05655167053563409
 30
0.0
  0
TEXT
  5
CE
330
17
100
AcDbEntity
  8
T-TXT-200
100
AcDbText
 10
9.757424821148515
 20
0.6934483294643659
 30
0.0
 40
0.4
  1
3
  7
ARIAL
 72
1
 11
9.757424821148515
 21
0.6934483294643659
 31
0.0
100
AcDbText
 73
2
  0
TEXT
  5
CF
330
17
100
AcDbEntity
  8
T-TXT-100
100
AcDbText
 10
9.507424821148515
 20
0.4434483294643659
 30
0.0
 40
0.25
  1
3
  7
ARIAL
 72
1
 11
9.507424821148515
 21
0.4434483294643659
 31
0.0
100
AcDbText
 73
2
  0
INSERT
  5
D0
330
17
100
AcDbEntity
  8
T-VERTICE
100
AcDbBlockReference
  2
VERTICE
 10
8.999803462886003
 20
-28.51811244861565
 30
0.0
  0
TEXT
  5
D2
330
17
100
AcDbEntity
  8
T-TXT-200
100
AcDbText
 10
9.749803462886003
 20
-29.26811244861565
 30
0.0
 40
0.4
  1
4
  7
ARIAL
 72
1
 11
9.749803462886003
 21
-29.26811244861565
 31
0.0
100
AcDbText
 73
2
  0
TEXT
  5
D3
330
17
100
AcDbEntity
  8
T-TXT-100
100
AcDbText
 10
9.499803462886003
 20
-29.01811244861565
 30
0.0
 40
0.25
  1
4
  7
ARIAL
 72
1
 11
9.499803462886003
 21
-29.01811244861565
 31
0.0
100
AcDbText
 73
2
  0
INSERT
  5
D4
330
17
100
AcDbEntity
  8
T-VERTICE
100
AcDbBlockReference
  2
VERTICE
 10
0.0
 20
-28.511978184595964
 30
0.0
  0
TEXT
  5
D6
330
17
100
AcDbEntity
  8
T-TXT-200
100
AcDbText
 10
-0.75
 20
-29.261978184595964
 30
0.0
 40
0.4
  1
5
  7
ARIAL
 72
1
 11
-0.75
 21
-29.261978184595964
 31
0.0
100
AcDbText
 73
2
  0
TEXT
  5
D7
330
17
100
AcDbEntity
  8
T-TXT-100
100
AcDbText
 10
-0.5
 20
-29.011978184595964
 30
0.0
 40
0.25
  1
5
  7
ARIAL
 72
1
 11
-0.5
 21
-29.011978184595964
 31
0.0
100
AcDbText
 73
2
  0
DIMENSION
  5
D8
330
17
100
AcDbEntity
  8
T-COTA-200
100
AcDbDimension
280
0
  2
*D1
  3
COTA-200
 10
0.0037317107672475416
 20
1.599995648223691
 30
0.0
 11
2.3369763282453357
 21
1.9745547956836658
 31
0.0
 70
32
 71
5
  1
<>
100
AcDbAlignedDimension
 13
0.0
 23
-0.0
 33
0.0
 14
4.664716672341735
 24
-0.010879637986303953
 34
0.0
 50
-0.1336321694828747
100
AcDbRotatedDimension
  0
DIMENSION
  5
EB
330
17
100
AcDbEntity
  8
T-COTA-200
100
AcDbDimension
280
0
  2
*D2
  3
COTA-200
 10
4.681542857437086
 20
1.5890318844095872
 30
0.0
 11
6.856893150800622
 21
1.9461748547039464
 31
0.0
 70
32
 71
5
  1
<>
100
AcDbAlignedDimension
 13
4.664716672341735
 23
-0.010879637986303953
 33
0.0
 14
9.007424821148515
 24
-0.05655167053563409
 34
0.0
 50
-0.602554476371176
100
AcDbRotatedDimension
  0
DIMENSION
  5
FA
330
17
100
AcDbEntity
  8
T-COTA-200
100
AcDbDimension
280
0
  2
*D3
  3
COTA-200
 10
10.599803405522284
 20
-28.518540892189776
 30
0.0
 11
10.223614098277423
 21
-14.287658747805047
 31
0.0
 70
32
 71
5
  1
<>
100
AcDbAlignedDimension
 13
8.999803462886003
 23
-28.51811244861565
 33
0.0
 14
9.007424821148515
 24
-0.05655167053563409
 34
0.0
 50
89.98465749452158
100
AcDbRotatedDimension
  0
DIMENSION
  5
109
330
17
100
AcDbEntity
  8
T-COTA-200
100
AcDbDimension
280
0
  2
*D4
  3
COTA-200
 10
-0.00109055938744621
 20
-30.11197781293349
 30
0.0
 11
4.499070179910073
 21
-29.73504503321317
 31
0.0
 70
32
 71
5
  1
<>
100
AcDbAlignedDimension
 13
0.0
 23
-28.511978184595964
 33
0.0
 14
8.999803462886003
 24
-28.51811244861565
 34
0.0
 50
-0.03905278440449431
100
AcDbRotatedDimension
  0
DIMENSION
  5
118
330
17
100
AcDbEntity
  8
T-COTA-200
100
AcDbDimension
280
0
  2
*D5
  3
COTA-200
 10
-1.6
 20
-28.511978184595964
 30
0.0
 11
-1.9800000000000002
 21
-14.255989092297982
 31
0.0
 70
32
 71
5
  1
<>
100
AcDbAlignedDimension
 13
0.0
 23
-28.511978184595964
 33
0.0
 14
0.0
 24
-0.0
 34
0.0
 50
90.0
100
AcDbRotatedDimension
  0
TEXT
  5
127
330
17
100
AcDbEntity
  8
T-TXT-200
100
AcDbText
 10
4.5
 20
4.2
 30
0.0
 40
0.7
  1
CALLE PÚBLICA
  7
ARIAL
 72
1
 11
4.5
 21
4.2
 31
0.0
100
AcDbText
 73
2
  0
TEXT
  5
128
330
17
100
AcDbEntity
  8
T-TXT-200
100
AcDbText
 10
-3.4
 20
-14.26
 30
0.0
 40
0.45
  1
COLINDA: ID. PREDIAL 40503004120000
 50
90.0
  7
ARIAL
 72
1
 11
-3.4
 21
-14.26
 31
0.0
100
AcDbText
 73
2
  0
TEXT
  5
129
330
17
100
AcDbEntity
  8
T-TXT-200
100
AcDbText
 10
12.4
 20
-14.26
 30
0.0
 40
0.45
  1
COLINDA: ID. PREDIAL 40503004120000
 50
90.0
  7
ARIAL
 72
1
 11
12.4
 21
-14.26
 31
0.0
100
AcDbText
 73
2
  0
TEXT
  5
12A
330
17
100
AcDbEntity
  8
T-TXT-200
100
AcDbText
 10
4.5
 20
-31.2
 30
0.0
 40
0.45
  1
COLINDA: ID. PREDIAL 40503004120000
  7
ARIAL
 72
1
 11
4.5
 21
-31.2
 31
0.0
100
AcDbText
 73
2
  0
MTEXT
  5
12B
330
17
100
AcDbEntity
  8
T-TXT-200
100
AcDbMText
 10
4.5
 20
-14.26
 30
0.0
 40
0.45
 41
8.5
 71
5
  1
LOTE\PÁREA SEGÚN CATASTRO: 256 m²\PÁREA POR COORDENADAS: 256,57 m²
  7
ARIAL
  0
LWPOLYLINE
  5
12C
330
17
100
AcDbEntity
  8
A-HUELLA
100
AcDbPolyline
 90
4
 70
1
 10
0.0
 20
-2.06
 10
9.0
 20
-2.06
 10
9.0
 20
-25.18
 10
0.0
 20
-25.18
  0
LWPOLYLINE
  5
12D
330
17
100
AcDbEntity
  8
A-PATIO
100
AcDbPolyline
 90
4
 70
1
 10
1.47
 20
-7.76
 10
8.85
 20
-7.76
 10
8.85
 20
-10.26
 10
1.47
 20
-10.26
  0
LINE
  5
12E
330
17
100
AcDbEntity
  8
A-PATIO
  6
DASHED2
 48
0.25
100
AcDbLine
 10
1.47
 20
-7.76
 30
0.0
 11
8.85
 21
-10.26
 31
0.0
  0
LINE
  5
12F
330
17
100
AcDbEntity
  8
A-PATIO
  6
DASHED2
 48
0.25
100
AcDbLine
 10
8.85
 20
-7.76
 30
0.0
 11
1.47
 21
-10.26
 31
0.0
  0
LWPOLYLINE
  5
130
330
17
100
AcDbEntity
  8
A-PATIO
100
AcDbPolyline
 90
4
 70
1
 10
4.81
 20
-16.98
 10
8.85
 20
-16.98
 10
8.85
 20
-19.48
 10
4.81
 20
-19.48
  0
LINE
  5
131
330
17
100
AcDbEntity
  8
A-PATIO
  6
DASHED2
 48
0.25
100
AcDbLine
 10
4.81
 20
-16.98
 30
0.0
 11
8.85
 21
-19.48
 31
0.0
  0
LINE
  5
132
330
17
100
AcDbEntity
  8
A-PATIO
  6
DASHED2
 48
0.25
100
AcDbLine
 10
8.85
 20
-16.98
 30
0.0
 11
4.81
 21
-19.48
 31
0.0
  0
HATCH
  5
133
330
17
100
AcDbEntity
  8
A-HUELLA-TRAMA
 62
7
100
AcDbHatch
 10
0.0
 20
0.0
 30
0.0
210
0.0
220
0.0
230
1.0
  2
ANSI31
 70
0
 71
0
 91
3
 92
3
 72
0
 73
1
 93
4
 10
0.0
 20
-2.06
 10
9.0
 20
-2.06
 10
9.0
 20
-25.18
 10
0.0
 20
-25.18
 97
0
 92
18
 72
0
 73
1
 93
4
 10
1.47
 20
-7.76
 10
8.85
 20
-7.76
 10
8.85
 20
-10.26
 10
1.47
 20
-10.26
 97
0
 92
18
 72
0
 73
1
 93
4
 10
4.81
 20
-16.98
 10
8.85
 20
-16.98
 10
8.85
 20
-19.48
 10
4.81
 20
-19.48
 97
0
 75
1
 76
1
 52
0.0
 41
0.06
 77
0
 78
1
 53
45.0
 43
0.0
 44
0.0
 45
-0.1347038418
 46
0.1347038418
 79
0
 98
0
  0
DIMENSION
  5
134
330
17
100
AcDbEntity
  8
T-COTA-100
100
AcDbDimension
280
0
  2
*D6
  3
COTA-100
 10
-1.2
 20
-0.0
 30
0.0
 11
-1.01
 21
-1.03
 31
0.0
 70
32
 71
5
  1
<>
100
AcDbAlignedDimension
 13
0.0
 23
-0.0
 33
0.0
 14
0.0
 24
-2.06
 34
0.0
 50
90.0
100
AcDbRotatedDimension
  0
DIMENSION
  5
135
330
17
100
AcDbEntity
  8
T-COTA-100
100
AcDbDimension
280
0
  2
*D7
  3
COTA-100
 10
-1.2
 20
-2.06
 30
0.0
 11
-1.01
 21
-13.620000000000001
 31
0.0
 70
32
 71
5
  1
<>
100
AcDbAlignedDimension
 13
0.0
 23
-2.06
 33
0.0
 14
0.0
 24
-25.18
 34
0.0
 50
90.0
100
AcDbRotatedDimension
  0
DIMENSION
  5
136
330
17
100
AcDbEntity
  8
T-COTA-100
100
AcDbDimension
280
0
  2
*D8
  3
COTA-100
 10
-1.2
 20
-25.18
 30
0.0
 11
-1.01
 21
-26.845989092297984
 31
0.0
 70
32
 71
5
  1
<>
100
AcDbAlignedDimension
 13
0.0
 23
-25.18
 33
0.0
 14
0.0
 24
-28.511978184595964
 34
0.0
 50
90.0
100
AcDbRotatedDimension
  0
DIMENSION
  5
137
330
17
100
AcDbEntity
  8
T-COTA-100
100
AcDbDimension
280
0
  2
*D9
  3
COTA-100
 10
10.4
 20
-0.05655167053563409
 30
0.0
 11
10.59
 21
-1.0582758352678172
 31
0.0
 70
32
 71
5
  1
<>
100
AcDbAlignedDimension
 13
9.0
 23
-0.05655167053563409
 33
0.0
 14
9.0
 24
-2.06
 34
0.0
 50
90.0
100
AcDbRotatedDimension
  0
DIMENSION
  5
138
330
17
100
AcDbEntity
  8
T-COTA-100
100
AcDbDimension
280
0
  2
*D10
  3
COTA-100
 10
10.4
 20
-2.06
 30
0.0
 11
10.59
 21
-4.91
 31
0.0
 70
32
 71
5
  1
<>
100
AcDbAlignedDimension
 13
9.0
 23
-2.06
 33
0.0
 14
9.0
 24
-7.76
 34
0.0
 50
90.0
100
AcDbRotatedDimension
  0
DIMENSION
  5
139
330
17
100
AcDbEntity
  8
T-COTA-100
100
AcDbDimension
280
0
  2
*D11
  3
COTA-100
 10
10.4
 20
-7.76
 30
0.0
 11
10.59
 21
-9.01
 31
0.0
 70
32
 71
5
  1
<>
100
AcDbAlignedDimension
 13
9.0
 23
-7.76
 33
0.0
 14
9.0
 24
-10.26
 34
0.0
 50
90.0
100
AcDbRotatedDimension
  0
DIMENSION
  5
13A
330
17
100
AcDbEntity
  8
T-COTA-100
100
AcDbDimension
280
0
  2
*D12
  3
COTA-100
 10
10.4
 20
-10.26
 30
0.0
 11
10.59
 21
-13.620000000000001
 31
0.0
 70
32
 71
5
  1
<>
100
AcDbAlignedDimension
 13
9.0
 23
-10.26
 33
0.0
 14
9.0
 24
-16.98
 34
0.0
 50
90.0
100
AcDbRotatedDimension
  0
DIMENSION
  5
13B
330
17
100
AcDbEntity
  8
T-COTA-100
100
AcDbDimension
280
0
  2
*D13
  3
COTA-100
 10
10.4
 20
-16.98
 30
0.0
 11
10.59
 21
-18.23
 31
0.0
 70
32
 71
5
  1
<>
100
AcDbAlignedDimension
 13
9.0
 23
-16.98
 33
0.0
 14
9.0
 24
-19.48
 34
0.0
 50
90.0
100
AcDbRotatedDimension
  0
DIMENSION
  5
13C
330
17
100
AcDbEntity
  8
T-COTA-100
100
AcDbDimension
280
0
  2
*D14
  3
COTA-100
 10
10.4
 20
-19.48
 30
0.0
 11
10.59
 21
-22.33
 31
0.0
 70
32
 71
5
  1
<>
100
AcDbAlignedDimension
 13
9.0
 23
-19.48
 33
0.0
 14
9.0
 24
-25.18
 34
0.0
 50
90.0
100
AcDbRotatedDimension
  0
DIMENSION
  5
13D
330
17
100
AcDbEntity
  8
T-COTA-100
100
AcDbDimension
280
0
  2
*D15
  3
COTA-100
 10
10.4
 20
-25.18
 30
0.0
 11
10.59
 21
-26.849056224307823
 31
0.0
 70
32
 71
5
  1
<>
100
AcDbAlignedDimension
 13
9.0
 23
-25.18
 33
0.0
 14
9.0
 24
-28.51811244861565
 34
0.0
 50
90.0
100
AcDbRotatedDimension
  0
DIMENSION
  5
13E
330
17
100
AcDbEntity
  8
T-COTA-100
100
AcDbDimension
280
0
  2
*D16
  3
COTA-100
 10
1.47
 20
-8.31
 30
0.0
 11
5.16
 21
-8.120000000000001
 31
0.0
 70
32
 71
5
  1
<>
100
AcDbAlignedDimension
 13
1.47
 23
-7.76
 33
0.0
 14
8.85
 24
-7.76
 34
0.0
 50
0.0
100
AcDbRotatedDimension
  0
DIMENSION
  5
13F
330
17
100
AcDbEntity
  8
T-COTA-100
100
AcDbDimension
280
0
  2
*D17
  3
COTA-100
 10
4.81
 20
-17.53
 30
0.0
 11
6.83
 21
-17.34
 31
0.0
 70
32
 71
5
  1
<>
100
AcDbAlignedDimension
 13
4.81
 23
-16.98
 33
0.0
 14
8.85
 24
-16.98
 34
0.0
 50
0.0
100
AcDbRotatedDimension
  0
DIMENSION
  5
140
330
17
100
AcDbEntity
  8
T-COTA-100
100
AcDbDimension
280
0
  2
*D18
  3
COTA-100
 10
0.0
 20
-25.78
 30
0.0
 11
4.5
 21
-25.59
 31
0.0
 70
32
 71
5
  1
<>
100
AcDbAlignedDimension
 13
0.0
 23
-25.18
 33
0.0
 14
9.0
 24
-25.18
 34
0.0
 50
0.0
100
AcDbRotatedDimension
  0
MTEXT
  5
1F7
330
17
100
AcDbEntity
  8
T-TXT-100
100
AcDbMText
 10
4.5
 20
2.2
 30
0.0
 40
0.4
 41
6.5
 71
5
  1
CALLE PÚBLICA
  7
ARIAL
  0
MTEXT
  5
1F8
330
17
100
AcDbEntity
  8
T-TXT-100
100
AcDbMText
 10
2.2
 20
0.45
 30
0.0
 40
0.22
 41
6.5
 71
5
  1
LÍNEA DE PROPIEDAD
  7
ARIAL
  0
MTEXT
  5
1F9
330
17
100
AcDbEntity
  8
T-TXT-100
100
AcDbMText
 10
4.5
 20
-1.15
 30
0.0
 40
0.22
 41
7.5
 71
5
  1
RETIRO FRONTAL\P(ACCESO VEHICULAR Y PEATONAL)
  7
ARIAL
  0
MTEXT
  5
1FA
330
17
100
AcDbEntity
  8
T-TXT-100
100
AcDbMText
 10
4.5
 20
-4.6
 30
0.0
 40
0.32
 41
6.5
 71
5
  1
HUELLA CONSTRUCTIVA\PNIVEL 1
  7
ARIAL
  0
MTEXT
  5
1FB
330
17
100
AcDbEntity
  8
T-TXT-100
100
AcDbMText
 10
5.16
 20
-9.26
 30
0.0
 40
0.24
 41
5.5
 71
5
  1
PATIO DE LUZ P1 (ABIERTO)\P7.38 x 2.50 = 18.45 m²
  7
ARIAL
  0
MTEXT
  5
1FC
330
17
100
AcDbEntity
  8
T-TXT-100
100
AcDbMText
 10
4.5
 20
-13.6
 30
0.0
 40
0.32
 41
6.5
 71
5
  1
HUELLA CONSTRUCTIVA\PNIVEL 1
  7
ARIAL
  0
MTEXT
  5
1FD
330
17
100
AcDbEntity
  8
T-TXT-100
100
AcDbMText
 10
6.83
 20
-18.48
 30
0.0
 40
0.21
 41
3.9
 71
5
  1
PATIO P2 (ABIERTO)\P4.04 x 2.50 = 10.10 m²
  7
ARIAL
  0
MTEXT
  5
1FE
330
17
100
AcDbEntity
  8
T-TXT-100
100
AcDbMText
 10
4.5
 20
-22.3
 30
0.0
 40
0.32
 41
6.5
 71
5
  1
HUELLA CONSTRUCTIVA\PNIVEL 1
  7
ARIAL
  0
MTEXT
  5
1FF
330
17
100
AcDbEntity
  8
T-TXT-100
100
AcDbMText
 10
4.5
 20
-15.3
 30
0.0
 40
0.26
 41
6.0
 71
5
  1
HUELLA: 179,53 m²\PCOBERTURA: 70,13 %
  7
ARIAL
  0
MTEXT
  5
200
330
17
100
AcDbEntity
  8
T-TXT-100
100
AcDbMText
 10
4.5
 20
-27.095989092297984
 30
0.0
 40
0.22
 41
8.0
 71
5
  1
PATIO POSTERIOR\PTANQUE SÉPTICO Y DRENAJE\P(VER S02)
  7
ARIAL
  0
TEXT
  5
202
330
17
100
AcDbEntity
  8
T-TXT-100
100
AcDbText
 10
-0.35
 20
-14.0
 30
0.0
 40
0.22
  1
COLINDANCIA - FACHADA CIEGA
 50
90.0
  7
ARIAL
 72
1
 11
-0.35
 21
-14.0
 31
0.0
100
AcDbText
 73
2
  0
TEXT
  5
203
330
17
100
AcDbEntity
  8
T-TXT-100
100
AcDbText
 10
9.35
 20
-14.0
 30
0.0
 40
0.22
  1
COLINDANCIA - FACHADA CIEGA
 50
90.0
  7
ARIAL
 72
1
 11
9.35
 21
-14.0
 31
0.0
100
AcDbText
 73
2
  0
VIEWPORT
  5
208
330
204
100
AcDbEntity
 67
1
  8
VIEWPORTS
100
AcDbViewport
 10
420.5
 20
297.0
 30
0.0
 40
925.1
 41
653.4000000000001
 68
1
 69
1
 12
420.5
 22
297.0
 13
0.0
 23
0.0
 14
10.0
 24
10.0
 15
10.0
 25
10.0
 16
0.0
 26
0.0
 36
1.0
 17
0.0
 27
0.0
 37
0.0
 42
50.0
 43
0.0
 44
0.0
 45
653.4000000000001
 50
0.0
 51
0.0
 72
100
 90
557088
  1

281
0
 71
0
 74
0
110
0.0
120
0.0
130
0.0
111
1.0
121
0.0
131
0.0
112
0.0
122
1.0
132
0.0
 79
0
146
0.0
282
0
  0
LWPOLYLINE
  5
209
330
204
100
AcDbEntity
 67
1
  8
A-VIEWPORT
100
AcDbPolyline
 90
4
 70
1
 10
0.0
 20
0.0
 10
841.0
 20
0.0
 10
841.0
 20
594.0
 10
0.0
 20
594.0
  0
LWPOLYLINE
  5
20A
330
204
100
AcDbEntity
 67
1
  8
A-MARCO
100
AcDbPolyline
 90
4
 70
1
 10
25.0
 20
10.0
 10
831.0
 20
10.0
 10
831.0
 20
584.0
 10
25.0
 20
584.0
  0
TEXT
  5
20B
330
204
100
AcDbEntity
 67
1
  8
A-TEXTO
100
AcDbText
 10
25.0
 20
4.0
 30
0.0
 40
1.8
  1
FORMATO A1  841 mm x 594 mm
  7
ARIAL
 11
25.0
 21
4.0
 31
0.0
100
AcDbText
  0
IMAGE
  5
20F
330
204
100
AcDbEntity
 67
1
  8
A-IMAGEN-REF
100
AcDbRasterImage
 90
0
 10
42.0
 20
402.0
 30
0.0
 11
0.12585034013605442
 21
0.0
 31
0.0
 12
7.706110810961235e-18
 22
0.12585034013605442
 32
0.0
 13
1470.0
 23
1299.0
340
20E
 70
3
280
0
281
50
282
50
283
0
360
210
 71
1
 91
2
 14
-0.5
 24
-0.5
 14
1469.5
 24
1298.5
290
0
  0
TEXT
  5
211
330
204
100
AcDbEntity
 67
1
  8
A-TITULOS
100
AcDbText
 10
42.0
 20
389.0
 30
0.0
 40
6.0
  1
UBICACIÓN GEOGRÁFICA
  7
ARIAL
 11
42.0
 21
389.0
 31
0.0
100
AcDbText
 73
1
  0
LINE
  5
212
330
204
100
AcDbEntity
 67
1
  8
A-TITULOS
100
AcDbLine
 10
42.0
 20
387.5
 30
0.0
 11
167.0
 21
387.5
 31
0.0
  0
TEXT
  5
213
330
204
100
AcDbEntity
 67
1
  8
A-TEXTO
100
AcDbText
 10
42.0
 20
381.5
 30
0.0
 40
3.5
  1
LOTE DE TERRENO
  7
ARIAL
 11
42.0
 21
381.5
 31
0.0
100
AcDbText
 73
1
  0
TEXT
  5
214
330
204
100
AcDbEntity
 67
1
  8
A-TEXTO
100
AcDbText
 10
42.0
 20
376.0
 30
0.0
 40
3.0
  1
Esc. S/E  (imagen tomada del plano catastrado 4-57389-2023)
  7
ARIAL
 11
42.0
 21
376.0
 31
0.0
100
AcDbText
 73
1
  0
VIEWPORT
  5
215
330
204
100
AcDbEntity
 67
1
  8
A-VIEWPORT
100
AcDbViewport
 10
140.0
 20
232.0
 30
0.0
 40
200.0
 41
240.0
 68
2
 69
3
 12
4.5
 22
-14.0
 13
0.0
 23
0.0
 14
10.0
 24
10.0
 15
10.0
 25
10.0
 16
0.0
 26
0.0
 36
1.0
 17
0.0
 27
0.0
 37
0.0
 42
50.0
 43
0.0
 44
0.0
 45
48.0
 50
0.0
 51
0.0
 72
100
331
9C
331
9D
331
9E
331
9F
331
A0
331
A1
 90
16384
  1

281
0
 71
0
 74
0
110
0.0
120
0.0
130
0.0
111
1.0
121
0.0
131
0.0
112
0.0
122
1.0
132
0.0
 79
0
146
0.0
282
0
  0
TEXT
  5
216
330
204
100
AcDbEntity
 67
1
  8
A-TITULOS
100
AcDbText
 10
42.0
 20
90.0
 30
0.0
 40
6.0
  1
POLIGONAL TERRENO
  7
ARIAL
 11
42.0
 21
90.0
 31
0.0
100
AcDbText
 73
1
  0
LINE
  5
217
330
204
100
AcDbEntity
 67
1
  8
A-TITULOS
100
AcDbLine
 10
42.0
 20
88.5
 30
0.0
 11
167.0
 21
88.5
 31
0.0
  0
TEXT
  5
218
330
204
100
AcDbEntity
 67
1
  8
A-TEXTO
100
AcDbText
 10
42.0
 20
82.5
 30
0.0
 40
3.5
  1
LOTE DE TERRENO
  7
ARIAL
 11
42.0
 21
82.5
 31
0.0
100
AcDbText
 73
1
  0
TEXT
  5
219
330
204
100
AcDbEntity
 67
1
  8
A-TEXTO
100
AcDbText
 10
42.0
 20
77.0
 30
0.0
 40
3.0
  1
Esc. 1:200
  7
ARIAL
 11
42.0
 21
77.0
 31
0.0
100
AcDbText
 73
1
  0
LWPOLYLINE
  5
21A
330
204
100
AcDbEntity
 67
1
  8
A-ESCALA-GRAF
100
AcDbPolyline
 90
4
 70
1
 10
42.0
 20
58.0
 10
52.0
 20
58.0
 10
52.0
 20
59.6
 10
42.0
 20
59.6
  0
HATCH
  5
21B
330
204
100
AcDbEntity
 67
1
  8
A-ESCALA-GRAF
 62
7
100
AcDbHatch
 10
0.0
 20
0.0
 30
0.0
210
0.0
220
0.0
230
1.0
  2
SOLID
 70
1
 71
0
 91
1
 92
3
 72
0
 73
1
 93
4
 10
42.0
 20
58.0
 10
52.0
 20
58.0
 10
52.0
 20
59.6
 10
42.0
 20
59.6
 97
0
 75
0
 76
1
 98
0
  0
LWPOLYLINE
  5
21C
330
204
100
AcDbEntity
 67
1
  8
A-ESCALA-GRAF
100
AcDbPolyline
 90
4
 70
1
 10
52.0
 20
58.0
 10
62.0
 20
58.0
 10
62.0
 20
59.6
 10
52.0
 20
59.6
  0
LWPOLYLINE
  5
21D
330
204
100
AcDbEntity
 67
1
  8
A-ESCALA-GRAF
100
AcDbPolyline
 90
4
 70
1
 10
62.0
 20
58.0
 10
72.0
 20
58.0
 10
72.0
 20
59.6
 10
62.0
 20
59.6
  0
HATCH
  5
21E
330
204
100
AcDbEntity
 67
1
  8
A-ESCALA-GRAF
 62
7
100
AcDbHatch
 10
0.0
 20
0.0
 30
0.0
210
0.0
220
0.0
230
1.0
  2
SOLID
 70
1
 71
0
 91
1
 92
3
 72
0
 73
1
 93
4
 10
62.0
 20
58.0
 10
72.0
 20
58.0
 10
72.0
 20
59.6
 10
62.0
 20
59.6
 97
0
 75
0
 76
1
 98
0
  0
LWPOLYLINE
  5
21F
330
204
100
AcDbEntity
 67
1
  8
A-ESCALA-GRAF
100
AcDbPolyline
 90
4
 70
1
 10
72.0
 20
58.0
 10
82.0
 20
58.0
 10
82.0
 20
59.6
 10
72.0
 20
59.6
  0
LWPOLYLINE
  5
220
330
204
100
AcDbEntity
 67
1
  8
A-ESCALA-GRAF
100
AcDbPolyline
 90
4
 70
1
 10
82.0
 20
58.0
 10
92.0
 20
58.0
 10
92.0
 20
59.6
 10
82.0
 20
59.6
  0
HATCH
  5
221
330
204
100
AcDbEntity
 67
1
  8
A-ESCALA-GRAF
 62
7
100
AcDbHatch
 10
0.0
 20
0.0
 30
0.0
210
0.0
220
0.0
230
1.0
  2
SOLID
 70
1
 71
0
 91
1
 92
3
 72
0
 73
1
 93
4
 10
82.0
 20
58.0
 10
92.0
 20
58.0
 10
92.0
 20
59.6
 10
82.0
 20
59.6
 97
0
 75
0
 76
1
 98
0
  0
TEXT
  5
222
330
204
100
AcDbEntity
 67
1
  8
A-ESCALA-GRAF
100
AcDbText
 10
42.0
 20
56.8
 30
0.0
 40
1.87
  1
0
  7
ARIAL
 72
1
 11
42.0
 21
56.8
 31
0.0
100
AcDbText
 73
3
  0
TEXT
  5
223
330
204
100
AcDbEntity
 67
1
  8
A-ESCALA-GRAF
100
AcDbText
 10
52.0
 20
56.8
 30
0.0
 40
1.87
  1
2
  7
ARIAL
 72
1
 11
52.0
 21
56.8
 31
0.0
100
AcDbText
 73
3
  0
TEXT
  5
224
330
204
100
AcDbEntity
 67
1
  8
A-ESCALA-GRAF
100
AcDbText
 10
62.0
 20
56.8
 30
0.0
 40
1.87
  1
4
  7
ARIAL
 72
1
 11
62.0
 21
56.8
 31
0.0
100
AcDbText
 73
3
  0
TEXT
  5
225
330
204
100
AcDbEntity
 67
1
  8
A-ESCALA-GRAF
100
AcDbText
 10
72.0
 20
56.8
 30
0.0
 40
1.87
  1
6
  7
ARIAL
 72
1
 11
72.0
 21
56.8
 31
0.0
100
AcDbText
 73
3
  0
TEXT
  5
226
330
204
100
AcDbEntity
 67
1
  8
A-ESCALA-GRAF
100
AcDbText
 10
82.0
 20
56.8
 30
0.0
 40
1.87
  1
8
  7
ARIAL
 72
1
 11
82.0
 21
56.8
 31
0.0
100
AcDbText
 73
3
  0
TEXT
  5
227
330
204
100
AcDbEntity
 67
1
  8
A-ESCALA-GRAF
100
AcDbText
 10
92.0
 20
56.8
 30
0.0
 40
1.87
  1
10
  7
ARIAL
 72
1
 11
92.0
 21
56.8
 31
0.0
100
AcDbText
 73
3
  0
TEXT
  5
228
330
204
100
AcDbEntity
 67
1
  8
A-ESCALA-GRAF
100
AcDbText
 10
95.0
 20
58.8
 30
0.0
 40
1.87
  1
m
  7
ARIAL
 11
95.0
 21
58.8
 31
0.0
100
AcDbText
 73
2
  0
INSERT
  5
229
330
204
100
AcDbEntity
 67
1
  8
A-NORTE
100
AcDbBlockReference
  2
NORTE
 10
215.0
 20
330.0
 30
0.0
 50
-2.7138851038993153
  0
VIEWPORT
  5
22B
330
204
100
AcDbEntity
 67
1
  8
A-VIEWPORT
100
AcDbViewport
 10
364.0
 20
345.0
 30
0.0
 40
210.0
 41
400.0
 68
2
 69
4
 12
4.5
 22
-13.9
 13
0.0
 23
0.0
 14
10.0
 24
10.0
 15
10.0
 25
10.0
 16
0.0
 26
0.0
 36
1.0
 17
0.0
 27
0.0
 37
0.0
 42
50.0
 43
0.0
 44
0.0
 45
40.0
 50
0.0
 51
0.0
 72
100
331
9A
331
9B
 90
16384
  1

281
0
 71
0
 74
0
110
0.0
120
0.0
130
0.0
111
1.0
121
0.0
131
0.0
112
0.0
122
1.0
132
0.0
 79
0
146
0.0
282
0
  0
TEXT
  5
22C
330
204
100
AcDbEntity
 67
1
  8
A-TITULOS
100
AcDbText
 10
262.0
 20
128.0
 30
0.0
 40
6.0
  1
RETIROS Y HUELLA
  7
ARIAL
 11
262.0
 21
128.0
 31
0.0
100
AcDbText
 73
1
  0
LINE
  5
22D
330
204
100
AcDbEntity
 67
1
  8
A-TITULOS
100
AcDbLine
 10
262.0
 20
126.5
 30
0.0
 11
387.0
 21
126.5
 31
0.0
  0
TEXT
  5
22E
330
204
100
AcDbEntity
 67
1
  8
A-TEXTO
100
AcDbText
 10
262.0
 20
120.5
 30
0.0
 40
3.5
  1
LOTE DE TERRENO - NIVEL 1
  7
ARIAL
 11
262.0
 21
120.5
 31
0.0
100
AcDbText
 73
1
  0
TEXT
  5
22F
330
204
100
AcDbEntity
 67
1
  8
A-TEXTO
100
AcDbText
 10
262.0
 20
115.0
 30
0.0
 40
3.0
  1
Esc. 1:100
  7
ARIAL
 11
262.0
 21
115.0
 31
0.0
100
AcDbText
 73
1
  0
LWPOLYLINE
  5
230
330
204
100
AcDbEntity
 67
1
  8
A-ESCALA-GRAF
100
AcDbPolyline
 90
4
 70
1
 10
262.0
 20
96.0
 10
272.0
 20
96.0
 10
272.0
 20
97.6
 10
262.0
 20
97.6
  0
HATCH
  5
231
330
204
100
AcDbEntity
 67
1
  8
A-ESCALA-GRAF
 62
7
100
AcDbHatch
 10
0.0
 20
0.0
 30
0.0
210
0.0
220
0.0
230
1.0
  2
SOLID
 70
1
 71
0
 91
1
 92
3
 72
0
 73
1
 93
4
 10
262.0
 20
96.0
 10
272.0
 20
96.0
 10
272.0
 20
97.6
 10
262.0
 20
97.6
 97
0
 75
0
 76
1
 98
0
  0
LWPOLYLINE
  5
232
330
204
100
AcDbEntity
 67
1
  8
A-ESCALA-GRAF
100
AcDbPolyline
 90
4
 70
1
 10
272.0
 20
96.0
 10
282.0
 20
96.0
 10
282.0
 20
97.6
 10
272.0
 20
97.6
  0
LWPOLYLINE
  5
233
330
204
100
AcDbEntity
 67
1
  8
A-ESCALA-GRAF
100
AcDbPolyline
 90
4
 70
1
 10
282.0
 20
96.0
 10
292.0
 20
96.0
 10
292.0
 20
97.6
 10
282.0
 20
97.6
  0
HATCH
  5
234
330
204
100
AcDbEntity
 67
1
  8
A-ESCALA-GRAF
 62
7
100
AcDbHatch
 10
0.0
 20
0.0
 30
0.0
210
0.0
220
0.0
230
1.0
  2
SOLID
 70
1
 71
0
 91
1
 92
3
 72
0
 73
1
 93
4
 10
282.0
 20
96.0
 10
292.0
 20
96.0
 10
292.0
 20
97.6
 10
282.0
 20
97.6
 97
0
 75
0
 76
1
 98
0
  0
LWPOLYLINE
  5
235
330
204
100
AcDbEntity
 67
1
  8
A-ESCALA-GRAF
100
AcDbPolyline
 90
4
 70
1
 10
292.0
 20
96.0
 10
302.0
 20
96.0
 10
302.0
 20
97.6
 10
292.0
 20
97.6
  0
LWPOLYLINE
  5
236
330
204
100
AcDbEntity
 67
1
  8
A-ESCALA-GRAF
100
AcDbPolyline
 90
4
 70
1
 10
302.0
 20
96.0
 10
312.0
 20
96.0
 10
312.0
 20
97.6
 10
302.0
 20
97.6
  0
HATCH
  5
237
330
204
100
AcDbEntity
 67
1
  8
A-ESCALA-GRAF
 62
7
100
AcDbHatch
 10
0.0
 20
0.0
 30
0.0
210
0.0
220
0.0
230
1.0
  2
SOLID
 70
1
 71
0
 91
1
 92
3
 72
0
 73
1
 93
4
 10
302.0
 20
96.0
 10
312.0
 20
96.0
 10
312.0
 20
97.6
 10
302.0
 20
97.6
 97
0
 75
0
 76
1
 98
0
  0
TEXT
  5
238
330
204
100
AcDbEntity
 67
1
  8
A-ESCALA-GRAF
100
AcDbText
 10
262.0
 20
94.8
 30
0.0
 40
1.87
  1
0
  7
ARIAL
 72
1
 11
262.0
 21
94.8
 31
0.0
100
AcDbText
 73
3
  0
TEXT
  5
239
330
204
100
AcDbEntity
 67
1
  8
A-ESCALA-GRAF
100
AcDbText
 10
272.0
 20
94.8
 30
0.0
 40
1.87
  1
1
  7
ARIAL
 72
1
 11
272.0
 21
94.8
 31
0.0
100
AcDbText
 73
3
  0
TEXT
  5
23A
330
204
100
AcDbEntity
 67
1
  8
A-ESCALA-GRAF
100
AcDbText
 10
282.0
 20
94.8
 30
0.0
 40
1.87
  1
2
  7
ARIAL
 72
1
 11
282.0
 21
94.8
 31
0.0
100
AcDbText
 73
3
  0
TEXT
  5
23B
330
204
100
AcDbEntity
 67
1
  8
A-ESCALA-GRAF
100
AcDbText
 10
292.0
 20
94.8
 30
0.0
 40
1.87
  1
3
  7
ARIAL
 72
1
 11
292.0
 21
94.8
 31
0.0
100
AcDbText
 73
3
  0
TEXT
  5
23C
330
204
100
AcDbEntity
 67
1
  8
A-ESCALA-GRAF
100
AcDbText
 10
302.0
 20
94.8
 30
0.0
 40
1.87
  1
4
  7
ARIAL
 72
1
 11
302.0
 21
94.8
 31
0.0
100
AcDbText
 73
3
  0
TEXT
  5
23D
330
204
100
AcDbEntity
 67
1
  8
A-ESCALA-GRAF
100
AcDbText
 10
312.0
 20
94.8
 30
0.0
 40
1.87
  1
5
  7
ARIAL
 72
1
 11
312.0
 21
94.8
 31
0.0
100
AcDbText
 73
3
  0
TEXT
  5
23E
330
204
100
AcDbEntity
 67
1
  8
A-ESCALA-GRAF
100
AcDbText
 10
315.0
 20
96.8
 30
0.0
 40
1.87
  1
m
  7
ARIAL
 11
315.0
 21
96.8
 31
0.0
100
AcDbText
 73
2
  0
INSERT
  5
23F
330
204
100
AcDbEntity
 67
1
  8
A-NORTE
100
AcDbBlockReference
  2
NORTE
 10
450.0
 20
520.0
 30
0.0
 50
-2.7138851038993153
  0
TEXT
  5
241
330
204
100
AcDbEntity
 67
1
  8
A-TEXTO
100
AcDbText
 10
450.0
 20
500.0
 30
0.0
 40
1.8
  1
NORTE SEGÚN PLANO CATASTRADO (CRTM05)
  7
ARIAL
 72
1
 11
450.0
 21
500.0
 31
0.0
100
AcDbText
 73
3
  0
TEXT
  5
242
330
204
100
AcDbEntity
 67
1
  8
A-TITULOS
100
AcDbText
 10
593.0
 20
576.0
 30
0.0
 40
6.0
  1
D E R R O T E R O
  7
ARIAL
 72
1
 11
593.0
 21
576.0
 31
0.0
100
AcDbText
 73
3
  0
LWPOLYLINE
  5
243
330
204
100
AcDbEntity
 67
1
  8
A-TABLAS
100
AcDbPolyline
 90
4
 70
1
 10
482.0
 20
496.0
 10
704.0
 20
496.0
 10
704.0
 20
566.0
 10
482.0
 20
566.0
  0
TEXT
  5
244
330
204
100
AcDbEntity
 67
1
  8
A-TEXTO
100
AcDbText
 10
504.2
 20
562.5
 30
0.0
 40
2.8
  1
LÍNEA
  7
ARIAL
 72
1
 11
504.2
 21
562.5
 31
0.0
100
AcDbText
 73
2
  0
LINE
  5
245
330
204
100
AcDbEntity
 67
1
  8
A-TABLAS
100
AcDbLine
 10
526.4
 20
566.0
 30
0.0
 11
526.4
 21
559.0
 31
0.0
  0
TEXT
  5
246
330
204
100
AcDbEntity
 67
1
  8
A-TEXTO
100
AcDbText
 10
570.8
 20
562.5
 30
0.0
 40
2.8
  1
ACIMUT
  7
ARIAL
 72
1
 11
570.8
 21
562.5
 31
0.0
100
AcDbText
 73
2
  0
LINE
  5
247
330
204
100
AcDbEntity
 67
1
  8
A-TABLAS
100
AcDbLine
 10
615.1999999999999
 20
566.0
 30
0.0
 11
615.1999999999999
 21
559.0
 31
0.0
  0
TEXT
  5
248
330
204
100
AcDbEntity
 67
1
  8
A-TEXTO
100
AcDbText
 10
659.5999999999999
 20
562.5
 30
0.0
 40
2.8
  1
DISTANCIA
  7
ARIAL
 72
1
 11
659.5999999999999
 21
562.5
 31
0.0
100
AcDbText
 73
2
  0
LINE
  5
249
330
204
100
AcDbEntity
 67
1
  8
A-TABLAS
100
AcDbLine
 10
482.0
 20
559.0
 30
0.0
 11
704.0
 21
559.0
 31
0.0
  0
LINE
  5
24A
330
204
100
AcDbEntity
 67
1
  8
A-TABLAS
100
AcDbLine
 10
526.4
 20
559.0
 30
0.0
 11
526.4
 21
552.0
 31
0.0
  0
TEXT
  5
24B
330
204
100
AcDbEntity
 67
1
  8
A-TEXTO
100
AcDbText
 10
548.5999999999999
 20
555.5
 30
0.0
 40
2.8
  1
°
  7
ARIAL
 72
1
 11
548.5999999999999
 21
555.5
 31
0.0
100
AcDbText
 73
2
  0
LINE
  5
24C
330
204
100
AcDbEntity
 67
1
  8
A-TABLAS
100
AcDbLine
 10
570.8
 20
559.0
 30
0.0
 11
570.8
 21
552.0
 31
0.0
  0
TEXT
  5
24D
330
204
100
AcDbEntity
 67
1
  8
A-TEXTO
100
AcDbText
 10
593.0
 20
555.5
 30
0.0
 40
2.8
  1
'
  7
ARIAL
 72
1
 11
593.0
 21
555.5
 31
0.0
100
AcDbText
 73
2
  0
LINE
  5
24E
330
204
100
AcDbEntity
 67
1
  8
A-TABLAS
100
AcDbLine
 10
615.1999999999999
 20
559.0
 30
0.0
 11
615.1999999999999
 21
552.0
 31
0.0
  0
TEXT
  5
24F
330
204
100
AcDbEntity
 67
1
  8
A-TEXTO
100
AcDbText
 10
637.3999999999999
 20
555.5
 30
0.0
 40
2.8
  1
m
  7
ARIAL
 72
1
 11
637.3999999999999
 21
555.5
 31
0.0
100
AcDbText
 73
2
  0
LINE
  5
250
330
204
100
AcDbEntity
 67
1
  8
A-TABLAS
100
AcDbLine
 10
659.5999999999999
 20
559.0
 30
0.0
 11
659.5999999999999
 21
552.0
 31
0.0
  0
TEXT
  5
251
330
204
100
AcDbEntity
 67
1
  8
A-TEXTO
100
AcDbText
 10
681.8
 20
555.5
 30
0.0
 40
2.8
  1
cm
  7
ARIAL
 72
1
 11
681.8
 21
555.5
 31
0.0
100
AcDbText
 73
2
  0
LINE
  5
252
330
204
100
AcDbEntity
 67
1
  8
A-TABLAS
100
AcDbLine
 10
482.0
 20
552.0
 30
0.0
 11
704.0
 21
552.0
 31
0.0
  0
TEXT
  5
253
330
204
100
AcDbEntity
 67
1
  8
A-TEXTO
100
AcDbText
 10
504.2
 20
548.5
 30
0.0
 40
2.8
  1
1 - 2
  7
ARIAL
 72
1
 11
504.2
 21
548.5
 31
0.0
100
AcDbText
 73
2
  0
LINE
  5
254
330
204
100
AcDbEntity
 67
1
  8
A-TABLAS
100
AcDbLine
 10
526.4
 20
552.0
 30
0.0
 11
526.4
 21
545.0
 31
0.0
  0
TEXT
  5
255
330
204
100
AcDbEntity
 67
1
  8
A-TEXTO
100
AcDbText
 10
548.5999999999999
 20
548.5
 30
0.0
 40
2.8
  1
87
  7
ARIAL
 72
1
 11
548.5999999999999
 21
548.5
 31
0.0
100
AcDbText
 73
2
  0
LINE
  5
256
330
204
100
AcDbEntity
 67
1
  8
A-TABLAS
100
AcDbLine
 10
570.8
 20
552.0
 30
0.0
 11
570.8
 21
545.0
 31
0.0
  0
TEXT
  5
257
330
204
100
AcDbEntity
 67
1
  8
A-TEXTO
100
AcDbText
 10
593.0
 20
548.5
 30
0.0
 40
2.8
  1
25
  7
ARIAL
 72
1
 11
593.0
 21
548.5
 31
0.0
100
AcDbText
 73
2
  0
LINE
  5
258
330
204
100
AcDbEntity
 67
1
  8
A-TABLAS
100
AcDbLine
 10
615.1999999999999
 20
552.0
 30
0.0
 11
615.1999999999999
 21
545.0
 31
0.0
  0
TEXT
  5
259
330
204
100
AcDbEntity
 67
1
  8
A-TEXTO
100
AcDbText
 10
637.3999999999999
 20
548.5
 30
0.0
 40
2.8
  1
4
  7
ARIAL
 72
1
 11
637.3999999999999
 21
548.5
 31
0.0
100
AcDbText
 73
2
  0
LINE
  5
25A
330
204
100
AcDbEntity
 67
1
  8
A-TABLAS
100
AcDbLine
 10
659.5999999999999
 20
552.0
 30
0.0
 11
659.5999999999999
 21
545.0
 31
0.0
  0
TEXT
  5
25B
330
204
100
AcDbEntity
 67
1
  8
A-TEXTO
100
AcDbText
 10
681.8
 20
548.5
 30
0.0
 40
2.8
  1
66
  7
ARIAL
 72
1
 11
681.8
 21
548.5
 31
0.0
100
AcDbText
 73
2
  0
LINE
  5
25C
330
204
100
AcDbEntity
 67
1
  8
A-TABLAS
100
AcDbLine
 10
482.0
 20
545.0
 30
0.0
 11
704.0
 21
545.0
 31
0.0
  0
TEXT
  5
25D
330
204
100
AcDbEntity
 67
1
  8
A-TEXTO
100
AcDbText
 10
504.2
 20
541.5
 30
0.0
 40
2.8
  1
2 - 3
  7
ARIAL
 72
1
 11
504.2
 21
541.5
 31
0.0
100
AcDbText
 73
2
  0
LINE
  5
25E
330
204
100
AcDbEntity
 67
1
  8
A-TABLAS
100
AcDbLine
 10
526.4
 20
545.0
 30
0.0
 11
526.4
 21
538.0
 31
0.0
  0
TEXT
  5
25F
330
204
100
AcDbEntity
 67
1
  8
A-TEXTO
100
AcDbText
 10
548.5999999999999
 20
541.5
 30
0.0
 40
2.8
  1
87
  7
ARIAL
 72
1
 11
548.5999999999999
 21
541.5
 31
0.0
100
AcDbText
 73
2
  0
LINE
  5
260
330
204
100
AcDbEntity
 67
1
  8
A-TABLAS
100
AcDbLine
 10
570.8
 20
545.0
 30
0.0
 11
570.8
 21
538.0
 31
0.0
  0
TEXT
  5
261
330
204
100
AcDbEntity
 67
1
  8
A-TEXTO
100
AcDbText
 10
593.0
 20
541.5
 30
0.0
 40
2.8
  1
53
  7
ARIAL
 72
1
 11
593.0
 21
541.5
 31
0.0
100
AcDbText
 73
2
  0
LINE
  5
262
330
204
100
AcDbEntity
 67
1
  8
A-TABLAS
100
AcDbLine
 10
615.1999999999999
 20
545.0
 30
0.0
 11
615.1999999999999
 21
538.0
 31
0.0
  0
TEXT
  5
263
330
204
100
AcDbEntity
 67
1
  8
A-TEXTO
100
AcDbText
 10
637.3999999999999
 20
541.5
 30
0.0
 40
2.8
  1
4
  7
ARIAL
 72
1
 11
637.3999999999999
 21
541.5
 31
0.0
100
AcDbText
 73
2
  0
LINE
  5
264
330
204
100
AcDbEntity
 67
1
  8
A-TABLAS
100
AcDbLine
 10
659.5999999999999
 20
545.0
 30
0.0
 11
659.5999999999999
 21
538.0
 31
0.0
  0
TEXT
  5
265
330
204
100
AcDbEntity
 67
1
  8
A-TEXTO
100
AcDbText
 10
681.8
 20
541.5
 30
0.0
 40
2.8
  1
34
  7
ARIAL
 72
1
 11
681.8
 21
541.5
 31
0.0
100
AcDbText
 73
2
  0
LINE
  5
266
330
204
100
AcDbEntity
 67
1
  8
A-TABLAS
100
AcDbLine
 10
482.0
 20
538.0
 30
0.0
 11
704.0
 21
538.0
 31
0.0
  0
TEXT
  5
267
330
204
100
AcDbEntity
 67
1
  8
A-TEXTO
100
AcDbText
 10
504.2
 20
534.5
 30
0.0
 40
2.8
  1
3 - 4
  7
ARIAL
 72
1
 11
504.2
 21
534.5
 31
0.0
100
AcDbText
 73
2
  0
LINE
  5
268
330
204
100
AcDbEntity
 67
1
  8
A-TABLAS
100
AcDbLine
 10
526.4
 20
538.0
 30
0.0
 11
526.4
 21
531.0
 31
0.0
  0
TEXT
  5
269
330
204
100
AcDbEntity
 67
1
  8
A-TEXTO
100
AcDbText
 10
548.5999999999999
 20
534.5
 30
0.0
 40
2.8
  1
177
  7
ARIAL
 72
1
 11
548.5999999999999
 21
534.5
 31
0.0
100
AcDbText
 73
2
  0
LINE
  5
26A
330
204
100
AcDbEntity
 67
1
  8
A-TABLAS
100
AcDbLine
 10
570.8
 20
538.0
 30
0.0
 11
570.8
 21
531.0
 31
0.0
  0
TEXT
  5
26B
330
204
100
AcDbEntity
 67
1
  8
A-TEXTO
100
AcDbText
 10
593.0
 20
534.5
 30
0.0
 40
2.8
  1
18
  7
ARIAL
 72
1
 11
593.0
 21
534.5
 31
0.0
100
AcDbText
 73
2
  0
LINE
  5
26C
330
204
100
AcDbEntity
 67
1
  8
A-TABLAS
100
AcDbLine
 10
615.1999999999999
 20
538.0
 30
0.0
 11
615.1999999999999
 21
531.0
 31
0.0
  0
TEXT
  5
26D
330
204
100
AcDbEntity
 67
1
  8
A-TEXTO
100
AcDbText
 10
637.3999999999999
 20
534.5
 30
0.0
 40
2.8
  1
28
  7
ARIAL
 72
1
 11
637.3999999999999
 21
534.5
 31
0.0
100
AcDbText
 73
2
  0
LINE
  5
26E
330
204
100
AcDbEntity
 67
1
  8
A-TABLAS
100
AcDbLine
 10
659.5999999999999
 20
538.0
 30
0.0
 11
659.5999999999999
 21
531.0
 31
0.0
  0
TEXT
  5
26F
330
204
100
AcDbEntity
 67
1
  8
A-TEXTO
100
AcDbText
 10
681.8
 20
534.5
 30
0.0
 40
2.8
  1
46
  7
ARIAL
 72
1
 11
681.8
 21
534.5
 31
0.0
100
AcDbText
 73
2
  0
LINE
  5
270
330
204
100
AcDbEntity
 67
1
  8
A-TABLAS
100
AcDbLine
 10
482.0
 20
531.0
 30
0.0
 11
704.0
 21
531.0
 31
0.0
  0
TEXT
  5
271
330
204
100
AcDbEntity
 67
1
  8
A-TEXTO
100
AcDbText
 10
504.2
 20
527.5
 30
0.0
 40
2.8
  1
4 - 5
  7
ARIAL
 72
1
 11
504.2
 21
527.5
 31
0.0
100
AcDbText
 73
2
  0
LINE
  5
272
330
204
100
AcDbEntity
 67
1
  8
A-TABLAS
100
AcDbLine
 10
526.4
 20
531.0
 30
0.0
 11
526.4
 21
524.0
 31
0.0
  0
TEXT
  5
273
330
204
100
AcDbEntity
 67
1
  8
A-TEXTO
100
AcDbText
 10
548.5999999999999
 20
527.5
 30
0.0
 40
2.8
  1
267
  7
ARIAL
 72
1
 11
548.5999999999999
 21
527.5
 31
0.0
100
AcDbText
 73
2
  0
LINE
  5
274
330
204
100
AcDbEntity
 67
1
  8
A-TABLAS
100
AcDbLine
 10
570.8
 20
531.0
 30
0.0
 11
570.8
 21
524.0
 31
0.0
  0
TEXT
  5
275
330
204
100
AcDbEntity
 67
1
  8
A-TEXTO
100
AcDbText
 10
593.0
 20
527.5
 30
0.0
 40
2.8
  1
20
  7
ARIAL
 72
1
 11
593.0
 21
527.5
 31
0.0
100
AcDbText
 73
2
  0
LINE
  5
276
330
204
100
AcDbEntity
 67
1
  8
A-TABLAS
100
AcDbLine
 10
615.1999999999999
 20
531.0
 30
0.0
 11
615.1999999999999
 21
524.0
 31
0.0
  0
TEXT
  5
277
330
204
100
AcDbEntity
 67
1
  8
A-TEXTO
100
AcDbText
 10
637.3999999999999
 20
527.5
 30
0.0
 40
2.8
  1
9
  7
ARIAL
 72
1
 11
637.3999999999999
 21
527.5
 31
0.0
100
AcDbText
 73
2
  0
LINE
  5
278
330
204
100
AcDbEntity
 67
1
  8
A-TABLAS
100
AcDbLine
 10
659.5999999999999
 20
531.0
 30
0.0
 11
659.5999999999999
 21
524.0
 31
0.0
  0
TEXT
  5
279
330
204
100
AcDbEntity
 67
1
  8
A-TEXTO
100
AcDbText
 10
681.8
 20
527.5
 30
0.0
 40
2.8
  1
00
  7
ARIAL
 72
1
 11
681.8
 21
527.5
 31
0.0
100
AcDbText
 73
2
  0
LINE
  5
27A
330
204
100
AcDbEntity
 67
1
  8
A-TABLAS
100
AcDbLine
 10
482.0
 20
524.0
 30
0.0
 11
704.0
 21
524.0
 31
0.0
  0
TEXT
  5
27B
330
204
100
AcDbEntity
 67
1
  8
A-TEXTO
100
AcDbText
 10
504.2
 20
520.5
 30
0.0
 40
2.8
  1
5 - 1
  7
ARIAL
 72
1
 11
504.2
 21
520.5
 31
0.0
100
AcDbText
 73
2
  0
LINE
  5
27C
330
204
100
AcDbEntity
 67
1
  8
A-TABLAS
100
AcDbLine
 10
526.4
 20
524.0
 30
0.0
 11
526.4
 21
517.0
 31
0.0
  0
TEXT
  5
27D
330
204
100
AcDbEntity
 67
1
  8
A-TEXTO
100
AcDbText
 10
548.5999999999999
 20
520.5
 30
0.0
 40
2.8
  1
357
  7
ARIAL
 72
1
 11
548.5999999999999
 21
520.5
 31
0.0
100
AcDbText
 73
2
  0
LINE
  5
27E
330
204
100
AcDbEntity
 67
1
  8
A-TABLAS
100
AcDbLine
 10
570.8
 20
524.0
 30
0.0
 11
570.8
 21
517.0
 31
0.0
  0
TEXT
  5
27F
330
204
100
AcDbEntity
 67
1
  8
A-TEXTO
100
AcDbText
 10
593.0
 20
520.5
 30
0.0
 40
2.8
  1
17
  7
ARIAL
 72
1
 11
593.0
 21
520.5
 31
0.0
100
AcDbText
 73
2
  0
LINE
  5
280
330
204
100
AcDbEntity
 67
1
  8
A-TABLAS
100
AcDbLine
 10
615.1999999999999
 20
524.0
 30
0.0
 11
615.1999999999999
 21
517.0
 31
0.0
  0
TEXT
  5
281
330
204
100
AcDbEntity
 67
1
  8
A-TEXTO
100
AcDbText
 10
637.3999999999999
 20
520.5
 30
0.0
 40
2.8
  1
28
  7
ARIAL
 72
1
 11
637.3999999999999
 21
520.5
 31
0.0
100
AcDbText
 73
2
  0
LINE
  5
282
330
204
100
AcDbEntity
 67
1
  8
A-TABLAS
100
AcDbLine
 10
659.5999999999999
 20
524.0
 30
0.0
 11
659.5999999999999
 21
517.0
 31
0.0
  0
TEXT
  5
283
330
204
100
AcDbEntity
 67
1
  8
A-TEXTO
100
AcDbText
 10
681.8
 20
520.5
 30
0.0
 40
2.8
  1
51
  7
ARIAL
 72
1
 11
681.8
 21
520.5
 31
0.0
100
AcDbText
 73
2
  0
LINE
  5
284
330
204
100
AcDbEntity
 67
1
  8
A-TABLAS
100
AcDbLine
 10
482.0
 20
517.0
 30
0.0
 11
704.0
 21
517.0
 31
0.0
  0
TEXT
  5
285
330
204
100
AcDbEntity
 67
1
  8
A-TEXTO
100
AcDbText
 10
504.2
 20
513.5
 30
0.0
 40
2.8
  1
AMARRE
  7
ARIAL
 72
1
 11
504.2
 21
513.5
 31
0.0
100
AcDbText
 73
2
  0
LINE
  5
286
330
204
100
AcDbEntity
 67
1
  8
A-TABLAS
100
AcDbLine
 10
526.4
 20
517.0
 30
0.0
 11
526.4
 21
510.0
 31
0.0
  0
TEXT
  5
287
330
204
100
AcDbEntity
 67
1
  8
A-TEXTO
100
AcDbText
 10
570.8
 20
513.5
 30
0.0
 40
2.8
  1
ACIMUT
  7
ARIAL
 72
1
 11
570.8
 21
513.5
 31
0.0
100
AcDbText
 73
2
  0
LINE
  5
288
330
204
100
AcDbEntity
 67
1
  8
A-TABLAS
100
AcDbLine
 10
615.1999999999999
 20
517.0
 30
0.0
 11
615.1999999999999
 21
510.0
 31
0.0
  0
TEXT
  5
289
330
204
100
AcDbEntity
 67
1
  8
A-TEXTO
100
AcDbText
 10
659.5999999999999
 20
513.5
 30
0.0
 40
2.8
  1
DISTANCIA
  7
ARIAL
 72
1
 11
659.5999999999999
 21
513.5
 31
0.0
100
AcDbText
 73
2
  0
LINE
  5
28A
330
204
100
AcDbEntity
 67
1
  8
A-TABLAS
100
AcDbLine
 10
482.0
 20
510.0
 30
0.0
 11
704.0
 21
510.0
 31
0.0
  0
LINE
  5
28B
330
204
100
AcDbEntity
 67
1
  8
A-TABLAS
100
AcDbLine
 10
526.4
 20
510.0
 30
0.0
 11
526.4
 21
503.0
 31
0.0
  0
TEXT
  5
28C
330
204
100
AcDbEntity
 67
1
  8
A-TEXTO
100
AcDbText
 10
548.5999999999999
 20
506.5
 30
0.0
 40
2.8
  1
°
  7
ARIAL
 72
1
 11
548.5999999999999
 21
506.5
 31
0.0
100
AcDbText
 73
2
  0
LINE
  5
28D
330
204
100
AcDbEntity
 67
1
  8
A-TABLAS
100
AcDbLine
 10
570.8
 20
510.0
 30
0.0
 11
570.8
 21
503.0
 31
0.0
  0
TEXT
  5
28E
330
204
100
AcDbEntity
 67
1
  8
A-TEXTO
100
AcDbText
 10
593.0
 20
506.5
 30
0.0
 40
2.8
  1
'
  7
ARIAL
 72
1
 11
593.0
 21
506.5
 31
0.0
100
AcDbText
 73
2
  0
LINE
  5
28F
330
204
100
AcDbEntity
 67
1
  8
A-TABLAS
100
AcDbLine
 10
615.1999999999999
 20
510.0
 30
0.0
 11
615.1999999999999
 21
503.0
 31
0.0
  0
TEXT
  5
290
330
204
100
AcDbEntity
 67
1
  8
A-TEXTO
100
AcDbText
 10
637.3999999999999
 20
506.5
 30
0.0
 40
2.8
  1
m
  7
ARIAL
 72
1
 11
637.3999999999999
 21
506.5
 31
0.0
100
AcDbText
 73
2
  0
LINE
  5
291
330
204
100
AcDbEntity
 67
1
  8
A-TABLAS
100
AcDbLine
 10
659.5999999999999
 20
510.0
 30
0.0
 11
659.5999999999999
 21
503.0
 31
0.0
  0
TEXT
  5
292
330
204
100
AcDbEntity
 67
1
  8
A-TEXTO
100
AcDbText
 10
681.8
 20
506.5
 30
0.0
 40
2.8
  1
cm
  7
ARIAL
 72
1
 11
681.8
 21
506.5
 31
0.0
100
AcDbText
 73
2
  0
LINE
  5
293
330
204
100
AcDbEntity
 67
1
  8
A-TABLAS
100
AcDbLine
 10
482.0
 20
503.0
 30
0.0
 11
704.0
 21
503.0
 31
0.0
  0
TEXT
  5
294
330
204
100
AcDbEntity
 67
1
  8
A-TEXTO
100
AcDbText
 10
504.2
 20
499.5
 30
0.0
 40
2.8
  1
3 - P.I.
  7
ARIAL
 72
1
 11
504.2
 21
499.5
 31
0.0
100
AcDbText
 73
2
  0
LINE
  5
295
330
204
100
AcDbEntity
 67
1
  8
A-TABLAS
100
AcDbLine
 10
526.4
 20
503.0
 30
0.0
 11
526.4
 21
496.0
 31
0.0
  0
TEXT
  5
296
330
204
100
AcDbEntity
 67
1
  8
A-TEXTO
100
AcDbText
 10
548.5999999999999
 20
499.5
 30
0.0
 40
2.8
  1
101
  7
ARIAL
 72
1
 11
548.5999999999999
 21
499.5
 31
0.0
100
AcDbText
 73
2
  0
LINE
  5
297
330
204
100
AcDbEntity
 67
1
  8
A-TABLAS
100
AcDbLine
 10
570.8
 20
503.0
 30
0.0
 11
570.8
 21
496.0
 31
0.0
  0
TEXT
  5
298
330
204
100
AcDbEntity
 67
1
  8
A-TEXTO
100
AcDbText
 10
593.0
 20
499.5
 30
0.0
 40
2.8
  1
22
  7
ARIAL
 72
1
 11
593.0
 21
499.5
 31
0.0
100
AcDbText
 73
2
  0
LINE
  5
299
330
204
100
AcDbEntity
 67
1
  8
A-TABLAS
100
AcDbLine
 10
615.1999999999999
 20
503.0
 30
0.0
 11
615.1999999999999
 21
496.0
 31
0.0
  0
TEXT
  5
29A
330
204
100
AcDbEntity
 67
1
  8
A-TEXTO
100
AcDbText
 10
637.3999999999999
 20
499.5
 30
0.0
 40
2.8
  1
75
  7
ARIAL
 72
1
 11
637.3999999999999
 21
499.5
 31
0.0
100
AcDbText
 73
2
  0
LINE
  5
29B
330
204
100
AcDbEntity
 67
1
  8
A-TABLAS
100
AcDbLine
 10
659.5999999999999
 20
503.0
 30
0.0
 11
659.5999999999999
 21
496.0
 31
0.0
  0
TEXT
  5
29C
330
204
100
AcDbEntity
 67
1
  8
A-TEXTO
100
AcDbText
 10
681.8
 20
499.5
 30
0.0
 40
2.8
  1
71
  7
ARIAL
 72
1
 11
681.8
 21
499.5
 31
0.0
100
AcDbText
 73
2
  0
MTEXT
  5
29D
330
204
100
AcDbEntity
 67
1
  8
A-NOTAS
100
AcDbMText
 10
482.0
 20
494.0
 30
0.0
 40
2.0
 41
222.0
 71
1
  1
Acimutes y distancias calculados con las coordenadas CRTM05 del plano catastrado 4-57389-2023 (redondeo al minuto y al centímetro). Amarre al punto de intersección (P.I.) según el mismo plano.
  7
ARIAL
  0
TEXT
  5
29E
330
204
100
AcDbEntity
 67
1
  8
A-TITULOS
100
AcDbText
 10
593.0
 20
482.0
 30
0.0
 40
3.5
  1
CUADRO DE COORDENADAS CRTM05
  7
ARIAL
 72
1
 11
593.0
 21
482.0
 31
0.0
100
AcDbText
 73
3
  0
LWPOLYLINE
  5
29F
330
204
100
AcDbEntity
 67
1
  8
A-TABLAS
100
AcDbPolyline
 90
4
 70
1
 10
482.0
 20
439.0
 10
704.0
 20
439.0
 10
704.0
 20
475.0
 10
482.0
 20
475.0
  0
TEXT
  5
2A0
330
204
100
AcDbEntity
 67
1
  8
A-TEXTO
100
AcDbText
 10
507.0
 20
472.0
 30
0.0
 40
2.6
  1
VÉRTICE
  7
ARIAL
 72
1
 11
507.0
 21
472.0
 31
0.0
100
AcDbText
 73
2
  0
LINE
  5
2A1
330
204
100
AcDbEntity
 67
1
  8
A-TABLAS
100
AcDbLine
 10
532.0
 20
475.0
 30
0.0
 11
532.0
 21
469.0
 31
0.0
  0
TEXT
  5
2A2
330
204
100
AcDbEntity
 67
1
  8
A-TEXTO
100
AcDbText
 10
575.0
 20
472.0
 30
0.0
 40
2.6
  1
ESTE (m)
  7
ARIAL
 72
1
 11
575.0
 21
472.0
 31
0.0
100
AcDbText
 73
2
  0
LINE
  5
2A3
330
204
100
AcDbEntity
 67
1
  8
A-TABLAS
100
AcDbLine
 10
618.0
 20
475.0
 30
0.0
 11
618.0
 21
469.0
 31
0.0
  0
TEXT
  5
2A4
330
204
100
AcDbEntity
 67
1
  8
A-TEXTO
100
AcDbText
 10
661.0
 20
472.0
 30
0.0
 40
2.6
  1
NORTE (m)
  7
ARIAL
 72
1
 11
661.0
 21
472.0
 31
0.0
100
AcDbText
 73
2
  0
LINE
  5
2A5
330
204
100
AcDbEntity
 67
1
  8
A-TABLAS
100
AcDbLine
 10
482.0
 20
469.0
 30
0.0
 11
704.0
 21
469.0
 31
0.0
  0
TEXT
  5
2A6
330
204
100
AcDbEntity
 67
1
  8
A-TEXTO
100
AcDbText
 10
507.0
 20
466.0
 30
0.0
 40
2.6
  1
1
  7
ARIAL
 72
1
 11
507.0
 21
466.0
 31
0.0
100
AcDbText
 73
2
  0
LINE
  5
2A7
330
204
100
AcDbEntity
 67
1
  8
A-TABLAS
100
AcDbLine
 10
532.0
 20
469.0
 30
0.0
 11
532.0
 21
463.0
 31
0.0
  0
TEXT
  5
2A8
330
204
100
AcDbEntity
 67
1
  8
A-TEXTO
100
AcDbText
 10
575.0
 20
466.0
 30
0.0
 40
2.6
  1
489,351.38
  7
ARIAL
 72
1
 11
575.0
 21
466.0
 31
0.0
100
AcDbText
 73
2
  0
LINE
  5
2A9
330
204
100
AcDbEntity
 67
1
  8
A-TABLAS
100
AcDbLine
 10
618.0
 20
469.0
 30
0.0
 11
618.0
 21
463.0
 31
0.0
  0
TEXT
  5
2AA
330
204
100
AcDbEntity
 67
1
  8
A-TEXTO
100
AcDbText
 10
661.0
 20
466.0
 30
0.0
 40
2.6
  1
1,106,442.25
  7
ARIAL
 72
1
 11
661.0
 21
466.0
 31
0.0
100
AcDbText
 73
2
  0
LINE
  5
2AB
330
204
100
AcDbEntity
 67
1
  8
A-TABLAS
100
AcDbLine
 10
482.0
 20
463.0
 30
0.0
 11
704.0
 21
463.0
 31
0.0
  0
TEXT
  5
2AC
330
204
100
AcDbEntity
 67
1
  8
A-TEXTO
100
AcDbText
 10
507.0
 20
460.0
 30
0.0
 40
2.6
  1
2
  7
ARIAL
 72
1
 11
507.0
 21
460.0
 31
0.0
100
AcDbText
 73
2
  0
LINE
  5
2AD
330
204
100
AcDbEntity
 67
1
  8
A-TABLAS
100
AcDbLine
 10
532.0
 20
463.0
 30
0.0
 11
532.0
 21
457.0
 31
0.0
  0
TEXT
  5
2AE
330
204
100
AcDbEntity
 67
1
  8
A-TEXTO
100
AcDbText
 10
575.0
 20
460.0
 30
0.0
 40
2.6
  1
489,356.04
  7
ARIAL
 72
1
 11
575.0
 21
460.0
 31
0.0
100
AcDbText
 73
2
  0
LINE
  5
2AF
330
204
100
AcDbEntity
 67
1
  8
A-TABLAS
100
AcDbLine
 10
618.0
 20
463.0
 30
0.0
 11
618.0
 21
457.0
 31
0.0
  0
TEXT
  5
2B0
330
204
100
AcDbEntity
 67
1
  8
A-TEXTO
100
AcDbText
 10
661.0
 20
460.0
 30
0.0
 40
2.6
  1
1,106,442.46
  7
ARIAL
 72
1
 11
661.0
 21
460.0
 31
0.0
100
AcDbText
 73
2
  0
LINE
  5
2B1
330
204
100
AcDbEntity
 67
1
  8
A-TABLAS
100
AcDbLine
 10
482.0
 20
457.0
 30
0.0
 11
704.0
 21
457.0
 31
0.0
  0
TEXT
  5
2B2
330
204
100
AcDbEntity
 67
1
  8
A-TEXTO
100
AcDbText
 10
507.0
 20
454.0
 30
0.0
 40
2.6
  1
3
  7
ARIAL
 72
1
 11
507.0
 21
454.0
 31
0.0
100
AcDbText
 73
2
  0
LINE
  5
2B3
330
204
100
AcDbEntity
 67
1
  8
A-TABLAS
100
AcDbLine
 10
532.0
 20
457.0
 30
0.0
 11
532.0
 21
451.0
 31
0.0
  0
TEXT
  5
2B4
330
204
100
AcDbEntity
 67
1
  8
A-TEXTO
100
AcDbText
 10
575.0
 20
454.0
 30
0.0
 40
2.6
  1
489,360.38
  7
ARIAL
 72
1
 11
575.0
 21
454.0
 31
0.0
100
AcDbText
 73
2
  0
LINE
  5
2B5
330
204
100
AcDbEntity
 67
1
  8
A-TABLAS
100
AcDbLine
 10
618.0
 20
457.0
 30
0.0
 11
618.0
 21
451.0
 31
0.0
  0
TEXT
  5
2B6
330
204
100
AcDbEntity
 67
1
  8
A-TEXTO
100
AcDbText
 10
661.0
 20
454.0
 30
0.0
 40
2.6
  1
1,106,442.62
  7
ARIAL
 72
1
 11
661.0
 21
454.0
 31
0.0
100
AcDbText
 73
2
  0
LINE
  5
2B7
330
204
100
AcDbEntity
 67
1
  8
A-TABLAS
100
AcDbLine
 10
482.0
 20
451.0
 30
0.0
 11
704.0
 21
451.0
 31
0.0
  0
TEXT
  5
2B8
330
204
100
AcDbEntity
 67
1
  8
A-TEXTO
100
AcDbText
 10
507.0
 20
448.0
 30
0.0
 40
2.6
  1
4
  7
ARIAL
 72
1
 11
507.0
 21
448.0
 31
0.0
100
AcDbText
 73
2
  0
LINE
  5
2B9
330
204
100
AcDbEntity
 67
1
  8
A-TABLAS
100
AcDbLine
 10
532.0
 20
451.0
 30
0.0
 11
532.0
 21
445.0
 31
0.0
  0
TEXT
  5
2BA
330
204
100
AcDbEntity
 67
1
  8
A-TEXTO
100
AcDbText
 10
575.0
 20
448.0
 30
0.0
 40
2.6
  1
489,361.72
  7
ARIAL
 72
1
 11
575.0
 21
448.0
 31
0.0
100
AcDbText
 73
2
  0
LINE
  5
2BB
330
204
100
AcDbEntity
 67
1
  8
A-TABLAS
100
AcDbLine
 10
618.0
 20
451.0
 30
0.0
 11
618.0
 21
445.0
 31
0.0
  0
TEXT
  5
2BC
330
204
100
AcDbEntity
 67
1
  8
A-TEXTO
100
AcDbText
 10
661.0
 20
448.0
 30
0.0
 40
2.6
  1
1,106,414.19
  7
ARIAL
 72
1
 11
661.0
 21
448.0
 31
0.0
100
AcDbText
 73
2
  0
LINE
  5
2BD
330
204
100
AcDbEntity
 67
1
  8
A-TABLAS
100
AcDbLine
 10
482.0
 20
445.0
 30
0.0
 11
704.0
 21
445.0
 31
0.0
  0
TEXT
  5
2BE
330
204
100
AcDbEntity
 67
1
  8
A-TEXTO
100
AcDbText
 10
507.0
 20
442.0
 30
0.0
 40
2.6
  1
5
  7
ARIAL
 72
1
 11
507.0
 21
442.0
 31
0.0
100
AcDbText
 73
2
  0
LINE
  5
2BF
330
204
100
AcDbEntity
 67
1
  8
A-TABLAS
100
AcDbLine
 10
532.0
 20
445.0
 30
0.0
 11
532.0
 21
439.0
 31
0.0
  0
TEXT
  5
2C0
330
204
100
AcDbEntity
 67
1
  8
A-TEXTO
100
AcDbText
 10
575.0
 20
442.0
 30
0.0
 40
2.6
  1
489,352.73
  7
ARIAL
 72
1
 11
575.0
 21
442.0
 31
0.0
100
AcDbText
 73
2
  0
LINE
  5
2C1
330
204
100
AcDbEntity
 67
1
  8
A-TABLAS
100
AcDbLine
 10
618.0
 20
445.0
 30
0.0
 11
618.0
 21
439.0
 31
0.0
  0
TEXT
  5
2C2
330
204
100
AcDbEntity
 67
1
  8
A-TEXTO
100
AcDbText
 10
661.0
 20
442.0
 30
0.0
 40
2.6
  1
1,106,413.77
  7
ARIAL
 72
1
 11
661.0
 21
442.0
 31
0.0
100
AcDbText
 73
2
  0
TEXT
  5
2C3
330
204
100
AcDbEntity
 67
1
  8
A-TITULOS
100
AcDbText
 10
593.0
 20
431.0
 30
0.0
 40
3.5
  1
CUADRO DE ÁREAS Y COBERTURA
  7
ARIAL
 72
1
 11
593.0
 21
431.0
 31
0.0
100
AcDbText
 73
3
  0
LWPOLYLINE
  5
2C4
330
204
100
AcDbEntity
 67
1
  8
A-TABLAS
100
AcDbPolyline
 90
4
 70
1
 10
482.0
 20
376.0
 10
704.0
 20
376.0
 10
704.0
 20
424.0
 10
482.0
 20
424.0
  0
TEXT
  5
2C5
330
204
100
AcDbEntity
 67
1
  8
A-TEXTO
100
AcDbText
 10
483.5
 20
421.0
 30
0.0
 40
2.6
  1
CONCEPTO
  7
ARIAL
 11
483.5
 21
421.0
 31
0.0
100
AcDbText
 73
2
  0
LINE
  5
2C6
330
204
100
AcDbEntity
 67
1
  8
A-TABLAS
100
AcDbLine
 10
632.0
 20
424.0
 30
0.0
 11
632.0
 21
418.0
 31
0.0
  0
TEXT
  5
2C7
330
204
100
AcDbEntity
 67
1
  8
A-TEXTO
100
AcDbText
 10
702.5
 20
421.0
 30
0.0
 40
2.6
  1
VALOR
  7
ARIAL
 72
2
 11
702.5
 21
421.0
 31
0.0
100
AcDbText
 73
2
  0
LINE
  5
2C8
330
204
100
AcDbEntity
 67
1
  8
A-TABLAS
100
AcDbLine
 10
482.0
 20
418.0
 30
0.0
 11
704.0
 21
418.0
 31
0.0
  0
TEXT
  5
2C9
330
204
100
AcDbEntity
 67
1
  8
A-TEXTO
100
AcDbText
 10
483.5
 20
415.0
 30
0.0
 40
2.6
  1
ÁREA DEL LOTE SEGÚN CATASTRO
  7
ARIAL
 11
483.5
 21
415.0
 31
0.0
100
AcDbText
 73
2
  0
LINE
  5
2CA
330
204
100
AcDbEntity
 67
1
  8
A-TABLAS
100
AcDbLine
 10
632.0
 20
418.0
 30
0.0
 11
632.0
 21
412.0
 31
0.0
  0
TEXT
  5
2CB
330
204
100
AcDbEntity
 67
1
  8
A-TEXTO
100
AcDbText
 10
702.5
 20
415.0
 30
0.0
 40
2.6
  1
256,00 m²
  7
ARIAL
 72
2
 11
702.5
 21
415.0
 31
0.0
100
AcDbText
 73
2
  0
LINE
  5
2CC
330
204
100
AcDbEntity
 67
1
  8
A-TABLAS
100
AcDbLine
 10
482.0
 20
412.0
 30
0.0
 11
704.0
 21
412.0
 31
0.0
  0
TEXT
  5
2CD
330
204
100
AcDbEntity
 67
1
  8
A-TEXTO
100
AcDbText
 10
483.5
 20
409.0
 30
0.0
 40
2.6
  1
ÁREA DEL LOTE SEGÚN COORDENADAS
  7
ARIAL
 11
483.5
 21
409.0
 31
0.0
100
AcDbText
 73
2
  0
LINE
  5
2CE
330
204
100
AcDbEntity
 67
1
  8
A-TABLAS
100
AcDbLine
 10
632.0
 20
412.0
 30
0.0
 11
632.0
 21
406.0
 31
0.0
  0
TEXT
  5
2CF
330
204
100
AcDbEntity
 67
1
  8
A-TEXTO
100
AcDbText
 10
702.5
 20
409.0
 30
0.0
 40
2.6
  1
256,57 m²
  7
ARIAL
 72
2
 11
702.5
 21
409.0
 31
0.0
100
AcDbText
 73
2
  0
LINE
  5
2D0
330
204
100
AcDbEntity
 67
1
  8
A-TABLAS
100
AcDbLine
 10
482.0
 20
406.0
 30
0.0
 11
704.0
 21
406.0
 31
0.0
  0
TEXT
  5
2D1
330
204
100
AcDbEntity
 67
1
  8
A-TEXTO
100
AcDbText
 10
483.5
 20
403.0
 30
0.0
 40
2.6
  1
ENVOLVENTE DE CONSTRUCCIÓN (9,00 x 23,12)
  7
ARIAL
 11
483.5
 21
403.0
 31
0.0
100
AcDbText
 73
2
  0
LINE
  5
2D2
330
204
100
AcDbEntity
 67
1
  8
A-TABLAS
100
AcDbLine
 10
632.0
 20
406.0
 30
0.0
 11
632.0
 21
400.0
 31
0.0
  0
TEXT
  5
2D3
330
204
100
AcDbEntity
 67
1
  8
A-TEXTO
100
AcDbText
 10
702.5
 20
403.0
 30
0.0
 40
2.6
  1
208,08 m²
  7
ARIAL
 72
2
 11
702.5
 21
403.0
 31
0.0
100
AcDbText
 73
2
  0
LINE
  5
2D4
330
204
100
AcDbEntity
 67
1
  8
A-TABLAS
100
AcDbLine
 10
482.0
 20
400.0
 30
0.0
 11
704.0
 21
400.0
 31
0.0
  0
TEXT
  5
2D5
330
204
100
AcDbEntity
 67
1
  8
A-TEXTO
100
AcDbText
 10
483.5
 20
397.0
 30
0.0
 40
2.6
  1
PATIOS ABIERTOS P1 + P2
  7
ARIAL
 11
483.5
 21
397.0
 31
0.0
100
AcDbText
 73
2
  0
LINE
  5
2D6
330
204
100
AcDbEntity
 67
1
  8
A-TABLAS
100
AcDbLine
 10
632.0
 20
400.0
 30
0.0
 11
632.0
 21
394.0
 31
0.0
  0
TEXT
  5
2D7
330
204
100
AcDbEntity
 67
1
  8
A-TEXTO
100
AcDbText
 10
702.5
 20
397.0
 30
0.0
 40
2.6
  1
28,55 m²
  7
ARIAL
 72
2
 11
702.5
 21
397.0
 31
0.0
100
AcDbText
 73
2
  0
LINE
  5
2D8
330
204
100
AcDbEntity
 67
1
  8
A-TABLAS
100
AcDbLine
 10
482.0
 20
394.0
 30
0.0
 11
704.0
 21
394.0
 31
0.0
  0
TEXT
  5
2D9
330
204
100
AcDbEntity
 67
1
  8
A-TEXTO
100
AcDbText
 10
483.5
 20
391.0
 30
0.0
 40
2.6
  1
HUELLA CONSTRUCTIVA NIVEL 1
  7
ARIAL
 11
483.5
 21
391.0
 31
0.0
100
AcDbText
 73
2
  0
LINE
  5
2DA
330
204
100
AcDbEntity
 67
1
  8
A-TABLAS
100
AcDbLine
 10
632.0
 20
394.0
 30
0.0
 11
632.0
 21
388.0
 31
0.0
  0
TEXT
  5
2DB
330
204
100
AcDbEntity
 67
1
  8
A-TEXTO
100
AcDbText
 10
702.5
 20
391.0
 30
0.0
 40
2.6
  1
179,53 m²
  7
ARIAL
 72
2
 11
702.5
 21
391.0
 31
0.0
100
AcDbText
 73
2
  0
LINE
  5
2DC
330
204
100
AcDbEntity
 67
1
  8
A-TABLAS
100
AcDbLine
 10
482.0
 20
388.0
 30
0.0
 11
704.0
 21
388.0
 31
0.0
  0
TEXT
  5
2DD
330
204
100
AcDbEntity
 67
1
  8
A-TEXTO
100
AcDbText
 10
483.5
 20
385.0
 30
0.0
 40
2.6
  1
ÁREA LIBRE DEL LOTE (CATASTRO - HUELLA)
  7
ARIAL
 11
483.5
 21
385.0
 31
0.0
100
AcDbText
 73
2
  0
LINE
  5
2DE
330
204
100
AcDbEntity
 67
1
  8
A-TABLAS
100
AcDbLine
 10
632.0
 20
388.0
 30
0.0
 11
632.0
 21
382.0
 31
0.0
  0
TEXT
  5
2DF
330
204
100
AcDbEntity
 67
1
  8
A-TEXTO
100
AcDbText
 10
702.5
 20
385.0
 30
0.0
 40
2.6
  1
76,47 m²
  7
ARIAL
 72
2
 11
702.5
 21
385.0
 31
0.0
100
AcDbText
 73
2
  0
LINE
  5
2E0
330
204
100
AcDbEntity
 67
1
  8
A-TABLAS
100
AcDbLine
 10
482.0
 20
382.0
 30
0.0
 11
704.0
 21
382.0
 31
0.0
  0
TEXT
  5
2E1
330
204
100
AcDbEntity
 67
1
  8
A-TEXTO
100
AcDbText
 10
483.5
 20
379.0
 30
0.0
 40
2.6
  1
COBERTURA
  7
ARIAL
 11
483.5
 21
379.0
 31
0.0
100
AcDbText
 73
2
  0
LINE
  5
2E2
330
204
100
AcDbEntity
 67
1
  8
A-TABLAS
100
AcDbLine
 10
632.0
 20
382.0
 30
0.0
 11
632.0
 21
376.0
 31
0.0
  0
TEXT
  5
2E3
330
204
100
AcDbEntity
 67
1
  8
A-TEXTO
100
AcDbText
 10
702.5
 20
379.0
 30
0.0
 40
2.6
  1
70,13 %
  7
ARIAL
 72
2
 11
702.5
 21
379.0
 31
0.0
100
AcDbText
 73
2
  0
TEXT
  5
2E4
330
204
100
AcDbEntity
 67
1
  8
A-TEXTO
100
AcDbText
 10
482.0
 20
374.0
 30
0.0
 40
2.0
  1
CÁLCULO: HUELLA / ÁREA SEGÚN CATASTRO x 100 = (179,53 / 256,00) x 100 = 70,13 %
  7
ARIAL
 11
482.0
 21
374.0
 31
0.0
100
AcDbText
 73
3
  0
TEXT
  5
2E5
330
204
100
AcDbEntity
 67
1
  8
A-TITULOS
100
AcDbText
 10
482.0
 20
366.0
 30
0.0
 40
3.5
  1
NOTAS:
  7
ARIAL
 11
482.0
 21
366.0
 31
0.0
100
AcDbText
 73
3
  0
MTEXT
  5
2E6
330
204
100
AcDbEntity
 67
1
  8
A-NOTAS
100
AcDbMText
 10
482.0
 20
360.0
 30
0.0
 40
2.3
 41
222.0
 71
1
  3
1.- TODAS LAS MEDIDAS ESTÁN DADAS EN METROS, SALVO INDICACIÓN CONTRARIA.\P2.- LA TAPIA COLINDANTE DE MAMPOSTERÍA DEBERÁ PROLONGARSE HASTA EL NIVEL DE LA VIGA CORONA DEL ÚLTIMO NIVEL, GARANTIZANDO EL APANTALLAMIENTO VISUAL PERMANENTE HACIA LA PROPIEDA
  3
D COLINDANTE.\P3.- LOS DATOS DEL LOTE (VÉRTICES, DERROTERO Y ÁREA) SE TOMARON DEL PLANO CATASTRADO 4-57389-2023, SISTEMA CRTM05. NO SUSTITUYEN UN LEVANTAMIENTO TOPOGRÁFICO.\P4.- RETIROS DE DISEÑO: FRONTAL 2.00 m MEDIDO DESDE EL VÉRTICE 3; POSTERIOR M
  3
ÍNIMO 3.00 m; LATERALES 0.00 m. CONFIRMADOS CON EL ALINEAMIENTO Y EL USO DE SUELO MUNICIPAL.\P5.- LAS FACHADAS LATERALES SE UBICAN SOBRE COLINDANCIA Y SERÁN CIEGAS (SIN VENTANAS NI VANOS).\P6.- LOS BAÑOS CONTARÁN CON EXTRACTOR MECÁNICO DE AIRE.\P7.- 
  3
LAS CANOAS TENDRÁN MALLA PROTECTORA PARA EVITAR EL ACCESO DE BASURA.\P8.- EL AGUA POTABLE PROVIENE DEL SISTEMA PÚBLICO (ESPH), DIRECTAMENTE DE LA CONEXIÓN DE LA CALLE (VER S01).\P9.- LAS AGUAS PLUVIALES SE DIRIGEN HACIA LA CUNETA PÚBLICA (VER S03).\P
  3
10.- LAS AGUAS RESIDUALES SE TRATARÁN MEDIANTE TANQUE SÉPTICO Y DRENAJE EN EL PATIO POSTERIOR (VER S02).\P11.- LA COBERTURA SE CALCULA SOBRE EL ÁREA SEGÚN CATASTRO (256 m²). LOS PATIOS P1 Y P2 SON ABIERTOS DESDE EL NIVEL 1 HASTA EL CIELO Y NO SE CONT
  1
ABILIZAN EN LA HUELLA.\P12.- PATIOS DE LUZ P1 Y P2 DE 2.50 m DE LADO MÍNIMO, DIMENSIÓN ACEPTADA POR LA MUNICIPALIDAD (ALTURA MEDIDA DESDE EL NIVEL 1).
  7
ARIAL
  0
TEXT
  5
2E7
330
204
100
AcDbEntity
 67
1
  8
A-TITULOS
100
AcDbText
 10
482.0
 20
280.0
 30
0.0
 40
3.5
  1
SIMBOLOGÍA:
  7
ARIAL
 11
482.0
 21
280.0
 31
0.0
100
AcDbText
 73
3
  0
LINE
  5
2E8
330
204
100
AcDbEntity
 67
1
  8
T-LINDERO
100
AcDbLine
 10
484.0
 20
269.0
 30
0.0
 11
500.0
 21
269.0
 31
0.0
  0
TEXT
  5
2E9
330
204
100
AcDbEntity
 67
1
  8
A-TEXTO
100
AcDbText
 10
506.0
 20
269.0
 30
0.0
 40
2.4
  1
LÍNEA DE PROPIEDAD (LINDERO)
  7
ARIAL
 11
506.0
 21
269.0
 31
0.0
100
AcDbText
 73
2
  0
CIRCLE
  5
2EA
330
204
100
AcDbEntity
 67
1
  8
T-VERTICE
100
AcDbCircle
 10
492.0
 20
261.0
 30
0.0
 40
1.8
  0
TEXT
  5
2EB
330
204
100
AcDbEntity
 67
1
  8
A-TEXTO
100
AcDbText
 10
495.5
 20
262.5
 30
0.0
 40
2.0
  1
1
  7
ARIAL
 11
495.5
 21
262.5
 31
0.0
100
AcDbText
 73
2
  0
TEXT
  5
2EC
330
204
100
AcDbEntity
 67
1
  8
A-TEXTO
100
AcDbText
 10
506.0
 20
261.0
 30
0.0
 40
2.4
  1
VÉRTICE DEL PLANO CATASTRADO
  7
ARIAL
 11
506.0
 21
261.0
 31
0.0
100
AcDbText
 73
2
  0
LWPOLYLINE
  5
2ED
330
204
100
AcDbEntity
 67
1
  8
A-HUELLA
100
AcDbPolyline
 90
4
 70
1
 10
484.0
 20
250.8
 10
500.0
 20
250.8
 10
500.0
 20
255.2
 10
484.0
 20
255.2
  0
HATCH
  5
2EE
330
204
100
AcDbEntity
 67
1
  8
A-HUELLA-TRAMA
 62
7
100
AcDbHatch
 10
0.0
 20
0.0
 30
0.0
210
0.0
220
0.0
230
1.0
  2
ANSI31
 70
0
 71
0
 91
1
 92
3
 72
0
 73
1
 93
4
 10
484.0
 20
250.8
 10
500.0
 20
250.8
 10
500.0
 20
255.2
 10
484.0
 20
255.2
 97
0
 75
1
 76
1
 52
0.0
 41
0.6
 77
0
 78
1
 53
45.0
 43
0.0
 44
0.0
 45
-1.3470384182
 46
1.3470384182
 79
0
 98
0
  0
TEXT
  5
2EF
330
204
100
AcDbEntity
 67
1
  8
A-TEXTO
100
AcDbText
 10
506.0
 20
253.0
 30
0.0
 40
2.4
  1
HUELLA CONSTRUCTIVA (NIVEL 1)
  7
ARIAL
 11
506.0
 21
253.0
 31
0.0
100
AcDbText
 73
2
  0
LWPOLYLINE
  5
2F0
330
204
100
AcDbEntity
 67
1
  8
A-PATIO
100
AcDbPolyline
 90
4
 70
1
 10
484.0
 20
242.8
 10
500.0
 20
242.8
 10
500.0
 20
247.2
 10
484.0
 20
247.2
  0
LINE
  5
2F1
330
204
100
AcDbEntity
 67
1
  8
A-PATIO
  6
DASHED2
100
AcDbLine
 10
484.0
 20
242.8
 30
0.0
 11
500.0
 21
247.2
 31
0.0
  0
LINE
  5
2F2
330
204
100
AcDbEntity
 67
1
  8
A-PATIO
  6
DASHED2
100
AcDbLine
 10
484.0
 20
247.2
 30
0.0
 11
500.0
 21
242.8
 31
0.0
  0
TEXT
  5
2F3
330
204
100
AcDbEntity
 67
1
  8
A-TEXTO
100
AcDbText
 10
506.0
 20
245.0
 30
0.0
 40
2.4
  1
PATIO ABIERTO A CIELO
  7
ARIAL
 11
506.0
 21
245.0
 31
0.0
100
AcDbText
 73
2
  0
LINE
  5
2F4
330
204
100
AcDbEntity
 67
1
  8
A-TEXTO
100
AcDbLine
 10
484.0
 20
237.0
 30
0.0
 11
500.0
 21
237.0
 31
0.0
  0
LINE
  5
2F5
330
204
100
AcDbEntity
 67
1
  8
A-TEXTO
100
AcDbLine
 10
483.0
 20
236.0
 30
0.0
 11
485.0
 21
238.0
 31
0.0
  0
LINE
  5
2F6
330
204
100
AcDbEntity
 67
1
  8
A-TEXTO
100
AcDbLine
 10
499.0
 20
236.0
 30
0.0
 11
501.0
 21
238.0
 31
0.0
  0
TEXT
  5
2F7
330
204
100
AcDbEntity
 67
1
  8
A-TEXTO
100
AcDbText
 10
492.0
 20
237.8
 30
0.0
 40
2.0
  1
5.70
  7
ARIAL
 72
1
 11
492.0
 21
237.8
 31
0.0
100
AcDbText
 73
1
  0
TEXT
  5
2F8
330
204
100
AcDbEntity
 67
1
  8
A-TEXTO
100
AcDbText
 10
506.0
 20
237.0
 30
0.0
 40
2.4
  1
COTA (m)
  7
ARIAL
 11
506.0
 21
237.0
 31
0.0
100
AcDbText
 73
2
  0
INSERT
  5
340
330
204
100
AcDbEntity
 67
1
  8
A-CAJETIN
100
AcDbBlockReference
 66
1
  2
CAJETIN_A1
 10
711.0
 20
10.0
 30
0.0
  0
ATTRIB
  5
342
330
204
100
AcDbEntity
 67
1
  8
A-CAJETIN-TXT
100
AcDbText
 10
771.0
 20
261.6
 30
0.0
 40
3.2
  1
CivilCon Diseño y Construcción SRLTDA
  7
ARIAL
 72
1
 11
771.0
 21
261.6
 31
0.0
100
AcDbAttribute
  2
EMPRESA
 70
0
 74
3
 71
1
 72
0
 11
771.0
 21
261.6
 31
0.0
  0
ATTRIB
  5
343
330
204
100
AcDbEntity
 67
1
  8
A-CAJETIN-TXT
100
AcDbText
 10
771.0
 20
255.6
 30
0.0
 40
2.5
  1
Céd. Jurídica: 3-102-762712
  7
ARIAL
 72
1
 11
771.0
 21
255.6
 31
0.0
100
AcDbAttribute
  2
EMPRESA_CED
 70
0
 74
3
 71
1
 72
0
 11
771.0
 21
255.6
 31
0.0
  0
ATTRIB
  5
344
330
204
100
AcDbEntity
 67
1
  8
A-CAJETIN-TXT
100
AcDbText
 10
714.0
 20
240.1
 30
0.0
 40
2.6
  1
DIRECTOR TÉCNICO:
  7
ARIAL
 11
714.0
 21
240.1
 31
0.0
100
AcDbAttribute
  2
PROF_1
 70
0
 74
3
 71
1
 72
0
 11
714.0
 21
240.1
 31
0.0
  0
ATTRIB
  5
345
330
204
100
AcDbEntity
 67
1
  8
A-CAJETIN-TXT
100
AcDbText
 10
714.0
 20
235.6
 30
0.0
 40
2.6
  1
Steven Viales (Civil) IC-40759
  7
ARIAL
 11
714.0
 21
235.6
 31
0.0
100
AcDbAttribute
  2
PROF_2
 70
0
 74
3
 71
1
 72
0
 11
714.0
 21
235.6
 31
0.0
  0
ATTRIB
  5
346
330
204
100
AcDbEntity
 67
1
  8
A-CAJETIN-TXT
100
AcDbText
 10
714.0
 20
231.1
 30
0.0
 40
2.6
  1
David Barrantes (Electricidad) IE-27499
  7
ARIAL
 11
714.0
 21
231.1
 31
0.0
100
AcDbAttribute
  2
PROF_3
 70
0
 74
3
 71
1
 72
0
 11
714.0
 21
231.1
 31
0.0
  0
ATTRIB
  5
347
330
204
100
AcDbEntity
 67
1
  8
A-CAJETIN-TXT
100
AcDbText
 10
714.0
 20
218.1
 30
0.0
 40
4.2
  1
VIVIENDA UNIFAMILIAR
  7
ARIAL
 11
714.0
 21
218.1
 31
0.0
100
AcDbAttribute
  2
PROYECTO
 70
0
 74
3
 71
1
 72
0
 11
714.0
 21
218.1
 31
0.0
  0
ATTRIB
  5
348
330
204
100
AcDbEntity
 67
1
  8
A-CAJETIN-TXT
100
AcDbText
 10
714.0
 20
211.1
 30
0.0
 40
2.5
  1
DISTRITO 03 SANTIAGO, CANTÓN 05 SAN RAFAEL,
  7
ARIAL
 11
714.0
 21
211.1
 31
0.0
100
AcDbAttribute
  2
UBIC_1
 70
0
 74
3
 71
1
 72
0
 11
714.0
 21
211.1
 31
0.0
  0
ATTRIB
  5
349
330
204
100
AcDbEntity
 67
1
  8
A-CAJETIN-TXT
100
AcDbText
 10
714.0
 20
206.6
 30
0.0
 40
2.5
  1
PROVINCIA 04 HEREDIA, COSTA RICA.
  7
ARIAL
 11
714.0
 21
206.6
 31
0.0
100
AcDbAttribute
  2
UBIC_2
 70
0
 74
3
 71
1
 72
0
 11
714.0
 21
206.6
 31
0.0
  0
ATTRIB
  5
34A
330
204
100
AcDbEntity
 67
1
  8
A-CAJETIN-TXT
100
AcDbText
 10
714.0
 20
202.1
 30
0.0
 40
2.5
  1

  7
ARIAL
 11
714.0
 21
202.1
 31
0.0
100
AcDbAttribute
  2
UBIC_3
 70
0
 74
3
 71
1
 72
0
 11
714.0
 21
202.1
 31
0.0
  0
ATTRIB
  5
34B
330
204
100
AcDbEntity
 67
1
  8
A-CAJETIN-TXT
100
AcDbText
 10
714.0
 20
189.1
 30
0.0
 40
2.5
  1
FOLIO REAL: 4-041200-000
  7
ARIAL
 11
714.0
 21
189.1
 31
0.0
100
AcDbAttribute
  2
REG_1
 70
0
 74
3
 71
1
 72
0
 11
714.0
 21
189.1
 31
0.0
  0
ATTRIB
  5
34C
330
204
100
AcDbEntity
 67
1
  8
A-CAJETIN-TXT
100
AcDbText
 10
714.0
 20
184.6
 30
0.0
 40
2.5
  1
PLANO CATASTRADO: 4-57389-2023
  7
ARIAL
 11
714.0
 21
184.6
 31
0.0
100
AcDbAttribute
  2
REG_2
 70
0
 74
3
 71
1
 72
0
 11
714.0
 21
184.6
 31
0.0
  0
ATTRIB
  5
34D
330
204
100
AcDbEntity
 67
1
  8
A-CAJETIN-TXT
100
AcDbText
 10
714.0
 20
180.1
 30
0.0
 40
2.5
  1
ÁREA SEGÚN CATASTRO: 256 m²
  7
ARIAL
 11
714.0
 21
180.1
 31
0.0
100
AcDbAttribute
  2
REG_3
 70
0
 74
3
 71
1
 72
0
 11
714.0
 21
180.1
 31
0.0
  0
ATTRIB
  5
34E
330
204
100
AcDbEntity
 67
1
  8
A-CAJETIN-TXT
100
AcDbText
 10
714.0
 20
167.1
 30
0.0
 40
5.0
  1
LOTE DE TERRENO
  7
ARIAL
 11
714.0
 21
167.1
 31
0.0
100
AcDbAttribute
  2
CONT_TIT
 70
0
 74
3
 71
1
 72
0
 11
714.0
 21
167.1
 31
0.0
  0
ATTRIB
  5
34F
330
204
100
AcDbEntity
 67
1
  8
A-CAJETIN-TXT
100
AcDbText
 10
714.0
 20
159.6
 30
0.0
 40
3.0
  1
UBICACIÓN GEOGRÁFICA.
  7
ARIAL
 11
714.0
 21
159.6
 31
0.0
100
AcDbAttribute
  2
CONT_1
 70
0
 74
3
 71
1
 72
0
 11
714.0
 21
159.6
 31
0.0
  0
ATTRIB
  5
350
330
204
100
AcDbEntity
 67
1
  8
A-CAJETIN-TXT
100
AcDbText
 10
714.0
 20
154.1
 30
0.0
 40
3.0
  1
POLIGONAL.
  7
ARIAL
 11
714.0
 21
154.1
 31
0.0
100
AcDbAttribute
  2
CONT_2
 70
0
 74
3
 71
1
 72
0
 11
714.0
 21
154.1
 31
0.0
  0
ATTRIB
  5
351
330
204
100
AcDbEntity
 67
1
  8
A-CAJETIN-TXT
100
AcDbText
 10
714.0
 20
148.6
 30
0.0
 40
3.0
  1
RETIROS Y HUELLA.
  7
ARIAL
 11
714.0
 21
148.6
 31
0.0
100
AcDbAttribute
  2
CONT_3
 70
0
 74
3
 71
1
 72
0
 11
714.0
 21
148.6
 31
0.0
  0
ATTRIB
  5
352
330
204
100
AcDbEntity
 67
1
  8
A-CAJETIN-TXT
100
AcDbText
 10
714.0
 20
143.1
 30
0.0
 40
3.0
  1
DERROTERO Y CUADRO DE COORDENADAS.
  7
ARIAL
 11
714.0
 21
143.1
 31
0.0
100
AcDbAttribute
  2
CONT_4
 70
0
 74
3
 71
1
 72
0
 11
714.0
 21
143.1
 31
0.0
  0
ATTRIB
  5
353
330
204
100
AcDbEntity
 67
1
  8
A-CAJETIN-TXT
100
AcDbText
 10
714.0
 20
137.6
 30
0.0
 40
3.0
  1
CUADRO DE ÁREAS Y COBERTURA.
  7
ARIAL
 11
714.0
 21
137.6
 31
0.0
100
AcDbAttribute
  2
CONT_5
 70
0
 74
3
 71
1
 72
0
 11
714.0
 21
137.6
 31
0.0
  0
ATTRIB
  5
354
330
204
100
AcDbEntity
 67
1
  8
A-CAJETIN-TXT
100
AcDbText
 10
714.0
 20
132.1
 30
0.0
 40
3.0
  1
NOTAS.
  7
ARIAL
 11
714.0
 21
132.1
 31
0.0
100
AcDbAttribute
  2
CONT_6
 70
0
 74
3
 71
1
 72
0
 11
714.0
 21
132.1
 31
0.0
  0
ATTRIB
  5
355
330
204
100
AcDbEntity
 67
1
  8
A-CAJETIN-TXT
100
AcDbText
 10
736.0
 20
122.1
 30
0.0
 40
2.2
  1
INDICADAS
  7
ARIAL
 11
736.0
 21
122.1
 31
0.0
100
AcDbAttribute
  2
ESCALAS
 70
0
 74
3
 71
1
 72
0
 11
736.0
 21
122.1
 31
0.0
  0
ATTRIB
  5
356
330
204
100
AcDbEntity
 67
1
  8
A-CAJETIN-TXT
100
AcDbText
 10
717.0
 20
104.0
 30
0.0
 40
2.0
  1
1
  7
ARIAL
 72
1
 11
717.0
 21
104.0
 31
0.0
100
AcDbAttribute
  2
REV0_N
 70
0
 74
2
 71
1
 72
0
 11
717.0
 21
104.0
 31
0.0
  0
ATTRIB
  5
357
330
204
100
AcDbEntity
 67
1
  8
A-CAJETIN-TXT
100
AcDbText
 10
734.0
 20
104.0
 30
0.0
 40
2.0
  1
06-10-2026
  7
ARIAL
 72
1
 11
734.0
 21
104.0
 31
0.0
100
AcDbAttribute
  2
REV0_F
 70
0
 74
2
 71
1
 72
0
 11
734.0
 21
104.0
 31
0.0
  0
ATTRIB
  5
358
330
204
100
AcDbEntity
 67
1
  8
A-CAJETIN-TXT
100
AcDbText
 10
746.5
 20
104.0
 30
0.0
 40
2.0
  1
NOTA 2 TAPIA; PATIOS ACEPTADOS (NOTA 12)
  7
ARIAL
 11
746.5
 21
104.0
 31
0.0
100
AcDbAttribute
  2
REV0_D
 70
0
 74
2
 71
1
 72
0
 11
746.5
 21
104.0
 31
0.0
  0
ATTRIB
  5
359
330
204
100
AcDbEntity
 67
1
  8
A-CAJETIN-TXT
100
AcDbText
 10
717.0
 20
98.8
 30
0.0
 40
2.0
  1
2
  7
ARIAL
 72
1
 11
717.0
 21
98.8
 31
0.0
100
AcDbAttribute
  2
REV1_N
 70
0
 74
2
 71
1
 72
0
 11
717.0
 21
98.8
 31
0.0
  0
ATTRIB
  5
35A
330
204
100
AcDbEntity
 67
1
  8
A-CAJETIN-TXT
100
AcDbText
 10
734.0
 20
98.8
 30
0.0
 40
2.0
  1
07-10-2026
  7
ARIAL
 72
1
 11
734.0
 21
98.8
 31
0.0
100
AcDbAttribute
  2
REV1_F
 70
0
 74
2
 71
1
 72
0
 11
734.0
 21
98.8
 31
0.0
  0
ATTRIB
  5
35B
330
204
100
AcDbEntity
 67
1
  8
A-CAJETIN-TXT
100
AcDbText
 10
746.5
 20
98.8
 30
0.0
 40
2.0
  1
REFERENCIA AL TANQUE SÉPTICO (S02)
  7
ARIAL
 11
746.5
 21
98.8
 31
0.0
100
AcDbAttribute
  2
REV1_D
 70
0
 74
2
 71
1
 72
0
 11
746.5
 21
98.8
 31
0.0
  0
ATTRIB
  5
35C
330
204
100
AcDbEntity
 67
1
  8
A-CAJETIN-TXT
100
AcDbText
 10
717.0
 20
93.6
 30
0.0
 40
2.0
  1
3
  7
ARIAL
 72
1
 11
717.0
 21
93.6
 31
0.0
100
AcDbAttribute
  2
REV2_N
 70
0
 74
2
 71
1
 72
0
 11
717.0
 21
93.6
 31
0.0
  0
ATTRIB
  5
35D
330
204
100
AcDbEntity
 67
1
  8
A-CAJETIN-TXT
100
AcDbText
 10
734.0
 20
93.6
 30
0.0
 40
2.0
  1
07-10-2026
  7
ARIAL
 72
1
 11
734.0
 21
93.6
 31
0.0
100
AcDbAttribute
  2
REV2_F
 70
0
 74
2
 71
1
 72
0
 11
734.0
 21
93.6
 31
0.0
  0
ATTRIB
  5
35E
330
204
100
AcDbEntity
 67
1
  8
A-CAJETIN-TXT
100
AcDbText
 10
746.5
 20
93.6
 30
0.0
 40
2.0
  1
LISTA DEFINITIVA (22); PARA TRÁMITE
  7
ARIAL
 11
746.5
 21
93.6
 31
0.0
100
AcDbAttribute
  2
REV2_D
 70
0
 74
2
 71
1
 72
0
 11
746.5
 21
93.6
 31
0.0
  0
ATTRIB
  5
35F
330
204
100
AcDbEntity
 67
1
  8
A-CAJETIN-TXT
100
AcDbText
 10
771.0
 20
82.99999999999999
 30
0.0
 40
3.0
  1
PARA TRÁMITE
  7
ARIAL
 72
1
 11
771.0
 21
82.99999999999999
 31
0.0
100
AcDbAttribute
  2
ESTADO_1
 70
0
 74
3
 71
1
 72
0
 11
771.0
 21
82.99999999999999
 31
0.0
  0
ATTRIB
  5
360
330
204
100
AcDbEntity
 67
1
  8
A-CAJETIN-TXT
100
AcDbText
 10
771.0
 20
77.99999999999999
 30
0.0
 40
2.4
  1
CFIA Y MUNICIPALIDAD
  7
ARIAL
 72
1
 11
771.0
 21
77.99999999999999
 31
0.0
100
AcDbAttribute
  2
ESTADO_2
 70
0
 74
3
 71
1
 72
0
 11
771.0
 21
77.99999999999999
 31
0.0
  0
ATTRIB
  5
361
330
204
100
AcDbEntity
 67
1
  8
A-CAJETIN-TXT
100
AcDbText
 10
744.0
 20
49.999999999999986
 30
0.0
 40
5.0
  1
COSTA RICA
  7
ARIAL
 72
1
 11
744.0
 21
49.999999999999986
 31
0.0
100
AcDbAttribute
  2
LUGAR
 70
0
 74
2
 71
1
 72
0
 11
744.0
 21
49.999999999999986
 31
0.0
  0
ATTRIB
  5
362
330
204
100
AcDbEntity
 67
1
  8
A-CAJETIN-TXT
100
AcDbText
 10
804.0
 20
49.999999999999986
 30
0.0
 40
14.0
  1
A1
  7
ARIAL
 72
1
 11
804.0
 21
49.999999999999986
 31
0.0
100
AcDbAttribute
  2
LAMINA
 70
0
 74
2
 71
1
 72
0
 11
804.0
 21
49.999999999999986
 31
0.0
  0
ATTRIB
  5
363
330
204
100
AcDbEntity
 67
1
  8
A-CAJETIN-TXT
100
AcDbText
 10
744.0
 20
23.499999999999993
 30
0.0
 40
6.0
  1
OCT 2026
  7
ARIAL
 72
1
 11
744.0
 21
23.499999999999993
 31
0.0
100
AcDbAttribute
  2
FECHA
 70
0
 74
2
 71
1
 72
0
 11
744.0
 21
23.499999999999993
 31
0.0
  0
ATTRIB
  5
364
330
204
100
AcDbEntity
 67
1
  8
A-CAJETIN-TXT
100
AcDbText
 10
815.0
 20
23.499999999999993
 30
0.0
 40
9.0
  1
22
  7
ARIAL
 72
1
 11
815.0
 21
23.499999999999993
 31
0.0
100
AcDbAttribute
  2
TOTAL
 70
0
 74
2
 71
1
 72
0
 11
815.0
 21
23.499999999999993
 31
0.0
  0
SEQEND
  5
341
330
340
100
AcDbEntity
 67
1
  8
A-CAJETIN
  0
ENDSEC
  0
SECTION
  2
OBJECTS
  0
DICTIONARY
  5
A
330
0
100
AcDbDictionary
281
1
  3
ACAD_COLOR
350
B
  3
ACAD_GROUP
350
C
  3
ACAD_LAYOUT
350
D
  3
ACAD_MATERIAL
350
E
  3
ACAD_MLEADERSTYLE
350
F
  3
ACAD_MLINESTYLE
350
10
  3
ACAD_PLOTSETTINGS
350
11
  3
ACAD_PLOTSTYLENAME
350
12
  3
ACAD_SCALELIST
350
14
  3
ACAD_TABLESTYLE
350
15
  3
ACAD_VISUALSTYLE
350
16
  3
EZDXF_META
350
2D
  3
ACAD_IMAGE_VARS
350
20C
  3
ACAD_IMAGE_DICT
350
20D
  0
DICTIONARY
  5
B
330
A
100
AcDbDictionary
281
1
  0
DICTIONARY
  5
C
330
A
100
AcDbDictionary
281
1
  0
DICTIONARY
  5
D
330
A
100
AcDbDictionary
281
1
  3
Model
350
1A
  3
Layout1
350
1E
  3
A1-LOTE
350
207
  0
DICTIONARY
  5
E
330
A
100
AcDbDictionary
281
1
  3
ByBlock
350
1F
  3
ByLayer
350
20
  3
Global
350
21
  0
DICTIONARY
  5
F
330
A
100
AcDbDictionary
281
1
  3
Standard
350
2C
  0
DICTIONARY
  5
10
330
A
100
AcDbDictionary
281
1
  3
Standard
350
22
  0
DICTIONARY
  5
11
330
A
100
AcDbDictionary
281
1
  0
ACDBDICTIONARYWDFLT
  5
12
330
A
100
AcDbDictionary
281
1
  3
Normal
350
13
100
AcDbDictionaryWithDefault
340
13
  0
ACDBPLACEHOLDER
  5
13
330
12
  0
DICTIONARY
  5
14
330
A
100
AcDbDictionary
281
1
  0
DICTIONARY
  5
15
330
A
100
AcDbDictionary
281
1
  0
DICTIONARY
  5
16
330
A
100
AcDbDictionary
281
1
  3
2dWireframe
350
5A
  3
Basic
350
5B
  3
Brighten
350
5C
  3
ColorChange
350
5D
  3
Conceptual
350
5E
  3
Dim
350
5F
  3
EdgeColorOff
350
60
  3
Facepattern
350
61
  3
Flat
350
62
  3
FlatWithEdges
350
63
  3
Gouraud
350
64
  3
GouraudWithEdges
350
65
  3
Hidden
350
66
  3
JitterOff
350
67
  3
Linepattern
350
68
  3
Modeling
350
69
  3
OverhangOff
350
6A
  3
Realistic
350
6B
  3
Shaded
350
6C
  3
Shaded with edges
350
6D
  3
Shades of Gray
350
6E
  3
Sketchy
350
6F
  3
Thicken
350
70
  3
Wireframe
350
71
  3
X-Ray
350
72
  0
LAYOUT
  5
1A
330
D
100
AcDbPlotSettings
  1

  4
A3
  6

 40
7.5
 41
20.0
 42
7.5
 43
20.0
 44
420.0
 45
297.0
 46
0.0
 47
0.0
 48
0.0
 49
0.0
140
0.0
141
0.0
142
1.0
143
1.0
 70
1024
 72
1
 73
0
 74
5
  7

 75
16
 76
0
 77
2
 78
300
147
1.0
148
0.0
149
0.0
100
AcDbLayout
  1
Model
 70
1
 71
0
 10
0.0
 20
0.0
 11
420.0
 21
297.0
 12
0.0
 22
0.0
 32
0.0
 14
1e+20
 24
1e+20
 34
1e+20
 15
-1e+20
 25
-1e+20
 35
-1e+20
146
0.0
 13
0.0
 23
0.0
 33
0.0
 16
1.0
 26
0.0
 36
0.0
 17
0.0
 27
1.0
 37
0.0
 76
1
330
17
  0
LAYOUT
  5
1E
330
D
100
AcDbPlotSettings
  1

  4
A3
  6

 40
7.5
 41
20.0
 42
7.5
 43
20.0
 44
420.0
 45
297.0
 46
0.0
 47
0.0
 48
0.0
 49
0.0
140
0.0
141
0.0
142
1.0
143
1.0
 70
0
 72
1
 73
0
 74
5
  7

 75
16
 76
0
 77
2
 78
300
147
1.0
148
0.0
149
0.0
100
AcDbLayout
  1
Layout1
 70
1
 71
1
 10
0.0
 20
0.0
 11
420.0
 21
297.0
 12
0.0
 22
0.0
 32
0.0
 14
1e+20
 24
1e+20
 34
1e+20
 15
-1e+20
 25
-1e+20
 35
-1e+20
146
0.0
 13
0.0
 23
0.0
 33
0.0
 16
1.0
 26
0.0
 36
0.0
 17
0.0
 27
1.0
 37
0.0
 76
1
330
1B
  0
MATERIAL
  5
1F
102
{ACAD_REACTORS
330
E
102
}
330
E
100
AcDbMaterial
  1
ByBlock
  2

 70
0
 40
1.0
 71
1
 41
1.0
 91
-1023410177
 42
1.0
 72
1
  3

 73
1
 74
1
 75
1
 44
0.5
 73
0
 45
1.0
 46
1.0
 77
1
  4

 78
1
 79
1
170
1
 48
1.0
171
1
  6

172
1
173
1
174
1
140
1.0
141
1.0
175
1
  7

176
1
177
1
178
1
143
1.0
179
1
  8

270
1
271
1
272
1
145
1.0
146
1.0
273
1
  9

274
1
275
1
276
1
 42
1.0
 72
1
  3

 73
1
 74
1
 75
1
 94
63
  0
MATERIAL
  5
20
102
{ACAD_REACTORS
330
E
102
}
330
E
100
AcDbMaterial
  1
ByLayer
  2

 70
0
 40
1.0
 71
1
 41
1.0
 91
-1023410177
 42
1.0
 72
1
  3

 73
1
 74
1
 75
1
 44
0.5
 73
0
 45
1.0
 46
1.0
 77
1
  4

 78
1
 79
1
170
1
 48
1.0
171
1
  6

172
1
173
1
174
1
140
1.0
141
1.0
175
1
  7

176
1
177
1
178
1
143
1.0
179
1
  8

270
1
271
1
272
1
145
1.0
146
1.0
273
1
  9

274
1
275
1
276
1
 42
1.0
 72
1
  3

 73
1
 74
1
 75
1
 94
63
  0
MATERIAL
  5
21
102
{ACAD_REACTORS
330
E
102
}
330
E
100
AcDbMaterial
  1
Global
  2

 70
0
 40
1.0
 71
1
 41
1.0
 91
-1023410177
 42
1.0
 72
1
  3

 73
1
 74
1
 75
1
 44
0.5
 73
0
 45
1.0
 46
1.0
 77
1
  4

 78
1
 79
1
170
1
 48
1.0
171
1
  6

172
1
173
1
174
1
140
1.0
141
1.0
175
1
  7

176
1
177
1
178
1
143
1.0
179
1
  8

270
1
271
1
272
1
145
1.0
146
1.0
273
1
  9

274
1
275
1
276
1
 42
1.0
 72
1
  3

 73
1
 74
1
 75
1
 94
63
  0
MLINESTYLE
  5
22
102
{ACAD_REACTORS
330
10
102
}
330
10
100
AcDbMlineStyle
  2
Standard
 70
0
  3

 62
256
 51
90.0
 52
90.0
 71
2
 49
0.5
 62
256
  6
BYLAYER
 49
-0.5
 62
256
  6
BYLAYER
  0
MLEADERSTYLE
  5
2C
102
{ACAD_REACTORS
330
F
102
}
330
F
100
AcDbMLeaderStyle
179
2
170
2
171
1
172
0
 90
2
 40
0.0
 41
0.0
173
1
 91
-1056964608
 92
-2
290
1
 42
2.0
291
1
 43
8.0
  3
Standard
 44
4.0
300

342
29
174
1
175
1
176
0
178
1
 93
-1056964608
 45
4.0
292
0
297
0
 46
4.0
 94
-1056964608
 47
1.0
 49
1.0
140
1.0
294
1
141
0.0
177
0
142
1.0
295
0
296
0
143
3.75
271
0
272
9
273
9
  0
DICTIONARY
  5
2D
330
A
100
AcDbDictionary
280
1
281
1
  3
CREATED_BY_EZDXF
350
2E
  3
WRITTEN_BY_EZDXF
350
367
  0
DICTIONARYVAR
  5
2E
330
2D
100
DictionaryVariables
280
0
  1
1.4.4 @ 2026-10-07T02:17:54.423765+00:00
  0
VISUALSTYLE
  5
5A
102
{ACAD_REACTORS
330
16
102
}
330
16
100
AcDbVisualStyle
  2
2dWireframe
 70
4
177
3
291
0
 70
58
 90
2
176
1
 90
2
176
1
 90
0
176
1
 90
0
176
1
 40
0.6
176
1
 40
30.0
176
1
 62
7
420
16777215
176
1
 90
1
176
1
 90
4
176
1
 62
7
176
1
 62
257
176
1
 90
1
176
1
 90
1
176
1
 40
1.0
176
1
 90
8
176
1
 62
7
176
1
 40
1.0
176
1
 90
1
176
1
 90
6
176
1
 90
2
176
1
 62
7
176
1
 90
5
176
1
 90
0
176
1
 90
0
176
1
290
0
176
1
 90
1
176
1
 40
0.0
176
1
 90
0
176
1
290
1
176
1
290
1
176
1
290
0
176
1
290
0
176
1
290
0
176
1
290
0
176
1
290
0
176
1
290
0
176
1
290
0
176
1
 90
50
176
1
 40
0.0
176
1
 40
1.0
176
1
 90
0
176
1
 62
18
420
0
176
1
 90
50
176
1
 90
3
176
1
 62
5
420
255
176
1
290
0
176
1
 90
50
176
1
 90
50
176
1
 90
50
176
1
290
0
176
1
 90
50
176
1
 62
256
176
0
 40
1.0
176
0
 90
2
176
1
  1
strokes_ogs.tif
176
1
290
0
176
1
 40
1.0
176
1
 40
1.0
176
1
  0
VISUALSTYLE
  5
5B
102
{ACAD_REACTORS
330
16
102
}
330
16
100
AcDbVisualStyle
  2
Basic
 70
7
177
3
291
1
 70
58
 90
2
176
1
 90
2
176
1
 90
0
176
1
 90
1
176
1
 40
0.6
176
1
 40
30.0
176
1
 62
7
420
16777215
176
1
 90
1
176
1
 90
4
176
1
 62
7
176
1
 62
257
176
1
 90
1
176
1
 90
1
176
1
 40
1.0
176
1
 90
8
176
1
 62
7
176
1
 40
1.0
176
1
 90
1
176
1
 90
6
176
1
 90
2
176
1
 62
7
176
1
 90
5
176
1
 90
0
176
1
 90
0
176
1
290
0
176
1
 90
1
176
1
 40
0.0
176
1
 90
0
176
1
290
0
176
1
290
1
176
1
290
1
176
1
290
0
176
1
290
0
176
1
290
0
176
1
290
0
176
1
290
0
176
1
290
0
176
1
 90
50
176
1
 40
0.0
176
1
 40
1.0
176
1
 90
0
176
1
 62
18
420
0
176
1
 90
50
176
1
 90
3
176
1
 62
5
420
255
176
1
290
0
176
1
 90
50
176
1
 90
50
176
1
 90
50
176
1
290
0
176
1
 90
50
176
1
 62
256
176
0
 40
1.0
176
0
 90
2
176
1
  1
strokes_ogs.tif
176
1
290
0
176
1
 40
1.0
176
1
 40
1.0
176
1
  0
VISUALSTYLE
  5
5C
102
{ACAD_REACTORS
330
16
102
}
330
16
100
AcDbVisualStyle
  2
Brighten
 70
12
177
3
291
1
 70
58
 90
2
176
1
 90
2
176
1
 90
0
176
1
 90
2
176
1
 40
0.6
176
1
 40
30.0
176
1
 62
7
420
16777215
176
1
 90
1
176
1
 90
4
176
1
 62
7
176
1
 62
257
176
1
 90
1
176
1
 90
1
176
1
 40
1.0
176
1
 90
8
176
1
 62
7
176
1
 40
1.0
176
1
 90
1
176
1
 90
6
176
1
 90
2
176
1
 62
7
176
1
 90
5
176
1
 90
0
176
1
 90
0
176
1
290
0
176
1
 90
1
176
1
 40
0.0
176
1
 90
0
176
1
290
0
176
1
290
1
176
1
290
1
176
1
290
0
176
1
290
0
176
1
290
0
176
1
290
0
176
1
290
0
176
1
290
0
176
1
 90
50
176
1
 40
0.0
176
1
 40
1.0
176
1
 90
0
176
1
 62
18
420
0
176
1
 90
50
176
1
 90
3
176
1
 62
5
420
255
176
1
290
0
176
1
 90
50
176
1
 90
50
176
1
 90
50
176
1
290
0
176
1
 90
50
176
1
 62
256
176
0
 40
1.0
176
0
 90
2
176
1
  1
strokes_ogs.tif
176
1
290
0
176
1
 40
1.0
176
1
 40
1.0
176
1
  0
VISUALSTYLE
  5
5D
102
{ACAD_REACTORS
330
16
102
}
330
16
100
AcDbVisualStyle
  2
ColorChange
 70
16
177
3
291
1
 70
58
 90
2
176
1
 90
2
176
1
 90
0
176
1
 90
2
176
1
 40
0.6
176
1
 40
30.0
176
1
 62
7
420
16777215
176
1
 90
1
176
1
 90
4
176
1
 62
7
176
1
 62
257
176
1
 90
1
176
1
 90
1
176
1
 40
1.0
176
1
 90
8
176
1
 62
7
176
1
 40
1.0
176
1
 90
1
176
1
 90
6
176
1
 90
2
176
1
 62
7
176
1
 90
5
176
1
 90
0
176
1
 90
0
176
1
290
0
176
1
 90
1
176
1
 40
0.0
176
1
 90
0
176
1
290
0
176
1
290
1
176
1
290
1
176
1
290
0
176
1
290
0
176
1
290
0
176
1
290
0
176
1
290
0
176
1
290
0
176
1
 90
50
176
1
 40
0.0
176
1
 40
1.0
176
1
 90
0
176
1
 62
18
420
0
176
1
 90
50
176
1
 90
3
176
1
 62
5
420
255
176
1
290
0
176
1
 90
50
176
1
 90
50
176
1
 90
50
176
1
290
0
176
1
 90
50
176
1
 62
256
176
0
 40
1.0
176
0
 90
2
176
1
  1
strokes_ogs.tif
176
1
290
0
176
1
 40
1.0
176
1
 40
1.0
176
1
  0
VISUALSTYLE
  5
5E
102
{ACAD_REACTORS
330
16
102
}
330
16
100
AcDbVisualStyle
  2
Conceptual
 70
9
177
3
291
0
 70
58
 90
2
176
1
 90
2
176
1
 90
0
176
1
 90
3
176
1
 40
0.6
176
1
 40
30.0
176
1
 62
7
420
16777215
176
1
 90
1
176
1
 90
4
176
1
 62
7
176
1
 62
257
176
1
 90
1
176
1
 90
1
176
1
 40
1.0
176
1
 90
8
176
1
 62
7
176
1
 40
1.0
176
1
 90
1
176
1
 90
6
176
1
 90
2
176
1
 62
7
176
1
 90
5
176
1
 90
0
176
1
 90
0
176
1
290
0
176
1
 90
1
176
1
 40
0.0
176
1
 90
0
176
1
290
0
176
1
290
1
176
1
290
1
176
1
290
0
176
1
290
0
176
1
290
0
176
1
290
0
176
1
290
0
176
1
290
0
176
1
 90
50
176
1
 40
0.0
176
1
 40
1.0
176
1
 90
0
176
1
 62
18
420
0
176
1
 90
50
176
1
 90
3
176
1
 62
5
420
255
176
1
290
0
176
1
 90
50
176
1
 90
50
176
1
 90
50
176
1
290
0
176
1
 90
50
176
1
 62
256
176
0
 40
1.0
176
0
 90
2
176
1
  1
strokes_ogs.tif
176
1
290
0
176
1
 40
1.0
176
1
 40
1.0
176
1
  0
VISUALSTYLE
  5
5F
102
{ACAD_REACTORS
330
16
102
}
330
16
100
AcDbVisualStyle
  2
Dim
 70
11
177
3
291
1
 70
58
 90
2
176
1
 90
2
176
1
 90
0
176
1
 90
2
176
1
 40
0.6
176
1
 40
30.0
176
1
 62
7
420
16777215
176
1
 90
1
176
1
 90
4
176
1
 62
7
176
1
 62
257
176
1
 90
1
176
1
 90
1
176
1
 40
1.0
176
1
 90
8
176
1
 62
7
176
1
 40
1.0
176
1
 90
1
176
1
 90
6
176
1
 90
2
176
1
 62
7
176
1
 90
5
176
1
 90
0
176
1
 90
0
176
1
290
0
176
1
 90
1
176
1
 40
0.0
176
1
 90
0
176
1
290
0
176
1
290
1
176
1
290
1
176
1
290
0
176
1
290
0
176
1
290
0
176
1
290
0
176
1
290
0
176
1
290
0
176
1
 90
50
176
1
 40
0.0
176
1
 40
1.0
176
1
 90
0
176
1
 62
18
420
0
176
1
 90
50
176
1
 90
3
176
1
 62
5
420
255
176
1
290
0
176
1
 90
50
176
1
 90
50
176
1
 90
50
176
1
290
0
176
1
 90
50
176
1
 62
256
176
0
 40
1.0
176
0
 90
2
176
1
  1
strokes_ogs.tif
176
1
290
0
176
1
 40
1.0
176
1
 40
1.0
176
1
  0
VISUALSTYLE
  5
60
102
{ACAD_REACTORS
330
16
102
}
330
16
100
AcDbVisualStyle
  2
EdgeColorOff
 70
22
177
3
291
1
 70
58
 90
2
176
1
 90
2
176
1
 90
0
176
1
 90
2
176
1
 40
0.6
176
1
 40
30.0
176
1
 62
7
420
16777215
176
1
 90
1
176
1
 90
4
176
1
 62
7
176
1
 62
257
176
1
 90
1
176
1
 90
1
176
1
 40
1.0
176
1
 90
8
176
1
 62
7
176
1
 40
1.0
176
1
 90
1
176
1
 90
6
176
1
 90
2
176
1
 62
7
176
1
 90
5
176
1
 90
0
176
1
 90
0
176
1
290
0
176
1
 90
1
176
1
 40
0.0
176
1
 90
0
176
1
290
0
176
1
290
1
176
1
290
1
176
1
290
0
176
1
290
0
176
1
290
0
176
1
290
0
176
1
290
0
176
1
290
0
176
1
 90
50
176
1
 40
0.0
176
1
 40
1.0
176
1
 90
0
176
1
 62
18
420
0
176
1
 90
50
176
1
 90
3
176
1
 62
5
420
255
176
1
290
0
176
1
 90
50
176
1
 90
50
176
1
 90
50
176
1
290
0
176
1
 90
50
176
1
 62
256
176
0
 40
1.0
176
0
 90
2
176
1
  1
strokes_ogs.tif
176
1
290
0
176
1
 40
1.0
176
1
 40
1.0
176
1
  0
VISUALSTYLE
  5
61
102
{ACAD_REACTORS
330
16
102
}
330
16
100
AcDbVisualStyle
  2
Facepattern
 70
15
177
3
291
1
 70
58
 90
2
176
1
 90
2
176
1
 90
0
176
1
 90
2
176
1
 40
0.6
176
1
 40
30.0
176
1
 62
7
420
16777215
176
1
 90
1
176
1
 90
4
176
1
 62
7
176
1
 62
257
176
1
 90
1
176
1
 90
1
176
1
 40
1.0
176
1
 90
8
176
1
 62
7
176
1
 40
1.0
176
1
 90
1
176
1
 90
6
176
1
 90
2
176
1
 62
7
176
1
 90
5
176
1
 90
0
176
1
 90
0
176
1
290
0
176
1
 90
1
176
1
 40
0.0
176
1
 90
0
176
1
290
0
176
1
290
1
176
1
290
1
176
1
290
0
176
1
290
0
176
1
290
0
176
1
290
0
176
1
290
0
176
1
290
0
176
1
 90
50
176
1
 40
0.0
176
1
 40
1.0
176
1
 90
0
176
1
 62
18
420
0
176
1
 90
50
176
1
 90
3
176
1
 62
5
420
255
176
1
290
0
176
1
 90
50
176
1
 90
50
176
1
 90
50
176
1
290
0
176
1
 90
50
176
1
 62
256
176
0
 40
1.0
176
0
 90
2
176
1
  1
strokes_ogs.tif
176
1
290
0
176
1
 40
1.0
176
1
 40
1.0
176
1
  0
VISUALSTYLE
  5
62
102
{ACAD_REACTORS
330
16
102
}
330
16
100
AcDbVisualStyle
  2
Flat
 70
0
177
3
291
1
 70
58
 90
2
176
1
 90
2
176
1
 90
0
176
1
 90
2
176
1
 40
0.6
176
1
 40
30.0
176
1
 62
7
420
16777215
176
1
 90
1
176
1
 90
4
176
1
 62
7
176
1
 62
257
176
1
 90
1
176
1
 90
1
176
1
 40
1.0
176
1
 90
8
176
1
 62
7
176
1
 40
1.0
176
1
 90
1
176
1
 90
6
176
1
 90
2
176
1
 62
7
176
1
 90
5
176
1
 90
0
176
1
 90
0
176
1
290
0
176
1
 90
1
176
1
 40
0.0
176
1
 90
0
176
1
290
0
176
1
290
1
176
1
290
1
176
1
290
0
176
1
290
0
176
1
290
0
176
1
290
0
176
1
290
0
176
1
290
0
176
1
 90
50
176
1
 40
0.0
176
1
 40
1.0
176
1
 90
0
176
1
 62
18
420
0
176
1
 90
50
176
1
 90
3
176
1
 62
5
420
255
176
1
290
0
176
1
 90
50
176
1
 90
50
176
1
 90
50
176
1
290
0
176
1
 90
50
176
1
 62
256
176
0
 40
1.0
176
0
 90
2
176
1
  1
strokes_ogs.tif
176
1
290
0
176
1
 40
1.0
176
1
 40
1.0
176
1
  0
VISUALSTYLE
  5
63
102
{ACAD_REACTORS
330
16
102
}
330
16
100
AcDbVisualStyle
  2
FlatWithEdges
 70
1
177
3
291
1
 70
58
 90
2
176
1
 90
2
176
1
 90
0
176
1
 90
2
176
1
 40
0.6
176
1
 40
30.0
176
1
 62
7
420
16777215
176
1
 90
1
176
1
 90
4
176
1
 62
7
176
1
 62
257
176
1
 90
1
176
1
 90
1
176
1
 40
1.0
176
1
 90
8
176
1
 62
7
176
1
 40
1.0
176
1
 90
1
176
1
 90
6
176
1
 90
2
176
1
 62
7
176
1
 90
5
176
1
 90
0
176
1
 90
0
176
1
290
0
176
1
 90
1
176
1
 40
0.0
176
1
 90
0
176
1
290
0
176
1
290
1
176
1
290
1
176
1
290
0
176
1
290
0
176
1
290
0
176
1
290
0
176
1
290
0
176
1
290
0
176
1
 90
50
176
1
 40
0.0
176
1
 40
1.0
176
1
 90
0
176
1
 62
18
420
0
176
1
 90
50
176
1
 90
3
176
1
 62
5
420
255
176
1
290
0
176
1
 90
50
176
1
 90
50
176
1
 90
50
176
1
290
0
176
1
 90
50
176
1
 62
256
176
0
 40
1.0
176
0
 90
2
176
1
  1
strokes_ogs.tif
176
1
290
0
176
1
 40
1.0
176
1
 40
1.0
176
1
  0
VISUALSTYLE
  5
64
102
{ACAD_REACTORS
330
16
102
}
330
16
100
AcDbVisualStyle
  2
Gouraud
 70
2
177
3
291
1
 70
58
 90
2
176
1
 90
2
176
1
 90
0
176
1
 90
2
176
1
 40
0.6
176
1
 40
30.0
176
1
 62
7
420
16777215
176
1
 90
1
176
1
 90
4
176
1
 62
7
176
1
 62
257
176
1
 90
1
176
1
 90
1
176
1
 40
1.0
176
1
 90
8
176
1
 62
7
176
1
 40
1.0
176
1
 90
1
176
1
 90
6
176
1
 90
2
176
1
 62
7
176
1
 90
5
176
1
 90
0
176
1
 90
0
176
1
290
0
176
1
 90
1
176
1
 40
0.0
176
1
 90
0
176
1
290
0
176
1
290
1
176
1
290
1
176
1
290
0
176
1
290
0
176
1
290
0
176
1
290
0
176
1
290
0
176
1
290
0
176
1
 90
50
176
1
 40
0.0
176
1
 40
1.0
176
1
 90
0
176
1
 62
18
420
0
176
1
 90
50
176
1
 90
3
176
1
 62
5
420
255
176
1
290
0
176
1
 90
50
176
1
 90
50
176
1
 90
50
176
1
290
0
176
1
 90
50
176
1
 62
256
176
0
 40
1.0
176
0
 90
2
176
1
  1
strokes_ogs.tif
176
1
290
0
176
1
 40
1.0
176
1
 40
1.0
176
1
  0
VISUALSTYLE
  5
65
102
{ACAD_REACTORS
330
16
102
}
330
16
100
AcDbVisualStyle
  2
GouraudWithEdges
 70
3
177
3
291
1
 70
58
 90
2
176
1
 90
2
176
1
 90
0
176
1
 90
2
176
1
 40
0.6
176
1
 40
30.0
176
1
 62
7
420
16777215
176
1
 90
1
176
1
 90
4
176
1
 62
7
176
1
 62
257
176
1
 90
1
176
1
 90
1
176
1
 40
1.0
176
1
 90
8
176
1
 62
7
176
1
 40
1.0
176
1
 90
1
176
1
 90
6
176
1
 90
2
176
1
 62
7
176
1
 90
5
176
1
 90
0
176
1
 90
0
176
1
290
0
176
1
 90
1
176
1
 40
0.0
176
1
 90
0
176
1
290
0
176
1
290
1
176
1
290
1
176
1
290
0
176
1
290
0
176
1
290
0
176
1
290
0
176
1
290
0
176
1
290
0
176
1
 90
50
176
1
 40
0.0
176
1
 40
1.0
176
1
 90
0
176
1
 62
18
420
0
176
1
 90
50
176
1
 90
3
176
1
 62
5
420
255
176
1
290
0
176
1
 90
50
176
1
 90
50
176
1
 90
50
176
1
290
0
176
1
 90
50
176
1
 62
256
176
0
 40
1.0
176
0
 90
2
176
1
  1
strokes_ogs.tif
176
1
290
0
176
1
 40
1.0
176
1
 40
1.0
176
1
  0
VISUALSTYLE
  5
66
102
{ACAD_REACTORS
330
16
102
}
330
16
100
AcDbVisualStyle
  2
Hidden
 70
6
177
3
291
0
 70
58
 90
2
176
1
 90
2
176
1
 90
0
176
1
 90
1
176
1
 40
0.6
176
1
 40
30.0
176
1
 62
7
420
16777215
176
1
 90
1
176
1
 90
4
176
1
 62
7
176
1
 62
257
176
1
 90
1
176
1
 90
1
176
1
 40
1.0
176
1
 90
8
176
1
 62
7
176
1
 40
1.0
176
1
 90
1
176
1
 90
6
176
1
 90
2
176
1
 62
7
176
1
 90
5
176
1
 90
0
176
1
 90
0
176
1
290
0
176
1
 90
1
176
1
 40
0.0
176
1
 90
0
176
1
290
0
176
1
290
1
176
1
290
1
176
1
290
0
176
1
290
0
176
1
290
0
176
1
290
0
176
1
290
0
176
1
290
0
176
1
 90
50
176
1
 40
0.0
176
1
 40
1.0
176
1
 90
0
176
1
 62
18
420
0
176
1
 90
50
176
1
 90
3
176
1
 62
5
420
255
176
1
290
0
176
1
 90
50
176
1
 90
50
176
1
 90
50
176
1
290
0
176
1
 90
50
176
1
 62
256
176
0
 40
1.0
176
0
 90
2
176
1
  1
strokes_ogs.tif
176
1
290
0
176
1
 40
1.0
176
1
 40
1.0
176
1
  0
VISUALSTYLE
  5
67
102
{ACAD_REACTORS
330
16
102
}
330
16
100
AcDbVisualStyle
  2
JitterOff
 70
20
177
3
291
1
 70
58
 90
2
176
1
 90
2
176
1
 90
0
176
1
 90
2
176
1
 40
0.6
176
1
 40
30.0
176
1
 62
7
420
16777215
176
1
 90
1
176
1
 90
4
176
1
 62
7
176
1
 62
257
176
1
 90
1
176
1
 90
1
176
1
 40
1.0
176
1
 90
8
176
1
 62
7
176
1
 40
1.0
176
1
 90
1
176
1
 90
6
176
1
 90
2
176
1
 62
7
176
1
 90
5
176
1
 90
0
176
1
 90
0
176
1
290
0
176
1
 90
1
176
1
 40
0.0
176
1
 90
0
176
1
290
0
176
1
290
1
176
1
290
1
176
1
290
0
176
1
290
0
176
1
290
0
176
1
290
0
176
1
290
0
176
1
290
0
176
1
 90
50
176
1
 40
0.0
176
1
 40
1.0
176
1
 90
0
176
1
 62
18
420
0
176
1
 90
50
176
1
 90
3
176
1
 62
5
420
255
176
1
290
0
176
1
 90
50
176
1
 90
50
176
1
 90
50
176
1
290
0
176
1
 90
50
176
1
 62
256
176
0
 40
1.0
176
0
 90
2
176
1
  1
strokes_ogs.tif
176
1
290
0
176
1
 40
1.0
176
1
 40
1.0
176
1
  0
VISUALSTYLE
  5
68
102
{ACAD_REACTORS
330
16
102
}
330
16
100
AcDbVisualStyle
  2
Linepattern
 70
14
177
3
291
1
 70
58
 90
2
176
1
 90
2
176
1
 90
0
176
1
 90
2
176
1
 40
0.6
176
1
 40
30.0
176
1
 62
7
420
16777215
176
1
 90
1
176
1
 90
4
176
1
 62
7
176
1
 62
257
176
1
 90
1
176
1
 90
1
176
1
 40
1.0
176
1
 90
8
176
1
 62
7
176
1
 40
1.0
176
1
 90
1
176
1
 90
6
176
1
 90
2
176
1
 62
7
176
1
 90
5
176
1
 90
0
176
1
 90
0
176
1
290
0
176
1
 90
1
176
1
 40
0.0
176
1
 90
0
176
1
290
0
176
1
290
1
176
1
290
1
176
1
290
0
176
1
290
0
176
1
290
0
176
1
290
0
176
1
290
0
176
1
290
0
176
1
 90
50
176
1
 40
0.0
176
1
 40
1.0
176
1
 90
0
176
1
 62
18
420
0
176
1
 90
50
176
1
 90
3
176
1
 62
5
420
255
176
1
290
0
176
1
 90
50
176
1
 90
50
176
1
 90
50
176
1
290
0
176
1
 90
50
176
1
 62
256
176
0
 40
1.0
176
0
 90
2
176
1
  1
strokes_ogs.tif
176
1
290
0
176
1
 40
1.0
176
1
 40
1.0
176
1
  0
VISUALSTYLE
  5
69
102
{ACAD_REACTORS
330
16
102
}
330
16
100
AcDbVisualStyle
  2
Modeling
 70
10
177
3
291
0
 70
58
 90
2
176
1
 90
2
176
1
 90
0
176
1
 90
2
176
1
 40
0.6
176
1
 40
30.0
176
1
 62
7
420
16777215
176
1
 90
1
176
1
 90
4
176
1
 62
7
176
1
 62
257
176
1
 90
1
176
1
 90
1
176
1
 40
1.0
176
1
 90
8
176
1
 62
7
176
1
 40
1.0
176
1
 90
1
176
1
 90
6
176
1
 90
2
176
1
 62
7
176
1
 90
5
176
1
 90
0
176
1
 90
0
176
1
290
0
176
1
 90
1
176
1
 40
0.0
176
1
 90
0
176
1
290
0
176
1
290
1
176
1
290
1
176
1
290
0
176
1
290
0
176
1
290
0
176
1
290
0
176
1
290
0
176
1
290
0
176
1
 90
50
176
1
 40
0.0
176
1
 40
1.0
176
1
 90
0
176
1
 62
18
420
0
176
1
 90
50
176
1
 90
3
176
1
 62
5
420
255
176
1
290
0
176
1
 90
50
176
1
 90
50
176
1
 90
50
176
1
290
0
176
1
 90
50
176
1
 62
256
176
0
 40
1.0
176
0
 90
2
176
1
  1
strokes_ogs.tif
176
1
290
0
176
1
 40
1.0
176
1
 40
1.0
176
1
  0
VISUALSTYLE
  5
6A
102
{ACAD_REACTORS
330
16
102
}
330
16
100
AcDbVisualStyle
  2
OverhangOff
 70
21
177
3
291
1
 70
58
 90
2
176
1
 90
2
176
1
 90
0
176
1
 90
2
176
1
 40
0.6
176
1
 40
30.0
176
1
 62
7
420
16777215
176
1
 90
1
176
1
 90
4
176
1
 62
7
176
1
 62
257
176
1
 90
1
176
1
 90
1
176
1
 40
1.0
176
1
 90
8
176
1
 62
7
176
1
 40
1.0
176
1
 90
1
176
1
 90
6
176
1
 90
2
176
1
 62
7
176
1
 90
5
176
1
 90
0
176
1
 90
0
176
1
290
0
176
1
 90
1
176
1
 40
0.0
176
1
 90
0
176
1
290
0
176
1
290
1
176
1
290
1
176
1
290
0
176
1
290
0
176
1
290
0
176
1
290
0
176
1
290
0
176
1
290
0
176
1
 90
50
176
1
 40
0.0
176
1
 40
1.0
176
1
 90
0
176
1
 62
18
420
0
176
1
 90
50
176
1
 90
3
176
1
 62
5
420
255
176
1
290
0
176
1
 90
50
176
1
 90
50
176
1
 90
50
176
1
290
0
176
1
 90
50
176
1
 62
256
176
0
 40
1.0
176
0
 90
2
176
1
  1
strokes_ogs.tif
176
1
290
0
176
1
 40
1.0
176
1
 40
1.0
176
1
  0
VISUALSTYLE
  5
6B
102
{ACAD_REACTORS
330
16
102
}
330
16
100
AcDbVisualStyle
  2
Realistic
 70
8
177
3
291
0
 70
58
 90
2
176
1
 90
2
176
1
 90
0
176
1
 90
2
176
1
 40
0.6
176
1
 40
30.0
176
1
 62
7
420
16777215
176
1
 90
1
176
1
 90
4
176
1
 62
7
176
1
 62
257
176
1
 90
1
176
1
 90
1
176
1
 40
1.0
176
1
 90
8
176
1
 62
7
176
1
 40
1.0
176
1
 90
1
176
1
 90
6
176
1
 90
2
176
1
 62
7
176
1
 90
5
176
1
 90
0
176
1
 90
0
176
1
290
0
176
1
 90
1
176
1
 40
0.0
176
1
 90
0
176
1
290
0
176
1
290
1
176
1
290
1
176
1
290
0
176
1
290
0
176
1
290
0
176
1
290
0
176
1
290
0
176
1
290
0
176
1
 90
50
176
1
 40
0.0
176
1
 40
1.0
176
1
 90
0
176
1
 62
18
420
0
176
1
 90
50
176
1
 90
3
176
1
 62
5
420
255
176
1
290
0
176
1
 90
50
176
1
 90
50
176
1
 90
50
176
1
290
0
176
1
 90
50
176
1
 62
256
176
0
 40
1.0
176
0
 90
2
176
1
  1
strokes_ogs.tif
176
1
290
0
176
1
 40
1.0
176
1
 40
1.0
176
1
  0
VISUALSTYLE
  5
6C
102
{ACAD_REACTORS
330
16
102
}
330
16
100
AcDbVisualStyle
  2
Shaded
 70
27
177
3
291
0
 70
58
 90
2
176
1
 90
2
176
1
 90
0
176
1
 90
2
176
1
 40
0.6
176
1
 40
30.0
176
1
 62
7
420
16777215
176
1
 90
1
176
1
 90
4
176
1
 62
7
176
1
 62
257
176
1
 90
1
176
1
 90
1
176
1
 40
1.0
176
1
 90
8
176
1
 62
7
176
1
 40
1.0
176
1
 90
1
176
1
 90
6
176
1
 90
2
176
1
 62
7
176
1
 90
5
176
1
 90
0
176
1
 90
0
176
1
290
0
176
1
 90
1
176
1
 40
0.0
176
1
 90
0
176
1
290
0
176
1
290
1
176
1
290
1
176
1
290
0
176
1
290
0
176
1
290
0
176
1
290
0
176
1
290
0
176
1
290
0
176
1
 90
50
176
1
 40
0.0
176
1
 40
1.0
176
1
 90
0
176
1
 62
18
420
0
176
1
 90
50
176
1
 90
3
176
1
 62
5
420
255
176
1
290
0
176
1
 90
50
176
1
 90
50
176
1
 90
50
176
1
290
0
176
1
 90
50
176
1
 62
256
176
0
 40
1.0
176
0
 90
2
176
1
  1
strokes_ogs.tif
176
1
290
0
176
1
 40
1.0
176
1
 40
1.0
176
1
  0
VISUALSTYLE
  5
6D
102
{ACAD_REACTORS
330
16
102
}
330
16
100
AcDbVisualStyle
  2
Shaded with edges
 70
26
177
3
291
0
 70
58
 90
2
176
1
 90
2
176
1
 90
0
176
1
 90
2
176
1
 40
0.6
176
1
 40
30.0
176
1
 62
7
420
16777215
176
1
 90
1
176
1
 90
4
176
1
 62
7
176
1
 62
257
176
1
 90
1
176
1
 90
1
176
1
 40
1.0
176
1
 90
8
176
1
 62
7
176
1
 40
1.0
176
1
 90
1
176
1
 90
6
176
1
 90
2
176
1
 62
7
176
1
 90
5
176
1
 90
0
176
1
 90
0
176
1
290
0
176
1
 90
1
176
1
 40
0.0
176
1
 90
0
176
1
290
0
176
1
290
1
176
1
290
1
176
1
290
0
176
1
290
0
176
1
290
0
176
1
290
0
176
1
290
0
176
1
290
0
176
1
 90
50
176
1
 40
0.0
176
1
 40
1.0
176
1
 90
0
176
1
 62
18
420
0
176
1
 90
50
176
1
 90
3
176
1
 62
5
420
255
176
1
290
0
176
1
 90
50
176
1
 90
50
176
1
 90
50
176
1
290
0
176
1
 90
50
176
1
 62
256
176
0
 40
1.0
176
0
 90
2
176
1
  1
strokes_ogs.tif
176
1
290
0
176
1
 40
1.0
176
1
 40
1.0
176
1
  0
VISUALSTYLE
  5
6E
102
{ACAD_REACTORS
330
16
102
}
330
16
100
AcDbVisualStyle
  2
Shades of Gray
 70
23
177
3
291
0
 70
58
 90
2
176
1
 90
2
176
1
 90
0
176
1
 90
2
176
1
 40
0.6
176
1
 40
30.0
176
1
 62
7
420
16777215
176
1
 90
1
176
1
 90
4
176
1
 62
7
176
1
 62
257
176
1
 90
1
176
1
 90
1
176
1
 40
1.0
176
1
 90
8
176
1
 62
7
176
1
 40
1.0
176
1
 90
1
176
1
 90
6
176
1
 90
2
176
1
 62
7
176
1
 90
5
176
1
 90
0
176
1
 90
0
176
1
290
0
176
1
 90
1
176
1
 40
0.0
176
1
 90
0
176
1
290
0
176
1
290
1
176
1
290
1
176
1
290
0
176
1
290
0
176
1
290
0
176
1
290
0
176
1
290
0
176
1
290
0
176
1
 90
50
176
1
 40
0.0
176
1
 40
1.0
176
1
 90
0
176
1
 62
18
420
0
176
1
 90
50
176
1
 90
3
176
1
 62
5
420
255
176
1
290
0
176
1
 90
50
176
1
 90
50
176
1
 90
50
176
1
290
0
176
1
 90
50
176
1
 62
256
176
0
 40
1.0
176
0
 90
2
176
1
  1
strokes_ogs.tif
176
1
290
0
176
1
 40
1.0
176
1
 40
1.0
176
1
  0
VISUALSTYLE
  5
6F
102
{ACAD_REACTORS
330
16
102
}
330
16
100
AcDbVisualStyle
  2
Sketchy
 70
24
177
3
291
0
 70
58
 90
2
176
1
 90
2
176
1
 90
0
176
1
 90
1
176
1
 40
0.6
176
1
 40
30.0
176
1
 62
7
420
16777215
176
1
 90
1
176
1
 90
4
176
1
 62
7
176
1
 62
257
176
1
 90
1
176
1
 90
1
176
1
 40
1.0
176
1
 90
8
176
1
 62
7
176
1
 40
1.0
176
1
 90
1
176
1
 90
6
176
1
 90
2
176
1
 62
7
176
1
 90
5
176
1
 90
0
176
1
 90
0
176
1
290
0
176
1
 90
1
176
1
 40
0.0
176
1
 90
0
176
1
290
0
176
1
290
1
176
1
290
1
176
1
290
0
176
1
290
0
176
1
290
0
176
1
290
0
176
1
290
0
176
1
290
0
176
1
 90
50
176
1
 40
0.0
176
1
 40
1.0
176
1
 90
0
176
1
 62
18
420
0
176
1
 90
50
176
1
 90
3
176
1
 62
5
420
255
176
1
290
0
176
1
 90
50
176
1
 90
50
176
1
 90
50
176
1
290
0
176
1
 90
50
176
1
 62
256
176
0
 40
1.0
176
0
 90
2
176
1
  1
strokes_ogs.tif
176
1
290
0
176
1
 40
1.0
176
1
 40
1.0
176
1
  0
VISUALSTYLE
  5
70
102
{ACAD_REACTORS
330
16
102
}
330
16
100
AcDbVisualStyle
  2
Thicken
 70
13
177
3
291
1
 70
58
 90
2
176
1
 90
2
176
1
 90
0
176
1
 90
2
176
1
 40
0.6
176
1
 40
30.0
176
1
 62
7
420
16777215
176
1
 90
1
176
1
 90
4
176
1
 62
7
176
1
 62
257
176
1
 90
1
176
1
 90
1
176
1
 40
1.0
176
1
 90
8
176
1
 62
7
176
1
 40
1.0
176
1
 90
1
176
1
 90
6
176
1
 90
2
176
1
 62
7
176
1
 90
5
176
1
 90
0
176
1
 90
0
176
1
290
0
176
1
 90
1
176
1
 40
0.0
176
1
 90
0
176
1
290
0
176
1
290
1
176
1
290
1
176
1
290
0
176
1
290
0
176
1
290
0
176
1
290
0
176
1
290
0
176
1
290
0
176
1
 90
50
176
1
 40
0.0
176
1
 40
1.0
176
1
 90
0
176
1
 62
18
420
0
176
1
 90
50
176
1
 90
3
176
1
 62
5
420
255
176
1
290
0
176
1
 90
50
176
1
 90
50
176
1
 90
50
176
1
290
0
176
1
 90
50
176
1
 62
256
176
0
 40
1.0
176
0
 90
2
176
1
  1
strokes_ogs.tif
176
1
290
0
176
1
 40
1.0
176
1
 40
1.0
176
1
  0
VISUALSTYLE
  5
71
102
{ACAD_REACTORS
330
16
102
}
330
16
100
AcDbVisualStyle
  2
Wireframe
 70
5
177
3
291
0
 70
58
 90
2
176
1
 90
2
176
1
 90
0
176
1
 90
0
176
1
 40
0.6
176
1
 40
30.0
176
1
 62
7
420
16777215
176
1
 90
1
176
1
 90
4
176
1
 62
7
176
1
 62
257
176
1
 90
1
176
1
 90
1
176
1
 40
1.0
176
1
 90
8
176
1
 62
7
176
1
 40
1.0
176
1
 90
1
176
1
 90
6
176
1
 90
2
176
1
 62
7
176
1
 90
5
176
1
 90
0
176
1
 90
0
176
1
290
0
176
1
 90
1
176
1
 40
0.0
176
1
 90
0
176
1
290
0
176
1
290
1
176
1
290
1
176
1
290
0
176
1
290
0
176
1
290
0
176
1
290
0
176
1
290
0
176
1
290
0
176
1
 90
50
176
1
 40
0.0
176
1
 40
1.0
176
1
 90
0
176
1
 62
18
420
0
176
1
 90
50
176
1
 90
3
176
1
 62
5
420
255
176
1
290
0
176
1
 90
50
176
1
 90
50
176
1
 90
50
176
1
290
0
176
1
 90
50
176
1
 62
256
176
0
 40
1.0
176
0
 90
2
176
1
  1
strokes_ogs.tif
176
1
290
0
176
1
 40
1.0
176
1
 40
1.0
176
1
  0
VISUALSTYLE
  5
72
102
{ACAD_REACTORS
330
16
102
}
330
16
100
AcDbVisualStyle
  2
X-Ray
 70
25
177
3
291
0
 70
58
 90
2
176
1
 90
2
176
1
 90
0
176
1
 90
2
176
1
 40
0.5
176
1
 40
30.0
176
1
 62
7
420
16777215
176
1
 90
1
176
1
 90
4
176
1
 62
7
176
1
 62
257
176
1
 90
1
176
1
 90
1
176
1
 40
1.0
176
1
 90
8
176
1
 62
7
176
1
 40
1.0
176
1
 90
1
176
1
 90
6
176
1
 90
2
176
1
 62
7
176
1
 90
5
176
1
 90
0
176
1
 90
0
176
1
290
0
176
1
 90
1
176
1
 40
0.0
176
1
 90
0
176
1
290
0
176
1
290
1
176
1
290
1
176
1
290
0
176
1
290
0
176
1
290
0
176
1
290
0
176
1
290
0
176
1
290
0
176
1
 90
50
176
1
 40
0.0
176
1
 40
1.0
176
1
 90
0
176
1
 62
18
420
0
176
1
 90
50
176
1
 90
3
176
1
 62
5
420
255
176
1
290
0
176
1
 90
50
176
1
 90
50
176
1
 90
50
176
1
290
0
176
1
 90
50
176
1
 62
256
176
0
 40
1.0
176
0
 90
2
176
1
  1
strokes_ogs.tif
176
1
290
0
176
1
 40
1.0
176
1
 40
1.0
176
1
  0
LAYOUT
  5
207
330
D
100
AcDbPlotSettings
  1

  2
DWG to PDF.pc3
  4
ezdxf_(841.00_x_594.00_MM)
  6

 40
0.0
 41
0.0
 42
0.0
 43
0.0
 44
841.0
 45
594.0
 46
0.0
 47
0.0
 48
0.0
 49
0.0
140
0.0
141
0.0
142
1.0
143
1.0
 70
672
 72
1
 73
0
 74
5
  7

 75
16
 76
0
 77
2
 78
300
147
1.0
148
0.0
149
0.0
100
AcDbLayout
  1
A1-LOTE
 70
1
 71
3
 10
-0.0
 20
-0.0
 11
841.0
 21
594.0
 12
0.0
 22
0.0
 32
0.0
 14
1e+20
 24
1e+20
 34
1e+20
 15
-1e+20
 25
-1e+20
 35
-1e+20
146
0.0
 13
0.0
 23
0.0
 33
0.0
 16
1.0
 26
0.0
 36
0.0
 17
0.0
 27
1.0
 37
0.0
 76
1
330
204
331
208
  0
RASTERVARIABLES
  5
20C
102
{ACAD_REACTORS
330
A
102
}
330
A
100
AcDbRasterVariables
 90
0
 70
0
 71
1
 72
3
  0
DICTIONARY
  5
20D
330
A
100
AcDbDictionary
281
1
  3
A1_ubicacion_catastro.png
350
20E
  0
IMAGEDEF
  5
20E
102
{ACAD_REACTORS
330
20D
330
210
102
}
330
20D
100
AcDbRasterImageDef
 90
0
  1
A1_ubicacion_catastro.png
 10
1470.0
 20
1299.0
 11
0.01
 21
0.01
280
1
281
0
  0
IMAGEDEF_REACTOR
  5
210
330
20F
100
AcDbRasterImageDefReactor
 90
2
330
20F
  0
DICTIONARYVAR
  5
367
330
2D
100
DictionaryVariables
280
0
  1
1.4.4 @ 2026-10-07T02:17:54.466093+00:00
  0
ENDSEC
  0
EOF
