  0
SECTION
  2
HEADER
  9
$ACADVER
  1
AC1032
  9
$ACADMAINTVER
 90
4
  9
$DWGCODEPAGE
  3
ANSI_1252
  9
$LASTSAVEDBY
  1
ezdxf
  9
$REQUIREDVERSIONS
160
0
  9
$INSBASE
 10
0.0
 20
0.0
 30
0.0
  9
$EXTMIN
 10
1e+20
 20
1e+20
 30
1e+20
  9
$EXTMAX
 10
-1e+20
 20
-1e+20
 30
-1e+20
  9
$LIMMIN
 10
0.0
 20
0.0
  9
$LIMMAX
 10
420.0
 20
297.0
  9
$ORTHOMODE
 70
0
  9
$REGENMODE
 70
1
  9
$FILLMODE
 70
1
  9
$QTEXTMODE
 70
0
  9
$MIRRTEXT
 70
1
  9
$LTSCALE
 40
1.0
  9
$ATTMODE
 70
1
  9
$TEXTSIZE
 40
2.5
  9
$TRACEWID
 40
1.0
  9
$TEXTSTYLE
  7
OpenSans
  9
$CLAYER
  8
0
  9
$CELTYPE
  6
ByLayer
  9
$CECOLOR
 62
256
  9
$CELTSCALE
 40
1.0
  9
$DISPSILH
 70
0
  9
$DIMSCALE
 40
1.0
  9
$DIMASZ
 40
0.175
  9
$DIMEXO
 40
0.125
  9
$DIMDLI
 40
3.75
  9
$DIMRND
 40
0.0
  9
$DIMDLE
 40
0.0
  9
$DIMEXE
 40
0.375
  9
$DIMTP
 40
0.0
  9
$DIMTM
 40
0.0
  9
$DIMTXT
 40
0.25
  9
$DIMCEN
 40
2.5
  9
$DIMTSZ
 40
0.0
  9
$DIMTOL
 70
0
  9
$DIMLIM
 70
0
  9
$DIMTIH
 70
0
  9
$DIMTOH
 70
0
  9
$DIMSE1
 70
0
  9
$DIMSE2
 70
0
  9
$DIMTAD
 70
1
  9
$DIMZIN
 70
12
  9
$DIMBLK
  1
ARCHTICK
  9
$DIMASO
 70
1
  9
$DIMSHO
 70
1
  9
$DIMPOST
  1

  9
$DIMAPOST
  1

  9
$DIMALT
 70
0
  9
$DIMALTD
 70
3
  9
$DIMALTF
 40
0.03937007874
  9
$DIMLFAC
 40
100.0
  9
$DIMTOFL
 70
1
  9
$DIMTVP
 40
0.0
  9
$DIMTIX
 70
0
  9
$DIMSOXD
 70
0
  9
$DIMSAH
 70
0
  9
$DIMBLK1
  1

  9
$DIMBLK2
  1

  9
$DIMSTYLE
  2
EZDXF
  9
$DIMCLRD
 70
0
  9
$DIMCLRE
 70
0
  9
$DIMCLRT
 70
0
  9
$DIMTFAC
 40
0.5
  9
$DIMGAP
 40
0.1
  9
$DIMJUST
 70
0
  9
$DIMSD1
 70
0
  9
$DIMSD2
 70
0
  9
$DIMTOLJ
 70
0
  9
$DIMTZIN
 70
8
  9
$DIMALTZ
 70
0
  9
$DIMALTTZ
 70
0
  9
$DIMUPT
 70
1
  9
$DIMDEC
 70
2
  9
$DIMTDEC
 70
2
  9
$DIMALTU
 70
2
  9
$DIMALTTD
 70
3
  9
$DIMTXSTY
  7
OpenSansCondensed-Light
  9
$DIMAUNIT
 70
0
  9
$DIMADEC
 70
2
  9
$DIMALTRND
 40
0.0
  9
$DIMAZIN
 70
3
  9
$DIMDSEP
 70
46
  9
$DIMATFIT
 70
3
  9
$DIMFRAC
 70
0
  9
$DIMLDRBLK
  1

  9
$DIMLUNIT
 70
2
  9
$DIMLWD
 70
-2
  9
$DIMLWE
 70
-2
  9
$DIMTMOVE
 70
2
  9
$DIMFXL
 40
1.0
  9
$DIMFXLON
 70
0
  9
$DIMJOGANG
 40
0.785398163397
  9
$DIMTFILL
 70
0
  9
$DIMTFILLCLR
 70
0
  9
$DIMARCSYM
 70
0
  9
$DIMLTYPE
  6

  9
$DIMLTEX1
  6

  9
$DIMLTEX2
  6

  9
$DIMTXTDIRECTION
 70
0
  9
$LUNITS
 70
2
  9
$LUPREC
 70
2
  9
$SKETCHINC
 40
1.0
  9
$FILLETRAD
 40
10.0
  9
$AUNITS
 70
1
  9
$AUPREC
 70
2
  9
$MENU
  1
.
  9
$ELEVATION
 40
0.0
  9
$PELEVATION
 40
0.0
  9
$THICKNESS
 40
0.0
  9
$LIMCHECK
 70
0
  9
$CHAMFERA
 40
0.0
  9
$CHAMFERB
 40
0.0
  9
$CHAMFERC
 40
0.0
  9
$CHAMFERD
 40
0.0
  9
$SKPOLY
 70
0
  9
$TDCREATE
 40
2461321.106076389
  9
$TDUCREATE
 40
2458532.153996898
  9
$TDUPDATE
 40
2461321.106076389
  9
$TDUUPDATE
 40
2458532.1544311
  9
$TDINDWG
 40
0.0
  9
$TDUSRTIMER
 40
0.0
  9
$USRTIMER
 70
1
  9
$ANGBASE
 50
0.0
  9
$ANGDIR
 70
0
  9
$PDMODE
 70
0
  9
$PDSIZE
 40
0.0
  9
$PLINEWID
 40
0.0
  9
$SPLFRAME
 70
0
  9
$SPLINETYPE
 70
6
  9
$SPLINESEGS
 70
8
  9
$HANDSEED
  5
354
  9
$SURFTAB1
 70
6
  9
$SURFTAB2
 70
6
  9
$SURFTYPE
 70
6
  9
$SURFU
 70
6
  9
$SURFV
 70
6
  9
$UCSBASE
  2

  9
$UCSNAME
  2

  9
$UCSORG
 10
0.0
 20
0.0
 30
0.0
  9
$UCSXDIR
 10
1.0
 20
0.0
 30
0.0
  9
$UCSYDIR
 10
0.0
 20
1.0
 30
0.0
  9
$UCSORTHOREF
  2

  9
$UCSORTHOVIEW
 70
0
  9
$UCSORGTOP
 10
0.0
 20
0.0
 30
0.0
  9
$UCSORGBOTTOM
 10
0.0
 20
0.0
 30
0.0
  9
$UCSORGLEFT
 10
0.0
 20
0.0
 30
0.0
  9
$UCSORGRIGHT
 10
0.0
 20
0.0
 30
0.0
  9
$UCSORGFRONT
 10
0.0
 20
0.0
 30
0.0
  9
$UCSORGBACK
 10
0.0
 20
0.0
 30
0.0
  9
$PUCSBASE
  2

  9
$PUCSNAME
  2

  9
$PUCSORG
 10
0.0
 20
0.0
 30
0.0
  9
$PUCSXDIR
 10
1.0
 20
0.0
 30
0.0
  9
$PUCSYDIR
 10
0.0
 20
1.0
 30
0.0
  9
$PUCSORTHOREF
  2

  9
$PUCSORTHOVIEW
 70
0
  9
$PUCSORGTOP
 10
0.0
 20
0.0
 30
0.0
  9
$PUCSORGBOTTOM
 10
0.0
 20
0.0
 30
0.0
  9
$PUCSORGLEFT
 10
0.0
 20
0.0
 30
0.0
  9
$PUCSORGRIGHT
 10
0.0
 20
0.0
 30
0.0
  9
$PUCSORGFRONT
 10
0.0
 20
0.0
 30
0.0
  9
$PUCSORGBACK
 10
0.0
 20
0.0
 30
0.0
  9
$USERI1
 70
0
  9
$USERI2
 70
0
  9
$USERI3
 70
0
  9
$USERI4
 70
0
  9
$USERI5
 70
0
  9
$USERR1
 40
0.0
  9
$USERR2
 40
0.0
  9
$USERR3
 40
0.0
  9
$USERR4
 40
0.0
  9
$USERR5
 40
0.0
  9
$WORLDVIEW
 70
1
  9
$SHADEDGE
 70
3
  9
$SHADEDIF
 70
70
  9
$TILEMODE
 70
1
  9
$MAXACTVP
 70
64
  9
$PINSBASE
 10
0.0
 20
0.0
 30
0.0
  9
$PLIMCHECK
 70
0
  9
$PEXTMIN
 10
1e+20
 20
1e+20
 30
1e+20
  9
$PEXTMAX
 10
-1e+20
 20
-1e+20
 30
-1e+20
  9
$PLIMMIN
 10
-0.0
 20
-0.0
  9
$PLIMMAX
 10
841.0
 20
594.0
  9
$UNITMODE
 70
0
  9
$VISRETAIN
 70
1
  9
$PLINEGEN
 70
0
  9
$PSLTSCALE
 70
1
  9
$TREEDEPTH
 70
3020
  9
$CMLSTYLE
  2
Standard
  9
$CMLJUST
 70
0
  9
$CMLSCALE
 40
20.0
  9
$PROXYGRAPHICS
 70
1
  9
$MEASUREMENT
 70
1
  9
$CELWEIGHT
370
-1
  9
$ENDCAPS
280
0
  9
$JOINSTYLE
280
0
  9
$LWDISPLAY
290
1
  9
$INSUNITS
 70
6
  9
$HYPERLINKBASE
  1

  9
$STYLESHEET
  1

  9
$XEDIT
290
1
  9
$CEPSNTYPE
380
0
  9
$PSTYLEMODE
290
1
  9
$FINGERPRINTGUID
  2
{0A62D851-F7E9-4050-948B-33308C3DFD02}
  9
$VERSIONGUID
  2
{7DF14FA9-129C-458F-874D-4EA73DCFB657}
  9
$EXTNAMES
290
1
  9
$PSVPSCALE
 40
0.0
  9
$OLESTARTUP
290
0
  9
$SORTENTS
280
127
  9
$INDEXCTL
280
0
  9
$HIDETEXT
280
1
  9
$XCLIPFRAME
280
1
  9
$HALOGAP
280
0
  9
$OBSCOLOR
 70
257
  9
$OBSLTYPE
280
0
  9
$INTERSECTIONDISPLAY
280
0
  9
$INTERSECTIONCOLOR
 70
257
  9
$DIMASSOC
280
2
  9
$PROJECTNAME
  1

  9
$CAMERADISPLAY
290
0
  9
$LENSLENGTH
 40
50.0
  9
$CAMERAHEIGHT
 40
0.0
  9
$STEPSPERSEC
 40
24.0
  9
$STEPSIZE
 40
100.0
  9
$3DDWFPREC
 40
2.0
  9
$PSOLWIDTH
 40
0.005
  9
$PSOLHEIGHT
 40
0.08
  9
$LOFTANG1
 40
1.570796326795
  9
$LOFTANG2
 40
1.570796326795
  9
$LOFTMAG1
 40
0.0
  9
$LOFTMAG2
 40
0.0
  9
$LOFTPARAM
 70
7
  9
$LOFTNORMALS
280
1
  9
$LATITUDE
 40
37.795
  9
$LONGITUDE
 40
-122.394
  9
$NORTHDIRECTION
 40
0.0
  9
$TIMEZONE
 70
-8000
  9
$LIGHTGLYPHDISPLAY
280
1
  9
$TILEMODELIGHTSYNCH
280
1
  9
$CMATERIAL
347
20
  9
$SOLIDHIST
280
0
  9
$SHOWHIST
280
1
  9
$DWFFRAME
280
2
  9
$DGNFRAME
280
2
  9
$REALWORLDSCALE
290
1
  9
$INTERFERECOLOR
 62
256
  9
$CSHADOW
280
0
  9
$SHADOWPLANELOCATION
 40
0.0
  0
ENDSEC
  0
SECTION
  2
CLASSES
  0
CLASS
  1
ACDBDICTIONARYWDFLT
  2
AcDbDictionaryWithDefault
  3
ObjectDBX Classes
 90
0
 91
0
280
0
281
0
  0
CLASS
  1
SUN
  2
AcDbSun
  3
SCENEOE
 90
1153
 91
0
280
0
281
0
  0
CLASS
  1
VISUALSTYLE
  2
AcDbVisualStyle
  3
ObjectDBX Classes
 90
4095
 91
0
280
0
281
0
  0
CLASS
  1
MATERIAL
  2
AcDbMaterial
  3
ObjectDBX Classes
 90
1153
 91
0
280
0
281
0
  0
CLASS
  1
SCALE
  2
AcDbScale
  3
ObjectDBX Classes
 90
1153
 91
0
280
0
281
0
  0
CLASS
  1
TABLESTYLE
  2
AcDbTableStyle
  3
ObjectDBX Classes
 90
4095
 91
0
280
0
281
0
  0
CLASS
  1
MLEADERSTYLE
  2
AcDbMLeaderStyle
  3
ACDB_MLEADERSTYLE_CLASS
 90
4095
 91
0
280
0
281
0
  0
CLASS
  1
DICTIONARYVAR
  2
AcDbDictionaryVar
  3
ObjectDBX Classes
 90
0
 91
0
280
0
281
0
  0
CLASS
  1
CELLSTYLEMAP
  2
AcDbCellStyleMap
  3
ObjectDBX Classes
 90
1152
 91
0
280
0
281
0
  0
CLASS
  1
MENTALRAYRENDERSETTINGS
  2
AcDbMentalRayRenderSettings
  3
SCENEOE
 90
1024
 91
0
280
0
281
0
  0
CLASS
  1
ACDBDETAILVIEWSTYLE
  2
AcDbDetailViewStyle
  3
ObjectDBX Classes
 90
1025
 91
0
280
0
281
0
  0
CLASS
  1
ACDBSECTIONVIEWSTYLE
  2
AcDbSectionViewStyle
  3
ObjectDBX Classes
 90
1025
 91
0
280
0
281
0
  0
CLASS
  1
RASTERVARIABLES
  2
AcDbRasterVariables
  3
ISM
 90
0
 91
0
280
0
281
0
  0
CLASS
  1
LAYOUT
  2
AcDbLayout
  3
ObjectDBX Classes
 90
0
 91
0
280
0
281
0
  0
CLASS
  1
ACDBPLACEHOLDER
  2
AcDbPlaceHolder
  3
ObjectDBX Classes
 90
0
 91
0
280
0
281
0
  0
ENDSEC
  0
SECTION
  2
TABLES
  0
TABLE
  2
VPORT
  5
8
330
0
100
AcDbSymbolTable
 70
1
  0
VPORT
  5
23
330
8
100
AcDbSymbolTableRecord
100
AcDbViewportTableRecord
  2
*Active
 70
0
 10
0.0
 20
0.0
 11
1.0
 21
1.0
 12
0.0
 22
0.0
 13
0.0
 23
0.0
 14
0.5
 24
0.5
 15
0.5
 25
0.5
 16
0.0
 26
0.0
 36
1.0
 17
0.0
 27
0.0
 37
0.0
 40
1000.0
 41
1.34
 42
50.0
 43
0.0
 44
0.0
 50
0.0
 51
0.0
 71
0
 72
1000
 73
1
 74
3
 75
0
 76
0
 77
0
 78
0
281
0
 65
0
146
0.0
  0
ENDTAB
  0
TABLE
  2
LTYPE
  5
2
330
0
100
AcDbSymbolTable
 70
21
  0
LTYPE
  5
24
330
2
100
AcDbSymbolTableRecord
100
AcDbLinetypeTableRecord
  2
ByBlock
 70
0
  3

 72
65
 73
0
 40
0.0
  0
LTYPE
  5
25
330
2
100
AcDbSymbolTableRecord
100
AcDbLinetypeTableRecord
  2
ByLayer
 70
0
  3

 72
65
 73
0
 40
0.0
  0
LTYPE
  5
26
330
2
100
AcDbSymbolTableRecord
100
AcDbLinetypeTableRecord
  2
Continuous
 70
0
  3

 72
65
 73
0
 40
0.0
  0
LTYPE
  5
2F
330
2
100
AcDbSymbolTableRecord
100
AcDbLinetypeTableRecord
  2
CENTER
 70
0
  3
Center ____ _ ____ _ ____ _ ____ _ ____ _ ____
 72
65
 73
4
 40
5.08
 49
3.175
 74
0
 49
-0.635
 74
0
 49
0.635
 74
0
 49
-0.635
 74
0
  0
LTYPE
  5
30
330
2
100
AcDbSymbolTableRecord
100
AcDbLinetypeTableRecord
  2
CENTERX2
 70
0
  3
Center (2x) ________  __  ________  __  ________
 72
65
 73
4
 40
8.89
 49
6.35
 74
0
 49
-0.635
 74
0
 49
1.27
 74
0
 49
-0.635
 74
0
  0
LTYPE
  5
31
330
2
100
AcDbSymbolTableRecord
100
AcDbLinetypeTableRecord
  2
CENTER2
 70
0
  3
Center (.5x) ____ _ ____ _ ____ _ ____ _ ____
 72
65
 73
4
 40
2.54
 49
1.587
 74
0
 49
-0.318
 74
0
 49
0.318
 74
0
 49
-0.318
 74
0
  0
LTYPE
  5
32
330
2
100
AcDbSymbolTableRecord
100
AcDbLinetypeTableRecord
  2
DASHED
 70
0
  3
Dashed __ __ __ __ __ __ __ __ __ __ __ __ __ _
 72
65
 73
2
 40
1.524
 49
1.27
 74
0
 49
-0.254
 74
0
  0
LTYPE
  5
33
330
2
100
AcDbSymbolTableRecord
100
AcDbLinetypeTableRecord
  2
DASHEDX2
 70
0
  3
Dashed (2x) ____  ____  ____  ____  ____  ____
 72
65
 73
2
 40
3.048
 49
2.54
 74
0
 49
-0.508
 74
0
  0
LTYPE
  5
34
330
2
100
AcDbSymbolTableRecord
100
AcDbLinetypeTableRecord
  2
DASHED2
 70
0
  3
Dashed (.5x) _ _ _ _ _ _ _ _ _ _ _ _ _ _
 72
65
 73
2
 40
0.762
 49
0.635
 74
0
 49
-0.127
 74
0
  0
LTYPE
  5
35
330
2
100
AcDbSymbolTableRecord
100
AcDbLinetypeTableRecord
  2
PHANTOM
 70
0
  3
Phantom ______  __  __  ______  __  __  ______
 72
65
 73
6
 40
6.35
 49
3.175
 74
0
 49
-0.635
 74
0
 49
0.635
 74
0
 49
-0.635
 74
0
 49
0.635
 74
0
 49
-0.635
 74
0
  0
LTYPE
  5
36
330
2
100
AcDbSymbolTableRecord
100
AcDbLinetypeTableRecord
  2
PHANTOMX2
 70
0
  3
Phantom (2x)____________    ____    ____    ____________
 72
65
 73
6
 40
10.795
 49
6.35
 74
0
 49
-0.635
 74
0
 49
1.27
 74
0
 49
-0.635
 74
0
 49
1.27
 74
0
 49
-0.635
 74
0
  0
LTYPE
  5
37
330
2
100
AcDbSymbolTableRecord
100
AcDbLinetypeTableRecord
  2
PHANTOM2
 70
0
  3
Phantom (.5x) ___ _ _ ___ _ _ ___ _ _ ___ _ _ ___
 72
65
 73
6
 40
3.175
 49
1.587
 74
0
 49
-0.318
 74
0
 49
0.318
 74
0
 49
-0.318
 74
0
 49
0.318
 74
0
 49
-0.318
 74
0
  0
LTYPE
  5
38
330
2
100
AcDbSymbolTableRecord
100
AcDbLinetypeTableRecord
  2
DASHDOT
 70
0
  3
Dash dot __ . __ . __ . __ . __ . __ . __ . __
 72
65
 73
4
 40
3.556
 49
2.54
 74
0
 49
-0.508
 74
0
 49
0.0
 74
0
 49
-0.508
 74
0
  0
LTYPE
  5
39
330
2
100
AcDbSymbolTableRecord
100
AcDbLinetypeTableRecord
  2
DASHDOTX2
 70
0
  3
Dash dot (2x) ____  .  ____  .  ____  .  ____
 72
65
 73
4
 40
6.096
 49
5.08
 74
0
 49
-0.508
 74
0
 49
0.0
 74
0
 49
-0.508
 74
0
  0
LTYPE
  5
3A
330
2
100
AcDbSymbolTableRecord
100
AcDbLinetypeTableRecord
  2
DASHDOT2
 70
0
  3
Dash dot (.5x) _ . _ . _ . _ . _ . _ . _ . _
 72
65
 73
4
 40
1.778
 49
1.27
 74
0
 49
-0.254
 74
0
 49
0.0
 74
0
 49
-0.254
 74
0
  0
LTYPE
  5
3B
330
2
100
AcDbSymbolTableRecord
100
AcDbLinetypeTableRecord
  2
DOT
 70
0
  3
Dot .  .  .  .  .  .  .  .  .  .  .  .  .  .  .  .
 72
65
 73
2
 40
0.508
 49
0.0
 74
0
 49
-0.508
 74
0
  0
LTYPE
  5
3C
330
2
100
AcDbSymbolTableRecord
100
AcDbLinetypeTableRecord
  2
DOTX2
 70
0
  3
Dot (2x) .    .    .    .    .    .    .    . 
 72
65
 73
2
 40
1.016
 49
0.0
 74
0
 49
-1.016
 74
0
  0
LTYPE
  5
3D
330
2
100
AcDbSymbolTableRecord
100
AcDbLinetypeTableRecord
  2
DOT2
 70
0
  3
Dot (.5) . . . . . . . . . . . . . . . . . . . 
 72
65
 73
2
 40
0.254
 49
0.0
 74
0
 49
-0.254
 74
0
  0
LTYPE
  5
3E
330
2
100
AcDbSymbolTableRecord
100
AcDbLinetypeTableRecord
  2
DIVIDE
 70
0
  3
Divide __ . . __ . . __ . . __ . . __ . . __
 72
65
 73
6
 40
4.064
 49
2.54
 74
0
 49
-0.508
 74
0
 49
0.0
 74
0
 49
-0.508
 74
0
 49
0.0
 74
0
 49
-0.508
 74
0
  0
LTYPE
  5
3F
330
2
100
AcDbSymbolTableRecord
100
AcDbLinetypeTableRecord
  2
DIVIDEX2
 70
0
  3
Divide (2x) ____  . .  ____  . .  ____  . .  ____
 72
65
 73
6
 40
6.604
 49
5.08
 74
0
 49
-0.508
 74
0
 49
0.0
 74
0
 49
-0.508
 74
0
 49
0.0
 74
0
 49
-0.508
 74
0
  0
LTYPE
  5
40
330
2
100
AcDbSymbolTableRecord
100
AcDbLinetypeTableRecord
  2
DIVIDE2
 70
0
  3
Divide(.5x) _ . _ . _ . _ . _ . _ . _ . _
 72
65
 73
6
 40
2.032
 49
1.27
 74
0
 49
-0.254
 74
0
 49
0.0
 74
0
 49
-0.254
 74
0
 49
0.0
 74
0
 49
-0.254
 74
0
  0
ENDTAB
  0
TABLE
  2
LAYER
  5
1
330
0
100
AcDbSymbolTable
 70
54
  0
LAYER
  5
27
330
1
100
AcDbSymbolTableRecord
100
AcDbLayerTableRecord
  2
0
 70
0
 62
7
  6
Continuous
370
-3
390
13
347
21
  0
LAYER
  5
28
330
1
100
AcDbSymbolTableRecord
100
AcDbLayerTableRecord
  2
Defpoints
 70
0
 62
7
  6
Continuous
290
0
370
-3
390
13
347
21
  0
LAYER
  5
8B
330
1
100
AcDbSymbolTableRecord
100
AcDbLayerTableRecord
  2
A-MARCO
 70
0
 62
7
  6
Continuous
370
70
390
13
347
21
  0
LAYER
  5
8C
330
1
100
AcDbSymbolTableRecord
100
AcDbLayerTableRecord
  2
A-CAJETIN
 70
0
 62
7
  6
Continuous
370
35
390
13
347
21
  0
LAYER
  5
8D
330
1
100
AcDbSymbolTableRecord
100
AcDbLayerTableRecord
  2
A-CAJETIN-TXT
 70
0
 62
7
  6
Continuous
370
25
390
13
347
21
  0
LAYER
  5
8E
330
1
100
AcDbSymbolTableRecord
100
AcDbLayerTableRecord
  2
A-TITULOS
 70
0
 62
7
  6
Continuous
370
35
390
13
347
21
  0
LAYER
  5
8F
330
1
100
AcDbSymbolTableRecord
100
AcDbLayerTableRecord
  2
A-TEXTO
 70
0
 62
7
  6
Continuous
370
18
390
13
347
21
  0
LAYER
  5
90
330
1
100
AcDbSymbolTableRecord
100
AcDbLayerTableRecord
  2
A-TABLAS
 70
0
 62
7
  6
Continuous
370
25
390
13
347
21
  0
LAYER
  5
91
330
1
100
AcDbSymbolTableRecord
100
AcDbLayerTableRecord
  2
A-NOTAS
 70
0
 62
7
  6
Continuous
370
18
390
13
347
21
  0
LAYER
  5
92
330
1
100
AcDbSymbolTableRecord
100
AcDbLayerTableRecord
  2
A-ESCALA-GRAF
 70
0
 62
7
  6
Continuous
370
18
390
13
347
21
  0
LAYER
  5
93
330
1
100
AcDbSymbolTableRecord
100
AcDbLayerTableRecord
  2
A-NORTE
 70
0
 62
7
  6
Continuous
370
25
390
13
347
21
  0
LAYER
  5
94
330
1
100
AcDbSymbolTableRecord
100
AcDbLayerTableRecord
  2
A-IMAGEN-REF
 70
0
 62
7
  6
Continuous
370
13
390
13
347
21
  0
LAYER
  5
95
330
1
100
AcDbSymbolTableRecord
100
AcDbLayerTableRecord
  2
A-VIEWPORT
 70
0
 62
8
  6
Continuous
290
0
370
13
390
13
347
21
  0
LAYER
  5
96
330
1
100
AcDbSymbolTableRecord
100
AcDbLayerTableRecord
  2
A-PENDIENTE
 70
0
 62
1
  6
Continuous
370
25
390
13
347
21
  0
LAYER
  5
97
330
1
100
AcDbSymbolTableRecord
100
AcDbLayerTableRecord
  2
T-LINDERO
 70
0
 62
8
  6
Continuous
370
50
390
13
347
21
  0
LAYER
  5
98
330
1
100
AcDbSymbolTableRecord
100
AcDbLayerTableRecord
  2
T-VERTICE
 70
0
 62
7
  6
Continuous
370
25
390
13
347
21
  0
LAYER
  5
99
330
1
100
AcDbSymbolTableRecord
100
AcDbLayerTableRecord
  2
T-CALLE
 70
0
 62
8
  6
DASHED
370
18
390
13
347
21
  0
LAYER
  5
9A
330
1
100
AcDbSymbolTableRecord
100
AcDbLayerTableRecord
  2
T-TXT-200
 70
0
 62
7
  6
Continuous
370
18
390
13
347
21
  0
LAYER
  5
9B
330
1
100
AcDbSymbolTableRecord
100
AcDbLayerTableRecord
  2
T-COTA-200
 70
0
 62
7
  6
Continuous
370
18
390
13
347
21
  0
LAYER
  5
9C
330
1
100
AcDbSymbolTableRecord
100
AcDbLayerTableRecord
  2
T-TXT-100
 70
0
 62
7
  6
Continuous
370
18
390
13
347
21
  0
LAYER
  5
9D
330
1
100
AcDbSymbolTableRecord
100
AcDbLayerTableRecord
  2
T-COTA-100
 70
0
 62
7
  6
Continuous
370
18
390
13
347
21
  0
LAYER
  5
9E
330
1
100
AcDbSymbolTableRecord
100
AcDbLayerTableRecord
  2
A-HUELLA
 70
0
 62
7
  6
Continuous
370
35
390
13
347
21
  0
LAYER
  5
9F
330
1
100
AcDbSymbolTableRecord
100
AcDbLayerTableRecord
  2
A-HUELLA-TRAMA
 70
0
 62
8
  6
Continuous
370
9
390
13
347
21
  0
LAYER
  5
A0
330
1
100
AcDbSymbolTableRecord
100
AcDbLayerTableRecord
  2
A-PATIO
 70
0
 62
7
  6
Continuous
370
25
390
13
347
21
  0
LAYER
  5
A1
330
1
100
AcDbSymbolTableRecord
100
AcDbLayerTableRecord
  2
A-RETIRO
 70
0
 62
8
  6
DASHED2
370
18
390
13
347
21
  0
LAYER
  5
A2
330
1
100
AcDbSymbolTableRecord
100
AcDbLayerTableRecord
  2
A-MURO
 70
0
 62
8
  6
Continuous
370
50
390
13
347
21
  0
LAYER
  5
A3
330
1
100
AcDbSymbolTableRecord
100
AcDbLayerTableRecord
  2
A-MURO-TRAMA
 70
0
 62
8
  6
Continuous
370
9
390
13
347
21
  0
LAYER
  5
A4
330
1
100
AcDbSymbolTableRecord
100
AcDbLayerTableRecord
  2
A-PUERTA
 70
0
 62
8
  6
Continuous
370
25
390
13
347
21
  0
LAYER
  5
A5
330
1
100
AcDbSymbolTableRecord
100
AcDbLayerTableRecord
  2
A-VENTANA
 70
0
 62
8
  6
Continuous
370
25
390
13
347
21
  0
LAYER
  5
A6
330
1
100
AcDbSymbolTableRecord
100
AcDbLayerTableRecord
  2
A-ESCALERA
 70
0
 62
8
  6
Continuous
370
25
390
13
347
21
  0
LAYER
  5
A7
330
1
100
AcDbSymbolTableRecord
100
AcDbLayerTableRecord
  2
A-VEHICULO
 70
0
 62
8
  6
Continuous
370
18
390
13
347
21
  0
LAYER
  5
A8
330
1
100
AcDbSymbolTableRecord
100
AcDbLayerTableRecord
  2
A-MOBILIARIO
 70
0
 62
8
  6
Continuous
370
18
390
13
347
21
  0
LAYER
  5
A9
330
1
100
AcDbSymbolTableRecord
100
AcDbLayerTableRecord
  2
A-DEMARCACION
 70
0
 62
8
  6
DASHED
370
18
390
13
347
21
  0
LAYER
  5
AA
330
1
100
AcDbSymbolTableRecord
100
AcDbLayerTableRecord
  2
A-PROYECCION
 70
0
 62
8
  6
DASHED
370
18
390
13
347
21
  0
LAYER
  5
AB
330
1
100
AcDbSymbolTableRecord
100
AcDbLayerTableRecord
  2
A-EJES
 70
0
 62
8
  6
CENTER
370
13
390
13
347
21
  0
LAYER
  5
AC
330
1
100
AcDbSymbolTableRecord
100
AcDbLayerTableRecord
  2
A-EJES-TXT
 70
0
 62
7
  6
Continuous
370
25
390
13
347
21
  0
LAYER
  5
AD
330
1
100
AcDbSymbolTableRecord
100
AcDbLayerTableRecord
  2
A-COTA-50
 70
0
 62
7
  6
Continuous
370
18
390
13
347
21
  0
LAYER
  5
AE
330
1
100
AcDbSymbolTableRecord
100
AcDbLayerTableRecord
  2
A-TXT-50
 70
0
 62
7
  6
Continuous
370
18
390
13
347
21
  0
LAYER
  5
AF
330
1
100
AcDbSymbolTableRecord
100
AcDbLayerTableRecord
  2
A-ESPACIOS
 70
0
 62
7
  6
Continuous
370
25
390
13
347
21
  0
LAYER
  5
B0
330
1
100
AcDbSymbolTableRecord
100
AcDbLayerTableRecord
  2
A-NIVELES
 70
0
 62
7
  6
Continuous
370
18
390
13
347
21
  0
LAYER
  5
B1
330
1
100
AcDbSymbolTableRecord
100
AcDbLayerTableRecord
  2
A-CORTES
 70
0
 62
7
  6
Continuous
370
35
390
13
347
21
  0
LAYER
  5
B2
330
1
100
AcDbSymbolTableRecord
100
AcDbLayerTableRecord
  2
A-JARDIN
 70
0
 62
8
  6
Continuous
370
9
390
13
347
21
  0
LAYER
  5
B3
330
1
100
AcDbSymbolTableRecord
100
AcDbLayerTableRecord
  2
E-COLUMNA
 70
0
 62
8
  6
Continuous
370
35
390
13
347
21
  0
LAYER
  5
B7
330
1
100
AcDbSymbolTableRecord
100
AcDbLayerTableRecord
  2
S-AF
 70
0
 62
5
  6
Continuous
370
35
390
13
347
21
  0
LAYER
  5
B8
330
1
100
AcDbSymbolTableRecord
100
AcDbLayerTableRecord
  2
S-AC
 70
0
 62
1
  6
DASHED
370
35
390
13
347
21
  0
LAYER
  5
B9
330
1
100
AcDbSymbolTableRecord
100
AcDbLayerTableRecord
  2
S-AN
 70
0
 62
3
  6
Continuous
370
35
390
13
347
21
  0
LAYER
  5
BA
330
1
100
AcDbSymbolTableRecord
100
AcDbLayerTableRecord
  2
S-AJ
 70
0
 62
4
  6
DASHED
370
35
390
13
347
21
  0
LAYER
  5
BB
330
1
100
AcDbSymbolTableRecord
100
AcDbLayerTableRecord
  2
S-AP
 70
0
 62
6
  6
Continuous
370
35
390
13
347
21
  0
LAYER
  5
BC
330
1
100
AcDbSymbolTableRecord
100
AcDbLayerTableRecord
  2
S-ACC
 70
0
 62
7
  6
Continuous
370
25
390
13
347
21
  0
LAYER
  5
BD
330
1
100
AcDbSymbolTableRecord
100
AcDbLayerTableRecord
  2
S-TXT
 70
0
 62
7
  6
Continuous
370
18
390
13
347
21
  0
LAYER
  5
BE
330
1
100
AcDbSymbolTableRecord
100
AcDbLayerTableRecord
  2
S-DET
 70
0
 62
7
  6
Continuous
370
35
390
13
347
21
  0
LAYER
  5
BF
330
1
100
AcDbSymbolTableRecord
100
AcDbLayerTableRecord
  2
S-FINO
 70
0
 62
8
  6
Continuous
370
13
390
13
347
21
  0
LAYER
  5
C0
330
1
100
AcDbSymbolTableRecord
100
AcDbLayerTableRecord
  2
S-TECHO
 70
0
 62
7
  6
Continuous
370
35
390
13
347
21
  0
LAYER
  5
C1
330
1
100
AcDbSymbolTableRecord
100
AcDbLayerTableRecord
  2
S-CUMB
 70
0
 62
8
  6
DASHDOT
370
25
390
13
347
21
  0
ENDTAB
  0
TABLE
  2
STYLE
  5
5
330
0
100
AcDbSymbolTable
 70
27
  0
STYLE
  5
29
330
5
100
AcDbSymbolTableRecord
100
AcDbTextStyleTableRecord
  2
Standard
 70
0
 40
0.0
 41
1.0
 50
0.0
 71
0
 42
2.5
  3
txt
  4

  0
STYLE
  5
41
330
5
100
AcDbSymbolTableRecord
100
AcDbTextStyleTableRecord
  2
OpenSans-Light
 70
0
 40
0.0
 41
1.0
 50
0.0
 71
0
 42
2.5
  3
OpenSans-Light.ttf
  4

  0
STYLE
  5
42
330
5
100
AcDbSymbolTableRecord
100
AcDbTextStyleTableRecord
  2
OpenSans-Light-Italic
 70
0
 40
0.0
 41
1.0
 50
0.0
 71
0
 42
2.5
  3
OpenSans-LightItalic.ttf
  4

  0
STYLE
  5
43
330
5
100
AcDbSymbolTableRecord
100
AcDbTextStyleTableRecord
  2
OpenSans
 70
0
 40
0.0
 41
1.0
 50
0.0
 71
0
 42
2.5
  3
OpenSans-Regular.ttf
  4

  0
STYLE
  5
44
330
5
100
AcDbSymbolTableRecord
100
AcDbTextStyleTableRecord
  2
OpenSans-Italic
 70
0
 40
0.0
 41
1.0
 50
0.0
 71
0
 42
2.5
  3
OpenSans-Italic.ttf
  4

  0
STYLE
  5
45
330
5
100
AcDbSymbolTableRecord
100
AcDbTextStyleTableRecord
  2
OpenSans-SemiBold
 70
0
 40
0.0
 41
1.0
 50
0.0
 71
0
 42
2.5
  3
OpenSans-SemiBold.ttf
  4

  0
STYLE
  5
46
330
5
100
AcDbSymbolTableRecord
100
AcDbTextStyleTableRecord
  2
OpenSans-SemiBoldItalic
 70
0
 40
0.0
 41
1.0
 50
0.0
 71
0
 42
2.5
  3
OpenSans-SemiBoldItalic.ttf
  4

  0
STYLE
  5
47
330
5
100
AcDbSymbolTableRecord
100
AcDbTextStyleTableRecord
  2
OpenSans-Bold
 70
0
 40
0.0
 41
1.0
 50
0.0
 71
0
 42
2.5
  3
OpenSans-Bold.ttf
  4

  0
STYLE
  5
48
330
5
100
AcDbSymbolTableRecord
100
AcDbTextStyleTableRecord
  2
OpenSans-BoldItalic
 70
0
 40
0.0
 41
1.0
 50
0.0
 71
0
 42
2.5
  3
OpenSans-BoldItalic.ttf
  4

  0
STYLE
  5
49
330
5
100
AcDbSymbolTableRecord
100
AcDbTextStyleTableRecord
  2
OpenSans-ExtraBold
 70
0
 40
0.0
 41
1.0
 50
0.0
 71
0
 42
2.5
  3
OpenSans-ExtraBold.ttf
  4

  0
STYLE
  5
4A
330
5
100
AcDbSymbolTableRecord
100
AcDbTextStyleTableRecord
  2
OpenSans-ExtraBoldItalic
 70
0
 40
0.0
 41
1.0
 50
0.0
 71
0
 42
2.5
  3
OpenSans-ExtraBoldItalic.ttf
  4

  0
STYLE
  5
4B
330
5
100
AcDbSymbolTableRecord
100
AcDbTextStyleTableRecord
  2
OpenSansCondensed-Bold
 70
0
 40
0.0
 41
1.0
 50
0.0
 71
0
 42
2.5
  3
OpenSansCondensed-Bold.ttf
  4

  0
STYLE
  5
4C
330
5
100
AcDbSymbolTableRecord
100
AcDbTextStyleTableRecord
  2
OpenSansCondensed-Light
 70
0
 40
0.0
 41
1.0
 50
0.0
 71
0
 42
2.5
  3
OpenSansCondensed-Light.ttf
  4

  0
STYLE
  5
4D
330
5
100
AcDbSymbolTableRecord
100
AcDbTextStyleTableRecord
  2
OpenSansCondensed-Italic
 70
0
 40
0.0
 41
1.0
 50
0.0
 71
0
 42
2.5
  3
OpenSansCondensed-LightItalic.ttf
  4

  0
STYLE
  5
4E
330
5
100
AcDbSymbolTableRecord
100
AcDbTextStyleTableRecord
  2
LiberationSans
 70
0
 40
0.0
 41
1.0
 50
0.0
 71
0
 42
2.5
  3
LiberationSans-Regular.ttf
  4

  0
STYLE
  5
4F
330
5
100
AcDbSymbolTableRecord
100
AcDbTextStyleTableRecord
  2
LiberationSans-Bold
 70
0
 40
0.0
 41
1.0
 50
0.0
 71
0
 42
2.5
  3
LiberationSans-Bold.ttf
  4

  0
STYLE
  5
50
330
5
100
AcDbSymbolTableRecord
100
AcDbTextStyleTableRecord
  2
LiberationSans-BoldItalic
 70
0
 40
0.0
 41
1.0
 50
0.0
 71
0
 42
2.5
  3
LiberationSans-BoldItalic.ttf
  4

  0
STYLE
  5
51
330
5
100
AcDbSymbolTableRecord
100
AcDbTextStyleTableRecord
  2
LiberationSans-Italic
 70
0
 40
0.0
 41
1.0
 50
0.0
 71
0
 42
2.5
  3
LiberationSans-Italic.ttf
  4

  0
STYLE
  5
52
330
5
100
AcDbSymbolTableRecord
100
AcDbTextStyleTableRecord
  2
LiberationSerif
 70
0
 40
0.0
 41
1.0
 50
0.0
 71
0
 42
2.5
  3
LiberationSerif-Regular.ttf
  4

  0
STYLE
  5
53
330
5
100
AcDbSymbolTableRecord
100
AcDbTextStyleTableRecord
  2
LiberationSerif-Bold
 70
0
 40
0.0
 41
1.0
 50
0.0
 71
0
 42
2.5
  3
LiberationSerif-Bold.ttf
  4

  0
STYLE
  5
54
330
5
100
AcDbSymbolTableRecord
100
AcDbTextStyleTableRecord
  2
LiberationSerif-BoldItalic
 70
0
 40
0.0
 41
1.0
 50
0.0
 71
0
 42
2.5
  3
LiberationSerif-BoldItalic.ttf
  4

  0
STYLE
  5
55
330
5
100
AcDbSymbolTableRecord
100
AcDbTextStyleTableRecord
  2
LiberationSerif-Italic
 70
0
 40
0.0
 41
1.0
 50
0.0
 71
0
 42
2.5
  3
LiberationSerif-Italic.ttf
  4

  0
STYLE
  5
56
330
5
100
AcDbSymbolTableRecord
100
AcDbTextStyleTableRecord
  2
LiberationMono
 70
0
 40
0.0
 41
1.0
 50
0.0
 71
0
 42
2.5
  3
LiberationMono-Regular.ttf
  4

  0
STYLE
  5
57
330
5
100
AcDbSymbolTableRecord
100
AcDbTextStyleTableRecord
  2
LiberationMono-Bold
 70
0
 40
0.0
 41
1.0
 50
0.0
 71
0
 42
2.5
  3
LiberationMono-Bold.ttf
  4

  0
STYLE
  5
58
330
5
100
AcDbSymbolTableRecord
100
AcDbTextStyleTableRecord
  2
LiberationMono-BoldItalic
 70
0
 40
0.0
 41
1.0
 50
0.0
 71
0
 42
2.5
  3
LiberationMono-BoldItalic.ttf
  4

  0
STYLE
  5
59
330
5
100
AcDbSymbolTableRecord
100
AcDbTextStyleTableRecord
  2
LiberationMono-Italic
 70
0
 40
0.0
 41
1.0
 50
0.0
 71
0
 42
2.5
  3
LiberationMono-Italic.ttf
  4

  0
STYLE
  5
8A
330
5
100
AcDbSymbolTableRecord
100
AcDbTextStyleTableRecord
  2
ARIAL
 70
0
 40
0.0
 41
1.0
 50
0.0
 71
0
 42
2.5
  3
arial.ttf
  4

  0
ENDTAB
  0
TABLE
  2
VIEW
  5
7
330
0
100
AcDbSymbolTable
 70
0
  0
ENDTAB
  0
TABLE
  2
UCS
  5
6
330
0
100
AcDbSymbolTable
 70
0
  0
ENDTAB
  0
TABLE
  2
APPID
  5
3
330
0
100
AcDbSymbolTable
 70
3
  0
APPID
  5
2A
330
3
100
AcDbSymbolTableRecord
100
AcDbRegAppTableRecord
  2
ACAD
 70
0
  0
APPID
  5
351
330
3
100
AcDbSymbolTableRecord
100
AcDbRegAppTableRecord
  2
HATCHBACKGROUNDCOLOR
 70
0
  0
APPID
  5
352
330
3
100
AcDbSymbolTableRecord
100
AcDbRegAppTableRecord
  2
EZDXF
 70
0
  0
ENDTAB
  0
TABLE
  2
DIMSTYLE
  5
4
330
0
100
AcDbSymbolTable
 70
15
100
AcDbDimStyleTable
  0
DIMSTYLE
105
2B
330
4
100
AcDbSymbolTableRecord
100
AcDbDimStyleTableRecord
  2
Standard
 70
0
 40
1.0
 41
2.5
 42
0.625
 43
3.75
 44
1.25
 45
0.0
 46
0.0
 47
0.0
 48
0.0
 49
2.5
140
2.5
141
2.5
142
0.0
143
0.03937007874
144
1.0
145
0.0
146
1.0
147
0.625
148
0.0
 69
0
 70
0
 71
0
 72
0
 73
0
 74
0
 75
0
 76
0
 77
1
 78
8
 79
3
170
0
171
3
172
1
173
0
174
0
175
0
176
0
177
0
178
0
179
2
271
2
272
2
273
2
274
3
275
0
276
0
277
2
278
44
279
0
280
0
281
0
282
0
283
0
284
8
285
0
286
0
288
0
289
3
290
0
371
-2
372
-2
  0
DIMSTYLE
105
73
330
4
100
AcDbSymbolTableRecord
100
AcDbDimStyleTableRecord
  2
EZDXF
 70
0
 40
1.0
 41
0.175
 42
0.125
 43
3.75
 44
0.375
 45
0.0
 46
0.0
 47
0.0
 48
0.0
 49
2.5
140
0.25
141
2.5
142
0.0
143
0.03937007874
144
100.0
145
0.0
146
0.5
147
0.1
148
0.0
 69
0
 70
0
 71
0
 72
0
 73
0
 74
0
 75
0
 76
0
 77
1
 78
12
 79
3
170
0
171
3
172
1
173
0
174
0
175
0
176
0
177
0
178
0
179
2
271
2
272
2
273
2
274
3
275
0
276
0
277
2
278
46
279
2
280
0
281
0
282
0
283
0
284
8
285
0
286
0
288
1
289
3
290
0
340
4C
342
74
371
-2
372
-2
  0
DIMSTYLE
105
7C
330
4
100
AcDbSymbolTableRecord
100
AcDbDimStyleTableRecord
  2
EZ_M_100_H25_CM
 70
0
 40
1.0
 41
0.25
 42
0.125
 43
3.75
 44
0.375
 45
0.0
 46
0.0
 47
0.0
 48
0.0
 49
2.5
140
0.25
141
2.5
142
0.125
143
0.03937007874
144
100.0
145
0.0
146
0.5
147
0.1
148
0.0
 69
0
 70
0
 71
0
 72
0
 73
0
 74
0
 75
0
 76
0
 77
1
 78
12
 79
3
170
0
171
3
172
1
173
0
174
0
175
0
176
0
177
0
178
0
179
2
271
2
272
2
273
2
274
3
275
0
276
0
277
2
278
46
279
2
280
0
281
0
282
0
283
0
284
8
285
0
286
0
288
1
289
3
290
0
340
4C
371
-2
372
-2
  0
DIMSTYLE
105
7D
330
4
100
AcDbSymbolTableRecord
100
AcDbDimStyleTableRecord
  2
EZ_M_50_H25_CM
 70
0
 40
1.0
 41
0.125
 42
0.0625
 43
3.75
 44
0.1875
 45
0.0
 46
0.0
 47
0.0
 48
0.0
 49
2.5
140
0.125
141
2.5
142
0.0625
143
0.03937007874
144
100.0
145
0.0
146
0.5
147
0.05
148
0.0
 69
0
 70
0
 71
0
 72
0
 73
0
 74
0
 75
0
 76
0
 77
1
 78
12
 79
3
170
0
171
3
172
1
173
0
174
0
175
0
176
0
177
0
178
0
179
2
271
2
272
2
273
2
274
3
275
0
276
0
277
2
278
46
279
2
280
0
281
0
282
0
283
0
284
8
285
0
286
0
288
1
289
3
290
0
340
4C
371
-2
372
-2
  0
DIMSTYLE
105
7E
330
4
100
AcDbSymbolTableRecord
100
AcDbDimStyleTableRecord
  2
EZ_M_25_H25_CM
 70
0
 40
1.0
 41
0.0625
 42
0.03125
 43
3.75
 44
0.09375
 45
0.0
 46
0.0
 47
0.0
 48
0.0
 49
2.5
140
0.0625
141
2.5
142
0.03125
143
0.03937007874
144
100.0
145
0.0
146
0.5
147
0.025
148
0.0
 69
0
 70
0
 71
0
 72
0
 73
0
 74
0
 75
0
 76
0
 77
1
 78
12
 79
3
170
0
171
3
172
1
173
0
174
0
175
0
176
0
177
0
178
0
179
2
271
2
272
2
273
2
274
3
275
0
276
0
277
2
278
46
279
2
280
0
281
0
282
0
283
0
284
8
285
0
286
0
288
1
289
3
290
0
340
4C
371
-2
372
-2
  0
DIMSTYLE
105
7F
330
4
100
AcDbSymbolTableRecord
100
AcDbDimStyleTableRecord
  2
EZ_M_20_H25_CM
 70
0
 40
1.0
 41
0.05
 42
0.025
 43
3.75
 44
0.07500000000000001
 45
0.0
 46
0.0
 47
0.0
 48
0.0
 49
2.5
140
0.05
141
2.5
142
0.025
143
0.03937007874
144
100.0
145
0.0
146
0.5
147
0.020000000000000004
148
0.0
 69
0
 70
0
 71
0
 72
0
 73
0
 74
0
 75
0
 76
0
 77
1
 78
12
 79
3
170
0
171
3
172
1
173
0
174
0
175
0
176
0
177
0
178
0
179
2
271
2
272
2
273
2
274
3
275
0
276
0
277
2
278
46
279
2
280
0
281
0
282
0
283
0
284
8
285
0
286
0
288
1
289
3
290
0
340
4C
371
-2
372
-2
  0
DIMSTYLE
105
80
330
4
100
AcDbSymbolTableRecord
100
AcDbDimStyleTableRecord
  2
EZ_M_10_H25_CM
 70
0
 40
1.0
 41
0.025
 42
0.0125
 43
3.75
 44
0.037500000000000006
 45
0.0
 46
0.0
 47
0.0
 48
0.0
 49
2.5
140
0.025
141
2.5
142
0.0125
143
0.03937007874
144
100.0
145
0.0
146
0.5
147
0.010000000000000002
148
0.0
 69
0
 70
0
 71
0
 72
0
 73
0
 74
0
 75
0
 76
0
 77
1
 78
12
 79
3
170
0
171
3
172
1
173
0
174
0
175
0
176
0
177
0
178
0
179
2
271
2
272
2
273
2
274
3
275
0
276
0
277
2
278
46
279
2
280
0
281
0
282
0
283
0
284
8
285
0
286
0
288
1
289
3
290
0
340
4C
371
-2
372
-2
  0
DIMSTYLE
105
81
330
4
100
AcDbSymbolTableRecord
100
AcDbDimStyleTableRecord
  2
EZ_M_5_H25_CM
 70
0
 40
1.0
 41
0.0125
 42
0.00625
 43
3.75
 44
0.018750000000000003
 45
0.0
 46
0.0
 47
0.0
 48
0.0
 49
2.5
140
0.0125
141
2.5
142
0.00625
143
0.03937007874
144
100.0
145
0.0
146
0.5
147
0.005000000000000001
148
0.0
 69
0
 70
0
 71
0
 72
0
 73
0
 74
0
 75
0
 76
0
 77
1
 78
12
 79
3
170
0
171
3
172
1
173
0
174
0
175
0
176
0
177
0
178
0
179
2
271
2
272
2
273
2
274
3
275
0
276
0
277
2
278
46
279
2
280
0
281
0
282
0
283
0
284
8
285
0
286
0
288
1
289
3
290
0
340
4C
371
-2
372
-2
  0
DIMSTYLE
105
82
330
4
100
AcDbSymbolTableRecord
100
AcDbDimStyleTableRecord
  2
EZ_M_1_H25_CM
 70
0
 40
1.0
 41
0.0025
 42
0.00125
 43
3.75
 44
0.00375
 45
0.0
 46
0.0
 47
0.0
 48
0.0
 49
2.5
140
0.0025
141
2.5
142
0.00125
143
0.03937007874
144
100.0
145
0.0
146
0.5
147
0.001
148
0.0
 69
0
 70
0
 71
0
 72
0
 73
0
 74
0
 75
0
 76
0
 77
1
 78
12
 79
3
170
0
171
3
172
1
173
0
174
0
175
0
176
0
177
0
178
0
179
2
271
2
272
2
273
2
274
3
275
0
276
0
277
2
278
46
279
2
280
0
281
0
282
0
283
0
284
8
285
0
286
0
288
1
289
3
290
0
340
4C
371
-2
372
-2
  0
DIMSTYLE
105
83
330
4
100
AcDbSymbolTableRecord
100
AcDbDimStyleTableRecord
  2
EZ_RADIUS
 70
0
 40
1.0
 41
0.25
 42
0.125
 43
3.75
 44
0.375
 45
0.0
 46
0.0
 47
0.0
 48
0.0
 49
2.5
140
0.25
141
0.0
142
0.0
143
0.03937007874
144
100.0
145
0.0
146
0.5
147
0.1
148
0.0
 69
0
 70
0
 71
0
 72
0
 73
0
 74
0
 75
0
 76
0
 77
1
 78
12
 79
3
170
0
171
3
172
0
173
0
174
0
175
0
176
0
177
0
178
0
179
2
271
2
272
2
273
2
274
3
275
0
276
0
277
2
278
46
279
1
280
0
281
0
282
0
283
0
284
8
285
0
286
0
288
1
289
3
290
0
340
4C
342
84
371
-2
372
-2
  0
DIMSTYLE
105
88
330
4
100
AcDbSymbolTableRecord
100
AcDbDimStyleTableRecord
  2
EZ_RADIUS_INSIDE
 70
0
 40
1.0
 41
0.25
 42
0.125
 43
3.75
 44
0.375
 45
0.0
 46
0.0
 47
0.0
 48
0.0
 49
2.5
140
0.25
141
0.0
142
0.0
143
0.03937007874
144
100.0
145
0.0
146
0.5
147
0.1
148
0.0
 69
0
 70
0
 71
0
 72
0
 73
0
 74
0
 75
0
 76
0
 77
0
 78
12
 79
3
170
0
171
3
172
0
173
0
174
1
175
0
176
0
177
0
178
0
179
2
271
2
272
2
273
2
274
3
275
0
276
0
277
2
278
46
279
0
280
0
281
0
282
0
283
0
284
8
285
0
286
0
288
1
289
0
290
0
340
4C
342
84
371
-2
372
-2
  0
DIMSTYLE
105
89
330
4
100
AcDbSymbolTableRecord
100
AcDbDimStyleTableRecord
  2
EZ_CURVED
 70
0
 40
1.0
 41
0.25
 42
0.125
 43
3.75
 44
0.375
 45
0.0
 46
0.0
 47
0.0
 48
0.0
 49
2.5
140
0.25
141
2.5
142
0.0
143
0.03937007874
144
100.0
145
0.0
146
0.5
147
0.1
148
0.0
 69
0
 70
0
 71
0
 72
0
 73
0
 74
0
 75
0
 76
0
 77
1
 78
12
 79
2
 90
2
170
0
171
3
172
1
173
0
174
0
175
0
176
0
177
0
178
0
179
2
271
2
272
2
273
2
274
3
275
0
276
0
277
2
278
46
279
2
280
0
281
0
282
0
283
0
284
8
285
0
286
0
288
1
289
3
290
0
340
4C
371
-2
372
-2
  0
DIMSTYLE
105
B4
330
4
100
AcDbSymbolTableRecord
100
AcDbDimStyleTableRecord
  2
COTA-50
 70
0
 40
1.0
 41
0.06
 42
0.05
 43
3.75
 44
0.05
 45
0.0
 46
0.05
 47
0.0
 48
0.0
 49
2.5
140
0.11000000000000001
141
2.5
142
0.06
143
0.03937007874
144
1.0
145
0.0
146
1.0
147
0.04000000000000001
148
0.0
 69
0
 70
0
 71
0
 72
0
 73
0
 74
0
 75
0
 76
0
 77
1
 78
0
 79
3
170
0
171
3
172
1
173
0
174
0
175
0
176
7
177
7
178
7
179
2
271
2
272
2
273
2
274
3
275
0
276
0
277
2
278
46
279
0
280
0
281
0
282
0
283
0
284
8
285
0
286
0
288
0
289
3
290
0
340
8A
371
18
372
13
  0
DIMSTYLE
105
B5
330
4
100
AcDbSymbolTableRecord
100
AcDbDimStyleTableRecord
  2
COTA-100
 70
0
 40
1.0
 41
0.12
 42
0.1
 43
3.75
 44
0.1
 45
0.0
 46
0.1
 47
0.0
 48
0.0
 49
2.5
140
0.22000000000000003
141
2.5
142
0.12
143
0.03937007874
144
1.0
145
0.0
146
1.0
147
0.08000000000000002
148
0.0
 69
0
 70
0
 71
0
 72
0
 73
0
 74
0
 75
0
 76
0
 77
1
 78
0
 79
3
170
0
171
3
172
1
173
0
174
0
175
0
176
7
177
7
178
7
179
2
271
2
272
2
273
2
274
3
275
0
276
0
277
2
278
46
279
0
280
0
281
0
282
0
283
0
284
8
285
0
286
0
288
0
289
3
290
0
340
8A
371
18
372
13
  0
DIMSTYLE
105
B6
330
4
100
AcDbSymbolTableRecord
100
AcDbDimStyleTableRecord
  2
COTA-200
 70
0
 40
1.0
 41
0.24
 42
0.2
 43
3.75
 44
0.2
 45
0.0
 46
0.2
 47
0.0
 48
0.0
 49
2.5
140
0.44000000000000006
141
2.5
142
0.24
143
0.03937007874
144
1.0
145
0.0
146
1.0
147
0.16000000000000003
148
0.0
 69
0
 70
0
 71
0
 72
0
 73
0
 74
0
 75
0
 76
0
 77
1
 78
0
 79
3
170
0
171
3
172
1
173
0
174
0
175
0
176
7
177
7
178
7
179
2
271
2
272
2
273
2
274
3
275
0
276
0
277
2
278
46
279
0
280
0
281
0
282
0
283
0
284
8
285
0
286
0
288
0
289
3
290
0
340
8A
371
18
372
13
  0
ENDTAB
  0
TABLE
  2
BLOCK_RECORD
  5
9
330
0
100
AcDbSymbolTable
 70
7
  0
BLOCK_RECORD
  5
17
330
9
100
AcDbSymbolTableRecord
100
AcDbBlockTableRecord
  2
*Model_Space
340
1A
 70
0
280
1
281
0
  0
BLOCK_RECORD
  5
74
330
9
100
AcDbSymbolTableRecord
100
AcDbBlockTableRecord
  2
_ARCHTICK
340
0
 70
0
280
1
281
0
  0
BLOCK_RECORD
  5
78
330
9
100
AcDbSymbolTableRecord
100
AcDbBlockTableRecord
  2
_CLOSEDFILLED
340
0
 70
0
280
1
281
0
  0
BLOCK_RECORD
  5
84
330
9
100
AcDbSymbolTableRecord
100
AcDbBlockTableRecord
  2
_CLOSEDBLANK
340
0
 70
0
280
1
281
0
  0
BLOCK_RECORD
  5
1F7
330
9
100
AcDbSymbolTableRecord
100
AcDbBlockTableRecord
  2
*Paper_Space
340
1FA
 70
0
280
1
281
0
  0
BLOCK_RECORD
  5
1B
330
9
100
AcDbSymbolTableRecord
100
AcDbBlockTableRecord
  2
*Paper_Space0
340
1E
 70
0
280
1
281
0
  0
BLOCK_RECORD
  5
2E5
330
9
100
AcDbSymbolTableRecord
100
AcDbBlockTableRecord
  2
CAJETIN_A1
340
0
 70
0
280
1
281
0
  0
ENDTAB
  0
ENDSEC
  0
SECTION
  2
BLOCKS
  0
BLOCK
  5
18
330
17
100
AcDbEntity
  8
0
100
AcDbBlockBegin
  2
*Model_Space
 70
0
 10
0.0
 20
0.0
 30
0.0
  3
*Model_Space
  1

  0
ENDBLK
  5
19
330
17
100
AcDbEntity
  8
0
100
AcDbBlockEnd
  0
BLOCK
  5
75
330
74
100
AcDbEntity
  8
0
100
AcDbBlockBegin
  2
_ARCHTICK
 70
0
 10
0.0
 20
0.0
 30
0.0
  3
_ARCHTICK
  1

  0
LWPOLYLINE
  5
77
330
74
100
AcDbEntity
  8
0
  6
BYBLOCK
 62
0
100
AcDbPolyline
 90
2
 70
0
 43
0.15
 10
-0.5
 20
-0.5
 10
0.5
 20
0.5
  0
ENDBLK
  5
76
330
74
100
AcDbEntity
  8
0
100
AcDbBlockEnd
  0
BLOCK
  5
79
330
78
100
AcDbEntity
  8
0
100
AcDbBlockBegin
  2
_CLOSEDFILLED
 70
0
 10
0.0
 20
0.0
 30
0.0
  3
_CLOSEDFILLED
  1

  0
SOLID
  5
7B
330
78
100
AcDbEntity
  8
0
  6
BYBLOCK
 62
0
100
AcDbTrace
 10
-1.0
 20
0.16439898372402537
 30
0.0
 11
0.0
 21
0.0
 31
0.0
 12
-1.0
 22
-0.16439898372402537
 32
0.0
 13
-1.0
 23
-0.16439898372402537
 33
0.0
  0
ENDBLK
  5
7A
330
78
100
AcDbEntity
  8
0
100
AcDbBlockEnd
  0
BLOCK
  5
85
330
84
100
AcDbEntity
  8
0
100
AcDbBlockBegin
  2
_CLOSEDBLANK
 70
0
 10
0.0
 20
0.0
 30
0.0
  3
_CLOSEDBLANK
  1

  0
LWPOLYLINE
  5
87
330
84
100
AcDbEntity
  8
0
  6
BYBLOCK
 62
0
100
AcDbPolyline
 90
3
 70
1
 10
-1.0
 20
0.16439898372402537
 10
0.0
 20
0.0
 10
-1.0
 20
-0.16439898372402537
  0
ENDBLK
  5
86
330
84
100
AcDbEntity
  8
0
100
AcDbBlockEnd
  0
BLOCK
  5
1F8
330
1F7
100
AcDbEntity
  8
0
100
AcDbBlockBegin
  2
*Paper_Space
 70
0
 10
0.0
 20
0.0
 30
0.0
  3
*Paper_Space
  1

  0
ENDBLK
  5
1F9
330
1F7
100
AcDbEntity
  8
0
100
AcDbBlockEnd
  0
BLOCK
  5
1C
330
1B
100
AcDbEntity
  8
0
100
AcDbBlockBegin
  2
*Paper_Space0
 70
0
 10
0.0
 20
0.0
 30
0.0
  3
*Paper_Space0
  1

  0
ENDBLK
  5
1D
330
1B
100
AcDbEntity
  8
0
100
AcDbBlockEnd
  0
BLOCK
  5
2E6
330
2E5
100
AcDbEntity
  8
0
100
AcDbBlockBegin
  2
CAJETIN_A1
 70
2
 10
0.0
 20
0.0
 30
0.0
  3
CAJETIN_A1
  1

  0
LWPOLYLINE
  5
2E8
330
2E5
100
AcDbEntity
  8
0
100
AcDbPolyline
 90
4
 70
1
 10
0.0
 20
0.0
 10
120.0
 20
0.0
 10
120.0
 20
574.0
 10
0.0
 20
574.0
  0
TEXT
  5
2E9
330
2E5
100
AcDbEntity
  8
0
100
AcDbText
 10
3.0
 20
571.0
 30
0.0
 40
2.0
  1
ESPACIO PARA SELLOS Y TIMBRES
  7
ARIAL
 11
3.0
 21
571.0
 31
0.0
100
AcDbText
 73
3
  0
LINE
  5
2EA
330
2E5
100
AcDbEntity
  8
0
100
AcDbLine
 10
0.0
 20
255.6
 30
0.0
 11
120.0
 21
255.6
 31
0.0
  0
ATTDEF
  5
2EB
330
2E5
100
AcDbEntity
  8
0
100
AcDbText
 10
60.0
 20
251.6
 30
0.0
 40
3.2
  1

  7
ARIAL
 72
1
 11
60.0
 21
251.6
 31
0.0
100
AcDbAttributeDefinition
  3

  2
EMPRESA
 70
0
 74
3
 71
1
 72
0
 11
60.0
 21
251.6
 31
0.0
  0
ATTDEF
  5
2EC
330
2E5
100
AcDbEntity
  8
0
100
AcDbText
 10
60.0
 20
245.6
 30
0.0
 40
2.5
  1

  7
ARIAL
 72
1
 11
60.0
 21
245.6
 31
0.0
100
AcDbAttributeDefinition
  3

  2
EMPRESA_CED
 70
0
 74
3
 71
1
 72
0
 11
60.0
 21
245.6
 31
0.0
  0
LINE
  5
2ED
330
2E5
100
AcDbEntity
  8
0
100
AcDbLine
 10
0.0
 20
237.6
 30
0.0
 11
120.0
 21
237.6
 31
0.0
  0
TEXT
  5
2EE
330
2E5
100
AcDbEntity
  8
0
100
AcDbText
 10
3.0
 20
235.1
 30
0.0
 40
2.2
  1
PROFESIONAL RESPONSABLE:
  7
ARIAL
 11
3.0
 21
235.1
 31
0.0
100
AcDbText
 73
3
  0
ATTDEF
  5
2EF
330
2E5
100
AcDbEntity
  8
0
100
AcDbText
 10
3.0
 20
230.1
 30
0.0
 40
2.6
  1

  7
ARIAL
 11
3.0
 21
230.1
 31
0.0
100
AcDbAttributeDefinition
  3

  2
PROF_1
 70
0
 74
3
 71
1
 72
0
 11
3.0
 21
230.1
 31
0.0
  0
ATTDEF
  5
2F0
330
2E5
100
AcDbEntity
  8
0
100
AcDbText
 10
3.0
 20
225.6
 30
0.0
 40
2.6
  1

  7
ARIAL
 11
3.0
 21
225.6
 31
0.0
100
AcDbAttributeDefinition
  3

  2
PROF_2
 70
0
 74
3
 71
1
 72
0
 11
3.0
 21
225.6
 31
0.0
  0
ATTDEF
  5
2F1
330
2E5
100
AcDbEntity
  8
0
100
AcDbText
 10
3.0
 20
221.1
 30
0.0
 40
2.6
  1

  7
ARIAL
 11
3.0
 21
221.1
 31
0.0
100
AcDbAttributeDefinition
  3

  2
PROF_3
 70
0
 74
3
 71
1
 72
0
 11
3.0
 21
221.1
 31
0.0
  0
LINE
  5
2F2
330
2E5
100
AcDbEntity
  8
0
100
AcDbLine
 10
0.0
 20
215.6
 30
0.0
 11
120.0
 21
215.6
 31
0.0
  0
TEXT
  5
2F3
330
2E5
100
AcDbEntity
  8
0
100
AcDbText
 10
3.0
 20
213.1
 30
0.0
 40
2.2
  1
PROYECTO:
  7
ARIAL
 11
3.0
 21
213.1
 31
0.0
100
AcDbText
 73
3
  0
ATTDEF
  5
2F4
330
2E5
100
AcDbEntity
  8
0
100
AcDbText
 10
3.0
 20
208.1
 30
0.0
 40
4.2
  1

  7
ARIAL
 11
3.0
 21
208.1
 31
0.0
100
AcDbAttributeDefinition
  3

  2
PROYECTO
 70
0
 74
3
 71
1
 72
0
 11
3.0
 21
208.1
 31
0.0
  0
ATTDEF
  5
2F5
330
2E5
100
AcDbEntity
  8
0
100
AcDbText
 10
3.0
 20
201.1
 30
0.0
 40
2.5
  1

  7
ARIAL
 11
3.0
 21
201.1
 31
0.0
100
AcDbAttributeDefinition
  3

  2
UBIC_1
 70
0
 74
3
 71
1
 72
0
 11
3.0
 21
201.1
 31
0.0
  0
ATTDEF
  5
2F6
330
2E5
100
AcDbEntity
  8
0
100
AcDbText
 10
3.0
 20
196.6
 30
0.0
 40
2.5
  1

  7
ARIAL
 11
3.0
 21
196.6
 31
0.0
100
AcDbAttributeDefinition
  3

  2
UBIC_2
 70
0
 74
3
 71
1
 72
0
 11
3.0
 21
196.6
 31
0.0
  0
ATTDEF
  5
2F7
330
2E5
100
AcDbEntity
  8
0
100
AcDbText
 10
3.0
 20
192.1
 30
0.0
 40
2.5
  1

  7
ARIAL
 11
3.0
 21
192.1
 31
0.0
100
AcDbAttributeDefinition
  3

  2
UBIC_3
 70
0
 74
3
 71
1
 72
0
 11
3.0
 21
192.1
 31
0.0
  0
LINE
  5
2F8
330
2E5
100
AcDbEntity
  8
0
100
AcDbLine
 10
0.0
 20
186.6
 30
0.0
 11
120.0
 21
186.6
 31
0.0
  0
TEXT
  5
2F9
330
2E5
100
AcDbEntity
  8
0
100
AcDbText
 10
3.0
 20
184.1
 30
0.0
 40
2.2
  1
INFORMACIÓN REGISTRO PÚBLICO:
  7
ARIAL
 11
3.0
 21
184.1
 31
0.0
100
AcDbText
 73
3
  0
ATTDEF
  5
2FA
330
2E5
100
AcDbEntity
  8
0
100
AcDbText
 10
3.0
 20
179.1
 30
0.0
 40
2.5
  1

  7
ARIAL
 11
3.0
 21
179.1
 31
0.0
100
AcDbAttributeDefinition
  3

  2
REG_1
 70
0
 74
3
 71
1
 72
0
 11
3.0
 21
179.1
 31
0.0
  0
ATTDEF
  5
2FB
330
2E5
100
AcDbEntity
  8
0
100
AcDbText
 10
3.0
 20
174.6
 30
0.0
 40
2.5
  1

  7
ARIAL
 11
3.0
 21
174.6
 31
0.0
100
AcDbAttributeDefinition
  3

  2
REG_2
 70
0
 74
3
 71
1
 72
0
 11
3.0
 21
174.6
 31
0.0
  0
ATTDEF
  5
2FC
330
2E5
100
AcDbEntity
  8
0
100
AcDbText
 10
3.0
 20
170.1
 30
0.0
 40
2.5
  1

  7
ARIAL
 11
3.0
 21
170.1
 31
0.0
100
AcDbAttributeDefinition
  3

  2
REG_3
 70
0
 74
3
 71
1
 72
0
 11
3.0
 21
170.1
 31
0.0
  0
LINE
  5
2FD
330
2E5
100
AcDbEntity
  8
0
100
AcDbLine
 10
0.0
 20
164.6
 30
0.0
 11
120.0
 21
164.6
 31
0.0
  0
TEXT
  5
2FE
330
2E5
100
AcDbEntity
  8
0
100
AcDbText
 10
3.0
 20
162.1
 30
0.0
 40
2.2
  1
CONTENIDO:
  7
ARIAL
 11
3.0
 21
162.1
 31
0.0
100
AcDbText
 73
3
  0
ATTDEF
  5
2FF
330
2E5
100
AcDbEntity
  8
0
100
AcDbText
 10
3.0
 20
157.1
 30
0.0
 40
5.0
  1

  7
ARIAL
 11
3.0
 21
157.1
 31
0.0
100
AcDbAttributeDefinition
  3

  2
CONT_TIT
 70
0
 74
3
 71
1
 72
0
 11
3.0
 21
157.1
 31
0.0
  0
ATTDEF
  5
300
330
2E5
100
AcDbEntity
  8
0
100
AcDbText
 10
3.0
 20
149.6
 30
0.0
 40
3.0
  1

  7
ARIAL
 11
3.0
 21
149.6
 31
0.0
100
AcDbAttributeDefinition
  3

  2
CONT_1
 70
0
 74
3
 71
1
 72
0
 11
3.0
 21
149.6
 31
0.0
  0
ATTDEF
  5
301
330
2E5
100
AcDbEntity
  8
0
100
AcDbText
 10
3.0
 20
144.1
 30
0.0
 40
3.0
  1

  7
ARIAL
 11
3.0
 21
144.1
 31
0.0
100
AcDbAttributeDefinition
  3

  2
CONT_2
 70
0
 74
3
 71
1
 72
0
 11
3.0
 21
144.1
 31
0.0
  0
ATTDEF
  5
302
330
2E5
100
AcDbEntity
  8
0
100
AcDbText
 10
3.0
 20
138.6
 30
0.0
 40
3.0
  1

  7
ARIAL
 11
3.0
 21
138.6
 31
0.0
100
AcDbAttributeDefinition
  3

  2
CONT_3
 70
0
 74
3
 71
1
 72
0
 11
3.0
 21
138.6
 31
0.0
  0
ATTDEF
  5
303
330
2E5
100
AcDbEntity
  8
0
100
AcDbText
 10
3.0
 20
133.1
 30
0.0
 40
3.0
  1

  7
ARIAL
 11
3.0
 21
133.1
 31
0.0
100
AcDbAttributeDefinition
  3

  2
CONT_4
 70
0
 74
3
 71
1
 72
0
 11
3.0
 21
133.1
 31
0.0
  0
ATTDEF
  5
304
330
2E5
100
AcDbEntity
  8
0
100
AcDbText
 10
3.0
 20
127.6
 30
0.0
 40
3.0
  1

  7
ARIAL
 11
3.0
 21
127.6
 31
0.0
100
AcDbAttributeDefinition
  3

  2
CONT_5
 70
0
 74
3
 71
1
 72
0
 11
3.0
 21
127.6
 31
0.0
  0
ATTDEF
  5
305
330
2E5
100
AcDbEntity
  8
0
100
AcDbText
 10
3.0
 20
122.1
 30
0.0
 40
3.0
  1

  7
ARIAL
 11
3.0
 21
122.1
 31
0.0
100
AcDbAttributeDefinition
  3

  2
CONT_6
 70
0
 74
3
 71
1
 72
0
 11
3.0
 21
122.1
 31
0.0
  0
LINE
  5
306
330
2E5
100
AcDbEntity
  8
0
100
AcDbLine
 10
0.0
 20
114.6
 30
0.0
 11
120.0
 21
114.6
 31
0.0
  0
TEXT
  5
307
330
2E5
100
AcDbEntity
  8
0
100
AcDbText
 10
3.0
 20
112.1
 30
0.0
 40
2.2
  1
ESCALAS:
  7
ARIAL
 11
3.0
 21
112.1
 31
0.0
100
AcDbText
 73
3
  0
ATTDEF
  5
308
330
2E5
100
AcDbEntity
  8
0
100
AcDbText
 10
25.0
 20
112.1
 30
0.0
 40
2.2
  1

  7
ARIAL
 11
25.0
 21
112.1
 31
0.0
100
AcDbAttributeDefinition
  3

  2
ESCALAS
 70
0
 74
3
 71
1
 72
0
 11
25.0
 21
112.1
 31
0.0
  0
LINE
  5
309
330
2E5
100
AcDbEntity
  8
0
100
AcDbLine
 10
0.0
 20
107.6
 30
0.0
 11
120.0
 21
107.6
 31
0.0
  0
TEXT
  5
30A
330
2E5
100
AcDbEntity
  8
0
100
AcDbText
 10
3.0
 20
105.6
 30
0.0
 40
2.2
  1
CONTROL DE REVISIONES
  7
ARIAL
 11
3.0
 21
105.6
 31
0.0
100
AcDbText
 73
3
  0
LINE
  5
30B
330
2E5
100
AcDbEntity
  8
0
100
AcDbLine
 10
0.0
 20
101.6
 30
0.0
 11
120.0
 21
101.6
 31
0.0
  0
TEXT
  5
30C
330
2E5
100
AcDbEntity
  8
0
100
AcDbText
 10
6.0
 20
99.1
 30
0.0
 40
2.0
  1
REV.
  7
ARIAL
 72
1
 11
6.0
 21
99.1
 31
0.0
100
AcDbText
 73
2
  0
TEXT
  5
30D
330
2E5
100
AcDbEntity
  8
0
100
AcDbText
 10
23.0
 20
99.1
 30
0.0
 40
2.0
  1
FECHA
  7
ARIAL
 72
1
 11
23.0
 21
99.1
 31
0.0
100
AcDbText
 73
2
  0
TEXT
  5
30E
330
2E5
100
AcDbEntity
  8
0
100
AcDbText
 10
77.0
 20
99.1
 30
0.0
 40
2.0
  1
DESCRIPCIÓN
  7
ARIAL
 72
1
 11
77.0
 21
99.1
 31
0.0
100
AcDbText
 73
2
  0
LINE
  5
30F
330
2E5
100
AcDbEntity
  8
0
100
AcDbLine
 10
0.0
 20
96.6
 30
0.0
 11
120.0
 21
96.6
 31
0.0
  0
ATTDEF
  5
310
330
2E5
100
AcDbEntity
  8
0
100
AcDbText
 10
6.0
 20
94.0
 30
0.0
 40
2.0
  1

  7
ARIAL
 72
1
 11
6.0
 21
94.0
 31
0.0
100
AcDbAttributeDefinition
  3

  2
REV0_N
 70
0
 74
2
 71
1
 72
0
 11
6.0
 21
94.0
 31
0.0
  0
ATTDEF
  5
311
330
2E5
100
AcDbEntity
  8
0
100
AcDbText
 10
23.0
 20
94.0
 30
0.0
 40
2.0
  1

  7
ARIAL
 72
1
 11
23.0
 21
94.0
 31
0.0
100
AcDbAttributeDefinition
  3

  2
REV0_F
 70
0
 74
2
 71
1
 72
0
 11
23.0
 21
94.0
 31
0.0
  0
ATTDEF
  5
312
330
2E5
100
AcDbEntity
  8
0
100
AcDbText
 10
35.5
 20
94.0
 30
0.0
 40
2.0
  1

  7
ARIAL
 11
35.5
 21
94.0
 31
0.0
100
AcDbAttributeDefinition
  3

  2
REV0_D
 70
0
 74
2
 71
1
 72
0
 11
35.5
 21
94.0
 31
0.0
  0
LINE
  5
313
330
2E5
100
AcDbEntity
  8
0
100
AcDbLine
 10
0.0
 20
91.39999999999999
 30
0.0
 11
120.0
 21
91.39999999999999
 31
0.0
  0
ATTDEF
  5
314
330
2E5
100
AcDbEntity
  8
0
100
AcDbText
 10
6.0
 20
88.8
 30
0.0
 40
2.0
  1

  7
ARIAL
 72
1
 11
6.0
 21
88.8
 31
0.0
100
AcDbAttributeDefinition
  3

  2
REV1_N
 70
0
 74
2
 71
1
 72
0
 11
6.0
 21
88.8
 31
0.0
  0
ATTDEF
  5
315
330
2E5
100
AcDbEntity
  8
0
100
AcDbText
 10
23.0
 20
88.8
 30
0.0
 40
2.0
  1

  7
ARIAL
 72
1
 11
23.0
 21
88.8
 31
0.0
100
AcDbAttributeDefinition
  3

  2
REV1_F
 70
0
 74
2
 71
1
 72
0
 11
23.0
 21
88.8
 31
0.0
  0
ATTDEF
  5
316
330
2E5
100
AcDbEntity
  8
0
100
AcDbText
 10
35.5
 20
88.8
 30
0.0
 40
2.0
  1

  7
ARIAL
 11
35.5
 21
88.8
 31
0.0
100
AcDbAttributeDefinition
  3

  2
REV1_D
 70
0
 74
2
 71
1
 72
0
 11
35.5
 21
88.8
 31
0.0
  0
LINE
  5
317
330
2E5
100
AcDbEntity
  8
0
100
AcDbLine
 10
0.0
 20
86.19999999999999
 30
0.0
 11
120.0
 21
86.19999999999999
 31
0.0
  0
ATTDEF
  5
318
330
2E5
100
AcDbEntity
  8
0
100
AcDbText
 10
6.0
 20
83.6
 30
0.0
 40
2.0
  1

  7
ARIAL
 72
1
 11
6.0
 21
83.6
 31
0.0
100
AcDbAttributeDefinition
  3

  2
REV2_N
 70
0
 74
2
 71
1
 72
0
 11
6.0
 21
83.6
 31
0.0
  0
ATTDEF
  5
319
330
2E5
100
AcDbEntity
  8
0
100
AcDbText
 10
23.0
 20
83.6
 30
0.0
 40
2.0
  1

  7
ARIAL
 72
1
 11
23.0
 21
83.6
 31
0.0
100
AcDbAttributeDefinition
  3

  2
REV2_F
 70
0
 74
2
 71
1
 72
0
 11
23.0
 21
83.6
 31
0.0
  0
ATTDEF
  5
31A
330
2E5
100
AcDbEntity
  8
0
100
AcDbText
 10
35.5
 20
83.6
 30
0.0
 40
2.0
  1

  7
ARIAL
 11
35.5
 21
83.6
 31
0.0
100
AcDbAttributeDefinition
  3

  2
REV2_D
 70
0
 74
2
 71
1
 72
0
 11
35.5
 21
83.6
 31
0.0
  0
LINE
  5
31B
330
2E5
100
AcDbEntity
  8
0
100
AcDbLine
 10
0.0
 20
80.99999999999999
 30
0.0
 11
120.0
 21
80.99999999999999
 31
0.0
  0
LINE
  5
31C
330
2E5
100
AcDbEntity
  8
0
100
AcDbLine
 10
12.0
 20
101.6
 30
0.0
 11
12.0
 21
80.99999999999999
 31
0.0
  0
LINE
  5
31D
330
2E5
100
AcDbEntity
  8
0
100
AcDbLine
 10
34.0
 20
101.6
 30
0.0
 11
34.0
 21
80.99999999999999
 31
0.0
  0
TEXT
  5
31E
330
2E5
100
AcDbEntity
  8
0
100
AcDbText
 10
3.0
 20
78.49999999999999
 30
0.0
 40
2.2
  1
ESTADO:
  7
ARIAL
 11
3.0
 21
78.49999999999999
 31
0.0
100
AcDbText
 73
3
  0
ATTDEF
  5
31F
330
2E5
100
AcDbEntity
  8
0
100
AcDbText
 10
60.0
 20
72.99999999999999
 30
0.0
 40
3.0
  1

  7
ARIAL
 72
1
 11
60.0
 21
72.99999999999999
 31
0.0
100
AcDbAttributeDefinition
  3

  2
ESTADO_1
 70
0
 74
3
 71
1
 72
0
 11
60.0
 21
72.99999999999999
 31
0.0
  0
ATTDEF
  5
320
330
2E5
100
AcDbEntity
  8
0
100
AcDbText
 10
60.0
 20
67.99999999999999
 30
0.0
 40
2.4
  1

  7
ARIAL
 72
1
 11
60.0
 21
67.99999999999999
 31
0.0
100
AcDbAttributeDefinition
  3

  2
ESTADO_2
 70
0
 74
3
 71
1
 72
0
 11
60.0
 21
67.99999999999999
 31
0.0
  0
LINE
  5
321
330
2E5
100
AcDbEntity
  8
0
100
AcDbLine
 10
0.0
 20
61.999999999999986
 30
0.0
 11
120.0
 21
61.999999999999986
 31
0.0
  0
LINE
  5
322
330
2E5
100
AcDbEntity
  8
0
100
AcDbLine
 10
0.0
 20
52.999999999999986
 30
0.0
 11
120.0
 21
52.999999999999986
 31
0.0
  0
LINE
  5
323
330
2E5
100
AcDbEntity
  8
0
100
AcDbLine
 10
0.0
 20
26.999999999999986
 30
0.0
 11
120.0
 21
26.999999999999986
 31
0.0
  0
LINE
  5
324
330
2E5
100
AcDbEntity
  8
0
100
AcDbLine
 10
66.0
 20
61.999999999999986
 30
0.0
 11
66.0
 21
0.0
 31
0.0
  0
TEXT
  5
325
330
2E5
100
AcDbEntity
  8
0
100
AcDbText
 10
33.0
 20
57.499999999999986
 30
0.0
 40
3.0
  1
LUGAR
  7
ARIAL
 72
1
 11
33.0
 21
57.499999999999986
 31
0.0
100
AcDbText
 73
2
  0
TEXT
  5
326
330
2E5
100
AcDbEntity
  8
0
100
AcDbText
 10
93.0
 20
57.499999999999986
 30
0.0
 40
3.0
  1
LÁMINA
  7
ARIAL
 72
1
 11
93.0
 21
57.499999999999986
 31
0.0
100
AcDbText
 73
2
  0
ATTDEF
  5
327
330
2E5
100
AcDbEntity
  8
0
100
AcDbText
 10
33.0
 20
39.999999999999986
 30
0.0
 40
5.0
  1

  7
ARIAL
 72
1
 11
33.0
 21
39.999999999999986
 31
0.0
100
AcDbAttributeDefinition
  3

  2
LUGAR
 70
0
 74
2
 71
1
 72
0
 11
33.0
 21
39.999999999999986
 31
0.0
  0
ATTDEF
  5
328
330
2E5
100
AcDbEntity
  8
0
100
AcDbText
 10
93.0
 20
39.999999999999986
 30
0.0
 40
14.0
  1

  7
ARIAL
 72
1
 11
93.0
 21
39.999999999999986
 31
0.0
100
AcDbAttributeDefinition
  3

  2
LAMINA
 70
0
 74
2
 71
1
 72
0
 11
93.0
 21
39.999999999999986
 31
0.0
  0
ATTDEF
  5
329
330
2E5
100
AcDbEntity
  8
0
100
AcDbText
 10
33.0
 20
13.499999999999993
 30
0.0
 40
6.0
  1

  7
ARIAL
 72
1
 11
33.0
 21
13.499999999999993
 31
0.0
100
AcDbAttributeDefinition
  3

  2
FECHA
 70
0
 74
2
 71
1
 72
0
 11
33.0
 21
13.499999999999993
 31
0.0
  0
TEXT
  5
32A
330
2E5
100
AcDbEntity
  8
0
100
AcDbText
 10
70.0
 20
13.499999999999993
 30
0.0
 40
3.0
  1
TOTAL
  7
ARIAL
 11
70.0
 21
13.499999999999993
 31
0.0
100
AcDbText
 73
2
  0
ATTDEF
  5
32B
330
2E5
100
AcDbEntity
  8
0
100
AcDbText
 10
104.0
 20
13.499999999999993
 30
0.0
 40
9.0
  1

  7
ARIAL
 72
1
 11
104.0
 21
13.499999999999993
 31
0.0
100
AcDbAttributeDefinition
  3

  2
TOTAL
 70
0
 74
2
 71
1
 72
0
 11
104.0
 21
13.499999999999993
 31
0.0
  0
ENDBLK
  5
2E7
330
2E5
100
AcDbEntity
  8
0
100
AcDbBlockEnd
  0
ENDSEC
  0
SECTION
  2
ENTITIES
  0
LWPOLYLINE
  5
C2
330
17
100
AcDbEntity
  8
T-LINDERO
100
AcDbPolyline
 90
5
 70
1
 10
0.0
 20
0.0
 10
0.010879637986303953
 20
4.664716672341735
 10
0.05655167053563409
 20
9.007424821148515
 10
28.51811244861565
 20
8.999803462886003
 10
28.511978184595964
 20
0.0
  0
LWPOLYLINE
  5
C3
330
17
100
AcDbEntity
  8
A-MURO
100
AcDbPolyline
 90
4
 70
1
 10
2.06
 20
0.0
 10
2.06
 20
0.15
 10
25.18
 20
0.15
 10
25.18
 20
0.0
  0
HATCH
  5
C4
330
17
100
AcDbEntity
  8
A-MURO-TRAMA
 62
7
100
AcDbHatch
 10
0.0
 20
0.0
 30
0.0
210
0.0
220
0.0
230
1.0
  2
ANSI31
 70
0
 71
0
 91
1
 92
3
 72
0
 73
1
 93
4
 10
2.06
 20
0.0
 10
2.06
 20
0.15
 10
25.18
 20
0.15
 10
25.18
 20
0.0
 97
0
 75
1
 76
1
 52
0.0
 41
0.03
 77
0
 78
1
 53
45.0
 43
0.0
 44
0.0
 45
-0.0673519209
 46
0.0673519209
 79
0
 98
0
  0
LWPOLYLINE
  5
C5
330
17
100
AcDbEntity
  8
A-MURO
100
AcDbPolyline
 90
4
 70
1
 10
2.06
 20
8.85
 10
2.06
 20
9.0
 10
25.18
 20
9.0
 10
25.18
 20
8.85
  0
HATCH
  5
C6
330
17
100
AcDbEntity
  8
A-MURO-TRAMA
 62
7
100
AcDbHatch
 10
0.0
 20
0.0
 30
0.0
210
0.0
220
0.0
230
1.0
  2
ANSI31
 70
0
 71
0
 91
1
 92
3
 72
0
 73
1
 93
4
 10
2.06
 20
8.85
 10
2.06
 20
9.0
 10
25.18
 20
9.0
 10
25.18
 20
8.85
 97
0
 75
1
 76
1
 52
0.0
 41
0.03
 77
0
 78
1
 53
45.0
 43
0.0
 44
0.0
 45
-0.0673519209
 46
0.0673519209
 79
0
 98
0
  0
LWPOLYLINE
  5
C7
330
17
100
AcDbEntity
  8
A-MURO
100
AcDbPolyline
 90
4
 70
1
 10
2.06
 20
1.26
 10
2.06
 20
1.56
 10
2.21
 20
1.56
 10
2.21
 20
1.26
  0
HATCH
  5
C8
330
17
100
AcDbEntity
  8
A-MURO-TRAMA
 62
7
100
AcDbHatch
 10
0.0
 20
0.0
 30
0.0
210
0.0
220
0.0
230
1.0
  2
ANSI31
 70
0
 71
0
 91
1
 92
3
 72
0
 73
1
 93
4
 10
2.06
 20
1.26
 10
2.06
 20
1.56
 10
2.21
 20
1.56
 10
2.21
 20
1.26
 97
0
 75
1
 76
1
 52
0.0
 41
0.03
 77
0
 78
1
 53
45.0
 43
0.0
 44
0.0
 45
-0.0673519209
 46
0.0673519209
 79
0
 98
0
  0
LWPOLYLINE
  5
C9
330
17
100
AcDbEntity
  8
A-MURO
100
AcDbPolyline
 90
4
 70
1
 10
28.361978184595966
 20
0.0
 10
28.361978184595966
 20
9.0
 10
28.511978184595964
 20
9.0
 10
28.511978184595964
 20
0.0
  0
HATCH
  5
CA
330
17
100
AcDbEntity
  8
A-MURO-TRAMA
 62
7
100
AcDbHatch
 10
0.0
 20
0.0
 30
0.0
210
0.0
220
0.0
230
1.0
  2
ANSI31
 70
0
 71
0
 91
1
 92
3
 72
0
 73
1
 93
4
 10
28.361978184595966
 20
0.0
 10
28.361978184595966
 20
9.0
 10
28.511978184595964
 20
9.0
 10
28.511978184595964
 20
0.0
 97
0
 75
1
 76
1
 52
0.0
 41
0.03
 77
0
 78
1
 53
45.0
 43
0.0
 44
0.0
 45
-0.0673519209
 46
0.0673519209
 79
0
 98
0
  0
LWPOLYLINE
  5
CB
330
17
100
AcDbEntity
  8
E-COLUMNA
100
AcDbPolyline
 90
4
 70
1
 10
7.534999999999999
 20
4.6899999999999995
 10
7.534999999999999
 20
4.99
 10
7.835
 20
4.99
 10
7.835
 20
4.6899999999999995
  0
HATCH
  5
CC
330
17
100
AcDbEntity
  8
E-COLUMNA
 62
7
100
AcDbHatch
 10
0.0
 20
0.0
 30
0.0
210
0.0
220
0.0
230
1.0
  2
SOLID
 70
1
 71
0
 91
1
 92
3
 72
0
 73
1
 93
4
 10
7.534999999999999
 20
4.6899999999999995
 10
7.534999999999999
 20
4.99
 10
7.835
 20
4.99
 10
7.835
 20
4.6899999999999995
 97
0
 75
0
 76
1
 98
0
  0
TEXT
  5
CD
330
17
100
AcDbEntity
  8
E-COLUMNA
100
AcDbText
 10
7.935
 20
5.11
 30
0.0
 40
0.11
  1
C2
  7
ARIAL
 11
7.935
 21
5.11
 31
0.0
100
AcDbText
 73
2
  0
LWPOLYLINE
  5
CE
330
17
100
AcDbEntity
  8
E-COLUMNA
100
AcDbPolyline
 90
4
 70
1
 10
10.184999999999999
 20
4.6899999999999995
 10
10.184999999999999
 20
4.99
 10
10.485
 20
4.99
 10
10.485
 20
4.6899999999999995
  0
HATCH
  5
CF
330
17
100
AcDbEntity
  8
E-COLUMNA
 62
7
100
AcDbHatch
 10
0.0
 20
0.0
 30
0.0
210
0.0
220
0.0
230
1.0
  2
SOLID
 70
1
 71
0
 91
1
 92
3
 72
0
 73
1
 93
4
 10
10.184999999999999
 20
4.6899999999999995
 10
10.184999999999999
 20
4.99
 10
10.485
 20
4.99
 10
10.485
 20
4.6899999999999995
 97
0
 75
0
 76
1
 98
0
  0
TEXT
  5
D0
330
17
100
AcDbEntity
  8
E-COLUMNA
100
AcDbText
 10
10.584999999999999
 20
5.11
 30
0.0
 40
0.11
  1
C3
  7
ARIAL
 11
10.584999999999999
 21
5.11
 31
0.0
100
AcDbText
 73
2
  0
LWPOLYLINE
  5
D1
330
17
100
AcDbEntity
  8
E-COLUMNA
100
AcDbPolyline
 90
4
 70
1
 10
16.755000000000003
 20
4.6899999999999995
 10
16.755000000000003
 20
4.99
 10
17.055
 20
4.99
 10
17.055
 20
4.6899999999999995
  0
HATCH
  5
D2
330
17
100
AcDbEntity
  8
E-COLUMNA
 62
7
100
AcDbHatch
 10
0.0
 20
0.0
 30
0.0
210
0.0
220
0.0
230
1.0
  2
SOLID
 70
1
 71
0
 91
1
 92
3
 72
0
 73
1
 93
4
 10
16.755000000000003
 20
4.6899999999999995
 10
16.755000000000003
 20
4.99
 10
17.055
 20
4.99
 10
17.055
 20
4.6899999999999995
 97
0
 75
0
 76
1
 98
0
  0
TEXT
  5
D3
330
17
100
AcDbEntity
  8
E-COLUMNA
100
AcDbText
 10
17.155
 20
5.11
 30
0.0
 40
0.11
  1
C4
  7
ARIAL
 11
17.155
 21
5.11
 31
0.0
100
AcDbText
 73
2
  0
LWPOLYLINE
  5
D4
330
17
100
AcDbEntity
  8
E-COLUMNA
100
AcDbPolyline
 90
4
 70
1
 10
19.405
 20
4.6899999999999995
 10
19.405
 20
4.99
 10
19.705
 20
4.99
 10
19.705
 20
4.6899999999999995
  0
HATCH
  5
D5
330
17
100
AcDbEntity
  8
E-COLUMNA
 62
7
100
AcDbHatch
 10
0.0
 20
0.0
 30
0.0
210
0.0
220
0.0
230
1.0
  2
SOLID
 70
1
 71
0
 91
1
 92
3
 72
0
 73
1
 93
4
 10
19.405
 20
4.6899999999999995
 10
19.405
 20
4.99
 10
19.705
 20
4.99
 10
19.705
 20
4.6899999999999995
 97
0
 75
0
 76
1
 98
0
  0
TEXT
  5
D6
330
17
100
AcDbEntity
  8
E-COLUMNA
100
AcDbText
 10
19.805
 20
5.11
 30
0.0
 40
0.11
  1
C5
  7
ARIAL
 11
19.805
 21
5.11
 31
0.0
100
AcDbText
 73
2
  0
LWPOLYLINE
  5
D7
330
17
100
AcDbEntity
  8
E-COLUMNA
100
AcDbPolyline
 90
4
 70
1
 10
24.880000000000003
 20
4.6899999999999995
 10
24.880000000000003
 20
4.99
 10
25.18
 20
4.99
 10
25.18
 20
4.6899999999999995
  0
HATCH
  5
D8
330
17
100
AcDbEntity
  8
E-COLUMNA
 62
7
100
AcDbHatch
 10
0.0
 20
0.0
 30
0.0
210
0.0
220
0.0
230
1.0
  2
SOLID
 70
1
 71
0
 91
1
 92
3
 72
0
 73
1
 93
4
 10
24.880000000000003
 20
4.6899999999999995
 10
24.880000000000003
 20
4.99
 10
25.18
 20
4.99
 10
25.18
 20
4.6899999999999995
 97
0
 75
0
 76
1
 98
0
  0
TEXT
  5
D9
330
17
100
AcDbEntity
  8
E-COLUMNA
100
AcDbText
 10
25.28
 20
5.11
 30
0.0
 40
0.11
  1
C6
  7
ARIAL
 11
25.28
 21
5.11
 31
0.0
100
AcDbText
 73
2
  0
TEXT
  5
DA
330
17
100
AcDbEntity
  8
E-COLUMNA
100
AcDbText
 10
11.084999999999999
 20
5.11
 30
0.0
 40
0.085
  1
COLUMNAS 0.30 x 0.30 (PRELIMINAR)
  7
ARIAL
 11
11.084999999999999
 21
5.11
 31
0.0
100
AcDbText
 73
2
  0
LINE
  5
DB
330
17
100
AcDbEntity
  8
A-PROYECCION
 48
0.1
100
AcDbLine
 10
2.09
 20
1.56
 30
0.0
 11
2.09
 21
8.85
 31
0.0
  0
LINE
  5
DC
330
17
100
AcDbEntity
  8
A-PUERTA
100
AcDbLine
 10
2.06
 20
1.56
 30
0.0
 11
0.23750000000000027
 21
1.56
 31
0.0
  0
LINE
  5
DD
330
17
100
AcDbEntity
  8
A-PUERTA
100
AcDbLine
 10
0.23750000000000027
 20
1.62
 30
0.0
 11
2.06
 21
1.62
 31
0.0
  0
LINE
  5
DE
330
17
100
AcDbEntity
  8
A-PUERTA
100
AcDbLine
 10
2.06
 20
1.56
 30
0.0
 11
0.23750000000000027
 21
1.56
 31
0.0
  0
ARC
  5
DF
330
17
100
AcDbEntity
  8
A-PUERTA
100
AcDbCircle
 10
2.06
 20
1.56
 30
0.0
 40
1.8224999999999998
100
AcDbArc
 50
90.0
 51
180.0
  0
LINE
  5
E0
330
17
100
AcDbEntity
  8
A-PUERTA
100
AcDbLine
 10
2.06
 20
8.85
 30
0.0
 11
0.23750000000000027
 21
8.85
 31
0.0
  0
LINE
  5
E1
330
17
100
AcDbEntity
  8
A-PUERTA
100
AcDbLine
 10
0.23750000000000027
 20
8.79
 30
0.0
 11
2.06
 21
8.79
 31
0.0
  0
LINE
  5
E2
330
17
100
AcDbEntity
  8
A-PUERTA
100
AcDbLine
 10
2.06
 20
8.85
 30
0.0
 11
0.23750000000000027
 21
8.85
 31
0.0
  0
ARC
  5
E3
330
17
100
AcDbEntity
  8
A-PUERTA
100
AcDbCircle
 10
2.06
 20
8.85
 30
0.0
 40
1.8224999999999998
100
AcDbArc
 50
180.0
 51
-90.0
  0
LINE
  5
E4
330
17
100
AcDbEntity
  8
A-PUERTA
100
AcDbLine
 10
2.06
 20
1.26
 30
0.0
 11
3.06
 21
1.26
 31
0.0
  0
ARC
  5
E5
330
17
100
AcDbEntity
  8
A-PUERTA
100
AcDbCircle
 10
2.06
 20
1.26
 30
0.0
 40
1.0
100
AcDbArc
 50
-90.0
 51
0.0
  0
LWPOLYLINE
  5
E6
330
17
100
AcDbEntity
  8
A-PROYECCION
 48
0.1
100
AcDbPolyline
 90
4
 70
1
 10
7.609999999999999
 20
0.15
 10
7.609999999999999
 20
8.85
 10
7.76
 20
8.85
 10
7.76
 20
0.15
  0
LWPOLYLINE
  5
E7
330
17
100
AcDbEntity
  8
A-PROYECCION
 48
0.1
100
AcDbPolyline
 90
4
 70
1
 10
10.26
 20
0.15
 10
10.26
 20
8.85
 10
10.41
 20
8.85
 10
10.41
 20
0.15
  0
LWPOLYLINE
  5
E8
330
17
100
AcDbEntity
  8
A-PROYECCION
 48
0.1
100
AcDbPolyline
 90
4
 70
1
 10
7.76
 20
1.47
 10
7.76
 20
8.85
 10
10.26
 20
8.85
 10
10.26
 20
1.47
  0
LINE
  5
E9
330
17
100
AcDbEntity
  8
A-PROYECCION
 48
0.1
100
AcDbLine
 10
7.76
 20
1.47
 30
0.0
 11
10.26
 21
8.85
 31
0.0
  0
LINE
  5
EA
330
17
100
AcDbEntity
  8
A-PROYECCION
 48
0.1
100
AcDbLine
 10
7.76
 20
8.85
 30
0.0
 11
10.26
 21
1.47
 31
0.0
  0
LWPOLYLINE
  5
EB
330
17
100
AcDbEntity
  8
A-PROYECCION
 48
0.1
100
AcDbPolyline
 90
4
 70
1
 10
16.98
 20
4.81
 10
16.98
 20
8.85
 10
19.48
 20
8.85
 10
19.48
 20
4.81
  0
LINE
  5
EC
330
17
100
AcDbEntity
  8
A-PROYECCION
 48
0.1
100
AcDbLine
 10
16.98
 20
4.81
 30
0.0
 11
19.48
 21
8.85
 31
0.0
  0
LINE
  5
ED
330
17
100
AcDbEntity
  8
A-PROYECCION
 48
0.1
100
AcDbLine
 10
16.98
 20
8.85
 30
0.0
 11
19.48
 21
4.81
 31
0.0
  0
LINE
  5
EE
330
17
100
AcDbEntity
  8
A-PROYECCION
 48
0.1
100
AcDbLine
 10
25.18
 20
0.15
 30
0.0
 11
25.18
 21
8.85
 31
0.0
  0
TEXT
  5
EF
330
17
100
AcDbEntity
  8
A-ESPACIOS
100
AcDbText
 10
4.51
 20
2.6
 30
0.0
 40
0.2
  1
E-1
  7
ARIAL
 72
1
 11
4.51
 21
2.6
 31
0.0
100
AcDbText
 73
2
  0
TEXT
  5
F0
330
17
100
AcDbEntity
  8
A-ESPACIOS
100
AcDbText
 10
4.51
 20
5.1
 30
0.0
 40
0.2
  1
E-2
  7
ARIAL
 72
1
 11
4.51
 21
5.1
 31
0.0
100
AcDbText
 73
2
  0
TEXT
  5
F1
330
17
100
AcDbEntity
  8
A-ESPACIOS
100
AcDbText
 10
4.51
 20
7.6
 30
0.0
 40
0.2
  1
E-3
  7
ARIAL
 72
1
 11
4.51
 21
7.6
 31
0.0
100
AcDbText
 73
2
  0
MTEXT
  5
F2
330
17
100
AcDbEntity
  8
A-ESPACIOS
100
AcDbMText
 10
12.6
 20
3.0
 30
0.0
 40
0.17
 41
3.5
 71
5
  1
JARDÍN SECO\P(NO CONSTRUIDO)
  7
ARIAL
  0
MTEXT
  5
F3
330
17
100
AcDbEntity
  8
A-ESPACIOS
100
AcDbMText
 10
22.0
 20
4.5
 30
0.0
 40
0.17
 41
3.5
 71
5
  1
JARDÍN SECO\P(NO CONSTRUIDO)
  7
ARIAL
  0
LINE
  5
F4
330
17
100
AcDbEntity
  8
A-ESCALERA
100
AcDbLine
 10
16.98
 20
1.35
 30
0.0
 11
18.080000000000002
 21
1.35
 31
0.0
  0
LINE
  5
F5
330
17
100
AcDbEntity
  8
A-ESCALERA
100
AcDbLine
 10
16.98
 20
1.6300000000000001
 30
0.0
 11
18.080000000000002
 21
1.6300000000000001
 31
0.0
  0
LINE
  5
F6
330
17
100
AcDbEntity
  8
A-ESCALERA
100
AcDbLine
 10
16.98
 20
1.9100000000000001
 30
0.0
 11
18.080000000000002
 21
1.9100000000000001
 31
0.0
  0
LINE
  5
F7
330
17
100
AcDbEntity
  8
A-ESCALERA
100
AcDbLine
 10
16.98
 20
2.1900000000000004
 30
0.0
 11
18.080000000000002
 21
2.1900000000000004
 31
0.0
  0
LINE
  5
F8
330
17
100
AcDbEntity
  8
A-ESCALERA
100
AcDbLine
 10
16.98
 20
2.47
 30
0.0
 11
18.080000000000002
 21
2.47
 31
0.0
  0
LINE
  5
F9
330
17
100
AcDbEntity
  8
A-ESCALERA
100
AcDbLine
 10
16.98
 20
2.75
 30
0.0
 11
18.080000000000002
 21
2.75
 31
0.0
  0
LINE
  5
FA
330
17
100
AcDbEntity
  8
A-ESCALERA
100
AcDbLine
 10
16.98
 20
3.0300000000000002
 30
0.0
 11
18.080000000000002
 21
3.0300000000000002
 31
0.0
  0
LINE
  5
FB
330
17
100
AcDbEntity
  8
A-PROYECCION
 48
0.1
100
AcDbLine
 10
16.98
 20
3.3100000000000005
 30
0.0
 11
18.080000000000002
 21
3.3100000000000005
 31
0.0
  0
LINE
  5
FC
330
17
100
AcDbEntity
  8
A-PROYECCION
 48
0.1
100
AcDbLine
 10
16.98
 20
3.5900000000000003
 30
0.0
 11
18.080000000000002
 21
3.5900000000000003
 31
0.0
  0
LINE
  5
FD
330
17
100
AcDbEntity
  8
A-ESCALERA
100
AcDbLine
 10
18.080000000000002
 20
1.35
 30
0.0
 11
18.080000000000002
 21
3.0300000000000002
 31
0.0
  0
LINE
  5
FE
330
17
100
AcDbEntity
  8
A-PROYECCION
 48
0.1
100
AcDbLine
 10
18.080000000000002
 20
3.0300000000000002
 30
0.0
 11
18.080000000000002
 21
3.5900000000000003
 31
0.0
  0
LINE
  5
FF
330
17
100
AcDbEntity
  8
A-ESCALERA
100
AcDbLine
 10
16.98
 20
2.7800000000000002
 30
0.0
 11
18.080000000000002
 21
3.2800000000000002
 31
0.0
  0
LINE
  5
100
330
17
100
AcDbEntity
  8
A-PROYECCION
 48
0.1
100
AcDbLine
 10
18.38
 20
3.5900000000000003
 30
0.0
 11
19.48
 21
3.5900000000000003
 31
0.0
  0
LINE
  5
101
330
17
100
AcDbEntity
  8
A-PROYECCION
 48
0.1
100
AcDbLine
 10
18.38
 20
3.3100000000000005
 30
0.0
 11
19.48
 21
3.3100000000000005
 31
0.0
  0
LINE
  5
102
330
17
100
AcDbEntity
  8
A-PROYECCION
 48
0.1
100
AcDbLine
 10
18.38
 20
3.0300000000000002
 30
0.0
 11
19.48
 21
3.0300000000000002
 31
0.0
  0
LINE
  5
103
330
17
100
AcDbEntity
  8
A-PROYECCION
 48
0.1
100
AcDbLine
 10
18.38
 20
2.75
 30
0.0
 11
19.48
 21
2.75
 31
0.0
  0
LINE
  5
104
330
17
100
AcDbEntity
  8
A-PROYECCION
 48
0.1
100
AcDbLine
 10
18.38
 20
2.47
 30
0.0
 11
19.48
 21
2.47
 31
0.0
  0
LINE
  5
105
330
17
100
AcDbEntity
  8
A-PROYECCION
 48
0.1
100
AcDbLine
 10
18.38
 20
2.1900000000000004
 30
0.0
 11
19.48
 21
2.1900000000000004
 31
0.0
  0
LINE
  5
106
330
17
100
AcDbEntity
  8
A-PROYECCION
 48
0.1
100
AcDbLine
 10
18.38
 20
1.9100000000000001
 30
0.0
 11
19.48
 21
1.9100000000000001
 31
0.0
  0
LINE
  5
107
330
17
100
AcDbEntity
  8
A-PROYECCION
 48
0.1
100
AcDbLine
 10
18.38
 20
1.6300000000000001
 30
0.0
 11
19.48
 21
1.6300000000000001
 31
0.0
  0
LINE
  5
108
330
17
100
AcDbEntity
  8
A-PROYECCION
 48
0.1
100
AcDbLine
 10
18.38
 20
1.6300000000000001
 30
0.0
 11
18.38
 21
3.5900000000000003
 31
0.0
  0
LINE
  5
109
330
17
100
AcDbEntity
  8
A-PROYECCION
 48
0.1
100
AcDbLine
 10
16.98
 20
3.5900000000000003
 30
0.0
 11
19.48
 21
3.5900000000000003
 31
0.0
  0
LWPOLYLINE
  5
10A
330
17
100
AcDbEntity
  8
A-MURO
100
AcDbPolyline
 90
4
 70
1
 10
16.86
 20
0.15
 10
16.86
 20
0.25
 10
16.98
 20
0.25
 10
16.98
 20
0.15
  0
HATCH
  5
10B
330
17
100
AcDbEntity
  8
A-MURO-TRAMA
 62
7
100
AcDbHatch
 10
0.0
 20
0.0
 30
0.0
210
0.0
220
0.0
230
1.0
  2
ANSI31
 70
0
 71
0
 91
1
 92
3
 72
0
 73
1
 93
4
 10
16.86
 20
0.15
 10
16.86
 20
0.25
 10
16.98
 20
0.25
 10
16.98
 20
0.15
 97
0
 75
1
 76
1
 52
0.0
 41
0.03
 77
0
 78
1
 53
45.0
 43
0.0
 44
0.0
 45
-0.0673519209
 46
0.0673519209
 79
0
 98
0
  0
LWPOLYLINE
  5
10C
330
17
100
AcDbEntity
  8
A-MURO
100
AcDbPolyline
 90
4
 70
1
 10
16.86
 20
1.25
 10
16.86
 20
4.81
 10
16.98
 20
4.81
 10
16.98
 20
1.25
  0
HATCH
  5
10D
330
17
100
AcDbEntity
  8
A-MURO-TRAMA
 62
7
100
AcDbHatch
 10
0.0
 20
0.0
 30
0.0
210
0.0
220
0.0
230
1.0
  2
ANSI31
 70
0
 71
0
 91
1
 92
3
 72
0
 73
1
 93
4
 10
16.86
 20
1.25
 10
16.86
 20
4.81
 10
16.98
 20
4.81
 10
16.98
 20
1.25
 97
0
 75
1
 76
1
 52
0.0
 41
0.03
 77
0
 78
1
 53
45.0
 43
0.0
 44
0.0
 45
-0.0673519209
 46
0.0673519209
 79
0
 98
0
  0
LWPOLYLINE
  5
10E
330
17
100
AcDbEntity
  8
A-MURO
100
AcDbPolyline
 90
4
 70
1
 10
16.98
 20
4.69
 10
16.98
 20
4.81
 10
19.48
 20
4.81
 10
19.48
 20
4.69
  0
HATCH
  5
10F
330
17
100
AcDbEntity
  8
A-MURO-TRAMA
 62
7
100
AcDbHatch
 10
0.0
 20
0.0
 30
0.0
210
0.0
220
0.0
230
1.0
  2
ANSI31
 70
0
 71
0
 91
1
 92
3
 72
0
 73
1
 93
4
 10
16.98
 20
4.69
 10
16.98
 20
4.81
 10
19.48
 20
4.81
 10
19.48
 20
4.69
 97
0
 75
1
 76
1
 52
0.0
 41
0.03
 77
0
 78
1
 53
45.0
 43
0.0
 44
0.0
 45
-0.0673519209
 46
0.0673519209
 79
0
 98
0
  0
LWPOLYLINE
  5
110
330
17
100
AcDbEntity
  8
A-MURO
100
AcDbPolyline
 90
4
 70
1
 10
19.48
 20
0.15
 10
19.48
 20
4.81
 10
19.6
 20
4.81
 10
19.6
 20
0.15
  0
HATCH
  5
111
330
17
100
AcDbEntity
  8
A-MURO-TRAMA
 62
7
100
AcDbHatch
 10
0.0
 20
0.0
 30
0.0
210
0.0
220
0.0
230
1.0
  2
ANSI31
 70
0
 71
0
 91
1
 92
3
 72
0
 73
1
 93
4
 10
19.48
 20
0.15
 10
19.48
 20
4.81
 10
19.6
 20
4.81
 10
19.6
 20
0.15
 97
0
 75
1
 76
1
 52
0.0
 41
0.03
 77
0
 78
1
 53
45.0
 43
0.0
 44
0.0
 45
-0.0673519209
 46
0.0673519209
 79
0
 98
0
  0
LINE
  5
112
330
17
100
AcDbEntity
  8
A-PUERTA
100
AcDbLine
 10
16.98
 20
0.25
 30
0.0
 11
17.98
 21
0.25
 31
0.0
  0
ARC
  5
113
330
17
100
AcDbEntity
  8
A-PUERTA
100
AcDbCircle
 10
16.98
 20
0.25
 30
0.0
 40
1.0
100
AcDbArc
 50
0.0
 51
90.0
  0
TEXT
  5
114
330
17
100
AcDbEntity
  8
A-ESPACIOS
100
AcDbText
 10
18.6
 20
0.45
 30
0.0
 40
0.12
  1
VESTÍBULO
  7
ARIAL
 72
1
 11
18.6
 21
0.45
 31
0.0
100
AcDbText
 73
2
  0
LINE
  5
115
330
17
100
AcDbEntity
  8
A-ESCALERA
100
AcDbLine
 10
17.53
 20
1.5
 30
0.0
 11
17.53
 21
2.8800000000000003
 31
0.0
  0
SOLID
  5
116
330
17
100
AcDbEntity
  8
A-ESCALERA
100
AcDbTrace
 10
17.53
 20
2.8800000000000003
 30
0.0
 11
17.41
 21
2.68
 31
0.0
 12
17.650000000000002
 22
2.68
 32
0.0
 13
17.650000000000002
 23
2.68
 33
0.0
  0
TEXT
  5
117
330
17
100
AcDbEntity
  8
A-ESCALERA
100
AcDbText
 10
17.71
 20
1.9000000000000001
 30
0.0
 40
0.13
  1
SUBE
  7
ARIAL
 72
1
 11
17.71
 21
1.9000000000000001
 31
0.0
100
AcDbText
 73
2
  0
TEXT
  5
118
330
17
100
AcDbEntity
  8
A-ESPACIOS
100
AcDbText
 10
4.6
 20
0.75
 30
0.0
 40
0.13
  1
PASILLO PEATONAL
  7
ARIAL
 72
1
 11
4.6
 21
0.75
 31
0.0
100
AcDbText
 73
2
  0
TEXT
  5
119
330
17
100
AcDbEntity
  8
A-ESPACIOS
100
AcDbText
 10
12.0
 20
0.75
 30
0.0
 40
0.13
  1
PASILLO
  7
ARIAL
 72
1
 11
12.0
 21
0.75
 31
0.0
100
AcDbText
 73
2
  0
TEXT
  5
11A
330
17
100
AcDbEntity
  8
A-ESPACIOS
100
AcDbText
 10
-2.15
 20
4.5
 30
0.0
 40
0.22
  1
CALLE PÚBLICA
 50
90.0
  7
ARIAL
 72
1
 11
-2.15
 21
4.5
 31
0.0
100
AcDbText
 73
2
  0
TEXT
  5
11B
330
17
100
AcDbEntity
  8
A-ESPACIOS
100
AcDbText
 10
1.05
 20
6.4
 30
0.0
 40
0.12
  1
RETIRO FRONTAL
 50
90.0
  7
ARIAL
 72
1
 11
1.05
 21
6.4
 31
0.0
100
AcDbText
 73
2
  0
LINE
  5
11C
330
17
100
AcDbEntity
  8
A-EJES
 48
0.05
100
AcDbLine
 10
-0.2
 20
0.075
 30
0.0
 11
29.85
 21
0.075
 31
0.0
  0
CIRCLE
  5
11D
330
17
100
AcDbEntity
  8
A-EJES-TXT
100
AcDbCircle
 10
30.130000000000003
 20
0.075
 30
0.0
 40
0.28
  0
TEXT
  5
11E
330
17
100
AcDbEntity
  8
A-EJES-TXT
100
AcDbText
 10
30.130000000000003
 20
0.075
 30
0.0
 40
0.22
  1
A
  7
ARIAL
 72
1
 11
30.130000000000003
 21
0.075
 31
0.0
100
AcDbText
 73
2
  0
LINE
  5
11F
330
17
100
AcDbEntity
  8
A-EJES
 48
0.05
100
AcDbLine
 10
-0.2
 20
1.4100000000000001
 30
0.0
 11
29.85
 21
1.4100000000000001
 31
0.0
  0
CIRCLE
  5
120
330
17
100
AcDbEntity
  8
A-EJES-TXT
100
AcDbCircle
 10
30.130000000000003
 20
1.4100000000000001
 30
0.0
 40
0.28
  0
TEXT
  5
121
330
17
100
AcDbEntity
  8
A-EJES-TXT
100
AcDbText
 10
30.130000000000003
 20
1.4100000000000001
 30
0.0
 40
0.22
  1
B
  7
ARIAL
 72
1
 11
30.130000000000003
 21
1.4100000000000001
 31
0.0
100
AcDbText
 73
2
  0
LINE
  5
122
330
17
100
AcDbEntity
  8
A-EJES
 48
0.05
100
AcDbLine
 10
-0.2
 20
4.84
 30
0.0
 11
29.85
 21
4.84
 31
0.0
  0
CIRCLE
  5
123
330
17
100
AcDbEntity
  8
A-EJES-TXT
100
AcDbCircle
 10
30.130000000000003
 20
4.84
 30
0.0
 40
0.28
  0
TEXT
  5
124
330
17
100
AcDbEntity
  8
A-EJES-TXT
100
AcDbText
 10
30.130000000000003
 20
4.84
 30
0.0
 40
0.22
  1
C
  7
ARIAL
 72
1
 11
30.130000000000003
 21
4.84
 31
0.0
100
AcDbText
 73
2
  0
LINE
  5
125
330
17
100
AcDbEntity
  8
A-EJES
 48
0.05
100
AcDbLine
 10
-0.2
 20
8.925
 30
0.0
 11
29.85
 21
8.925
 31
0.0
  0
CIRCLE
  5
126
330
17
100
AcDbEntity
  8
A-EJES-TXT
100
AcDbCircle
 10
30.130000000000003
 20
8.925
 30
0.0
 40
0.28
  0
TEXT
  5
127
330
17
100
AcDbEntity
  8
A-EJES-TXT
100
AcDbText
 10
30.130000000000003
 20
8.925
 30
0.0
 40
0.22
  1
D
  7
ARIAL
 72
1
 11
30.130000000000003
 21
8.925
 31
0.0
100
AcDbText
 73
2
  0
LINE
  5
128
330
17
100
AcDbEntity
  8
A-EJES
 48
0.05
100
AcDbLine
 10
2.1350000000000002
 20
-2.35
 30
0.0
 11
2.1350000000000002
 21
10.2
 31
0.0
  0
CIRCLE
  5
129
330
17
100
AcDbEntity
  8
A-EJES-TXT
100
AcDbCircle
 10
2.1350000000000002
 20
-2.63
 30
0.0
 40
0.28
  0
TEXT
  5
12A
330
17
100
AcDbEntity
  8
A-EJES-TXT
100
AcDbText
 10
2.1350000000000002
 20
-2.63
 30
0.0
 40
0.22
  1
1
  7
ARIAL
 72
1
 11
2.1350000000000002
 21
-2.63
 31
0.0
100
AcDbText
 73
2
  0
LINE
  5
12B
330
17
100
AcDbEntity
  8
A-EJES
 48
0.05
100
AcDbLine
 10
7.685
 20
-2.35
 30
0.0
 11
7.685
 21
10.2
 31
0.0
  0
CIRCLE
  5
12C
330
17
100
AcDbEntity
  8
A-EJES-TXT
100
AcDbCircle
 10
7.685
 20
-2.63
 30
0.0
 40
0.28
  0
TEXT
  5
12D
330
17
100
AcDbEntity
  8
A-EJES-TXT
100
AcDbText
 10
7.685
 20
-2.63
 30
0.0
 40
0.22
  1
2
  7
ARIAL
 72
1
 11
7.685
 21
-2.63
 31
0.0
100
AcDbText
 73
2
  0
LINE
  5
12E
330
17
100
AcDbEntity
  8
A-EJES
 48
0.05
100
AcDbLine
 10
10.334999999999999
 20
-2.35
 30
0.0
 11
10.334999999999999
 21
10.2
 31
0.0
  0
CIRCLE
  5
12F
330
17
100
AcDbEntity
  8
A-EJES-TXT
100
AcDbCircle
 10
10.334999999999999
 20
-2.63
 30
0.0
 40
0.28
  0
TEXT
  5
130
330
17
100
AcDbEntity
  8
A-EJES-TXT
100
AcDbText
 10
10.334999999999999
 20
-2.63
 30
0.0
 40
0.22
  1
3
  7
ARIAL
 72
1
 11
10.334999999999999
 21
-2.63
 31
0.0
100
AcDbText
 73
2
  0
LINE
  5
131
330
17
100
AcDbEntity
  8
A-EJES
 48
0.05
100
AcDbLine
 10
16.905
 20
-2.35
 30
0.0
 11
16.905
 21
10.2
 31
0.0
  0
CIRCLE
  5
132
330
17
100
AcDbEntity
  8
A-EJES-TXT
100
AcDbCircle
 10
16.905
 20
-2.63
 30
0.0
 40
0.28
  0
TEXT
  5
133
330
17
100
AcDbEntity
  8
A-EJES-TXT
100
AcDbText
 10
16.905
 20
-2.63
 30
0.0
 40
0.22
  1
4
  7
ARIAL
 72
1
 11
16.905
 21
-2.63
 31
0.0
100
AcDbText
 73
2
  0
LINE
  5
134
330
17
100
AcDbEntity
  8
A-EJES
 48
0.05
100
AcDbLine
 10
19.555
 20
-2.35
 30
0.0
 11
19.555
 21
10.2
 31
0.0
  0
CIRCLE
  5
135
330
17
100
AcDbEntity
  8
A-EJES-TXT
100
AcDbCircle
 10
19.555
 20
-2.63
 30
0.0
 40
0.28
  0
TEXT
  5
136
330
17
100
AcDbEntity
  8
A-EJES-TXT
100
AcDbText
 10
19.555
 20
-2.63
 30
0.0
 40
0.22
  1
5
  7
ARIAL
 72
1
 11
19.555
 21
-2.63
 31
0.0
100
AcDbText
 73
2
  0
LINE
  5
137
330
17
100
AcDbEntity
  8
A-EJES
 48
0.05
100
AcDbLine
 10
25.105
 20
-2.35
 30
0.0
 11
25.105
 21
10.2
 31
0.0
  0
CIRCLE
  5
138
330
17
100
AcDbEntity
  8
A-EJES-TXT
100
AcDbCircle
 10
25.105
 20
-2.63
 30
0.0
 40
0.28
  0
TEXT
  5
139
330
17
100
AcDbEntity
  8
A-EJES-TXT
100
AcDbText
 10
25.105
 20
-2.63
 30
0.0
 40
0.22
  1
6
  7
ARIAL
 72
1
 11
25.105
 21
-2.63
 31
0.0
100
AcDbText
 73
2
  0
LWPOLYLINE
  5
13A
330
17
100
AcDbEntity
  8
T-LINDERO
100
AcDbPolyline
 90
5
 70
1
 10
0.0
 20
-20.0
 10
0.010879637986303953
 20
-15.335283327658265
 10
0.05655167053563409
 20
-10.992575178851485
 10
28.51811244861565
 20
-11.000196537113997
 10
28.511978184595964
 20
-20.0
  0
LINE
  5
13B
330
17
100
AcDbEntity
  8
A-EJES
 48
0.05
100
AcDbLine
 10
-0.2
 20
-19.925
 30
0.0
 11
29.85
 21
-19.925
 31
0.0
  0
CIRCLE
  5
13C
330
17
100
AcDbEntity
  8
A-EJES-TXT
100
AcDbCircle
 10
30.130000000000003
 20
-19.925
 30
0.0
 40
0.28
  0
TEXT
  5
13D
330
17
100
AcDbEntity
  8
A-EJES-TXT
100
AcDbText
 10
30.130000000000003
 20
-19.925
 30
0.0
 40
0.22
  1
A
  7
ARIAL
 72
1
 11
30.130000000000003
 21
-19.925
 31
0.0
100
AcDbText
 73
2
  0
LINE
  5
13E
330
17
100
AcDbEntity
  8
A-EJES
 48
0.05
100
AcDbLine
 10
-0.2
 20
-18.59
 30
0.0
 11
29.85
 21
-18.59
 31
0.0
  0
CIRCLE
  5
13F
330
17
100
AcDbEntity
  8
A-EJES-TXT
100
AcDbCircle
 10
30.130000000000003
 20
-18.59
 30
0.0
 40
0.28
  0
TEXT
  5
140
330
17
100
AcDbEntity
  8
A-EJES-TXT
100
AcDbText
 10
30.130000000000003
 20
-18.59
 30
0.0
 40
0.22
  1
B
  7
ARIAL
 72
1
 11
30.130000000000003
 21
-18.59
 31
0.0
100
AcDbText
 73
2
  0
LINE
  5
141
330
17
100
AcDbEntity
  8
A-EJES
 48
0.05
100
AcDbLine
 10
-0.2
 20
-15.16
 30
0.0
 11
29.85
 21
-15.16
 31
0.0
  0
CIRCLE
  5
142
330
17
100
AcDbEntity
  8
A-EJES-TXT
100
AcDbCircle
 10
30.130000000000003
 20
-15.16
 30
0.0
 40
0.28
  0
TEXT
  5
143
330
17
100
AcDbEntity
  8
A-EJES-TXT
100
AcDbText
 10
30.130000000000003
 20
-15.16
 30
0.0
 40
0.22
  1
C
  7
ARIAL
 72
1
 11
30.130000000000003
 21
-15.16
 31
0.0
100
AcDbText
 73
2
  0
LINE
  5
144
330
17
100
AcDbEntity
  8
A-EJES
 48
0.05
100
AcDbLine
 10
-0.2
 20
-11.075
 30
0.0
 11
29.85
 21
-11.075
 31
0.0
  0
CIRCLE
  5
145
330
17
100
AcDbEntity
  8
A-EJES-TXT
100
AcDbCircle
 10
30.130000000000003
 20
-11.075
 30
0.0
 40
0.28
  0
TEXT
  5
146
330
17
100
AcDbEntity
  8
A-EJES-TXT
100
AcDbText
 10
30.130000000000003
 20
-11.075
 30
0.0
 40
0.22
  1
D
  7
ARIAL
 72
1
 11
30.130000000000003
 21
-11.075
 31
0.0
100
AcDbText
 73
2
  0
LINE
  5
147
330
17
100
AcDbEntity
  8
A-EJES
 48
0.05
100
AcDbLine
 10
2.1350000000000002
 20
-22.35
 30
0.0
 11
2.1350000000000002
 21
-9.8
 31
0.0
  0
CIRCLE
  5
148
330
17
100
AcDbEntity
  8
A-EJES-TXT
100
AcDbCircle
 10
2.1350000000000002
 20
-22.63
 30
0.0
 40
0.28
  0
TEXT
  5
149
330
17
100
AcDbEntity
  8
A-EJES-TXT
100
AcDbText
 10
2.1350000000000002
 20
-22.63
 30
0.0
 40
0.22
  1
1
  7
ARIAL
 72
1
 11
2.1350000000000002
 21
-22.63
 31
0.0
100
AcDbText
 73
2
  0
LINE
  5
14A
330
17
100
AcDbEntity
  8
A-EJES
 48
0.05
100
AcDbLine
 10
7.685
 20
-22.35
 30
0.0
 11
7.685
 21
-9.8
 31
0.0
  0
CIRCLE
  5
14B
330
17
100
AcDbEntity
  8
A-EJES-TXT
100
AcDbCircle
 10
7.685
 20
-22.63
 30
0.0
 40
0.28
  0
TEXT
  5
14C
330
17
100
AcDbEntity
  8
A-EJES-TXT
100
AcDbText
 10
7.685
 20
-22.63
 30
0.0
 40
0.22
  1
2
  7
ARIAL
 72
1
 11
7.685
 21
-22.63
 31
0.0
100
AcDbText
 73
2
  0
LINE
  5
14D
330
17
100
AcDbEntity
  8
A-EJES
 48
0.05
100
AcDbLine
 10
10.335
 20
-22.35
 30
0.0
 11
10.335
 21
-9.8
 31
0.0
  0
CIRCLE
  5
14E
330
17
100
AcDbEntity
  8
A-EJES-TXT
100
AcDbCircle
 10
10.335
 20
-22.63
 30
0.0
 40
0.28
  0
TEXT
  5
14F
330
17
100
AcDbEntity
  8
A-EJES-TXT
100
AcDbText
 10
10.335
 20
-22.63
 30
0.0
 40
0.22
  1
3
  7
ARIAL
 72
1
 11
10.335
 21
-22.63
 31
0.0
100
AcDbText
 73
2
  0
LINE
  5
150
330
17
100
AcDbEntity
  8
A-EJES
 48
0.05
100
AcDbLine
 10
16.905
 20
-22.35
 30
0.0
 11
16.905
 21
-9.8
 31
0.0
  0
CIRCLE
  5
151
330
17
100
AcDbEntity
  8
A-EJES-TXT
100
AcDbCircle
 10
16.905
 20
-22.63
 30
0.0
 40
0.28
  0
TEXT
  5
152
330
17
100
AcDbEntity
  8
A-EJES-TXT
100
AcDbText
 10
16.905
 20
-22.63
 30
0.0
 40
0.22
  1
4
  7
ARIAL
 72
1
 11
16.905
 21
-22.63
 31
0.0
100
AcDbText
 73
2
  0
LINE
  5
153
330
17
100
AcDbEntity
  8
A-EJES
 48
0.05
100
AcDbLine
 10
19.555
 20
-22.35
 30
0.0
 11
19.555
 21
-9.8
 31
0.0
  0
CIRCLE
  5
154
330
17
100
AcDbEntity
  8
A-EJES-TXT
100
AcDbCircle
 10
19.555
 20
-22.63
 30
0.0
 40
0.28
  0
TEXT
  5
155
330
17
100
AcDbEntity
  8
A-EJES-TXT
100
AcDbText
 10
19.555
 20
-22.63
 30
0.0
 40
0.22
  1
5
  7
ARIAL
 72
1
 11
19.555
 21
-22.63
 31
0.0
100
AcDbText
 73
2
  0
LINE
  5
156
330
17
100
AcDbEntity
  8
A-EJES
 48
0.05
100
AcDbLine
 10
25.105
 20
-22.35
 30
0.0
 11
25.105
 21
-9.8
 31
0.0
  0
CIRCLE
  5
157
330
17
100
AcDbEntity
  8
A-EJES-TXT
100
AcDbCircle
 10
25.105
 20
-22.63
 30
0.0
 40
0.28
  0
TEXT
  5
158
330
17
100
AcDbEntity
  8
A-EJES-TXT
100
AcDbText
 10
25.105
 20
-22.63
 30
0.0
 40
0.22
  1
6
  7
ARIAL
 72
1
 11
25.105
 21
-22.63
 31
0.0
100
AcDbText
 73
2
  0
LWPOLYLINE
  5
159
330
17
100
AcDbEntity
  8
S-TECHO
100
AcDbPolyline
 90
4
 70
1
 10
2.06
 20
-20.0
 10
2.06
 20
-11.0
 10
25.18
 20
-11.0
 10
25.18
 20
-20.0
  0
LWPOLYLINE
  5
15A
330
17
100
AcDbEntity
  8
S-TECHO
100
AcDbPolyline
 90
4
 70
1
 10
7.76
 20
-18.53
 10
7.76
 20
-11.15
 10
10.26
 20
-11.15
 10
10.26
 20
-18.53
  0
LINE
  5
15B
330
17
100
AcDbEntity
  8
S-FINO
100
AcDbLine
 10
7.76
 20
-18.53
 30
0.0
 11
10.26
 21
-11.15
 31
0.0
  0
LINE
  5
15C
330
17
100
AcDbEntity
  8
S-FINO
100
AcDbLine
 10
10.26
 20
-18.53
 30
0.0
 11
7.76
 21
-11.15
 31
0.0
  0
TEXT
  5
15D
330
17
100
AcDbEntity
  8
S-TXT
100
AcDbText
 10
9.01
 20
-14.54
 30
0.0
 40
0.17
  1
PATIO P1
  7
ARIAL
 72
1
 11
9.01
 21
-14.54
 31
0.0
100
AcDbText
 73
2
  0
TEXT
  5
15E
330
17
100
AcDbEntity
  8
S-TXT
100
AcDbText
 10
9.01
 20
-14.79
 30
0.0
 40
0.13
  1
(ABIERTO)
  7
ARIAL
 72
1
 11
9.01
 21
-14.79
 31
0.0
100
AcDbText
 73
2
  0
LWPOLYLINE
  5
15F
330
17
100
AcDbEntity
  8
S-TECHO
100
AcDbPolyline
 90
4
 70
1
 10
16.98
 20
-15.190000000000001
 10
16.98
 20
-11.15
 10
19.48
 20
-11.15
 10
19.48
 20
-15.190000000000001
  0
LINE
  5
160
330
17
100
AcDbEntity
  8
S-FINO
100
AcDbLine
 10
16.98
 20
-15.190000000000001
 30
0.0
 11
19.48
 21
-11.15
 31
0.0
  0
LINE
  5
161
330
17
100
AcDbEntity
  8
S-FINO
100
AcDbLine
 10
19.48
 20
-15.190000000000001
 30
0.0
 11
16.98
 21
-11.15
 31
0.0
  0
TEXT
  5
162
330
17
100
AcDbEntity
  8
S-TXT
100
AcDbText
 10
18.23
 20
-12.870000000000001
 30
0.0
 40
0.17
  1
PATIO P2
  7
ARIAL
 72
1
 11
18.23
 21
-12.870000000000001
 31
0.0
100
AcDbText
 73
2
  0
TEXT
  5
163
330
17
100
AcDbEntity
  8
S-TXT
100
AcDbText
 10
18.23
 20
-13.120000000000001
 30
0.0
 40
0.13
  1
(ABIERTO)
  7
ARIAL
 72
1
 11
18.23
 21
-13.120000000000001
 31
0.0
100
AcDbText
 73
2
  0
LINE
  5
164
330
17
100
AcDbEntity
  8
S-CUMB
 48
0.03
100
AcDbLine
 10
13.62
 20
-20.0
 30
0.0
 11
13.62
 21
-11.0
 31
0.0
  0
TEXT
  5
165
330
17
100
AcDbEntity
  8
S-TXT
100
AcDbText
 10
13.739999999999998
 20
-19.45
 30
0.0
 40
0.15
  1
CUMBRERA +10.70
 50
90.0
  7
ARIAL
 11
13.739999999999998
 21
-19.45
 31
0.0
100
AcDbText
 73
2
  0
LWPOLYLINE
  5
166
330
17
100
AcDbEntity
  8
S-AP
100
AcDbPolyline
 90
4
 70
1
 10
1.86
 20
-20.0
 10
1.86
 20
-11.0
 10
2.06
 20
-11.0
 10
2.06
 20
-20.0
  0
LWPOLYLINE
  5
167
330
17
100
AcDbEntity
  8
S-AP
100
AcDbPolyline
 90
4
 70
1
 10
25.18
 20
-20.0
 10
25.18
 20
-11.0
 10
25.38
 20
-11.0
 10
25.38
 20
-20.0
  0
LWPOLYLINE
  5
168
330
17
100
AcDbEntity
  8
S-AP
100
AcDbPolyline
 90
4
 70
1
 10
10.06
 20
-18.53
 10
10.06
 20
-11.15
 10
10.26
 20
-11.15
 10
10.26
 20
-18.53
  0
LWPOLYLINE
  5
169
330
17
100
AcDbEntity
  8
S-AP
100
AcDbPolyline
 90
4
 70
1
 10
16.98
 20
-15.190000000000001
 10
16.98
 20
-11.15
 10
17.18
 20
-11.15
 10
17.18
 20
-15.190000000000001
  0
CIRCLE
  5
16A
330
17
100
AcDbEntity
  8
S-AP
100
AcDbCircle
 10
1.96
 20
-19.76
 30
0.0
 40
0.11
  0
CIRCLE
  5
16B
330
17
100
AcDbEntity
  8
S-AP
100
AcDbCircle
 10
1.96
 20
-19.76
 30
0.0
 40
0.05
  0
LINE
  5
16C
330
17
100
AcDbEntity
  8
S-FINO
100
AcDbLine
 10
1.96
 20
-19.76
 30
0.0
 11
1.21
 21
-19.06
 31
0.0
  0
TEXT
  5
16D
330
17
100
AcDbEntity
  8
S-TXT
100
AcDbText
 10
1.13
 20
-19.06
 30
0.0
 40
0.17
  1
BP-1
  7
ARIAL
 72
2
 11
1.13
 21
-19.06
 31
0.0
100
AcDbText
 73
2
  0
CIRCLE
  5
16E
330
17
100
AcDbEntity
  8
S-AP
100
AcDbCircle
 10
1.96
 20
-11.24
 30
0.0
 40
0.11
  0
CIRCLE
  5
16F
330
17
100
AcDbEntity
  8
S-AP
100
AcDbCircle
 10
1.96
 20
-11.24
 30
0.0
 40
0.05
  0
LINE
  5
170
330
17
100
AcDbEntity
  8
S-FINO
100
AcDbLine
 10
1.96
 20
-11.24
 30
0.0
 11
1.21
 21
-11.94
 31
0.0
  0
TEXT
  5
171
330
17
100
AcDbEntity
  8
S-TXT
100
AcDbText
 10
1.13
 20
-11.94
 30
0.0
 40
0.17
  1
BP-2
  7
ARIAL
 72
2
 11
1.13
 21
-11.94
 31
0.0
100
AcDbText
 73
2
  0
CIRCLE
  5
172
330
17
100
AcDbEntity
  8
S-AP
100
AcDbCircle
 10
25.28
 20
-11.24
 30
0.0
 40
0.11
  0
CIRCLE
  5
173
330
17
100
AcDbEntity
  8
S-AP
100
AcDbCircle
 10
25.28
 20
-11.24
 30
0.0
 40
0.05
  0
LINE
  5
174
330
17
100
AcDbEntity
  8
S-FINO
100
AcDbLine
 10
25.28
 20
-11.24
 30
0.0
 11
26.03
 21
-11.94
 31
0.0
  0
TEXT
  5
175
330
17
100
AcDbEntity
  8
S-TXT
100
AcDbText
 10
26.11
 20
-11.94
 30
0.0
 40
0.17
  1
BP-3
  7
ARIAL
 11
26.11
 21
-11.94
 31
0.0
100
AcDbText
 73
2
  0
CIRCLE
  5
176
330
17
100
AcDbEntity
  8
S-AP
100
AcDbCircle
 10
25.28
 20
-19.76
 30
0.0
 40
0.11
  0
CIRCLE
  5
177
330
17
100
AcDbEntity
  8
S-AP
100
AcDbCircle
 10
25.28
 20
-19.76
 30
0.0
 40
0.05
  0
LINE
  5
178
330
17
100
AcDbEntity
  8
S-FINO
100
AcDbLine
 10
25.28
 20
-19.76
 30
0.0
 11
26.03
 21
-19.06
 31
0.0
  0
TEXT
  5
179
330
17
100
AcDbEntity
  8
S-TXT
100
AcDbText
 10
26.11
 20
-19.06
 30
0.0
 40
0.17
  1
BP-4
  7
ARIAL
 11
26.11
 21
-19.06
 31
0.0
100
AcDbText
 73
2
  0
CIRCLE
  5
17A
330
17
100
AcDbEntity
  8
S-AP
100
AcDbCircle
 10
10.16
 20
-11.28
 30
0.0
 40
0.11
  0
CIRCLE
  5
17B
330
17
100
AcDbEntity
  8
S-AP
100
AcDbCircle
 10
10.16
 20
-11.28
 30
0.0
 40
0.05
  0
LINE
  5
17C
330
17
100
AcDbEntity
  8
S-FINO
100
AcDbLine
 10
10.16
 20
-11.28
 30
0.0
 11
9.36
 21
-11.83
 31
0.0
  0
TEXT
  5
17D
330
17
100
AcDbEntity
  8
S-TXT
100
AcDbText
 10
9.28
 20
-11.83
 30
0.0
 40
0.17
  1
BP-5
  7
ARIAL
 72
2
 11
9.28
 21
-11.83
 31
0.0
100
AcDbText
 73
2
  0
CIRCLE
  5
17E
330
17
100
AcDbEntity
  8
S-AP
100
AcDbCircle
 10
17.080000000000002
 20
-11.28
 30
0.0
 40
0.11
  0
CIRCLE
  5
17F
330
17
100
AcDbEntity
  8
S-AP
100
AcDbCircle
 10
17.080000000000002
 20
-11.28
 30
0.0
 40
0.05
  0
LINE
  5
180
330
17
100
AcDbEntity
  8
S-FINO
100
AcDbLine
 10
17.080000000000002
 20
-11.28
 30
0.0
 11
17.880000000000003
 21
-11.83
 31
0.0
  0
TEXT
  5
181
330
17
100
AcDbEntity
  8
S-TXT
100
AcDbText
 10
17.96
 20
-11.83
 30
0.0
 40
0.17
  1
BP-6
  7
ARIAL
 11
17.96
 21
-11.83
 31
0.0
100
AcDbText
 73
2
  0
LINE
  5
182
330
17
100
AcDbEntity
  8
S-TXT
100
AcDbLine
 10
6.6
 20
-15.5
 30
0.0
 11
5.05
 21
-15.5
 31
0.0
  0
HATCH
  5
183
330
17
100
AcDbEntity
  8
S-TXT
 62
7
100
AcDbHatch
 10
0.0
 20
0.0
 30
0.0
210
0.0
220
0.0
230
1.0
  2
SOLID
 70
1
 71
0
 91
1
 92
3
 72
0
 73
1
 93
3
 10
4.8
 20
-15.5
 10
5.08
 20
-15.41
 10
5.08
 20
-15.59
 97
0
 75
0
 76
1
 98
0
  0
TEXT
  5
184
330
17
100
AcDbEntity
  8
S-TXT
100
AcDbText
 10
5.699999999999999
 20
-15.280000000000001
 30
0.0
 40
0.17
  1
13 %
  7
ARIAL
 72
1
 11
5.699999999999999
 21
-15.280000000000001
 31
0.0
100
AcDbText
 73
2
  0
LINE
  5
185
330
17
100
AcDbEntity
  8
S-TXT
100
AcDbLine
 10
9.5
 20
-19.25
 30
0.0
 11
7.95
 21
-19.25
 31
0.0
  0
HATCH
  5
186
330
17
100
AcDbEntity
  8
S-TXT
 62
7
100
AcDbHatch
 10
0.0
 20
0.0
 30
0.0
210
0.0
220
0.0
230
1.0
  2
SOLID
 70
1
 71
0
 91
1
 92
3
 72
0
 73
1
 93
3
 10
7.7
 20
-19.25
 10
7.98
 20
-19.16
 10
7.98
 20
-19.34
 97
0
 75
0
 76
1
 98
0
  0
TEXT
  5
187
330
17
100
AcDbEntity
  8
S-TXT
100
AcDbText
 10
8.6
 20
-19.03
 30
0.0
 40
0.17
  1
13 %
  7
ARIAL
 72
1
 11
8.6
 21
-19.03
 31
0.0
100
AcDbText
 73
2
  0
LINE
  5
188
330
17
100
AcDbEntity
  8
S-TXT
100
AcDbLine
 10
13.0
 20
-15.5
 30
0.0
 11
11.65
 21
-15.5
 31
0.0
  0
HATCH
  5
189
330
17
100
AcDbEntity
  8
S-TXT
 62
7
100
AcDbHatch
 10
0.0
 20
0.0
 30
0.0
210
0.0
220
0.0
230
1.0
  2
SOLID
 70
1
 71
0
 91
1
 92
3
 72
0
 73
1
 93
3
 10
11.4
 20
-15.5
 10
11.68
 20
-15.41
 10
11.68
 20
-15.59
 97
0
 75
0
 76
1
 98
0
  0
TEXT
  5
18A
330
17
100
AcDbEntity
  8
S-TXT
100
AcDbText
 10
12.2
 20
-15.280000000000001
 30
0.0
 40
0.17
  1
13 %
  7
ARIAL
 72
1
 11
12.2
 21
-15.280000000000001
 31
0.0
100
AcDbText
 73
2
  0
LINE
  5
18B
330
17
100
AcDbEntity
  8
S-TXT
100
AcDbLine
 10
14.3
 20
-13.2
 30
0.0
 11
15.65
 21
-13.2
 31
0.0
  0
HATCH
  5
18C
330
17
100
AcDbEntity
  8
S-TXT
 62
7
100
AcDbHatch
 10
0.0
 20
0.0
 30
0.0
210
0.0
220
0.0
230
1.0
  2
SOLID
 70
1
 71
0
 91
1
 92
3
 72
0
 73
1
 93
3
 10
15.9
 20
-13.2
 10
15.620000000000001
 20
-13.11
 10
15.620000000000001
 20
-13.29
 97
0
 75
0
 76
1
 98
0
  0
TEXT
  5
18D
330
17
100
AcDbEntity
  8
S-TXT
100
AcDbText
 10
15.100000000000001
 20
-12.98
 30
0.0
 40
0.17
  1
13 %
  7
ARIAL
 72
1
 11
15.100000000000001
 21
-12.98
 31
0.0
100
AcDbText
 73
2
  0
LINE
  5
18E
330
17
100
AcDbEntity
  8
S-TXT
100
AcDbLine
 10
15.5
 20
-17.5
 30
0.0
 11
17.05
 21
-17.5
 31
0.0
  0
HATCH
  5
18F
330
17
100
AcDbEntity
  8
S-TXT
 62
7
100
AcDbHatch
 10
0.0
 20
0.0
 30
0.0
210
0.0
220
0.0
230
1.0
  2
SOLID
 70
1
 71
0
 91
1
 92
3
 72
0
 73
1
 93
3
 10
17.3
 20
-17.5
 10
17.02
 20
-17.41
 10
17.02
 20
-17.59
 97
0
 75
0
 76
1
 98
0
  0
TEXT
  5
190
330
17
100
AcDbEntity
  8
S-TXT
100
AcDbText
 10
16.4
 20
-17.28
 30
0.0
 40
0.17
  1
13 %
  7
ARIAL
 72
1
 11
16.4
 21
-17.28
 31
0.0
100
AcDbText
 73
2
  0
LINE
  5
191
330
17
100
AcDbEntity
  8
S-TXT
100
AcDbLine
 10
21.0
 20
-14.0
 30
0.0
 11
22.55
 21
-14.0
 31
0.0
  0
HATCH
  5
192
330
17
100
AcDbEntity
  8
S-TXT
 62
7
100
AcDbHatch
 10
0.0
 20
0.0
 30
0.0
210
0.0
220
0.0
230
1.0
  2
SOLID
 70
1
 71
0
 91
1
 92
3
 72
0
 73
1
 93
3
 10
22.8
 20
-14.0
 10
22.52
 20
-13.91
 10
22.52
 20
-14.09
 97
0
 75
0
 76
1
 98
0
  0
TEXT
  5
193
330
17
100
AcDbEntity
  8
S-TXT
100
AcDbText
 10
21.9
 20
-13.780000000000001
 30
0.0
 40
0.17
  1
13 %
  7
ARIAL
 72
1
 11
21.9
 21
-13.780000000000001
 31
0.0
100
AcDbText
 73
2
  0
LINE
  5
194
330
17
100
AcDbEntity
  8
S-FINO
100
AcDbLine
 10
1.51
 20
-16.4
 30
0.0
 11
1.51
 21
-18.8
 31
0.0
  0
HATCH
  5
195
330
17
100
AcDbEntity
  8
S-FINO
 62
7
100
AcDbHatch
 10
0.0
 20
0.0
 30
0.0
210
0.0
220
0.0
230
1.0
  2
SOLID
 70
1
 71
0
 91
1
 92
3
 72
0
 73
1
 93
3
 10
1.51
 20
-18.8
 10
1.44
 20
-18.580000000000002
 10
1.58
 20
-18.580000000000002
 97
0
 75
0
 76
1
 98
0
  0
LINE
  5
196
330
17
100
AcDbEntity
  8
S-FINO
100
AcDbLine
 10
1.51
 20
-14.6
 30
0.0
 11
1.51
 21
-12.2
 31
0.0
  0
HATCH
  5
197
330
17
100
AcDbEntity
  8
S-FINO
 62
7
100
AcDbHatch
 10
0.0
 20
0.0
 30
0.0
210
0.0
220
0.0
230
1.0
  2
SOLID
 70
1
 71
0
 91
1
 92
3
 72
0
 73
1
 93
3
 10
1.51
 20
-12.2
 10
1.44
 20
-12.42
 10
1.58
 20
-12.42
 97
0
 75
0
 76
1
 98
0
  0
LINE
  5
198
330
17
100
AcDbEntity
  8
S-FINO
100
AcDbLine
 10
25.73
 20
-16.4
 30
0.0
 11
25.73
 21
-18.8
 31
0.0
  0
HATCH
  5
199
330
17
100
AcDbEntity
  8
S-FINO
 62
7
100
AcDbHatch
 10
0.0
 20
0.0
 30
0.0
210
0.0
220
0.0
230
1.0
  2
SOLID
 70
1
 71
0
 91
1
 92
3
 72
0
 73
1
 93
3
 10
25.73
 20
-18.8
 10
25.66
 20
-18.580000000000002
 10
25.8
 20
-18.580000000000002
 97
0
 75
0
 76
1
 98
0
  0
LINE
  5
19A
330
17
100
AcDbEntity
  8
S-FINO
100
AcDbLine
 10
25.73
 20
-14.6
 30
0.0
 11
25.73
 21
-12.2
 31
0.0
  0
HATCH
  5
19B
330
17
100
AcDbEntity
  8
S-FINO
 62
7
100
AcDbHatch
 10
0.0
 20
0.0
 30
0.0
210
0.0
220
0.0
230
1.0
  2
SOLID
 70
1
 71
0
 91
1
 92
3
 72
0
 73
1
 93
3
 10
25.73
 20
-12.2
 10
25.66
 20
-12.42
 10
25.8
 20
-12.42
 97
0
 75
0
 76
1
 98
0
  0
LINE
  5
19C
330
17
100
AcDbEntity
  8
S-FINO
100
AcDbLine
 10
9.81
 20
-16.0
 30
0.0
 11
9.81
 21
-12.4
 31
0.0
  0
HATCH
  5
19D
330
17
100
AcDbEntity
  8
S-FINO
 62
7
100
AcDbHatch
 10
0.0
 20
0.0
 30
0.0
210
0.0
220
0.0
230
1.0
  2
SOLID
 70
1
 71
0
 91
1
 92
3
 72
0
 73
1
 93
3
 10
9.81
 20
-12.4
 10
9.74
 20
-12.620000000000001
 10
9.88
 20
-12.620000000000001
 97
0
 75
0
 76
1
 98
0
  0
LINE
  5
19E
330
17
100
AcDbEntity
  8
S-FINO
100
AcDbLine
 10
17.43
 20
-13.8
 30
0.0
 11
17.43
 21
-12.2
 31
0.0
  0
HATCH
  5
19F
330
17
100
AcDbEntity
  8
S-FINO
 62
7
100
AcDbHatch
 10
0.0
 20
0.0
 30
0.0
210
0.0
220
0.0
230
1.0
  2
SOLID
 70
1
 71
0
 91
1
 92
3
 72
0
 73
1
 93
3
 10
17.43
 20
-12.2
 10
17.36
 20
-12.42
 10
17.5
 20
-12.42
 97
0
 75
0
 76
1
 98
0
  0
TEXT
  5
1A0
330
17
100
AcDbEntity
  8
S-TXT
100
AcDbText
 10
1.26
 20
-15.5
 30
0.0
 40
0.17
  1
CANOA FRONTAL (DET. 1) - PEND. HACIA BAJANTES
 50
90.0
  7
ARIAL
 72
1
 11
1.26
 21
-15.5
 31
0.0
100
AcDbText
 73
2
  0
TEXT
  5
1A1
330
17
100
AcDbEntity
  8
S-TXT
100
AcDbText
 10
25.98
 20
-15.5
 30
0.0
 40
0.17
  1
CANOA POSTERIOR (DET. 1) - PEND. HACIA BAJANTES
 50
90.0
  7
ARIAL
 72
1
 11
25.98
 21
-15.5
 31
0.0
100
AcDbText
 73
2
  0
TEXT
  5
1A2
330
17
100
AcDbEntity
  8
S-TXT
100
AcDbText
 10
9.51
 20
-17.0
 30
0.0
 40
0.14
  1
CANOA HACIA P1
 50
90.0
  7
ARIAL
 72
1
 11
9.51
 21
-17.0
 31
0.0
100
AcDbText
 73
2
  0
TEXT
  5
1A3
330
17
100
AcDbEntity
  8
S-TXT
100
AcDbText
 10
17.73
 20
-14.1
 30
0.0
 40
0.14
  1
CANOA HACIA P2
 50
90.0
  7
ARIAL
 72
1
 11
17.73
 21
-14.1
 31
0.0
100
AcDbText
 73
2
  0
TEXT
  5
1A4
330
17
100
AcDbEntity
  8
S-TXT
100
AcDbText
 10
5.0
 20
-16.8
 30
0.0
 40
0.17
  1
LÁMINA CAL. 26 (C04)
  7
ARIAL
 11
5.0
 21
-16.8
 31
0.0
100
AcDbText
 73
2
  0
TEXT
  5
1A5
330
17
100
AcDbEntity
  8
S-TXT
100
AcDbText
 10
2.5100000000000002
 20
-12.4
 30
0.0
 40
0.14
  1
ALERO +9.20
  7
ARIAL
 11
2.5100000000000002
 21
-12.4
 31
0.0
100
AcDbText
 73
2
  0
TEXT
  5
1A6
330
17
100
AcDbEntity
  8
S-TXT
100
AcDbText
 10
24.73
 20
-12.4
 30
0.0
 40
0.14
  1
ALERO +9.20
  7
ARIAL
 72
2
 11
24.73
 21
-12.4
 31
0.0
100
AcDbText
 73
2
  0
TEXT
  5
1A7
330
17
100
AcDbEntity
  8
S-TXT
100
AcDbText
 10
10.66
 20
-17.8
 30
0.0
 40
0.13
  1
BORDE +10.26
  7
ARIAL
 11
10.66
 21
-17.8
 31
0.0
100
AcDbText
 73
2
  0
TEXT
  5
1A8
330
17
100
AcDbEntity
  8
S-TXT
100
AcDbText
 10
16.580000000000002
 20
-14.0
 30
0.0
 40
0.13
  1
BORDE +10.26
  7
ARIAL
 72
2
 11
16.580000000000002
 21
-14.0
 31
0.0
100
AcDbText
 73
2
  0
TEXT
  5
1A9
330
17
100
AcDbEntity
  8
S-TXT
100
AcDbText
 10
27.95
 20
4.5
 30
0.0
 40
0.13
  1
PATIO POSTERIOR - JARDÍN SECO
 50
90.0
  7
ARIAL
 72
1
 11
27.95
 21
4.5
 31
0.0
100
AcDbText
 73
2
  0
CIRCLE
  5
1AA
330
17
100
AcDbEntity
  8
S-AP
100
AcDbCircle
 10
1.96
 20
0.24
 30
0.0
 40
0.11
  0
CIRCLE
  5
1AB
330
17
100
AcDbEntity
  8
S-AP
100
AcDbCircle
 10
1.96
 20
0.24
 30
0.0
 40
0.05
  0
CIRCLE
  5
1AC
330
17
100
AcDbEntity
  8
S-AP
100
AcDbCircle
 10
1.96
 20
8.76
 30
0.0
 40
0.11
  0
CIRCLE
  5
1AD
330
17
100
AcDbEntity
  8
S-AP
100
AcDbCircle
 10
1.96
 20
8.76
 30
0.0
 40
0.05
  0
CIRCLE
  5
1AE
330
17
100
AcDbEntity
  8
S-AP
100
AcDbCircle
 10
25.28
 20
8.76
 30
0.0
 40
0.11
  0
CIRCLE
  5
1AF
330
17
100
AcDbEntity
  8
S-AP
100
AcDbCircle
 10
25.28
 20
8.76
 30
0.0
 40
0.05
  0
CIRCLE
  5
1B0
330
17
100
AcDbEntity
  8
S-AP
100
AcDbCircle
 10
25.28
 20
0.24
 30
0.0
 40
0.11
  0
CIRCLE
  5
1B1
330
17
100
AcDbEntity
  8
S-AP
100
AcDbCircle
 10
25.28
 20
0.24
 30
0.0
 40
0.05
  0
CIRCLE
  5
1B2
330
17
100
AcDbEntity
  8
S-AP
100
AcDbCircle
 10
10.16
 20
8.72
 30
0.0
 40
0.11
  0
CIRCLE
  5
1B3
330
17
100
AcDbEntity
  8
S-AP
100
AcDbCircle
 10
10.16
 20
8.72
 30
0.0
 40
0.05
  0
CIRCLE
  5
1B4
330
17
100
AcDbEntity
  8
S-AP
100
AcDbCircle
 10
17.080000000000002
 20
8.72
 30
0.0
 40
0.11
  0
CIRCLE
  5
1B5
330
17
100
AcDbEntity
  8
S-AP
100
AcDbCircle
 10
17.080000000000002
 20
8.72
 30
0.0
 40
0.05
  0
LWPOLYLINE
  5
1B6
330
17
100
AcDbEntity
  8
S-ACC
100
AcDbPolyline
 90
4
 70
1
 10
0.5499999999999999
 20
0.15
 10
0.5499999999999999
 20
0.44999999999999996
 10
0.85
 20
0.44999999999999996
 10
0.85
 20
0.15
  0
LWPOLYLINE
  5
1B7
330
17
100
AcDbEntity
  8
S-FINO
100
AcDbPolyline
 90
4
 70
1
 10
0.6
 20
0.2
 10
0.6
 20
0.39999999999999997
 10
0.7999999999999999
 20
0.39999999999999997
 10
0.7999999999999999
 20
0.2
  0
LWPOLYLINE
  5
1B8
330
17
100
AcDbEntity
  8
S-ACC
100
AcDbPolyline
 90
4
 70
1
 10
0.5499999999999999
 20
8.45
 10
0.5499999999999999
 20
8.75
 10
0.85
 20
8.75
 10
0.85
 20
8.45
  0
LWPOLYLINE
  5
1B9
330
17
100
AcDbEntity
  8
S-FINO
100
AcDbPolyline
 90
4
 70
1
 10
0.6
 20
8.5
 10
0.6
 20
8.7
 10
0.7999999999999999
 20
8.7
 10
0.7999999999999999
 20
8.5
  0
LWPOLYLINE
  5
1BA
330
17
100
AcDbEntity
  8
S-ACC
100
AcDbPolyline
 90
4
 70
1
 10
25.900000000000002
 20
8.4
 10
25.900000000000002
 20
8.700000000000001
 10
26.2
 20
8.700000000000001
 10
26.2
 20
8.4
  0
LWPOLYLINE
  5
1BB
330
17
100
AcDbEntity
  8
S-FINO
100
AcDbPolyline
 90
4
 70
1
 10
25.950000000000003
 20
8.450000000000001
 10
25.950000000000003
 20
8.65
 10
26.15
 20
8.65
 10
26.15
 20
8.450000000000001
  0
LWPOLYLINE
  5
1BC
330
17
100
AcDbEntity
  8
S-ACC
100
AcDbPolyline
 90
4
 70
1
 10
25.900000000000002
 20
0.7
 10
25.900000000000002
 20
1.0
 10
26.2
 20
1.0
 10
26.2
 20
0.7
  0
LWPOLYLINE
  5
1BD
330
17
100
AcDbEntity
  8
S-FINO
100
AcDbPolyline
 90
4
 70
1
 10
25.950000000000003
 20
0.75
 10
25.950000000000003
 20
0.95
 10
26.15
 20
0.95
 10
26.15
 20
0.75
  0
LWPOLYLINE
  5
1BE
330
17
100
AcDbEntity
  8
S-ACC
100
AcDbPolyline
 90
4
 70
1
 10
8.85
 20
8.4
 10
8.85
 20
8.700000000000001
 10
9.15
 20
8.700000000000001
 10
9.15
 20
8.4
  0
LWPOLYLINE
  5
1BF
330
17
100
AcDbEntity
  8
S-FINO
100
AcDbPolyline
 90
4
 70
1
 10
8.9
 20
8.450000000000001
 10
8.9
 20
8.65
 10
9.1
 20
8.65
 10
9.1
 20
8.450000000000001
  0
LWPOLYLINE
  5
1C0
330
17
100
AcDbEntity
  8
S-ACC
100
AcDbPolyline
 90
4
 70
1
 10
17.75
 20
8.4
 10
17.75
 20
8.700000000000001
 10
18.049999999999997
 20
8.700000000000001
 10
18.049999999999997
 20
8.4
  0
LWPOLYLINE
  5
1C1
330
17
100
AcDbEntity
  8
S-FINO
100
AcDbPolyline
 90
4
 70
1
 10
17.8
 20
8.450000000000001
 10
17.8
 20
8.65
 10
17.999999999999996
 20
8.65
 10
17.999999999999996
 20
8.450000000000001
  0
LWPOLYLINE
  5
1C2
330
17
100
AcDbEntity
  8
S-ACC
100
AcDbPolyline
 90
4
 70
1
 10
20.85
 20
0.7
 10
20.85
 20
1.0
 10
21.15
 20
1.0
 10
21.15
 20
0.7
  0
LWPOLYLINE
  5
1C3
330
17
100
AcDbEntity
  8
S-FINO
100
AcDbPolyline
 90
4
 70
1
 10
20.900000000000002
 20
0.75
 10
20.900000000000002
 20
0.95
 10
21.099999999999998
 20
0.95
 10
21.099999999999998
 20
0.75
  0
LWPOLYLINE
  5
1C4
330
17
100
AcDbEntity
  8
S-ACC
100
AcDbPolyline
 90
4
 70
1
 10
13.25
 20
0.7
 10
13.25
 20
1.0
 10
13.55
 20
1.0
 10
13.55
 20
0.7
  0
LWPOLYLINE
  5
1C5
330
17
100
AcDbEntity
  8
S-FINO
100
AcDbPolyline
 90
4
 70
1
 10
13.3
 20
0.75
 10
13.3
 20
0.95
 10
13.5
 20
0.95
 10
13.5
 20
0.75
  0
LWPOLYLINE
  5
1C6
330
17
100
AcDbEntity
  8
S-ACC
100
AcDbPolyline
 90
4
 70
1
 10
6.1499999999999995
 20
0.7
 10
6.1499999999999995
 20
1.0
 10
6.45
 20
1.0
 10
6.45
 20
0.7
  0
LWPOLYLINE
  5
1C7
330
17
100
AcDbEntity
  8
S-FINO
100
AcDbPolyline
 90
4
 70
1
 10
6.199999999999999
 20
0.75
 10
6.199999999999999
 20
0.95
 10
6.4
 20
0.95
 10
6.4
 20
0.75
  0
LWPOLYLINE
  5
1C8
330
17
100
AcDbEntity
  8
S-AP
100
AcDbPolyline
 90
2
 70
0
 10
25.28
 20
8.76
 10
26.05
 20
8.7
  0
LWPOLYLINE
  5
1C9
330
17
100
AcDbEntity
  8
S-AP
100
AcDbPolyline
 90
2
 70
0
 10
25.900000000000002
 20
8.55
 10
18.049999999999997
 20
8.55
  0
LWPOLYLINE
  5
1CA
330
17
100
AcDbEntity
  8
S-AP
100
AcDbPolyline
 90
2
 70
0
 10
17.080000000000002
 20
8.72
 10
17.75
 20
8.62
  0
LWPOLYLINE
  5
1CB
330
17
100
AcDbEntity
  8
S-AP
100
AcDbPolyline
 90
2
 70
0
 10
17.75
 20
8.55
 10
9.15
 20
8.55
  0
LWPOLYLINE
  5
1CC
330
17
100
AcDbEntity
  8
S-AP
100
AcDbPolyline
 90
2
 70
0
 10
10.16
 20
8.72
 10
9.15
 20
8.62
  0
LWPOLYLINE
  5
1CD
330
17
100
AcDbEntity
  8
S-AP
100
AcDbPolyline
 90
2
 70
0
 10
8.85
 20
8.55
 10
0.85
 20
8.6
  0
LWPOLYLINE
  5
1CE
330
17
100
AcDbEntity
  8
S-AP
100
AcDbPolyline
 90
2
 70
0
 10
1.96
 20
8.76
 10
0.85
 20
8.7
  0
LWPOLYLINE
  5
1CF
330
17
100
AcDbEntity
  8
S-AP
100
AcDbPolyline
 90
2
 70
0
 10
0.5499999999999999
 20
8.6
 10
-1.1
 20
8.6
  0
LWPOLYLINE
  5
1D0
330
17
100
AcDbEntity
  8
S-AP
100
AcDbPolyline
 90
2
 70
0
 10
25.28
 20
0.24
 10
26.05
 20
0.7
  0
LWPOLYLINE
  5
1D1
330
17
100
AcDbEntity
  8
S-AP
100
AcDbPolyline
 90
2
 70
0
 10
25.900000000000002
 20
0.85
 10
21.15
 20
0.85
  0
LWPOLYLINE
  5
1D2
330
17
100
AcDbEntity
  8
S-AP
100
AcDbPolyline
 90
2
 70
0
 10
20.85
 20
0.85
 10
13.55
 20
0.85
  0
LWPOLYLINE
  5
1D3
330
17
100
AcDbEntity
  8
S-AP
100
AcDbPolyline
 90
2
 70
0
 10
13.25
 20
0.85
 10
6.45
 20
0.85
  0
LWPOLYLINE
  5
1D4
330
17
100
AcDbEntity
  8
S-AP
100
AcDbPolyline
 90
3
 70
0
 10
6.1499999999999995
 20
0.85
 10
3.2
 20
0.85
 10
0.85
 20
0.3
  0
LWPOLYLINE
  5
1D5
330
17
100
AcDbEntity
  8
S-AP
100
AcDbPolyline
 90
2
 70
0
 10
1.96
 20
0.24
 10
0.85
 20
0.36
  0
LWPOLYLINE
  5
1D6
330
17
100
AcDbEntity
  8
S-AP
100
AcDbPolyline
 90
2
 70
0
 10
0.5499999999999999
 20
0.3
 10
-1.1
 20
0.3
  0
HATCH
  5
1D7
330
17
100
AcDbEntity
  8
S-AP
 62
7
100
AcDbHatch
 10
0.0
 20
0.0
 30
0.0
210
0.0
220
0.0
230
1.0
  2
SOLID
 70
1
 71
0
 91
1
 92
3
 72
0
 73
1
 93
3
 10
-1.35
 20
0.3
 10
-1.1
 20
0.39
 10
-1.1
 20
0.21
 97
0
 75
0
 76
1
 98
0
  0
HATCH
  5
1D8
330
17
100
AcDbEntity
  8
S-AP
 62
7
100
AcDbHatch
 10
0.0
 20
0.0
 30
0.0
210
0.0
220
0.0
230
1.0
  2
SOLID
 70
1
 71
0
 91
1
 92
3
 72
0
 73
1
 93
3
 10
-1.35
 20
8.6
 10
-1.1
 20
8.69
 10
-1.1
 20
8.51
 97
0
 75
0
 76
1
 98
0
  0
TEXT
  5
1D9
330
17
100
AcDbEntity
  8
S-TXT
100
AcDbText
 10
-1.3
 20
0.5
 30
0.0
 40
0.15
  1
A CUNETA (DET. 3)
 50
90.0
  7
ARIAL
 11
-1.3
 21
0.5
 31
0.0
100
AcDbText
 73
2
  0
TEXT
  5
1DA
330
17
100
AcDbEntity
  8
S-TXT
100
AcDbText
 10
-1.3
 20
8.4
 30
0.0
 40
0.15
  1
A CUNETA (DET. 3)
 50
90.0
  7
ARIAL
 72
2
 11
-1.3
 21
8.4
 31
0.0
100
AcDbText
 73
2
  0
LINE
  5
1DB
330
17
100
AcDbEntity
  8
S-FINO
100
AcDbLine
 10
26.2
 20
0.85
 30
0.0
 11
26.599999999999998
 21
1.4
 31
0.0
  0
TEXT
  5
1DC
330
17
100
AcDbEntity
  8
S-TXT
100
AcDbText
 10
26.679999999999996
 20
1.4
 30
0.0
 40
0.17
  1
CR-P4
  7
ARIAL
 11
26.679999999999996
 21
1.4
 31
0.0
100
AcDbText
 73
2
  0
LINE
  5
1DD
330
17
100
AcDbEntity
  8
S-FINO
100
AcDbLine
 10
21.15
 20
0.85
 30
0.0
 11
21.5
 21
1.3
 31
0.0
  0
TEXT
  5
1DE
330
17
100
AcDbEntity
  8
S-TXT
100
AcDbText
 10
21.58
 20
1.3
 30
0.0
 40
0.17
  1
CR-P7
  7
ARIAL
 11
21.58
 21
1.3
 31
0.0
100
AcDbText
 73
2
  0
LINE
  5
1DF
330
17
100
AcDbEntity
  8
S-FINO
100
AcDbLine
 10
13.55
 20
0.85
 30
0.0
 11
13.9
 21
1.3
 31
0.0
  0
TEXT
  5
1E0
330
17
100
AcDbEntity
  8
S-TXT
100
AcDbText
 10
13.98
 20
1.3
 30
0.0
 40
0.17
  1
CR-P8
  7
ARIAL
 11
13.98
 21
1.3
 31
0.0
100
AcDbText
 73
2
  0
LINE
  5
1E1
330
17
100
AcDbEntity
  8
S-FINO
100
AcDbLine
 10
6.45
 20
0.85
 30
0.0
 11
6.8
 21
1.3
 31
0.0
  0
TEXT
  5
1E2
330
17
100
AcDbEntity
  8
S-TXT
100
AcDbText
 10
6.88
 20
1.3
 30
0.0
 40
0.17
  1
CR-P9
  7
ARIAL
 11
6.88
 21
1.3
 31
0.0
100
AcDbText
 73
2
  0
LINE
  5
1E3
330
17
100
AcDbEntity
  8
S-FINO
100
AcDbLine
 10
0.85
 20
0.3
 30
0.0
 11
1.35
 21
0.8500000000000001
 31
0.0
  0
TEXT
  5
1E4
330
17
100
AcDbEntity
  8
S-TXT
100
AcDbText
 10
1.4300000000000002
 20
0.8500000000000001
 30
0.0
 40
0.17
  1
CR-P1
  7
ARIAL
 11
1.4300000000000002
 21
0.8500000000000001
 31
0.0
100
AcDbText
 73
2
  0
LINE
  5
1E5
330
17
100
AcDbEntity
  8
S-FINO
100
AcDbLine
 10
26.2
 20
8.55
 30
0.0
 11
26.599999999999998
 21
8.100000000000001
 31
0.0
  0
TEXT
  5
1E6
330
17
100
AcDbEntity
  8
S-TXT
100
AcDbText
 10
26.679999999999996
 20
8.100000000000001
 30
0.0
 40
0.17
  1
CR-P3
  7
ARIAL
 11
26.679999999999996
 21
8.100000000000001
 31
0.0
100
AcDbText
 73
2
  0
LINE
  5
1E7
330
17
100
AcDbEntity
  8
S-FINO
100
AcDbLine
 10
18.05
 20
8.55
 30
0.0
 11
18.45
 21
8.100000000000001
 31
0.0
  0
TEXT
  5
1E8
330
17
100
AcDbEntity
  8
S-TXT
100
AcDbText
 10
18.529999999999998
 20
8.100000000000001
 30
0.0
 40
0.17
  1
CR-P6
  7
ARIAL
 11
18.529999999999998
 21
8.100000000000001
 31
0.0
100
AcDbText
 73
2
  0
LINE
  5
1E9
330
17
100
AcDbEntity
  8
S-FINO
100
AcDbLine
 10
8.85
 20
8.55
 30
0.0
 11
8.45
 21
8.100000000000001
 31
0.0
  0
TEXT
  5
1EA
330
17
100
AcDbEntity
  8
S-TXT
100
AcDbText
 10
8.37
 20
8.100000000000001
 30
0.0
 40
0.17
  1
CR-P5
  7
ARIAL
 72
2
 11
8.37
 21
8.100000000000001
 31
0.0
100
AcDbText
 73
2
  0
LINE
  5
1EB
330
17
100
AcDbEntity
  8
S-FINO
100
AcDbLine
 10
0.85
 20
8.6
 30
0.0
 11
1.35
 21
8.049999999999999
 31
0.0
  0
TEXT
  5
1EC
330
17
100
AcDbEntity
  8
S-TXT
100
AcDbText
 10
1.4300000000000002
 20
8.049999999999999
 30
0.0
 40
0.17
  1
CR-P2
  7
ARIAL
 11
1.4300000000000002
 21
8.049999999999999
 31
0.0
100
AcDbText
 73
2
  0
LINE
  5
1ED
330
17
100
AcDbEntity
  8
S-FINO
100
AcDbLine
 10
17.080000000000002
 20
8.72
 30
0.0
 11
16.48
 21
8.270000000000001
 31
0.0
  0
TEXT
  5
1EE
330
17
100
AcDbEntity
  8
S-TXT
100
AcDbText
 10
16.400000000000002
 20
8.270000000000001
 30
0.0
 40
0.17
  1
BP-6
  7
ARIAL
 72
2
 11
16.400000000000002
 21
8.270000000000001
 31
0.0
100
AcDbText
 73
2
  0
LINE
  5
1EF
330
17
100
AcDbEntity
  8
S-FINO
100
AcDbLine
 10
10.16
 20
8.72
 30
0.0
 11
10.66
 21
8.270000000000001
 31
0.0
  0
TEXT
  5
1F0
330
17
100
AcDbEntity
  8
S-TXT
100
AcDbText
 10
10.74
 20
8.270000000000001
 30
0.0
 40
0.17
  1
BP-5
  7
ARIAL
 11
10.74
 21
8.270000000000001
 31
0.0
100
AcDbText
 73
2
  0
LINE
  5
1F1
330
17
100
AcDbEntity
  8
S-FINO
100
AcDbLine
 10
1.96
 20
0.24
 30
0.0
 11
2.31
 21
1.94
 31
0.0
  0
TEXT
  5
1F2
330
17
100
AcDbEntity
  8
S-TXT
100
AcDbText
 10
2.39
 20
1.94
 30
0.0
 40
0.17
  1
BP-1 OCULTO EN MURO
  7
ARIAL
 11
2.39
 21
1.94
 31
0.0
100
AcDbText
 73
2
  0
LINE
  5
1F3
330
17
100
AcDbEntity
  8
S-FINO
100
AcDbLine
 10
1.96
 20
8.76
 30
0.0
 11
2.6
 21
8.1
 31
0.0
  0
TEXT
  5
1F4
330
17
100
AcDbEntity
  8
S-TXT
100
AcDbText
 10
2.68
 20
8.1
 30
0.0
 40
0.17
  1
BP-2 OCULTO EN MURO
  7
ARIAL
 11
2.68
 21
8.1
 31
0.0
100
AcDbText
 73
2
  0
TEXT
  5
1F5
330
17
100
AcDbEntity
  8
S-TXT
100
AcDbText
 10
8.7
 20
1.05
 30
0.0
 40
0.17
  1
COLECTOR OESTE Ø 4", PEND. 2 %
  7
ARIAL
 11
8.7
 21
1.05
 31
0.0
100
AcDbText
 73
2
  0
TEXT
  5
1F6
330
17
100
AcDbEntity
  8
S-TXT
100
AcDbText
 10
11.8
 20
7.95
 30
0.0
 40
0.17
  1
COLECTOR ESTE Ø 4", PEND. 2 %
  7
ARIAL
 11
11.8
 21
7.95
 31
0.0
100
AcDbText
 73
2
  0
VIEWPORT
  5
1FB
330
1F7
100
AcDbEntity
 67
1
  8
VIEWPORTS
100
AcDbViewport
 10
420.5
 20
297.0
 30
0.0
 40
925.1
 41
653.4000000000001
 68
1
 69
1
 12
420.5
 22
297.0
 13
0.0
 23
0.0
 14
10.0
 24
10.0
 15
10.0
 25
10.0
 16
0.0
 26
0.0
 36
1.0
 17
0.0
 27
0.0
 37
0.0
 42
50.0
 43
0.0
 44
0.0
 45
653.4000000000001
 50
0.0
 51
0.0
 72
100
 90
557088
  1

281
0
 71
0
 74
0
110
0.0
120
0.0
130
0.0
111
1.0
121
0.0
131
0.0
112
0.0
122
1.0
132
0.0
 79
0
146
0.0
282
0
  0
LWPOLYLINE
  5
1FC
330
1F7
100
AcDbEntity
 67
1
  8
A-VIEWPORT
100
AcDbPolyline
 90
4
 70
1
 10
0.0
 20
0.0
 10
841.0
 20
0.0
 10
841.0
 20
594.0
 10
0.0
 20
594.0
  0
LWPOLYLINE
  5
1FD
330
1F7
100
AcDbEntity
 67
1
  8
A-MARCO
100
AcDbPolyline
 90
4
 70
1
 10
25.0
 20
10.0
 10
831.0
 20
10.0
 10
831.0
 20
584.0
 10
25.0
 20
584.0
  0
TEXT
  5
1FE
330
1F7
100
AcDbEntity
 67
1
  8
A-TEXTO
100
AcDbText
 10
25.0
 20
4.0
 30
0.0
 40
1.8
  1
FORMATO A1  841 mm x 594 mm
  7
ARIAL
 11
25.0
 21
4.0
 31
0.0
100
AcDbText
  0
VIEWPORT
  5
1FF
330
1F7
100
AcDbEntity
 67
1
  8
A-VIEWPORT
100
AcDbViewport
 10
186.0
 20
512.0
 30
0.0
 40
316.0
 41
136.0
 68
2
 69
3
 12
14.8
 22
-16.25
 13
0.0
 23
0.0
 14
10.0
 24
10.0
 15
10.0
 25
10.0
 16
0.0
 26
0.0
 36
1.0
 17
0.0
 27
0.0
 37
0.0
 42
50.0
 43
0.0
 44
0.0
 45
13.6
 50
0.0
 51
0.0
 72
100
 90
16384
  1

281
0
 71
0
 74
0
110
0.0
120
0.0
130
0.0
111
1.0
121
0.0
131
0.0
112
0.0
122
1.0
132
0.0
 79
0
146
0.0
282
0
  0
TEXT
  5
200
330
1F7
100
AcDbEntity
 67
1
  8
A-TITULOS
100
AcDbText
 10
30.0
 20
444.0
 30
0.0
 40
4.5
  1
AGUAS PLUVIALES - PLANTA DE TECHO
  7
ARIAL
 11
30.0
 21
444.0
 31
0.0
100
AcDbText
 73
3
  0
TEXT
  5
201
330
1F7
100
AcDbEntity
 67
1
  8
A-TEXTO
100
AcDbText
 10
30.0
 20
437.5
 30
0.0
 40
2.5
  1
Esc. 1:100
  7
ARIAL
 11
30.0
 21
437.5
 31
0.0
100
AcDbText
 73
3
  0
VIEWPORT
  5
202
330
1F7
100
AcDbEntity
 67
1
  8
A-VIEWPORT
100
AcDbViewport
 10
186.0
 20
362.0
 30
0.0
 40
316.0
 41
136.0
 68
2
 69
4
 12
14.8
 22
3.75
 13
0.0
 23
0.0
 14
10.0
 24
10.0
 15
10.0
 25
10.0
 16
0.0
 26
0.0
 36
1.0
 17
0.0
 27
0.0
 37
0.0
 42
50.0
 43
0.0
 44
0.0
 45
13.6
 50
0.0
 51
0.0
 72
100
 90
16384
  1

281
0
 71
0
 74
0
110
0.0
120
0.0
130
0.0
111
1.0
121
0.0
131
0.0
112
0.0
122
1.0
132
0.0
 79
0
146
0.0
282
0
  0
TEXT
  5
203
330
1F7
100
AcDbEntity
 67
1
  8
A-TITULOS
100
AcDbText
 10
30.0
 20
294.0
 30
0.0
 40
4.5
  1
AGUAS PLUVIALES - NIVEL 1
  7
ARIAL
 11
30.0
 21
294.0
 31
0.0
100
AcDbText
 73
3
  0
TEXT
  5
204
330
1F7
100
AcDbEntity
 67
1
  8
A-TEXTO
100
AcDbText
 10
30.0
 20
287.5
 30
0.0
 40
2.5
  1
Esc. 1:100
  7
ARIAL
 11
30.0
 21
287.5
 31
0.0
100
AcDbText
 73
3
  0
TEXT
  5
205
330
1F7
100
AcDbEntity
 67
1
  8
A-TITULOS
100
AcDbText
 10
30.0
 20
280.0
 30
0.0
 40
3.2
  1
DETALLE 1 - CANOA (SECCIÓN TÍPICA)
  7
ARIAL
 11
30.0
 21
280.0
 31
0.0
100
AcDbText
 73
3
  0
TEXT
  5
206
330
1F7
100
AcDbEntity
 67
1
  8
A-TEXTO
100
AcDbText
 10
30.0
 20
275.0
 30
0.0
 40
2.0
  1
Esc. 1:10 - FRONTAL, POSTERIOR Y HACIA PATIOS
  7
ARIAL
 11
30.0
 21
275.0
 31
0.0
100
AcDbText
 73
3
  0
LWPOLYLINE
  5
207
330
1F7
100
AcDbEntity
 67
1
  8
S-DET
100
AcDbPolyline
 90
4
 70
1
 10
125.0
 20
155.00000000000006
 10
140.0
 20
155.00000000000006
 10
140.0
 20
180.00000000000006
 10
125.0
 20
180.00000000000006
  0
HATCH
  5
208
330
1F7
100
AcDbEntity
 67
1
  8
S-FINO
 62
7
100
AcDbHatch
 10
0.0
 20
0.0
 30
0.0
210
0.0
220
0.0
230
1.0
  2
ANSI31
 70
0
 71
0
 91
1
 92
3
 72
0
 73
1
 93
4
 10
125.0
 20
155.00000000000006
 10
140.0
 20
155.00000000000006
 10
140.0
 20
180.00000000000006
 10
125.0
 20
180.00000000000006
 97
0
 75
1
 76
1
 52
0.0
 41
0.5
 77
0
 78
1
 53
45.0
 43
0.0
 44
0.0
 45
-1.1225320152
 46
1.1225320152
 79
0
 98
0
  0
LWPOLYLINE
  5
209
330
1F7
100
AcDbEntity
 67
1
  8
S-DET
100
AcDbPolyline
 90
4
 70
1
 10
127.0
 20
180.00000000000006
 10
137.0
 20
180.00000000000006
 10
137.0
 20
200.0
 10
127.0
 20
200.0
  0
LINE
  5
20A
330
1F7
100
AcDbEntity
 67
1
  8
S-FINO
100
AcDbLine
 10
127.0
 20
181.00000000000006
 30
0.0
 11
137.0
 21
199.00000000000003
 31
0.0
  0
LINE
  5
20B
330
1F7
100
AcDbEntity
 67
1
  8
S-FINO
100
AcDbLine
 10
127.0
 20
199.00000000000003
 30
0.0
 11
137.0
 21
181.00000000000006
 31
0.0
  0
LINE
  5
20C
330
1F7
100
AcDbEntity
 67
1
  8
S-DET
100
AcDbLine
 10
80.0
 20
200.0
 30
0.0
 11
137.0
 21
200.0
 31
0.0
  0
LINE
  5
20D
330
1F7
100
AcDbEntity
 67
1
  8
S-DET
100
AcDbLine
 10
80.0
 20
206.00000000000006
 30
0.0
 11
137.0
 21
206.00000000000006
 31
0.0
  0
LINE
  5
20E
330
1F7
100
AcDbEntity
 67
1
  8
S-DET
100
AcDbLine
 10
80.0
 20
217.4099999999999
 30
0.0
 11
137.0
 21
209.99999999999997
 31
0.0
  0
LINE
  5
20F
330
1F7
100
AcDbEntity
 67
1
  8
S-DET
100
AcDbLine
 10
80.0
 20
223.40999999999997
 30
0.0
 11
137.0
 21
216.0
 31
0.0
  0
LWPOLYLINE
  5
210
330
1F7
100
AcDbEntity
 67
1
  8
S-DET
100
AcDbPolyline
 90
4
 70
1
 10
97.5
 20
220.81
 10
102.5
 20
220.81
 10
102.5
 20
230.80999999999995
 10
97.5
 20
230.80999999999995
  0
LWPOLYLINE
  5
211
330
1F7
100
AcDbEntity
 67
1
  8
S-DET
100
AcDbPolyline
 90
4
 70
1
 10
121.5
 20
217.69
 10
126.5
 20
217.69
 10
126.5
 20
227.68999999999994
 10
121.5
 20
227.68999999999994
  0
LWPOLYLINE
  5
212
330
1F7
100
AcDbEntity
 67
1
  8
S-DET
100
AcDbPolyline
 90
2
 70
0
 43
0.5
 10
80.0
 20
234.7999999999999
 10
150.0
 20
225.69999999999996
  0
LWPOLYLINE
  5
213
330
1F7
100
AcDbEntity
 67
1
  8
S-DET
100
AcDbPolyline
 90
4
 70
1
 10
140.0
 20
201.99999999999994
 10
142.0
 20
201.99999999999994
 10
142.0
 20
226.99999999999994
 10
140.0
 20
226.99999999999994
  0
LWPOLYLINE
  5
214
330
1F7
100
AcDbEntity
 67
1
  8
S-AP
100
AcDbPolyline
 90
7
 70
0
 43
0.4
 10
142.0
 20
225.0
 10
142.0
 20
201.99999999999994
 10
144.0
 20
200.0
 10
160.0
 20
200.0
 10
162.0
 20
201.99999999999994
 10
162.0
 20
217.0
 10
165.0
 20
217.0
  0
LWPOLYLINE
  5
215
330
1F7
100
AcDbEntity
 67
1
  8
S-DET
100
AcDbPolyline
 90
5
 70
0
 10
140.0
 20
209.99999999999997
 10
143.0
 20
209.99999999999997
 10
143.0
 20
198.00000000000006
 10
163.0
 20
198.00000000000006
 10
163.0
 20
215.00000000000003
  0
LINE
  5
216
330
1F7
100
AcDbEntity
 67
1
  8
S-AP
  6
DASHED
 48
0.25
100
AcDbLine
 10
144.0
 20
222.00000000000006
 30
0.0
 11
162.0
 21
217.0
 31
0.0
  0
LWPOLYLINE
  5
217
330
1F7
100
AcDbEntity
 67
1
  8
S-AP
100
AcDbPolyline
 90
2
 70
0
 10
150.0
 20
200.0
 10
150.0
 20
169.99999999999994
  0
LWPOLYLINE
  5
218
330
1F7
100
AcDbEntity
 67
1
  8
S-AP
100
AcDbPolyline
 90
2
 70
0
 10
156.0
 20
200.0
 10
156.0
 20
169.99999999999994
  0
TEXT
  5
219
330
1F7
100
AcDbEntity
 67
1
  8
A-TEXTO
100
AcDbText
 10
131.0
 20
229.39999999999995
 30
0.0
 40
1.5
  1
+9.20
  7
ARIAL
 11
131.0
 21
229.39999999999995
 31
0.0
100
AcDbText
 73
2
  0
TEXT
  5
21A
330
1F7
100
AcDbEntity
 67
1
  8
A-TEXTO
100
AcDbText
 10
79.0
 20
200.0
 30
0.0
 40
1.5
  1
+9.00
  7
ARIAL
 72
2
 11
79.0
 21
200.0
 31
0.0
100
AcDbText
 73
2
  0
LINE
  5
21B
330
1F7
100
AcDbEntity
 67
1
  8
S-FINO
100
AcDbLine
 10
142.0
 20
185.00000000000009
 30
0.0
 11
162.0
 21
185.00000000000009
 31
0.0
  0
LINE
  5
21C
330
1F7
100
AcDbEntity
 67
1
  8
S-FINO
100
AcDbLine
 10
141.4
 20
184.4000000000001
 30
0.0
 11
142.6
 21
185.60000000000008
 31
0.0
  0
LINE
  5
21D
330
1F7
100
AcDbEntity
 67
1
  8
S-FINO
100
AcDbLine
 10
142.0
 20
183.8000000000001
 30
0.0
 11
142.0
 21
186.20000000000007
 31
0.0
  0
LINE
  5
21E
330
1F7
100
AcDbEntity
 67
1
  8
S-FINO
100
AcDbLine
 10
161.4
 20
184.4000000000001
 30
0.0
 11
162.6
 21
185.60000000000008
 31
0.0
  0
LINE
  5
21F
330
1F7
100
AcDbEntity
 67
1
  8
S-FINO
100
AcDbLine
 10
162.0
 20
183.8000000000001
 30
0.0
 11
162.0
 21
186.20000000000007
 31
0.0
  0
TEXT
  5
220
330
1F7
100
AcDbEntity
 67
1
  8
A-TEXTO
100
AcDbText
 10
152.0
 20
186.3000000000001
 30
0.0
 40
1.5
  1
0.20
  7
ARIAL
 72
1
 11
152.0
 21
186.3000000000001
 31
0.0
100
AcDbText
 73
1
  0
LINE
  5
221
330
1F7
100
AcDbEntity
 67
1
  8
S-FINO
100
AcDbLine
 10
170.0
 20
200.0
 30
0.0
 11
170.0
 21
217.0
 31
0.0
  0
LINE
  5
222
330
1F7
100
AcDbEntity
 67
1
  8
S-FINO
100
AcDbLine
 10
169.4
 20
199.4
 30
0.0
 11
170.6
 21
200.6
 31
0.0
  0
LINE
  5
223
330
1F7
100
AcDbEntity
 67
1
  8
S-FINO
100
AcDbLine
 10
168.8
 20
200.0
 30
0.0
 11
171.2
 21
200.0
 31
0.0
  0
LINE
  5
224
330
1F7
100
AcDbEntity
 67
1
  8
S-FINO
100
AcDbLine
 10
169.4
 20
216.4
 30
0.0
 11
170.6
 21
217.6
 31
0.0
  0
LINE
  5
225
330
1F7
100
AcDbEntity
 67
1
  8
S-FINO
100
AcDbLine
 10
168.8
 20
217.0
 30
0.0
 11
171.2
 21
217.0
 31
0.0
  0
TEXT
  5
226
330
1F7
100
AcDbEntity
 67
1
  8
A-TEXTO
100
AcDbText
 10
171.3
 20
208.5
 30
0.0
 40
1.5
  1
0.15
  7
ARIAL
 11
171.3
 21
208.5
 31
0.0
100
AcDbText
 73
2
  0
LINE
  5
227
330
1F7
100
AcDbEntity
 67
1
  8
S-FINO
100
AcDbLine
 10
110.0
 20
230.89999999999992
 30
0.0
 11
106.0
 21
255.00000000000006
 31
0.0
  0
TEXT
  5
228
330
1F7
100
AcDbEntity
 67
1
  8
A-TEXTO
100
AcDbText
 10
105.0
 20
255.00000000000006
 30
0.0
 40
1.5
  1
LÁMINA CAL. 26 (13 %)
  7
ARIAL
 72
2
 11
105.0
 21
255.00000000000006
 31
0.0
100
AcDbText
 73
2
  0
LINE
  5
229
330
1F7
100
AcDbEntity
 67
1
  8
S-FINO
100
AcDbLine
 10
124.0
 20
225.0
 30
0.0
 11
112.0
 21
242.0
 31
0.0
  0
TEXT
  5
22A
330
1F7
100
AcDbEntity
 67
1
  8
A-TEXTO
100
AcDbText
 10
111.0
 20
242.0
 30
0.0
 40
1.5
  1
CLAVADOR RT 2x4" (C04)
  7
ARIAL
 72
2
 11
111.0
 21
242.0
 31
0.0
100
AcDbText
 73
2
  0
LINE
  5
22B
330
1F7
100
AcDbEntity
 67
1
  8
S-FINO
100
AcDbLine
 10
95.0
 20
209.99999999999997
 30
0.0
 11
77.0
 21
209.99999999999997
 31
0.0
  0
TEXT
  5
22C
330
1F7
100
AcDbEntity
 67
1
  8
A-TEXTO
100
AcDbText
 10
76.0
 20
209.99999999999997
 30
0.0
 40
1.5
  1
CERCHA (C04)
  7
ARIAL
 72
2
 11
76.0
 21
209.99999999999997
 31
0.0
100
AcDbText
 73
2
  0
LINE
  5
22D
330
1F7
100
AcDbEntity
 67
1
  8
S-FINO
100
AcDbLine
 10
132.0
 20
190.00000000000003
 30
0.0
 11
77.0
 21
188.00000000000009
 31
0.0
  0
TEXT
  5
22E
330
1F7
100
AcDbEntity
 67
1
  8
A-TEXTO
100
AcDbText
 10
76.0
 20
188.00000000000009
 30
0.0
 40
1.5
  1
VIGA V1 4x8" (C04)
  7
ARIAL
 72
2
 11
76.0
 21
188.00000000000009
 31
0.0
100
AcDbText
 73
2
  0
LINE
  5
22F
330
1F7
100
AcDbEntity
 67
1
  8
S-FINO
100
AcDbLine
 10
133.0
 20
165.00000000000003
 30
0.0
 11
77.0
 21
166.0
 31
0.0
  0
TEXT
  5
230
330
1F7
100
AcDbEntity
 67
1
  8
A-TEXTO
100
AcDbText
 10
76.0
 20
166.0
 30
0.0
 40
1.5
  1
MURO / FORRO
  7
ARIAL
 72
2
 11
76.0
 21
166.0
 31
0.0
100
AcDbText
 73
2
  0
LINE
  5
231
330
1F7
100
AcDbEntity
 67
1
  8
S-FINO
100
AcDbLine
 10
153.0
 20
219.99999999999994
 30
0.0
 11
180.0
 21
244.99999999999994
 31
0.0
  0
TEXT
  5
232
330
1F7
100
AcDbEntity
 67
1
  8
A-TEXTO
100
AcDbText
 10
181.0
 20
244.99999999999994
 30
0.0
 40
1.5
  1
MALLA PROTECTORA
  7
ARIAL
 11
181.0
 21
244.99999999999994
 31
0.0
100
AcDbText
 73
2
  0
LINE
  5
233
330
1F7
100
AcDbEntity
 67
1
  8
S-FINO
100
AcDbLine
 10
162.0
 20
209.99999999999997
 30
0.0
 11
180.0
 21
227.99999999999994
 31
0.0
  0
TEXT
  5
234
330
1F7
100
AcDbEntity
 67
1
  8
A-TEXTO
100
AcDbText
 10
181.0
 20
227.99999999999994
 30
0.0
 40
1.5
  1
CANOA METÁLICA, NEGRA
  7
ARIAL
 11
181.0
 21
227.99999999999994
 31
0.0
100
AcDbText
 73
2
  0
LINE
  5
235
330
1F7
100
AcDbEntity
 67
1
  8
S-FINO
100
AcDbLine
 10
163.0
 20
199.00000000000003
 30
0.0
 11
180.0
 21
194.99999999999994
 31
0.0
  0
TEXT
  5
236
330
1F7
100
AcDbEntity
 67
1
  8
A-TEXTO
100
AcDbText
 10
181.0
 20
194.99999999999994
 30
0.0
 40
1.5
  1
SOPORTE
  7
ARIAL
 11
181.0
 21
194.99999999999994
 31
0.0
100
AcDbText
 73
2
  0
LINE
  5
237
330
1F7
100
AcDbEntity
 67
1
  8
S-FINO
100
AcDbLine
 10
153.0
 20
175.0
 30
0.0
 11
180.0
 21
175.0
 31
0.0
  0
TEXT
  5
238
330
1F7
100
AcDbEntity
 67
1
  8
A-TEXTO
100
AcDbText
 10
181.0
 20
175.0
 30
0.0
 40
1.5
  1
BAJANTE METÁLICO Ø 4"
  7
ARIAL
 11
181.0
 21
175.0
 31
0.0
100
AcDbText
 73
2
  0
TEXT
  5
239
330
1F7
100
AcDbEntity
 67
1
  8
A-TITULOS
100
AcDbText
 10
362.0
 20
445.0
 30
0.0
 40
3.2
  1
DETALLE 2 - CAJA PLUVIAL
  7
ARIAL
 11
362.0
 21
445.0
 31
0.0
100
AcDbText
 73
3
  0
TEXT
  5
23A
330
1F7
100
AcDbEntity
 67
1
  8
A-TEXTO
100
AcDbText
 10
362.0
 20
440.0
 30
0.0
 40
2.0
  1
S/E - INTERIOR 0.30 x 0.30
  7
ARIAL
 11
362.0
 21
440.0
 31
0.0
100
AcDbText
 73
3
  0
LINE
  5
23B
330
1F7
100
AcDbEntity
 67
1
  8
S-DET
100
AcDbLine
 10
370.0
 20
407.0
 30
0.0
 11
430.0
 21
407.0
 31
0.0
  0
LINE
  5
23C
330
1F7
100
AcDbEntity
 67
1
  8
S-FINO
100
AcDbLine
 10
371.0
 20
407.0
 30
0.0
 11
372.5
 21
409.5
 31
0.0
  0
LINE
  5
23D
330
1F7
100
AcDbEntity
 67
1
  8
S-FINO
100
AcDbLine
 10
375.0
 20
407.0
 30
0.0
 11
376.5
 21
409.5
 31
0.0
  0
LINE
  5
23E
330
1F7
100
AcDbEntity
 67
1
  8
S-FINO
100
AcDbLine
 10
379.0
 20
407.0
 30
0.0
 11
380.5
 21
409.5
 31
0.0
  0
LINE
  5
23F
330
1F7
100
AcDbEntity
 67
1
  8
S-FINO
100
AcDbLine
 10
383.0
 20
407.0
 30
0.0
 11
384.5
 21
409.5
 31
0.0
  0
LINE
  5
240
330
1F7
100
AcDbEntity
 67
1
  8
S-FINO
100
AcDbLine
 10
387.0
 20
407.0
 30
0.0
 11
388.5
 21
409.5
 31
0.0
  0
LINE
  5
241
330
1F7
100
AcDbEntity
 67
1
  8
S-FINO
100
AcDbLine
 10
391.0
 20
407.0
 30
0.0
 11
392.5
 21
409.5
 31
0.0
  0
LINE
  5
242
330
1F7
100
AcDbEntity
 67
1
  8
S-FINO
100
AcDbLine
 10
395.0
 20
407.0
 30
0.0
 11
396.5
 21
409.5
 31
0.0
  0
LINE
  5
243
330
1F7
100
AcDbEntity
 67
1
  8
S-FINO
100
AcDbLine
 10
399.0
 20
407.0
 30
0.0
 11
400.5
 21
409.5
 31
0.0
  0
LINE
  5
244
330
1F7
100
AcDbEntity
 67
1
  8
S-FINO
100
AcDbLine
 10
403.0
 20
407.0
 30
0.0
 11
404.5
 21
409.5
 31
0.0
  0
LINE
  5
245
330
1F7
100
AcDbEntity
 67
1
  8
S-FINO
100
AcDbLine
 10
407.0
 20
407.0
 30
0.0
 11
408.5
 21
409.5
 31
0.0
  0
LINE
  5
246
330
1F7
100
AcDbEntity
 67
1
  8
S-FINO
100
AcDbLine
 10
411.0
 20
407.0
 30
0.0
 11
412.5
 21
409.5
 31
0.0
  0
LINE
  5
247
330
1F7
100
AcDbEntity
 67
1
  8
S-FINO
100
AcDbLine
 10
415.0
 20
407.0
 30
0.0
 11
416.5
 21
409.5
 31
0.0
  0
LINE
  5
248
330
1F7
100
AcDbEntity
 67
1
  8
S-FINO
100
AcDbLine
 10
419.0
 20
407.0
 30
0.0
 11
420.5
 21
409.5
 31
0.0
  0
LINE
  5
249
330
1F7
100
AcDbEntity
 67
1
  8
S-FINO
100
AcDbLine
 10
423.0
 20
407.0
 30
0.0
 11
424.5
 21
409.5
 31
0.0
  0
LINE
  5
24A
330
1F7
100
AcDbEntity
 67
1
  8
S-FINO
100
AcDbLine
 10
427.0
 20
407.0
 30
0.0
 11
428.5
 21
409.5
 31
0.0
  0
LWPOLYLINE
  5
24B
330
1F7
100
AcDbEntity
 67
1
  8
S-DET
100
AcDbPolyline
 90
4
 70
1
 10
382.0
 20
365.0
 10
418.0
 20
365.0
 10
418.0
 20
404.0
 10
382.0
 20
404.0
  0
LWPOLYLINE
  5
24C
330
1F7
100
AcDbEntity
 67
1
  8
S-FINO
100
AcDbPolyline
 90
4
 70
1
 10
387.0
 20
370.0
 10
413.0
 20
370.0
 10
413.0
 20
401.0
 10
387.0
 20
401.0
  0
HATCH
  5
24D
330
1F7
100
AcDbEntity
 67
1
  8
S-FINO
 62
7
100
AcDbHatch
 10
0.0
 20
0.0
 30
0.0
210
0.0
220
0.0
230
1.0
  2
AR-CONC
 70
0
 71
0
 91
1
 92
3
 72
0
 73
1
 93
10
 10
382.0
 20
365.0
 10
418.0
 20
365.0
 10
418.0
 20
404.0
 10
382.0
 20
404.0
 10
382.0
 20
365.0
 10
387.0
 20
370.0
 10
387.0
 20
401.0
 10
413.0
 20
401.0
 10
413.0
 20
370.0
 10
387.0
 20
370.0
 97
0
 75
1
 76
1
 52
0.0
 41
0.08
 77
0
 78
13
 53
50.0
 43
0.0
 44
0.0
 45
14.5747735197
 46
-1.2751268431
 79
2
 49
1.524
 49
-16.764
 53
355.0
 43
0.0
 44
0.0
 45
-2.819473714
 46
15.2845476191
 79
2
 49
1.2192
 49
-13.4112467336
 53
100.4514447
 43
1.21456056
 44
-0.10626028
 45
11.7552997672
 46
14.009420153
 79
2
 49
1.295200704
 49
-14.247219568
 53
46.1842
 43
0.0
 44
4.064
 45
21.6863232714
 46
-3.3633862346
 79
2
 49
2.286
 49
-25.146
 53
96.63555761
 43
1.807192
 44
3.78372
 45
18.9923307241
 46
19.7940899678
 79
2
 49
1.9428018512
 49
-21.3708486528
 53
351.18415117
 43
0.0
 44
4.064
 45
18.9923307252
 46
19.7940899668
 79
2
 49
1.8287973656
 49
-20.1167785536
 53
21.0
 43
2.032
 44
3.048
 45
12.1291513015
 46
-8.181215855
 79
2
 49
1.524
 49
-16.764
 53
326.0
 43
2.032
 44
3.048
 45
4.9441622678
 46
14.7350372898
 79
2
 49
1.2192
 49
-13.4112
 53
71.451445
 43
3.042762608
 44
2.366232008
 45
17.0733135423
 46
6.5538215109
 79
2
 49
1.295200704
 49
-14.247195008
 53
37.5
 43
0.0
 44
0.0
 45
0.24708826
 46
6.7644031099
 79
6
 49
0.0
 49
-13.24864
 49
0.0
 49
-13.6144
 49
0.0
 49
-13.462
 53
7.5
 43
0.0
 44
0.0
 45
5.3455730008
 46
8.0144459854
 79
6
 49
0.0
 49
-7.76224
 49
0.0
 49
-12.94384
 49
0.0
 49
-5.1308
 53
-32.5
 43
-4.53136
 44
0.0
 45
10.8472476134
 46
-0.4582995194
 79
6
 49
0.0
 49
-5.08
 49
0.0
 49
-15.8496
 49
0.0
 49
-21.0312
 53
-42.5
 43
-6.56336
 44
0.0
 45
11.8503345109
 46
2.0341192827
 79
6
 49
0.0
 49
-6.604
 49
0.0
 49
-10.52576
 49
0.0
 49
-14.9352
 98
0
  0
LWPOLYLINE
  5
24E
330
1F7
100
AcDbEntity
 67
1
  8
S-DET
100
AcDbPolyline
 90
4
 70
1
 10
385.0
 20
407.0
 10
389.0
 20
403.0
 10
411.0
 20
403.0
 10
415.0
 20
407.0
  0
CIRCLE
  5
24F
330
1F7
100
AcDbEntity
 67
1
  8
S-DET
100
AcDbCircle
 10
392.0
 20
405.0
 30
0.0
 40
0.5
  0
CIRCLE
  5
250
330
1F7
100
AcDbEntity
 67
1
  8
S-DET
100
AcDbCircle
 10
397.0
 20
405.0
 30
0.0
 40
0.5
  0
CIRCLE
  5
251
330
1F7
100
AcDbEntity
 67
1
  8
S-DET
100
AcDbCircle
 10
402.0
 20
405.0
 30
0.0
 40
0.5
  0
CIRCLE
  5
252
330
1F7
100
AcDbEntity
 67
1
  8
S-DET
100
AcDbCircle
 10
407.0
 20
405.0
 30
0.0
 40
0.5
  0
CIRCLE
  5
253
330
1F7
100
AcDbEntity
 67
1
  8
S-DET
100
AcDbCircle
 10
384.5
 20
375.0
 30
0.0
 40
0.5
  0
CIRCLE
  5
254
330
1F7
100
AcDbEntity
 67
1
  8
S-DET
100
AcDbCircle
 10
415.5
 20
375.0
 30
0.0
 40
0.5
  0
CIRCLE
  5
255
330
1F7
100
AcDbEntity
 67
1
  8
S-DET
100
AcDbCircle
 10
384.5
 20
383.0
 30
0.0
 40
0.5
  0
CIRCLE
  5
256
330
1F7
100
AcDbEntity
 67
1
  8
S-DET
100
AcDbCircle
 10
415.5
 20
383.0
 30
0.0
 40
0.5
  0
CIRCLE
  5
257
330
1F7
100
AcDbEntity
 67
1
  8
S-DET
100
AcDbCircle
 10
384.5
 20
391.0
 30
0.0
 40
0.5
  0
CIRCLE
  5
258
330
1F7
100
AcDbEntity
 67
1
  8
S-DET
100
AcDbCircle
 10
415.5
 20
391.0
 30
0.0
 40
0.5
  0
CIRCLE
  5
259
330
1F7
100
AcDbEntity
 67
1
  8
S-DET
100
AcDbCircle
 10
384.5
 20
399.0
 30
0.0
 40
0.5
  0
CIRCLE
  5
25A
330
1F7
100
AcDbEntity
 67
1
  8
S-DET
100
AcDbCircle
 10
415.5
 20
399.0
 30
0.0
 40
0.5
  0
LWPOLYLINE
  5
25B
330
1F7
100
AcDbEntity
 67
1
  8
S-AP
100
AcDbPolyline
 90
4
 70
1
 10
368.0
 20
387.0
 10
387.0
 20
387.0
 10
387.0
 20
392.0
 10
368.0
 20
392.0
  0
HATCH
  5
25C
330
1F7
100
AcDbEntity
 67
1
  8
S-DET
 62
7
100
AcDbHatch
 10
0.0
 20
0.0
 30
0.0
210
0.0
220
0.0
230
1.0
  2
SOLID
 70
1
 71
0
 91
1
 92
3
 72
0
 73
1
 93
3
 10
366.0
 20
389.5
 10
364.2
 20
390.13
 10
364.2
 20
388.87
 97
0
 75
0
 76
1
 98
0
  0
CIRCLE
  5
25D
330
1F7
100
AcDbEntity
 67
1
  8
S-AP
100
AcDbCircle
 10
400.0
 20
374.0
 30
0.0
 40
3.0
  0
ARC
  5
25E
330
1F7
100
AcDbEntity
 67
1
  8
S-AP
100
AcDbCircle
 10
400.0
 20
374.0
 30
0.0
 40
2.0
100
AcDbArc
 50
200.0
 51
340.0
  0
LINE
  5
25F
330
1F7
100
AcDbEntity
 67
1
  8
S-FINO
100
AcDbLine
 10
400.0
 20
406.0
 30
0.0
 11
424.0
 21
415.0
 31
0.0
  0
TEXT
  5
260
330
1F7
100
AcDbEntity
 67
1
  8
A-TEXTO
100
AcDbText
 10
425.0
 20
415.0
 30
0.0
 40
1.5
  1
TAPA ARMADA VAR. #2 @0.15 A.D.
  7
ARIAL
 11
425.0
 21
415.0
 31
0.0
100
AcDbText
 73
2
  0
LINE
  5
261
330
1F7
100
AcDbEntity
 67
1
  8
S-FINO
100
AcDbLine
 10
415.5
 20
391.0
 30
0.0
 11
424.0
 21
391.0
 31
0.0
  0
TEXT
  5
262
330
1F7
100
AcDbEntity
 67
1
  8
A-TEXTO
100
AcDbText
 10
425.0
 20
391.0
 30
0.0
 40
1.5
  1
VAR. #3 @0.17 A.D.
  7
ARIAL
 11
425.0
 21
391.0
 31
0.0
100
AcDbText
 73
2
  0
LINE
  5
263
330
1F7
100
AcDbEntity
 67
1
  8
S-FINO
100
AcDbLine
 10
402.5
 20
373.0
 30
0.0
 11
424.0
 21
369.0
 31
0.0
  0
TEXT
  5
264
330
1F7
100
AcDbEntity
 67
1
  8
A-TEXTO
100
AcDbText
 10
425.0
 20
369.0
 30
0.0
 40
1.5
  1
TUBO PVC Ø INDICADO
  7
ARIAL
 11
425.0
 21
369.0
 31
0.0
100
AcDbText
 73
2
  0
TEXT
  5
265
330
1F7
100
AcDbEntity
 67
1
  8
A-TEXTO
100
AcDbText
 10
400.0
 20
359.0
 30
0.0
 40
1.8
  1
SECCIÓN
  7
ARIAL
 72
1
 11
400.0
 21
359.0
 31
0.0
100
AcDbText
 73
2
  0
LWPOLYLINE
  5
266
330
1F7
100
AcDbEntity
 67
1
  8
S-DET
100
AcDbPolyline
 90
4
 70
1
 10
482.0
 20
367.0
 10
518.0
 20
367.0
 10
518.0
 20
403.0
 10
482.0
 20
403.0
  0
LWPOLYLINE
  5
267
330
1F7
100
AcDbEntity
 67
1
  8
S-FINO
100
AcDbPolyline
 90
4
 70
1
 10
487.0
 20
372.0
 10
513.0
 20
372.0
 10
513.0
 20
398.0
 10
487.0
 20
398.0
  0
LINE
  5
268
330
1F7
100
AcDbEntity
 67
1
  8
S-FINO
100
AcDbLine
 10
487.0
 20
398.0
 30
0.0
 11
497.0
 21
372.0
 31
0.0
  0
LINE
  5
269
330
1F7
100
AcDbEntity
 67
1
  8
S-FINO
100
AcDbLine
 10
513.0
 20
398.0
 30
0.0
 11
503.0
 21
372.0
 31
0.0
  0
LINE
  5
26A
330
1F7
100
AcDbEntity
 67
1
  8
S-FINO
100
AcDbLine
 10
497.0
 20
372.0
 30
0.0
 11
503.0
 21
372.0
 31
0.0
  0
LWPOLYLINE
  5
26B
330
1F7
100
AcDbEntity
 67
1
  8
S-AP
100
AcDbPolyline
 90
4
 70
1
 10
466.0
 20
382.5
 10
487.0
 20
382.5
 10
487.0
 20
387.5
 10
466.0
 20
387.5
  0
LWPOLYLINE
  5
26C
330
1F7
100
AcDbEntity
 67
1
  8
S-AP
100
AcDbPolyline
 90
4
 70
1
 10
497.5
 20
351.0
 10
502.5
 20
351.0
 10
502.5
 20
372.0
 10
497.5
 20
372.0
  0
LWPOLYLINE
  5
26D
330
1F7
100
AcDbEntity
 67
1
  8
S-AP
100
AcDbPolyline
 90
4
 70
1
 10
497.5
 20
398.0
 10
502.5
 20
398.0
 10
502.5
 20
415.0
 10
497.5
 20
415.0
  0
HATCH
  5
26E
330
1F7
100
AcDbEntity
 67
1
  8
S-DET
 62
7
100
AcDbHatch
 10
0.0
 20
0.0
 30
0.0
210
0.0
220
0.0
230
1.0
  2
SOLID
 70
1
 71
0
 91
1
 92
3
 72
0
 73
1
 93
3
 10
466.0
 20
385.0
 10
464.2
 20
385.63
 10
464.2
 20
384.37
 97
0
 75
0
 76
1
 98
0
  0
HATCH
  5
26F
330
1F7
100
AcDbEntity
 67
1
  8
S-DET
 62
7
100
AcDbHatch
 10
0.0
 20
0.0
 30
0.0
210
0.0
220
0.0
230
1.0
  2
SOLID
 70
1
 71
0
 91
1
 92
3
 72
0
 73
1
 93
3
 10
500.0
 20
417.0
 10
500.63
 20
418.8
 10
499.37
 20
418.8
 97
0
 75
0
 76
1
 98
0
  0
HATCH
  5
270
330
1F7
100
AcDbEntity
 67
1
  8
S-DET
 62
7
100
AcDbHatch
 10
0.0
 20
0.0
 30
0.0
210
0.0
220
0.0
230
1.0
  2
SOLID
 70
1
 71
0
 91
1
 92
3
 72
0
 73
1
 93
3
 10
500.0
 20
349.0
 10
500.63
 20
350.8
 10
499.37
 20
350.8
 97
0
 75
0
 76
1
 98
0
  0
TEXT
  5
271
330
1F7
100
AcDbEntity
 67
1
  8
A-TEXTO
100
AcDbText
 10
466.0
 20
389.5
 30
0.0
 40
1.4
  1
ENTRADA
  7
ARIAL
 11
466.0
 21
389.5
 31
0.0
100
AcDbText
 73
2
  0
TEXT
  5
272
330
1F7
100
AcDbEntity
 67
1
  8
A-TEXTO
100
AcDbText
 10
504.0
 20
411.0
 30
0.0
 40
1.4
  1
BAJANTE
  7
ARIAL
 11
504.0
 21
411.0
 31
0.0
100
AcDbText
 73
2
  0
TEXT
  5
273
330
1F7
100
AcDbEntity
 67
1
  8
A-TEXTO
100
AcDbText
 10
504.0
 20
355.0
 30
0.0
 40
1.4
  1
SALIDA
  7
ARIAL
 11
504.0
 21
355.0
 31
0.0
100
AcDbText
 73
2
  0
TEXT
  5
274
330
1F7
100
AcDbEntity
 67
1
  8
A-TEXTO
100
AcDbText
 10
500.0
 20
343.0
 30
0.0
 40
1.8
  1
PLANTA
  7
ARIAL
 72
1
 11
500.0
 21
343.0
 31
0.0
100
AcDbText
 73
2
  0
TEXT
  5
275
330
1F7
100
AcDbEntity
 67
1
  8
A-TITULOS
100
AcDbText
 10
362.0
 20
325.0
 30
0.0
 40
3.2
  1
DETALLE 3 - DESCARGA A CUNETA (ESQUEMÁTICO)
  7
ARIAL
 11
362.0
 21
325.0
 31
0.0
100
AcDbText
 73
3
  0
TEXT
  5
276
330
1F7
100
AcDbEntity
 67
1
  8
A-TEXTO
100
AcDbText
 10
362.0
 20
320.0
 30
0.0
 40
2.0
  1
S/E
  7
ARIAL
 11
362.0
 21
320.0
 31
0.0
100
AcDbText
 73
3
  0
LINE
  5
277
330
1F7
100
AcDbEntity
 67
1
  8
S-DET
100
AcDbLine
 10
372.0
 20
285.0
 30
0.0
 11
497.0
 21
285.0
 31
0.0
  0
LINE
  5
278
330
1F7
100
AcDbEntity
 67
1
  8
S-DET
100
AcDbLine
 10
497.0
 20
285.0
 30
0.0
 11
497.0
 21
287.0
 31
0.0
  0
LINE
  5
279
330
1F7
100
AcDbEntity
 67
1
  8
S-DET
100
AcDbLine
 10
497.0
 20
287.0
 30
0.0
 11
557.0
 21
287.0
 31
0.0
  0
LINE
  5
27A
330
1F7
100
AcDbEntity
 67
1
  8
S-DET
100
AcDbLine
 10
557.0
 20
287.0
 30
0.0
 11
557.0
 21
275.0
 31
0.0
  0
LWPOLYLINE
  5
27B
330
1F7
100
AcDbEntity
 67
1
  8
S-DET
100
AcDbPolyline
 90
4
 70
0
 10
557.0
 20
275.0
 10
564.0
 20
271.0
 10
582.0
 20
271.0
 10
594.0
 20
276.0
  0
LINE
  5
27C
330
1F7
100
AcDbEntity
 67
1
  8
S-DET
100
AcDbLine
 10
594.0
 20
276.0
 30
0.0
 11
632.0
 21
276.0
 31
0.0
  0
HATCH
  5
27D
330
1F7
100
AcDbEntity
 67
1
  8
S-FINO
 62
7
100
AcDbHatch
 10
0.0
 20
0.0
 30
0.0
210
0.0
220
0.0
230
1.0
  2
AR-CONC
 70
0
 71
0
 91
1
 92
3
 72
0
 73
1
 93
4
 10
497.0
 20
287.0
 10
557.0
 20
287.0
 10
557.0
 20
279.0
 10
497.0
 20
279.0
 97
0
 75
1
 76
1
 52
0.0
 41
0.06
 77
0
 78
13
 53
50.0
 43
0.0
 44
0.0
 45
10.9310801398
 46
-0.9563451323
 79
2
 49
1.143
 49
-12.573
 53
355.0
 43
0.0
 44
0.0
 45
-2.1146052855
 46
11.4634107143
 79
2
 49
0.9144
 49
-10.0584350502
 53
100.4514447
 43
0.91092042
 44
-0.07969521
 45
8.8164748254
 46
10.5070651147
 79
2
 49
0.971400528
 49
-10.685414676
 53
46.1842
 43
0.0
 44
3.048
 45
16.2647424535
 46
-2.522539676
 79
2
 49
1.7145
 49
-18.8595
 53
96.63555761
 43
1.355394
 44
2.83779
 45
14.2442480431
 46
14.8455674759
 79
2
 49
1.4571013884
 49
-16.0281364896
 53
351.18415117
 43
0.0
 44
3.048
 45
14.2442480439
 46
14.8455674751
 79
2
 49
1.3715980242
 49
-15.0875839152
 53
21.0
 43
1.524
 44
2.286
 45
9.0968634761
 46
-6.1359118912
 79
2
 49
1.143
 49
-12.573
 53
326.0
 43
1.524
 44
2.286
 45
3.7081217009
 46
11.0512779673
 79
2
 49
0.9144
 49
-10.0584
 53
71.451445
 43
2.282071956
 44
1.774674006
 45
12.8049851567
 46
4.9153661332
 79
2
 49
0.971400528
 49
-10.685396256
 53
37.5
 43
0.0
 44
0.0
 45
0.185316195
 46
5.0733023324
 79
6
 49
0.0
 49
-9.93648
 49
0.0
 49
-10.2108
 49
0.0
 49
-10.0965
 53
7.5
 43
0.0
 44
0.0
 45
4.0091797506
 46
6.0108344891
 79
6
 49
0.0
 49
-5.82168
 49
0.0
 49
-9.70788
 49
0.0
 49
-3.8481
 53
-32.5
 43
-3.39852
 44
0.0
 45
8.13543571
 46
-0.3437246396
 79
6
 49
0.0
 49
-3.81
 49
0.0
 49
-11.8872
 49
0.0
 49
-15.7734
 53
-42.5
 43
-4.92252
 44
0.0
 45
8.8877508832
 46
1.525589462
 79
6
 49
0.0
 49
-4.953
 49
0.0
 49
-7.89432
 49
0.0
 49
-11.2014
 98
0
  0
LWPOLYLINE
  5
27E
330
1F7
100
AcDbEntity
 67
1
  8
S-DET
100
AcDbPolyline
 90
4
 70
1
 10
387.0
 20
263.0
 10
402.0
 20
263.0
 10
402.0
 20
285.0
 10
387.0
 20
285.0
  0
HATCH
  5
27F
330
1F7
100
AcDbEntity
 67
1
  8
S-FINO
 62
7
100
AcDbHatch
 10
0.0
 20
0.0
 30
0.0
210
0.0
220
0.0
230
1.0
  2
ANSI31
 70
0
 71
0
 91
1
 92
3
 72
0
 73
1
 93
4
 10
387.0
 20
263.0
 10
402.0
 20
263.0
 10
402.0
 20
285.0
 10
387.0
 20
285.0
 97
0
 75
1
 76
1
 52
0.0
 41
0.4
 77
0
 78
1
 53
45.0
 43
0.0
 44
0.0
 45
-0.8980256121
 46
0.8980256121
 79
0
 98
0
  0
LWPOLYLINE
  5
280
330
1F7
100
AcDbEntity
 67
1
  8
S-FINO
100
AcDbPolyline
 90
4
 70
1
 10
389.0
 20
265.0
 10
400.0
 20
265.0
 10
400.0
 20
285.0
 10
389.0
 20
285.0
  0
LWPOLYLINE
  5
281
330
1F7
100
AcDbEntity
 67
1
  8
S-AP
100
AcDbPolyline
 90
2
 70
0
 43
0.6
 10
400.0
 20
269.0
 10
557.0
 20
273.5
  0
HATCH
  5
282
330
1F7
100
AcDbEntity
 67
1
  8
S-DET
 62
7
100
AcDbHatch
 10
0.0
 20
0.0
 30
0.0
210
0.0
220
0.0
230
1.0
  2
SOLID
 70
1
 71
0
 91
1
 92
3
 72
0
 73
1
 93
3
 10
561.0
 20
273.6
 10
559.2
 20
274.23
 10
559.2
 20
272.97
 97
0
 75
0
 76
1
 98
0
  0
LINE
  5
283
330
1F7
100
AcDbEntity
 67
1
  8
S-FINO
100
AcDbLine
 10
497.0
 20
293.0
 30
0.0
 11
497.0
 21
259.0
 31
0.0
  0
TEXT
  5
284
330
1F7
100
AcDbEntity
 67
1
  8
A-TEXTO
100
AcDbText
 10
498.0
 20
294.0
 30
0.0
 40
1.4
  1
LÍNEA DE PROPIEDAD
  7
ARIAL
 11
498.0
 21
294.0
 31
0.0
100
AcDbText
 73
2
  0
TEXT
  5
285
330
1F7
100
AcDbEntity
 67
1
  8
A-TEXTO
100
AcDbText
 10
427.0
 20
288.0
 30
0.0
 40
1.5
  1
RETIRO FRONTAL (ZACATE BLOCK)
  7
ARIAL
 11
427.0
 21
288.0
 31
0.0
100
AcDbText
 73
2
  0
TEXT
  5
286
330
1F7
100
AcDbEntity
 67
1
  8
A-TEXTO
100
AcDbText
 10
527.0
 20
290.0
 30
0.0
 40
1.5
  1
ACERA
  7
ARIAL
 72
1
 11
527.0
 21
290.0
 31
0.0
100
AcDbText
 73
2
  0
TEXT
  5
287
330
1F7
100
AcDbEntity
 67
1
  8
A-TEXTO
100
AcDbText
 10
573.0
 20
267.0
 30
0.0
 40
1.5
  1
CUNETA
  7
ARIAL
 72
1
 11
573.0
 21
267.0
 31
0.0
100
AcDbText
 73
2
  0
TEXT
  5
288
330
1F7
100
AcDbEntity
 67
1
  8
A-TEXTO
100
AcDbText
 10
394.5
 20
258.0
 30
0.0
 40
1.5
  1
CR-P1 / CR-P2 (DET. 2)
  7
ARIAL
 72
1
 11
394.5
 21
258.0
 31
0.0
100
AcDbText
 73
2
  0
LINE
  5
289
330
1F7
100
AcDbEntity
 67
1
  8
S-FINO
100
AcDbLine
 10
472.0
 20
269.7
 30
0.0
 11
472.0
 21
253.0
 31
0.0
  0
TEXT
  5
28A
330
1F7
100
AcDbEntity
 67
1
  8
A-TEXTO
100
AcDbText
 10
473.0
 20
253.0
 30
0.0
 40
1.5
  1
TUBO PVC Ø 4", PENDIENTE 2 %
  7
ARIAL
 11
473.0
 21
253.0
 31
0.0
100
AcDbText
 73
2
  0
TEXT
  5
28B
330
1F7
100
AcDbEntity
 67
1
  8
A-TEXTO
100
AcDbText
 10
372.0
 20
245.0
 30
0.0
 40
1.6
  1
SALIDA AL CORDÓN Y A LA CUNETA.
  7
ARIAL
 11
372.0
 21
245.0
 31
0.0
100
AcDbText
 73
2
  0
TEXT
  5
28C
330
1F7
100
AcDbEntity
 67
1
  8
A-TITULOS
100
AcDbText
 10
362.0
 20
580.0
 30
0.0
 40
3.0
  1
ÁREAS TRIBUTARIAS DE CUBIERTA (PROYECCIÓN HORIZONTAL)
  7
ARIAL
 11
362.0
 21
580.0
 31
0.0
100
AcDbText
 73
3
  0
LWPOLYLINE
  5
28D
330
1F7
100
AcDbEntity
 67
1
  8
A-TABLAS
100
AcDbPolyline
 90
4
 70
1
 10
362.0
 20
535.2
 10
502.0
 20
535.2
 10
502.0
 20
573.0
 10
362.0
 20
573.0
  0
TEXT
  5
28E
330
1F7
100
AcDbEntity
 67
1
  8
A-TEXTO
100
AcDbText
 10
363.5
 20
569.85
 30
0.0
 40
2.0
  1
CANOA
  7
ARIAL
 11
363.5
 21
569.85
 31
0.0
100
AcDbText
 73
2
  0
LINE
  5
28F
330
1F7
100
AcDbEntity
 67
1
  8
A-TABLAS
100
AcDbLine
 10
402.0
 20
573.0
 30
0.0
 11
402.0
 21
566.7
 31
0.0
  0
TEXT
  5
290
330
1F7
100
AcDbEntity
 67
1
  8
A-TEXTO
100
AcDbText
 10
417.0
 20
569.85
 30
0.0
 40
2.0
  1
ÁREA (m²)
  7
ARIAL
 72
1
 11
417.0
 21
569.85
 31
0.0
100
AcDbText
 73
2
  0
LINE
  5
291
330
1F7
100
AcDbEntity
 67
1
  8
A-TABLAS
100
AcDbLine
 10
432.0
 20
573.0
 30
0.0
 11
432.0
 21
566.7
 31
0.0
  0
TEXT
  5
292
330
1F7
100
AcDbEntity
 67
1
  8
A-TEXTO
100
AcDbText
 10
449.0
 20
569.85
 30
0.0
 40
2.0
  1
BAJANTES
  7
ARIAL
 72
1
 11
449.0
 21
569.85
 31
0.0
100
AcDbText
 73
2
  0
LINE
  5
293
330
1F7
100
AcDbEntity
 67
1
  8
A-TABLAS
100
AcDbLine
 10
466.0
 20
573.0
 30
0.0
 11
466.0
 21
566.7
 31
0.0
  0
TEXT
  5
294
330
1F7
100
AcDbEntity
 67
1
  8
A-TEXTO
100
AcDbText
 10
484.0
 20
569.85
 30
0.0
 40
2.0
  1
m² POR BAJANTE
  7
ARIAL
 72
1
 11
484.0
 21
569.85
 31
0.0
100
AcDbText
 73
2
  0
LINE
  5
295
330
1F7
100
AcDbEntity
 67
1
  8
A-TABLAS
100
AcDbLine
 10
362.0
 20
566.7
 30
0.0
 11
502.0
 21
566.7
 31
0.0
  0
TEXT
  5
296
330
1F7
100
AcDbEntity
 67
1
  8
A-TEXTO
100
AcDbText
 10
363.5
 20
563.5500000000001
 30
0.0
 40
2.0
  1
FRONTAL
  7
ARIAL
 11
363.5
 21
563.5500000000001
 31
0.0
100
AcDbText
 73
2
  0
LINE
  5
297
330
1F7
100
AcDbEntity
 67
1
  8
A-TABLAS
100
AcDbLine
 10
402.0
 20
566.7
 30
0.0
 11
402.0
 21
560.4000000000001
 31
0.0
  0
TEXT
  5
298
330
1F7
100
AcDbEntity
 67
1
  8
A-TEXTO
100
AcDbText
 10
417.0
 20
563.5500000000001
 30
0.0
 40
2.0
  1
60.79
  7
ARIAL
 72
1
 11
417.0
 21
563.5500000000001
 31
0.0
100
AcDbText
 73
2
  0
LINE
  5
299
330
1F7
100
AcDbEntity
 67
1
  8
A-TABLAS
100
AcDbLine
 10
432.0
 20
566.7
 30
0.0
 11
432.0
 21
560.4000000000001
 31
0.0
  0
TEXT
  5
29A
330
1F7
100
AcDbEntity
 67
1
  8
A-TEXTO
100
AcDbText
 10
449.0
 20
563.5500000000001
 30
0.0
 40
2.0
  1
BP-1, BP-2
  7
ARIAL
 72
1
 11
449.0
 21
563.5500000000001
 31
0.0
100
AcDbText
 73
2
  0
LINE
  5
29B
330
1F7
100
AcDbEntity
 67
1
  8
A-TABLAS
100
AcDbLine
 10
466.0
 20
566.7
 30
0.0
 11
466.0
 21
560.4000000000001
 31
0.0
  0
TEXT
  5
29C
330
1F7
100
AcDbEntity
 67
1
  8
A-TEXTO
100
AcDbText
 10
484.0
 20
563.5500000000001
 30
0.0
 40
2.0
  1
30.40
  7
ARIAL
 72
1
 11
484.0
 21
563.5500000000001
 31
0.0
100
AcDbText
 73
2
  0
LINE
  5
29D
330
1F7
100
AcDbEntity
 67
1
  8
A-TABLAS
100
AcDbLine
 10
362.0
 20
560.4
 30
0.0
 11
502.0
 21
560.4
 31
0.0
  0
TEXT
  5
29E
330
1F7
100
AcDbEntity
 67
1
  8
A-TEXTO
100
AcDbText
 10
363.5
 20
557.25
 30
0.0
 40
2.0
  1
HACIA P1
  7
ARIAL
 11
363.5
 21
557.25
 31
0.0
100
AcDbText
 73
2
  0
LINE
  5
29F
330
1F7
100
AcDbEntity
 67
1
  8
A-TABLAS
100
AcDbLine
 10
402.0
 20
560.4
 30
0.0
 11
402.0
 21
554.1
 31
0.0
  0
TEXT
  5
2A0
330
1F7
100
AcDbEntity
 67
1
  8
A-TEXTO
100
AcDbText
 10
417.0
 20
557.25
 30
0.0
 40
2.0
  1
24.80
  7
ARIAL
 72
1
 11
417.0
 21
557.25
 31
0.0
100
AcDbText
 73
2
  0
LINE
  5
2A1
330
1F7
100
AcDbEntity
 67
1
  8
A-TABLAS
100
AcDbLine
 10
432.0
 20
560.4
 30
0.0
 11
432.0
 21
554.1
 31
0.0
  0
TEXT
  5
2A2
330
1F7
100
AcDbEntity
 67
1
  8
A-TEXTO
100
AcDbText
 10
449.0
 20
557.25
 30
0.0
 40
2.0
  1
BP-5
  7
ARIAL
 72
1
 11
449.0
 21
557.25
 31
0.0
100
AcDbText
 73
2
  0
LINE
  5
2A3
330
1F7
100
AcDbEntity
 67
1
  8
A-TABLAS
100
AcDbLine
 10
466.0
 20
560.4
 30
0.0
 11
466.0
 21
554.1
 31
0.0
  0
TEXT
  5
2A4
330
1F7
100
AcDbEntity
 67
1
  8
A-TEXTO
100
AcDbText
 10
484.0
 20
557.25
 30
0.0
 40
2.0
  1
24.80
  7
ARIAL
 72
1
 11
484.0
 21
557.25
 31
0.0
100
AcDbText
 73
2
  0
LINE
  5
2A5
330
1F7
100
AcDbEntity
 67
1
  8
A-TABLAS
100
AcDbLine
 10
362.0
 20
554.1
 30
0.0
 11
502.0
 21
554.1
 31
0.0
  0
TEXT
  5
2A6
330
1F7
100
AcDbEntity
 67
1
  8
A-TEXTO
100
AcDbText
 10
363.5
 20
550.95
 30
0.0
 40
2.0
  1
HACIA P2
  7
ARIAL
 11
363.5
 21
550.95
 31
0.0
100
AcDbText
 73
2
  0
LINE
  5
2A7
330
1F7
100
AcDbEntity
 67
1
  8
A-TABLAS
100
AcDbLine
 10
402.0
 20
554.1
 30
0.0
 11
402.0
 21
547.8000000000001
 31
0.0
  0
TEXT
  5
2A8
330
1F7
100
AcDbEntity
 67
1
  8
A-TEXTO
100
AcDbText
 10
417.0
 20
550.95
 30
0.0
 40
2.0
  1
13.57
  7
ARIAL
 72
1
 11
417.0
 21
550.95
 31
0.0
100
AcDbText
 73
2
  0
LINE
  5
2A9
330
1F7
100
AcDbEntity
 67
1
  8
A-TABLAS
100
AcDbLine
 10
432.0
 20
554.1
 30
0.0
 11
432.0
 21
547.8000000000001
 31
0.0
  0
TEXT
  5
2AA
330
1F7
100
AcDbEntity
 67
1
  8
A-TEXTO
100
AcDbText
 10
449.0
 20
550.95
 30
0.0
 40
2.0
  1
BP-6
  7
ARIAL
 72
1
 11
449.0
 21
550.95
 31
0.0
100
AcDbText
 73
2
  0
LINE
  5
2AB
330
1F7
100
AcDbEntity
 67
1
  8
A-TABLAS
100
AcDbLine
 10
466.0
 20
554.1
 30
0.0
 11
466.0
 21
547.8000000000001
 31
0.0
  0
TEXT
  5
2AC
330
1F7
100
AcDbEntity
 67
1
  8
A-TEXTO
100
AcDbText
 10
484.0
 20
550.95
 30
0.0
 40
2.0
  1
13.57
  7
ARIAL
 72
1
 11
484.0
 21
550.95
 31
0.0
100
AcDbText
 73
2
  0
LINE
  5
2AD
330
1F7
100
AcDbEntity
 67
1
  8
A-TABLAS
100
AcDbLine
 10
362.0
 20
547.8
 30
0.0
 11
502.0
 21
547.8
 31
0.0
  0
TEXT
  5
2AE
330
1F7
100
AcDbEntity
 67
1
  8
A-TEXTO
100
AcDbText
 10
363.5
 20
544.65
 30
0.0
 40
2.0
  1
POSTERIOR
  7
ARIAL
 11
363.5
 21
544.65
 31
0.0
100
AcDbText
 73
2
  0
LINE
  5
2AF
330
1F7
100
AcDbEntity
 67
1
  8
A-TABLAS
100
AcDbLine
 10
402.0
 20
547.8
 30
0.0
 11
402.0
 21
541.5
 31
0.0
  0
TEXT
  5
2B0
330
1F7
100
AcDbEntity
 67
1
  8
A-TEXTO
100
AcDbText
 10
417.0
 20
544.65
 30
0.0
 40
2.0
  1
80.37
  7
ARIAL
 72
1
 11
417.0
 21
544.65
 31
0.0
100
AcDbText
 73
2
  0
LINE
  5
2B1
330
1F7
100
AcDbEntity
 67
1
  8
A-TABLAS
100
AcDbLine
 10
432.0
 20
547.8
 30
0.0
 11
432.0
 21
541.5
 31
0.0
  0
TEXT
  5
2B2
330
1F7
100
AcDbEntity
 67
1
  8
A-TEXTO
100
AcDbText
 10
449.0
 20
544.65
 30
0.0
 40
2.0
  1
BP-3, BP-4
  7
ARIAL
 72
1
 11
449.0
 21
544.65
 31
0.0
100
AcDbText
 73
2
  0
LINE
  5
2B3
330
1F7
100
AcDbEntity
 67
1
  8
A-TABLAS
100
AcDbLine
 10
466.0
 20
547.8
 30
0.0
 11
466.0
 21
541.5
 31
0.0
  0
TEXT
  5
2B4
330
1F7
100
AcDbEntity
 67
1
  8
A-TEXTO
100
AcDbText
 10
484.0
 20
544.65
 30
0.0
 40
2.0
  1
40.18
  7
ARIAL
 72
1
 11
484.0
 21
544.65
 31
0.0
100
AcDbText
 73
2
  0
LINE
  5
2B5
330
1F7
100
AcDbEntity
 67
1
  8
A-TABLAS
100
AcDbLine
 10
362.0
 20
541.5
 30
0.0
 11
502.0
 21
541.5
 31
0.0
  0
TEXT
  5
2B6
330
1F7
100
AcDbEntity
 67
1
  8
A-TEXTO
100
AcDbText
 10
363.5
 20
538.35
 30
0.0
 40
2.0
  1
TOTAL CUBIERTA
  7
ARIAL
 11
363.5
 21
538.35
 31
0.0
100
AcDbText
 73
2
  0
LINE
  5
2B7
330
1F7
100
AcDbEntity
 67
1
  8
A-TABLAS
100
AcDbLine
 10
402.0
 20
541.5
 30
0.0
 11
402.0
 21
535.2
 31
0.0
  0
TEXT
  5
2B8
330
1F7
100
AcDbEntity
 67
1
  8
A-TEXTO
100
AcDbText
 10
417.0
 20
538.35
 30
0.0
 40
2.0
  1
179.53
  7
ARIAL
 72
1
 11
417.0
 21
538.35
 31
0.0
100
AcDbText
 73
2
  0
LINE
  5
2B9
330
1F7
100
AcDbEntity
 67
1
  8
A-TABLAS
100
AcDbLine
 10
432.0
 20
541.5
 30
0.0
 11
432.0
 21
535.2
 31
0.0
  0
TEXT
  5
2BA
330
1F7
100
AcDbEntity
 67
1
  8
A-TEXTO
100
AcDbText
 10
449.0
 20
538.35
 30
0.0
 40
2.0
  1
6
  7
ARIAL
 72
1
 11
449.0
 21
538.35
 31
0.0
100
AcDbText
 73
2
  0
LINE
  5
2BB
330
1F7
100
AcDbEntity
 67
1
  8
A-TABLAS
100
AcDbLine
 10
466.0
 20
541.5
 30
0.0
 11
466.0
 21
535.2
 31
0.0
  0
TEXT
  5
2BC
330
1F7
100
AcDbEntity
 67
1
  8
A-TEXTO
100
AcDbText
 10
362.0
 20
532.7
 30
0.0
 40
1.6
  1
ÁREAS CALCULADAS CON LA GEOMETRÍA DE LA C04 (CUMBRERA EN y = 13.62). LOS PATIOS P1 (18.45 m²) Y P2 (10.10 m²)
  7
ARIAL
 11
362.0
 21
532.7
 31
0.0
100
AcDbText
 73
3
  0
TEXT
  5
2BD
330
1F7
100
AcDbEntity
 67
1
  8
A-TEXTO
100
AcDbText
 10
362.0
 20
530.2
 30
0.0
 40
1.6
  1
SON ABIERTOS: LA LLUVIA DIRECTA CAE SOBRE LA GRAVA DEL NIVEL 1.
  7
ARIAL
 11
362.0
 21
530.2
 31
0.0
100
AcDbText
 73
3
  0
TEXT
  5
2BE
330
1F7
100
AcDbEntity
 67
1
  8
A-TITULOS
100
AcDbText
 10
530.0
 20
580.0
 30
0.0
 40
3.5
  1
SIMBOLOGÍA
  7
ARIAL
 11
530.0
 21
580.0
 31
0.0
100
AcDbText
 73
3
  0
LWPOLYLINE
  5
2BF
330
1F7
100
AcDbEntity
 67
1
  8
A-TABLAS
100
AcDbPolyline
 90
4
 70
1
 10
530.0
 20
574.0
 10
626.0
 20
574.0
 10
626.0
 20
568.0
 10
530.0
 20
568.0
  0
LINE
  5
2C0
330
1F7
100
AcDbEntity
 67
1
  8
A-TABLAS
100
AcDbLine
 10
548.0
 20
574.0
 30
0.0
 11
548.0
 21
568.0
 31
0.0
  0
LWPOLYLINE
  5
2C1
330
1F7
100
AcDbEntity
 67
1
  8
S-AP
100
AcDbPolyline
 90
4
 70
1
 10
533.0
 20
570.0
 10
545.0
 20
570.0
 10
545.0
 20
572.0
 10
533.0
 20
572.0
  0
TEXT
  5
2C2
330
1F7
100
AcDbEntity
 67
1
  8
A-TEXTO
100
AcDbText
 10
549.5
 20
571.0
 30
0.0
 40
1.9
  1
CANOA METÁLICA (DET. 1)
  7
ARIAL
 11
549.5
 21
571.0
 31
0.0
100
AcDbText
 73
2
  0
LWPOLYLINE
  5
2C3
330
1F7
100
AcDbEntity
 67
1
  8
A-TABLAS
100
AcDbPolyline
 90
4
 70
1
 10
530.0
 20
568.0
 10
626.0
 20
568.0
 10
626.0
 20
562.0
 10
530.0
 20
562.0
  0
LINE
  5
2C4
330
1F7
100
AcDbEntity
 67
1
  8
A-TABLAS
100
AcDbLine
 10
548.0
 20
568.0
 30
0.0
 11
548.0
 21
562.0
 31
0.0
  0
CIRCLE
  5
2C5
330
1F7
100
AcDbEntity
 67
1
  8
S-AP
100
AcDbCircle
 10
539.0
 20
565.0
 30
0.0
 40
2.0
  0
CIRCLE
  5
2C6
330
1F7
100
AcDbEntity
 67
1
  8
S-AP
100
AcDbCircle
 10
539.0
 20
565.0
 30
0.0
 40
0.9
  0
TEXT
  5
2C7
330
1F7
100
AcDbEntity
 67
1
  8
A-TEXTO
100
AcDbText
 10
549.5
 20
565.0
 30
0.0
 40
1.9
  1
BAJANTE PLUVIAL (BP-n)
  7
ARIAL
 11
549.5
 21
565.0
 31
0.0
100
AcDbText
 73
2
  0
LWPOLYLINE
  5
2C8
330
1F7
100
AcDbEntity
 67
1
  8
A-TABLAS
100
AcDbPolyline
 90
4
 70
1
 10
530.0
 20
562.0
 10
626.0
 20
562.0
 10
626.0
 20
556.0
 10
530.0
 20
556.0
  0
LINE
  5
2C9
330
1F7
100
AcDbEntity
 67
1
  8
A-TABLAS
100
AcDbLine
 10
548.0
 20
562.0
 30
0.0
 11
548.0
 21
556.0
 31
0.0
  0
LINE
  5
2CA
330
1F7
100
AcDbEntity
 67
1
  8
S-AP
100
AcDbLine
 10
533.0
 20
559.0
 30
0.0
 11
545.0
 21
559.0
 31
0.0
  0
TEXT
  5
2CB
330
1F7
100
AcDbEntity
 67
1
  8
A-TEXTO
100
AcDbText
 10
549.5
 20
559.0
 30
0.0
 40
1.9
  1
COLECTOR PLUVIAL ENTERRADO (PVC)
  7
ARIAL
 11
549.5
 21
559.0
 31
0.0
100
AcDbText
 73
2
  0
LWPOLYLINE
  5
2CC
330
1F7
100
AcDbEntity
 67
1
  8
A-TABLAS
100
AcDbPolyline
 90
4
 70
1
 10
530.0
 20
556.0
 10
626.0
 20
556.0
 10
626.0
 20
550.0
 10
530.0
 20
550.0
  0
LINE
  5
2CD
330
1F7
100
AcDbEntity
 67
1
  8
A-TABLAS
100
AcDbLine
 10
548.0
 20
556.0
 30
0.0
 11
548.0
 21
550.0
 31
0.0
  0
LWPOLYLINE
  5
2CE
330
1F7
100
AcDbEntity
 67
1
  8
S-ACC
100
AcDbPolyline
 90
4
 70
1
 10
536.0
 20
550.6
 10
542.0
 20
550.6
 10
542.0
 20
555.4
 10
536.0
 20
555.4
  0
TEXT
  5
2CF
330
1F7
100
AcDbEntity
 67
1
  8
S-ACC
100
AcDbText
 10
539.0
 20
553.0
 30
0.0
 40
1.5
  1
CR
  7
ARIAL
 72
1
 11
539.0
 21
553.0
 31
0.0
100
AcDbText
 73
2
  0
TEXT
  5
2D0
330
1F7
100
AcDbEntity
 67
1
  8
A-TEXTO
100
AcDbText
 10
549.5
 20
553.0
 30
0.0
 40
1.9
  1
CAJA PLUVIAL 0.30 x 0.30 (DET. 2)
  7
ARIAL
 11
549.5
 21
553.0
 31
0.0
100
AcDbText
 73
2
  0
LWPOLYLINE
  5
2D1
330
1F7
100
AcDbEntity
 67
1
  8
A-TABLAS
100
AcDbPolyline
 90
4
 70
1
 10
530.0
 20
550.0
 10
626.0
 20
550.0
 10
626.0
 20
544.0
 10
530.0
 20
544.0
  0
LINE
  5
2D2
330
1F7
100
AcDbEntity
 67
1
  8
A-TABLAS
100
AcDbLine
 10
548.0
 20
550.0
 30
0.0
 11
548.0
 21
544.0
 31
0.0
  0
LINE
  5
2D3
330
1F7
100
AcDbEntity
 67
1
  8
S-TXT
100
AcDbLine
 10
533.0
 20
547.0
 30
0.0
 11
543.0
 21
547.0
 31
0.0
  0
HATCH
  5
2D4
330
1F7
100
AcDbEntity
 67
1
  8
S-TXT
 62
7
100
AcDbHatch
 10
0.0
 20
0.0
 30
0.0
210
0.0
220
0.0
230
1.0
  2
SOLID
 70
1
 71
0
 91
1
 92
3
 72
0
 73
1
 93
3
 10
545.0
 20
547.0
 10
542.5
 20
548.0
 10
542.5
 20
546.0
 97
0
 75
0
 76
1
 98
0
  0
TEXT
  5
2D5
330
1F7
100
AcDbEntity
 67
1
  8
A-TEXTO
100
AcDbText
 10
549.5
 20
547.0
 30
0.0
 40
1.9
  1
PENDIENTE DE CUBIERTA / CANOA
  7
ARIAL
 11
549.5
 21
547.0
 31
0.0
100
AcDbText
 73
2
  0
TEXT
  5
2D6
330
1F7
100
AcDbEntity
 67
1
  8
A-TITULOS
100
AcDbText
 10
362.0
 20
520.0
 30
0.0
 40
3.5
  1
NOTAS:
  7
ARIAL
 11
362.0
 21
520.0
 31
0.0
100
AcDbText
 73
3
  0
MTEXT
  5
2D7
330
1F7
100
AcDbEntity
 67
1
  8
A-NOTAS
100
AcDbMText
 10
362.0
 20
514.0
 30
0.0
 40
1.9
 41
335.0
 71
1
  1
1.- TODAS LAS MEDIDAS ESTÁN DADAS EN METROS, SALVO INDICACIÓN CONTRARIA.
  7
ARIAL
  0
MTEXT
  5
2D8
330
1F7
100
AcDbEntity
 67
1
  8
A-NOTAS
100
AcDbMText
 10
362.0
 20
510.2
 30
0.0
 40
1.9
 41
335.0
 71
1
  1
2.- LAS AGUAS PLUVIALES SE DIRIGEN HACIA LA CUNETA PÚBLICA DEL FRENTE. NO SE CONECTAN AL TANQUE SÉPTICO NI AL DRENAJE (S02).
  7
ARIAL
  0
MTEXT
  5
2D9
330
1F7
100
AcDbEntity
 67
1
  8
A-NOTAS
100
AcDbMText
 10
362.0
 20
506.4
 30
0.0
 40
1.9
 41
335.0
 71
1
  1
3.- CUBIERTA SEGÚN LA C04: LÁMINA CAL. 26 A DOS AGUAS, PENDIENTE 13 %, ALERO +9.20 Y CUMBRERA +10.70.
  7
ARIAL
  0
MTEXT
  5
2DA
330
1F7
100
AcDbEntity
 67
1
  8
A-NOTAS
100
AcDbMText
 10
362.0
 20
502.59999999999997
 30
0.0
 40
1.9
 41
335.0
 71
1
  1
4.- CANOAS FRONTAL Y POSTERIOR CON DOS BAJANTES CADA UNA, UNO EN CADA EXTREMO; CANOAS HACIA LOS PATIOS P1 Y P2 CON UN BAJANTE CADA UNA, EN EL EXTREMO ESTE.
  7
ARIAL
  0
MTEXT
  5
2DB
330
1F7
100
AcDbEntity
 67
1
  8
A-NOTAS
100
AcDbMText
 10
362.0
 20
498.79999999999995
 30
0.0
 40
1.9
 41
335.0
 71
1
  1
5.- CANOAS Y BAJANTES VISIBLES METÁLICOS, ACABADO NEGRO (A5). BAJANTES FRONTALES BP-1 Y BP-2 OCULTOS EN EL MURO FRONTAL DEL NIVEL 1.
  7
ARIAL
  0
MTEXT
  5
2DC
330
1F7
100
AcDbEntity
 67
1
  8
A-NOTAS
100
AcDbMText
 10
362.0
 20
494.99999999999994
 30
0.0
 40
1.9
 41
335.0
 71
1
  1
6.- LAS CANOAS TENDRÁN MALLA PROTECTORA PARA EVITAR EL ACCESO DE BASURA.
  7
ARIAL
  0
MTEXT
  5
2DD
330
1F7
100
AcDbEntity
 67
1
  8
A-NOTAS
100
AcDbMText
 10
362.0
 20
491.19999999999993
 30
0.0
 40
1.9
 41
335.0
 71
1
  1
7.- DIRIGIR LAS PENDIENTES HACIA BAJANTES O CANOAS; EVITAR DEPRESIONES QUE PROVOQUEN EMPOZAMIENTOS.
  7
ARIAL
  0
MTEXT
  5
2DE
330
1F7
100
AcDbEntity
 67
1
  8
A-NOTAS
100
AcDbMText
 10
362.0
 20
487.3999999999999
 30
0.0
 40
1.9
 41
335.0
 71
1
  1
8.- BAJANTES Y COLECTORES PLUVIALES DE 4"; COLECTORES ENTERRADOS CON PENDIENTE DEL 2 %. CANOAS CON PENDIENTE HACIA LOS BAJANTES.
  7
ARIAL
  0
MTEXT
  5
2DF
330
1F7
100
AcDbEntity
 67
1
  8
A-NOTAS
100
AcDbMText
 10
362.0
 20
483.5999999999999
 30
0.0
 40
1.9
 41
335.0
 71
1
  1
9.- COLECTORES ENTERRADOS DE PVC CON CAJAS PLUVIALES DE 0.30 x 0.30 (DETALLE 2) AL PIE DE CADA BAJANTE Y EN LOS CAMBIOS DE DIRECCIÓN.
  7
ARIAL
  0
MTEXT
  5
2E0
330
1F7
100
AcDbEntity
 67
1
  8
A-NOTAS
100
AcDbMText
 10
362.0
 20
479.7999999999999
 30
0.0
 40
1.9
 41
335.0
 71
1
  1
10.- COLECTOR OESTE POR EL PASILLO PEATONAL, ENTRE LOS ALIMENTADORES ELÉCTRICOS (E01) Y LA TUBERÍA DE AGUA POTABLE (S01); CRUZA BAJO LOS DUCTOS ELÉCTRICOS FRENTE A CR-P9.
  7
ARIAL
  0
MTEXT
  5
2E1
330
1F7
100
AcDbEntity
 67
1
  8
A-NOTAS
100
AcDbMText
 10
362.0
 20
475.9999999999999
 30
0.0
 40
1.9
 41
335.0
 71
1
  1
11.- COLECTOR ESTE JUNTO AL MURO D; CRUZA LOS RAMALES SANITARIOS DE LA SUITE 2 (S02) ENTRE CR-P6 Y CR-P5.
  7
ARIAL
  0
MTEXT
  5
2E2
330
1F7
100
AcDbEntity
 67
1
  8
A-NOTAS
100
AcDbMText
 10
362.0
 20
472.1999999999999
 30
0.0
 40
1.9
 41
335.0
 71
1
  1
12.- LAS TUBERÍAS PASAN SOBRE LAS PLACAS DE CIMENTACIÓN SIN ATRAVESAR PEDESTALES; CRUCES CON VIGAS RIOSTRA CON CAMISA. LAS CAJAS SE UBICAN FUERA DE LAS PLACAS (C01).
  7
ARIAL
  0
MTEXT
  5
2E3
330
1F7
100
AcDbEntity
 67
1
  8
A-NOTAS
100
AcDbMText
 10
362.0
 20
468.39999999999986
 30
0.0
 40
1.9
 41
335.0
 71
1
  1
13.- DESCARGA A LA CUNETA SEGÚN EL DETALLE 3.
  7
ARIAL
  0
MTEXT
  5
2E4
330
1F7
100
AcDbEntity
 67
1
  8
A-NOTAS
100
AcDbMText
 10
362.0
 20
464.59999999999985
 30
0.0
 40
1.9
 41
335.0
 71
1
  1
14.- LIMPIAR CANOAS, MALLAS Y CAJAS PLUVIALES PERIÓDICAMENTE.
  7
ARIAL
  0
INSERT
  5
32C
330
1F7
100
AcDbEntity
 67
1
  8
A-CAJETIN
100
AcDbBlockReference
 66
1
  2
CAJETIN_A1
 10
711.0
 20
10.0
 30
0.0
  0
ATTRIB
  5
32E
330
1F7
100
AcDbEntity
 67
1
  8
A-CAJETIN-TXT
100
AcDbText
 10
771.0
 20
261.6
 30
0.0
 40
3.2
  1
CivilCon Diseño y Construcción SRLTDA
  7
ARIAL
 72
1
 11
771.0
 21
261.6
 31
0.0
100
AcDbAttribute
  2
EMPRESA
 70
0
 74
3
 71
1
 72
0
 11
771.0
 21
261.6
 31
0.0
  0
ATTRIB
  5
32F
330
1F7
100
AcDbEntity
 67
1
  8
A-CAJETIN-TXT
100
AcDbText
 10
771.0
 20
255.6
 30
0.0
 40
2.5
  1
Céd. Jurídica: 3-102-762712
  7
ARIAL
 72
1
 11
771.0
 21
255.6
 31
0.0
100
AcDbAttribute
  2
EMPRESA_CED
 70
0
 74
3
 71
1
 72
0
 11
771.0
 21
255.6
 31
0.0
  0
ATTRIB
  5
330
330
1F7
100
AcDbEntity
 67
1
  8
A-CAJETIN-TXT
100
AcDbText
 10
714.0
 20
240.1
 30
0.0
 40
2.6
  1
DIRECTOR TÉCNICO:
  7
ARIAL
 11
714.0
 21
240.1
 31
0.0
100
AcDbAttribute
  2
PROF_1
 70
0
 74
3
 71
1
 72
0
 11
714.0
 21
240.1
 31
0.0
  0
ATTRIB
  5
331
330
1F7
100
AcDbEntity
 67
1
  8
A-CAJETIN-TXT
100
AcDbText
 10
714.0
 20
235.6
 30
0.0
 40
2.6
  1
Steven Viales (Civil) IC-40759
  7
ARIAL
 11
714.0
 21
235.6
 31
0.0
100
AcDbAttribute
  2
PROF_2
 70
0
 74
3
 71
1
 72
0
 11
714.0
 21
235.6
 31
0.0
  0
ATTRIB
  5
332
330
1F7
100
AcDbEntity
 67
1
  8
A-CAJETIN-TXT
100
AcDbText
 10
714.0
 20
231.1
 30
0.0
 40
2.6
  1
David Barrantes (Electricidad) IE-27499
  7
ARIAL
 11
714.0
 21
231.1
 31
0.0
100
AcDbAttribute
  2
PROF_3
 70
0
 74
3
 71
1
 72
0
 11
714.0
 21
231.1
 31
0.0
  0
ATTRIB
  5
333
330
1F7
100
AcDbEntity
 67
1
  8
A-CAJETIN-TXT
100
AcDbText
 10
714.0
 20
218.1
 30
0.0
 40
4.2
  1
VIVIENDA UNIFAMILIAR
  7
ARIAL
 11
714.0
 21
218.1
 31
0.0
100
AcDbAttribute
  2
PROYECTO
 70
0
 74
3
 71
1
 72
0
 11
714.0
 21
218.1
 31
0.0
  0
ATTRIB
  5
334
330
1F7
100
AcDbEntity
 67
1
  8
A-CAJETIN-TXT
100
AcDbText
 10
714.0
 20
211.1
 30
0.0
 40
2.5
  1
DISTRITO 03 SANTIAGO, CANTÓN 05 SAN RAFAEL,
  7
ARIAL
 11
714.0
 21
211.1
 31
0.0
100
AcDbAttribute
  2
UBIC_1
 70
0
 74
3
 71
1
 72
0
 11
714.0
 21
211.1
 31
0.0
  0
ATTRIB
  5
335
330
1F7
100
AcDbEntity
 67
1
  8
A-CAJETIN-TXT
100
AcDbText
 10
714.0
 20
206.6
 30
0.0
 40
2.5
  1
PROVINCIA 04 HEREDIA, COSTA RICA.
  7
ARIAL
 11
714.0
 21
206.6
 31
0.0
100
AcDbAttribute
  2
UBIC_2
 70
0
 74
3
 71
1
 72
0
 11
714.0
 21
206.6
 31
0.0
  0
ATTRIB
  5
336
330
1F7
100
AcDbEntity
 67
1
  8
A-CAJETIN-TXT
100
AcDbText
 10
714.0
 20
202.1
 30
0.0
 40
2.5
  1

  7
ARIAL
 11
714.0
 21
202.1
 31
0.0
100
AcDbAttribute
  2
UBIC_3
 70
0
 74
3
 71
1
 72
0
 11
714.0
 21
202.1
 31
0.0
  0
ATTRIB
  5
337
330
1F7
100
AcDbEntity
 67
1
  8
A-CAJETIN-TXT
100
AcDbText
 10
714.0
 20
189.1
 30
0.0
 40
2.5
  1
FOLIO REAL: 4-041200-000
  7
ARIAL
 11
714.0
 21
189.1
 31
0.0
100
AcDbAttribute
  2
REG_1
 70
0
 74
3
 71
1
 72
0
 11
714.0
 21
189.1
 31
0.0
  0
ATTRIB
  5
338
330
1F7
100
AcDbEntity
 67
1
  8
A-CAJETIN-TXT
100
AcDbText
 10
714.0
 20
184.6
 30
0.0
 40
2.5
  1
PLANO CATASTRADO: 4-57389-2023
  7
ARIAL
 11
714.0
 21
184.6
 31
0.0
100
AcDbAttribute
  2
REG_2
 70
0
 74
3
 71
1
 72
0
 11
714.0
 21
184.6
 31
0.0
  0
ATTRIB
  5
339
330
1F7
100
AcDbEntity
 67
1
  8
A-CAJETIN-TXT
100
AcDbText
 10
714.0
 20
180.1
 30
0.0
 40
2.5
  1
ÁREA SEGÚN CATASTRO: 256 m²
  7
ARIAL
 11
714.0
 21
180.1
 31
0.0
100
AcDbAttribute
  2
REG_3
 70
0
 74
3
 71
1
 72
0
 11
714.0
 21
180.1
 31
0.0
  0
ATTRIB
  5
33A
330
1F7
100
AcDbEntity
 67
1
  8
A-CAJETIN-TXT
100
AcDbText
 10
714.0
 20
167.1
 30
0.0
 40
5.0
  1
AGUAS PLUVIALES
  7
ARIAL
 11
714.0
 21
167.1
 31
0.0
100
AcDbAttribute
  2
CONT_TIT
 70
0
 74
3
 71
1
 72
0
 11
714.0
 21
167.1
 31
0.0
  0
ATTRIB
  5
33B
330
1F7
100
AcDbEntity
 67
1
  8
A-CAJETIN-TXT
100
AcDbText
 10
714.0
 20
159.6
 30
0.0
 40
3.0
  1
PLANTA DE TECHO.
  7
ARIAL
 11
714.0
 21
159.6
 31
0.0
100
AcDbAttribute
  2
CONT_1
 70
0
 74
3
 71
1
 72
0
 11
714.0
 21
159.6
 31
0.0
  0
ATTRIB
  5
33C
330
1F7
100
AcDbEntity
 67
1
  8
A-CAJETIN-TXT
100
AcDbText
 10
714.0
 20
154.1
 30
0.0
 40
3.0
  1
PLANTA DEL NIVEL 1.
  7
ARIAL
 11
714.0
 21
154.1
 31
0.0
100
AcDbAttribute
  2
CONT_2
 70
0
 74
3
 71
1
 72
0
 11
714.0
 21
154.1
 31
0.0
  0
ATTRIB
  5
33D
330
1F7
100
AcDbEntity
 67
1
  8
A-CAJETIN-TXT
100
AcDbText
 10
714.0
 20
148.6
 30
0.0
 40
3.0
  1
DETALLE DE CANOA.
  7
ARIAL
 11
714.0
 21
148.6
 31
0.0
100
AcDbAttribute
  2
CONT_3
 70
0
 74
3
 71
1
 72
0
 11
714.0
 21
148.6
 31
0.0
  0
ATTRIB
  5
33E
330
1F7
100
AcDbEntity
 67
1
  8
A-CAJETIN-TXT
100
AcDbText
 10
714.0
 20
143.1
 30
0.0
 40
3.0
  1
CAJA PLUVIAL Y DESCARGA
  7
ARIAL
 11
714.0
 21
143.1
 31
0.0
100
AcDbAttribute
  2
CONT_4
 70
0
 74
3
 71
1
 72
0
 11
714.0
 21
143.1
 31
0.0
  0
ATTRIB
  5
33F
330
1F7
100
AcDbEntity
 67
1
  8
A-CAJETIN-TXT
100
AcDbText
 10
714.0
 20
137.6
 30
0.0
 40
3.0
  1
A CUNETA. ÁREAS TRIBUTARIAS.
  7
ARIAL
 11
714.0
 21
137.6
 31
0.0
100
AcDbAttribute
  2
CONT_5
 70
0
 74
3
 71
1
 72
0
 11
714.0
 21
137.6
 31
0.0
  0
ATTRIB
  5
340
330
1F7
100
AcDbEntity
 67
1
  8
A-CAJETIN-TXT
100
AcDbText
 10
714.0
 20
132.1
 30
0.0
 40
3.0
  1
SIMBOLOGÍA Y NOTAS.
  7
ARIAL
 11
714.0
 21
132.1
 31
0.0
100
AcDbAttribute
  2
CONT_6
 70
0
 74
3
 71
1
 72
0
 11
714.0
 21
132.1
 31
0.0
  0
ATTRIB
  5
341
330
1F7
100
AcDbEntity
 67
1
  8
A-CAJETIN-TXT
100
AcDbText
 10
736.0
 20
122.1
 30
0.0
 40
2.2
  1
1:100 / INDICADAS
  7
ARIAL
 11
736.0
 21
122.1
 31
0.0
100
AcDbAttribute
  2
ESCALAS
 70
0
 74
3
 71
1
 72
0
 11
736.0
 21
122.1
 31
0.0
  0
ATTRIB
  5
342
330
1F7
100
AcDbEntity
 67
1
  8
A-CAJETIN-TXT
100
AcDbText
 10
717.0
 20
104.0
 30
0.0
 40
2.0
  1
0
  7
ARIAL
 72
1
 11
717.0
 21
104.0
 31
0.0
100
AcDbAttribute
  2
REV0_N
 70
0
 74
2
 71
1
 72
0
 11
717.0
 21
104.0
 31
0.0
  0
ATTRIB
  5
343
330
1F7
100
AcDbEntity
 67
1
  8
A-CAJETIN-TXT
100
AcDbText
 10
734.0
 20
104.0
 30
0.0
 40
2.0
  1
07-10-2026
  7
ARIAL
 72
1
 11
734.0
 21
104.0
 31
0.0
100
AcDbAttribute
  2
REV0_F
 70
0
 74
2
 71
1
 72
0
 11
734.0
 21
104.0
 31
0.0
  0
ATTRIB
  5
344
330
1F7
100
AcDbEntity
 67
1
  8
A-CAJETIN-TXT
100
AcDbText
 10
746.5
 20
104.0
 30
0.0
 40
2.0
  1
VERSIÓN DE TRABAJO PARA REVISIÓN
  7
ARIAL
 11
746.5
 21
104.0
 31
0.0
100
AcDbAttribute
  2
REV0_D
 70
0
 74
2
 71
1
 72
0
 11
746.5
 21
104.0
 31
0.0
  0
ATTRIB
  5
345
330
1F7
100
AcDbEntity
 67
1
  8
A-CAJETIN-TXT
100
AcDbText
 10
717.0
 20
98.8
 30
0.0
 40
2.0
  1
1
  7
ARIAL
 72
1
 11
717.0
 21
98.8
 31
0.0
100
AcDbAttribute
  2
REV1_N
 70
0
 74
2
 71
1
 72
0
 11
717.0
 21
98.8
 31
0.0
  0
ATTRIB
  5
346
330
1F7
100
AcDbEntity
 67
1
  8
A-CAJETIN-TXT
100
AcDbText
 10
734.0
 20
98.8
 30
0.0
 40
2.0
  1
07-10-2026
  7
ARIAL
 72
1
 11
734.0
 21
98.8
 31
0.0
100
AcDbAttribute
  2
REV1_F
 70
0
 74
2
 71
1
 72
0
 11
734.0
 21
98.8
 31
0.0
  0
ATTRIB
  5
347
330
1F7
100
AcDbEntity
 67
1
  8
A-CAJETIN-TXT
100
AcDbText
 10
746.5
 20
98.8
 30
0.0
 40
2.0
  1
LISTA DEFINITIVA (22); PARA TRÁMITE
  7
ARIAL
 11
746.5
 21
98.8
 31
0.0
100
AcDbAttribute
  2
REV1_D
 70
0
 74
2
 71
1
 72
0
 11
746.5
 21
98.8
 31
0.0
  0
ATTRIB
  5
348
330
1F7
100
AcDbEntity
 67
1
  8
A-CAJETIN-TXT
100
AcDbText
 10
717.0
 20
93.6
 30
0.0
 40
2.0
  1

  7
ARIAL
 72
1
 11
717.0
 21
93.6
 31
0.0
100
AcDbAttribute
  2
REV2_N
 70
0
 74
2
 71
1
 72
0
 11
717.0
 21
93.6
 31
0.0
  0
ATTRIB
  5
349
330
1F7
100
AcDbEntity
 67
1
  8
A-CAJETIN-TXT
100
AcDbText
 10
734.0
 20
93.6
 30
0.0
 40
2.0
  1

  7
ARIAL
 72
1
 11
734.0
 21
93.6
 31
0.0
100
AcDbAttribute
  2
REV2_F
 70
0
 74
2
 71
1
 72
0
 11
734.0
 21
93.6
 31
0.0
  0
ATTRIB
  5
34A
330
1F7
100
AcDbEntity
 67
1
  8
A-CAJETIN-TXT
100
AcDbText
 10
746.5
 20
93.6
 30
0.0
 40
2.0
  1

  7
ARIAL
 11
746.5
 21
93.6
 31
0.0
100
AcDbAttribute
  2
REV2_D
 70
0
 74
2
 71
1
 72
0
 11
746.5
 21
93.6
 31
0.0
  0
ATTRIB
  5
34B
330
1F7
100
AcDbEntity
 67
1
  8
A-CAJETIN-TXT
100
AcDbText
 10
771.0
 20
82.99999999999999
 30
0.0
 40
3.0
  1
PARA TRÁMITE
  7
ARIAL
 72
1
 11
771.0
 21
82.99999999999999
 31
0.0
100
AcDbAttribute
  2
ESTADO_1
 70
0
 74
3
 71
1
 72
0
 11
771.0
 21
82.99999999999999
 31
0.0
  0
ATTRIB
  5
34C
330
1F7
100
AcDbEntity
 67
1
  8
A-CAJETIN-TXT
100
AcDbText
 10
771.0
 20
77.99999999999999
 30
0.0
 40
2.4
  1
CFIA Y MUNICIPALIDAD
  7
ARIAL
 72
1
 11
771.0
 21
77.99999999999999
 31
0.0
100
AcDbAttribute
  2
ESTADO_2
 70
0
 74
3
 71
1
 72
0
 11
771.0
 21
77.99999999999999
 31
0.0
  0
ATTRIB
  5
34D
330
1F7
100
AcDbEntity
 67
1
  8
A-CAJETIN-TXT
100
AcDbText
 10
744.0
 20
49.999999999999986
 30
0.0
 40
5.0
  1
COSTA RICA
  7
ARIAL
 72
1
 11
744.0
 21
49.999999999999986
 31
0.0
100
AcDbAttribute
  2
LUGAR
 70
0
 74
2
 71
1
 72
0
 11
744.0
 21
49.999999999999986
 31
0.0
  0
ATTRIB
  5
34E
330
1F7
100
AcDbEntity
 67
1
  8
A-CAJETIN-TXT
100
AcDbText
 10
804.0
 20
49.999999999999986
 30
0.0
 40
14.0
  1
S03
  7
ARIAL
 72
1
 11
804.0
 21
49.999999999999986
 31
0.0
100
AcDbAttribute
  2
LAMINA
 70
0
 74
2
 71
1
 72
0
 11
804.0
 21
49.999999999999986
 31
0.0
  0
ATTRIB
  5
34F
330
1F7
100
AcDbEntity
 67
1
  8
A-CAJETIN-TXT
100
AcDbText
 10
744.0
 20
23.499999999999993
 30
0.0
 40
6.0
  1
OCT 2026
  7
ARIAL
 72
1
 11
744.0
 21
23.499999999999993
 31
0.0
100
AcDbAttribute
  2
FECHA
 70
0
 74
2
 71
1
 72
0
 11
744.0
 21
23.499999999999993
 31
0.0
  0
ATTRIB
  5
350
330
1F7
100
AcDbEntity
 67
1
  8
A-CAJETIN-TXT
100
AcDbText
 10
815.0
 20
23.499999999999993
 30
0.0
 40
9.0
  1
22
  7
ARIAL
 72
1
 11
815.0
 21
23.499999999999993
 31
0.0
100
AcDbAttribute
  2
TOTAL
 70
0
 74
2
 71
1
 72
0
 11
815.0
 21
23.499999999999993
 31
0.0
  0
SEQEND
  5
32D
330
32C
100
AcDbEntity
 67
1
  8
A-CAJETIN
  0
ENDSEC
  0
SECTION
  2
OBJECTS
  0
DICTIONARY
  5
A
330
0
100
AcDbDictionary
281
1
  3
ACAD_COLOR
350
B
  3
ACAD_GROUP
350
C
  3
ACAD_LAYOUT
350
D
  3
ACAD_MATERIAL
350
E
  3
ACAD_MLEADERSTYLE
350
F
  3
ACAD_MLINESTYLE
350
10
  3
ACAD_PLOTSETTINGS
350
11
  3
ACAD_PLOTSTYLENAME
350
12
  3
ACAD_SCALELIST
350
14
  3
ACAD_TABLESTYLE
350
15
  3
ACAD_VISUALSTYLE
350
16
  3
EZDXF_META
350
2D
  0
DICTIONARY
  5
B
330
A
100
AcDbDictionary
281
1
  0
DICTIONARY
  5
C
330
A
100
AcDbDictionary
281
1
  0
DICTIONARY
  5
D
330
A
100
AcDbDictionary
281
1
  3
Model
350
1A
  3
Layout1
350
1E
  3
S03-PLUVIALES
350
1FA
  0
DICTIONARY
  5
E
330
A
100
AcDbDictionary
281
1
  3
ByBlock
350
1F
  3
ByLayer
350
20
  3
Global
350
21
  0
DICTIONARY
  5
F
330
A
100
AcDbDictionary
281
1
  3
Standard
350
2C
  0
DICTIONARY
  5
10
330
A
100
AcDbDictionary
281
1
  3
Standard
350
22
  0
DICTIONARY
  5
11
330
A
100
AcDbDictionary
281
1
  0
ACDBDICTIONARYWDFLT
  5
12
330
A
100
AcDbDictionary
281
1
  3
Normal
350
13
100
AcDbDictionaryWithDefault
340
13
  0
ACDBPLACEHOLDER
  5
13
330
12
  0
DICTIONARY
  5
14
330
A
100
AcDbDictionary
281
1
  0
DICTIONARY
  5
15
330
A
100
AcDbDictionary
281
1
  0
DICTIONARY
  5
16
330
A
100
AcDbDictionary
281
1
  3
2dWireframe
350
5A
  3
Basic
350
5B
  3
Brighten
350
5C
  3
ColorChange
350
5D
  3
Conceptual
350
5E
  3
Dim
350
5F
  3
EdgeColorOff
350
60
  3
Facepattern
350
61
  3
Flat
350
62
  3
FlatWithEdges
350
63
  3
Gouraud
350
64
  3
GouraudWithEdges
350
65
  3
Hidden
350
66
  3
JitterOff
350
67
  3
Linepattern
350
68
  3
Modeling
350
69
  3
OverhangOff
350
6A
  3
Realistic
350
6B
  3
Shaded
350
6C
  3
Shaded with edges
350
6D
  3
Shades of Gray
350
6E
  3
Sketchy
350
6F
  3
Thicken
350
70
  3
Wireframe
350
71
  3
X-Ray
350
72
  0
LAYOUT
  5
1A
330
D
100
AcDbPlotSettings
  1

  4
A3
  6

 40
7.5
 41
20.0
 42
7.5
 43
20.0
 44
420.0
 45
297.0
 46
0.0
 47
0.0
 48
0.0
 49
0.0
140
0.0
141
0.0
142
1.0
143
1.0
 70
1024
 72
1
 73
0
 74
5
  7

 75
16
 76
0
 77
2
 78
300
147
1.0
148
0.0
149
0.0
100
AcDbLayout
  1
Model
 70
1
 71
0
 10
0.0
 20
0.0
 11
420.0
 21
297.0
 12
0.0
 22
0.0
 32
0.0
 14
1e+20
 24
1e+20
 34
1e+20
 15
-1e+20
 25
-1e+20
 35
-1e+20
146
0.0
 13
0.0
 23
0.0
 33
0.0
 16
1.0
 26
0.0
 36
0.0
 17
0.0
 27
1.0
 37
0.0
 76
1
330
17
  0
LAYOUT
  5
1E
330
D
100
AcDbPlotSettings
  1

  4
A3
  6

 40
7.5
 41
20.0
 42
7.5
 43
20.0
 44
420.0
 45
297.0
 46
0.0
 47
0.0
 48
0.0
 49
0.0
140
0.0
141
0.0
142
1.0
143
1.0
 70
0
 72
1
 73
0
 74
5
  7

 75
16
 76
0
 77
2
 78
300
147
1.0
148
0.0
149
0.0
100
AcDbLayout
  1
Layout1
 70
1
 71
1
 10
0.0
 20
0.0
 11
420.0
 21
297.0
 12
0.0
 22
0.0
 32
0.0
 14
1e+20
 24
1e+20
 34
1e+20
 15
-1e+20
 25
-1e+20
 35
-1e+20
146
0.0
 13
0.0
 23
0.0
 33
0.0
 16
1.0
 26
0.0
 36
0.0
 17
0.0
 27
1.0
 37
0.0
 76
1
330
1B
  0
MATERIAL
  5
1F
102
{ACAD_REACTORS
330
E
102
}
330
E
100
AcDbMaterial
  1
ByBlock
  2

 70
0
 40
1.0
 71
1
 41
1.0
 91
-1023410177
 42
1.0
 72
1
  3

 73
1
 74
1
 75
1
 44
0.5
 73
0
 45
1.0
 46
1.0
 77
1
  4

 78
1
 79
1
170
1
 48
1.0
171
1
  6

172
1
173
1
174
1
140
1.0
141
1.0
175
1
  7

176
1
177
1
178
1
143
1.0
179
1
  8

270
1
271
1
272
1
145
1.0
146
1.0
273
1
  9

274
1
275
1
276
1
 42
1.0
 72
1
  3

 73
1
 74
1
 75
1
 94
63
  0
MATERIAL
  5
20
102
{ACAD_REACTORS
330
E
102
}
330
E
100
AcDbMaterial
  1
ByLayer
  2

 70
0
 40
1.0
 71
1
 41
1.0
 91
-1023410177
 42
1.0
 72
1
  3

 73
1
 74
1
 75
1
 44
0.5
 73
0
 45
1.0
 46
1.0
 77
1
  4

 78
1
 79
1
170
1
 48
1.0
171
1
  6

172
1
173
1
174
1
140
1.0
141
1.0
175
1
  7

176
1
177
1
178
1
143
1.0
179
1
  8

270
1
271
1
272
1
145
1.0
146
1.0
273
1
  9

274
1
275
1
276
1
 42
1.0
 72
1
  3

 73
1
 74
1
 75
1
 94
63
  0
MATERIAL
  5
21
102
{ACAD_REACTORS
330
E
102
}
330
E
100
AcDbMaterial
  1
Global
  2

 70
0
 40
1.0
 71
1
 41
1.0
 91
-1023410177
 42
1.0
 72
1
  3

 73
1
 74
1
 75
1
 44
0.5
 73
0
 45
1.0
 46
1.0
 77
1
  4

 78
1
 79
1
170
1
 48
1.0
171
1
  6

172
1
173
1
174
1
140
1.0
141
1.0
175
1
  7

176
1
177
1
178
1
143
1.0
179
1
  8

270
1
271
1
272
1
145
1.0
146
1.0
273
1
  9

274
1
275
1
276
1
 42
1.0
 72
1
  3

 73
1
 74
1
 75
1
 94
63
  0
MLINESTYLE
  5
22
102
{ACAD_REACTORS
330
10
102
}
330
10
100
AcDbMlineStyle
  2
Standard
 70
0
  3

 62
256
 51
90.0
 52
90.0
 71
2
 49
0.5
 62
256
  6
BYLAYER
 49
-0.5
 62
256
  6
BYLAYER
  0
MLEADERSTYLE
  5
2C
102
{ACAD_REACTORS
330
F
102
}
330
F
100
AcDbMLeaderStyle
179
2
170
2
171
1
172
0
 90
2
 40
0.0
 41
0.0
173
1
 91
-1056964608
 92
-2
290
1
 42
2.0
291
1
 43
8.0
  3
Standard
 44
4.0
300

342
29
174
1
175
1
176
0
178
1
 93
-1056964608
 45
4.0
292
0
297
0
 46
4.0
 94
-1056964608
 47
1.0
 49
1.0
140
1.0
294
1
141
0.0
177
0
142
1.0
295
0
296
0
143
3.75
271
0
272
9
273
9
  0
DICTIONARY
  5
2D
330
A
100
AcDbDictionary
280
1
281
1
  3
CREATED_BY_EZDXF
350
2E
  3
WRITTEN_BY_EZDXF
350
353
  0
DICTIONARYVAR
  5
2E
330
2D
100
DictionaryVariables
280
0
  1
1.4.4 @ 2026-10-07T02:32:45.137190+00:00
  0
VISUALSTYLE
  5
5A
102
{ACAD_REACTORS
330
16
102
}
330
16
100
AcDbVisualStyle
  2
2dWireframe
 70
4
177
3
291
0
 70
58
 90
2
176
1
 90
2
176
1
 90
0
176
1
 90
0
176
1
 40
0.6
176
1
 40
30.0
176
1
 62
7
420
16777215
176
1
 90
1
176
1
 90
4
176
1
 62
7
176
1
 62
257
176
1
 90
1
176
1
 90
1
176
1
 40
1.0
176
1
 90
8
176
1
 62
7
176
1
 40
1.0
176
1
 90
1
176
1
 90
6
176
1
 90
2
176
1
 62
7
176
1
 90
5
176
1
 90
0
176
1
 90
0
176
1
290
0
176
1
 90
1
176
1
 40
0.0
176
1
 90
0
176
1
290
1
176
1
290
1
176
1
290
0
176
1
290
0
176
1
290
0
176
1
290
0
176
1
290
0
176
1
290
0
176
1
290
0
176
1
 90
50
176
1
 40
0.0
176
1
 40
1.0
176
1
 90
0
176
1
 62
18
420
0
176
1
 90
50
176
1
 90
3
176
1
 62
5
420
255
176
1
290
0
176
1
 90
50
176
1
 90
50
176
1
 90
50
176
1
290
0
176
1
 90
50
176
1
 62
256
176
0
 40
1.0
176
0
 90
2
176
1
  1
strokes_ogs.tif
176
1
290
0
176
1
 40
1.0
176
1
 40
1.0
176
1
  0
VISUALSTYLE
  5
5B
102
{ACAD_REACTORS
330
16
102
}
330
16
100
AcDbVisualStyle
  2
Basic
 70
7
177
3
291
1
 70
58
 90
2
176
1
 90
2
176
1
 90
0
176
1
 90
1
176
1
 40
0.6
176
1
 40
30.0
176
1
 62
7
420
16777215
176
1
 90
1
176
1
 90
4
176
1
 62
7
176
1
 62
257
176
1
 90
1
176
1
 90
1
176
1
 40
1.0
176
1
 90
8
176
1
 62
7
176
1
 40
1.0
176
1
 90
1
176
1
 90
6
176
1
 90
2
176
1
 62
7
176
1
 90
5
176
1
 90
0
176
1
 90
0
176
1
290
0
176
1
 90
1
176
1
 40
0.0
176
1
 90
0
176
1
290
0
176
1
290
1
176
1
290
1
176
1
290
0
176
1
290
0
176
1
290
0
176
1
290
0
176
1
290
0
176
1
290
0
176
1
 90
50
176
1
 40
0.0
176
1
 40
1.0
176
1
 90
0
176
1
 62
18
420
0
176
1
 90
50
176
1
 90
3
176
1
 62
5
420
255
176
1
290
0
176
1
 90
50
176
1
 90
50
176
1
 90
50
176
1
290
0
176
1
 90
50
176
1
 62
256
176
0
 40
1.0
176
0
 90
2
176
1
  1
strokes_ogs.tif
176
1
290
0
176
1
 40
1.0
176
1
 40
1.0
176
1
  0
VISUALSTYLE
  5
5C
102
{ACAD_REACTORS
330
16
102
}
330
16
100
AcDbVisualStyle
  2
Brighten
 70
12
177
3
291
1
 70
58
 90
2
176
1
 90
2
176
1
 90
0
176
1
 90
2
176
1
 40
0.6
176
1
 40
30.0
176
1
 62
7
420
16777215
176
1
 90
1
176
1
 90
4
176
1
 62
7
176
1
 62
257
176
1
 90
1
176
1
 90
1
176
1
 40
1.0
176
1
 90
8
176
1
 62
7
176
1
 40
1.0
176
1
 90
1
176
1
 90
6
176
1
 90
2
176
1
 62
7
176
1
 90
5
176
1
 90
0
176
1
 90
0
176
1
290
0
176
1
 90
1
176
1
 40
0.0
176
1
 90
0
176
1
290
0
176
1
290
1
176
1
290
1
176
1
290
0
176
1
290
0
176
1
290
0
176
1
290
0
176
1
290
0
176
1
290
0
176
1
 90
50
176
1
 40
0.0
176
1
 40
1.0
176
1
 90
0
176
1
 62
18
420
0
176
1
 90
50
176
1
 90
3
176
1
 62
5
420
255
176
1
290
0
176
1
 90
50
176
1
 90
50
176
1
 90
50
176
1
290
0
176
1
 90
50
176
1
 62
256
176
0
 40
1.0
176
0
 90
2
176
1
  1
strokes_ogs.tif
176
1
290
0
176
1
 40
1.0
176
1
 40
1.0
176
1
  0
VISUALSTYLE
  5
5D
102
{ACAD_REACTORS
330
16
102
}
330
16
100
AcDbVisualStyle
  2
ColorChange
 70
16
177
3
291
1
 70
58
 90
2
176
1
 90
2
176
1
 90
0
176
1
 90
2
176
1
 40
0.6
176
1
 40
30.0
176
1
 62
7
420
16777215
176
1
 90
1
176
1
 90
4
176
1
 62
7
176
1
 62
257
176
1
 90
1
176
1
 90
1
176
1
 40
1.0
176
1
 90
8
176
1
 62
7
176
1
 40
1.0
176
1
 90
1
176
1
 90
6
176
1
 90
2
176
1
 62
7
176
1
 90
5
176
1
 90
0
176
1
 90
0
176
1
290
0
176
1
 90
1
176
1
 40
0.0
176
1
 90
0
176
1
290
0
176
1
290
1
176
1
290
1
176
1
290
0
176
1
290
0
176
1
290
0
176
1
290
0
176
1
290
0
176
1
290
0
176
1
 90
50
176
1
 40
0.0
176
1
 40
1.0
176
1
 90
0
176
1
 62
18
420
0
176
1
 90
50
176
1
 90
3
176
1
 62
5
420
255
176
1
290
0
176
1
 90
50
176
1
 90
50
176
1
 90
50
176
1
290
0
176
1
 90
50
176
1
 62
256
176
0
 40
1.0
176
0
 90
2
176
1
  1
strokes_ogs.tif
176
1
290
0
176
1
 40
1.0
176
1
 40
1.0
176
1
  0
VISUALSTYLE
  5
5E
102
{ACAD_REACTORS
330
16
102
}
330
16
100
AcDbVisualStyle
  2
Conceptual
 70
9
177
3
291
0
 70
58
 90
2
176
1
 90
2
176
1
 90
0
176
1
 90
3
176
1
 40
0.6
176
1
 40
30.0
176
1
 62
7
420
16777215
176
1
 90
1
176
1
 90
4
176
1
 62
7
176
1
 62
257
176
1
 90
1
176
1
 90
1
176
1
 40
1.0
176
1
 90
8
176
1
 62
7
176
1
 40
1.0
176
1
 90
1
176
1
 90
6
176
1
 90
2
176
1
 62
7
176
1
 90
5
176
1
 90
0
176
1
 90
0
176
1
290
0
176
1
 90
1
176
1
 40
0.0
176
1
 90
0
176
1
290
0
176
1
290
1
176
1
290
1
176
1
290
0
176
1
290
0
176
1
290
0
176
1
290
0
176
1
290
0
176
1
290
0
176
1
 90
50
176
1
 40
0.0
176
1
 40
1.0
176
1
 90
0
176
1
 62
18
420
0
176
1
 90
50
176
1
 90
3
176
1
 62
5
420
255
176
1
290
0
176
1
 90
50
176
1
 90
50
176
1
 90
50
176
1
290
0
176
1
 90
50
176
1
 62
256
176
0
 40
1.0
176
0
 90
2
176
1
  1
strokes_ogs.tif
176
1
290
0
176
1
 40
1.0
176
1
 40
1.0
176
1
  0
VISUALSTYLE
  5
5F
102
{ACAD_REACTORS
330
16
102
}
330
16
100
AcDbVisualStyle
  2
Dim
 70
11
177
3
291
1
 70
58
 90
2
176
1
 90
2
176
1
 90
0
176
1
 90
2
176
1
 40
0.6
176
1
 40
30.0
176
1
 62
7
420
16777215
176
1
 90
1
176
1
 90
4
176
1
 62
7
176
1
 62
257
176
1
 90
1
176
1
 90
1
176
1
 40
1.0
176
1
 90
8
176
1
 62
7
176
1
 40
1.0
176
1
 90
1
176
1
 90
6
176
1
 90
2
176
1
 62
7
176
1
 90
5
176
1
 90
0
176
1
 90
0
176
1
290
0
176
1
 90
1
176
1
 40
0.0
176
1
 90
0
176
1
290
0
176
1
290
1
176
1
290
1
176
1
290
0
176
1
290
0
176
1
290
0
176
1
290
0
176
1
290
0
176
1
290
0
176
1
 90
50
176
1
 40
0.0
176
1
 40
1.0
176
1
 90
0
176
1
 62
18
420
0
176
1
 90
50
176
1
 90
3
176
1
 62
5
420
255
176
1
290
0
176
1
 90
50
176
1
 90
50
176
1
 90
50
176
1
290
0
176
1
 90
50
176
1
 62
256
176
0
 40
1.0
176
0
 90
2
176
1
  1
strokes_ogs.tif
176
1
290
0
176
1
 40
1.0
176
1
 40
1.0
176
1
  0
VISUALSTYLE
  5
60
102
{ACAD_REACTORS
330
16
102
}
330
16
100
AcDbVisualStyle
  2
EdgeColorOff
 70
22
177
3
291
1
 70
58
 90
2
176
1
 90
2
176
1
 90
0
176
1
 90
2
176
1
 40
0.6
176
1
 40
30.0
176
1
 62
7
420
16777215
176
1
 90
1
176
1
 90
4
176
1
 62
7
176
1
 62
257
176
1
 90
1
176
1
 90
1
176
1
 40
1.0
176
1
 90
8
176
1
 62
7
176
1
 40
1.0
176
1
 90
1
176
1
 90
6
176
1
 90
2
176
1
 62
7
176
1
 90
5
176
1
 90
0
176
1
 90
0
176
1
290
0
176
1
 90
1
176
1
 40
0.0
176
1
 90
0
176
1
290
0
176
1
290
1
176
1
290
1
176
1
290
0
176
1
290
0
176
1
290
0
176
1
290
0
176
1
290
0
176
1
290
0
176
1
 90
50
176
1
 40
0.0
176
1
 40
1.0
176
1
 90
0
176
1
 62
18
420
0
176
1
 90
50
176
1
 90
3
176
1
 62
5
420
255
176
1
290
0
176
1
 90
50
176
1
 90
50
176
1
 90
50
176
1
290
0
176
1
 90
50
176
1
 62
256
176
0
 40
1.0
176
0
 90
2
176
1
  1
strokes_ogs.tif
176
1
290
0
176
1
 40
1.0
176
1
 40
1.0
176
1
  0
VISUALSTYLE
  5
61
102
{ACAD_REACTORS
330
16
102
}
330
16
100
AcDbVisualStyle
  2
Facepattern
 70
15
177
3
291
1
 70
58
 90
2
176
1
 90
2
176
1
 90
0
176
1
 90
2
176
1
 40
0.6
176
1
 40
30.0
176
1
 62
7
420
16777215
176
1
 90
1
176
1
 90
4
176
1
 62
7
176
1
 62
257
176
1
 90
1
176
1
 90
1
176
1
 40
1.0
176
1
 90
8
176
1
 62
7
176
1
 40
1.0
176
1
 90
1
176
1
 90
6
176
1
 90
2
176
1
 62
7
176
1
 90
5
176
1
 90
0
176
1
 90
0
176
1
290
0
176
1
 90
1
176
1
 40
0.0
176
1
 90
0
176
1
290
0
176
1
290
1
176
1
290
1
176
1
290
0
176
1
290
0
176
1
290
0
176
1
290
0
176
1
290
0
176
1
290
0
176
1
 90
50
176
1
 40
0.0
176
1
 40
1.0
176
1
 90
0
176
1
 62
18
420
0
176
1
 90
50
176
1
 90
3
176
1
 62
5
420
255
176
1
290
0
176
1
 90
50
176
1
 90
50
176
1
 90
50
176
1
290
0
176
1
 90
50
176
1
 62
256
176
0
 40
1.0
176
0
 90
2
176
1
  1
strokes_ogs.tif
176
1
290
0
176
1
 40
1.0
176
1
 40
1.0
176
1
  0
VISUALSTYLE
  5
62
102
{ACAD_REACTORS
330
16
102
}
330
16
100
AcDbVisualStyle
  2
Flat
 70
0
177
3
291
1
 70
58
 90
2
176
1
 90
2
176
1
 90
0
176
1
 90
2
176
1
 40
0.6
176
1
 40
30.0
176
1
 62
7
420
16777215
176
1
 90
1
176
1
 90
4
176
1
 62
7
176
1
 62
257
176
1
 90
1
176
1
 90
1
176
1
 40
1.0
176
1
 90
8
176
1
 62
7
176
1
 40
1.0
176
1
 90
1
176
1
 90
6
176
1
 90
2
176
1
 62
7
176
1
 90
5
176
1
 90
0
176
1
 90
0
176
1
290
0
176
1
 90
1
176
1
 40
0.0
176
1
 90
0
176
1
290
0
176
1
290
1
176
1
290
1
176
1
290
0
176
1
290
0
176
1
290
0
176
1
290
0
176
1
290
0
176
1
290
0
176
1
 90
50
176
1
 40
0.0
176
1
 40
1.0
176
1
 90
0
176
1
 62
18
420
0
176
1
 90
50
176
1
 90
3
176
1
 62
5
420
255
176
1
290
0
176
1
 90
50
176
1
 90
50
176
1
 90
50
176
1
290
0
176
1
 90
50
176
1
 62
256
176
0
 40
1.0
176
0
 90
2
176
1
  1
strokes_ogs.tif
176
1
290
0
176
1
 40
1.0
176
1
 40
1.0
176
1
  0
VISUALSTYLE
  5
63
102
{ACAD_REACTORS
330
16
102
}
330
16
100
AcDbVisualStyle
  2
FlatWithEdges
 70
1
177
3
291
1
 70
58
 90
2
176
1
 90
2
176
1
 90
0
176
1
 90
2
176
1
 40
0.6
176
1
 40
30.0
176
1
 62
7
420
16777215
176
1
 90
1
176
1
 90
4
176
1
 62
7
176
1
 62
257
176
1
 90
1
176
1
 90
1
176
1
 40
1.0
176
1
 90
8
176
1
 62
7
176
1
 40
1.0
176
1
 90
1
176
1
 90
6
176
1
 90
2
176
1
 62
7
176
1
 90
5
176
1
 90
0
176
1
 90
0
176
1
290
0
176
1
 90
1
176
1
 40
0.0
176
1
 90
0
176
1
290
0
176
1
290
1
176
1
290
1
176
1
290
0
176
1
290
0
176
1
290
0
176
1
290
0
176
1
290
0
176
1
290
0
176
1
 90
50
176
1
 40
0.0
176
1
 40
1.0
176
1
 90
0
176
1
 62
18
420
0
176
1
 90
50
176
1
 90
3
176
1
 62
5
420
255
176
1
290
0
176
1
 90
50
176
1
 90
50
176
1
 90
50
176
1
290
0
176
1
 90
50
176
1
 62
256
176
0
 40
1.0
176
0
 90
2
176
1
  1
strokes_ogs.tif
176
1
290
0
176
1
 40
1.0
176
1
 40
1.0
176
1
  0
VISUALSTYLE
  5
64
102
{ACAD_REACTORS
330
16
102
}
330
16
100
AcDbVisualStyle
  2
Gouraud
 70
2
177
3
291
1
 70
58
 90
2
176
1
 90
2
176
1
 90
0
176
1
 90
2
176
1
 40
0.6
176
1
 40
30.0
176
1
 62
7
420
16777215
176
1
 90
1
176
1
 90
4
176
1
 62
7
176
1
 62
257
176
1
 90
1
176
1
 90
1
176
1
 40
1.0
176
1
 90
8
176
1
 62
7
176
1
 40
1.0
176
1
 90
1
176
1
 90
6
176
1
 90
2
176
1
 62
7
176
1
 90
5
176
1
 90
0
176
1
 90
0
176
1
290
0
176
1
 90
1
176
1
 40
0.0
176
1
 90
0
176
1
290
0
176
1
290
1
176
1
290
1
176
1
290
0
176
1
290
0
176
1
290
0
176
1
290
0
176
1
290
0
176
1
290
0
176
1
 90
50
176
1
 40
0.0
176
1
 40
1.0
176
1
 90
0
176
1
 62
18
420
0
176
1
 90
50
176
1
 90
3
176
1
 62
5
420
255
176
1
290
0
176
1
 90
50
176
1
 90
50
176
1
 90
50
176
1
290
0
176
1
 90
50
176
1
 62
256
176
0
 40
1.0
176
0
 90
2
176
1
  1
strokes_ogs.tif
176
1
290
0
176
1
 40
1.0
176
1
 40
1.0
176
1
  0
VISUALSTYLE
  5
65
102
{ACAD_REACTORS
330
16
102
}
330
16
100
AcDbVisualStyle
  2
GouraudWithEdges
 70
3
177
3
291
1
 70
58
 90
2
176
1
 90
2
176
1
 90
0
176
1
 90
2
176
1
 40
0.6
176
1
 40
30.0
176
1
 62
7
420
16777215
176
1
 90
1
176
1
 90
4
176
1
 62
7
176
1
 62
257
176
1
 90
1
176
1
 90
1
176
1
 40
1.0
176
1
 90
8
176
1
 62
7
176
1
 40
1.0
176
1
 90
1
176
1
 90
6
176
1
 90
2
176
1
 62
7
176
1
 90
5
176
1
 90
0
176
1
 90
0
176
1
290
0
176
1
 90
1
176
1
 40
0.0
176
1
 90
0
176
1
290
0
176
1
290
1
176
1
290
1
176
1
290
0
176
1
290
0
176
1
290
0
176
1
290
0
176
1
290
0
176
1
290
0
176
1
 90
50
176
1
 40
0.0
176
1
 40
1.0
176
1
 90
0
176
1
 62
18
420
0
176
1
 90
50
176
1
 90
3
176
1
 62
5
420
255
176
1
290
0
176
1
 90
50
176
1
 90
50
176
1
 90
50
176
1
290
0
176
1
 90
50
176
1
 62
256
176
0
 40
1.0
176
0
 90
2
176
1
  1
strokes_ogs.tif
176
1
290
0
176
1
 40
1.0
176
1
 40
1.0
176
1
  0
VISUALSTYLE
  5
66
102
{ACAD_REACTORS
330
16
102
}
330
16
100
AcDbVisualStyle
  2
Hidden
 70
6
177
3
291
0
 70
58
 90
2
176
1
 90
2
176
1
 90
0
176
1
 90
1
176
1
 40
0.6
176
1
 40
30.0
176
1
 62
7
420
16777215
176
1
 90
1
176
1
 90
4
176
1
 62
7
176
1
 62
257
176
1
 90
1
176
1
 90
1
176
1
 40
1.0
176
1
 90
8
176
1
 62
7
176
1
 40
1.0
176
1
 90
1
176
1
 90
6
176
1
 90
2
176
1
 62
7
176
1
 90
5
176
1
 90
0
176
1
 90
0
176
1
290
0
176
1
 90
1
176
1
 40
0.0
176
1
 90
0
176
1
290
0
176
1
290
1
176
1
290
1
176
1
290
0
176
1
290
0
176
1
290
0
176
1
290
0
176
1
290
0
176
1
290
0
176
1
 90
50
176
1
 40
0.0
176
1
 40
1.0
176
1
 90
0
176
1
 62
18
420
0
176
1
 90
50
176
1
 90
3
176
1
 62
5
420
255
176
1
290
0
176
1
 90
50
176
1
 90
50
176
1
 90
50
176
1
290
0
176
1
 90
50
176
1
 62
256
176
0
 40
1.0
176
0
 90
2
176
1
  1
strokes_ogs.tif
176
1
290
0
176
1
 40
1.0
176
1
 40
1.0
176
1
  0
VISUALSTYLE
  5
67
102
{ACAD_REACTORS
330
16
102
}
330
16
100
AcDbVisualStyle
  2
JitterOff
 70
20
177
3
291
1
 70
58
 90
2
176
1
 90
2
176
1
 90
0
176
1
 90
2
176
1
 40
0.6
176
1
 40
30.0
176
1
 62
7
420
16777215
176
1
 90
1
176
1
 90
4
176
1
 62
7
176
1
 62
257
176
1
 90
1
176
1
 90
1
176
1
 40
1.0
176
1
 90
8
176
1
 62
7
176
1
 40
1.0
176
1
 90
1
176
1
 90
6
176
1
 90
2
176
1
 62
7
176
1
 90
5
176
1
 90
0
176
1
 90
0
176
1
290
0
176
1
 90
1
176
1
 40
0.0
176
1
 90
0
176
1
290
0
176
1
290
1
176
1
290
1
176
1
290
0
176
1
290
0
176
1
290
0
176
1
290
0
176
1
290
0
176
1
290
0
176
1
 90
50
176
1
 40
0.0
176
1
 40
1.0
176
1
 90
0
176
1
 62
18
420
0
176
1
 90
50
176
1
 90
3
176
1
 62
5
420
255
176
1
290
0
176
1
 90
50
176
1
 90
50
176
1
 90
50
176
1
290
0
176
1
 90
50
176
1
 62
256
176
0
 40
1.0
176
0
 90
2
176
1
  1
strokes_ogs.tif
176
1
290
0
176
1
 40
1.0
176
1
 40
1.0
176
1
  0
VISUALSTYLE
  5
68
102
{ACAD_REACTORS
330
16
102
}
330
16
100
AcDbVisualStyle
  2
Linepattern
 70
14
177
3
291
1
 70
58
 90
2
176
1
 90
2
176
1
 90
0
176
1
 90
2
176
1
 40
0.6
176
1
 40
30.0
176
1
 62
7
420
16777215
176
1
 90
1
176
1
 90
4
176
1
 62
7
176
1
 62
257
176
1
 90
1
176
1
 90
1
176
1
 40
1.0
176
1
 90
8
176
1
 62
7
176
1
 40
1.0
176
1
 90
1
176
1
 90
6
176
1
 90
2
176
1
 62
7
176
1
 90
5
176
1
 90
0
176
1
 90
0
176
1
290
0
176
1
 90
1
176
1
 40
0.0
176
1
 90
0
176
1
290
0
176
1
290
1
176
1
290
1
176
1
290
0
176
1
290
0
176
1
290
0
176
1
290
0
176
1
290
0
176
1
290
0
176
1
 90
50
176
1
 40
0.0
176
1
 40
1.0
176
1
 90
0
176
1
 62
18
420
0
176
1
 90
50
176
1
 90
3
176
1
 62
5
420
255
176
1
290
0
176
1
 90
50
176
1
 90
50
176
1
 90
50
176
1
290
0
176
1
 90
50
176
1
 62
256
176
0
 40
1.0
176
0
 90
2
176
1
  1
strokes_ogs.tif
176
1
290
0
176
1
 40
1.0
176
1
 40
1.0
176
1
  0
VISUALSTYLE
  5
69
102
{ACAD_REACTORS
330
16
102
}
330
16
100
AcDbVisualStyle
  2
Modeling
 70
10
177
3
291
0
 70
58
 90
2
176
1
 90
2
176
1
 90
0
176
1
 90
2
176
1
 40
0.6
176
1
 40
30.0
176
1
 62
7
420
16777215
176
1
 90
1
176
1
 90
4
176
1
 62
7
176
1
 62
257
176
1
 90
1
176
1
 90
1
176
1
 40
1.0
176
1
 90
8
176
1
 62
7
176
1
 40
1.0
176
1
 90
1
176
1
 90
6
176
1
 90
2
176
1
 62
7
176
1
 90
5
176
1
 90
0
176
1
 90
0
176
1
290
0
176
1
 90
1
176
1
 40
0.0
176
1
 90
0
176
1
290
0
176
1
290
1
176
1
290
1
176
1
290
0
176
1
290
0
176
1
290
0
176
1
290
0
176
1
290
0
176
1
290
0
176
1
 90
50
176
1
 40
0.0
176
1
 40
1.0
176
1
 90
0
176
1
 62
18
420
0
176
1
 90
50
176
1
 90
3
176
1
 62
5
420
255
176
1
290
0
176
1
 90
50
176
1
 90
50
176
1
 90
50
176
1
290
0
176
1
 90
50
176
1
 62
256
176
0
 40
1.0
176
0
 90
2
176
1
  1
strokes_ogs.tif
176
1
290
0
176
1
 40
1.0
176
1
 40
1.0
176
1
  0
VISUALSTYLE
  5
6A
102
{ACAD_REACTORS
330
16
102
}
330
16
100
AcDbVisualStyle
  2
OverhangOff
 70
21
177
3
291
1
 70
58
 90
2
176
1
 90
2
176
1
 90
0
176
1
 90
2
176
1
 40
0.6
176
1
 40
30.0
176
1
 62
7
420
16777215
176
1
 90
1
176
1
 90
4
176
1
 62
7
176
1
 62
257
176
1
 90
1
176
1
 90
1
176
1
 40
1.0
176
1
 90
8
176
1
 62
7
176
1
 40
1.0
176
1
 90
1
176
1
 90
6
176
1
 90
2
176
1
 62
7
176
1
 90
5
176
1
 90
0
176
1
 90
0
176
1
290
0
176
1
 90
1
176
1
 40
0.0
176
1
 90
0
176
1
290
0
176
1
290
1
176
1
290
1
176
1
290
0
176
1
290
0
176
1
290
0
176
1
290
0
176
1
290
0
176
1
290
0
176
1
 90
50
176
1
 40
0.0
176
1
 40
1.0
176
1
 90
0
176
1
 62
18
420
0
176
1
 90
50
176
1
 90
3
176
1
 62
5
420
255
176
1
290
0
176
1
 90
50
176
1
 90
50
176
1
 90
50
176
1
290
0
176
1
 90
50
176
1
 62
256
176
0
 40
1.0
176
0
 90
2
176
1
  1
strokes_ogs.tif
176
1
290
0
176
1
 40
1.0
176
1
 40
1.0
176
1
  0
VISUALSTYLE
  5
6B
102
{ACAD_REACTORS
330
16
102
}
330
16
100
AcDbVisualStyle
  2
Realistic
 70
8
177
3
291
0
 70
58
 90
2
176
1
 90
2
176
1
 90
0
176
1
 90
2
176
1
 40
0.6
176
1
 40
30.0
176
1
 62
7
420
16777215
176
1
 90
1
176
1
 90
4
176
1
 62
7
176
1
 62
257
176
1
 90
1
176
1
 90
1
176
1
 40
1.0
176
1
 90
8
176
1
 62
7
176
1
 40
1.0
176
1
 90
1
176
1
 90
6
176
1
 90
2
176
1
 62
7
176
1
 90
5
176
1
 90
0
176
1
 90
0
176
1
290
0
176
1
 90
1
176
1
 40
0.0
176
1
 90
0
176
1
290
0
176
1
290
1
176
1
290
1
176
1
290
0
176
1
290
0
176
1
290
0
176
1
290
0
176
1
290
0
176
1
290
0
176
1
 90
50
176
1
 40
0.0
176
1
 40
1.0
176
1
 90
0
176
1
 62
18
420
0
176
1
 90
50
176
1
 90
3
176
1
 62
5
420
255
176
1
290
0
176
1
 90
50
176
1
 90
50
176
1
 90
50
176
1
290
0
176
1
 90
50
176
1
 62
256
176
0
 40
1.0
176
0
 90
2
176
1
  1
strokes_ogs.tif
176
1
290
0
176
1
 40
1.0
176
1
 40
1.0
176
1
  0
VISUALSTYLE
  5
6C
102
{ACAD_REACTORS
330
16
102
}
330
16
100
AcDbVisualStyle
  2
Shaded
 70
27
177
3
291
0
 70
58
 90
2
176
1
 90
2
176
1
 90
0
176
1
 90
2
176
1
 40
0.6
176
1
 40
30.0
176
1
 62
7
420
16777215
176
1
 90
1
176
1
 90
4
176
1
 62
7
176
1
 62
257
176
1
 90
1
176
1
 90
1
176
1
 40
1.0
176
1
 90
8
176
1
 62
7
176
1
 40
1.0
176
1
 90
1
176
1
 90
6
176
1
 90
2
176
1
 62
7
176
1
 90
5
176
1
 90
0
176
1
 90
0
176
1
290
0
176
1
 90
1
176
1
 40
0.0
176
1
 90
0
176
1
290
0
176
1
290
1
176
1
290
1
176
1
290
0
176
1
290
0
176
1
290
0
176
1
290
0
176
1
290
0
176
1
290
0
176
1
 90
50
176
1
 40
0.0
176
1
 40
1.0
176
1
 90
0
176
1
 62
18
420
0
176
1
 90
50
176
1
 90
3
176
1
 62
5
420
255
176
1
290
0
176
1
 90
50
176
1
 90
50
176
1
 90
50
176
1
290
0
176
1
 90
50
176
1
 62
256
176
0
 40
1.0
176
0
 90
2
176
1
  1
strokes_ogs.tif
176
1
290
0
176
1
 40
1.0
176
1
 40
1.0
176
1
  0
VISUALSTYLE
  5
6D
102
{ACAD_REACTORS
330
16
102
}
330
16
100
AcDbVisualStyle
  2
Shaded with edges
 70
26
177
3
291
0
 70
58
 90
2
176
1
 90
2
176
1
 90
0
176
1
 90
2
176
1
 40
0.6
176
1
 40
30.0
176
1
 62
7
420
16777215
176
1
 90
1
176
1
 90
4
176
1
 62
7
176
1
 62
257
176
1
 90
1
176
1
 90
1
176
1
 40
1.0
176
1
 90
8
176
1
 62
7
176
1
 40
1.0
176
1
 90
1
176
1
 90
6
176
1
 90
2
176
1
 62
7
176
1
 90
5
176
1
 90
0
176
1
 90
0
176
1
290
0
176
1
 90
1
176
1
 40
0.0
176
1
 90
0
176
1
290
0
176
1
290
1
176
1
290
1
176
1
290
0
176
1
290
0
176
1
290
0
176
1
290
0
176
1
290
0
176
1
290
0
176
1
 90
50
176
1
 40
0.0
176
1
 40
1.0
176
1
 90
0
176
1
 62
18
420
0
176
1
 90
50
176
1
 90
3
176
1
 62
5
420
255
176
1
290
0
176
1
 90
50
176
1
 90
50
176
1
 90
50
176
1
290
0
176
1
 90
50
176
1
 62
256
176
0
 40
1.0
176
0
 90
2
176
1
  1
strokes_ogs.tif
176
1
290
0
176
1
 40
1.0
176
1
 40
1.0
176
1
  0
VISUALSTYLE
  5
6E
102
{ACAD_REACTORS
330
16
102
}
330
16
100
AcDbVisualStyle
  2
Shades of Gray
 70
23
177
3
291
0
 70
58
 90
2
176
1
 90
2
176
1
 90
0
176
1
 90
2
176
1
 40
0.6
176
1
 40
30.0
176
1
 62
7
420
16777215
176
1
 90
1
176
1
 90
4
176
1
 62
7
176
1
 62
257
176
1
 90
1
176
1
 90
1
176
1
 40
1.0
176
1
 90
8
176
1
 62
7
176
1
 40
1.0
176
1
 90
1
176
1
 90
6
176
1
 90
2
176
1
 62
7
176
1
 90
5
176
1
 90
0
176
1
 90
0
176
1
290
0
176
1
 90
1
176
1
 40
0.0
176
1
 90
0
176
1
290
0
176
1
290
1
176
1
290
1
176
1
290
0
176
1
290
0
176
1
290
0
176
1
290
0
176
1
290
0
176
1
290
0
176
1
 90
50
176
1
 40
0.0
176
1
 40
1.0
176
1
 90
0
176
1
 62
18
420
0
176
1
 90
50
176
1
 90
3
176
1
 62
5
420
255
176
1
290
0
176
1
 90
50
176
1
 90
50
176
1
 90
50
176
1
290
0
176
1
 90
50
176
1
 62
256
176
0
 40
1.0
176
0
 90
2
176
1
  1
strokes_ogs.tif
176
1
290
0
176
1
 40
1.0
176
1
 40
1.0
176
1
  0
VISUALSTYLE
  5
6F
102
{ACAD_REACTORS
330
16
102
}
330
16
100
AcDbVisualStyle
  2
Sketchy
 70
24
177
3
291
0
 70
58
 90
2
176
1
 90
2
176
1
 90
0
176
1
 90
1
176
1
 40
0.6
176
1
 40
30.0
176
1
 62
7
420
16777215
176
1
 90
1
176
1
 90
4
176
1
 62
7
176
1
 62
257
176
1
 90
1
176
1
 90
1
176
1
 40
1.0
176
1
 90
8
176
1
 62
7
176
1
 40
1.0
176
1
 90
1
176
1
 90
6
176
1
 90
2
176
1
 62
7
176
1
 90
5
176
1
 90
0
176
1
 90
0
176
1
290
0
176
1
 90
1
176
1
 40
0.0
176
1
 90
0
176
1
290
0
176
1
290
1
176
1
290
1
176
1
290
0
176
1
290
0
176
1
290
0
176
1
290
0
176
1
290
0
176
1
290
0
176
1
 90
50
176
1
 40
0.0
176
1
 40
1.0
176
1
 90
0
176
1
 62
18
420
0
176
1
 90
50
176
1
 90
3
176
1
 62
5
420
255
176
1
290
0
176
1
 90
50
176
1
 90
50
176
1
 90
50
176
1
290
0
176
1
 90
50
176
1
 62
256
176
0
 40
1.0
176
0
 90
2
176
1
  1
strokes_ogs.tif
176
1
290
0
176
1
 40
1.0
176
1
 40
1.0
176
1
  0
VISUALSTYLE
  5
70
102
{ACAD_REACTORS
330
16
102
}
330
16
100
AcDbVisualStyle
  2
Thicken
 70
13
177
3
291
1
 70
58
 90
2
176
1
 90
2
176
1
 90
0
176
1
 90
2
176
1
 40
0.6
176
1
 40
30.0
176
1
 62
7
420
16777215
176
1
 90
1
176
1
 90
4
176
1
 62
7
176
1
 62
257
176
1
 90
1
176
1
 90
1
176
1
 40
1.0
176
1
 90
8
176
1
 62
7
176
1
 40
1.0
176
1
 90
1
176
1
 90
6
176
1
 90
2
176
1
 62
7
176
1
 90
5
176
1
 90
0
176
1
 90
0
176
1
290
0
176
1
 90
1
176
1
 40
0.0
176
1
 90
0
176
1
290
0
176
1
290
1
176
1
290
1
176
1
290
0
176
1
290
0
176
1
290
0
176
1
290
0
176
1
290
0
176
1
290
0
176
1
 90
50
176
1
 40
0.0
176
1
 40
1.0
176
1
 90
0
176
1
 62
18
420
0
176
1
 90
50
176
1
 90
3
176
1
 62
5
420
255
176
1
290
0
176
1
 90
50
176
1
 90
50
176
1
 90
50
176
1
290
0
176
1
 90
50
176
1
 62
256
176
0
 40
1.0
176
0
 90
2
176
1
  1
strokes_ogs.tif
176
1
290
0
176
1
 40
1.0
176
1
 40
1.0
176
1
  0
VISUALSTYLE
  5
71
102
{ACAD_REACTORS
330
16
102
}
330
16
100
AcDbVisualStyle
  2
Wireframe
 70
5
177
3
291
0
 70
58
 90
2
176
1
 90
2
176
1
 90
0
176
1
 90
0
176
1
 40
0.6
176
1
 40
30.0
176
1
 62
7
420
16777215
176
1
 90
1
176
1
 90
4
176
1
 62
7
176
1
 62
257
176
1
 90
1
176
1
 90
1
176
1
 40
1.0
176
1
 90
8
176
1
 62
7
176
1
 40
1.0
176
1
 90
1
176
1
 90
6
176
1
 90
2
176
1
 62
7
176
1
 90
5
176
1
 90
0
176
1
 90
0
176
1
290
0
176
1
 90
1
176
1
 40
0.0
176
1
 90
0
176
1
290
0
176
1
290
1
176
1
290
1
176
1
290
0
176
1
290
0
176
1
290
0
176
1
290
0
176
1
290
0
176
1
290
0
176
1
 90
50
176
1
 40
0.0
176
1
 40
1.0
176
1
 90
0
176
1
 62
18
420
0
176
1
 90
50
176
1
 90
3
176
1
 62
5
420
255
176
1
290
0
176
1
 90
50
176
1
 90
50
176
1
 90
50
176
1
290
0
176
1
 90
50
176
1
 62
256
176
0
 40
1.0
176
0
 90
2
176
1
  1
strokes_ogs.tif
176
1
290
0
176
1
 40
1.0
176
1
 40
1.0
176
1
  0
VISUALSTYLE
  5
72
102
{ACAD_REACTORS
330
16
102
}
330
16
100
AcDbVisualStyle
  2
X-Ray
 70
25
177
3
291
0
 70
58
 90
2
176
1
 90
2
176
1
 90
0
176
1
 90
2
176
1
 40
0.5
176
1
 40
30.0
176
1
 62
7
420
16777215
176
1
 90
1
176
1
 90
4
176
1
 62
7
176
1
 62
257
176
1
 90
1
176
1
 90
1
176
1
 40
1.0
176
1
 90
8
176
1
 62
7
176
1
 40
1.0
176
1
 90
1
176
1
 90
6
176
1
 90
2
176
1
 62
7
176
1
 90
5
176
1
 90
0
176
1
 90
0
176
1
290
0
176
1
 90
1
176
1
 40
0.0
176
1
 90
0
176
1
290
0
176
1
290
1
176
1
290
1
176
1
290
0
176
1
290
0
176
1
290
0
176
1
290
0
176
1
290
0
176
1
290
0
176
1
 90
50
176
1
 40
0.0
176
1
 40
1.0
176
1
 90
0
176
1
 62
18
420
0
176
1
 90
50
176
1
 90
3
176
1
 62
5
420
255
176
1
290
0
176
1
 90
50
176
1
 90
50
176
1
 90
50
176
1
290
0
176
1
 90
50
176
1
 62
256
176
0
 40
1.0
176
0
 90
2
176
1
  1
strokes_ogs.tif
176
1
290
0
176
1
 40
1.0
176
1
 40
1.0
176
1
  0
LAYOUT
  5
1FA
330
D
100
AcDbPlotSettings
  1

  2
DWG to PDF.pc3
  4
ezdxf_(841.00_x_594.00_MM)
  6

 40
0.0
 41
0.0
 42
0.0
 43
0.0
 44
841.0
 45
594.0
 46
0.0
 47
0.0
 48
0.0
 49
0.0
140
0.0
141
0.0
142
1.0
143
1.0
 70
672
 72
1
 73
0
 74
5
  7

 75
16
 76
0
 77
2
 78
300
147
1.0
148
0.0
149
0.0
100
AcDbLayout
  1
S03-PLUVIALES
 70
1
 71
3
 10
-0.0
 20
-0.0
 11
841.0
 21
594.0
 12
0.0
 22
0.0
 32
0.0
 14
1e+20
 24
1e+20
 34
1e+20
 15
-1e+20
 25
-1e+20
 35
-1e+20
146
0.0
 13
0.0
 23
0.0
 33
0.0
 16
1.0
 26
0.0
 36
0.0
 17
0.0
 27
1.0
 37
0.0
 76
1
330
1F7
331
1FB
  0
DICTIONARYVAR
  5
353
330
2D
100
DictionaryVariables
280
0
  1
1.4.4 @ 2026-10-07T02:32:45.270014+00:00
  0
ENDSEC
  0
EOF
