  0
SECTION
  2
HEADER
  9
$ACADVER
  1
AC1032
  9
$ACADMAINTVER
 90
4
  9
$DWGCODEPAGE
  3
ANSI_1252
  9
$LASTSAVEDBY
  1
ezdxf
  9
$REQUIREDVERSIONS
160
0
  9
$INSBASE
 10
0.0
 20
0.0
 30
0.0
  9
$EXTMIN
 10
1e+20
 20
1e+20
 30
1e+20
  9
$EXTMAX
 10
-1e+20
 20
-1e+20
 30
-1e+20
  9
$LIMMIN
 10
0.0
 20
0.0
  9
$LIMMAX
 10
420.0
 20
297.0
  9
$ORTHOMODE
 70
0
  9
$REGENMODE
 70
1
  9
$FILLMODE
 70
1
  9
$QTEXTMODE
 70
0
  9
$MIRRTEXT
 70
1
  9
$LTSCALE
 40
1.0
  9
$ATTMODE
 70
1
  9
$TEXTSIZE
 40
2.5
  9
$TRACEWID
 40
1.0
  9
$TEXTSTYLE
  7
OpenSans
  9
$CLAYER
  8
0
  9
$CELTYPE
  6
ByLayer
  9
$CECOLOR
 62
256
  9
$CELTSCALE
 40
1.0
  9
$DISPSILH
 70
0
  9
$DIMSCALE
 40
1.0
  9
$DIMASZ
 40
0.175
  9
$DIMEXO
 40
0.125
  9
$DIMDLI
 40
3.75
  9
$DIMRND
 40
0.0
  9
$DIMDLE
 40
0.0
  9
$DIMEXE
 40
0.375
  9
$DIMTP
 40
0.0
  9
$DIMTM
 40
0.0
  9
$DIMTXT
 40
0.25
  9
$DIMCEN
 40
2.5
  9
$DIMTSZ
 40
0.0
  9
$DIMTOL
 70
0
  9
$DIMLIM
 70
0
  9
$DIMTIH
 70
0
  9
$DIMTOH
 70
0
  9
$DIMSE1
 70
0
  9
$DIMSE2
 70
0
  9
$DIMTAD
 70
1
  9
$DIMZIN
 70
12
  9
$DIMBLK
  1
ARCHTICK
  9
$DIMASO
 70
1
  9
$DIMSHO
 70
1
  9
$DIMPOST
  1

  9
$DIMAPOST
  1

  9
$DIMALT
 70
0
  9
$DIMALTD
 70
3
  9
$DIMALTF
 40
0.03937007874
  9
$DIMLFAC
 40
100.0
  9
$DIMTOFL
 70
1
  9
$DIMTVP
 40
0.0
  9
$DIMTIX
 70
0
  9
$DIMSOXD
 70
0
  9
$DIMSAH
 70
0
  9
$DIMBLK1
  1

  9
$DIMBLK2
  1

  9
$DIMSTYLE
  2
EZDXF
  9
$DIMCLRD
 70
0
  9
$DIMCLRE
 70
0
  9
$DIMCLRT
 70
0
  9
$DIMTFAC
 40
0.5
  9
$DIMGAP
 40
0.1
  9
$DIMJUST
 70
0
  9
$DIMSD1
 70
0
  9
$DIMSD2
 70
0
  9
$DIMTOLJ
 70
0
  9
$DIMTZIN
 70
8
  9
$DIMALTZ
 70
0
  9
$DIMALTTZ
 70
0
  9
$DIMUPT
 70
1
  9
$DIMDEC
 70
2
  9
$DIMTDEC
 70
2
  9
$DIMALTU
 70
2
  9
$DIMALTTD
 70
3
  9
$DIMTXSTY
  7
OpenSansCondensed-Light
  9
$DIMAUNIT
 70
0
  9
$DIMADEC
 70
2
  9
$DIMALTRND
 40
0.0
  9
$DIMAZIN
 70
3
  9
$DIMDSEP
 70
46
  9
$DIMATFIT
 70
3
  9
$DIMFRAC
 70
0
  9
$DIMLDRBLK
  1

  9
$DIMLUNIT
 70
2
  9
$DIMLWD
 70
-2
  9
$DIMLWE
 70
-2
  9
$DIMTMOVE
 70
2
  9
$DIMFXL
 40
1.0
  9
$DIMFXLON
 70
0
  9
$DIMJOGANG
 40
0.785398163397
  9
$DIMTFILL
 70
0
  9
$DIMTFILLCLR
 70
0
  9
$DIMARCSYM
 70
0
  9
$DIMLTYPE
  6

  9
$DIMLTEX1
  6

  9
$DIMLTEX2
  6

  9
$DIMTXTDIRECTION
 70
0
  9
$LUNITS
 70
2
  9
$LUPREC
 70
2
  9
$SKETCHINC
 40
1.0
  9
$FILLETRAD
 40
10.0
  9
$AUNITS
 70
1
  9
$AUPREC
 70
2
  9
$MENU
  1
.
  9
$ELEVATION
 40
0.0
  9
$PELEVATION
 40
0.0
  9
$THICKNESS
 40
0.0
  9
$LIMCHECK
 70
0
  9
$CHAMFERA
 40
0.0
  9
$CHAMFERB
 40
0.0
  9
$CHAMFERC
 40
0.0
  9
$CHAMFERD
 40
0.0
  9
$SKPOLY
 70
0
  9
$TDCREATE
 40
2461320.849710648
  9
$TDUCREATE
 40
2458532.153996898
  9
$TDUPDATE
 40
2461320.849710648
  9
$TDUUPDATE
 40
2458532.1544311
  9
$TDINDWG
 40
0.0
  9
$TDUSRTIMER
 40
0.0
  9
$USRTIMER
 70
1
  9
$ANGBASE
 50
0.0
  9
$ANGDIR
 70
0
  9
$PDMODE
 70
0
  9
$PDSIZE
 40
0.0
  9
$PLINEWID
 40
0.0
  9
$SPLFRAME
 70
0
  9
$SPLINETYPE
 70
6
  9
$SPLINESEGS
 70
8
  9
$HANDSEED
  5
336
  9
$SURFTAB1
 70
6
  9
$SURFTAB2
 70
6
  9
$SURFTYPE
 70
6
  9
$SURFU
 70
6
  9
$SURFV
 70
6
  9
$UCSBASE
  2

  9
$UCSNAME
  2

  9
$UCSORG
 10
0.0
 20
0.0
 30
0.0
  9
$UCSXDIR
 10
1.0
 20
0.0
 30
0.0
  9
$UCSYDIR
 10
0.0
 20
1.0
 30
0.0
  9
$UCSORTHOREF
  2

  9
$UCSORTHOVIEW
 70
0
  9
$UCSORGTOP
 10
0.0
 20
0.0
 30
0.0
  9
$UCSORGBOTTOM
 10
0.0
 20
0.0
 30
0.0
  9
$UCSORGLEFT
 10
0.0
 20
0.0
 30
0.0
  9
$UCSORGRIGHT
 10
0.0
 20
0.0
 30
0.0
  9
$UCSORGFRONT
 10
0.0
 20
0.0
 30
0.0
  9
$UCSORGBACK
 10
0.0
 20
0.0
 30
0.0
  9
$PUCSBASE
  2

  9
$PUCSNAME
  2

  9
$PUCSORG
 10
0.0
 20
0.0
 30
0.0
  9
$PUCSXDIR
 10
1.0
 20
0.0
 30
0.0
  9
$PUCSYDIR
 10
0.0
 20
1.0
 30
0.0
  9
$PUCSORTHOREF
  2

  9
$PUCSORTHOVIEW
 70
0
  9
$PUCSORGTOP
 10
0.0
 20
0.0
 30
0.0
  9
$PUCSORGBOTTOM
 10
0.0
 20
0.0
 30
0.0
  9
$PUCSORGLEFT
 10
0.0
 20
0.0
 30
0.0
  9
$PUCSORGRIGHT
 10
0.0
 20
0.0
 30
0.0
  9
$PUCSORGFRONT
 10
0.0
 20
0.0
 30
0.0
  9
$PUCSORGBACK
 10
0.0
 20
0.0
 30
0.0
  9
$USERI1
 70
0
  9
$USERI2
 70
0
  9
$USERI3
 70
0
  9
$USERI4
 70
0
  9
$USERI5
 70
0
  9
$USERR1
 40
0.0
  9
$USERR2
 40
0.0
  9
$USERR3
 40
0.0
  9
$USERR4
 40
0.0
  9
$USERR5
 40
0.0
  9
$WORLDVIEW
 70
1
  9
$SHADEDGE
 70
3
  9
$SHADEDIF
 70
70
  9
$TILEMODE
 70
1
  9
$MAXACTVP
 70
64
  9
$PINSBASE
 10
0.0
 20
0.0
 30
0.0
  9
$PLIMCHECK
 70
0
  9
$PEXTMIN
 10
1e+20
 20
1e+20
 30
1e+20
  9
$PEXTMAX
 10
-1e+20
 20
-1e+20
 30
-1e+20
  9
$PLIMMIN
 10
-0.0
 20
-0.0
  9
$PLIMMAX
 10
841.0
 20
594.0
  9
$UNITMODE
 70
0
  9
$VISRETAIN
 70
1
  9
$PLINEGEN
 70
0
  9
$PSLTSCALE
 70
1
  9
$TREEDEPTH
 70
3020
  9
$CMLSTYLE
  2
Standard
  9
$CMLJUST
 70
0
  9
$CMLSCALE
 40
20.0
  9
$PROXYGRAPHICS
 70
1
  9
$MEASUREMENT
 70
1
  9
$CELWEIGHT
370
-1
  9
$ENDCAPS
280
0
  9
$JOINSTYLE
280
0
  9
$LWDISPLAY
290
1
  9
$INSUNITS
 70
6
  9
$HYPERLINKBASE
  1

  9
$STYLESHEET
  1

  9
$XEDIT
290
1
  9
$CEPSNTYPE
380
0
  9
$PSTYLEMODE
290
1
  9
$FINGERPRINTGUID
  2
{856F949E-C395-4F13-B3CC-0C8A067A4F45}
  9
$VERSIONGUID
  2
{35D37007-37D1-4087-8862-24F3AC430FD0}
  9
$EXTNAMES
290
1
  9
$PSVPSCALE
 40
0.0
  9
$OLESTARTUP
290
0
  9
$SORTENTS
280
127
  9
$INDEXCTL
280
0
  9
$HIDETEXT
280
1
  9
$XCLIPFRAME
280
1
  9
$HALOGAP
280
0
  9
$OBSCOLOR
 70
257
  9
$OBSLTYPE
280
0
  9
$INTERSECTIONDISPLAY
280
0
  9
$INTERSECTIONCOLOR
 70
257
  9
$DIMASSOC
280
2
  9
$PROJECTNAME
  1

  9
$CAMERADISPLAY
290
0
  9
$LENSLENGTH
 40
50.0
  9
$CAMERAHEIGHT
 40
0.0
  9
$STEPSPERSEC
 40
24.0
  9
$STEPSIZE
 40
100.0
  9
$3DDWFPREC
 40
2.0
  9
$PSOLWIDTH
 40
0.005
  9
$PSOLHEIGHT
 40
0.08
  9
$LOFTANG1
 40
1.570796326795
  9
$LOFTANG2
 40
1.570796326795
  9
$LOFTMAG1
 40
0.0
  9
$LOFTMAG2
 40
0.0
  9
$LOFTPARAM
 70
7
  9
$LOFTNORMALS
280
1
  9
$LATITUDE
 40
37.795
  9
$LONGITUDE
 40
-122.394
  9
$NORTHDIRECTION
 40
0.0
  9
$TIMEZONE
 70
-8000
  9
$LIGHTGLYPHDISPLAY
280
1
  9
$TILEMODELIGHTSYNCH
280
1
  9
$CMATERIAL
347
20
  9
$SOLIDHIST
280
0
  9
$SHOWHIST
280
1
  9
$DWFFRAME
280
2
  9
$DGNFRAME
280
2
  9
$REALWORLDSCALE
290
1
  9
$INTERFERECOLOR
 62
256
  9
$CSHADOW
280
0
  9
$SHADOWPLANELOCATION
 40
0.0
  0
ENDSEC
  0
SECTION
  2
CLASSES
  0
CLASS
  1
ACDBDICTIONARYWDFLT
  2
AcDbDictionaryWithDefault
  3
ObjectDBX Classes
 90
0
 91
0
280
0
281
0
  0
CLASS
  1
SUN
  2
AcDbSun
  3
SCENEOE
 90
1153
 91
0
280
0
281
0
  0
CLASS
  1
VISUALSTYLE
  2
AcDbVisualStyle
  3
ObjectDBX Classes
 90
4095
 91
0
280
0
281
0
  0
CLASS
  1
MATERIAL
  2
AcDbMaterial
  3
ObjectDBX Classes
 90
1153
 91
0
280
0
281
0
  0
CLASS
  1
SCALE
  2
AcDbScale
  3
ObjectDBX Classes
 90
1153
 91
0
280
0
281
0
  0
CLASS
  1
TABLESTYLE
  2
AcDbTableStyle
  3
ObjectDBX Classes
 90
4095
 91
0
280
0
281
0
  0
CLASS
  1
MLEADERSTYLE
  2
AcDbMLeaderStyle
  3
ACDB_MLEADERSTYLE_CLASS
 90
4095
 91
0
280
0
281
0
  0
CLASS
  1
DICTIONARYVAR
  2
AcDbDictionaryVar
  3
ObjectDBX Classes
 90
0
 91
0
280
0
281
0
  0
CLASS
  1
CELLSTYLEMAP
  2
AcDbCellStyleMap
  3
ObjectDBX Classes
 90
1152
 91
0
280
0
281
0
  0
CLASS
  1
MENTALRAYRENDERSETTINGS
  2
AcDbMentalRayRenderSettings
  3
SCENEOE
 90
1024
 91
0
280
0
281
0
  0
CLASS
  1
ACDBDETAILVIEWSTYLE
  2
AcDbDetailViewStyle
  3
ObjectDBX Classes
 90
1025
 91
0
280
0
281
0
  0
CLASS
  1
ACDBSECTIONVIEWSTYLE
  2
AcDbSectionViewStyle
  3
ObjectDBX Classes
 90
1025
 91
0
280
0
281
0
  0
CLASS
  1
RASTERVARIABLES
  2
AcDbRasterVariables
  3
ISM
 90
0
 91
0
280
0
281
0
  0
CLASS
  1
ACDBPLACEHOLDER
  2
AcDbPlaceHolder
  3
ObjectDBX Classes
 90
0
 91
0
280
0
281
0
  0
CLASS
  1
LAYOUT
  2
AcDbLayout
  3
ObjectDBX Classes
 90
0
 91
0
280
0
281
0
  0
ENDSEC
  0
SECTION
  2
TABLES
  0
TABLE
  2
VPORT
  5
8
330
0
100
AcDbSymbolTable
 70
1
  0
VPORT
  5
23
330
8
100
AcDbSymbolTableRecord
100
AcDbViewportTableRecord
  2
*Active
 70
0
 10
0.0
 20
0.0
 11
1.0
 21
1.0
 12
0.0
 22
0.0
 13
0.0
 23
0.0
 14
0.5
 24
0.5
 15
0.5
 25
0.5
 16
0.0
 26
0.0
 36
1.0
 17
0.0
 27
0.0
 37
0.0
 40
1000.0
 41
1.34
 42
50.0
 43
0.0
 44
0.0
 50
0.0
 51
0.0
 71
0
 72
1000
 73
1
 74
3
 75
0
 76
0
 77
0
 78
0
281
0
 65
0
146
0.0
  0
ENDTAB
  0
TABLE
  2
LTYPE
  5
2
330
0
100
AcDbSymbolTable
 70
21
  0
LTYPE
  5
24
330
2
100
AcDbSymbolTableRecord
100
AcDbLinetypeTableRecord
  2
ByBlock
 70
0
  3

 72
65
 73
0
 40
0.0
  0
LTYPE
  5
25
330
2
100
AcDbSymbolTableRecord
100
AcDbLinetypeTableRecord
  2
ByLayer
 70
0
  3

 72
65
 73
0
 40
0.0
  0
LTYPE
  5
26
330
2
100
AcDbSymbolTableRecord
100
AcDbLinetypeTableRecord
  2
Continuous
 70
0
  3

 72
65
 73
0
 40
0.0
  0
LTYPE
  5
2F
330
2
100
AcDbSymbolTableRecord
100
AcDbLinetypeTableRecord
  2
CENTER
 70
0
  3
Center ____ _ ____ _ ____ _ ____ _ ____ _ ____
 72
65
 73
4
 40
5.08
 49
3.175
 74
0
 49
-0.635
 74
0
 49
0.635
 74
0
 49
-0.635
 74
0
  0
LTYPE
  5
30
330
2
100
AcDbSymbolTableRecord
100
AcDbLinetypeTableRecord
  2
CENTERX2
 70
0
  3
Center (2x) ________  __  ________  __  ________
 72
65
 73
4
 40
8.89
 49
6.35
 74
0
 49
-0.635
 74
0
 49
1.27
 74
0
 49
-0.635
 74
0
  0
LTYPE
  5
31
330
2
100
AcDbSymbolTableRecord
100
AcDbLinetypeTableRecord
  2
CENTER2
 70
0
  3
Center (.5x) ____ _ ____ _ ____ _ ____ _ ____
 72
65
 73
4
 40
2.54
 49
1.587
 74
0
 49
-0.318
 74
0
 49
0.318
 74
0
 49
-0.318
 74
0
  0
LTYPE
  5
32
330
2
100
AcDbSymbolTableRecord
100
AcDbLinetypeTableRecord
  2
DASHED
 70
0
  3
Dashed __ __ __ __ __ __ __ __ __ __ __ __ __ _
 72
65
 73
2
 40
1.524
 49
1.27
 74
0
 49
-0.254
 74
0
  0
LTYPE
  5
33
330
2
100
AcDbSymbolTableRecord
100
AcDbLinetypeTableRecord
  2
DASHEDX2
 70
0
  3
Dashed (2x) ____  ____  ____  ____  ____  ____
 72
65
 73
2
 40
3.048
 49
2.54
 74
0
 49
-0.508
 74
0
  0
LTYPE
  5
34
330
2
100
AcDbSymbolTableRecord
100
AcDbLinetypeTableRecord
  2
DASHED2
 70
0
  3
Dashed (.5x) _ _ _ _ _ _ _ _ _ _ _ _ _ _
 72
65
 73
2
 40
0.762
 49
0.635
 74
0
 49
-0.127
 74
0
  0
LTYPE
  5
35
330
2
100
AcDbSymbolTableRecord
100
AcDbLinetypeTableRecord
  2
PHANTOM
 70
0
  3
Phantom ______  __  __  ______  __  __  ______
 72
65
 73
6
 40
6.35
 49
3.175
 74
0
 49
-0.635
 74
0
 49
0.635
 74
0
 49
-0.635
 74
0
 49
0.635
 74
0
 49
-0.635
 74
0
  0
LTYPE
  5
36
330
2
100
AcDbSymbolTableRecord
100
AcDbLinetypeTableRecord
  2
PHANTOMX2
 70
0
  3
Phantom (2x)____________    ____    ____    ____________
 72
65
 73
6
 40
10.795
 49
6.35
 74
0
 49
-0.635
 74
0
 49
1.27
 74
0
 49
-0.635
 74
0
 49
1.27
 74
0
 49
-0.635
 74
0
  0
LTYPE
  5
37
330
2
100
AcDbSymbolTableRecord
100
AcDbLinetypeTableRecord
  2
PHANTOM2
 70
0
  3
Phantom (.5x) ___ _ _ ___ _ _ ___ _ _ ___ _ _ ___
 72
65
 73
6
 40
3.175
 49
1.587
 74
0
 49
-0.318
 74
0
 49
0.318
 74
0
 49
-0.318
 74
0
 49
0.318
 74
0
 49
-0.318
 74
0
  0
LTYPE
  5
38
330
2
100
AcDbSymbolTableRecord
100
AcDbLinetypeTableRecord
  2
DASHDOT
 70
0
  3
Dash dot __ . __ . __ . __ . __ . __ . __ . __
 72
65
 73
4
 40
3.556
 49
2.54
 74
0
 49
-0.508
 74
0
 49
0.0
 74
0
 49
-0.508
 74
0
  0
LTYPE
  5
39
330
2
100
AcDbSymbolTableRecord
100
AcDbLinetypeTableRecord
  2
DASHDOTX2
 70
0
  3
Dash dot (2x) ____  .  ____  .  ____  .  ____
 72
65
 73
4
 40
6.096
 49
5.08
 74
0
 49
-0.508
 74
0
 49
0.0
 74
0
 49
-0.508
 74
0
  0
LTYPE
  5
3A
330
2
100
AcDbSymbolTableRecord
100
AcDbLinetypeTableRecord
  2
DASHDOT2
 70
0
  3
Dash dot (.5x) _ . _ . _ . _ . _ . _ . _ . _
 72
65
 73
4
 40
1.778
 49
1.27
 74
0
 49
-0.254
 74
0
 49
0.0
 74
0
 49
-0.254
 74
0
  0
LTYPE
  5
3B
330
2
100
AcDbSymbolTableRecord
100
AcDbLinetypeTableRecord
  2
DOT
 70
0
  3
Dot .  .  .  .  .  .  .  .  .  .  .  .  .  .  .  .
 72
65
 73
2
 40
0.508
 49
0.0
 74
0
 49
-0.508
 74
0
  0
LTYPE
  5
3C
330
2
100
AcDbSymbolTableRecord
100
AcDbLinetypeTableRecord
  2
DOTX2
 70
0
  3
Dot (2x) .    .    .    .    .    .    .    . 
 72
65
 73
2
 40
1.016
 49
0.0
 74
0
 49
-1.016
 74
0
  0
LTYPE
  5
3D
330
2
100
AcDbSymbolTableRecord
100
AcDbLinetypeTableRecord
  2
DOT2
 70
0
  3
Dot (.5) . . . . . . . . . . . . . . . . . . . 
 72
65
 73
2
 40
0.254
 49
0.0
 74
0
 49
-0.254
 74
0
  0
LTYPE
  5
3E
330
2
100
AcDbSymbolTableRecord
100
AcDbLinetypeTableRecord
  2
DIVIDE
 70
0
  3
Divide __ . . __ . . __ . . __ . . __ . . __
 72
65
 73
6
 40
4.064
 49
2.54
 74
0
 49
-0.508
 74
0
 49
0.0
 74
0
 49
-0.508
 74
0
 49
0.0
 74
0
 49
-0.508
 74
0
  0
LTYPE
  5
3F
330
2
100
AcDbSymbolTableRecord
100
AcDbLinetypeTableRecord
  2
DIVIDEX2
 70
0
  3
Divide (2x) ____  . .  ____  . .  ____  . .  ____
 72
65
 73
6
 40
6.604
 49
5.08
 74
0
 49
-0.508
 74
0
 49
0.0
 74
0
 49
-0.508
 74
0
 49
0.0
 74
0
 49
-0.508
 74
0
  0
LTYPE
  5
40
330
2
100
AcDbSymbolTableRecord
100
AcDbLinetypeTableRecord
  2
DIVIDE2
 70
0
  3
Divide(.5x) _ . _ . _ . _ . _ . _ . _ . _
 72
65
 73
6
 40
2.032
 49
1.27
 74
0
 49
-0.254
 74
0
 49
0.0
 74
0
 49
-0.254
 74
0
 49
0.0
 74
0
 49
-0.254
 74
0
  0
ENDTAB
  0
TABLE
  2
LAYER
  5
1
330
0
100
AcDbSymbolTable
 70
50
  0
LAYER
  5
27
330
1
100
AcDbSymbolTableRecord
100
AcDbLayerTableRecord
  2
0
 70
0
 62
7
  6
Continuous
370
-3
390
13
347
21
  0
LAYER
  5
28
330
1
100
AcDbSymbolTableRecord
100
AcDbLayerTableRecord
  2
Defpoints
 70
0
 62
7
  6
Continuous
290
0
370
-3
390
13
347
21
  0
LAYER
  5
8B
330
1
100
AcDbSymbolTableRecord
100
AcDbLayerTableRecord
  2
A-MARCO
 70
0
 62
7
  6
Continuous
370
70
390
13
347
21
  0
LAYER
  5
8C
330
1
100
AcDbSymbolTableRecord
100
AcDbLayerTableRecord
  2
A-CAJETIN
 70
0
 62
7
  6
Continuous
370
35
390
13
347
21
  0
LAYER
  5
8D
330
1
100
AcDbSymbolTableRecord
100
AcDbLayerTableRecord
  2
A-CAJETIN-TXT
 70
0
 62
7
  6
Continuous
370
25
390
13
347
21
  0
LAYER
  5
8E
330
1
100
AcDbSymbolTableRecord
100
AcDbLayerTableRecord
  2
A-TITULOS
 70
0
 62
7
  6
Continuous
370
35
390
13
347
21
  0
LAYER
  5
8F
330
1
100
AcDbSymbolTableRecord
100
AcDbLayerTableRecord
  2
A-TEXTO
 70
0
 62
7
  6
Continuous
370
18
390
13
347
21
  0
LAYER
  5
90
330
1
100
AcDbSymbolTableRecord
100
AcDbLayerTableRecord
  2
A-TABLAS
 70
0
 62
7
  6
Continuous
370
25
390
13
347
21
  0
LAYER
  5
91
330
1
100
AcDbSymbolTableRecord
100
AcDbLayerTableRecord
  2
A-NOTAS
 70
0
 62
7
  6
Continuous
370
18
390
13
347
21
  0
LAYER
  5
92
330
1
100
AcDbSymbolTableRecord
100
AcDbLayerTableRecord
  2
A-ESCALA-GRAF
 70
0
 62
7
  6
Continuous
370
18
390
13
347
21
  0
LAYER
  5
93
330
1
100
AcDbSymbolTableRecord
100
AcDbLayerTableRecord
  2
A-NORTE
 70
0
 62
7
  6
Continuous
370
25
390
13
347
21
  0
LAYER
  5
94
330
1
100
AcDbSymbolTableRecord
100
AcDbLayerTableRecord
  2
A-IMAGEN-REF
 70
0
 62
7
  6
Continuous
370
13
390
13
347
21
  0
LAYER
  5
95
330
1
100
AcDbSymbolTableRecord
100
AcDbLayerTableRecord
  2
A-VIEWPORT
 70
0
 62
8
  6
Continuous
290
0
370
13
390
13
347
21
  0
LAYER
  5
96
330
1
100
AcDbSymbolTableRecord
100
AcDbLayerTableRecord
  2
A-PENDIENTE
 70
0
 62
1
  6
Continuous
370
25
390
13
347
21
  0
LAYER
  5
97
330
1
100
AcDbSymbolTableRecord
100
AcDbLayerTableRecord
  2
T-LINDERO
 70
0
 62
7
  6
Continuous
370
50
390
13
347
21
  0
LAYER
  5
98
330
1
100
AcDbSymbolTableRecord
100
AcDbLayerTableRecord
  2
T-VERTICE
 70
0
 62
7
  6
Continuous
370
25
390
13
347
21
  0
LAYER
  5
99
330
1
100
AcDbSymbolTableRecord
100
AcDbLayerTableRecord
  2
T-CALLE
 70
0
 62
8
  6
DASHED
370
18
390
13
347
21
  0
LAYER
  5
9A
330
1
100
AcDbSymbolTableRecord
100
AcDbLayerTableRecord
  2
T-TXT-200
 70
0
 62
7
  6
Continuous
370
18
390
13
347
21
  0
LAYER
  5
9B
330
1
100
AcDbSymbolTableRecord
100
AcDbLayerTableRecord
  2
T-COTA-200
 70
0
 62
7
  6
Continuous
370
18
390
13
347
21
  0
LAYER
  5
9C
330
1
100
AcDbSymbolTableRecord
100
AcDbLayerTableRecord
  2
T-TXT-100
 70
0
 62
7
  6
Continuous
370
18
390
13
347
21
  0
LAYER
  5
9D
330
1
100
AcDbSymbolTableRecord
100
AcDbLayerTableRecord
  2
T-COTA-100
 70
0
 62
7
  6
Continuous
370
18
390
13
347
21
  0
LAYER
  5
9E
330
1
100
AcDbSymbolTableRecord
100
AcDbLayerTableRecord
  2
A-HUELLA
 70
0
 62
7
  6
Continuous
370
35
390
13
347
21
  0
LAYER
  5
9F
330
1
100
AcDbSymbolTableRecord
100
AcDbLayerTableRecord
  2
A-HUELLA-TRAMA
 70
0
 62
8
  6
Continuous
370
9
390
13
347
21
  0
LAYER
  5
A0
330
1
100
AcDbSymbolTableRecord
100
AcDbLayerTableRecord
  2
A-PATIO
 70
0
 62
7
  6
Continuous
370
25
390
13
347
21
  0
LAYER
  5
A1
330
1
100
AcDbSymbolTableRecord
100
AcDbLayerTableRecord
  2
A-RETIRO
 70
0
 62
8
  6
DASHED2
370
18
390
13
347
21
  0
LAYER
  5
A2
330
1
100
AcDbSymbolTableRecord
100
AcDbLayerTableRecord
  2
A-MURO
 70
0
 62
7
  6
Continuous
370
50
390
13
347
21
  0
LAYER
  5
A3
330
1
100
AcDbSymbolTableRecord
100
AcDbLayerTableRecord
  2
A-MURO-TRAMA
 70
0
 62
8
  6
Continuous
370
9
390
13
347
21
  0
LAYER
  5
A4
330
1
100
AcDbSymbolTableRecord
100
AcDbLayerTableRecord
  2
A-PUERTA
 70
0
 62
7
  6
Continuous
370
25
390
13
347
21
  0
LAYER
  5
A5
330
1
100
AcDbSymbolTableRecord
100
AcDbLayerTableRecord
  2
A-VENTANA
 70
0
 62
7
  6
Continuous
370
25
390
13
347
21
  0
LAYER
  5
A6
330
1
100
AcDbSymbolTableRecord
100
AcDbLayerTableRecord
  2
A-ESCALERA
 70
0
 62
7
  6
Continuous
370
25
390
13
347
21
  0
LAYER
  5
A7
330
1
100
AcDbSymbolTableRecord
100
AcDbLayerTableRecord
  2
A-VEHICULO
 70
0
 62
8
  6
Continuous
370
18
390
13
347
21
  0
LAYER
  5
A8
330
1
100
AcDbSymbolTableRecord
100
AcDbLayerTableRecord
  2
A-MOBILIARIO
 70
0
 62
8
  6
Continuous
370
18
390
13
347
21
  0
LAYER
  5
A9
330
1
100
AcDbSymbolTableRecord
100
AcDbLayerTableRecord
  2
A-DEMARCACION
 70
0
 62
8
  6
DASHED
370
18
390
13
347
21
  0
LAYER
  5
AA
330
1
100
AcDbSymbolTableRecord
100
AcDbLayerTableRecord
  2
A-PROYECCION
 70
0
 62
8
  6
DASHED
370
18
390
13
347
21
  0
LAYER
  5
AB
330
1
100
AcDbSymbolTableRecord
100
AcDbLayerTableRecord
  2
A-EJES
 70
0
 62
8
  6
CENTER
370
13
390
13
347
21
  0
LAYER
  5
AC
330
1
100
AcDbSymbolTableRecord
100
AcDbLayerTableRecord
  2
A-EJES-TXT
 70
0
 62
7
  6
Continuous
370
25
390
13
347
21
  0
LAYER
  5
AD
330
1
100
AcDbSymbolTableRecord
100
AcDbLayerTableRecord
  2
A-COTA-50
 70
0
 62
7
  6
Continuous
370
18
390
13
347
21
  0
LAYER
  5
AE
330
1
100
AcDbSymbolTableRecord
100
AcDbLayerTableRecord
  2
A-TXT-50
 70
0
 62
7
  6
Continuous
370
18
390
13
347
21
  0
LAYER
  5
AF
330
1
100
AcDbSymbolTableRecord
100
AcDbLayerTableRecord
  2
A-ESPACIOS
 70
0
 62
7
  6
Continuous
370
25
390
13
347
21
  0
LAYER
  5
B0
330
1
100
AcDbSymbolTableRecord
100
AcDbLayerTableRecord
  2
A-NIVELES
 70
0
 62
7
  6
Continuous
370
18
390
13
347
21
  0
LAYER
  5
B1
330
1
100
AcDbSymbolTableRecord
100
AcDbLayerTableRecord
  2
A-CORTES
 70
0
 62
7
  6
Continuous
370
35
390
13
347
21
  0
LAYER
  5
B2
330
1
100
AcDbSymbolTableRecord
100
AcDbLayerTableRecord
  2
A-JARDIN
 70
0
 62
8
  6
Continuous
370
9
390
13
347
21
  0
LAYER
  5
B3
330
1
100
AcDbSymbolTableRecord
100
AcDbLayerTableRecord
  2
E-COLUMNA
 70
0
 62
7
  6
Continuous
370
35
390
13
347
21
  0
LAYER
  5
B7
330
1
100
AcDbSymbolTableRecord
100
AcDbLayerTableRecord
  2
E-DET
 70
0
 62
7
  6
Continuous
370
50
390
13
347
21
  0
LAYER
  5
B8
330
1
100
AcDbSymbolTableRecord
100
AcDbLayerTableRecord
  2
E-REF
 70
0
 62
7
  6
Continuous
370
35
390
13
347
21
  0
LAYER
  5
B9
330
1
100
AcDbSymbolTableRecord
100
AcDbLayerTableRecord
  2
E-ACERO
 70
0
 62
7
  6
Continuous
370
50
390
13
347
21
  0
LAYER
  5
BA
330
1
100
AcDbSymbolTableRecord
100
AcDbLayerTableRecord
  2
E-TRAMA
 70
0
 62
8
  6
Continuous
370
9
390
13
347
21
  0
LAYER
  5
BB
330
1
100
AcDbSymbolTableRecord
100
AcDbLayerTableRecord
  2
E-TXT
 70
0
 62
7
  6
Continuous
370
18
390
13
347
21
  0
LAYER
  5
BC
330
1
100
AcDbSymbolTableRecord
100
AcDbLayerTableRecord
  2
E-COTA
 70
0
 62
7
  6
Continuous
370
18
390
13
347
21
  0
LAYER
  5
BD
330
1
100
AcDbSymbolTableRecord
100
AcDbLayerTableRecord
  2
E-TERRENO
 70
0
 62
7
  6
Continuous
370
35
390
13
347
21
  0
ENDTAB
  0
TABLE
  2
STYLE
  5
5
330
0
100
AcDbSymbolTable
 70
27
  0
STYLE
  5
29
330
5
100
AcDbSymbolTableRecord
100
AcDbTextStyleTableRecord
  2
Standard
 70
0
 40
0.0
 41
1.0
 50
0.0
 71
0
 42
2.5
  3
txt
  4

  0
STYLE
  5
41
330
5
100
AcDbSymbolTableRecord
100
AcDbTextStyleTableRecord
  2
OpenSans-Light
 70
0
 40
0.0
 41
1.0
 50
0.0
 71
0
 42
2.5
  3
OpenSans-Light.ttf
  4

  0
STYLE
  5
42
330
5
100
AcDbSymbolTableRecord
100
AcDbTextStyleTableRecord
  2
OpenSans-Light-Italic
 70
0
 40
0.0
 41
1.0
 50
0.0
 71
0
 42
2.5
  3
OpenSans-LightItalic.ttf
  4

  0
STYLE
  5
43
330
5
100
AcDbSymbolTableRecord
100
AcDbTextStyleTableRecord
  2
OpenSans
 70
0
 40
0.0
 41
1.0
 50
0.0
 71
0
 42
2.5
  3
OpenSans-Regular.ttf
  4

  0
STYLE
  5
44
330
5
100
AcDbSymbolTableRecord
100
AcDbTextStyleTableRecord
  2
OpenSans-Italic
 70
0
 40
0.0
 41
1.0
 50
0.0
 71
0
 42
2.5
  3
OpenSans-Italic.ttf
  4

  0
STYLE
  5
45
330
5
100
AcDbSymbolTableRecord
100
AcDbTextStyleTableRecord
  2
OpenSans-SemiBold
 70
0
 40
0.0
 41
1.0
 50
0.0
 71
0
 42
2.5
  3
OpenSans-SemiBold.ttf
  4

  0
STYLE
  5
46
330
5
100
AcDbSymbolTableRecord
100
AcDbTextStyleTableRecord
  2
OpenSans-SemiBoldItalic
 70
0
 40
0.0
 41
1.0
 50
0.0
 71
0
 42
2.5
  3
OpenSans-SemiBoldItalic.ttf
  4

  0
STYLE
  5
47
330
5
100
AcDbSymbolTableRecord
100
AcDbTextStyleTableRecord
  2
OpenSans-Bold
 70
0
 40
0.0
 41
1.0
 50
0.0
 71
0
 42
2.5
  3
OpenSans-Bold.ttf
  4

  0
STYLE
  5
48
330
5
100
AcDbSymbolTableRecord
100
AcDbTextStyleTableRecord
  2
OpenSans-BoldItalic
 70
0
 40
0.0
 41
1.0
 50
0.0
 71
0
 42
2.5
  3
OpenSans-BoldItalic.ttf
  4

  0
STYLE
  5
49
330
5
100
AcDbSymbolTableRecord
100
AcDbTextStyleTableRecord
  2
OpenSans-ExtraBold
 70
0
 40
0.0
 41
1.0
 50
0.0
 71
0
 42
2.5
  3
OpenSans-ExtraBold.ttf
  4

  0
STYLE
  5
4A
330
5
100
AcDbSymbolTableRecord
100
AcDbTextStyleTableRecord
  2
OpenSans-ExtraBoldItalic
 70
0
 40
0.0
 41
1.0
 50
0.0
 71
0
 42
2.5
  3
OpenSans-ExtraBoldItalic.ttf
  4

  0
STYLE
  5
4B
330
5
100
AcDbSymbolTableRecord
100
AcDbTextStyleTableRecord
  2
OpenSansCondensed-Bold
 70
0
 40
0.0
 41
1.0
 50
0.0
 71
0
 42
2.5
  3
OpenSansCondensed-Bold.ttf
  4

  0
STYLE
  5
4C
330
5
100
AcDbSymbolTableRecord
100
AcDbTextStyleTableRecord
  2
OpenSansCondensed-Light
 70
0
 40
0.0
 41
1.0
 50
0.0
 71
0
 42
2.5
  3
OpenSansCondensed-Light.ttf
  4

  0
STYLE
  5
4D
330
5
100
AcDbSymbolTableRecord
100
AcDbTextStyleTableRecord
  2
OpenSansCondensed-Italic
 70
0
 40
0.0
 41
1.0
 50
0.0
 71
0
 42
2.5
  3
OpenSansCondensed-LightItalic.ttf
  4

  0
STYLE
  5
4E
330
5
100
AcDbSymbolTableRecord
100
AcDbTextStyleTableRecord
  2
LiberationSans
 70
0
 40
0.0
 41
1.0
 50
0.0
 71
0
 42
2.5
  3
LiberationSans-Regular.ttf
  4

  0
STYLE
  5
4F
330
5
100
AcDbSymbolTableRecord
100
AcDbTextStyleTableRecord
  2
LiberationSans-Bold
 70
0
 40
0.0
 41
1.0
 50
0.0
 71
0
 42
2.5
  3
LiberationSans-Bold.ttf
  4

  0
STYLE
  5
50
330
5
100
AcDbSymbolTableRecord
100
AcDbTextStyleTableRecord
  2
LiberationSans-BoldItalic
 70
0
 40
0.0
 41
1.0
 50
0.0
 71
0
 42
2.5
  3
LiberationSans-BoldItalic.ttf
  4

  0
STYLE
  5
51
330
5
100
AcDbSymbolTableRecord
100
AcDbTextStyleTableRecord
  2
LiberationSans-Italic
 70
0
 40
0.0
 41
1.0
 50
0.0
 71
0
 42
2.5
  3
LiberationSans-Italic.ttf
  4

  0
STYLE
  5
52
330
5
100
AcDbSymbolTableRecord
100
AcDbTextStyleTableRecord
  2
LiberationSerif
 70
0
 40
0.0
 41
1.0
 50
0.0
 71
0
 42
2.5
  3
LiberationSerif-Regular.ttf
  4

  0
STYLE
  5
53
330
5
100
AcDbSymbolTableRecord
100
AcDbTextStyleTableRecord
  2
LiberationSerif-Bold
 70
0
 40
0.0
 41
1.0
 50
0.0
 71
0
 42
2.5
  3
LiberationSerif-Bold.ttf
  4

  0
STYLE
  5
54
330
5
100
AcDbSymbolTableRecord
100
AcDbTextStyleTableRecord
  2
LiberationSerif-BoldItalic
 70
0
 40
0.0
 41
1.0
 50
0.0
 71
0
 42
2.5
  3
LiberationSerif-BoldItalic.ttf
  4

  0
STYLE
  5
55
330
5
100
AcDbSymbolTableRecord
100
AcDbTextStyleTableRecord
  2
LiberationSerif-Italic
 70
0
 40
0.0
 41
1.0
 50
0.0
 71
0
 42
2.5
  3
LiberationSerif-Italic.ttf
  4

  0
STYLE
  5
56
330
5
100
AcDbSymbolTableRecord
100
AcDbTextStyleTableRecord
  2
LiberationMono
 70
0
 40
0.0
 41
1.0
 50
0.0
 71
0
 42
2.5
  3
LiberationMono-Regular.ttf
  4

  0
STYLE
  5
57
330
5
100
AcDbSymbolTableRecord
100
AcDbTextStyleTableRecord
  2
LiberationMono-Bold
 70
0
 40
0.0
 41
1.0
 50
0.0
 71
0
 42
2.5
  3
LiberationMono-Bold.ttf
  4

  0
STYLE
  5
58
330
5
100
AcDbSymbolTableRecord
100
AcDbTextStyleTableRecord
  2
LiberationMono-BoldItalic
 70
0
 40
0.0
 41
1.0
 50
0.0
 71
0
 42
2.5
  3
LiberationMono-BoldItalic.ttf
  4

  0
STYLE
  5
59
330
5
100
AcDbSymbolTableRecord
100
AcDbTextStyleTableRecord
  2
LiberationMono-Italic
 70
0
 40
0.0
 41
1.0
 50
0.0
 71
0
 42
2.5
  3
LiberationMono-Italic.ttf
  4

  0
STYLE
  5
8A
330
5
100
AcDbSymbolTableRecord
100
AcDbTextStyleTableRecord
  2
ARIAL
 70
0
 40
0.0
 41
1.0
 50
0.0
 71
0
 42
2.5
  3
arial.ttf
  4

  0
ENDTAB
  0
TABLE
  2
VIEW
  5
7
330
0
100
AcDbSymbolTable
 70
0
  0
ENDTAB
  0
TABLE
  2
UCS
  5
6
330
0
100
AcDbSymbolTable
 70
0
  0
ENDTAB
  0
TABLE
  2
APPID
  5
3
330
0
100
AcDbSymbolTable
 70
3
  0
APPID
  5
2A
330
3
100
AcDbSymbolTableRecord
100
AcDbRegAppTableRecord
  2
ACAD
 70
0
  0
APPID
  5
333
330
3
100
AcDbSymbolTableRecord
100
AcDbRegAppTableRecord
  2
HATCHBACKGROUNDCOLOR
 70
0
  0
APPID
  5
334
330
3
100
AcDbSymbolTableRecord
100
AcDbRegAppTableRecord
  2
EZDXF
 70
0
  0
ENDTAB
  0
TABLE
  2
DIMSTYLE
  5
4
330
0
100
AcDbSymbolTable
 70
18
100
AcDbDimStyleTable
  0
DIMSTYLE
105
2B
330
4
100
AcDbSymbolTableRecord
100
AcDbDimStyleTableRecord
  2
Standard
 70
0
 40
1.0
 41
2.5
 42
0.625
 43
3.75
 44
1.25
 45
0.0
 46
0.0
 47
0.0
 48
0.0
 49
2.5
140
2.5
141
2.5
142
0.0
143
0.03937007874
144
1.0
145
0.0
146
1.0
147
0.625
148
0.0
 69
0
 70
0
 71
0
 72
0
 73
0
 74
0
 75
0
 76
0
 77
1
 78
8
 79
3
170
0
171
3
172
1
173
0
174
0
175
0
176
0
177
0
178
0
179
2
271
2
272
2
273
2
274
3
275
0
276
0
277
2
278
44
279
0
280
0
281
0
282
0
283
0
284
8
285
0
286
0
288
0
289
3
290
0
371
-2
372
-2
  0
DIMSTYLE
105
73
330
4
100
AcDbSymbolTableRecord
100
AcDbDimStyleTableRecord
  2
EZDXF
 70
0
 40
1.0
 41
0.175
 42
0.125
 43
3.75
 44
0.375
 45
0.0
 46
0.0
 47
0.0
 48
0.0
 49
2.5
140
0.25
141
2.5
142
0.0
143
0.03937007874
144
100.0
145
0.0
146
0.5
147
0.1
148
0.0
 69
0
 70
0
 71
0
 72
0
 73
0
 74
0
 75
0
 76
0
 77
1
 78
12
 79
3
170
0
171
3
172
1
173
0
174
0
175
0
176
0
177
0
178
0
179
2
271
2
272
2
273
2
274
3
275
0
276
0
277
2
278
46
279
2
280
0
281
0
282
0
283
0
284
8
285
0
286
0
288
1
289
3
290
0
340
4C
342
74
371
-2
372
-2
  0
DIMSTYLE
105
7C
330
4
100
AcDbSymbolTableRecord
100
AcDbDimStyleTableRecord
  2
EZ_M_100_H25_CM
 70
0
 40
1.0
 41
0.25
 42
0.125
 43
3.75
 44
0.375
 45
0.0
 46
0.0
 47
0.0
 48
0.0
 49
2.5
140
0.25
141
2.5
142
0.125
143
0.03937007874
144
100.0
145
0.0
146
0.5
147
0.1
148
0.0
 69
0
 70
0
 71
0
 72
0
 73
0
 74
0
 75
0
 76
0
 77
1
 78
12
 79
3
170
0
171
3
172
1
173
0
174
0
175
0
176
0
177
0
178
0
179
2
271
2
272
2
273
2
274
3
275
0
276
0
277
2
278
46
279
2
280
0
281
0
282
0
283
0
284
8
285
0
286
0
288
1
289
3
290
0
340
4C
371
-2
372
-2
  0
DIMSTYLE
105
7D
330
4
100
AcDbSymbolTableRecord
100
AcDbDimStyleTableRecord
  2
EZ_M_50_H25_CM
 70
0
 40
1.0
 41
0.125
 42
0.0625
 43
3.75
 44
0.1875
 45
0.0
 46
0.0
 47
0.0
 48
0.0
 49
2.5
140
0.125
141
2.5
142
0.0625
143
0.03937007874
144
100.0
145
0.0
146
0.5
147
0.05
148
0.0
 69
0
 70
0
 71
0
 72
0
 73
0
 74
0
 75
0
 76
0
 77
1
 78
12
 79
3
170
0
171
3
172
1
173
0
174
0
175
0
176
0
177
0
178
0
179
2
271
2
272
2
273
2
274
3
275
0
276
0
277
2
278
46
279
2
280
0
281
0
282
0
283
0
284
8
285
0
286
0
288
1
289
3
290
0
340
4C
371
-2
372
-2
  0
DIMSTYLE
105
7E
330
4
100
AcDbSymbolTableRecord
100
AcDbDimStyleTableRecord
  2
EZ_M_25_H25_CM
 70
0
 40
1.0
 41
0.0625
 42
0.03125
 43
3.75
 44
0.09375
 45
0.0
 46
0.0
 47
0.0
 48
0.0
 49
2.5
140
0.0625
141
2.5
142
0.03125
143
0.03937007874
144
100.0
145
0.0
146
0.5
147
0.025
148
0.0
 69
0
 70
0
 71
0
 72
0
 73
0
 74
0
 75
0
 76
0
 77
1
 78
12
 79
3
170
0
171
3
172
1
173
0
174
0
175
0
176
0
177
0
178
0
179
2
271
2
272
2
273
2
274
3
275
0
276
0
277
2
278
46
279
2
280
0
281
0
282
0
283
0
284
8
285
0
286
0
288
1
289
3
290
0
340
4C
371
-2
372
-2
  0
DIMSTYLE
105
7F
330
4
100
AcDbSymbolTableRecord
100
AcDbDimStyleTableRecord
  2
EZ_M_20_H25_CM
 70
0
 40
1.0
 41
0.05
 42
0.025
 43
3.75
 44
0.07500000000000001
 45
0.0
 46
0.0
 47
0.0
 48
0.0
 49
2.5
140
0.05
141
2.5
142
0.025
143
0.03937007874
144
100.0
145
0.0
146
0.5
147
0.020000000000000004
148
0.0
 69
0
 70
0
 71
0
 72
0
 73
0
 74
0
 75
0
 76
0
 77
1
 78
12
 79
3
170
0
171
3
172
1
173
0
174
0
175
0
176
0
177
0
178
0
179
2
271
2
272
2
273
2
274
3
275
0
276
0
277
2
278
46
279
2
280
0
281
0
282
0
283
0
284
8
285
0
286
0
288
1
289
3
290
0
340
4C
371
-2
372
-2
  0
DIMSTYLE
105
80
330
4
100
AcDbSymbolTableRecord
100
AcDbDimStyleTableRecord
  2
EZ_M_10_H25_CM
 70
0
 40
1.0
 41
0.025
 42
0.0125
 43
3.75
 44
0.037500000000000006
 45
0.0
 46
0.0
 47
0.0
 48
0.0
 49
2.5
140
0.025
141
2.5
142
0.0125
143
0.03937007874
144
100.0
145
0.0
146
0.5
147
0.010000000000000002
148
0.0
 69
0
 70
0
 71
0
 72
0
 73
0
 74
0
 75
0
 76
0
 77
1
 78
12
 79
3
170
0
171
3
172
1
173
0
174
0
175
0
176
0
177
0
178
0
179
2
271
2
272
2
273
2
274
3
275
0
276
0
277
2
278
46
279
2
280
0
281
0
282
0
283
0
284
8
285
0
286
0
288
1
289
3
290
0
340
4C
371
-2
372
-2
  0
DIMSTYLE
105
81
330
4
100
AcDbSymbolTableRecord
100
AcDbDimStyleTableRecord
  2
EZ_M_5_H25_CM
 70
0
 40
1.0
 41
0.0125
 42
0.00625
 43
3.75
 44
0.018750000000000003
 45
0.0
 46
0.0
 47
0.0
 48
0.0
 49
2.5
140
0.0125
141
2.5
142
0.00625
143
0.03937007874
144
100.0
145
0.0
146
0.5
147
0.005000000000000001
148
0.0
 69
0
 70
0
 71
0
 72
0
 73
0
 74
0
 75
0
 76
0
 77
1
 78
12
 79
3
170
0
171
3
172
1
173
0
174
0
175
0
176
0
177
0
178
0
179
2
271
2
272
2
273
2
274
3
275
0
276
0
277
2
278
46
279
2
280
0
281
0
282
0
283
0
284
8
285
0
286
0
288
1
289
3
290
0
340
4C
371
-2
372
-2
  0
DIMSTYLE
105
82
330
4
100
AcDbSymbolTableRecord
100
AcDbDimStyleTableRecord
  2
EZ_M_1_H25_CM
 70
0
 40
1.0
 41
0.0025
 42
0.00125
 43
3.75
 44
0.00375
 45
0.0
 46
0.0
 47
0.0
 48
0.0
 49
2.5
140
0.0025
141
2.5
142
0.00125
143
0.03937007874
144
100.0
145
0.0
146
0.5
147
0.001
148
0.0
 69
0
 70
0
 71
0
 72
0
 73
0
 74
0
 75
0
 76
0
 77
1
 78
12
 79
3
170
0
171
3
172
1
173
0
174
0
175
0
176
0
177
0
178
0
179
2
271
2
272
2
273
2
274
3
275
0
276
0
277
2
278
46
279
2
280
0
281
0
282
0
283
0
284
8
285
0
286
0
288
1
289
3
290
0
340
4C
371
-2
372
-2
  0
DIMSTYLE
105
83
330
4
100
AcDbSymbolTableRecord
100
AcDbDimStyleTableRecord
  2
EZ_RADIUS
 70
0
 40
1.0
 41
0.25
 42
0.125
 43
3.75
 44
0.375
 45
0.0
 46
0.0
 47
0.0
 48
0.0
 49
2.5
140
0.25
141
0.0
142
0.0
143
0.03937007874
144
100.0
145
0.0
146
0.5
147
0.1
148
0.0
 69
0
 70
0
 71
0
 72
0
 73
0
 74
0
 75
0
 76
0
 77
1
 78
12
 79
3
170
0
171
3
172
0
173
0
174
0
175
0
176
0
177
0
178
0
179
2
271
2
272
2
273
2
274
3
275
0
276
0
277
2
278
46
279
1
280
0
281
0
282
0
283
0
284
8
285
0
286
0
288
1
289
3
290
0
340
4C
342
84
371
-2
372
-2
  0
DIMSTYLE
105
88
330
4
100
AcDbSymbolTableRecord
100
AcDbDimStyleTableRecord
  2
EZ_RADIUS_INSIDE
 70
0
 40
1.0
 41
0.25
 42
0.125
 43
3.75
 44
0.375
 45
0.0
 46
0.0
 47
0.0
 48
0.0
 49
2.5
140
0.25
141
0.0
142
0.0
143
0.03937007874
144
100.0
145
0.0
146
0.5
147
0.1
148
0.0
 69
0
 70
0
 71
0
 72
0
 73
0
 74
0
 75
0
 76
0
 77
0
 78
12
 79
3
170
0
171
3
172
0
173
0
174
1
175
0
176
0
177
0
178
0
179
2
271
2
272
2
273
2
274
3
275
0
276
0
277
2
278
46
279
0
280
0
281
0
282
0
283
0
284
8
285
0
286
0
288
1
289
0
290
0
340
4C
342
84
371
-2
372
-2
  0
DIMSTYLE
105
89
330
4
100
AcDbSymbolTableRecord
100
AcDbDimStyleTableRecord
  2
EZ_CURVED
 70
0
 40
1.0
 41
0.25
 42
0.125
 43
3.75
 44
0.375
 45
0.0
 46
0.0
 47
0.0
 48
0.0
 49
2.5
140
0.25
141
2.5
142
0.0
143
0.03937007874
144
100.0
145
0.0
146
0.5
147
0.1
148
0.0
 69
0
 70
0
 71
0
 72
0
 73
0
 74
0
 75
0
 76
0
 77
1
 78
12
 79
2
 90
2
170
0
171
3
172
1
173
0
174
0
175
0
176
0
177
0
178
0
179
2
271
2
272
2
273
2
274
3
275
0
276
0
277
2
278
46
279
2
280
0
281
0
282
0
283
0
284
8
285
0
286
0
288
1
289
3
290
0
340
4C
371
-2
372
-2
  0
DIMSTYLE
105
B4
330
4
100
AcDbSymbolTableRecord
100
AcDbDimStyleTableRecord
  2
COTA-50
 70
0
 40
1.0
 41
0.06
 42
0.05
 43
3.75
 44
0.05
 45
0.0
 46
0.05
 47
0.0
 48
0.0
 49
2.5
140
0.11000000000000001
141
2.5
142
0.06
143
0.03937007874
144
1.0
145
0.0
146
1.0
147
0.04000000000000001
148
0.0
 69
0
 70
0
 71
0
 72
0
 73
0
 74
0
 75
0
 76
0
 77
1
 78
0
 79
3
170
0
171
3
172
1
173
0
174
0
175
0
176
7
177
7
178
7
179
2
271
2
272
2
273
2
274
3
275
0
276
0
277
2
278
46
279
0
280
0
281
0
282
0
283
0
284
8
285
0
286
0
288
0
289
3
290
0
340
8A
371
18
372
13
  0
DIMSTYLE
105
B5
330
4
100
AcDbSymbolTableRecord
100
AcDbDimStyleTableRecord
  2
COTA-100
 70
0
 40
1.0
 41
0.12
 42
0.1
 43
3.75
 44
0.1
 45
0.0
 46
0.1
 47
0.0
 48
0.0
 49
2.5
140
0.22000000000000003
141
2.5
142
0.12
143
0.03937007874
144
1.0
145
0.0
146
1.0
147
0.08000000000000002
148
0.0
 69
0
 70
0
 71
0
 72
0
 73
0
 74
0
 75
0
 76
0
 77
1
 78
0
 79
3
170
0
171
3
172
1
173
0
174
0
175
0
176
7
177
7
178
7
179
2
271
2
272
2
273
2
274
3
275
0
276
0
277
2
278
46
279
0
280
0
281
0
282
0
283
0
284
8
285
0
286
0
288
0
289
3
290
0
340
8A
371
18
372
13
  0
DIMSTYLE
105
B6
330
4
100
AcDbSymbolTableRecord
100
AcDbDimStyleTableRecord
  2
COTA-200
 70
0
 40
1.0
 41
0.24
 42
0.2
 43
3.75
 44
0.2
 45
0.0
 46
0.2
 47
0.0
 48
0.0
 49
2.5
140
0.44000000000000006
141
2.5
142
0.24
143
0.03937007874
144
1.0
145
0.0
146
1.0
147
0.16000000000000003
148
0.0
 69
0
 70
0
 71
0
 72
0
 73
0
 74
0
 75
0
 76
0
 77
1
 78
0
 79
3
170
0
171
3
172
1
173
0
174
0
175
0
176
7
177
7
178
7
179
2
271
2
272
2
273
2
274
3
275
0
276
0
277
2
278
46
279
0
280
0
281
0
282
0
283
0
284
8
285
0
286
0
288
0
289
3
290
0
340
8A
371
18
372
13
  0
DIMSTYLE
105
BE
330
4
100
AcDbSymbolTableRecord
100
AcDbDimStyleTableRecord
  2
COTA-5
 70
0
 40
1.0
 41
0.006
 42
0.005
 43
3.75
 44
0.005
 45
0.0
 46
0.005
 47
0.0
 48
0.0
 49
2.5
140
0.011000000000000001
141
2.5
142
0.006
143
0.03937007874
144
1.0
145
0.0
146
1.0
147
0.004
148
0.0
 69
0
 70
0
 71
0
 72
0
 73
0
 74
0
 75
0
 76
0
 77
1
 78
0
 79
3
170
0
171
3
172
1
173
0
174
0
175
0
176
7
177
7
178
7
179
2
271
2
272
2
273
2
274
3
275
0
276
0
277
2
278
46
279
0
280
0
281
0
282
0
283
0
284
8
285
0
286
0
288
0
289
3
290
0
340
8A
371
18
372
13
  0
DIMSTYLE
105
BF
330
4
100
AcDbSymbolTableRecord
100
AcDbDimStyleTableRecord
  2
COTA-10
 70
0
 40
1.0
 41
0.012
 42
0.01
 43
3.75
 44
0.01
 45
0.0
 46
0.01
 47
0.0
 48
0.0
 49
2.5
140
0.022000000000000002
141
2.5
142
0.012
143
0.03937007874
144
1.0
145
0.0
146
1.0
147
0.008
148
0.0
 69
0
 70
0
 71
0
 72
0
 73
0
 74
0
 75
0
 76
0
 77
1
 78
0
 79
3
170
0
171
3
172
1
173
0
174
0
175
0
176
7
177
7
178
7
179
2
271
2
272
2
273
2
274
3
275
0
276
0
277
2
278
46
279
0
280
0
281
0
282
0
283
0
284
8
285
0
286
0
288
0
289
3
290
0
340
8A
371
18
372
13
  0
DIMSTYLE
105
C0
330
4
100
AcDbSymbolTableRecord
100
AcDbDimStyleTableRecord
  2
COTA-15
 70
0
 40
1.0
 41
0.018
 42
0.015
 43
3.75
 44
0.015
 45
0.0
 46
0.015
 47
0.0
 48
0.0
 49
2.5
140
0.033
141
2.5
142
0.018
143
0.03937007874
144
1.0
145
0.0
146
1.0
147
0.012
148
0.0
 69
0
 70
0
 71
0
 72
0
 73
0
 74
0
 75
0
 76
0
 77
1
 78
0
 79
3
170
0
171
3
172
1
173
0
174
0
175
0
176
7
177
7
178
7
179
2
271
2
272
2
273
2
274
3
275
0
276
0
277
2
278
46
279
0
280
0
281
0
282
0
283
0
284
8
285
0
286
0
288
0
289
3
290
0
340
8A
371
18
372
13
  0
ENDTAB
  0
TABLE
  2
BLOCK_RECORD
  5
9
330
0
100
AcDbSymbolTable
 70
27
  0
BLOCK_RECORD
  5
17
330
9
100
AcDbSymbolTableRecord
100
AcDbBlockTableRecord
  2
*Model_Space
340
1A
 70
0
280
1
281
0
  0
BLOCK_RECORD
  5
74
330
9
100
AcDbSymbolTableRecord
100
AcDbBlockTableRecord
  2
_ARCHTICK
340
0
 70
0
280
1
281
0
  0
BLOCK_RECORD
  5
78
330
9
100
AcDbSymbolTableRecord
100
AcDbBlockTableRecord
  2
_CLOSEDFILLED
340
0
 70
0
280
1
281
0
  0
BLOCK_RECORD
  5
84
330
9
100
AcDbSymbolTableRecord
100
AcDbBlockTableRecord
  2
_CLOSEDBLANK
340
0
 70
0
280
1
281
0
  0
BLOCK_RECORD
  5
EB
330
9
100
AcDbSymbolTableRecord
100
AcDbBlockTableRecord
  2
*D1
340
0
 70
0
280
1
281
0
  0
BLOCK_RECORD
  5
F0
330
9
100
AcDbSymbolTableRecord
100
AcDbBlockTableRecord
  2
_OBLIQUE
340
0
 70
0
280
1
281
0
  0
BLOCK_RECORD
  5
FE
330
9
100
AcDbSymbolTableRecord
100
AcDbBlockTableRecord
  2
*D2
340
0
 70
0
280
1
281
0
  0
BLOCK_RECORD
  5
10D
330
9
100
AcDbSymbolTableRecord
100
AcDbBlockTableRecord
  2
*D3
340
0
 70
0
280
1
281
0
  0
BLOCK_RECORD
  5
11C
330
9
100
AcDbSymbolTableRecord
100
AcDbBlockTableRecord
  2
*D4
340
0
 70
0
280
1
281
0
  0
BLOCK_RECORD
  5
12B
330
9
100
AcDbSymbolTableRecord
100
AcDbBlockTableRecord
  2
*D5
340
0
 70
0
280
1
281
0
  0
BLOCK_RECORD
  5
13A
330
9
100
AcDbSymbolTableRecord
100
AcDbBlockTableRecord
  2
*D6
340
0
 70
0
280
1
281
0
  0
BLOCK_RECORD
  5
172
330
9
100
AcDbSymbolTableRecord
100
AcDbBlockTableRecord
  2
*D7
340
0
 70
0
280
1
281
0
  0
BLOCK_RECORD
  5
181
330
9
100
AcDbSymbolTableRecord
100
AcDbBlockTableRecord
  2
*D8
340
0
 70
0
280
1
281
0
  0
BLOCK_RECORD
  5
190
330
9
100
AcDbSymbolTableRecord
100
AcDbBlockTableRecord
  2
*D9
340
0
 70
0
280
1
281
0
  0
BLOCK_RECORD
  5
19F
330
9
100
AcDbSymbolTableRecord
100
AcDbBlockTableRecord
  2
*D10
340
0
 70
0
280
1
281
0
  0
BLOCK_RECORD
  5
1AE
330
9
100
AcDbSymbolTableRecord
100
AcDbBlockTableRecord
  2
*D11
340
0
 70
0
280
1
281
0
  0
BLOCK_RECORD
  5
1D2
330
9
100
AcDbSymbolTableRecord
100
AcDbBlockTableRecord
  2
*D12
340
0
 70
0
280
1
281
0
  0
BLOCK_RECORD
  5
1E1
330
9
100
AcDbSymbolTableRecord
100
AcDbBlockTableRecord
  2
*D13
340
0
 70
0
280
1
281
0
  0
BLOCK_RECORD
  5
205
330
9
100
AcDbSymbolTableRecord
100
AcDbBlockTableRecord
  2
*D14
340
0
 70
0
280
1
281
0
  0
BLOCK_RECORD
  5
214
330
9
100
AcDbSymbolTableRecord
100
AcDbBlockTableRecord
  2
*D15
340
0
 70
0
280
1
281
0
  0
BLOCK_RECORD
  5
22F
330
9
100
AcDbSymbolTableRecord
100
AcDbBlockTableRecord
  2
*D16
340
0
 70
0
280
1
281
0
  0
BLOCK_RECORD
  5
23E
330
9
100
AcDbSymbolTableRecord
100
AcDbBlockTableRecord
  2
*D17
340
0
 70
0
280
1
281
0
  0
BLOCK_RECORD
  5
253
330
9
100
AcDbSymbolTableRecord
100
AcDbBlockTableRecord
  2
*D18
340
0
 70
0
280
1
281
0
  0
BLOCK_RECORD
  5
262
330
9
100
AcDbSymbolTableRecord
100
AcDbBlockTableRecord
  2
*D19
340
0
 70
0
280
1
281
0
  0
BLOCK_RECORD
  5
270
330
9
100
AcDbSymbolTableRecord
100
AcDbBlockTableRecord
  2
*Paper_Space
340
273
 70
0
280
1
281
0
  0
BLOCK_RECORD
  5
1B
330
9
100
AcDbSymbolTableRecord
100
AcDbBlockTableRecord
  2
*Paper_Space0
340
1E
 70
0
280
1
281
0
  0
BLOCK_RECORD
  5
2C7
330
9
100
AcDbSymbolTableRecord
100
AcDbBlockTableRecord
  2
CAJETIN_A1
340
0
 70
0
280
1
281
0
  0
ENDTAB
  0
ENDSEC
  0
SECTION
  2
BLOCKS
  0
BLOCK
  5
18
330
17
100
AcDbEntity
  8
0
100
AcDbBlockBegin
  2
*Model_Space
 70
0
 10
0.0
 20
0.0
 30
0.0
  3
*Model_Space
  1

  0
ENDBLK
  5
19
330
17
100
AcDbEntity
  8
0
100
AcDbBlockEnd
  0
BLOCK
  5
75
330
74
100
AcDbEntity
  8
0
100
AcDbBlockBegin
  2
_ARCHTICK
 70
0
 10
0.0
 20
0.0
 30
0.0
  3
_ARCHTICK
  1

  0
LWPOLYLINE
  5
77
330
74
100
AcDbEntity
  8
0
  6
BYBLOCK
 62
0
100
AcDbPolyline
 90
2
 70
0
 43
0.15
 10
-0.5
 20
-0.5
 10
0.5
 20
0.5
  0
ENDBLK
  5
76
330
74
100
AcDbEntity
  8
0
100
AcDbBlockEnd
  0
BLOCK
  5
79
330
78
100
AcDbEntity
  8
0
100
AcDbBlockBegin
  2
_CLOSEDFILLED
 70
0
 10
0.0
 20
0.0
 30
0.0
  3
_CLOSEDFILLED
  1

  0
SOLID
  5
7B
330
78
100
AcDbEntity
  8
0
  6
BYBLOCK
 62
0
100
AcDbTrace
 10
-1.0
 20
0.16439898372402537
 30
0.0
 11
0.0
 21
0.0
 31
0.0
 12
-1.0
 22
-0.16439898372402537
 32
0.0
 13
-1.0
 23
-0.16439898372402537
 33
0.0
  0
ENDBLK
  5
7A
330
78
100
AcDbEntity
  8
0
100
AcDbBlockEnd
  0
BLOCK
  5
85
330
84
100
AcDbEntity
  8
0
100
AcDbBlockBegin
  2
_CLOSEDBLANK
 70
0
 10
0.0
 20
0.0
 30
0.0
  3
_CLOSEDBLANK
  1

  0
LWPOLYLINE
  5
87
330
84
100
AcDbEntity
  8
0
  6
BYBLOCK
 62
0
100
AcDbPolyline
 90
3
 70
1
 10
-1.0
 20
0.16439898372402537
 10
0.0
 20
0.0
 10
-1.0
 20
-0.16439898372402537
  0
ENDBLK
  5
86
330
84
100
AcDbEntity
  8
0
100
AcDbBlockEnd
  0
BLOCK
  5
EC
330
EB
100
AcDbEntity
  8
0
100
AcDbBlockBegin
  2
*D1
 70
1
 10
0.0
 20
0.0
 30
0.0
  3
*D1
  1

  0
LINE
  5
EE
330
EB
100
AcDbEntity
  8
0
 62
7
370
13
100
AcDbLine
 10
0.0
 20
0.41500000000000004
 30
0.0
 11
0.0
 21
0.5650000000000001
 31
0.0
  0
LINE
  5
EF
330
EB
100
AcDbEntity
  8
0
 62
7
370
13
100
AcDbLine
 10
1.65
 20
0.41500000000000004
 30
0.0
 11
1.65
 21
0.5650000000000001
 31
0.0
  0
INSERT
  5
F4
330
EB
100
AcDbEntity
  8
E-COTA
 62
7
100
AcDbBlockReference
  2
_OBLIQUE
 10
0.0
 20
0.55
 30
0.0
 41
0.036
 42
0.036
  0
INSERT
  5
F6
330
EB
100
AcDbEntity
  8
E-COTA
 62
7
100
AcDbBlockReference
  2
_OBLIQUE
 10
1.65
 20
0.55
 30
0.0
 41
0.036
 42
0.036
  0
LINE
  5
F8
330
EB
100
AcDbEntity
  8
0
 62
7
370
18
100
AcDbLine
 10
-0.015
 20
0.55
 30
0.0
 11
1.6649999999999998
 21
0.55
 31
0.0
  0
MTEXT
  5
F9
330
EB
100
AcDbEntity
  8
E-COTA
 62
7
100
AcDbMText
 10
0.825
 20
0.5785
 30
0.0
 40
0.033
 71
5
  1
1.65
  7
ARIAL
  0
POINT
  5
FA
330
EB
100
AcDbEntity
  8
Defpoints
100
AcDbPoint
 10
0.0
 20
0.55
 30
0.0
  0
POINT
  5
FB
330
EB
100
AcDbEntity
  8
Defpoints
100
AcDbPoint
 10
0.0
 20
0.4
 30
0.0
  0
POINT
  5
FC
330
EB
100
AcDbEntity
  8
Defpoints
100
AcDbPoint
 10
1.65
 20
0.4
 30
0.0
  0
ENDBLK
  5
ED
330
EB
100
AcDbEntity
  8
0
100
AcDbBlockEnd
  0
BLOCK
  5
F1
330
F0
100
AcDbEntity
  8
0
100
AcDbBlockBegin
  2
_OBLIQUE
 70
0
 10
0.0
 20
0.0
 30
0.0
  3
_OBLIQUE
  1

  0
LINE
  5
F3
330
F0
100
AcDbEntity
  8
0
  6
BYBLOCK
 62
0
100
AcDbLine
 10
-0.5
 20
-0.5
 30
0.0
 11
0.5
 21
0.5
 31
0.0
  0
ENDBLK
  5
F2
330
F0
100
AcDbEntity
  8
0
100
AcDbBlockEnd
  0
BLOCK
  5
FF
330
FE
100
AcDbEntity
  8
0
100
AcDbBlockBegin
  2
*D2
 70
1
 10
0.0
 20
0.0
 30
0.0
  3
*D2
  1

  0
LINE
  5
101
330
FE
100
AcDbEntity
  8
0
 62
7
370
13
100
AcDbLine
 10
0.0
 20
0.41500000000000004
 30
0.0
 11
0.0
 21
0.485
 31
0.0
  0
LINE
  5
102
330
FE
100
AcDbEntity
  8
0
 62
7
370
13
100
AcDbLine
 10
0.6749999999999999
 20
0.41500000000000004
 30
0.0
 11
0.6749999999999999
 21
0.485
 31
0.0
  0
INSERT
  5
103
330
FE
100
AcDbEntity
  8
E-COTA
 62
7
100
AcDbBlockReference
  2
_OBLIQUE
 10
0.0
 20
0.47
 30
0.0
 41
0.036
 42
0.036
  0
INSERT
  5
105
330
FE
100
AcDbEntity
  8
E-COTA
 62
7
100
AcDbBlockReference
  2
_OBLIQUE
 10
0.6749999999999999
 20
0.47
 30
0.0
 41
0.036
 42
0.036
  0
LINE
  5
107
330
FE
100
AcDbEntity
  8
0
 62
7
370
18
100
AcDbLine
 10
-0.015
 20
0.47
 30
0.0
 11
0.69
 21
0.47
 31
0.0
  0
MTEXT
  5
108
330
FE
100
AcDbEntity
  8
E-COTA
 62
7
100
AcDbMText
 10
0.33749999999999997
 20
0.4985
 30
0.0
 40
0.033
 71
5
  1
0.67
  7
ARIAL
  0
POINT
  5
109
330
FE
100
AcDbEntity
  8
Defpoints
100
AcDbPoint
 10
0.0
 20
0.47
 30
0.0
  0
POINT
  5
10A
330
FE
100
AcDbEntity
  8
Defpoints
100
AcDbPoint
 10
0.0
 20
0.4
 30
0.0
  0
POINT
  5
10B
330
FE
100
AcDbEntity
  8
Defpoints
100
AcDbPoint
 10
0.6749999999999999
 20
0.4
 30
0.0
  0
ENDBLK
  5
100
330
FE
100
AcDbEntity
  8
0
100
AcDbBlockEnd
  0
BLOCK
  5
10E
330
10D
100
AcDbEntity
  8
0
100
AcDbBlockBegin
  2
*D3
 70
1
 10
0.0
 20
0.0
 30
0.0
  3
*D3
  1

  0
LINE
  5
110
330
10D
100
AcDbEntity
  8
0
 62
7
370
13
100
AcDbLine
 10
0.6749999999999999
 20
0.41500000000000004
 30
0.0
 11
0.6749999999999999
 21
0.485
 31
0.0
  0
LINE
  5
111
330
10D
100
AcDbEntity
  8
0
 62
7
370
13
100
AcDbLine
 10
0.9749999999999999
 20
0.41500000000000004
 30
0.0
 11
0.9749999999999999
 21
0.485
 31
0.0
  0
INSERT
  5
112
330
10D
100
AcDbEntity
  8
E-COTA
 62
7
100
AcDbBlockReference
  2
_OBLIQUE
 10
0.6749999999999999
 20
0.47
 30
0.0
 41
0.036
 42
0.036
  0
INSERT
  5
114
330
10D
100
AcDbEntity
  8
E-COTA
 62
7
100
AcDbBlockReference
  2
_OBLIQUE
 10
0.9749999999999999
 20
0.47
 30
0.0
 41
0.036
 42
0.036
  0
LINE
  5
116
330
10D
100
AcDbEntity
  8
0
 62
7
370
18
100
AcDbLine
 10
0.6599999999999999
 20
0.47
 30
0.0
 11
0.9899999999999999
 21
0.47
 31
0.0
  0
MTEXT
  5
117
330
10D
100
AcDbEntity
  8
E-COTA
 62
7
100
AcDbMText
 10
0.825
 20
0.4985
 30
0.0
 40
0.033
 71
5
  1
0.30
  7
ARIAL
  0
POINT
  5
118
330
10D
100
AcDbEntity
  8
Defpoints
100
AcDbPoint
 10
0.6749999999999999
 20
0.47
 30
0.0
  0
POINT
  5
119
330
10D
100
AcDbEntity
  8
Defpoints
100
AcDbPoint
 10
0.6749999999999999
 20
0.4
 30
0.0
  0
POINT
  5
11A
330
10D
100
AcDbEntity
  8
Defpoints
100
AcDbPoint
 10
0.9749999999999999
 20
0.4
 30
0.0
  0
ENDBLK
  5
10F
330
10D
100
AcDbEntity
  8
0
100
AcDbBlockEnd
  0
BLOCK
  5
11D
330
11C
100
AcDbEntity
  8
0
100
AcDbBlockBegin
  2
*D4
 70
1
 10
0.0
 20
0.0
 30
0.0
  3
*D4
  1

  0
LINE
  5
11F
330
11C
100
AcDbEntity
  8
0
 62
7
370
13
100
AcDbLine
 10
0.9749999999999999
 20
0.41500000000000004
 30
0.0
 11
0.9749999999999999
 21
0.485
 31
0.0
  0
LINE
  5
120
330
11C
100
AcDbEntity
  8
0
 62
7
370
13
100
AcDbLine
 10
1.65
 20
0.41500000000000004
 30
0.0
 11
1.65
 21
0.485
 31
0.0
  0
INSERT
  5
121
330
11C
100
AcDbEntity
  8
E-COTA
 62
7
100
AcDbBlockReference
  2
_OBLIQUE
 10
0.9749999999999999
 20
0.47
 30
0.0
 41
0.036
 42
0.036
  0
INSERT
  5
123
330
11C
100
AcDbEntity
  8
E-COTA
 62
7
100
AcDbBlockReference
  2
_OBLIQUE
 10
1.65
 20
0.47
 30
0.0
 41
0.036
 42
0.036
  0
LINE
  5
125
330
11C
100
AcDbEntity
  8
0
 62
7
370
18
100
AcDbLine
 10
0.9599999999999999
 20
0.47
 30
0.0
 11
1.6649999999999998
 21
0.47
 31
0.0
  0
MTEXT
  5
126
330
11C
100
AcDbEntity
  8
E-COTA
 62
7
100
AcDbMText
 10
1.3125
 20
0.4985
 30
0.0
 40
0.033
 71
5
  1
0.68
  7
ARIAL
  0
POINT
  5
127
330
11C
100
AcDbEntity
  8
Defpoints
100
AcDbPoint
 10
0.9749999999999999
 20
0.47
 30
0.0
  0
POINT
  5
128
330
11C
100
AcDbEntity
  8
Defpoints
100
AcDbPoint
 10
0.9749999999999999
 20
0.4
 30
0.0
  0
POINT
  5
129
330
11C
100
AcDbEntity
  8
Defpoints
100
AcDbPoint
 10
1.65
 20
0.4
 30
0.0
  0
ENDBLK
  5
11E
330
11C
100
AcDbEntity
  8
0
100
AcDbBlockEnd
  0
BLOCK
  5
12C
330
12B
100
AcDbEntity
  8
0
100
AcDbBlockBegin
  2
*D5
 70
1
 10
0.0
 20
0.0
 30
0.0
  3
*D5
  1

  0
LINE
  5
12E
330
12B
100
AcDbEntity
  8
0
 62
7
370
13
100
AcDbLine
 10
-0.015
 20
-0.8
 30
0.0
 11
-0.16499999999999998
 21
-0.8
 31
0.0
  0
LINE
  5
12F
330
12B
100
AcDbEntity
  8
0
 62
7
370
13
100
AcDbLine
 10
-0.015
 20
0.0
 30
0.0
 11
-0.16499999999999998
 21
0.0
 31
0.0
  0
INSERT
  5
130
330
12B
100
AcDbEntity
  8
E-COTA
 62
7
100
AcDbBlockReference
  2
_OBLIQUE
 10
-0.15
 20
-0.8
 30
0.0
 41
0.036
 42
0.036
 50
90.0
  0
INSERT
  5
132
330
12B
100
AcDbEntity
  8
E-COTA
 62
7
100
AcDbBlockReference
  2
_OBLIQUE
 10
-0.15
 20
0.0
 30
0.0
 41
0.036
 42
0.036
 50
90.0
  0
LINE
  5
134
330
12B
100
AcDbEntity
  8
0
 62
7
370
18
100
AcDbLine
 10
-0.15
 20
-0.8150000000000001
 30
0.0
 11
-0.15
 21
0.015
 31
0.0
  0
MTEXT
  5
135
330
12B
100
AcDbEntity
  8
E-COTA
 62
7
100
AcDbMText
 10
-0.1785
 20
-0.4
 30
0.0
 40
0.033
 71
5
  1
0.80
  7
ARIAL
 50
90.0
  0
POINT
  5
136
330
12B
100
AcDbEntity
  8
Defpoints
100
AcDbPoint
 10
-0.15
 20
-0.8
 30
0.0
  0
POINT
  5
137
330
12B
100
AcDbEntity
  8
Defpoints
100
AcDbPoint
 10
0.0
 20
-0.8
 30
0.0
  0
POINT
  5
138
330
12B
100
AcDbEntity
  8
Defpoints
100
AcDbPoint
 10
0.0
 20
0.0
 30
0.0
  0
ENDBLK
  5
12D
330
12B
100
AcDbEntity
  8
0
100
AcDbBlockEnd
  0
BLOCK
  5
13B
330
13A
100
AcDbEntity
  8
0
100
AcDbBlockBegin
  2
*D6
 70
1
 10
0.0
 20
0.0
 30
0.0
  3
*D6
  1

  0
LINE
  5
13D
330
13A
100
AcDbEntity
  8
0
 62
7
370
13
100
AcDbLine
 10
-0.015
 20
-1.05
 30
0.0
 11
-0.16499999999999998
 21
-1.05
 31
0.0
  0
LINE
  5
13E
330
13A
100
AcDbEntity
  8
0
 62
7
370
13
100
AcDbLine
 10
-0.015
 20
-0.8
 30
0.0
 11
-0.16499999999999998
 21
-0.8
 31
0.0
  0
INSERT
  5
13F
330
13A
100
AcDbEntity
  8
E-COTA
 62
7
100
AcDbBlockReference
  2
_OBLIQUE
 10
-0.15
 20
-1.05
 30
0.0
 41
0.036
 42
0.036
 50
90.0
  0
INSERT
  5
141
330
13A
100
AcDbEntity
  8
E-COTA
 62
7
100
AcDbBlockReference
  2
_OBLIQUE
 10
-0.15
 20
-0.8
 30
0.0
 41
0.036
 42
0.036
 50
90.0
  0
LINE
  5
143
330
13A
100
AcDbEntity
  8
0
 62
7
370
18
100
AcDbLine
 10
-0.15
 20
-1.065
 30
0.0
 11
-0.15
 21
-0.785
 31
0.0
  0
MTEXT
  5
144
330
13A
100
AcDbEntity
  8
E-COTA
 62
7
100
AcDbMText
 10
-0.1785
 20
-0.925
 30
0.0
 40
0.033
 71
5
  1
0.25
  7
ARIAL
 50
90.0
  0
POINT
  5
145
330
13A
100
AcDbEntity
  8
Defpoints
100
AcDbPoint
 10
-0.15
 20
-1.05
 30
0.0
  0
POINT
  5
146
330
13A
100
AcDbEntity
  8
Defpoints
100
AcDbPoint
 10
0.0
 20
-1.05
 30
0.0
  0
POINT
  5
147
330
13A
100
AcDbEntity
  8
Defpoints
100
AcDbPoint
 10
0.0
 20
-0.8
 30
0.0
  0
ENDBLK
  5
13C
330
13A
100
AcDbEntity
  8
0
100
AcDbBlockEnd
  0
BLOCK
  5
173
330
172
100
AcDbEntity
  8
0
100
AcDbBlockBegin
  2
*D7
 70
1
 10
0.0
 20
0.0
 30
0.0
  3
*D7
  1

  0
LINE
  5
175
330
172
100
AcDbEntity
  8
0
 62
7
370
13
100
AcDbLine
 10
4.0
 20
0.41500000000000004
 30
0.0
 11
4.0
 21
0.5650000000000001
 31
0.0
  0
LINE
  5
176
330
172
100
AcDbEntity
  8
0
 62
7
370
13
100
AcDbLine
 10
5.65
 20
0.41500000000000004
 30
0.0
 11
5.65
 21
0.5650000000000001
 31
0.0
  0
INSERT
  5
177
330
172
100
AcDbEntity
  8
E-COTA
 62
7
100
AcDbBlockReference
  2
_OBLIQUE
 10
4.0
 20
0.55
 30
0.0
 41
0.036
 42
0.036
  0
INSERT
  5
179
330
172
100
AcDbEntity
  8
E-COTA
 62
7
100
AcDbBlockReference
  2
_OBLIQUE
 10
5.65
 20
0.55
 30
0.0
 41
0.036
 42
0.036
  0
LINE
  5
17B
330
172
100
AcDbEntity
  8
0
 62
7
370
18
100
AcDbLine
 10
3.985
 20
0.55
 30
0.0
 11
5.665
 21
0.55
 31
0.0
  0
MTEXT
  5
17C
330
172
100
AcDbEntity
  8
E-COTA
 62
7
100
AcDbMText
 10
4.825
 20
0.5785
 30
0.0
 40
0.033
 71
5
  1
1.65
  7
ARIAL
  0
POINT
  5
17D
330
172
100
AcDbEntity
  8
Defpoints
100
AcDbPoint
 10
4.0
 20
0.55
 30
0.0
  0
POINT
  5
17E
330
172
100
AcDbEntity
  8
Defpoints
100
AcDbPoint
 10
4.0
 20
0.4
 30
0.0
  0
POINT
  5
17F
330
172
100
AcDbEntity
  8
Defpoints
100
AcDbPoint
 10
5.65
 20
0.4
 30
0.0
  0
ENDBLK
  5
174
330
172
100
AcDbEntity
  8
0
100
AcDbBlockEnd
  0
BLOCK
  5
182
330
181
100
AcDbEntity
  8
0
100
AcDbBlockBegin
  2
*D8
 70
1
 10
0.0
 20
0.0
 30
0.0
  3
*D8
  1

  0
LINE
  5
184
330
181
100
AcDbEntity
  8
0
 62
7
370
13
100
AcDbLine
 10
4.0
 20
0.41500000000000004
 30
0.0
 11
4.0
 21
0.485
 31
0.0
  0
LINE
  5
185
330
181
100
AcDbEntity
  8
0
 62
7
370
13
100
AcDbLine
 10
4.3
 20
0.41500000000000004
 30
0.0
 11
4.3
 21
0.485
 31
0.0
  0
INSERT
  5
186
330
181
100
AcDbEntity
  8
E-COTA
 62
7
100
AcDbBlockReference
  2
_OBLIQUE
 10
4.0
 20
0.47
 30
0.0
 41
0.036
 42
0.036
  0
INSERT
  5
188
330
181
100
AcDbEntity
  8
E-COTA
 62
7
100
AcDbBlockReference
  2
_OBLIQUE
 10
4.3
 20
0.47
 30
0.0
 41
0.036
 42
0.036
  0
LINE
  5
18A
330
181
100
AcDbEntity
  8
0
 62
7
370
18
100
AcDbLine
 10
3.985
 20
0.47
 30
0.0
 11
4.3149999999999995
 21
0.47
 31
0.0
  0
MTEXT
  5
18B
330
181
100
AcDbEntity
  8
E-COTA
 62
7
100
AcDbMText
 10
4.15
 20
0.4985
 30
0.0
 40
0.033
 71
5
  1
0.30
  7
ARIAL
  0
POINT
  5
18C
330
181
100
AcDbEntity
  8
Defpoints
100
AcDbPoint
 10
4.0
 20
0.47
 30
0.0
  0
POINT
  5
18D
330
181
100
AcDbEntity
  8
Defpoints
100
AcDbPoint
 10
4.0
 20
0.4
 30
0.0
  0
POINT
  5
18E
330
181
100
AcDbEntity
  8
Defpoints
100
AcDbPoint
 10
4.3
 20
0.4
 30
0.0
  0
ENDBLK
  5
183
330
181
100
AcDbEntity
  8
0
100
AcDbBlockEnd
  0
BLOCK
  5
191
330
190
100
AcDbEntity
  8
0
100
AcDbBlockBegin
  2
*D9
 70
1
 10
0.0
 20
0.0
 30
0.0
  3
*D9
  1

  0
LINE
  5
193
330
190
100
AcDbEntity
  8
0
 62
7
370
13
100
AcDbLine
 10
4.3
 20
0.41500000000000004
 30
0.0
 11
4.3
 21
0.485
 31
0.0
  0
LINE
  5
194
330
190
100
AcDbEntity
  8
0
 62
7
370
13
100
AcDbLine
 10
5.65
 20
0.41500000000000004
 30
0.0
 11
5.65
 21
0.485
 31
0.0
  0
INSERT
  5
195
330
190
100
AcDbEntity
  8
E-COTA
 62
7
100
AcDbBlockReference
  2
_OBLIQUE
 10
4.3
 20
0.47
 30
0.0
 41
0.036
 42
0.036
  0
INSERT
  5
197
330
190
100
AcDbEntity
  8
E-COTA
 62
7
100
AcDbBlockReference
  2
_OBLIQUE
 10
5.65
 20
0.47
 30
0.0
 41
0.036
 42
0.036
  0
LINE
  5
199
330
190
100
AcDbEntity
  8
0
 62
7
370
18
100
AcDbLine
 10
4.285
 20
0.47
 30
0.0
 11
5.665
 21
0.47
 31
0.0
  0
MTEXT
  5
19A
330
190
100
AcDbEntity
  8
E-COTA
 62
7
100
AcDbMText
 10
4.975
 20
0.4985
 30
0.0
 40
0.033
 71
5
  1
1.35
  7
ARIAL
  0
POINT
  5
19B
330
190
100
AcDbEntity
  8
Defpoints
100
AcDbPoint
 10
4.3
 20
0.47
 30
0.0
  0
POINT
  5
19C
330
190
100
AcDbEntity
  8
Defpoints
100
AcDbPoint
 10
4.3
 20
0.4
 30
0.0
  0
POINT
  5
19D
330
190
100
AcDbEntity
  8
Defpoints
100
AcDbPoint
 10
5.65
 20
0.4
 30
0.0
  0
ENDBLK
  5
192
330
190
100
AcDbEntity
  8
0
100
AcDbBlockEnd
  0
BLOCK
  5
1A0
330
19F
100
AcDbEntity
  8
0
100
AcDbBlockBegin
  2
*D10
 70
1
 10
0.0
 20
0.0
 30
0.0
  3
*D10
  1

  0
LINE
  5
1A2
330
19F
100
AcDbEntity
  8
0
 62
7
370
13
100
AcDbLine
 10
3.985
 20
-0.8
 30
0.0
 11
3.835
 21
-0.8
 31
0.0
  0
LINE
  5
1A3
330
19F
100
AcDbEntity
  8
0
 62
7
370
13
100
AcDbLine
 10
3.985
 20
0.0
 30
0.0
 11
3.835
 21
0.0
 31
0.0
  0
INSERT
  5
1A4
330
19F
100
AcDbEntity
  8
E-COTA
 62
7
100
AcDbBlockReference
  2
_OBLIQUE
 10
3.85
 20
-0.8
 30
0.0
 41
0.036
 42
0.036
 50
90.0
  0
INSERT
  5
1A6
330
19F
100
AcDbEntity
  8
E-COTA
 62
7
100
AcDbBlockReference
  2
_OBLIQUE
 10
3.85
 20
0.0
 30
0.0
 41
0.036
 42
0.036
 50
90.0
  0
LINE
  5
1A8
330
19F
100
AcDbEntity
  8
0
 62
7
370
18
100
AcDbLine
 10
3.85
 20
-0.8150000000000001
 30
0.0
 11
3.85
 21
0.015
 31
0.0
  0
MTEXT
  5
1A9
330
19F
100
AcDbEntity
  8
E-COTA
 62
7
100
AcDbMText
 10
3.8215
 20
-0.4
 30
0.0
 40
0.033
 71
5
  1
0.80
  7
ARIAL
 50
90.0
  0
POINT
  5
1AA
330
19F
100
AcDbEntity
  8
Defpoints
100
AcDbPoint
 10
3.85
 20
-0.8
 30
0.0
  0
POINT
  5
1AB
330
19F
100
AcDbEntity
  8
Defpoints
100
AcDbPoint
 10
4.0
 20
-0.8
 30
0.0
  0
POINT
  5
1AC
330
19F
100
AcDbEntity
  8
Defpoints
100
AcDbPoint
 10
4.0
 20
0.0
 30
0.0
  0
ENDBLK
  5
1A1
330
19F
100
AcDbEntity
  8
0
100
AcDbBlockEnd
  0
BLOCK
  5
1AF
330
1AE
100
AcDbEntity
  8
0
100
AcDbBlockBegin
  2
*D11
 70
1
 10
0.0
 20
0.0
 30
0.0
  3
*D11
  1

  0
LINE
  5
1B1
330
1AE
100
AcDbEntity
  8
0
 62
7
370
13
100
AcDbLine
 10
3.985
 20
-1.05
 30
0.0
 11
3.835
 21
-1.05
 31
0.0
  0
LINE
  5
1B2
330
1AE
100
AcDbEntity
  8
0
 62
7
370
13
100
AcDbLine
 10
3.985
 20
-0.8
 30
0.0
 11
3.835
 21
-0.8
 31
0.0
  0
INSERT
  5
1B3
330
1AE
100
AcDbEntity
  8
E-COTA
 62
7
100
AcDbBlockReference
  2
_OBLIQUE
 10
3.85
 20
-1.05
 30
0.0
 41
0.036
 42
0.036
 50
90.0
  0
INSERT
  5
1B5
330
1AE
100
AcDbEntity
  8
E-COTA
 62
7
100
AcDbBlockReference
  2
_OBLIQUE
 10
3.85
 20
-0.8
 30
0.0
 41
0.036
 42
0.036
 50
90.0
  0
LINE
  5
1B7
330
1AE
100
AcDbEntity
  8
0
 62
7
370
18
100
AcDbLine
 10
3.85
 20
-1.065
 30
0.0
 11
3.85
 21
-0.785
 31
0.0
  0
MTEXT
  5
1B8
330
1AE
100
AcDbEntity
  8
E-COTA
 62
7
100
AcDbMText
 10
3.8215
 20
-0.925
 30
0.0
 40
0.033
 71
5
  1
0.25
  7
ARIAL
 50
90.0
  0
POINT
  5
1B9
330
1AE
100
AcDbEntity
  8
Defpoints
100
AcDbPoint
 10
3.85
 20
-1.05
 30
0.0
  0
POINT
  5
1BA
330
1AE
100
AcDbEntity
  8
Defpoints
100
AcDbPoint
 10
4.0
 20
-1.05
 30
0.0
  0
POINT
  5
1BB
330
1AE
100
AcDbEntity
  8
Defpoints
100
AcDbPoint
 10
4.0
 20
-0.8
 30
0.0
  0
ENDBLK
  5
1B0
330
1AE
100
AcDbEntity
  8
0
100
AcDbBlockEnd
  0
BLOCK
  5
1D3
330
1D2
100
AcDbEntity
  8
0
100
AcDbBlockBegin
  2
*D12
 70
1
 10
0.0
 20
0.0
 30
0.0
  3
*D12
  1

  0
LINE
  5
1D5
330
1D2
100
AcDbEntity
  8
0
 62
7
370
13
100
AcDbLine
 10
0.0
 20
-2.335
 30
0.0
 11
0.0
 21
-2.185
 31
0.0
  0
LINE
  5
1D6
330
1D2
100
AcDbEntity
  8
0
 62
7
370
13
100
AcDbLine
 10
1.65
 20
-2.335
 30
0.0
 11
1.65
 21
-2.185
 31
0.0
  0
INSERT
  5
1D7
330
1D2
100
AcDbEntity
  8
E-COTA
 62
7
100
AcDbBlockReference
  2
_OBLIQUE
 10
0.0
 20
-2.2
 30
0.0
 41
0.036
 42
0.036
  0
INSERT
  5
1D9
330
1D2
100
AcDbEntity
  8
E-COTA
 62
7
100
AcDbBlockReference
  2
_OBLIQUE
 10
1.65
 20
-2.2
 30
0.0
 41
0.036
 42
0.036
  0
LINE
  5
1DB
330
1D2
100
AcDbEntity
  8
0
 62
7
370
18
100
AcDbLine
 10
-0.015
 20
-2.2
 30
0.0
 11
1.6649999999999998
 21
-2.2
 31
0.0
  0
MTEXT
  5
1DC
330
1D2
100
AcDbEntity
  8
E-COTA
 62
7
100
AcDbMText
 10
0.825
 20
-2.1715
 30
0.0
 40
0.033
 71
5
  1
1.65
  7
ARIAL
  0
POINT
  5
1DD
330
1D2
100
AcDbEntity
  8
Defpoints
100
AcDbPoint
 10
0.0
 20
-2.2
 30
0.0
  0
POINT
  5
1DE
330
1D2
100
AcDbEntity
  8
Defpoints
100
AcDbPoint
 10
0.0
 20
-2.35
 30
0.0
  0
POINT
  5
1DF
330
1D2
100
AcDbEntity
  8
Defpoints
100
AcDbPoint
 10
1.65
 20
-2.35
 30
0.0
  0
ENDBLK
  5
1D4
330
1D2
100
AcDbEntity
  8
0
100
AcDbBlockEnd
  0
BLOCK
  5
1E2
330
1E1
100
AcDbEntity
  8
0
100
AcDbBlockBegin
  2
*D13
 70
1
 10
0.0
 20
0.0
 30
0.0
  3
*D13
  1

  0
LINE
  5
1E4
330
1E1
100
AcDbEntity
  8
0
 62
7
370
13
100
AcDbLine
 10
1.6649999999999998
 20
-4.0
 30
0.0
 11
1.8149999999999997
 21
-4.0
 31
0.0
  0
LINE
  5
1E5
330
1E1
100
AcDbEntity
  8
0
 62
7
370
13
100
AcDbLine
 10
1.6649999999999998
 20
-2.35
 30
0.0
 11
1.8149999999999997
 21
-2.35
 31
0.0
  0
INSERT
  5
1E6
330
1E1
100
AcDbEntity
  8
E-COTA
 62
7
100
AcDbBlockReference
  2
_OBLIQUE
 10
1.7999999999999998
 20
-4.0
 30
0.0
 41
0.036
 42
0.036
 50
90.0
  0
INSERT
  5
1E8
330
1E1
100
AcDbEntity
  8
E-COTA
 62
7
100
AcDbBlockReference
  2
_OBLIQUE
 10
1.7999999999999998
 20
-2.35
 30
0.0
 41
0.036
 42
0.036
 50
90.0
  0
LINE
  5
1EA
330
1E1
100
AcDbEntity
  8
0
 62
7
370
18
100
AcDbLine
 10
1.7999999999999998
 20
-4.015
 30
0.0
 11
1.7999999999999998
 21
-2.335
 31
0.0
  0
MTEXT
  5
1EB
330
1E1
100
AcDbEntity
  8
E-COTA
 62
7
100
AcDbMText
 10
1.7714999999999999
 20
-3.175
 30
0.0
 40
0.033
 71
5
  1
1.65
  7
ARIAL
 50
90.0
  0
POINT
  5
1EC
330
1E1
100
AcDbEntity
  8
Defpoints
100
AcDbPoint
 10
1.7999999999999998
 20
-4.0
 30
0.0
  0
POINT
  5
1ED
330
1E1
100
AcDbEntity
  8
Defpoints
100
AcDbPoint
 10
1.65
 20
-4.0
 30
0.0
  0
POINT
  5
1EE
330
1E1
100
AcDbEntity
  8
Defpoints
100
AcDbPoint
 10
1.65
 20
-2.35
 30
0.0
  0
ENDBLK
  5
1E3
330
1E1
100
AcDbEntity
  8
0
100
AcDbBlockEnd
  0
BLOCK
  5
206
330
205
100
AcDbEntity
  8
0
100
AcDbBlockBegin
  2
*D14
 70
1
 10
0.0
 20
0.0
 30
0.0
  3
*D14
  1

  0
LINE
  5
208
330
205
100
AcDbEntity
  8
0
 62
7
370
13
100
AcDbLine
 10
4.0
 20
-2.335
 30
0.0
 11
4.0
 21
-2.185
 31
0.0
  0
LINE
  5
209
330
205
100
AcDbEntity
  8
0
 62
7
370
13
100
AcDbLine
 10
5.65
 20
-2.335
 30
0.0
 11
5.65
 21
-2.185
 31
0.0
  0
INSERT
  5
20A
330
205
100
AcDbEntity
  8
E-COTA
 62
7
100
AcDbBlockReference
  2
_OBLIQUE
 10
4.0
 20
-2.2
 30
0.0
 41
0.036
 42
0.036
  0
INSERT
  5
20C
330
205
100
AcDbEntity
  8
E-COTA
 62
7
100
AcDbBlockReference
  2
_OBLIQUE
 10
5.65
 20
-2.2
 30
0.0
 41
0.036
 42
0.036
  0
LINE
  5
20E
330
205
100
AcDbEntity
  8
0
 62
7
370
18
100
AcDbLine
 10
3.985
 20
-2.2
 30
0.0
 11
5.665
 21
-2.2
 31
0.0
  0
MTEXT
  5
20F
330
205
100
AcDbEntity
  8
E-COTA
 62
7
100
AcDbMText
 10
4.825
 20
-2.1715
 30
0.0
 40
0.033
 71
5
  1
1.65
  7
ARIAL
  0
POINT
  5
210
330
205
100
AcDbEntity
  8
Defpoints
100
AcDbPoint
 10
4.0
 20
-2.2
 30
0.0
  0
POINT
  5
211
330
205
100
AcDbEntity
  8
Defpoints
100
AcDbPoint
 10
4.0
 20
-2.35
 30
0.0
  0
POINT
  5
212
330
205
100
AcDbEntity
  8
Defpoints
100
AcDbPoint
 10
5.65
 20
-2.35
 30
0.0
  0
ENDBLK
  5
207
330
205
100
AcDbEntity
  8
0
100
AcDbBlockEnd
  0
BLOCK
  5
215
330
214
100
AcDbEntity
  8
0
100
AcDbBlockBegin
  2
*D15
 70
1
 10
0.0
 20
0.0
 30
0.0
  3
*D15
  1

  0
LINE
  5
217
330
214
100
AcDbEntity
  8
0
 62
7
370
13
100
AcDbLine
 10
5.665
 20
-4.0
 30
0.0
 11
5.815
 21
-4.0
 31
0.0
  0
LINE
  5
218
330
214
100
AcDbEntity
  8
0
 62
7
370
13
100
AcDbLine
 10
5.665
 20
-2.35
 30
0.0
 11
5.815
 21
-2.35
 31
0.0
  0
INSERT
  5
219
330
214
100
AcDbEntity
  8
E-COTA
 62
7
100
AcDbBlockReference
  2
_OBLIQUE
 10
5.800000000000001
 20
-4.0
 30
0.0
 41
0.036
 42
0.036
 50
90.0
  0
INSERT
  5
21B
330
214
100
AcDbEntity
  8
E-COTA
 62
7
100
AcDbBlockReference
  2
_OBLIQUE
 10
5.800000000000001
 20
-2.35
 30
0.0
 41
0.036
 42
0.036
 50
90.0
  0
LINE
  5
21D
330
214
100
AcDbEntity
  8
0
 62
7
370
18
100
AcDbLine
 10
5.800000000000001
 20
-4.015
 30
0.0
 11
5.800000000000001
 21
-2.335
 31
0.0
  0
MTEXT
  5
21E
330
214
100
AcDbEntity
  8
E-COTA
 62
7
100
AcDbMText
 10
5.7715000000000005
 20
-3.175
 30
0.0
 40
0.033
 71
5
  1
1.65
  7
ARIAL
 50
90.0
  0
POINT
  5
21F
330
214
100
AcDbEntity
  8
Defpoints
100
AcDbPoint
 10
5.800000000000001
 20
-4.0
 30
0.0
  0
POINT
  5
220
330
214
100
AcDbEntity
  8
Defpoints
100
AcDbPoint
 10
5.65
 20
-4.0
 30
0.0
  0
POINT
  5
221
330
214
100
AcDbEntity
  8
Defpoints
100
AcDbPoint
 10
5.65
 20
-2.35
 30
0.0
  0
ENDBLK
  5
216
330
214
100
AcDbEntity
  8
0
100
AcDbBlockEnd
  0
BLOCK
  5
230
330
22F
100
AcDbEntity
  8
0
100
AcDbBlockBegin
  2
*D16
 70
1
 10
0.0
 20
0.0
 30
0.0
  3
*D16
  1

  0
LINE
  5
232
330
22F
100
AcDbEntity
  8
0
 62
7
370
13
100
AcDbLine
 10
8.0
 20
0.31
 30
0.0
 11
8.0
 21
0.37
 31
0.0
  0
LINE
  5
233
330
22F
100
AcDbEntity
  8
0
 62
7
370
13
100
AcDbLine
 10
8.3
 20
0.31
 30
0.0
 11
8.3
 21
0.37
 31
0.0
  0
INSERT
  5
234
330
22F
100
AcDbEntity
  8
E-COTA
 62
7
100
AcDbBlockReference
  2
_OBLIQUE
 10
8.0
 20
0.36
 30
0.0
 41
0.024
 42
0.024
  0
INSERT
  5
236
330
22F
100
AcDbEntity
  8
E-COTA
 62
7
100
AcDbBlockReference
  2
_OBLIQUE
 10
8.3
 20
0.36
 30
0.0
 41
0.024
 42
0.024
  0
LINE
  5
238
330
22F
100
AcDbEntity
  8
0
 62
7
370
18
100
AcDbLine
 10
7.99
 20
0.36
 30
0.0
 11
8.31
 21
0.36
 31
0.0
  0
MTEXT
  5
239
330
22F
100
AcDbEntity
  8
E-COTA
 62
7
100
AcDbMText
 10
8.15
 20
0.379
 30
0.0
 40
0.022000000000000002
 71
5
  1
0.30
  7
ARIAL
  0
POINT
  5
23A
330
22F
100
AcDbEntity
  8
Defpoints
100
AcDbPoint
 10
8.0
 20
0.36
 30
0.0
  0
POINT
  5
23B
330
22F
100
AcDbEntity
  8
Defpoints
100
AcDbPoint
 10
8.0
 20
0.3
 30
0.0
  0
POINT
  5
23C
330
22F
100
AcDbEntity
  8
Defpoints
100
AcDbPoint
 10
8.3
 20
0.3
 30
0.0
  0
ENDBLK
  5
231
330
22F
100
AcDbEntity
  8
0
100
AcDbBlockEnd
  0
BLOCK
  5
23F
330
23E
100
AcDbEntity
  8
0
100
AcDbBlockBegin
  2
*D17
 70
1
 10
0.0
 20
0.0
 30
0.0
  3
*D17
  1

  0
LINE
  5
241
330
23E
100
AcDbEntity
  8
0
 62
7
370
13
100
AcDbLine
 10
8.31
 20
0.0
 30
0.0
 11
8.370000000000001
 21
0.0
 31
0.0
  0
LINE
  5
242
330
23E
100
AcDbEntity
  8
0
 62
7
370
13
100
AcDbLine
 10
8.31
 20
0.3
 30
0.0
 11
8.370000000000001
 21
0.3
 31
0.0
  0
INSERT
  5
243
330
23E
100
AcDbEntity
  8
E-COTA
 62
7
100
AcDbBlockReference
  2
_OBLIQUE
 10
8.360000000000001
 20
0.0
 30
0.0
 41
0.024
 42
0.024
 50
90.0
  0
INSERT
  5
245
330
23E
100
AcDbEntity
  8
E-COTA
 62
7
100
AcDbBlockReference
  2
_OBLIQUE
 10
8.360000000000001
 20
0.3
 30
0.0
 41
0.024
 42
0.024
 50
90.0
  0
LINE
  5
247
330
23E
100
AcDbEntity
  8
0
 62
7
370
18
100
AcDbLine
 10
8.360000000000001
 20
-0.01
 30
0.0
 11
8.360000000000001
 21
0.31
 31
0.0
  0
MTEXT
  5
248
330
23E
100
AcDbEntity
  8
E-COTA
 62
7
100
AcDbMText
 10
8.341000000000001
 20
0.15
 30
0.0
 40
0.022000000000000002
 71
5
  1
0.30
  7
ARIAL
 50
90.0
  0
POINT
  5
249
330
23E
100
AcDbEntity
  8
Defpoints
100
AcDbPoint
 10
8.360000000000001
 20
0.0
 30
0.0
  0
POINT
  5
24A
330
23E
100
AcDbEntity
  8
Defpoints
100
AcDbPoint
 10
8.3
 20
0.0
 30
0.0
  0
POINT
  5
24B
330
23E
100
AcDbEntity
  8
Defpoints
100
AcDbPoint
 10
8.3
 20
0.3
 30
0.0
  0
ENDBLK
  5
240
330
23E
100
AcDbEntity
  8
0
100
AcDbBlockEnd
  0
BLOCK
  5
254
330
253
100
AcDbEntity
  8
0
100
AcDbBlockBegin
  2
*D18
 70
1
 10
0.0
 20
0.0
 30
0.0
  3
*D18
  1

  0
LINE
  5
256
330
253
100
AcDbEntity
  8
0
 62
7
370
13
100
AcDbLine
 10
8.0
 20
-0.725
 30
0.0
 11
8.0
 21
-0.6849999999999999
 31
0.0
  0
LINE
  5
257
330
253
100
AcDbEntity
  8
0
 62
7
370
13
100
AcDbLine
 10
8.27
 20
-0.725
 30
0.0
 11
8.27
 21
-0.6849999999999999
 31
0.0
  0
INSERT
  5
258
330
253
100
AcDbEntity
  8
E-COTA
 62
7
100
AcDbBlockReference
  2
_OBLIQUE
 10
8.0
 20
-0.69
 30
0.0
 41
0.012
 42
0.012
  0
INSERT
  5
25A
330
253
100
AcDbEntity
  8
E-COTA
 62
7
100
AcDbBlockReference
  2
_OBLIQUE
 10
8.27
 20
-0.69
 30
0.0
 41
0.012
 42
0.012
  0
LINE
  5
25C
330
253
100
AcDbEntity
  8
0
 62
7
370
18
100
AcDbLine
 10
7.995
 20
-0.69
 30
0.0
 11
8.275
 21
-0.69
 31
0.0
  0
MTEXT
  5
25D
330
253
100
AcDbEntity
  8
E-COTA
 62
7
100
AcDbMText
 10
8.135
 20
-0.6805
 30
0.0
 40
0.011000000000000001
 71
5
  1
0.27
  7
ARIAL
  0
POINT
  5
25E
330
253
100
AcDbEntity
  8
Defpoints
100
AcDbPoint
 10
8.0
 20
-0.69
 30
0.0
  0
POINT
  5
25F
330
253
100
AcDbEntity
  8
Defpoints
100
AcDbPoint
 10
8.0
 20
-0.73
 30
0.0
  0
POINT
  5
260
330
253
100
AcDbEntity
  8
Defpoints
100
AcDbPoint
 10
8.27
 20
-0.73
 30
0.0
  0
ENDBLK
  5
255
330
253
100
AcDbEntity
  8
0
100
AcDbBlockEnd
  0
BLOCK
  5
263
330
262
100
AcDbEntity
  8
0
100
AcDbBlockBegin
  2
*D19
 70
1
 10
0.0
 20
0.0
 30
0.0
  3
*D19
  1

  0
LINE
  5
265
330
262
100
AcDbEntity
  8
0
 62
7
370
13
100
AcDbLine
 10
8.275
 20
-1.0
 30
0.0
 11
8.315
 21
-1.0
 31
0.0
  0
LINE
  5
266
330
262
100
AcDbEntity
  8
0
 62
7
370
13
100
AcDbLine
 10
8.275
 20
-0.73
 30
0.0
 11
8.315
 21
-0.73
 31
0.0
  0
INSERT
  5
267
330
262
100
AcDbEntity
  8
E-COTA
 62
7
100
AcDbBlockReference
  2
_OBLIQUE
 10
8.309999999999999
 20
-1.0
 30
0.0
 41
0.012
 42
0.012
 50
90.0
  0
INSERT
  5
269
330
262
100
AcDbEntity
  8
E-COTA
 62
7
100
AcDbBlockReference
  2
_OBLIQUE
 10
8.309999999999999
 20
-0.73
 30
0.0
 41
0.012
 42
0.012
 50
90.0
  0
LINE
  5
26B
330
262
100
AcDbEntity
  8
0
 62
7
370
18
100
AcDbLine
 10
8.309999999999999
 20
-1.005
 30
0.0
 11
8.309999999999999
 21
-0.725
 31
0.0
  0
MTEXT
  5
26C
330
262
100
AcDbEntity
  8
E-COTA
 62
7
100
AcDbMText
 10
8.3005
 20
-0.865
 30
0.0
 40
0.011000000000000001
 71
5
  1
0.27
  7
ARIAL
 50
90.0
  0
POINT
  5
26D
330
262
100
AcDbEntity
  8
Defpoints
100
AcDbPoint
 10
8.309999999999999
 20
-1.0
 30
0.0
  0
POINT
  5
26E
330
262
100
AcDbEntity
  8
Defpoints
100
AcDbPoint
 10
8.27
 20
-1.0
 30
0.0
  0
POINT
  5
26F
330
262
100
AcDbEntity
  8
Defpoints
100
AcDbPoint
 10
8.27
 20
-0.73
 30
0.0
  0
ENDBLK
  5
264
330
262
100
AcDbEntity
  8
0
100
AcDbBlockEnd
  0
BLOCK
  5
271
330
270
100
AcDbEntity
  8
0
100
AcDbBlockBegin
  2
*Paper_Space
 70
0
 10
0.0
 20
0.0
 30
0.0
  3
*Paper_Space
  1

  0
ENDBLK
  5
272
330
270
100
AcDbEntity
  8
0
100
AcDbBlockEnd
  0
BLOCK
  5
1C
330
1B
100
AcDbEntity
  8
0
100
AcDbBlockBegin
  2
*Paper_Space0
 70
0
 10
0.0
 20
0.0
 30
0.0
  3
*Paper_Space0
  1

  0
ENDBLK
  5
1D
330
1B
100
AcDbEntity
  8
0
100
AcDbBlockEnd
  0
BLOCK
  5
2C8
330
2C7
100
AcDbEntity
  8
0
100
AcDbBlockBegin
  2
CAJETIN_A1
 70
2
 10
0.0
 20
0.0
 30
0.0
  3
CAJETIN_A1
  1

  0
LWPOLYLINE
  5
2CA
330
2C7
100
AcDbEntity
  8
0
100
AcDbPolyline
 90
4
 70
1
 10
0.0
 20
0.0
 10
120.0
 20
0.0
 10
120.0
 20
574.0
 10
0.0
 20
574.0
  0
TEXT
  5
2CB
330
2C7
100
AcDbEntity
  8
0
100
AcDbText
 10
3.0
 20
571.0
 30
0.0
 40
2.0
  1
ESPACIO PARA SELLOS Y TIMBRES
  7
ARIAL
 11
3.0
 21
571.0
 31
0.0
100
AcDbText
 73
3
  0
LINE
  5
2CC
330
2C7
100
AcDbEntity
  8
0
100
AcDbLine
 10
0.0
 20
255.6
 30
0.0
 11
120.0
 21
255.6
 31
0.0
  0
ATTDEF
  5
2CD
330
2C7
100
AcDbEntity
  8
0
100
AcDbText
 10
60.0
 20
251.6
 30
0.0
 40
3.2
  1

  7
ARIAL
 72
1
 11
60.0
 21
251.6
 31
0.0
100
AcDbAttributeDefinition
  3

  2
EMPRESA
 70
0
 74
3
 71
1
 72
0
 11
60.0
 21
251.6
 31
0.0
  0
ATTDEF
  5
2CE
330
2C7
100
AcDbEntity
  8
0
100
AcDbText
 10
60.0
 20
245.6
 30
0.0
 40
2.5
  1

  7
ARIAL
 72
1
 11
60.0
 21
245.6
 31
0.0
100
AcDbAttributeDefinition
  3

  2
EMPRESA_CED
 70
0
 74
3
 71
1
 72
0
 11
60.0
 21
245.6
 31
0.0
  0
LINE
  5
2CF
330
2C7
100
AcDbEntity
  8
0
100
AcDbLine
 10
0.0
 20
237.6
 30
0.0
 11
120.0
 21
237.6
 31
0.0
  0
TEXT
  5
2D0
330
2C7
100
AcDbEntity
  8
0
100
AcDbText
 10
3.0
 20
235.1
 30
0.0
 40
2.2
  1
PROFESIONAL RESPONSABLE:
  7
ARIAL
 11
3.0
 21
235.1
 31
0.0
100
AcDbText
 73
3
  0
ATTDEF
  5
2D1
330
2C7
100
AcDbEntity
  8
0
100
AcDbText
 10
3.0
 20
230.1
 30
0.0
 40
2.6
  1

  7
ARIAL
 11
3.0
 21
230.1
 31
0.0
100
AcDbAttributeDefinition
  3

  2
PROF_1
 70
0
 74
3
 71
1
 72
0
 11
3.0
 21
230.1
 31
0.0
  0
ATTDEF
  5
2D2
330
2C7
100
AcDbEntity
  8
0
100
AcDbText
 10
3.0
 20
225.6
 30
0.0
 40
2.6
  1

  7
ARIAL
 11
3.0
 21
225.6
 31
0.0
100
AcDbAttributeDefinition
  3

  2
PROF_2
 70
0
 74
3
 71
1
 72
0
 11
3.0
 21
225.6
 31
0.0
  0
ATTDEF
  5
2D3
330
2C7
100
AcDbEntity
  8
0
100
AcDbText
 10
3.0
 20
221.1
 30
0.0
 40
2.6
  1

  7
ARIAL
 11
3.0
 21
221.1
 31
0.0
100
AcDbAttributeDefinition
  3

  2
PROF_3
 70
0
 74
3
 71
1
 72
0
 11
3.0
 21
221.1
 31
0.0
  0
LINE
  5
2D4
330
2C7
100
AcDbEntity
  8
0
100
AcDbLine
 10
0.0
 20
215.6
 30
0.0
 11
120.0
 21
215.6
 31
0.0
  0
TEXT
  5
2D5
330
2C7
100
AcDbEntity
  8
0
100
AcDbText
 10
3.0
 20
213.1
 30
0.0
 40
2.2
  1
PROYECTO:
  7
ARIAL
 11
3.0
 21
213.1
 31
0.0
100
AcDbText
 73
3
  0
ATTDEF
  5
2D6
330
2C7
100
AcDbEntity
  8
0
100
AcDbText
 10
3.0
 20
208.1
 30
0.0
 40
4.2
  1

  7
ARIAL
 11
3.0
 21
208.1
 31
0.0
100
AcDbAttributeDefinition
  3

  2
PROYECTO
 70
0
 74
3
 71
1
 72
0
 11
3.0
 21
208.1
 31
0.0
  0
ATTDEF
  5
2D7
330
2C7
100
AcDbEntity
  8
0
100
AcDbText
 10
3.0
 20
201.1
 30
0.0
 40
2.5
  1

  7
ARIAL
 11
3.0
 21
201.1
 31
0.0
100
AcDbAttributeDefinition
  3

  2
UBIC_1
 70
0
 74
3
 71
1
 72
0
 11
3.0
 21
201.1
 31
0.0
  0
ATTDEF
  5
2D8
330
2C7
100
AcDbEntity
  8
0
100
AcDbText
 10
3.0
 20
196.6
 30
0.0
 40
2.5
  1

  7
ARIAL
 11
3.0
 21
196.6
 31
0.0
100
AcDbAttributeDefinition
  3

  2
UBIC_2
 70
0
 74
3
 71
1
 72
0
 11
3.0
 21
196.6
 31
0.0
  0
ATTDEF
  5
2D9
330
2C7
100
AcDbEntity
  8
0
100
AcDbText
 10
3.0
 20
192.1
 30
0.0
 40
2.5
  1

  7
ARIAL
 11
3.0
 21
192.1
 31
0.0
100
AcDbAttributeDefinition
  3

  2
UBIC_3
 70
0
 74
3
 71
1
 72
0
 11
3.0
 21
192.1
 31
0.0
  0
LINE
  5
2DA
330
2C7
100
AcDbEntity
  8
0
100
AcDbLine
 10
0.0
 20
186.6
 30
0.0
 11
120.0
 21
186.6
 31
0.0
  0
TEXT
  5
2DB
330
2C7
100
AcDbEntity
  8
0
100
AcDbText
 10
3.0
 20
184.1
 30
0.0
 40
2.2
  1
INFORMACIÓN REGISTRO PÚBLICO:
  7
ARIAL
 11
3.0
 21
184.1
 31
0.0
100
AcDbText
 73
3
  0
ATTDEF
  5
2DC
330
2C7
100
AcDbEntity
  8
0
100
AcDbText
 10
3.0
 20
179.1
 30
0.0
 40
2.5
  1

  7
ARIAL
 11
3.0
 21
179.1
 31
0.0
100
AcDbAttributeDefinition
  3

  2
REG_1
 70
0
 74
3
 71
1
 72
0
 11
3.0
 21
179.1
 31
0.0
  0
ATTDEF
  5
2DD
330
2C7
100
AcDbEntity
  8
0
100
AcDbText
 10
3.0
 20
174.6
 30
0.0
 40
2.5
  1

  7
ARIAL
 11
3.0
 21
174.6
 31
0.0
100
AcDbAttributeDefinition
  3

  2
REG_2
 70
0
 74
3
 71
1
 72
0
 11
3.0
 21
174.6
 31
0.0
  0
ATTDEF
  5
2DE
330
2C7
100
AcDbEntity
  8
0
100
AcDbText
 10
3.0
 20
170.1
 30
0.0
 40
2.5
  1

  7
ARIAL
 11
3.0
 21
170.1
 31
0.0
100
AcDbAttributeDefinition
  3

  2
REG_3
 70
0
 74
3
 71
1
 72
0
 11
3.0
 21
170.1
 31
0.0
  0
LINE
  5
2DF
330
2C7
100
AcDbEntity
  8
0
100
AcDbLine
 10
0.0
 20
164.6
 30
0.0
 11
120.0
 21
164.6
 31
0.0
  0
TEXT
  5
2E0
330
2C7
100
AcDbEntity
  8
0
100
AcDbText
 10
3.0
 20
162.1
 30
0.0
 40
2.2
  1
CONTENIDO:
  7
ARIAL
 11
3.0
 21
162.1
 31
0.0
100
AcDbText
 73
3
  0
ATTDEF
  5
2E1
330
2C7
100
AcDbEntity
  8
0
100
AcDbText
 10
3.0
 20
157.1
 30
0.0
 40
5.0
  1

  7
ARIAL
 11
3.0
 21
157.1
 31
0.0
100
AcDbAttributeDefinition
  3

  2
CONT_TIT
 70
0
 74
3
 71
1
 72
0
 11
3.0
 21
157.1
 31
0.0
  0
ATTDEF
  5
2E2
330
2C7
100
AcDbEntity
  8
0
100
AcDbText
 10
3.0
 20
149.6
 30
0.0
 40
3.0
  1

  7
ARIAL
 11
3.0
 21
149.6
 31
0.0
100
AcDbAttributeDefinition
  3

  2
CONT_1
 70
0
 74
3
 71
1
 72
0
 11
3.0
 21
149.6
 31
0.0
  0
ATTDEF
  5
2E3
330
2C7
100
AcDbEntity
  8
0
100
AcDbText
 10
3.0
 20
144.1
 30
0.0
 40
3.0
  1

  7
ARIAL
 11
3.0
 21
144.1
 31
0.0
100
AcDbAttributeDefinition
  3

  2
CONT_2
 70
0
 74
3
 71
1
 72
0
 11
3.0
 21
144.1
 31
0.0
  0
ATTDEF
  5
2E4
330
2C7
100
AcDbEntity
  8
0
100
AcDbText
 10
3.0
 20
138.6
 30
0.0
 40
3.0
  1

  7
ARIAL
 11
3.0
 21
138.6
 31
0.0
100
AcDbAttributeDefinition
  3

  2
CONT_3
 70
0
 74
3
 71
1
 72
0
 11
3.0
 21
138.6
 31
0.0
  0
ATTDEF
  5
2E5
330
2C7
100
AcDbEntity
  8
0
100
AcDbText
 10
3.0
 20
133.1
 30
0.0
 40
3.0
  1

  7
ARIAL
 11
3.0
 21
133.1
 31
0.0
100
AcDbAttributeDefinition
  3

  2
CONT_4
 70
0
 74
3
 71
1
 72
0
 11
3.0
 21
133.1
 31
0.0
  0
ATTDEF
  5
2E6
330
2C7
100
AcDbEntity
  8
0
100
AcDbText
 10
3.0
 20
127.6
 30
0.0
 40
3.0
  1

  7
ARIAL
 11
3.0
 21
127.6
 31
0.0
100
AcDbAttributeDefinition
  3

  2
CONT_5
 70
0
 74
3
 71
1
 72
0
 11
3.0
 21
127.6
 31
0.0
  0
ATTDEF
  5
2E7
330
2C7
100
AcDbEntity
  8
0
100
AcDbText
 10
3.0
 20
122.1
 30
0.0
 40
3.0
  1

  7
ARIAL
 11
3.0
 21
122.1
 31
0.0
100
AcDbAttributeDefinition
  3

  2
CONT_6
 70
0
 74
3
 71
1
 72
0
 11
3.0
 21
122.1
 31
0.0
  0
LINE
  5
2E8
330
2C7
100
AcDbEntity
  8
0
100
AcDbLine
 10
0.0
 20
114.6
 30
0.0
 11
120.0
 21
114.6
 31
0.0
  0
TEXT
  5
2E9
330
2C7
100
AcDbEntity
  8
0
100
AcDbText
 10
3.0
 20
112.1
 30
0.0
 40
2.2
  1
ESCALAS:
  7
ARIAL
 11
3.0
 21
112.1
 31
0.0
100
AcDbText
 73
3
  0
ATTDEF
  5
2EA
330
2C7
100
AcDbEntity
  8
0
100
AcDbText
 10
25.0
 20
112.1
 30
0.0
 40
2.2
  1

  7
ARIAL
 11
25.0
 21
112.1
 31
0.0
100
AcDbAttributeDefinition
  3

  2
ESCALAS
 70
0
 74
3
 71
1
 72
0
 11
25.0
 21
112.1
 31
0.0
  0
LINE
  5
2EB
330
2C7
100
AcDbEntity
  8
0
100
AcDbLine
 10
0.0
 20
107.6
 30
0.0
 11
120.0
 21
107.6
 31
0.0
  0
TEXT
  5
2EC
330
2C7
100
AcDbEntity
  8
0
100
AcDbText
 10
3.0
 20
105.6
 30
0.0
 40
2.2
  1
CONTROL DE REVISIONES
  7
ARIAL
 11
3.0
 21
105.6
 31
0.0
100
AcDbText
 73
3
  0
LINE
  5
2ED
330
2C7
100
AcDbEntity
  8
0
100
AcDbLine
 10
0.0
 20
101.6
 30
0.0
 11
120.0
 21
101.6
 31
0.0
  0
TEXT
  5
2EE
330
2C7
100
AcDbEntity
  8
0
100
AcDbText
 10
6.0
 20
99.1
 30
0.0
 40
2.0
  1
REV.
  7
ARIAL
 72
1
 11
6.0
 21
99.1
 31
0.0
100
AcDbText
 73
2
  0
TEXT
  5
2EF
330
2C7
100
AcDbEntity
  8
0
100
AcDbText
 10
23.0
 20
99.1
 30
0.0
 40
2.0
  1
FECHA
  7
ARIAL
 72
1
 11
23.0
 21
99.1
 31
0.0
100
AcDbText
 73
2
  0
TEXT
  5
2F0
330
2C7
100
AcDbEntity
  8
0
100
AcDbText
 10
77.0
 20
99.1
 30
0.0
 40
2.0
  1
DESCRIPCIÓN
  7
ARIAL
 72
1
 11
77.0
 21
99.1
 31
0.0
100
AcDbText
 73
2
  0
LINE
  5
2F1
330
2C7
100
AcDbEntity
  8
0
100
AcDbLine
 10
0.0
 20
96.6
 30
0.0
 11
120.0
 21
96.6
 31
0.0
  0
ATTDEF
  5
2F2
330
2C7
100
AcDbEntity
  8
0
100
AcDbText
 10
6.0
 20
94.0
 30
0.0
 40
2.0
  1

  7
ARIAL
 72
1
 11
6.0
 21
94.0
 31
0.0
100
AcDbAttributeDefinition
  3

  2
REV0_N
 70
0
 74
2
 71
1
 72
0
 11
6.0
 21
94.0
 31
0.0
  0
ATTDEF
  5
2F3
330
2C7
100
AcDbEntity
  8
0
100
AcDbText
 10
23.0
 20
94.0
 30
0.0
 40
2.0
  1

  7
ARIAL
 72
1
 11
23.0
 21
94.0
 31
0.0
100
AcDbAttributeDefinition
  3

  2
REV0_F
 70
0
 74
2
 71
1
 72
0
 11
23.0
 21
94.0
 31
0.0
  0
ATTDEF
  5
2F4
330
2C7
100
AcDbEntity
  8
0
100
AcDbText
 10
35.5
 20
94.0
 30
0.0
 40
2.0
  1

  7
ARIAL
 11
35.5
 21
94.0
 31
0.0
100
AcDbAttributeDefinition
  3

  2
REV0_D
 70
0
 74
2
 71
1
 72
0
 11
35.5
 21
94.0
 31
0.0
  0
LINE
  5
2F5
330
2C7
100
AcDbEntity
  8
0
100
AcDbLine
 10
0.0
 20
91.39999999999999
 30
0.0
 11
120.0
 21
91.39999999999999
 31
0.0
  0
ATTDEF
  5
2F6
330
2C7
100
AcDbEntity
  8
0
100
AcDbText
 10
6.0
 20
88.8
 30
0.0
 40
2.0
  1

  7
ARIAL
 72
1
 11
6.0
 21
88.8
 31
0.0
100
AcDbAttributeDefinition
  3

  2
REV1_N
 70
0
 74
2
 71
1
 72
0
 11
6.0
 21
88.8
 31
0.0
  0
ATTDEF
  5
2F7
330
2C7
100
AcDbEntity
  8
0
100
AcDbText
 10
23.0
 20
88.8
 30
0.0
 40
2.0
  1

  7
ARIAL
 72
1
 11
23.0
 21
88.8
 31
0.0
100
AcDbAttributeDefinition
  3

  2
REV1_F
 70
0
 74
2
 71
1
 72
0
 11
23.0
 21
88.8
 31
0.0
  0
ATTDEF
  5
2F8
330
2C7
100
AcDbEntity
  8
0
100
AcDbText
 10
35.5
 20
88.8
 30
0.0
 40
2.0
  1

  7
ARIAL
 11
35.5
 21
88.8
 31
0.0
100
AcDbAttributeDefinition
  3

  2
REV1_D
 70
0
 74
2
 71
1
 72
0
 11
35.5
 21
88.8
 31
0.0
  0
LINE
  5
2F9
330
2C7
100
AcDbEntity
  8
0
100
AcDbLine
 10
0.0
 20
86.19999999999999
 30
0.0
 11
120.0
 21
86.19999999999999
 31
0.0
  0
ATTDEF
  5
2FA
330
2C7
100
AcDbEntity
  8
0
100
AcDbText
 10
6.0
 20
83.6
 30
0.0
 40
2.0
  1

  7
ARIAL
 72
1
 11
6.0
 21
83.6
 31
0.0
100
AcDbAttributeDefinition
  3

  2
REV2_N
 70
0
 74
2
 71
1
 72
0
 11
6.0
 21
83.6
 31
0.0
  0
ATTDEF
  5
2FB
330
2C7
100
AcDbEntity
  8
0
100
AcDbText
 10
23.0
 20
83.6
 30
0.0
 40
2.0
  1

  7
ARIAL
 72
1
 11
23.0
 21
83.6
 31
0.0
100
AcDbAttributeDefinition
  3

  2
REV2_F
 70
0
 74
2
 71
1
 72
0
 11
23.0
 21
83.6
 31
0.0
  0
ATTDEF
  5
2FC
330
2C7
100
AcDbEntity
  8
0
100
AcDbText
 10
35.5
 20
83.6
 30
0.0
 40
2.0
  1

  7
ARIAL
 11
35.5
 21
83.6
 31
0.0
100
AcDbAttributeDefinition
  3

  2
REV2_D
 70
0
 74
2
 71
1
 72
0
 11
35.5
 21
83.6
 31
0.0
  0
LINE
  5
2FD
330
2C7
100
AcDbEntity
  8
0
100
AcDbLine
 10
0.0
 20
80.99999999999999
 30
0.0
 11
120.0
 21
80.99999999999999
 31
0.0
  0
LINE
  5
2FE
330
2C7
100
AcDbEntity
  8
0
100
AcDbLine
 10
12.0
 20
101.6
 30
0.0
 11
12.0
 21
80.99999999999999
 31
0.0
  0
LINE
  5
2FF
330
2C7
100
AcDbEntity
  8
0
100
AcDbLine
 10
34.0
 20
101.6
 30
0.0
 11
34.0
 21
80.99999999999999
 31
0.0
  0
TEXT
  5
300
330
2C7
100
AcDbEntity
  8
0
100
AcDbText
 10
3.0
 20
78.49999999999999
 30
0.0
 40
2.2
  1
ESTADO:
  7
ARIAL
 11
3.0
 21
78.49999999999999
 31
0.0
100
AcDbText
 73
3
  0
ATTDEF
  5
301
330
2C7
100
AcDbEntity
  8
0
100
AcDbText
 10
60.0
 20
72.99999999999999
 30
0.0
 40
3.0
  1

  7
ARIAL
 72
1
 11
60.0
 21
72.99999999999999
 31
0.0
100
AcDbAttributeDefinition
  3

  2
ESTADO_1
 70
0
 74
3
 71
1
 72
0
 11
60.0
 21
72.99999999999999
 31
0.0
  0
ATTDEF
  5
302
330
2C7
100
AcDbEntity
  8
0
100
AcDbText
 10
60.0
 20
67.99999999999999
 30
0.0
 40
2.4
  1

  7
ARIAL
 72
1
 11
60.0
 21
67.99999999999999
 31
0.0
100
AcDbAttributeDefinition
  3

  2
ESTADO_2
 70
0
 74
3
 71
1
 72
0
 11
60.0
 21
67.99999999999999
 31
0.0
  0
LINE
  5
303
330
2C7
100
AcDbEntity
  8
0
100
AcDbLine
 10
0.0
 20
61.999999999999986
 30
0.0
 11
120.0
 21
61.999999999999986
 31
0.0
  0
LINE
  5
304
330
2C7
100
AcDbEntity
  8
0
100
AcDbLine
 10
0.0
 20
52.999999999999986
 30
0.0
 11
120.0
 21
52.999999999999986
 31
0.0
  0
LINE
  5
305
330
2C7
100
AcDbEntity
  8
0
100
AcDbLine
 10
0.0
 20
26.999999999999986
 30
0.0
 11
120.0
 21
26.999999999999986
 31
0.0
  0
LINE
  5
306
330
2C7
100
AcDbEntity
  8
0
100
AcDbLine
 10
66.0
 20
61.999999999999986
 30
0.0
 11
66.0
 21
0.0
 31
0.0
  0
TEXT
  5
307
330
2C7
100
AcDbEntity
  8
0
100
AcDbText
 10
33.0
 20
57.499999999999986
 30
0.0
 40
3.0
  1
LUGAR
  7
ARIAL
 72
1
 11
33.0
 21
57.499999999999986
 31
0.0
100
AcDbText
 73
2
  0
TEXT
  5
308
330
2C7
100
AcDbEntity
  8
0
100
AcDbText
 10
93.0
 20
57.499999999999986
 30
0.0
 40
3.0
  1
LÁMINA
  7
ARIAL
 72
1
 11
93.0
 21
57.499999999999986
 31
0.0
100
AcDbText
 73
2
  0
ATTDEF
  5
309
330
2C7
100
AcDbEntity
  8
0
100
AcDbText
 10
33.0
 20
39.999999999999986
 30
0.0
 40
5.0
  1

  7
ARIAL
 72
1
 11
33.0
 21
39.999999999999986
 31
0.0
100
AcDbAttributeDefinition
  3

  2
LUGAR
 70
0
 74
2
 71
1
 72
0
 11
33.0
 21
39.999999999999986
 31
0.0
  0
ATTDEF
  5
30A
330
2C7
100
AcDbEntity
  8
0
100
AcDbText
 10
93.0
 20
39.999999999999986
 30
0.0
 40
14.0
  1

  7
ARIAL
 72
1
 11
93.0
 21
39.999999999999986
 31
0.0
100
AcDbAttributeDefinition
  3

  2
LAMINA
 70
0
 74
2
 71
1
 72
0
 11
93.0
 21
39.999999999999986
 31
0.0
  0
ATTDEF
  5
30B
330
2C7
100
AcDbEntity
  8
0
100
AcDbText
 10
33.0
 20
13.499999999999993
 30
0.0
 40
6.0
  1

  7
ARIAL
 72
1
 11
33.0
 21
13.499999999999993
 31
0.0
100
AcDbAttributeDefinition
  3

  2
FECHA
 70
0
 74
2
 71
1
 72
0
 11
33.0
 21
13.499999999999993
 31
0.0
  0
TEXT
  5
30C
330
2C7
100
AcDbEntity
  8
0
100
AcDbText
 10
70.0
 20
13.499999999999993
 30
0.0
 40
3.0
  1
TOTAL
  7
ARIAL
 11
70.0
 21
13.499999999999993
 31
0.0
100
AcDbText
 73
2
  0
ATTDEF
  5
30D
330
2C7
100
AcDbEntity
  8
0
100
AcDbText
 10
104.0
 20
13.499999999999993
 30
0.0
 40
9.0
  1

  7
ARIAL
 72
1
 11
104.0
 21
13.499999999999993
 31
0.0
100
AcDbAttributeDefinition
  3

  2
TOTAL
 70
0
 74
2
 71
1
 72
0
 11
104.0
 21
13.499999999999993
 31
0.0
  0
ENDBLK
  5
2C9
330
2C7
100
AcDbEntity
  8
0
100
AcDbBlockEnd
  0
ENDSEC
  0
SECTION
  2
ENTITIES
  0
HATCH
  5
C1
330
17
100
AcDbEntity
  8
E-TRAMA
 62
7
100
AcDbHatch
 10
0.0
 20
0.0
 30
0.0
210
0.0
220
0.0
230
1.0
  2
AR-CONC
 70
0
 71
0
 91
1
 92
3
 72
0
 73
1
 93
4
 10
0.0
 20
-1.05
 10
1.65
 20
-1.05
 10
1.65
 20
-0.8
 10
0.0
 20
-0.8
 97
0
 75
1
 76
1
 52
0.0
 41
0.004
 77
0
 78
13
 53
50.0
 43
0.0
 44
0.0
 45
0.728738676
 46
-0.0637563422
 79
2
 49
0.0762
 49
-0.8382
 53
355.0
 43
0.0
 44
0.0
 45
-0.1409736857
 46
0.764227381
 79
2
 49
0.06096
 49
-0.6705623367
 53
100.4514447
 43
0.060728028
 44
-0.005313014
 45
0.5877649884
 46
0.7004710076
 79
2
 49
0.0647600352
 49
-0.7123609784
 53
46.1842
 43
0.0
 44
0.2032
 45
1.0843161636
 46
-0.1681693117
 79
2
 49
0.1143
 49
-1.2573
 53
96.63555761
 43
0.0903596
 44
0.189186
 45
0.9496165362
 46
0.9897044984
 79
2
 49
0.0971400926
 49
-1.0685424326
 53
351.18415117
 43
0.0
 44
0.2032
 45
0.9496165363
 46
0.9897044983
 79
2
 49
0.0914398683
 49
-1.0058389277
 53
21.0
 43
0.1016
 44
0.1524
 45
0.6064575651
 46
-0.4090607927
 79
2
 49
0.0762
 49
-0.8382
 53
326.0
 43
0.1016
 44
0.1524
 45
0.2472081134
 46
0.7367518645
 79
2
 49
0.06096
 49
-0.67056
 53
71.451445
 43
0.1521381304
 44
0.1183116004
 45
0.8536656771
 46
0.3276910755
 79
2
 49
0.0647600352
 49
-0.7123597504
 53
37.5
 43
0.0
 44
0.0
 45
0.012354413
 46
0.3382201555
 79
6
 49
0.0
 49
-0.662432
 49
0.0
 49
-0.68072
 49
0.0
 49
-0.6731
 53
7.5
 43
0.0
 44
0.0
 45
0.26727865
 46
0.4007222993
 79
6
 49
0.0
 49
-0.388112
 49
0.0
 49
-0.647192
 49
0.0
 49
-0.25654
 53
-32.5
 43
-0.226568
 44
0.0
 45
0.5423623807
 46
-0.022914976
 79
6
 49
0.0
 49
-0.254
 49
0.0
 49
-0.79248
 49
0.0
 49
-1.05156
 53
-42.5
 43
-0.328168
 44
0.0
 45
0.5925167255
 46
0.1017059641
 79
6
 49
0.0
 49
-0.3302
 49
0.0
 49
-0.526288
 49
0.0
 49
-0.74676
 98
0
  0
LWPOLYLINE
  5
C2
330
17
100
AcDbEntity
  8
E-DET
100
AcDbPolyline
 90
4
 70
1
 10
0.0
 20
-1.05
 10
1.65
 20
-1.05
 10
1.65
 20
-0.8
 10
0.0
 20
-0.8
  0
HATCH
  5
C3
330
17
100
AcDbEntity
  8
E-TRAMA
 62
7
100
AcDbHatch
 10
0.0
 20
0.0
 30
0.0
210
0.0
220
0.0
230
1.0
  2
AR-CONC
 70
0
 71
0
 91
1
 92
3
 72
0
 73
1
 93
4
 10
0.6749999999999999
 20
-0.8
 10
0.9749999999999999
 20
-0.8
 10
0.9749999999999999
 20
0.0
 10
0.6749999999999999
 20
0.0
 97
0
 75
1
 76
1
 52
0.0
 41
0.004
 77
0
 78
13
 53
50.0
 43
0.0
 44
0.0
 45
0.728738676
 46
-0.0637563422
 79
2
 49
0.0762
 49
-0.8382
 53
355.0
 43
0.0
 44
0.0
 45
-0.1409736857
 46
0.764227381
 79
2
 49
0.06096
 49
-0.6705623367
 53
100.4514447
 43
0.060728028
 44
-0.005313014
 45
0.5877649884
 46
0.7004710076
 79
2
 49
0.0647600352
 49
-0.7123609784
 53
46.1842
 43
0.0
 44
0.2032
 45
1.0843161636
 46
-0.1681693117
 79
2
 49
0.1143
 49
-1.2573
 53
96.63555761
 43
0.0903596
 44
0.189186
 45
0.9496165362
 46
0.9897044984
 79
2
 49
0.0971400926
 49
-1.0685424326
 53
351.18415117
 43
0.0
 44
0.2032
 45
0.9496165363
 46
0.9897044983
 79
2
 49
0.0914398683
 49
-1.0058389277
 53
21.0
 43
0.1016
 44
0.1524
 45
0.6064575651
 46
-0.4090607927
 79
2
 49
0.0762
 49
-0.8382
 53
326.0
 43
0.1016
 44
0.1524
 45
0.2472081134
 46
0.7367518645
 79
2
 49
0.06096
 49
-0.67056
 53
71.451445
 43
0.1521381304
 44
0.1183116004
 45
0.8536656771
 46
0.3276910755
 79
2
 49
0.0647600352
 49
-0.7123597504
 53
37.5
 43
0.0
 44
0.0
 45
0.012354413
 46
0.3382201555
 79
6
 49
0.0
 49
-0.662432
 49
0.0
 49
-0.68072
 49
0.0
 49
-0.6731
 53
7.5
 43
0.0
 44
0.0
 45
0.26727865
 46
0.4007222993
 79
6
 49
0.0
 49
-0.388112
 49
0.0
 49
-0.647192
 49
0.0
 49
-0.25654
 53
-32.5
 43
-0.226568
 44
0.0
 45
0.5423623807
 46
-0.022914976
 79
6
 49
0.0
 49
-0.254
 49
0.0
 49
-0.79248
 49
0.0
 49
-1.05156
 53
-42.5
 43
-0.328168
 44
0.0
 45
0.5925167255
 46
0.1017059641
 79
6
 49
0.0
 49
-0.3302
 49
0.0
 49
-0.526288
 49
0.0
 49
-0.74676
 98
0
  0
LWPOLYLINE
  5
C4
330
17
100
AcDbEntity
  8
E-DET
100
AcDbPolyline
 90
4
 70
1
 10
0.6749999999999999
 20
-0.8
 10
0.9749999999999999
 20
-0.8
 10
0.9749999999999999
 20
0.0
 10
0.6749999999999999
 20
0.0
  0
LWPOLYLINE
  5
C5
330
17
100
AcDbEntity
  8
E-DET
100
AcDbPolyline
 90
4
 70
1
 10
0.7499999999999999
 20
0.012
 10
0.8999999999999999
 20
0.012
 10
0.8999999999999999
 20
0.38
 10
0.7499999999999999
 20
0.38
  0
LINE
  5
C6
330
17
100
AcDbEntity
  8
E-REF
100
AcDbLine
 10
0.7539999999999999
 20
0.012
 30
0.0
 11
0.7539999999999999
 21
0.38
 31
0.0
  0
LINE
  5
C7
330
17
100
AcDbEntity
  8
E-REF
100
AcDbLine
 10
0.8959999999999999
 20
0.012
 30
0.0
 11
0.8959999999999999
 21
0.38
 31
0.0
  0
HATCH
  5
C8
330
17
100
AcDbEntity
  8
E-DET
 62
7
100
AcDbHatch
 10
0.0
 20
0.0
 30
0.0
210
0.0
220
0.0
230
1.0
  2
SOLID
 70
1
 71
0
 91
1
 92
3
 72
0
 73
1
 93
4
 10
0.69
 20
0.0
 10
0.96
 20
0.0
 10
0.96
 20
0.012
 10
0.69
 20
0.012
 97
0
 75
0
 76
1
 98
0
  0
LWPOLYLINE
  5
C9
330
17
100
AcDbEntity
  8
E-DET
100
AcDbPolyline
 90
4
 70
1
 10
0.69
 20
0.0
 10
0.96
 20
0.0
 10
0.96
 20
0.012
 10
0.69
 20
0.012
  0
LINE
  5
CA
330
17
100
AcDbEntity
  8
E-ACERO
100
AcDbLine
 10
0.05
 20
-0.85
 30
0.0
 11
0.05
 21
-1.0
 31
0.0
  0
LINE
  5
CB
330
17
100
AcDbEntity
  8
E-ACERO
100
AcDbLine
 10
0.05
 20
-1.0
 30
0.0
 11
1.5999999999999999
 21
-1.0
 31
0.0
  0
LINE
  5
CC
330
17
100
AcDbEntity
  8
E-ACERO
100
AcDbLine
 10
1.5999999999999999
 20
-1.0
 30
0.0
 11
1.5999999999999999
 21
-0.85
 31
0.0
  0
CIRCLE
  5
CD
330
17
100
AcDbEntity
  8
E-REF
100
AcDbCircle
 10
0.07
 20
-0.9872
 30
0.0
 40
0.0064
  0
HATCH
  5
CE
330
17
100
AcDbEntity
  8
E-REF
 62
7
100
AcDbHatch
 10
0.0
 20
0.0
 30
0.0
210
0.0
220
0.0
230
1.0
  2
SOLID
 70
1
 71
0
 91
1
 92
1
 93
1
 72
2
 10
0.07
 20
-0.9872
 40
0.0064
 50
0
 51
360
 73
1
 97
0
 75
0
 76
1
 98
0
  0
CIRCLE
  5
CF
330
17
100
AcDbEntity
  8
E-REF
100
AcDbCircle
 10
0.2857142857142857
 20
-0.9872
 30
0.0
 40
0.0064
  0
HATCH
  5
D0
330
17
100
AcDbEntity
  8
E-REF
 62
7
100
AcDbHatch
 10
0.0
 20
0.0
 30
0.0
210
0.0
220
0.0
230
1.0
  2
SOLID
 70
1
 71
0
 91
1
 92
1
 93
1
 72
2
 10
0.2857142857142857
 20
-0.9872
 40
0.0064
 50
0
 51
360
 73
1
 97
0
 75
0
 76
1
 98
0
  0
CIRCLE
  5
D1
330
17
100
AcDbEntity
  8
E-REF
100
AcDbCircle
 10
0.5014285714285713
 20
-0.9872
 30
0.0
 40
0.0064
  0
HATCH
  5
D2
330
17
100
AcDbEntity
  8
E-REF
 62
7
100
AcDbHatch
 10
0.0
 20
0.0
 30
0.0
210
0.0
220
0.0
230
1.0
  2
SOLID
 70
1
 71
0
 91
1
 92
1
 93
1
 72
2
 10
0.5014285714285713
 20
-0.9872
 40
0.0064
 50
0
 51
360
 73
1
 97
0
 75
0
 76
1
 98
0
  0
CIRCLE
  5
D3
330
17
100
AcDbEntity
  8
E-REF
100
AcDbCircle
 10
0.7171428571428571
 20
-0.9872
 30
0.0
 40
0.0064
  0
HATCH
  5
D4
330
17
100
AcDbEntity
  8
E-REF
 62
7
100
AcDbHatch
 10
0.0
 20
0.0
 30
0.0
210
0.0
220
0.0
230
1.0
  2
SOLID
 70
1
 71
0
 91
1
 92
1
 93
1
 72
2
 10
0.7171428571428571
 20
-0.9872
 40
0.0064
 50
0
 51
360
 73
1
 97
0
 75
0
 76
1
 98
0
  0
CIRCLE
  5
D5
330
17
100
AcDbEntity
  8
E-REF
100
AcDbCircle
 10
0.9328571428571428
 20
-0.9872
 30
0.0
 40
0.0064
  0
HATCH
  5
D6
330
17
100
AcDbEntity
  8
E-REF
 62
7
100
AcDbHatch
 10
0.0
 20
0.0
 30
0.0
210
0.0
220
0.0
230
1.0
  2
SOLID
 70
1
 71
0
 91
1
 92
1
 93
1
 72
2
 10
0.9328571428571428
 20
-0.9872
 40
0.0064
 50
0
 51
360
 73
1
 97
0
 75
0
 76
1
 98
0
  0
CIRCLE
  5
D7
330
17
100
AcDbEntity
  8
E-REF
100
AcDbCircle
 10
1.1485714285714286
 20
-0.9872
 30
0.0
 40
0.0064
  0
HATCH
  5
D8
330
17
100
AcDbEntity
  8
E-REF
 62
7
100
AcDbHatch
 10
0.0
 20
0.0
 30
0.0
210
0.0
220
0.0
230
1.0
  2
SOLID
 70
1
 71
0
 91
1
 92
1
 93
1
 72
2
 10
1.1485714285714286
 20
-0.9872
 40
0.0064
 50
0
 51
360
 73
1
 97
0
 75
0
 76
1
 98
0
  0
CIRCLE
  5
D9
330
17
100
AcDbEntity
  8
E-REF
100
AcDbCircle
 10
1.364285714285714
 20
-0.9872
 30
0.0
 40
0.0064
  0
HATCH
  5
DA
330
17
100
AcDbEntity
  8
E-REF
 62
7
100
AcDbHatch
 10
0.0
 20
0.0
 30
0.0
210
0.0
220
0.0
230
1.0
  2
SOLID
 70
1
 71
0
 91
1
 92
1
 93
1
 72
2
 10
1.364285714285714
 20
-0.9872
 40
0.0064
 50
0
 51
360
 73
1
 97
0
 75
0
 76
1
 98
0
  0
CIRCLE
  5
DB
330
17
100
AcDbEntity
  8
E-REF
100
AcDbCircle
 10
1.5799999999999998
 20
-0.9872
 30
0.0
 40
0.0064
  0
HATCH
  5
DC
330
17
100
AcDbEntity
  8
E-REF
 62
7
100
AcDbHatch
 10
0.0
 20
0.0
 30
0.0
210
0.0
220
0.0
230
1.0
  2
SOLID
 70
1
 71
0
 91
1
 92
1
 93
1
 72
2
 10
1.5799999999999998
 20
-0.9872
 40
0.0064
 50
0
 51
360
 73
1
 97
0
 75
0
 76
1
 98
0
  0
LINE
  5
DD
330
17
100
AcDbEntity
  8
E-ACERO
100
AcDbLine
 10
0.725
 20
-0.04
 30
0.0
 11
0.725
 21
-0.98
 31
0.0
  0
LINE
  5
DE
330
17
100
AcDbEntity
  8
E-ACERO
100
AcDbLine
 10
0.725
 20
-0.98
 30
0.0
 11
0.975
 21
-0.98
 31
0.0
  0
LINE
  5
DF
330
17
100
AcDbEntity
  8
E-ACERO
100
AcDbLine
 10
0.9249999999999998
 20
-0.04
 30
0.0
 11
0.9249999999999998
 21
-0.98
 31
0.0
  0
LINE
  5
E0
330
17
100
AcDbEntity
  8
E-ACERO
100
AcDbLine
 10
0.9249999999999998
 20
-0.98
 30
0.0
 11
0.6749999999999998
 21
-0.98
 31
0.0
  0
LINE
  5
E1
330
17
100
AcDbEntity
  8
E-ACERO
100
AcDbLine
 10
0.71
 20
-0.06
 30
0.0
 11
0.9399999999999998
 21
-0.06
 31
0.0
  0
LINE
  5
E2
330
17
100
AcDbEntity
  8
E-ACERO
100
AcDbLine
 10
0.71
 20
-0.16
 30
0.0
 11
0.9399999999999998
 21
-0.16
 31
0.0
  0
LINE
  5
E3
330
17
100
AcDbEntity
  8
E-ACERO
100
AcDbLine
 10
0.71
 20
-0.26
 30
0.0
 11
0.9399999999999998
 21
-0.26
 31
0.0
  0
LINE
  5
E4
330
17
100
AcDbEntity
  8
E-ACERO
100
AcDbLine
 10
0.71
 20
-0.36000000000000004
 30
0.0
 11
0.9399999999999998
 21
-0.36000000000000004
 31
0.0
  0
LINE
  5
E5
330
17
100
AcDbEntity
  8
E-ACERO
100
AcDbLine
 10
0.71
 20
-0.46
 30
0.0
 11
0.9399999999999998
 21
-0.46
 31
0.0
  0
LINE
  5
E6
330
17
100
AcDbEntity
  8
E-ACERO
100
AcDbLine
 10
0.71
 20
-0.56
 30
0.0
 11
0.9399999999999998
 21
-0.56
 31
0.0
  0
LINE
  5
E7
330
17
100
AcDbEntity
  8
E-ACERO
100
AcDbLine
 10
0.71
 20
-0.6600000000000001
 30
0.0
 11
0.9399999999999998
 21
-0.6600000000000001
 31
0.0
  0
LINE
  5
E8
330
17
100
AcDbEntity
  8
E-ACERO
100
AcDbLine
 10
0.71
 20
-0.76
 30
0.0
 11
0.9399999999999998
 21
-0.76
 31
0.0
  0
LINE
  5
E9
330
17
100
AcDbEntity
  8
E-TERRENO
100
AcDbLine
 10
-0.25
 20
0.0
 30
0.0
 11
1.9
 21
0.0
 31
0.0
  0
DIMENSION
  5
EA
330
17
100
AcDbEntity
  8
E-COTA
100
AcDbDimension
280
0
  2
*D1
  3
COTA-15
 10
0.0
 20
0.55
 30
0.0
 11
0.825
 21
0.5785
 31
0.0
 70
32
 71
5
  1
<>
100
AcDbAlignedDimension
 13
0.0
 23
0.4
 33
0.0
 14
1.65
 24
0.4
 34
0.0
 50
0.0
100
AcDbRotatedDimension
  0
DIMENSION
  5
FD
330
17
100
AcDbEntity
  8
E-COTA
100
AcDbDimension
280
0
  2
*D2
  3
COTA-15
 10
0.0
 20
0.47
 30
0.0
 11
0.33749999999999997
 21
0.4985
 31
0.0
 70
32
 71
5
  1
<>
100
AcDbAlignedDimension
 13
0.0
 23
0.4
 33
0.0
 14
0.6749999999999999
 24
0.4
 34
0.0
 50
0.0
100
AcDbRotatedDimension
  0
DIMENSION
  5
10C
330
17
100
AcDbEntity
  8
E-COTA
100
AcDbDimension
280
0
  2
*D3
  3
COTA-15
 10
0.6749999999999999
 20
0.47
 30
0.0
 11
0.825
 21
0.4985
 31
0.0
 70
32
 71
5
  1
<>
100
AcDbAlignedDimension
 13
0.6749999999999999
 23
0.4
 33
0.0
 14
0.9749999999999999
 24
0.4
 34
0.0
 50
0.0
100
AcDbRotatedDimension
  0
DIMENSION
  5
11B
330
17
100
AcDbEntity
  8
E-COTA
100
AcDbDimension
280
0
  2
*D4
  3
COTA-15
 10
0.9749999999999999
 20
0.47
 30
0.0
 11
1.3125
 21
0.4985
 31
0.0
 70
32
 71
5
  1
<>
100
AcDbAlignedDimension
 13
0.9749999999999999
 23
0.4
 33
0.0
 14
1.65
 24
0.4
 34
0.0
 50
0.0
100
AcDbRotatedDimension
  0
DIMENSION
  5
12A
330
17
100
AcDbEntity
  8
E-COTA
100
AcDbDimension
280
0
  2
*D5
  3
COTA-15
 10
-0.15
 20
-0.8
 30
0.0
 11
-0.1785
 21
-0.4
 31
0.0
 70
32
 71
5
  1
<>
100
AcDbAlignedDimension
 13
0.0
 23
-0.8
 33
0.0
 14
0.0
 24
0.0
 34
0.0
 50
90.0
100
AcDbRotatedDimension
  0
DIMENSION
  5
139
330
17
100
AcDbEntity
  8
E-COTA
100
AcDbDimension
280
0
  2
*D6
  3
COTA-15
 10
-0.15
 20
-1.05
 30
0.0
 11
-0.1785
 21
-0.925
 31
0.0
 70
32
 71
5
  1
<>
100
AcDbAlignedDimension
 13
0.0
 23
-1.05
 33
0.0
 14
0.0
 24
-0.8
 34
0.0
 50
90.0
100
AcDbRotatedDimension
  0
HATCH
  5
148
330
17
100
AcDbEntity
  8
E-TRAMA
 62
7
100
AcDbHatch
 10
0.0
 20
0.0
 30
0.0
210
0.0
220
0.0
230
1.0
  2
AR-CONC
 70
0
 71
0
 91
1
 92
3
 72
0
 73
1
 93
4
 10
4.0
 20
-1.05
 10
5.65
 20
-1.05
 10
5.65
 20
-0.8
 10
4.0
 20
-0.8
 97
0
 75
1
 76
1
 52
0.0
 41
0.004
 77
0
 78
13
 53
50.0
 43
0.0
 44
0.0
 45
0.728738676
 46
-0.0637563422
 79
2
 49
0.0762
 49
-0.8382
 53
355.0
 43
0.0
 44
0.0
 45
-0.1409736857
 46
0.764227381
 79
2
 49
0.06096
 49
-0.6705623367
 53
100.4514447
 43
0.060728028
 44
-0.005313014
 45
0.5877649884
 46
0.7004710076
 79
2
 49
0.0647600352
 49
-0.7123609784
 53
46.1842
 43
0.0
 44
0.2032
 45
1.0843161636
 46
-0.1681693117
 79
2
 49
0.1143
 49
-1.2573
 53
96.63555761
 43
0.0903596
 44
0.189186
 45
0.9496165362
 46
0.9897044984
 79
2
 49
0.0971400926
 49
-1.0685424326
 53
351.18415117
 43
0.0
 44
0.2032
 45
0.9496165363
 46
0.9897044983
 79
2
 49
0.0914398683
 49
-1.0058389277
 53
21.0
 43
0.1016
 44
0.1524
 45
0.6064575651
 46
-0.4090607927
 79
2
 49
0.0762
 49
-0.8382
 53
326.0
 43
0.1016
 44
0.1524
 45
0.2472081134
 46
0.7367518645
 79
2
 49
0.06096
 49
-0.67056
 53
71.451445
 43
0.1521381304
 44
0.1183116004
 45
0.8536656771
 46
0.3276910755
 79
2
 49
0.0647600352
 49
-0.7123597504
 53
37.5
 43
0.0
 44
0.0
 45
0.012354413
 46
0.3382201555
 79
6
 49
0.0
 49
-0.662432
 49
0.0
 49
-0.68072
 49
0.0
 49
-0.6731
 53
7.5
 43
0.0
 44
0.0
 45
0.26727865
 46
0.4007222993
 79
6
 49
0.0
 49
-0.388112
 49
0.0
 49
-0.647192
 49
0.0
 49
-0.25654
 53
-32.5
 43
-0.226568
 44
0.0
 45
0.5423623807
 46
-0.022914976
 79
6
 49
0.0
 49
-0.254
 49
0.0
 49
-0.79248
 49
0.0
 49
-1.05156
 53
-42.5
 43
-0.328168
 44
0.0
 45
0.5925167255
 46
0.1017059641
 79
6
 49
0.0
 49
-0.3302
 49
0.0
 49
-0.526288
 49
0.0
 49
-0.74676
 98
0
  0
LWPOLYLINE
  5
149
330
17
100
AcDbEntity
  8
E-DET
100
AcDbPolyline
 90
4
 70
1
 10
4.0
 20
-1.05
 10
5.65
 20
-1.05
 10
5.65
 20
-0.8
 10
4.0
 20
-0.8
  0
HATCH
  5
14A
330
17
100
AcDbEntity
  8
E-TRAMA
 62
7
100
AcDbHatch
 10
0.0
 20
0.0
 30
0.0
210
0.0
220
0.0
230
1.0
  2
AR-CONC
 70
0
 71
0
 91
1
 92
3
 72
0
 73
1
 93
4
 10
4.0
 20
-0.8
 10
4.3
 20
-0.8
 10
4.3
 20
0.0
 10
4.0
 20
0.0
 97
0
 75
1
 76
1
 52
0.0
 41
0.004
 77
0
 78
13
 53
50.0
 43
0.0
 44
0.0
 45
0.728738676
 46
-0.0637563422
 79
2
 49
0.0762
 49
-0.8382
 53
355.0
 43
0.0
 44
0.0
 45
-0.1409736857
 46
0.764227381
 79
2
 49
0.06096
 49
-0.6705623367
 53
100.4514447
 43
0.060728028
 44
-0.005313014
 45
0.5877649884
 46
0.7004710076
 79
2
 49
0.0647600352
 49
-0.7123609784
 53
46.1842
 43
0.0
 44
0.2032
 45
1.0843161636
 46
-0.1681693117
 79
2
 49
0.1143
 49
-1.2573
 53
96.63555761
 43
0.0903596
 44
0.189186
 45
0.9496165362
 46
0.9897044984
 79
2
 49
0.0971400926
 49
-1.0685424326
 53
351.18415117
 43
0.0
 44
0.2032
 45
0.9496165363
 46
0.9897044983
 79
2
 49
0.0914398683
 49
-1.0058389277
 53
21.0
 43
0.1016
 44
0.1524
 45
0.6064575651
 46
-0.4090607927
 79
2
 49
0.0762
 49
-0.8382
 53
326.0
 43
0.1016
 44
0.1524
 45
0.2472081134
 46
0.7367518645
 79
2
 49
0.06096
 49
-0.67056
 53
71.451445
 43
0.1521381304
 44
0.1183116004
 45
0.8536656771
 46
0.3276910755
 79
2
 49
0.0647600352
 49
-0.7123597504
 53
37.5
 43
0.0
 44
0.0
 45
0.012354413
 46
0.3382201555
 79
6
 49
0.0
 49
-0.662432
 49
0.0
 49
-0.68072
 49
0.0
 49
-0.6731
 53
7.5
 43
0.0
 44
0.0
 45
0.26727865
 46
0.4007222993
 79
6
 49
0.0
 49
-0.388112
 49
0.0
 49
-0.647192
 49
0.0
 49
-0.25654
 53
-32.5
 43
-0.226568
 44
0.0
 45
0.5423623807
 46
-0.022914976
 79
6
 49
0.0
 49
-0.254
 49
0.0
 49
-0.79248
 49
0.0
 49
-1.05156
 53
-42.5
 43
-0.328168
 44
0.0
 45
0.5925167255
 46
0.1017059641
 79
6
 49
0.0
 49
-0.3302
 49
0.0
 49
-0.526288
 49
0.0
 49
-0.74676
 98
0
  0
LWPOLYLINE
  5
14B
330
17
100
AcDbEntity
  8
E-DET
100
AcDbPolyline
 90
4
 70
1
 10
4.0
 20
-0.8
 10
4.3
 20
-0.8
 10
4.3
 20
0.0
 10
4.0
 20
0.0
  0
LWPOLYLINE
  5
14C
330
17
100
AcDbEntity
  8
E-DET
100
AcDbPolyline
 90
4
 70
1
 10
4.0
 20
0.012
 10
4.15
 20
0.012
 10
4.15
 20
0.38
 10
4.0
 20
0.38
  0
LINE
  5
14D
330
17
100
AcDbEntity
  8
E-REF
100
AcDbLine
 10
4.004
 20
0.012
 30
0.0
 11
4.004
 21
0.38
 31
0.0
  0
LINE
  5
14E
330
17
100
AcDbEntity
  8
E-REF
100
AcDbLine
 10
4.146000000000001
 20
0.012
 30
0.0
 11
4.146000000000001
 21
0.38
 31
0.0
  0
HATCH
  5
14F
330
17
100
AcDbEntity
  8
E-DET
 62
7
100
AcDbHatch
 10
0.0
 20
0.0
 30
0.0
210
0.0
220
0.0
230
1.0
  2
SOLID
 70
1
 71
0
 91
1
 92
3
 72
0
 73
1
 93
4
 10
4.0
 20
0.0
 10
4.27
 20
0.0
 10
4.27
 20
0.012
 10
4.0
 20
0.012
 97
0
 75
0
 76
1
 98
0
  0
LWPOLYLINE
  5
150
330
17
100
AcDbEntity
  8
E-DET
100
AcDbPolyline
 90
4
 70
1
 10
4.0
 20
0.0
 10
4.27
 20
0.0
 10
4.27
 20
0.012
 10
4.0
 20
0.012
  0
LINE
  5
151
330
17
100
AcDbEntity
  8
E-ACERO
100
AcDbLine
 10
4.05
 20
-0.85
 30
0.0
 11
4.05
 21
-1.0
 31
0.0
  0
LINE
  5
152
330
17
100
AcDbEntity
  8
E-ACERO
100
AcDbLine
 10
4.05
 20
-1.0
 30
0.0
 11
5.6000000000000005
 21
-1.0
 31
0.0
  0
LINE
  5
153
330
17
100
AcDbEntity
  8
E-ACERO
100
AcDbLine
 10
5.6000000000000005
 20
-1.0
 30
0.0
 11
5.6000000000000005
 21
-0.85
 31
0.0
  0
CIRCLE
  5
154
330
17
100
AcDbEntity
  8
E-REF
100
AcDbCircle
 10
4.069999999999999
 20
-0.9872
 30
0.0
 40
0.0064
  0
HATCH
  5
155
330
17
100
AcDbEntity
  8
E-REF
 62
7
100
AcDbHatch
 10
0.0
 20
0.0
 30
0.0
210
0.0
220
0.0
230
1.0
  2
SOLID
 70
1
 71
0
 91
1
 92
1
 93
1
 72
2
 10
4.069999999999999
 20
-0.9872
 40
0.0064
 50
0
 51
360
 73
1
 97
0
 75
0
 76
1
 98
0
  0
CIRCLE
  5
156
330
17
100
AcDbEntity
  8
E-REF
100
AcDbCircle
 10
4.285714285714285
 20
-0.9872
 30
0.0
 40
0.0064
  0
HATCH
  5
157
330
17
100
AcDbEntity
  8
E-REF
 62
7
100
AcDbHatch
 10
0.0
 20
0.0
 30
0.0
210
0.0
220
0.0
230
1.0
  2
SOLID
 70
1
 71
0
 91
1
 92
1
 93
1
 72
2
 10
4.285714285714285
 20
-0.9872
 40
0.0064
 50
0
 51
360
 73
1
 97
0
 75
0
 76
1
 98
0
  0
CIRCLE
  5
158
330
17
100
AcDbEntity
  8
E-REF
100
AcDbCircle
 10
4.501428571428571
 20
-0.9872
 30
0.0
 40
0.0064
  0
HATCH
  5
159
330
17
100
AcDbEntity
  8
E-REF
 62
7
100
AcDbHatch
 10
0.0
 20
0.0
 30
0.0
210
0.0
220
0.0
230
1.0
  2
SOLID
 70
1
 71
0
 91
1
 92
1
 93
1
 72
2
 10
4.501428571428571
 20
-0.9872
 40
0.0064
 50
0
 51
360
 73
1
 97
0
 75
0
 76
1
 98
0
  0
CIRCLE
  5
15A
330
17
100
AcDbEntity
  8
E-REF
100
AcDbCircle
 10
4.717142857142856
 20
-0.9872
 30
0.0
 40
0.0064
  0
HATCH
  5
15B
330
17
100
AcDbEntity
  8
E-REF
 62
7
100
AcDbHatch
 10
0.0
 20
0.0
 30
0.0
210
0.0
220
0.0
230
1.0
  2
SOLID
 70
1
 71
0
 91
1
 92
1
 93
1
 72
2
 10
4.717142857142856
 20
-0.9872
 40
0.0064
 50
0
 51
360
 73
1
 97
0
 75
0
 76
1
 98
0
  0
CIRCLE
  5
15C
330
17
100
AcDbEntity
  8
E-REF
100
AcDbCircle
 10
4.932857142857142
 20
-0.9872
 30
0.0
 40
0.0064
  0
HATCH
  5
15D
330
17
100
AcDbEntity
  8
E-REF
 62
7
100
AcDbHatch
 10
0.0
 20
0.0
 30
0.0
210
0.0
220
0.0
230
1.0
  2
SOLID
 70
1
 71
0
 91
1
 92
1
 93
1
 72
2
 10
4.932857142857142
 20
-0.9872
 40
0.0064
 50
0
 51
360
 73
1
 97
0
 75
0
 76
1
 98
0
  0
CIRCLE
  5
15E
330
17
100
AcDbEntity
  8
E-REF
100
AcDbCircle
 10
5.148571428571428
 20
-0.9872
 30
0.0
 40
0.0064
  0
HATCH
  5
15F
330
17
100
AcDbEntity
  8
E-REF
 62
7
100
AcDbHatch
 10
0.0
 20
0.0
 30
0.0
210
0.0
220
0.0
230
1.0
  2
SOLID
 70
1
 71
0
 91
1
 92
1
 93
1
 72
2
 10
5.148571428571428
 20
-0.9872
 40
0.0064
 50
0
 51
360
 73
1
 97
0
 75
0
 76
1
 98
0
  0
CIRCLE
  5
160
330
17
100
AcDbEntity
  8
E-REF
100
AcDbCircle
 10
5.364285714285714
 20
-0.9872
 30
0.0
 40
0.0064
  0
HATCH
  5
161
330
17
100
AcDbEntity
  8
E-REF
 62
7
100
AcDbHatch
 10
0.0
 20
0.0
 30
0.0
210
0.0
220
0.0
230
1.0
  2
SOLID
 70
1
 71
0
 91
1
 92
1
 93
1
 72
2
 10
5.364285714285714
 20
-0.9872
 40
0.0064
 50
0
 51
360
 73
1
 97
0
 75
0
 76
1
 98
0
  0
CIRCLE
  5
162
330
17
100
AcDbEntity
  8
E-REF
100
AcDbCircle
 10
5.579999999999999
 20
-0.9872
 30
0.0
 40
0.0064
  0
HATCH
  5
163
330
17
100
AcDbEntity
  8
E-REF
 62
7
100
AcDbHatch
 10
0.0
 20
0.0
 30
0.0
210
0.0
220
0.0
230
1.0
  2
SOLID
 70
1
 71
0
 91
1
 92
1
 93
1
 72
2
 10
5.579999999999999
 20
-0.9872
 40
0.0064
 50
0
 51
360
 73
1
 97
0
 75
0
 76
1
 98
0
  0
LINE
  5
164
330
17
100
AcDbEntity
  8
E-ACERO
100
AcDbLine
 10
4.05
 20
-0.04
 30
0.0
 11
4.05
 21
-0.98
 31
0.0
  0
LINE
  5
165
330
17
100
AcDbEntity
  8
E-ACERO
100
AcDbLine
 10
4.05
 20
-0.98
 30
0.0
 11
4.3
 21
-0.98
 31
0.0
  0
LINE
  5
166
330
17
100
AcDbEntity
  8
E-ACERO
100
AcDbLine
 10
4.25
 20
-0.04
 30
0.0
 11
4.25
 21
-0.98
 31
0.0
  0
LINE
  5
167
330
17
100
AcDbEntity
  8
E-ACERO
100
AcDbLine
 10
4.25
 20
-0.98
 30
0.0
 11
4.5
 21
-0.98
 31
0.0
  0
LINE
  5
168
330
17
100
AcDbEntity
  8
E-ACERO
100
AcDbLine
 10
4.035
 20
-0.06
 30
0.0
 11
4.265
 21
-0.06
 31
0.0
  0
LINE
  5
169
330
17
100
AcDbEntity
  8
E-ACERO
100
AcDbLine
 10
4.035
 20
-0.16
 30
0.0
 11
4.265
 21
-0.16
 31
0.0
  0
LINE
  5
16A
330
17
100
AcDbEntity
  8
E-ACERO
100
AcDbLine
 10
4.035
 20
-0.26
 30
0.0
 11
4.265
 21
-0.26
 31
0.0
  0
LINE
  5
16B
330
17
100
AcDbEntity
  8
E-ACERO
100
AcDbLine
 10
4.035
 20
-0.36000000000000004
 30
0.0
 11
4.265
 21
-0.36000000000000004
 31
0.0
  0
LINE
  5
16C
330
17
100
AcDbEntity
  8
E-ACERO
100
AcDbLine
 10
4.035
 20
-0.46
 30
0.0
 11
4.265
 21
-0.46
 31
0.0
  0
LINE
  5
16D
330
17
100
AcDbEntity
  8
E-ACERO
100
AcDbLine
 10
4.035
 20
-0.56
 30
0.0
 11
4.265
 21
-0.56
 31
0.0
  0
LINE
  5
16E
330
17
100
AcDbEntity
  8
E-ACERO
100
AcDbLine
 10
4.035
 20
-0.6600000000000001
 30
0.0
 11
4.265
 21
-0.6600000000000001
 31
0.0
  0
LINE
  5
16F
330
17
100
AcDbEntity
  8
E-ACERO
100
AcDbLine
 10
4.035
 20
-0.76
 30
0.0
 11
4.265
 21
-0.76
 31
0.0
  0
LINE
  5
170
330
17
100
AcDbEntity
  8
E-TERRENO
100
AcDbLine
 10
3.75
 20
0.0
 30
0.0
 11
5.9
 21
0.0
 31
0.0
  0
DIMENSION
  5
171
330
17
100
AcDbEntity
  8
E-COTA
100
AcDbDimension
280
0
  2
*D7
  3
COTA-15
 10
4.0
 20
0.55
 30
0.0
 11
4.825
 21
0.5785
 31
0.0
 70
32
 71
5
  1
<>
100
AcDbAlignedDimension
 13
4.0
 23
0.4
 33
0.0
 14
5.65
 24
0.4
 34
0.0
 50
0.0
100
AcDbRotatedDimension
  0
DIMENSION
  5
180
330
17
100
AcDbEntity
  8
E-COTA
100
AcDbDimension
280
0
  2
*D8
  3
COTA-15
 10
4.0
 20
0.47
 30
0.0
 11
4.15
 21
0.4985
 31
0.0
 70
32
 71
5
  1
<>
100
AcDbAlignedDimension
 13
4.0
 23
0.4
 33
0.0
 14
4.3
 24
0.4
 34
0.0
 50
0.0
100
AcDbRotatedDimension
  0
DIMENSION
  5
18F
330
17
100
AcDbEntity
  8
E-COTA
100
AcDbDimension
280
0
  2
*D9
  3
COTA-15
 10
4.3
 20
0.47
 30
0.0
 11
4.975
 21
0.4985
 31
0.0
 70
32
 71
5
  1
<>
100
AcDbAlignedDimension
 13
4.3
 23
0.4
 33
0.0
 14
5.65
 24
0.4
 34
0.0
 50
0.0
100
AcDbRotatedDimension
  0
DIMENSION
  5
19E
330
17
100
AcDbEntity
  8
E-COTA
100
AcDbDimension
280
0
  2
*D10
  3
COTA-15
 10
3.85
 20
-0.8
 30
0.0
 11
3.8215
 21
-0.4
 31
0.0
 70
32
 71
5
  1
<>
100
AcDbAlignedDimension
 13
4.0
 23
-0.8
 33
0.0
 14
4.0
 24
0.0
 34
0.0
 50
90.0
100
AcDbRotatedDimension
  0
DIMENSION
  5
1AD
330
17
100
AcDbEntity
  8
E-COTA
100
AcDbDimension
280
0
  2
*D11
  3
COTA-15
 10
3.85
 20
-1.05
 30
0.0
 11
3.8215
 21
-0.925
 31
0.0
 70
32
 71
5
  1
<>
100
AcDbAlignedDimension
 13
4.0
 23
-1.05
 33
0.0
 14
4.0
 24
-0.8
 34
0.0
 50
90.0
100
AcDbRotatedDimension
  0
LWPOLYLINE
  5
1BC
330
17
100
AcDbEntity
  8
E-DET
100
AcDbPolyline
 90
4
 70
1
 10
0.0
 20
-4.0
 10
1.65
 20
-4.0
 10
1.65
 20
-2.35
 10
0.0
 20
-2.35
  0
LINE
  5
1BD
330
17
100
AcDbEntity
  8
E-ACERO
100
AcDbLine
 10
0.07
 20
-3.95
 30
0.0
 11
0.07
 21
-2.4
 31
0.0
  0
LINE
  5
1BE
330
17
100
AcDbEntity
  8
E-ACERO
100
AcDbLine
 10
0.05
 20
-3.93
 30
0.0
 11
1.5999999999999999
 21
-3.93
 31
0.0
  0
LINE
  5
1BF
330
17
100
AcDbEntity
  8
E-ACERO
100
AcDbLine
 10
0.2857142857142857
 20
-3.95
 30
0.0
 11
0.2857142857142857
 21
-2.4
 31
0.0
  0
LINE
  5
1C0
330
17
100
AcDbEntity
  8
E-ACERO
100
AcDbLine
 10
0.05
 20
-3.7142857142857144
 30
0.0
 11
1.5999999999999999
 21
-3.7142857142857144
 31
0.0
  0
LINE
  5
1C1
330
17
100
AcDbEntity
  8
E-ACERO
100
AcDbLine
 10
0.5014285714285713
 20
-3.95
 30
0.0
 11
0.5014285714285713
 21
-2.4
 31
0.0
  0
LINE
  5
1C2
330
17
100
AcDbEntity
  8
E-ACERO
100
AcDbLine
 10
0.05
 20
-3.4985714285714287
 30
0.0
 11
1.5999999999999999
 21
-3.4985714285714287
 31
0.0
  0
LINE
  5
1C3
330
17
100
AcDbEntity
  8
E-ACERO
100
AcDbLine
 10
0.7171428571428571
 20
-3.95
 30
0.0
 11
0.7171428571428571
 21
-2.4
 31
0.0
  0
LINE
  5
1C4
330
17
100
AcDbEntity
  8
E-ACERO
100
AcDbLine
 10
0.05
 20
-3.282857142857143
 30
0.0
 11
1.5999999999999999
 21
-3.282857142857143
 31
0.0
  0
LINE
  5
1C5
330
17
100
AcDbEntity
  8
E-ACERO
100
AcDbLine
 10
0.9328571428571428
 20
-3.95
 30
0.0
 11
0.9328571428571428
 21
-2.4
 31
0.0
  0
LINE
  5
1C6
330
17
100
AcDbEntity
  8
E-ACERO
100
AcDbLine
 10
0.05
 20
-3.067142857142857
 30
0.0
 11
1.5999999999999999
 21
-3.067142857142857
 31
0.0
  0
LINE
  5
1C7
330
17
100
AcDbEntity
  8
E-ACERO
100
AcDbLine
 10
1.1485714285714286
 20
-3.95
 30
0.0
 11
1.1485714285714286
 21
-2.4
 31
0.0
  0
LINE
  5
1C8
330
17
100
AcDbEntity
  8
E-ACERO
100
AcDbLine
 10
0.05
 20
-2.8514285714285714
 30
0.0
 11
1.5999999999999999
 21
-2.8514285714285714
 31
0.0
  0
LINE
  5
1C9
330
17
100
AcDbEntity
  8
E-ACERO
100
AcDbLine
 10
1.364285714285714
 20
-3.95
 30
0.0
 11
1.364285714285714
 21
-2.4
 31
0.0
  0
LINE
  5
1CA
330
17
100
AcDbEntity
  8
E-ACERO
100
AcDbLine
 10
0.05
 20
-2.635714285714286
 30
0.0
 11
1.5999999999999999
 21
-2.635714285714286
 31
0.0
  0
LINE
  5
1CB
330
17
100
AcDbEntity
  8
E-ACERO
100
AcDbLine
 10
1.5799999999999998
 20
-3.95
 30
0.0
 11
1.5799999999999998
 21
-2.4
 31
0.0
  0
LINE
  5
1CC
330
17
100
AcDbEntity
  8
E-ACERO
100
AcDbLine
 10
0.05
 20
-2.42
 30
0.0
 11
1.5999999999999999
 21
-2.42
 31
0.0
  0
LWPOLYLINE
  5
1CD
330
17
100
AcDbEntity
  8
E-DET
100
AcDbPolyline
 90
4
 70
1
 10
0.6749999999999999
 20
-3.3249999999999997
 10
0.975
 20
-3.3249999999999997
 10
0.975
 20
-3.025
 10
0.6749999999999999
 20
-3.025
  0
LWPOLYLINE
  5
1CE
330
17
100
AcDbEntity
  8
E-REF
100
AcDbPolyline
 90
4
 70
1
 10
0.69
 20
-3.3099999999999996
 10
0.96
 20
-3.3099999999999996
 10
0.96
 20
-3.04
 10
0.69
 20
-3.04
  0
HATCH
  5
1CF
330
17
100
AcDbEntity
  8
E-DET
 62
7
100
AcDbHatch
 10
0.0
 20
0.0
 30
0.0
210
0.0
220
0.0
230
1.0
  2
SOLID
 70
1
 71
0
 91
1
 92
3
 72
0
 73
1
 93
4
 10
0.75
 20
-3.25
 10
0.9
 20
-3.25
 10
0.9
 20
-3.0999999999999996
 10
0.75
 20
-3.0999999999999996
 97
0
 75
0
 76
1
 98
0
  0
LWPOLYLINE
  5
1D0
330
17
100
AcDbEntity
  8
E-DET
100
AcDbPolyline
 90
4
 70
1
 10
0.75
 20
-3.25
 10
0.9
 20
-3.25
 10
0.9
 20
-3.0999999999999996
 10
0.75
 20
-3.0999999999999996
  0
DIMENSION
  5
1D1
330
17
100
AcDbEntity
  8
E-COTA
100
AcDbDimension
280
0
  2
*D12
  3
COTA-15
 10
0.0
 20
-2.2
 30
0.0
 11
0.825
 21
-2.1715
 31
0.0
 70
32
 71
5
  1
<>
100
AcDbAlignedDimension
 13
0.0
 23
-2.35
 33
0.0
 14
1.65
 24
-2.35
 34
0.0
 50
0.0
100
AcDbRotatedDimension
  0
DIMENSION
  5
1E0
330
17
100
AcDbEntity
  8
E-COTA
100
AcDbDimension
280
0
  2
*D13
  3
COTA-15
 10
1.7999999999999998
 20
-4.0
 30
0.0
 11
1.7714999999999999
 21
-3.175
 31
0.0
 70
32
 71
5
  1
<>
100
AcDbAlignedDimension
 13
1.65
 23
-4.0
 33
0.0
 14
1.65
 24
-2.35
 34
0.0
 50
90.0
100
AcDbRotatedDimension
  0
LWPOLYLINE
  5
1EF
330
17
100
AcDbEntity
  8
E-DET
100
AcDbPolyline
 90
4
 70
1
 10
4.0
 20
-4.0
 10
5.65
 20
-4.0
 10
5.65
 20
-2.35
 10
4.0
 20
-2.35
  0
LINE
  5
1F0
330
17
100
AcDbEntity
  8
E-ACERO
100
AcDbLine
 10
4.07
 20
-3.95
 30
0.0
 11
4.07
 21
-2.4
 31
0.0
  0
LINE
  5
1F1
330
17
100
AcDbEntity
  8
E-ACERO
100
AcDbLine
 10
4.05
 20
-3.93
 30
0.0
 11
5.6000000000000005
 21
-3.93
 31
0.0
  0
LINE
  5
1F2
330
17
100
AcDbEntity
  8
E-ACERO
100
AcDbLine
 10
4.285714285714286
 20
-3.95
 30
0.0
 11
4.285714285714286
 21
-2.4
 31
0.0
  0
LINE
  5
1F3
330
17
100
AcDbEntity
  8
E-ACERO
100
AcDbLine
 10
4.05
 20
-3.7142857142857144
 30
0.0
 11
5.6000000000000005
 21
-3.7142857142857144
 31
0.0
  0
LINE
  5
1F4
330
17
100
AcDbEntity
  8
E-ACERO
100
AcDbLine
 10
4.501428571428571
 20
-3.95
 30
0.0
 11
4.501428571428571
 21
-2.4
 31
0.0
  0
LINE
  5
1F5
330
17
100
AcDbEntity
  8
E-ACERO
100
AcDbLine
 10
4.05
 20
-3.4985714285714287
 30
0.0
 11
5.6000000000000005
 21
-3.4985714285714287
 31
0.0
  0
LINE
  5
1F6
330
17
100
AcDbEntity
  8
E-ACERO
100
AcDbLine
 10
4.717142857142857
 20
-3.95
 30
0.0
 11
4.717142857142857
 21
-2.4
 31
0.0
  0
LINE
  5
1F7
330
17
100
AcDbEntity
  8
E-ACERO
100
AcDbLine
 10
4.05
 20
-3.282857142857143
 30
0.0
 11
5.6000000000000005
 21
-3.282857142857143
 31
0.0
  0
LINE
  5
1F8
330
17
100
AcDbEntity
  8
E-ACERO
100
AcDbLine
 10
4.932857142857143
 20
-3.95
 30
0.0
 11
4.932857142857143
 21
-2.4
 31
0.0
  0
LINE
  5
1F9
330
17
100
AcDbEntity
  8
E-ACERO
100
AcDbLine
 10
4.05
 20
-3.067142857142857
 30
0.0
 11
5.6000000000000005
 21
-3.067142857142857
 31
0.0
  0
LINE
  5
1FA
330
17
100
AcDbEntity
  8
E-ACERO
100
AcDbLine
 10
5.148571428571429
 20
-3.95
 30
0.0
 11
5.148571428571429
 21
-2.4
 31
0.0
  0
LINE
  5
1FB
330
17
100
AcDbEntity
  8
E-ACERO
100
AcDbLine
 10
4.05
 20
-2.8514285714285714
 30
0.0
 11
5.6000000000000005
 21
-2.8514285714285714
 31
0.0
  0
LINE
  5
1FC
330
17
100
AcDbEntity
  8
E-ACERO
100
AcDbLine
 10
5.364285714285714
 20
-3.95
 30
0.0
 11
5.364285714285714
 21
-2.4
 31
0.0
  0
LINE
  5
1FD
330
17
100
AcDbEntity
  8
E-ACERO
100
AcDbLine
 10
4.05
 20
-2.635714285714286
 30
0.0
 11
5.6000000000000005
 21
-2.635714285714286
 31
0.0
  0
LINE
  5
1FE
330
17
100
AcDbEntity
  8
E-ACERO
100
AcDbLine
 10
5.58
 20
-3.95
 30
0.0
 11
5.58
 21
-2.4
 31
0.0
  0
LINE
  5
1FF
330
17
100
AcDbEntity
  8
E-ACERO
100
AcDbLine
 10
4.05
 20
-2.42
 30
0.0
 11
5.6000000000000005
 21
-2.42
 31
0.0
  0
LWPOLYLINE
  5
200
330
17
100
AcDbEntity
  8
E-DET
100
AcDbPolyline
 90
4
 70
1
 10
4.0
 20
-3.3249999999999997
 10
4.300000000000001
 20
-3.3249999999999997
 10
4.300000000000001
 20
-3.025
 10
4.0
 20
-3.025
  0
LWPOLYLINE
  5
201
330
17
100
AcDbEntity
  8
E-REF
100
AcDbPolyline
 90
4
 70
1
 10
4.0
 20
-3.3099999999999996
 10
4.27
 20
-3.3099999999999996
 10
4.27
 20
-3.04
 10
4.0
 20
-3.04
  0
HATCH
  5
202
330
17
100
AcDbEntity
  8
E-DET
 62
7
100
AcDbHatch
 10
0.0
 20
0.0
 30
0.0
210
0.0
220
0.0
230
1.0
  2
SOLID
 70
1
 71
0
 91
1
 92
3
 72
0
 73
1
 93
4
 10
4.0
 20
-3.25
 10
4.15
 20
-3.25
 10
4.15
 20
-3.0999999999999996
 10
4.0
 20
-3.0999999999999996
 97
0
 75
0
 76
1
 98
0
  0
LWPOLYLINE
  5
203
330
17
100
AcDbEntity
  8
E-DET
100
AcDbPolyline
 90
4
 70
1
 10
4.0
 20
-3.25
 10
4.15
 20
-3.25
 10
4.15
 20
-3.0999999999999996
 10
4.0
 20
-3.0999999999999996
  0
DIMENSION
  5
204
330
17
100
AcDbEntity
  8
E-COTA
100
AcDbDimension
280
0
  2
*D14
  3
COTA-15
 10
4.0
 20
-2.2
 30
0.0
 11
4.825
 21
-2.1715
 31
0.0
 70
32
 71
5
  1
<>
100
AcDbAlignedDimension
 13
4.0
 23
-2.35
 33
0.0
 14
5.65
 24
-2.35
 34
0.0
 50
0.0
100
AcDbRotatedDimension
  0
DIMENSION
  5
213
330
17
100
AcDbEntity
  8
E-COTA
100
AcDbDimension
280
0
  2
*D15
  3
COTA-15
 10
5.800000000000001
 20
-4.0
 30
0.0
 11
5.7715000000000005
 21
-3.175
 31
0.0
 70
32
 71
5
  1
<>
100
AcDbAlignedDimension
 13
5.65
 23
-4.0
 33
0.0
 14
5.65
 24
-2.35
 34
0.0
 50
90.0
100
AcDbRotatedDimension
  0
HATCH
  5
222
330
17
100
AcDbEntity
  8
E-TRAMA
 62
7
100
AcDbHatch
 10
0.0
 20
0.0
 30
0.0
210
0.0
220
0.0
230
1.0
  2
AR-CONC
 70
0
 71
0
 91
1
 92
3
 72
0
 73
1
 93
4
 10
8.0
 20
0.0
 10
8.3
 20
0.0
 10
8.3
 20
0.3
 10
8.0
 20
0.3
 97
0
 75
1
 76
1
 52
0.0
 41
0.004
 77
0
 78
13
 53
50.0
 43
0.0
 44
0.0
 45
0.728738676
 46
-0.0637563422
 79
2
 49
0.0762
 49
-0.8382
 53
355.0
 43
0.0
 44
0.0
 45
-0.1409736857
 46
0.764227381
 79
2
 49
0.06096
 49
-0.6705623367
 53
100.4514447
 43
0.060728028
 44
-0.005313014
 45
0.5877649884
 46
0.7004710076
 79
2
 49
0.0647600352
 49
-0.7123609784
 53
46.1842
 43
0.0
 44
0.2032
 45
1.0843161636
 46
-0.1681693117
 79
2
 49
0.1143
 49
-1.2573
 53
96.63555761
 43
0.0903596
 44
0.189186
 45
0.9496165362
 46
0.9897044984
 79
2
 49
0.0971400926
 49
-1.0685424326
 53
351.18415117
 43
0.0
 44
0.2032
 45
0.9496165363
 46
0.9897044983
 79
2
 49
0.0914398683
 49
-1.0058389277
 53
21.0
 43
0.1016
 44
0.1524
 45
0.6064575651
 46
-0.4090607927
 79
2
 49
0.0762
 49
-0.8382
 53
326.0
 43
0.1016
 44
0.1524
 45
0.2472081134
 46
0.7367518645
 79
2
 49
0.06096
 49
-0.67056
 53
71.451445
 43
0.1521381304
 44
0.1183116004
 45
0.8536656771
 46
0.3276910755
 79
2
 49
0.0647600352
 49
-0.7123597504
 53
37.5
 43
0.0
 44
0.0
 45
0.012354413
 46
0.3382201555
 79
6
 49
0.0
 49
-0.662432
 49
0.0
 49
-0.68072
 49
0.0
 49
-0.6731
 53
7.5
 43
0.0
 44
0.0
 45
0.26727865
 46
0.4007222993
 79
6
 49
0.0
 49
-0.388112
 49
0.0
 49
-0.647192
 49
0.0
 49
-0.25654
 53
-32.5
 43
-0.226568
 44
0.0
 45
0.5423623807
 46
-0.022914976
 79
6
 49
0.0
 49
-0.254
 49
0.0
 49
-0.79248
 49
0.0
 49
-1.05156
 53
-42.5
 43
-0.328168
 44
0.0
 45
0.5925167255
 46
0.1017059641
 79
6
 49
0.0
 49
-0.3302
 49
0.0
 49
-0.526288
 49
0.0
 49
-0.74676
 98
0
  0
LWPOLYLINE
  5
223
330
17
100
AcDbEntity
  8
E-DET
100
AcDbPolyline
 90
4
 70
1
 10
8.0
 20
0.0
 10
8.3
 20
0.0
 10
8.3
 20
0.3
 10
8.0
 20
0.3
  0
LWPOLYLINE
  5
224
330
17
100
AcDbEntity
  8
E-ACERO
100
AcDbPolyline
 90
4
 70
1
 10
8.035
 20
0.035
 10
8.265
 20
0.035
 10
8.265
 20
0.265
 10
8.035
 20
0.265
  0
CIRCLE
  5
225
330
17
100
AcDbEntity
  8
E-REF
100
AcDbCircle
 10
8.05
 20
0.05
 30
0.0
 40
0.0064
  0
HATCH
  5
226
330
17
100
AcDbEntity
  8
E-REF
 62
7
100
AcDbHatch
 10
0.0
 20
0.0
 30
0.0
210
0.0
220
0.0
230
1.0
  2
SOLID
 70
1
 71
0
 91
1
 92
1
 93
1
 72
2
 10
8.05
 20
0.05
 40
0.0064
 50
0
 51
360
 73
1
 97
0
 75
0
 76
1
 98
0
  0
CIRCLE
  5
227
330
17
100
AcDbEntity
  8
E-REF
100
AcDbCircle
 10
8.05
 20
0.25
 30
0.0
 40
0.0064
  0
HATCH
  5
228
330
17
100
AcDbEntity
  8
E-REF
 62
7
100
AcDbHatch
 10
0.0
 20
0.0
 30
0.0
210
0.0
220
0.0
230
1.0
  2
SOLID
 70
1
 71
0
 91
1
 92
1
 93
1
 72
2
 10
8.05
 20
0.25
 40
0.0064
 50
0
 51
360
 73
1
 97
0
 75
0
 76
1
 98
0
  0
CIRCLE
  5
229
330
17
100
AcDbEntity
  8
E-REF
100
AcDbCircle
 10
8.25
 20
0.05
 30
0.0
 40
0.0064
  0
HATCH
  5
22A
330
17
100
AcDbEntity
  8
E-REF
 62
7
100
AcDbHatch
 10
0.0
 20
0.0
 30
0.0
210
0.0
220
0.0
230
1.0
  2
SOLID
 70
1
 71
0
 91
1
 92
1
 93
1
 72
2
 10
8.25
 20
0.05
 40
0.0064
 50
0
 51
360
 73
1
 97
0
 75
0
 76
1
 98
0
  0
CIRCLE
  5
22B
330
17
100
AcDbEntity
  8
E-REF
100
AcDbCircle
 10
8.25
 20
0.25
 30
0.0
 40
0.0064
  0
HATCH
  5
22C
330
17
100
AcDbEntity
  8
E-REF
 62
7
100
AcDbHatch
 10
0.0
 20
0.0
 30
0.0
210
0.0
220
0.0
230
1.0
  2
SOLID
 70
1
 71
0
 91
1
 92
1
 93
1
 72
2
 10
8.25
 20
0.25
 40
0.0064
 50
0
 51
360
 73
1
 97
0
 75
0
 76
1
 98
0
  0
LWPOLYLINE
  5
22D
330
17
100
AcDbEntity
  8
E-DET
100
AcDbPolyline
 90
4
 70
1
 10
8.075
 20
0.075
 10
8.225
 20
0.075
 10
8.225
 20
0.22499999999999998
 10
8.075
 20
0.22499999999999998
  0
DIMENSION
  5
22E
330
17
100
AcDbEntity
  8
E-COTA
100
AcDbDimension
280
0
  2
*D16
  3
COTA-10
 10
8.0
 20
0.36
 30
0.0
 11
8.15
 21
0.379
 31
0.0
 70
32
 71
5
  1
<>
100
AcDbAlignedDimension
 13
8.0
 23
0.3
 33
0.0
 14
8.3
 24
0.3
 34
0.0
 50
0.0
100
AcDbRotatedDimension
  0
DIMENSION
  5
23D
330
17
100
AcDbEntity
  8
E-COTA
100
AcDbDimension
280
0
  2
*D17
  3
COTA-10
 10
8.360000000000001
 20
0.0
 30
0.0
 11
8.341000000000001
 21
0.15
 31
0.0
 70
32
 71
5
  1
<>
100
AcDbAlignedDimension
 13
8.3
 23
0.0
 33
0.0
 14
8.3
 24
0.3
 34
0.0
 50
90.0
100
AcDbRotatedDimension
  0
LWPOLYLINE
  5
24C
330
17
100
AcDbEntity
  8
E-DET
100
AcDbPolyline
 90
4
 70
1
 10
8.0
 20
-1.0
 10
8.27
 20
-1.0
 10
8.27
 20
-0.73
 10
8.0
 20
-0.73
  0
LWPOLYLINE
  5
24D
330
17
100
AcDbEntity
  8
E-REF
100
AcDbPolyline
 90
4
 70
1
 10
8.06
 20
-0.94
 10
8.21
 20
-0.94
 10
8.21
 20
-0.79
 10
8.06
 20
-0.79
  0
CIRCLE
  5
24E
330
17
100
AcDbEntity
  8
E-REF
100
AcDbCircle
 10
8.03
 20
-0.97
 30
0.0
 40
0.009
  0
CIRCLE
  5
24F
330
17
100
AcDbEntity
  8
E-REF
100
AcDbCircle
 10
8.03
 20
-0.76
 30
0.0
 40
0.009
  0
CIRCLE
  5
250
330
17
100
AcDbEntity
  8
E-REF
100
AcDbCircle
 10
8.24
 20
-0.97
 30
0.0
 40
0.009
  0
CIRCLE
  5
251
330
17
100
AcDbEntity
  8
E-REF
100
AcDbCircle
 10
8.24
 20
-0.76
 30
0.0
 40
0.009
  0
DIMENSION
  5
252
330
17
100
AcDbEntity
  8
E-COTA
100
AcDbDimension
280
0
  2
*D18
  3
COTA-5
 10
8.0
 20
-0.69
 30
0.0
 11
8.135
 21
-0.6805
 31
0.0
 70
32
 71
5
  1
<>
100
AcDbAlignedDimension
 13
8.0
 23
-0.73
 33
0.0
 14
8.27
 24
-0.73
 34
0.0
 50
0.0
100
AcDbRotatedDimension
  0
DIMENSION
  5
261
330
17
100
AcDbEntity
  8
E-COTA
100
AcDbDimension
280
0
  2
*D19
  3
COTA-5
 10
8.309999999999999
 20
-1.0
 30
0.0
 11
8.3005
 21
-0.865
 31
0.0
 70
32
 71
5
  1
<>
100
AcDbAlignedDimension
 13
8.27
 23
-1.0
 33
0.0
 14
8.27
 24
-0.73
 34
0.0
 50
90.0
100
AcDbRotatedDimension
  0
VIEWPORT
  5
274
330
270
100
AcDbEntity
 67
1
  8
VIEWPORTS
100
AcDbViewport
 10
420.5
 20
297.0
 30
0.0
 40
925.1
 41
653.4000000000001
 68
1
 69
1
 12
420.5
 22
297.0
 13
0.0
 23
0.0
 14
10.0
 24
10.0
 15
10.0
 25
10.0
 16
0.0
 26
0.0
 36
1.0
 17
0.0
 27
0.0
 37
0.0
 42
50.0
 43
0.0
 44
0.0
 45
653.4000000000001
 50
0.0
 51
0.0
 72
100
 90
557088
  1

281
0
 71
0
 74
0
110
0.0
120
0.0
130
0.0
111
1.0
121
0.0
131
0.0
112
0.0
122
1.0
132
0.0
 79
0
146
0.0
282
0
  0
LWPOLYLINE
  5
275
330
270
100
AcDbEntity
 67
1
  8
A-VIEWPORT
100
AcDbPolyline
 90
4
 70
1
 10
0.0
 20
0.0
 10
841.0
 20
0.0
 10
841.0
 20
594.0
 10
0.0
 20
594.0
  0
LWPOLYLINE
  5
276
330
270
100
AcDbEntity
 67
1
  8
A-MARCO
100
AcDbPolyline
 90
4
 70
1
 10
25.0
 20
10.0
 10
831.0
 20
10.0
 10
831.0
 20
584.0
 10
25.0
 20
584.0
  0
TEXT
  5
277
330
270
100
AcDbEntity
 67
1
  8
A-TEXTO
100
AcDbText
 10
25.0
 20
4.0
 30
0.0
 40
1.8
  1
FORMATO A1  841 mm x 594 mm
  7
ARIAL
 11
25.0
 21
4.0
 31
0.0
100
AcDbText
  0
VIEWPORT
  5
278
330
270
100
AcDbEntity
 67
1
  8
A-VIEWPORT
100
AcDbViewport
 10
130.0
 20
480.0
 30
0.0
 40
190.0
 41
150.0
 68
2
 69
3
 12
0.8
 22
-0.3
 13
0.0
 23
0.0
 14
10.0
 24
10.0
 15
10.0
 25
10.0
 16
0.0
 26
0.0
 36
1.0
 17
0.0
 27
0.0
 37
0.0
 42
50.0
 43
0.0
 44
0.0
 45
2.25
 50
0.0
 51
0.0
 72
100
 90
16384
  1

281
0
 71
0
 74
0
110
0.0
120
0.0
130
0.0
111
1.0
121
0.0
131
0.0
112
0.0
122
1.0
132
0.0
 79
0
146
0.0
282
0
  0
TEXT
  5
279
330
270
100
AcDbEntity
 67
1
  8
A-TITULOS
100
AcDbText
 10
40.0
 20
420.0
 30
0.0
 40
4.5
  1
CORTE FUNDACIÓN F1 (CENTRADA)
  7
ARIAL
 11
40.0
 21
420.0
 31
0.0
100
AcDbText
 73
3
  0
TEXT
  5
27A
330
270
100
AcDbEntity
 67
1
  8
A-TEXTO
100
AcDbText
 10
40.0
 20
413.5
 30
0.0
 40
2.5
  1
Esc. 1:15
  7
ARIAL
 11
40.0
 21
413.5
 31
0.0
100
AcDbText
 73
3
  0
VIEWPORT
  5
27B
330
270
100
AcDbEntity
 67
1
  8
A-VIEWPORT
100
AcDbViewport
 10
380.0
 20
480.0
 30
0.0
 40
190.0
 41
150.0
 68
2
 69
4
 12
4.8
 22
-0.3
 13
0.0
 23
0.0
 14
10.0
 24
10.0
 15
10.0
 25
10.0
 16
0.0
 26
0.0
 36
1.0
 17
0.0
 27
0.0
 37
0.0
 42
50.0
 43
0.0
 44
0.0
 45
2.25
 50
0.0
 51
0.0
 72
100
 90
16384
  1

281
0
 71
0
 74
0
110
0.0
120
0.0
130
0.0
111
1.0
121
0.0
131
0.0
112
0.0
122
1.0
132
0.0
 79
0
146
0.0
282
0
  0
TEXT
  5
27C
330
270
100
AcDbEntity
 67
1
  8
A-TITULOS
100
AcDbText
 10
290.0
 20
420.0
 30
0.0
 40
4.5
  1
CORTE FUNDACIÓN F2 (EXCÉNTRICA, LINDERO)
  7
ARIAL
 11
290.0
 21
420.0
 31
0.0
100
AcDbText
 73
3
  0
TEXT
  5
27D
330
270
100
AcDbEntity
 67
1
  8
A-TEXTO
100
AcDbText
 10
290.0
 20
413.5
 30
0.0
 40
2.5
  1
Esc. 1:15
  7
ARIAL
 11
290.0
 21
413.5
 31
0.0
100
AcDbText
 73
3
  0
VIEWPORT
  5
27E
330
270
100
AcDbEntity
 67
1
  8
A-VIEWPORT
100
AcDbViewport
 10
130.0
 20
320.0
 30
0.0
 40
190.0
 41
145.0
 68
2
 69
5
 12
0.88
 22
-3.18
 13
0.0
 23
0.0
 14
10.0
 24
10.0
 15
10.0
 25
10.0
 16
0.0
 26
0.0
 36
1.0
 17
0.0
 27
0.0
 37
0.0
 42
50.0
 43
0.0
 44
0.0
 45
2.175
 50
0.0
 51
0.0
 72
100
 90
16384
  1

281
0
 71
0
 74
0
110
0.0
120
0.0
130
0.0
111
1.0
121
0.0
131
0.0
112
0.0
122
1.0
132
0.0
 79
0
146
0.0
282
0
  0
TEXT
  5
27F
330
270
100
AcDbEntity
 67
1
  8
A-TITULOS
100
AcDbText
 10
40.0
 20
257.0
 30
0.0
 40
4.5
  1
PLANTA FUNDACIÓN F1
  7
ARIAL
 11
40.0
 21
257.0
 31
0.0
100
AcDbText
 73
3
  0
TEXT
  5
280
330
270
100
AcDbEntity
 67
1
  8
A-TEXTO
100
AcDbText
 10
40.0
 20
250.5
 30
0.0
 40
2.5
  1
Esc. 1:15
  7
ARIAL
 11
40.0
 21
250.5
 31
0.0
100
AcDbText
 73
3
  0
VIEWPORT
  5
281
330
270
100
AcDbEntity
 67
1
  8
A-VIEWPORT
100
AcDbViewport
 10
380.0
 20
320.0
 30
0.0
 40
190.0
 41
145.0
 68
2
 69
6
 12
4.88
 22
-3.18
 13
0.0
 23
0.0
 14
10.0
 24
10.0
 15
10.0
 25
10.0
 16
0.0
 26
0.0
 36
1.0
 17
0.0
 27
0.0
 37
0.0
 42
50.0
 43
0.0
 44
0.0
 45
2.175
 50
0.0
 51
0.0
 72
100
 90
16384
  1

281
0
 71
0
 74
0
110
0.0
120
0.0
130
0.0
111
1.0
121
0.0
131
0.0
112
0.0
122
1.0
132
0.0
 79
0
146
0.0
282
0
  0
TEXT
  5
282
330
270
100
AcDbEntity
 67
1
  8
A-TITULOS
100
AcDbText
 10
290.0
 20
257.0
 30
0.0
 40
4.5
  1
PLANTA FUNDACIÓN F2
  7
ARIAL
 11
290.0
 21
257.0
 31
0.0
100
AcDbText
 73
3
  0
TEXT
  5
283
330
270
100
AcDbEntity
 67
1
  8
A-TEXTO
100
AcDbText
 10
290.0
 20
250.5
 30
0.0
 40
2.5
  1
Esc. 1:15
  7
ARIAL
 11
290.0
 21
250.5
 31
0.0
100
AcDbText
 73
3
  0
VIEWPORT
  5
284
330
270
100
AcDbEntity
 67
1
  8
A-VIEWPORT
100
AcDbViewport
 10
560.0
 20
510.0
 30
0.0
 40
70.0
 41
65.0
 68
2
 69
7
 12
8.17
 22
0.16
 13
0.0
 23
0.0
 14
10.0
 24
10.0
 15
10.0
 25
10.0
 16
0.0
 26
0.0
 36
1.0
 17
0.0
 27
0.0
 37
0.0
 42
50.0
 43
0.0
 44
0.0
 45
0.65
 50
0.0
 51
0.0
 72
100
 90
16384
  1

281
0
 71
0
 74
0
110
0.0
120
0.0
130
0.0
111
1.0
121
0.0
131
0.0
112
0.0
122
1.0
132
0.0
 79
0
146
0.0
282
0
  0
TEXT
  5
285
330
270
100
AcDbEntity
 67
1
  8
A-TITULOS
100
AcDbText
 10
510.0
 20
472.0
 30
0.0
 40
4.5
  1
SECCIÓN DE PEDESTAL
  7
ARIAL
 11
510.0
 21
472.0
 31
0.0
100
AcDbText
 73
3
  0
TEXT
  5
286
330
270
100
AcDbEntity
 67
1
  8
A-TEXTO
100
AcDbText
 10
510.0
 20
465.5
 30
0.0
 40
2.5
  1
Esc. 1:10
  7
ARIAL
 11
510.0
 21
465.5
 31
0.0
100
AcDbText
 73
3
  0
VIEWPORT
  5
287
330
270
100
AcDbEntity
 67
1
  8
A-VIEWPORT
100
AcDbViewport
 10
650.0
 20
510.0
 30
0.0
 40
75.0
 41
75.0
 68
2
 69
8
 12
8.15
 22
-0.85
 13
0.0
 23
0.0
 14
10.0
 24
10.0
 15
10.0
 25
10.0
 16
0.0
 26
0.0
 36
1.0
 17
0.0
 27
0.0
 37
0.0
 42
50.0
 43
0.0
 44
0.0
 45
0.375
 50
0.0
 51
0.0
 72
100
 90
16384
  1

281
0
 71
0
 74
0
110
0.0
120
0.0
130
0.0
111
1.0
121
0.0
131
0.0
112
0.0
122
1.0
132
0.0
 79
0
146
0.0
282
0
  0
TEXT
  5
288
330
270
100
AcDbEntity
 67
1
  8
A-TITULOS
100
AcDbText
 10
612.0
 20
466.0
 30
0.0
 40
4.5
  1
PLETINA DE UNIÓN
  7
ARIAL
 11
612.0
 21
466.0
 31
0.0
100
AcDbText
 73
3
  0
TEXT
  5
289
330
270
100
AcDbEntity
 67
1
  8
A-TEXTO
100
AcDbText
 10
612.0
 20
459.5
 30
0.0
 40
2.5
  1
Esc. 1:5
  7
ARIAL
 11
612.0
 21
459.5
 31
0.0
100
AcDbText
 73
3
  0
LINE
  5
28A
330
270
100
AcDbEntity
 67
1
  8
A-TEXTO
100
AcDbLine
 10
192.66666666666666
 20
513.3333333333334
 30
0.0
 11
133.0
 21
513.3333333333334
 31
0.0
  0
CIRCLE
  5
28B
330
270
100
AcDbEntity
 67
1
  8
A-TEXTO
100
AcDbCircle
 10
133.0
 20
513.3333333333334
 30
0.0
 40
0.6
  0
MTEXT
  5
28C
330
270
100
AcDbEntity
 67
1
  8
A-TEXTO
100
AcDbMText
 10
194.66666666666666
 20
513.3333333333334
 30
0.0
 40
2.0
 41
60.0
 71
4
  1
TUBO ESTRUCTURAL 150 x 150 mm EN 3,17 mm [PR]
  7
ARIAL
  0
LINE
  5
28D
330
270
100
AcDbEntity
 67
1
  8
A-TEXTO
100
AcDbLine
 10
192.66666666666666
 20
504.4
 30
0.0
 11
138.33333333333331
 21
500.4
 31
0.0
  0
CIRCLE
  5
28E
330
270
100
AcDbEntity
 67
1
  8
A-TEXTO
100
AcDbCircle
 10
138.33333333333331
 20
500.4
 30
0.0
 40
0.6
  0
MTEXT
  5
28F
330
270
100
AcDbEntity
 67
1
  8
A-TEXTO
100
AcDbMText
 10
194.66666666666666
 20
504.4
 30
0.0
 40
2.0
 41
60.0
 71
4
  1
PLETINA PARA UNIÓN 270 x 270 mm [PR]
  7
ARIAL
  0
LINE
  5
290
330
270
100
AcDbEntity
 67
1
  8
A-TEXTO
100
AcDbLine
 10
192.66666666666666
 20
480.0
 30
0.0
 11
141.0
 21
480.0
 31
0.0
  0
CIRCLE
  5
291
330
270
100
AcDbEntity
 67
1
  8
A-TEXTO
100
AcDbCircle
 10
141.0
 20
480.0
 30
0.0
 40
0.6
  0
MTEXT
  5
292
330
270
100
AcDbEntity
 67
1
  8
A-TEXTO
100
AcDbMText
 10
194.66666666666666
 20
480.0
 30
0.0
 40
2.0
 41
60.0
 71
4
  1
PEDESTAL 30 x 30 cm [PR]
  7
ARIAL
  0
LINE
  5
293
330
270
100
AcDbEntity
 67
1
  8
A-TEXTO
100
AcDbLine
 10
192.66666666666666
 20
466.6666666666667
 30
0.0
 11
138.33333333333331
 21
466.6666666666667
 31
0.0
  0
CIRCLE
  5
294
330
270
100
AcDbEntity
 67
1
  8
A-TEXTO
100
AcDbCircle
 10
138.33333333333331
 20
466.6666666666667
 30
0.0
 40
0.6
  0
MTEXT
  5
295
330
270
100
AcDbEntity
 67
1
  8
A-TEXTO
100
AcDbMText
 10
194.66666666666666
 20
466.6666666666667
 30
0.0
 40
2.0
 41
60.0
 71
4
  1
4 VARILLAS #4 [PR]
  7
ARIAL
  0
LINE
  5
296
330
270
100
AcDbEntity
 67
1
  8
A-TEXTO
100
AcDbLine
 10
192.66666666666666
 20
456.0
 30
0.0
 11
131.66666666666666
 21
456.0
 31
0.0
  0
CIRCLE
  5
297
330
270
100
AcDbEntity
 67
1
  8
A-TEXTO
100
AcDbCircle
 10
131.66666666666666
 20
456.0
 30
0.0
 40
0.6
  0
MTEXT
  5
298
330
270
100
AcDbEntity
 67
1
  8
A-TEXTO
100
AcDbMText
 10
194.66666666666666
 20
456.0
 30
0.0
 40
2.0
 41
60.0
 71
4
  1
ESTRIBOS VARILLA #3 @10 cm [PR]
  7
ARIAL
  0
LINE
  5
299
330
270
100
AcDbEntity
 67
1
  8
A-TEXTO
100
AcDbLine
 10
192.66666666666666
 20
425.3333333333333
 30
0.0
 11
166.66666666666666
 21
433.3333333333333
 31
0.0
  0
CIRCLE
  5
29A
330
270
100
AcDbEntity
 67
1
  8
A-TEXTO
100
AcDbCircle
 10
166.66666666666666
 20
433.3333333333333
 30
0.0
 40
0.6
  0
MTEXT
  5
29B
330
270
100
AcDbEntity
 67
1
  8
A-TEXTO
100
AcDbMText
 10
194.66666666666666
 20
425.3333333333333
 30
0.0
 40
2.0
 41
60.0
 71
4
  1
MALLA CON VARILLAS #4 @20 cm [PR]
  7
ARIAL
  0
LINE
  5
29C
330
270
100
AcDbEntity
 67
1
  8
A-TEXTO
100
AcDbLine
 10
442.6666666666667
 20
513.3333333333334
 30
0.0
 11
338.0
 21
513.3333333333334
 31
0.0
  0
CIRCLE
  5
29D
330
270
100
AcDbEntity
 67
1
  8
A-TEXTO
100
AcDbCircle
 10
338.0
 20
513.3333333333334
 30
0.0
 40
0.6
  0
MTEXT
  5
29E
330
270
100
AcDbEntity
 67
1
  8
A-TEXTO
100
AcDbMText
 10
444.6666666666667
 20
513.3333333333334
 30
0.0
 40
2.0
 41
60.0
 71
4
  1
TUBO ESTRUCTURAL 150 x 150 mm EN 3,17 mm [PR]
  7
ARIAL
  0
LINE
  5
29F
330
270
100
AcDbEntity
 67
1
  8
A-TEXTO
100
AcDbLine
 10
442.6666666666667
 20
504.4
 30
0.0
 11
343.33333333333337
 21
500.4
 31
0.0
  0
CIRCLE
  5
2A0
330
270
100
AcDbEntity
 67
1
  8
A-TEXTO
100
AcDbCircle
 10
343.33333333333337
 20
500.4
 30
0.0
 40
0.6
  0
MTEXT
  5
2A1
330
270
100
AcDbEntity
 67
1
  8
A-TEXTO
100
AcDbMText
 10
444.6666666666667
 20
504.4
 30
0.0
 40
2.0
 41
60.0
 71
4
  1
PLETINA PARA UNIÓN 270 x 270 mm [PR]
  7
ARIAL
  0
LINE
  5
2A2
330
270
100
AcDbEntity
 67
1
  8
A-TEXTO
100
AcDbLine
 10
442.6666666666667
 20
480.0
 30
0.0
 11
346.0
 21
480.0
 31
0.0
  0
CIRCLE
  5
2A3
330
270
100
AcDbEntity
 67
1
  8
A-TEXTO
100
AcDbCircle
 10
346.0
 20
480.0
 30
0.0
 40
0.6
  0
MTEXT
  5
2A4
330
270
100
AcDbEntity
 67
1
  8
A-TEXTO
100
AcDbMText
 10
444.6666666666667
 20
480.0
 30
0.0
 40
2.0
 41
60.0
 71
4
  1
PEDESTAL 30 x 30 cm [PR]
  7
ARIAL
  0
LINE
  5
2A5
330
270
100
AcDbEntity
 67
1
  8
A-TEXTO
100
AcDbLine
 10
442.6666666666667
 20
466.6666666666667
 30
0.0
 11
343.33333333333337
 21
466.6666666666667
 31
0.0
  0
CIRCLE
  5
2A6
330
270
100
AcDbEntity
 67
1
  8
A-TEXTO
100
AcDbCircle
 10
343.33333333333337
 20
466.6666666666667
 30
0.0
 40
0.6
  0
MTEXT
  5
2A7
330
270
100
AcDbEntity
 67
1
  8
A-TEXTO
100
AcDbMText
 10
444.6666666666667
 20
466.6666666666667
 30
0.0
 40
2.0
 41
60.0
 71
4
  1
4 VARILLAS #4 [PR]
  7
ARIAL
  0
LINE
  5
2A8
330
270
100
AcDbEntity
 67
1
  8
A-TEXTO
100
AcDbLine
 10
442.6666666666667
 20
456.0
 30
0.0
 11
336.6666666666667
 21
456.0
 31
0.0
  0
CIRCLE
  5
2A9
330
270
100
AcDbEntity
 67
1
  8
A-TEXTO
100
AcDbCircle
 10
336.6666666666667
 20
456.0
 30
0.0
 40
0.6
  0
MTEXT
  5
2AA
330
270
100
AcDbEntity
 67
1
  8
A-TEXTO
100
AcDbMText
 10
444.6666666666667
 20
456.0
 30
0.0
 40
2.0
 41
60.0
 71
4
  1
ESTRIBOS VARILLA #3 @10 cm [PR]
  7
ARIAL
  0
LINE
  5
2AB
330
270
100
AcDbEntity
 67
1
  8
A-TEXTO
100
AcDbLine
 10
442.6666666666667
 20
425.3333333333333
 30
0.0
 11
416.66666666666674
 21
433.3333333333333
 31
0.0
  0
CIRCLE
  5
2AC
330
270
100
AcDbEntity
 67
1
  8
A-TEXTO
100
AcDbCircle
 10
416.66666666666674
 20
433.3333333333333
 30
0.0
 40
0.6
  0
MTEXT
  5
2AD
330
270
100
AcDbEntity
 67
1
  8
A-TEXTO
100
AcDbMText
 10
444.6666666666667
 20
425.3333333333333
 30
0.0
 40
2.0
 41
60.0
 71
4
  1
MALLA CON VARILLAS #4 @20 cm [PR]
  7
ARIAL
  0
LINE
  5
2AE
330
270
100
AcDbEntity
 67
1
  8
A-TEXTO
100
AcDbLine
 10
187.33333333333331
 20
280.0
 30
0.0
 11
91.33333333333333
 21
285.3333333333333
 31
0.0
  0
CIRCLE
  5
2AF
330
270
100
AcDbEntity
 67
1
  8
A-TEXTO
100
AcDbCircle
 10
91.33333333333333
 20
285.3333333333333
 30
0.0
 40
0.6
  0
MTEXT
  5
2B0
330
270
100
AcDbEntity
 67
1
  8
A-TEXTO
100
AcDbMText
 10
189.33333333333331
 20
280.0
 30
0.0
 40
2.0
 41
60.0
 71
4
  1
MALLA CON VARILLAS #4 @20 cm [PR]
  7
ARIAL
  0
LINE
  5
2B1
330
270
100
AcDbEntity
 67
1
  8
A-TEXTO
100
AcDbLine
 10
187.33333333333331
 20
295.0
 30
0.0
 11
126.33333333333333
 21
323.6666666666667
 31
0.0
  0
CIRCLE
  5
2B2
330
270
100
AcDbEntity
 67
1
  8
A-TEXTO
100
AcDbCircle
 10
126.33333333333333
 20
323.6666666666667
 30
0.0
 40
0.6
  0
MTEXT
  5
2B3
330
270
100
AcDbEntity
 67
1
  8
A-TEXTO
100
AcDbMText
 10
189.33333333333331
 20
295.0
 30
0.0
 40
2.0
 41
60.0
 71
4
  1
TUBO 150 x 150 mm, PLETINA 270 x 270 mm Y PEDESTAL 30 x 30 cm [PR]
  7
ARIAL
  0
LINE
  5
2B4
330
270
100
AcDbEntity
 67
1
  8
A-TEXTO
100
AcDbLine
 10
437.33333333333337
 20
280.0
 30
0.0
 11
341.3333333333333
 21
285.3333333333333
 31
0.0
  0
CIRCLE
  5
2B5
330
270
100
AcDbEntity
 67
1
  8
A-TEXTO
100
AcDbCircle
 10
341.3333333333333
 20
285.3333333333333
 30
0.0
 40
0.6
  0
MTEXT
  5
2B6
330
270
100
AcDbEntity
 67
1
  8
A-TEXTO
100
AcDbMText
 10
439.33333333333337
 20
280.0
 30
0.0
 40
2.0
 41
60.0
 71
4
  1
MALLA CON VARILLAS #4 @20 cm [PR]
  7
ARIAL
  0
LINE
  5
2B7
330
270
100
AcDbEntity
 67
1
  8
A-TEXTO
100
AcDbLine
 10
437.33333333333337
 20
295.0
 30
0.0
 11
328.0
 21
323.6666666666667
 31
0.0
  0
CIRCLE
  5
2B8
330
270
100
AcDbEntity
 67
1
  8
A-TEXTO
100
AcDbCircle
 10
328.0
 20
323.6666666666667
 30
0.0
 40
0.6
  0
MTEXT
  5
2B9
330
270
100
AcDbEntity
 67
1
  8
A-TEXTO
100
AcDbMText
 10
439.33333333333337
 20
295.0
 30
0.0
 40
2.0
 41
60.0
 71
4
  1
TUBO 150 x 150 mm, PLETINA 270 x 270 mm Y PEDESTAL 30 x 30 cm [PR]
  7
ARIAL
  0
LINE
  5
2BA
330
270
100
AcDbEntity
 67
1
  8
A-TEXTO
100
AcDbLine
 10
612.0
 20
557.0
 30
0.0
 11
625.9999999999998
 21
486.0
 31
0.0
  0
CIRCLE
  5
2BB
330
270
100
AcDbEntity
 67
1
  8
A-TEXTO
100
AcDbCircle
 10
625.9999999999998
 20
486.0
 30
0.0
 40
0.6
  0
MTEXT
  5
2BC
330
270
100
AcDbEntity
 67
1
  8
A-TEXTO
100
AcDbMText
 10
614.0
 20
557.0
 30
0.0
 40
1.8
 41
55.0
 71
4
  1
PERFORACIONES PARA PERNOS DE ANCLAJE (DIÁMETRO SEGÚN CÁLCULO, PD)
  7
ARIAL
  0
TEXT
  5
2BD
330
270
100
AcDbEntity
 67
1
  8
A-TITULOS
100
AcDbText
 10
510.0
 20
440.0
 30
0.0
 40
3.5
  1
NOTAS:
  7
ARIAL
 11
510.0
 21
440.0
 31
0.0
100
AcDbText
 73
3
  0
MTEXT
  5
2BE
330
270
100
AcDbEntity
 67
1
  8
A-NOTAS
100
AcDbMText
 10
510.0
 20
434.0
 30
0.0
 40
2.0
 41
190.0
 71
1
  1
1.- TODAS LAS MEDIDAS ESTÁN DADAS EN METROS, SALVO INDICACIÓN CONTRARIA. [PR]
  7
ARIAL
  0
MTEXT
  5
2BF
330
270
100
AcDbEntity
 67
1
  8
A-NOTAS
100
AcDbMText
 10
510.0
 20
430.0
 30
0.0
 40
2.0
 41
190.0
 71
1
  1
2.- UBICACIÓN DE LAS FUNDACIONES F1 Y F2 SEGÚN LÁMINA C01.
  7
ARIAL
  0
MTEXT
  5
2C0
330
270
100
AcDbEntity
 67
1
  8
A-NOTAS
100
AcDbMText
 10
510.0
 20
426.0
 30
0.0
 40
2.0
 41
190.0
 71
1
  1
3.- F1: PLACA CENTRADA BAJO LAS COLUMNAS DEL EJE C. F2: PLACA EXCÉNTRICA EN LOS LINDEROS (EJES A Y D), CON PEDESTAL Y TUBO A PAÑO DEL LINDERO; NO INVADE EL PREDIO VECINO.
  7
ARIAL
  0
MTEXT
  5
2C1
330
270
100
AcDbEntity
 67
1
  8
A-NOTAS
100
AcDbMText
 10
510.0
 20
419.1
 30
0.0
 40
2.0
 41
190.0
 71
1
  1
4.- PLACAS DE 1,65 x 1,65 x 0,25 m CON MALLA DE VARILLAS #4 @20 cm EN AMBAS DIRECCIONES Y GANCHOS EN LOS EXTREMOS. RECUBRIMIENTO DE 5 cm EN ELEMENTOS COLADOS CONTRA EL TERRENO. [PR]
  7
ARIAL
  0
MTEXT
  5
2C2
330
270
100
AcDbEntity
 67
1
  8
A-NOTAS
100
AcDbMText
 10
510.0
 20
412.20000000000005
 30
0.0
 40
2.0
 41
190.0
 71
1
  1
5.- PEDESTAL DE 30 x 30 cm Y 0,80 m DE ALTO, 4 VARILLAS #4 CON PATA DE 25 cm Y ESTRIBOS #3 @10 cm. [PR]
  7
ARIAL
  0
MTEXT
  5
2C3
330
270
100
AcDbEntity
 67
1
  8
A-NOTAS
100
AcDbMText
 10
510.0
 20
408.20000000000005
 30
0.0
 40
2.0
 41
190.0
 71
1
  1
6.- COLUMNA: TUBO ESTRUCTURAL DE 150 x 150 mm EN 3,17 mm SOLDADO A PLETINA DE 270 x 270 mm ANCLADA AL PEDESTAL. PERNOS Y SOLDADURA SEGÚN CÁLCULO (PD). [PR]
  7
ARIAL
  0
MTEXT
  5
2C4
330
270
100
AcDbEntity
 67
1
  8
A-NOTAS
100
AcDbMText
 10
510.0
 20
401.30000000000007
 30
0.0
 40
2.0
 41
190.0
 71
1
  1
7.- CAPACIDAD SOPORTANTE CONSIDERADA qadm = 12 t/m² [PR]; VERIFICAR CON ESTUDIO DE SUELOS.
  7
ARIAL
  0
MTEXT
  5
2C5
330
270
100
AcDbEntity
 67
1
  8
A-NOTAS
100
AcDbMText
 10
510.0
 20
397.30000000000007
 30
0.0
 40
2.0
 41
190.0
 71
1
  1
8.- MATERIALES Y ESPECIFICACIONES SEGÚN LÁMINA C08. LAS SECCIONES SON LAS DEL PROYECTO DE REFERENCIA, POR INDICACIÓN DEL INGENIERO RESPONSABLE; NO SUSTITUYEN LA MEMORIA DE CÁLCULO.
  7
ARIAL
  0
MTEXT
  5
2C6
330
270
100
AcDbEntity
 67
1
  8
A-NOTAS
100
AcDbMText
 10
510.0
 20
390.4000000000001
 30
0.0
 40
2.0
 41
190.0
 71
1
  1
[PR] = NOTA TOMADA DEL PROYECTO DE REFERENCIA, PENDIENTE DE REVISIÓN.
  7
ARIAL
  0
INSERT
  5
30E
330
270
100
AcDbEntity
 67
1
  8
A-CAJETIN
100
AcDbBlockReference
 66
1
  2
CAJETIN_A1
 10
711.0
 20
10.0
 30
0.0
  0
ATTRIB
  5
310
330
270
100
AcDbEntity
 67
1
  8
A-CAJETIN-TXT
100
AcDbText
 10
771.0
 20
261.6
 30
0.0
 40
3.2
  1
CivilCon Diseño y Construcción SRLTDA
  7
ARIAL
 72
1
 11
771.0
 21
261.6
 31
0.0
100
AcDbAttribute
  2
EMPRESA
 70
0
 74
3
 71
1
 72
0
 11
771.0
 21
261.6
 31
0.0
  0
ATTRIB
  5
311
330
270
100
AcDbEntity
 67
1
  8
A-CAJETIN-TXT
100
AcDbText
 10
771.0
 20
255.6
 30
0.0
 40
2.5
  1
Céd. Jurídica: 3-102-762712
  7
ARIAL
 72
1
 11
771.0
 21
255.6
 31
0.0
100
AcDbAttribute
  2
EMPRESA_CED
 70
0
 74
3
 71
1
 72
0
 11
771.0
 21
255.6
 31
0.0
  0
ATTRIB
  5
312
330
270
100
AcDbEntity
 67
1
  8
A-CAJETIN-TXT
100
AcDbText
 10
714.0
 20
240.1
 30
0.0
 40
2.6
  1
DIRECTOR TÉCNICO:
  7
ARIAL
 11
714.0
 21
240.1
 31
0.0
100
AcDbAttribute
  2
PROF_1
 70
0
 74
3
 71
1
 72
0
 11
714.0
 21
240.1
 31
0.0
  0
ATTRIB
  5
313
330
270
100
AcDbEntity
 67
1
  8
A-CAJETIN-TXT
100
AcDbText
 10
714.0
 20
235.6
 30
0.0
 40
2.6
  1
Steven Viales (Civil) IC-40759
  7
ARIAL
 11
714.0
 21
235.6
 31
0.0
100
AcDbAttribute
  2
PROF_2
 70
0
 74
3
 71
1
 72
0
 11
714.0
 21
235.6
 31
0.0
  0
ATTRIB
  5
314
330
270
100
AcDbEntity
 67
1
  8
A-CAJETIN-TXT
100
AcDbText
 10
714.0
 20
231.1
 30
0.0
 40
2.6
  1
David Barrantes (Electricidad) IE-27499
  7
ARIAL
 11
714.0
 21
231.1
 31
0.0
100
AcDbAttribute
  2
PROF_3
 70
0
 74
3
 71
1
 72
0
 11
714.0
 21
231.1
 31
0.0
  0
ATTRIB
  5
315
330
270
100
AcDbEntity
 67
1
  8
A-CAJETIN-TXT
100
AcDbText
 10
714.0
 20
218.1
 30
0.0
 40
4.2
  1
VIVIENDA UNIFAMILIAR
  7
ARIAL
 11
714.0
 21
218.1
 31
0.0
100
AcDbAttribute
  2
PROYECTO
 70
0
 74
3
 71
1
 72
0
 11
714.0
 21
218.1
 31
0.0
  0
ATTRIB
  5
316
330
270
100
AcDbEntity
 67
1
  8
A-CAJETIN-TXT
100
AcDbText
 10
714.0
 20
211.1
 30
0.0
 40
2.5
  1
DISTRITO 03 SANTIAGO, CANTÓN 05 SAN RAFAEL,
  7
ARIAL
 11
714.0
 21
211.1
 31
0.0
100
AcDbAttribute
  2
UBIC_1
 70
0
 74
3
 71
1
 72
0
 11
714.0
 21
211.1
 31
0.0
  0
ATTRIB
  5
317
330
270
100
AcDbEntity
 67
1
  8
A-CAJETIN-TXT
100
AcDbText
 10
714.0
 20
206.6
 30
0.0
 40
2.5
  1
PROVINCIA 04 HEREDIA, COSTA RICA.
  7
ARIAL
 11
714.0
 21
206.6
 31
0.0
100
AcDbAttribute
  2
UBIC_2
 70
0
 74
3
 71
1
 72
0
 11
714.0
 21
206.6
 31
0.0
  0
ATTRIB
  5
318
330
270
100
AcDbEntity
 67
1
  8
A-CAJETIN-TXT
100
AcDbText
 10
714.0
 20
202.1
 30
0.0
 40
2.5
  1

  7
ARIAL
 11
714.0
 21
202.1
 31
0.0
100
AcDbAttribute
  2
UBIC_3
 70
0
 74
3
 71
1
 72
0
 11
714.0
 21
202.1
 31
0.0
  0
ATTRIB
  5
319
330
270
100
AcDbEntity
 67
1
  8
A-CAJETIN-TXT
100
AcDbText
 10
714.0
 20
189.1
 30
0.0
 40
2.5
  1
FOLIO REAL: 4-041200-000
  7
ARIAL
 11
714.0
 21
189.1
 31
0.0
100
AcDbAttribute
  2
REG_1
 70
0
 74
3
 71
1
 72
0
 11
714.0
 21
189.1
 31
0.0
  0
ATTRIB
  5
31A
330
270
100
AcDbEntity
 67
1
  8
A-CAJETIN-TXT
100
AcDbText
 10
714.0
 20
184.6
 30
0.0
 40
2.5
  1
PLANO CATASTRADO: 4-57389-2023
  7
ARIAL
 11
714.0
 21
184.6
 31
0.0
100
AcDbAttribute
  2
REG_2
 70
0
 74
3
 71
1
 72
0
 11
714.0
 21
184.6
 31
0.0
  0
ATTRIB
  5
31B
330
270
100
AcDbEntity
 67
1
  8
A-CAJETIN-TXT
100
AcDbText
 10
714.0
 20
180.1
 30
0.0
 40
2.5
  1
ÁREA SEGÚN CATASTRO: 256 m²
  7
ARIAL
 11
714.0
 21
180.1
 31
0.0
100
AcDbAttribute
  2
REG_3
 70
0
 74
3
 71
1
 72
0
 11
714.0
 21
180.1
 31
0.0
  0
ATTRIB
  5
31C
330
270
100
AcDbEntity
 67
1
  8
A-CAJETIN-TXT
100
AcDbText
 10
714.0
 20
167.1
 30
0.0
 40
5.0
  1
FUNDACIONES
  7
ARIAL
 11
714.0
 21
167.1
 31
0.0
100
AcDbAttribute
  2
CONT_TIT
 70
0
 74
3
 71
1
 72
0
 11
714.0
 21
167.1
 31
0.0
  0
ATTRIB
  5
31D
330
270
100
AcDbEntity
 67
1
  8
A-CAJETIN-TXT
100
AcDbText
 10
714.0
 20
159.6
 30
0.0
 40
3.0
  1
DETALLES.
  7
ARIAL
 11
714.0
 21
159.6
 31
0.0
100
AcDbAttribute
  2
CONT_1
 70
0
 74
3
 71
1
 72
0
 11
714.0
 21
159.6
 31
0.0
  0
ATTRIB
  5
31E
330
270
100
AcDbEntity
 67
1
  8
A-CAJETIN-TXT
100
AcDbText
 10
714.0
 20
154.1
 30
0.0
 40
3.0
  1
CORTE Y PLANTA F1 Y F2.
  7
ARIAL
 11
714.0
 21
154.1
 31
0.0
100
AcDbAttribute
  2
CONT_2
 70
0
 74
3
 71
1
 72
0
 11
714.0
 21
154.1
 31
0.0
  0
ATTRIB
  5
31F
330
270
100
AcDbEntity
 67
1
  8
A-CAJETIN-TXT
100
AcDbText
 10
714.0
 20
148.6
 30
0.0
 40
3.0
  1
SECCIÓN DE PEDESTAL.
  7
ARIAL
 11
714.0
 21
148.6
 31
0.0
100
AcDbAttribute
  2
CONT_3
 70
0
 74
3
 71
1
 72
0
 11
714.0
 21
148.6
 31
0.0
  0
ATTRIB
  5
320
330
270
100
AcDbEntity
 67
1
  8
A-CAJETIN-TXT
100
AcDbText
 10
714.0
 20
143.1
 30
0.0
 40
3.0
  1
PLETINA DE UNIÓN.
  7
ARIAL
 11
714.0
 21
143.1
 31
0.0
100
AcDbAttribute
  2
CONT_4
 70
0
 74
3
 71
1
 72
0
 11
714.0
 21
143.1
 31
0.0
  0
ATTRIB
  5
321
330
270
100
AcDbEntity
 67
1
  8
A-CAJETIN-TXT
100
AcDbText
 10
714.0
 20
137.6
 30
0.0
 40
3.0
  1
NOTAS.
  7
ARIAL
 11
714.0
 21
137.6
 31
0.0
100
AcDbAttribute
  2
CONT_5
 70
0
 74
3
 71
1
 72
0
 11
714.0
 21
137.6
 31
0.0
  0
ATTRIB
  5
322
330
270
100
AcDbEntity
 67
1
  8
A-CAJETIN-TXT
100
AcDbText
 10
714.0
 20
132.1
 30
0.0
 40
3.0
  1

  7
ARIAL
 11
714.0
 21
132.1
 31
0.0
100
AcDbAttribute
  2
CONT_6
 70
0
 74
3
 71
1
 72
0
 11
714.0
 21
132.1
 31
0.0
  0
ATTRIB
  5
323
330
270
100
AcDbEntity
 67
1
  8
A-CAJETIN-TXT
100
AcDbText
 10
736.0
 20
122.1
 30
0.0
 40
2.2
  1
INDICADAS
  7
ARIAL
 11
736.0
 21
122.1
 31
0.0
100
AcDbAttribute
  2
ESCALAS
 70
0
 74
3
 71
1
 72
0
 11
736.0
 21
122.1
 31
0.0
  0
ATTRIB
  5
324
330
270
100
AcDbEntity
 67
1
  8
A-CAJETIN-TXT
100
AcDbText
 10
717.0
 20
104.0
 30
0.0
 40
2.0
  1
0
  7
ARIAL
 72
1
 11
717.0
 21
104.0
 31
0.0
100
AcDbAttribute
  2
REV0_N
 70
0
 74
2
 71
1
 72
0
 11
717.0
 21
104.0
 31
0.0
  0
ATTRIB
  5
325
330
270
100
AcDbEntity
 67
1
  8
A-CAJETIN-TXT
100
AcDbText
 10
734.0
 20
104.0
 30
0.0
 40
2.0
  1
06-10-2026
  7
ARIAL
 72
1
 11
734.0
 21
104.0
 31
0.0
100
AcDbAttribute
  2
REV0_F
 70
0
 74
2
 71
1
 72
0
 11
734.0
 21
104.0
 31
0.0
  0
ATTRIB
  5
326
330
270
100
AcDbEntity
 67
1
  8
A-CAJETIN-TXT
100
AcDbText
 10
746.5
 20
104.0
 30
0.0
 40
2.0
  1
VERSIÓN DE TRABAJO PARA REVISIÓN
  7
ARIAL
 11
746.5
 21
104.0
 31
0.0
100
AcDbAttribute
  2
REV0_D
 70
0
 74
2
 71
1
 72
0
 11
746.5
 21
104.0
 31
0.0
  0
ATTRIB
  5
327
330
270
100
AcDbEntity
 67
1
  8
A-CAJETIN-TXT
100
AcDbText
 10
717.0
 20
98.8
 30
0.0
 40
2.0
  1

  7
ARIAL
 72
1
 11
717.0
 21
98.8
 31
0.0
100
AcDbAttribute
  2
REV1_N
 70
0
 74
2
 71
1
 72
0
 11
717.0
 21
98.8
 31
0.0
  0
ATTRIB
  5
328
330
270
100
AcDbEntity
 67
1
  8
A-CAJETIN-TXT
100
AcDbText
 10
734.0
 20
98.8
 30
0.0
 40
2.0
  1

  7
ARIAL
 72
1
 11
734.0
 21
98.8
 31
0.0
100
AcDbAttribute
  2
REV1_F
 70
0
 74
2
 71
1
 72
0
 11
734.0
 21
98.8
 31
0.0
  0
ATTRIB
  5
329
330
270
100
AcDbEntity
 67
1
  8
A-CAJETIN-TXT
100
AcDbText
 10
746.5
 20
98.8
 30
0.0
 40
2.0
  1

  7
ARIAL
 11
746.5
 21
98.8
 31
0.0
100
AcDbAttribute
  2
REV1_D
 70
0
 74
2
 71
1
 72
0
 11
746.5
 21
98.8
 31
0.0
  0
ATTRIB
  5
32A
330
270
100
AcDbEntity
 67
1
  8
A-CAJETIN-TXT
100
AcDbText
 10
717.0
 20
93.6
 30
0.0
 40
2.0
  1

  7
ARIAL
 72
1
 11
717.0
 21
93.6
 31
0.0
100
AcDbAttribute
  2
REV2_N
 70
0
 74
2
 71
1
 72
0
 11
717.0
 21
93.6
 31
0.0
  0
ATTRIB
  5
32B
330
270
100
AcDbEntity
 67
1
  8
A-CAJETIN-TXT
100
AcDbText
 10
734.0
 20
93.6
 30
0.0
 40
2.0
  1

  7
ARIAL
 72
1
 11
734.0
 21
93.6
 31
0.0
100
AcDbAttribute
  2
REV2_F
 70
0
 74
2
 71
1
 72
0
 11
734.0
 21
93.6
 31
0.0
  0
ATTRIB
  5
32C
330
270
100
AcDbEntity
 67
1
  8
A-CAJETIN-TXT
100
AcDbText
 10
746.5
 20
93.6
 30
0.0
 40
2.0
  1

  7
ARIAL
 11
746.5
 21
93.6
 31
0.0
100
AcDbAttribute
  2
REV2_D
 70
0
 74
2
 71
1
 72
0
 11
746.5
 21
93.6
 31
0.0
  0
ATTRIB
  5
32D
330
270
100
AcDbEntity
 67
1
  8
A-CAJETIN-TXT
100
AcDbText
 10
771.0
 20
82.99999999999999
 30
0.0
 40
3.0
  1
VERSIÓN DE TRABAJO
  7
ARIAL
 72
1
 11
771.0
 21
82.99999999999999
 31
0.0
100
AcDbAttribute
  2
ESTADO_1
 70
0
 74
3
 71
1
 72
0
 11
771.0
 21
82.99999999999999
 31
0.0
  0
ATTRIB
  5
32E
330
270
100
AcDbEntity
 67
1
  8
A-CAJETIN-TXT
100
AcDbText
 10
771.0
 20
77.99999999999999
 30
0.0
 40
2.4
  1
NO APTA PARA CONSTRUCCIÓN NI TRÁMITE
  7
ARIAL
 72
1
 11
771.0
 21
77.99999999999999
 31
0.0
100
AcDbAttribute
  2
ESTADO_2
 70
0
 74
3
 71
1
 72
0
 11
771.0
 21
77.99999999999999
 31
0.0
  0
ATTRIB
  5
32F
330
270
100
AcDbEntity
 67
1
  8
A-CAJETIN-TXT
100
AcDbText
 10
744.0
 20
49.999999999999986
 30
0.0
 40
5.0
  1
COSTA RICA
  7
ARIAL
 72
1
 11
744.0
 21
49.999999999999986
 31
0.0
100
AcDbAttribute
  2
LUGAR
 70
0
 74
2
 71
1
 72
0
 11
744.0
 21
49.999999999999986
 31
0.0
  0
ATTRIB
  5
330
330
270
100
AcDbEntity
 67
1
  8
A-CAJETIN-TXT
100
AcDbText
 10
804.0
 20
49.999999999999986
 30
0.0
 40
14.0
  1
C02
  7
ARIAL
 72
1
 11
804.0
 21
49.999999999999986
 31
0.0
100
AcDbAttribute
  2
LAMINA
 70
0
 74
2
 71
1
 72
0
 11
804.0
 21
49.999999999999986
 31
0.0
  0
ATTRIB
  5
331
330
270
100
AcDbEntity
 67
1
  8
A-CAJETIN-TXT
100
AcDbText
 10
744.0
 20
23.499999999999993
 30
0.0
 40
6.0
  1
OCT 2026
  7
ARIAL
 72
1
 11
744.0
 21
23.499999999999993
 31
0.0
100
AcDbAttribute
  2
FECHA
 70
0
 74
2
 71
1
 72
0
 11
744.0
 21
23.499999999999993
 31
0.0
  0
ATTRIB
  5
332
330
270
100
AcDbEntity
 67
1
  8
A-CAJETIN-TXT
100
AcDbText
 10
815.0
 20
23.499999999999993
 30
0.0
 40
9.0
  1
--
  7
ARIAL
 72
1
 11
815.0
 21
23.499999999999993
 31
0.0
100
AcDbAttribute
  2
TOTAL
 70
0
 74
2
 71
1
 72
0
 11
815.0
 21
23.499999999999993
 31
0.0
  0
SEQEND
  5
30F
330
30E
100
AcDbEntity
 67
1
  8
A-CAJETIN
  0
ENDSEC
  0
SECTION
  2
OBJECTS
  0
DICTIONARY
  5
A
330
0
100
AcDbDictionary
281
1
  3
ACAD_COLOR
350
B
  3
ACAD_GROUP
350
C
  3
ACAD_LAYOUT
350
D
  3
ACAD_MATERIAL
350
E
  3
ACAD_MLEADERSTYLE
350
F
  3
ACAD_MLINESTYLE
350
10
  3
ACAD_PLOTSETTINGS
350
11
  3
ACAD_PLOTSTYLENAME
350
12
  3
ACAD_SCALELIST
350
14
  3
ACAD_TABLESTYLE
350
15
  3
ACAD_VISUALSTYLE
350
16
  3
EZDXF_META
350
2D
  0
DICTIONARY
  5
B
330
A
100
AcDbDictionary
281
1
  0
DICTIONARY
  5
C
330
A
100
AcDbDictionary
281
1
  0
DICTIONARY
  5
D
330
A
100
AcDbDictionary
281
1
  3
Model
350
1A
  3
Layout1
350
1E
  3
C02-DETALLES
350
273
  0
DICTIONARY
  5
E
330
A
100
AcDbDictionary
281
1
  3
ByBlock
350
1F
  3
ByLayer
350
20
  3
Global
350
21
  0
DICTIONARY
  5
F
330
A
100
AcDbDictionary
281
1
  3
Standard
350
2C
  0
DICTIONARY
  5
10
330
A
100
AcDbDictionary
281
1
  3
Standard
350
22
  0
DICTIONARY
  5
11
330
A
100
AcDbDictionary
281
1
  0
ACDBDICTIONARYWDFLT
  5
12
330
A
100
AcDbDictionary
281
1
  3
Normal
350
13
100
AcDbDictionaryWithDefault
340
13
  0
ACDBPLACEHOLDER
  5
13
330
12
  0
DICTIONARY
  5
14
330
A
100
AcDbDictionary
281
1
  0
DICTIONARY
  5
15
330
A
100
AcDbDictionary
281
1
  0
DICTIONARY
  5
16
330
A
100
AcDbDictionary
281
1
  3
2dWireframe
350
5A
  3
Basic
350
5B
  3
Brighten
350
5C
  3
ColorChange
350
5D
  3
Conceptual
350
5E
  3
Dim
350
5F
  3
EdgeColorOff
350
60
  3
Facepattern
350
61
  3
Flat
350
62
  3
FlatWithEdges
350
63
  3
Gouraud
350
64
  3
GouraudWithEdges
350
65
  3
Hidden
350
66
  3
JitterOff
350
67
  3
Linepattern
350
68
  3
Modeling
350
69
  3
OverhangOff
350
6A
  3
Realistic
350
6B
  3
Shaded
350
6C
  3
Shaded with edges
350
6D
  3
Shades of Gray
350
6E
  3
Sketchy
350
6F
  3
Thicken
350
70
  3
Wireframe
350
71
  3
X-Ray
350
72
  0
LAYOUT
  5
1A
330
D
100
AcDbPlotSettings
  1

  4
A3
  6

 40
7.5
 41
20.0
 42
7.5
 43
20.0
 44
420.0
 45
297.0
 46
0.0
 47
0.0
 48
0.0
 49
0.0
140
0.0
141
0.0
142
1.0
143
1.0
 70
1024
 72
1
 73
0
 74
5
  7

 75
16
 76
0
 77
2
 78
300
147
1.0
148
0.0
149
0.0
100
AcDbLayout
  1
Model
 70
1
 71
0
 10
0.0
 20
0.0
 11
420.0
 21
297.0
 12
0.0
 22
0.0
 32
0.0
 14
1e+20
 24
1e+20
 34
1e+20
 15
-1e+20
 25
-1e+20
 35
-1e+20
146
0.0
 13
0.0
 23
0.0
 33
0.0
 16
1.0
 26
0.0
 36
0.0
 17
0.0
 27
1.0
 37
0.0
 76
1
330
17
  0
LAYOUT
  5
1E
330
D
100
AcDbPlotSettings
  1

  4
A3
  6

 40
7.5
 41
20.0
 42
7.5
 43
20.0
 44
420.0
 45
297.0
 46
0.0
 47
0.0
 48
0.0
 49
0.0
140
0.0
141
0.0
142
1.0
143
1.0
 70
0
 72
1
 73
0
 74
5
  7

 75
16
 76
0
 77
2
 78
300
147
1.0
148
0.0
149
0.0
100
AcDbLayout
  1
Layout1
 70
1
 71
1
 10
0.0
 20
0.0
 11
420.0
 21
297.0
 12
0.0
 22
0.0
 32
0.0
 14
1e+20
 24
1e+20
 34
1e+20
 15
-1e+20
 25
-1e+20
 35
-1e+20
146
0.0
 13
0.0
 23
0.0
 33
0.0
 16
1.0
 26
0.0
 36
0.0
 17
0.0
 27
1.0
 37
0.0
 76
1
330
1B
  0
MATERIAL
  5
1F
102
{ACAD_REACTORS
330
E
102
}
330
E
100
AcDbMaterial
  1
ByBlock
  2

 70
0
 40
1.0
 71
1
 41
1.0
 91
-1023410177
 42
1.0
 72
1
  3

 73
1
 74
1
 75
1
 44
0.5
 73
0
 45
1.0
 46
1.0
 77
1
  4

 78
1
 79
1
170
1
 48
1.0
171
1
  6

172
1
173
1
174
1
140
1.0
141
1.0
175
1
  7

176
1
177
1
178
1
143
1.0
179
1
  8

270
1
271
1
272
1
145
1.0
146
1.0
273
1
  9

274
1
275
1
276
1
 42
1.0
 72
1
  3

 73
1
 74
1
 75
1
 94
63
  0
MATERIAL
  5
20
102
{ACAD_REACTORS
330
E
102
}
330
E
100
AcDbMaterial
  1
ByLayer
  2

 70
0
 40
1.0
 71
1
 41
1.0
 91
-1023410177
 42
1.0
 72
1
  3

 73
1
 74
1
 75
1
 44
0.5
 73
0
 45
1.0
 46
1.0
 77
1
  4

 78
1
 79
1
170
1
 48
1.0
171
1
  6

172
1
173
1
174
1
140
1.0
141
1.0
175
1
  7

176
1
177
1
178
1
143
1.0
179
1
  8

270
1
271
1
272
1
145
1.0
146
1.0
273
1
  9

274
1
275
1
276
1
 42
1.0
 72
1
  3

 73
1
 74
1
 75
1
 94
63
  0
MATERIAL
  5
21
102
{ACAD_REACTORS
330
E
102
}
330
E
100
AcDbMaterial
  1
Global
  2

 70
0
 40
1.0
 71
1
 41
1.0
 91
-1023410177
 42
1.0
 72
1
  3

 73
1
 74
1
 75
1
 44
0.5
 73
0
 45
1.0
 46
1.0
 77
1
  4

 78
1
 79
1
170
1
 48
1.0
171
1
  6

172
1
173
1
174
1
140
1.0
141
1.0
175
1
  7

176
1
177
1
178
1
143
1.0
179
1
  8

270
1
271
1
272
1
145
1.0
146
1.0
273
1
  9

274
1
275
1
276
1
 42
1.0
 72
1
  3

 73
1
 74
1
 75
1
 94
63
  0
MLINESTYLE
  5
22
102
{ACAD_REACTORS
330
10
102
}
330
10
100
AcDbMlineStyle
  2
Standard
 70
0
  3

 62
256
 51
90.0
 52
90.0
 71
2
 49
0.5
 62
256
  6
BYLAYER
 49
-0.5
 62
256
  6
BYLAYER
  0
MLEADERSTYLE
  5
2C
102
{ACAD_REACTORS
330
F
102
}
330
F
100
AcDbMLeaderStyle
179
2
170
2
171
1
172
0
 90
2
 40
0.0
 41
0.0
173
1
 91
-1056964608
 92
-2
290
1
 42
2.0
291
1
 43
8.0
  3
Standard
 44
4.0
300

342
29
174
1
175
1
176
0
178
1
 93
-1056964608
 45
4.0
292
0
297
0
 46
4.0
 94
-1056964608
 47
1.0
 49
1.0
140
1.0
294
1
141
0.0
177
0
142
1.0
295
0
296
0
143
3.75
271
0
272
9
273
9
  0
DICTIONARY
  5
2D
330
A
100
AcDbDictionary
280
1
281
1
  3
CREATED_BY_EZDXF
350
2E
  3
WRITTEN_BY_EZDXF
350
335
  0
DICTIONARYVAR
  5
2E
330
2D
100
DictionaryVariables
280
0
  1
1.4.4 @ 2026-10-06T20:23:35.820867+00:00
  0
VISUALSTYLE
  5
5A
102
{ACAD_REACTORS
330
16
102
}
330
16
100
AcDbVisualStyle
  2
2dWireframe
 70
4
177
3
291
0
 70
58
 90
2
176
1
 90
2
176
1
 90
0
176
1
 90
0
176
1
 40
0.6
176
1
 40
30.0
176
1
 62
7
420
16777215
176
1
 90
1
176
1
 90
4
176
1
 62
7
176
1
 62
257
176
1
 90
1
176
1
 90
1
176
1
 40
1.0
176
1
 90
8
176
1
 62
7
176
1
 40
1.0
176
1
 90
1
176
1
 90
6
176
1
 90
2
176
1
 62
7
176
1
 90
5
176
1
 90
0
176
1
 90
0
176
1
290
0
176
1
 90
1
176
1
 40
0.0
176
1
 90
0
176
1
290
1
176
1
290
1
176
1
290
0
176
1
290
0
176
1
290
0
176
1
290
0
176
1
290
0
176
1
290
0
176
1
290
0
176
1
 90
50
176
1
 40
0.0
176
1
 40
1.0
176
1
 90
0
176
1
 62
18
420
0
176
1
 90
50
176
1
 90
3
176
1
 62
5
420
255
176
1
290
0
176
1
 90
50
176
1
 90
50
176
1
 90
50
176
1
290
0
176
1
 90
50
176
1
 62
256
176
0
 40
1.0
176
0
 90
2
176
1
  1
strokes_ogs.tif
176
1
290
0
176
1
 40
1.0
176
1
 40
1.0
176
1
  0
VISUALSTYLE
  5
5B
102
{ACAD_REACTORS
330
16
102
}
330
16
100
AcDbVisualStyle
  2
Basic
 70
7
177
3
291
1
 70
58
 90
2
176
1
 90
2
176
1
 90
0
176
1
 90
1
176
1
 40
0.6
176
1
 40
30.0
176
1
 62
7
420
16777215
176
1
 90
1
176
1
 90
4
176
1
 62
7
176
1
 62
257
176
1
 90
1
176
1
 90
1
176
1
 40
1.0
176
1
 90
8
176
1
 62
7
176
1
 40
1.0
176
1
 90
1
176
1
 90
6
176
1
 90
2
176
1
 62
7
176
1
 90
5
176
1
 90
0
176
1
 90
0
176
1
290
0
176
1
 90
1
176
1
 40
0.0
176
1
 90
0
176
1
290
0
176
1
290
1
176
1
290
1
176
1
290
0
176
1
290
0
176
1
290
0
176
1
290
0
176
1
290
0
176
1
290
0
176
1
 90
50
176
1
 40
0.0
176
1
 40
1.0
176
1
 90
0
176
1
 62
18
420
0
176
1
 90
50
176
1
 90
3
176
1
 62
5
420
255
176
1
290
0
176
1
 90
50
176
1
 90
50
176
1
 90
50
176
1
290
0
176
1
 90
50
176
1
 62
256
176
0
 40
1.0
176
0
 90
2
176
1
  1
strokes_ogs.tif
176
1
290
0
176
1
 40
1.0
176
1
 40
1.0
176
1
  0
VISUALSTYLE
  5
5C
102
{ACAD_REACTORS
330
16
102
}
330
16
100
AcDbVisualStyle
  2
Brighten
 70
12
177
3
291
1
 70
58
 90
2
176
1
 90
2
176
1
 90
0
176
1
 90
2
176
1
 40
0.6
176
1
 40
30.0
176
1
 62
7
420
16777215
176
1
 90
1
176
1
 90
4
176
1
 62
7
176
1
 62
257
176
1
 90
1
176
1
 90
1
176
1
 40
1.0
176
1
 90
8
176
1
 62
7
176
1
 40
1.0
176
1
 90
1
176
1
 90
6
176
1
 90
2
176
1
 62
7
176
1
 90
5
176
1
 90
0
176
1
 90
0
176
1
290
0
176
1
 90
1
176
1
 40
0.0
176
1
 90
0
176
1
290
0
176
1
290
1
176
1
290
1
176
1
290
0
176
1
290
0
176
1
290
0
176
1
290
0
176
1
290
0
176
1
290
0
176
1
 90
50
176
1
 40
0.0
176
1
 40
1.0
176
1
 90
0
176
1
 62
18
420
0
176
1
 90
50
176
1
 90
3
176
1
 62
5
420
255
176
1
290
0
176
1
 90
50
176
1
 90
50
176
1
 90
50
176
1
290
0
176
1
 90
50
176
1
 62
256
176
0
 40
1.0
176
0
 90
2
176
1
  1
strokes_ogs.tif
176
1
290
0
176
1
 40
1.0
176
1
 40
1.0
176
1
  0
VISUALSTYLE
  5
5D
102
{ACAD_REACTORS
330
16
102
}
330
16
100
AcDbVisualStyle
  2
ColorChange
 70
16
177
3
291
1
 70
58
 90
2
176
1
 90
2
176
1
 90
0
176
1
 90
2
176
1
 40
0.6
176
1
 40
30.0
176
1
 62
7
420
16777215
176
1
 90
1
176
1
 90
4
176
1
 62
7
176
1
 62
257
176
1
 90
1
176
1
 90
1
176
1
 40
1.0
176
1
 90
8
176
1
 62
7
176
1
 40
1.0
176
1
 90
1
176
1
 90
6
176
1
 90
2
176
1
 62
7
176
1
 90
5
176
1
 90
0
176
1
 90
0
176
1
290
0
176
1
 90
1
176
1
 40
0.0
176
1
 90
0
176
1
290
0
176
1
290
1
176
1
290
1
176
1
290
0
176
1
290
0
176
1
290
0
176
1
290
0
176
1
290
0
176
1
290
0
176
1
 90
50
176
1
 40
0.0
176
1
 40
1.0
176
1
 90
0
176
1
 62
18
420
0
176
1
 90
50
176
1
 90
3
176
1
 62
5
420
255
176
1
290
0
176
1
 90
50
176
1
 90
50
176
1
 90
50
176
1
290
0
176
1
 90
50
176
1
 62
256
176
0
 40
1.0
176
0
 90
2
176
1
  1
strokes_ogs.tif
176
1
290
0
176
1
 40
1.0
176
1
 40
1.0
176
1
  0
VISUALSTYLE
  5
5E
102
{ACAD_REACTORS
330
16
102
}
330
16
100
AcDbVisualStyle
  2
Conceptual
 70
9
177
3
291
0
 70
58
 90
2
176
1
 90
2
176
1
 90
0
176
1
 90
3
176
1
 40
0.6
176
1
 40
30.0
176
1
 62
7
420
16777215
176
1
 90
1
176
1
 90
4
176
1
 62
7
176
1
 62
257
176
1
 90
1
176
1
 90
1
176
1
 40
1.0
176
1
 90
8
176
1
 62
7
176
1
 40
1.0
176
1
 90
1
176
1
 90
6
176
1
 90
2
176
1
 62
7
176
1
 90
5
176
1
 90
0
176
1
 90
0
176
1
290
0
176
1
 90
1
176
1
 40
0.0
176
1
 90
0
176
1
290
0
176
1
290
1
176
1
290
1
176
1
290
0
176
1
290
0
176
1
290
0
176
1
290
0
176
1
290
0
176
1
290
0
176
1
 90
50
176
1
 40
0.0
176
1
 40
1.0
176
1
 90
0
176
1
 62
18
420
0
176
1
 90
50
176
1
 90
3
176
1
 62
5
420
255
176
1
290
0
176
1
 90
50
176
1
 90
50
176
1
 90
50
176
1
290
0
176
1
 90
50
176
1
 62
256
176
0
 40
1.0
176
0
 90
2
176
1
  1
strokes_ogs.tif
176
1
290
0
176
1
 40
1.0
176
1
 40
1.0
176
1
  0
VISUALSTYLE
  5
5F
102
{ACAD_REACTORS
330
16
102
}
330
16
100
AcDbVisualStyle
  2
Dim
 70
11
177
3
291
1
 70
58
 90
2
176
1
 90
2
176
1
 90
0
176
1
 90
2
176
1
 40
0.6
176
1
 40
30.0
176
1
 62
7
420
16777215
176
1
 90
1
176
1
 90
4
176
1
 62
7
176
1
 62
257
176
1
 90
1
176
1
 90
1
176
1
 40
1.0
176
1
 90
8
176
1
 62
7
176
1
 40
1.0
176
1
 90
1
176
1
 90
6
176
1
 90
2
176
1
 62
7
176
1
 90
5
176
1
 90
0
176
1
 90
0
176
1
290
0
176
1
 90
1
176
1
 40
0.0
176
1
 90
0
176
1
290
0
176
1
290
1
176
1
290
1
176
1
290
0
176
1
290
0
176
1
290
0
176
1
290
0
176
1
290
0
176
1
290
0
176
1
 90
50
176
1
 40
0.0
176
1
 40
1.0
176
1
 90
0
176
1
 62
18
420
0
176
1
 90
50
176
1
 90
3
176
1
 62
5
420
255
176
1
290
0
176
1
 90
50
176
1
 90
50
176
1
 90
50
176
1
290
0
176
1
 90
50
176
1
 62
256
176
0
 40
1.0
176
0
 90
2
176
1
  1
strokes_ogs.tif
176
1
290
0
176
1
 40
1.0
176
1
 40
1.0
176
1
  0
VISUALSTYLE
  5
60
102
{ACAD_REACTORS
330
16
102
}
330
16
100
AcDbVisualStyle
  2
EdgeColorOff
 70
22
177
3
291
1
 70
58
 90
2
176
1
 90
2
176
1
 90
0
176
1
 90
2
176
1
 40
0.6
176
1
 40
30.0
176
1
 62
7
420
16777215
176
1
 90
1
176
1
 90
4
176
1
 62
7
176
1
 62
257
176
1
 90
1
176
1
 90
1
176
1
 40
1.0
176
1
 90
8
176
1
 62
7
176
1
 40
1.0
176
1
 90
1
176
1
 90
6
176
1
 90
2
176
1
 62
7
176
1
 90
5
176
1
 90
0
176
1
 90
0
176
1
290
0
176
1
 90
1
176
1
 40
0.0
176
1
 90
0
176
1
290
0
176
1
290
1
176
1
290
1
176
1
290
0
176
1
290
0
176
1
290
0
176
1
290
0
176
1
290
0
176
1
290
0
176
1
 90
50
176
1
 40
0.0
176
1
 40
1.0
176
1
 90
0
176
1
 62
18
420
0
176
1
 90
50
176
1
 90
3
176
1
 62
5
420
255
176
1
290
0
176
1
 90
50
176
1
 90
50
176
1
 90
50
176
1
290
0
176
1
 90
50
176
1
 62
256
176
0
 40
1.0
176
0
 90
2
176
1
  1
strokes_ogs.tif
176
1
290
0
176
1
 40
1.0
176
1
 40
1.0
176
1
  0
VISUALSTYLE
  5
61
102
{ACAD_REACTORS
330
16
102
}
330
16
100
AcDbVisualStyle
  2
Facepattern
 70
15
177
3
291
1
 70
58
 90
2
176
1
 90
2
176
1
 90
0
176
1
 90
2
176
1
 40
0.6
176
1
 40
30.0
176
1
 62
7
420
16777215
176
1
 90
1
176
1
 90
4
176
1
 62
7
176
1
 62
257
176
1
 90
1
176
1
 90
1
176
1
 40
1.0
176
1
 90
8
176
1
 62
7
176
1
 40
1.0
176
1
 90
1
176
1
 90
6
176
1
 90
2
176
1
 62
7
176
1
 90
5
176
1
 90
0
176
1
 90
0
176
1
290
0
176
1
 90
1
176
1
 40
0.0
176
1
 90
0
176
1
290
0
176
1
290
1
176
1
290
1
176
1
290
0
176
1
290
0
176
1
290
0
176
1
290
0
176
1
290
0
176
1
290
0
176
1
 90
50
176
1
 40
0.0
176
1
 40
1.0
176
1
 90
0
176
1
 62
18
420
0
176
1
 90
50
176
1
 90
3
176
1
 62
5
420
255
176
1
290
0
176
1
 90
50
176
1
 90
50
176
1
 90
50
176
1
290
0
176
1
 90
50
176
1
 62
256
176
0
 40
1.0
176
0
 90
2
176
1
  1
strokes_ogs.tif
176
1
290
0
176
1
 40
1.0
176
1
 40
1.0
176
1
  0
VISUALSTYLE
  5
62
102
{ACAD_REACTORS
330
16
102
}
330
16
100
AcDbVisualStyle
  2
Flat
 70
0
177
3
291
1
 70
58
 90
2
176
1
 90
2
176
1
 90
0
176
1
 90
2
176
1
 40
0.6
176
1
 40
30.0
176
1
 62
7
420
16777215
176
1
 90
1
176
1
 90
4
176
1
 62
7
176
1
 62
257
176
1
 90
1
176
1
 90
1
176
1
 40
1.0
176
1
 90
8
176
1
 62
7
176
1
 40
1.0
176
1
 90
1
176
1
 90
6
176
1
 90
2
176
1
 62
7
176
1
 90
5
176
1
 90
0
176
1
 90
0
176
1
290
0
176
1
 90
1
176
1
 40
0.0
176
1
 90
0
176
1
290
0
176
1
290
1
176
1
290
1
176
1
290
0
176
1
290
0
176
1
290
0
176
1
290
0
176
1
290
0
176
1
290
0
176
1
 90
50
176
1
 40
0.0
176
1
 40
1.0
176
1
 90
0
176
1
 62
18
420
0
176
1
 90
50
176
1
 90
3
176
1
 62
5
420
255
176
1
290
0
176
1
 90
50
176
1
 90
50
176
1
 90
50
176
1
290
0
176
1
 90
50
176
1
 62
256
176
0
 40
1.0
176
0
 90
2
176
1
  1
strokes_ogs.tif
176
1
290
0
176
1
 40
1.0
176
1
 40
1.0
176
1
  0
VISUALSTYLE
  5
63
102
{ACAD_REACTORS
330
16
102
}
330
16
100
AcDbVisualStyle
  2
FlatWithEdges
 70
1
177
3
291
1
 70
58
 90
2
176
1
 90
2
176
1
 90
0
176
1
 90
2
176
1
 40
0.6
176
1
 40
30.0
176
1
 62
7
420
16777215
176
1
 90
1
176
1
 90
4
176
1
 62
7
176
1
 62
257
176
1
 90
1
176
1
 90
1
176
1
 40
1.0
176
1
 90
8
176
1
 62
7
176
1
 40
1.0
176
1
 90
1
176
1
 90
6
176
1
 90
2
176
1
 62
7
176
1
 90
5
176
1
 90
0
176
1
 90
0
176
1
290
0
176
1
 90
1
176
1
 40
0.0
176
1
 90
0
176
1
290
0
176
1
290
1
176
1
290
1
176
1
290
0
176
1
290
0
176
1
290
0
176
1
290
0
176
1
290
0
176
1
290
0
176
1
 90
50
176
1
 40
0.0
176
1
 40
1.0
176
1
 90
0
176
1
 62
18
420
0
176
1
 90
50
176
1
 90
3
176
1
 62
5
420
255
176
1
290
0
176
1
 90
50
176
1
 90
50
176
1
 90
50
176
1
290
0
176
1
 90
50
176
1
 62
256
176
0
 40
1.0
176
0
 90
2
176
1
  1
strokes_ogs.tif
176
1
290
0
176
1
 40
1.0
176
1
 40
1.0
176
1
  0
VISUALSTYLE
  5
64
102
{ACAD_REACTORS
330
16
102
}
330
16
100
AcDbVisualStyle
  2
Gouraud
 70
2
177
3
291
1
 70
58
 90
2
176
1
 90
2
176
1
 90
0
176
1
 90
2
176
1
 40
0.6
176
1
 40
30.0
176
1
 62
7
420
16777215
176
1
 90
1
176
1
 90
4
176
1
 62
7
176
1
 62
257
176
1
 90
1
176
1
 90
1
176
1
 40
1.0
176
1
 90
8
176
1
 62
7
176
1
 40
1.0
176
1
 90
1
176
1
 90
6
176
1
 90
2
176
1
 62
7
176
1
 90
5
176
1
 90
0
176
1
 90
0
176
1
290
0
176
1
 90
1
176
1
 40
0.0
176
1
 90
0
176
1
290
0
176
1
290
1
176
1
290
1
176
1
290
0
176
1
290
0
176
1
290
0
176
1
290
0
176
1
290
0
176
1
290
0
176
1
 90
50
176
1
 40
0.0
176
1
 40
1.0
176
1
 90
0
176
1
 62
18
420
0
176
1
 90
50
176
1
 90
3
176
1
 62
5
420
255
176
1
290
0
176
1
 90
50
176
1
 90
50
176
1
 90
50
176
1
290
0
176
1
 90
50
176
1
 62
256
176
0
 40
1.0
176
0
 90
2
176
1
  1
strokes_ogs.tif
176
1
290
0
176
1
 40
1.0
176
1
 40
1.0
176
1
  0
VISUALSTYLE
  5
65
102
{ACAD_REACTORS
330
16
102
}
330
16
100
AcDbVisualStyle
  2
GouraudWithEdges
 70
3
177
3
291
1
 70
58
 90
2
176
1
 90
2
176
1
 90
0
176
1
 90
2
176
1
 40
0.6
176
1
 40
30.0
176
1
 62
7
420
16777215
176
1
 90
1
176
1
 90
4
176
1
 62
7
176
1
 62
257
176
1
 90
1
176
1
 90
1
176
1
 40
1.0
176
1
 90
8
176
1
 62
7
176
1
 40
1.0
176
1
 90
1
176
1
 90
6
176
1
 90
2
176
1
 62
7
176
1
 90
5
176
1
 90
0
176
1
 90
0
176
1
290
0
176
1
 90
1
176
1
 40
0.0
176
1
 90
0
176
1
290
0
176
1
290
1
176
1
290
1
176
1
290
0
176
1
290
0
176
1
290
0
176
1
290
0
176
1
290
0
176
1
290
0
176
1
 90
50
176
1
 40
0.0
176
1
 40
1.0
176
1
 90
0
176
1
 62
18
420
0
176
1
 90
50
176
1
 90
3
176
1
 62
5
420
255
176
1
290
0
176
1
 90
50
176
1
 90
50
176
1
 90
50
176
1
290
0
176
1
 90
50
176
1
 62
256
176
0
 40
1.0
176
0
 90
2
176
1
  1
strokes_ogs.tif
176
1
290
0
176
1
 40
1.0
176
1
 40
1.0
176
1
  0
VISUALSTYLE
  5
66
102
{ACAD_REACTORS
330
16
102
}
330
16
100
AcDbVisualStyle
  2
Hidden
 70
6
177
3
291
0
 70
58
 90
2
176
1
 90
2
176
1
 90
0
176
1
 90
1
176
1
 40
0.6
176
1
 40
30.0
176
1
 62
7
420
16777215
176
1
 90
1
176
1
 90
4
176
1
 62
7
176
1
 62
257
176
1
 90
1
176
1
 90
1
176
1
 40
1.0
176
1
 90
8
176
1
 62
7
176
1
 40
1.0
176
1
 90
1
176
1
 90
6
176
1
 90
2
176
1
 62
7
176
1
 90
5
176
1
 90
0
176
1
 90
0
176
1
290
0
176
1
 90
1
176
1
 40
0.0
176
1
 90
0
176
1
290
0
176
1
290
1
176
1
290
1
176
1
290
0
176
1
290
0
176
1
290
0
176
1
290
0
176
1
290
0
176
1
290
0
176
1
 90
50
176
1
 40
0.0
176
1
 40
1.0
176
1
 90
0
176
1
 62
18
420
0
176
1
 90
50
176
1
 90
3
176
1
 62
5
420
255
176
1
290
0
176
1
 90
50
176
1
 90
50
176
1
 90
50
176
1
290
0
176
1
 90
50
176
1
 62
256
176
0
 40
1.0
176
0
 90
2
176
1
  1
strokes_ogs.tif
176
1
290
0
176
1
 40
1.0
176
1
 40
1.0
176
1
  0
VISUALSTYLE
  5
67
102
{ACAD_REACTORS
330
16
102
}
330
16
100
AcDbVisualStyle
  2
JitterOff
 70
20
177
3
291
1
 70
58
 90
2
176
1
 90
2
176
1
 90
0
176
1
 90
2
176
1
 40
0.6
176
1
 40
30.0
176
1
 62
7
420
16777215
176
1
 90
1
176
1
 90
4
176
1
 62
7
176
1
 62
257
176
1
 90
1
176
1
 90
1
176
1
 40
1.0
176
1
 90
8
176
1
 62
7
176
1
 40
1.0
176
1
 90
1
176
1
 90
6
176
1
 90
2
176
1
 62
7
176
1
 90
5
176
1
 90
0
176
1
 90
0
176
1
290
0
176
1
 90
1
176
1
 40
0.0
176
1
 90
0
176
1
290
0
176
1
290
1
176
1
290
1
176
1
290
0
176
1
290
0
176
1
290
0
176
1
290
0
176
1
290
0
176
1
290
0
176
1
 90
50
176
1
 40
0.0
176
1
 40
1.0
176
1
 90
0
176
1
 62
18
420
0
176
1
 90
50
176
1
 90
3
176
1
 62
5
420
255
176
1
290
0
176
1
 90
50
176
1
 90
50
176
1
 90
50
176
1
290
0
176
1
 90
50
176
1
 62
256
176
0
 40
1.0
176
0
 90
2
176
1
  1
strokes_ogs.tif
176
1
290
0
176
1
 40
1.0
176
1
 40
1.0
176
1
  0
VISUALSTYLE
  5
68
102
{ACAD_REACTORS
330
16
102
}
330
16
100
AcDbVisualStyle
  2
Linepattern
 70
14
177
3
291
1
 70
58
 90
2
176
1
 90
2
176
1
 90
0
176
1
 90
2
176
1
 40
0.6
176
1
 40
30.0
176
1
 62
7
420
16777215
176
1
 90
1
176
1
 90
4
176
1
 62
7
176
1
 62
257
176
1
 90
1
176
1
 90
1
176
1
 40
1.0
176
1
 90
8
176
1
 62
7
176
1
 40
1.0
176
1
 90
1
176
1
 90
6
176
1
 90
2
176
1
 62
7
176
1
 90
5
176
1
 90
0
176
1
 90
0
176
1
290
0
176
1
 90
1
176
1
 40
0.0
176
1
 90
0
176
1
290
0
176
1
290
1
176
1
290
1
176
1
290
0
176
1
290
0
176
1
290
0
176
1
290
0
176
1
290
0
176
1
290
0
176
1
 90
50
176
1
 40
0.0
176
1
 40
1.0
176
1
 90
0
176
1
 62
18
420
0
176
1
 90
50
176
1
 90
3
176
1
 62
5
420
255
176
1
290
0
176
1
 90
50
176
1
 90
50
176
1
 90
50
176
1
290
0
176
1
 90
50
176
1
 62
256
176
0
 40
1.0
176
0
 90
2
176
1
  1
strokes_ogs.tif
176
1
290
0
176
1
 40
1.0
176
1
 40
1.0
176
1
  0
VISUALSTYLE
  5
69
102
{ACAD_REACTORS
330
16
102
}
330
16
100
AcDbVisualStyle
  2
Modeling
 70
10
177
3
291
0
 70
58
 90
2
176
1
 90
2
176
1
 90
0
176
1
 90
2
176
1
 40
0.6
176
1
 40
30.0
176
1
 62
7
420
16777215
176
1
 90
1
176
1
 90
4
176
1
 62
7
176
1
 62
257
176
1
 90
1
176
1
 90
1
176
1
 40
1.0
176
1
 90
8
176
1
 62
7
176
1
 40
1.0
176
1
 90
1
176
1
 90
6
176
1
 90
2
176
1
 62
7
176
1
 90
5
176
1
 90
0
176
1
 90
0
176
1
290
0
176
1
 90
1
176
1
 40
0.0
176
1
 90
0
176
1
290
0
176
1
290
1
176
1
290
1
176
1
290
0
176
1
290
0
176
1
290
0
176
1
290
0
176
1
290
0
176
1
290
0
176
1
 90
50
176
1
 40
0.0
176
1
 40
1.0
176
1
 90
0
176
1
 62
18
420
0
176
1
 90
50
176
1
 90
3
176
1
 62
5
420
255
176
1
290
0
176
1
 90
50
176
1
 90
50
176
1
 90
50
176
1
290
0
176
1
 90
50
176
1
 62
256
176
0
 40
1.0
176
0
 90
2
176
1
  1
strokes_ogs.tif
176
1
290
0
176
1
 40
1.0
176
1
 40
1.0
176
1
  0
VISUALSTYLE
  5
6A
102
{ACAD_REACTORS
330
16
102
}
330
16
100
AcDbVisualStyle
  2
OverhangOff
 70
21
177
3
291
1
 70
58
 90
2
176
1
 90
2
176
1
 90
0
176
1
 90
2
176
1
 40
0.6
176
1
 40
30.0
176
1
 62
7
420
16777215
176
1
 90
1
176
1
 90
4
176
1
 62
7
176
1
 62
257
176
1
 90
1
176
1
 90
1
176
1
 40
1.0
176
1
 90
8
176
1
 62
7
176
1
 40
1.0
176
1
 90
1
176
1
 90
6
176
1
 90
2
176
1
 62
7
176
1
 90
5
176
1
 90
0
176
1
 90
0
176
1
290
0
176
1
 90
1
176
1
 40
0.0
176
1
 90
0
176
1
290
0
176
1
290
1
176
1
290
1
176
1
290
0
176
1
290
0
176
1
290
0
176
1
290
0
176
1
290
0
176
1
290
0
176
1
 90
50
176
1
 40
0.0
176
1
 40
1.0
176
1
 90
0
176
1
 62
18
420
0
176
1
 90
50
176
1
 90
3
176
1
 62
5
420
255
176
1
290
0
176
1
 90
50
176
1
 90
50
176
1
 90
50
176
1
290
0
176
1
 90
50
176
1
 62
256
176
0
 40
1.0
176
0
 90
2
176
1
  1
strokes_ogs.tif
176
1
290
0
176
1
 40
1.0
176
1
 40
1.0
176
1
  0
VISUALSTYLE
  5
6B
102
{ACAD_REACTORS
330
16
102
}
330
16
100
AcDbVisualStyle
  2
Realistic
 70
8
177
3
291
0
 70
58
 90
2
176
1
 90
2
176
1
 90
0
176
1
 90
2
176
1
 40
0.6
176
1
 40
30.0
176
1
 62
7
420
16777215
176
1
 90
1
176
1
 90
4
176
1
 62
7
176
1
 62
257
176
1
 90
1
176
1
 90
1
176
1
 40
1.0
176
1
 90
8
176
1
 62
7
176
1
 40
1.0
176
1
 90
1
176
1
 90
6
176
1
 90
2
176
1
 62
7
176
1
 90
5
176
1
 90
0
176
1
 90
0
176
1
290
0
176
1
 90
1
176
1
 40
0.0
176
1
 90
0
176
1
290
0
176
1
290
1
176
1
290
1
176
1
290
0
176
1
290
0
176
1
290
0
176
1
290
0
176
1
290
0
176
1
290
0
176
1
 90
50
176
1
 40
0.0
176
1
 40
1.0
176
1
 90
0
176
1
 62
18
420
0
176
1
 90
50
176
1
 90
3
176
1
 62
5
420
255
176
1
290
0
176
1
 90
50
176
1
 90
50
176
1
 90
50
176
1
290
0
176
1
 90
50
176
1
 62
256
176
0
 40
1.0
176
0
 90
2
176
1
  1
strokes_ogs.tif
176
1
290
0
176
1
 40
1.0
176
1
 40
1.0
176
1
  0
VISUALSTYLE
  5
6C
102
{ACAD_REACTORS
330
16
102
}
330
16
100
AcDbVisualStyle
  2
Shaded
 70
27
177
3
291
0
 70
58
 90
2
176
1
 90
2
176
1
 90
0
176
1
 90
2
176
1
 40
0.6
176
1
 40
30.0
176
1
 62
7
420
16777215
176
1
 90
1
176
1
 90
4
176
1
 62
7
176
1
 62
257
176
1
 90
1
176
1
 90
1
176
1
 40
1.0
176
1
 90
8
176
1
 62
7
176
1
 40
1.0
176
1
 90
1
176
1
 90
6
176
1
 90
2
176
1
 62
7
176
1
 90
5
176
1
 90
0
176
1
 90
0
176
1
290
0
176
1
 90
1
176
1
 40
0.0
176
1
 90
0
176
1
290
0
176
1
290
1
176
1
290
1
176
1
290
0
176
1
290
0
176
1
290
0
176
1
290
0
176
1
290
0
176
1
290
0
176
1
 90
50
176
1
 40
0.0
176
1
 40
1.0
176
1
 90
0
176
1
 62
18
420
0
176
1
 90
50
176
1
 90
3
176
1
 62
5
420
255
176
1
290
0
176
1
 90
50
176
1
 90
50
176
1
 90
50
176
1
290
0
176
1
 90
50
176
1
 62
256
176
0
 40
1.0
176
0
 90
2
176
1
  1
strokes_ogs.tif
176
1
290
0
176
1
 40
1.0
176
1
 40
1.0
176
1
  0
VISUALSTYLE
  5
6D
102
{ACAD_REACTORS
330
16
102
}
330
16
100
AcDbVisualStyle
  2
Shaded with edges
 70
26
177
3
291
0
 70
58
 90
2
176
1
 90
2
176
1
 90
0
176
1
 90
2
176
1
 40
0.6
176
1
 40
30.0
176
1
 62
7
420
16777215
176
1
 90
1
176
1
 90
4
176
1
 62
7
176
1
 62
257
176
1
 90
1
176
1
 90
1
176
1
 40
1.0
176
1
 90
8
176
1
 62
7
176
1
 40
1.0
176
1
 90
1
176
1
 90
6
176
1
 90
2
176
1
 62
7
176
1
 90
5
176
1
 90
0
176
1
 90
0
176
1
290
0
176
1
 90
1
176
1
 40
0.0
176
1
 90
0
176
1
290
0
176
1
290
1
176
1
290
1
176
1
290
0
176
1
290
0
176
1
290
0
176
1
290
0
176
1
290
0
176
1
290
0
176
1
 90
50
176
1
 40
0.0
176
1
 40
1.0
176
1
 90
0
176
1
 62
18
420
0
176
1
 90
50
176
1
 90
3
176
1
 62
5
420
255
176
1
290
0
176
1
 90
50
176
1
 90
50
176
1
 90
50
176
1
290
0
176
1
 90
50
176
1
 62
256
176
0
 40
1.0
176
0
 90
2
176
1
  1
strokes_ogs.tif
176
1
290
0
176
1
 40
1.0
176
1
 40
1.0
176
1
  0
VISUALSTYLE
  5
6E
102
{ACAD_REACTORS
330
16
102
}
330
16
100
AcDbVisualStyle
  2
Shades of Gray
 70
23
177
3
291
0
 70
58
 90
2
176
1
 90
2
176
1
 90
0
176
1
 90
2
176
1
 40
0.6
176
1
 40
30.0
176
1
 62
7
420
16777215
176
1
 90
1
176
1
 90
4
176
1
 62
7
176
1
 62
257
176
1
 90
1
176
1
 90
1
176
1
 40
1.0
176
1
 90
8
176
1
 62
7
176
1
 40
1.0
176
1
 90
1
176
1
 90
6
176
1
 90
2
176
1
 62
7
176
1
 90
5
176
1
 90
0
176
1
 90
0
176
1
290
0
176
1
 90
1
176
1
 40
0.0
176
1
 90
0
176
1
290
0
176
1
290
1
176
1
290
1
176
1
290
0
176
1
290
0
176
1
290
0
176
1
290
0
176
1
290
0
176
1
290
0
176
1
 90
50
176
1
 40
0.0
176
1
 40
1.0
176
1
 90
0
176
1
 62
18
420
0
176
1
 90
50
176
1
 90
3
176
1
 62
5
420
255
176
1
290
0
176
1
 90
50
176
1
 90
50
176
1
 90
50
176
1
290
0
176
1
 90
50
176
1
 62
256
176
0
 40
1.0
176
0
 90
2
176
1
  1
strokes_ogs.tif
176
1
290
0
176
1
 40
1.0
176
1
 40
1.0
176
1
  0
VISUALSTYLE
  5
6F
102
{ACAD_REACTORS
330
16
102
}
330
16
100
AcDbVisualStyle
  2
Sketchy
 70
24
177
3
291
0
 70
58
 90
2
176
1
 90
2
176
1
 90
0
176
1
 90
1
176
1
 40
0.6
176
1
 40
30.0
176
1
 62
7
420
16777215
176
1
 90
1
176
1
 90
4
176
1
 62
7
176
1
 62
257
176
1
 90
1
176
1
 90
1
176
1
 40
1.0
176
1
 90
8
176
1
 62
7
176
1
 40
1.0
176
1
 90
1
176
1
 90
6
176
1
 90
2
176
1
 62
7
176
1
 90
5
176
1
 90
0
176
1
 90
0
176
1
290
0
176
1
 90
1
176
1
 40
0.0
176
1
 90
0
176
1
290
0
176
1
290
1
176
1
290
1
176
1
290
0
176
1
290
0
176
1
290
0
176
1
290
0
176
1
290
0
176
1
290
0
176
1
 90
50
176
1
 40
0.0
176
1
 40
1.0
176
1
 90
0
176
1
 62
18
420
0
176
1
 90
50
176
1
 90
3
176
1
 62
5
420
255
176
1
290
0
176
1
 90
50
176
1
 90
50
176
1
 90
50
176
1
290
0
176
1
 90
50
176
1
 62
256
176
0
 40
1.0
176
0
 90
2
176
1
  1
strokes_ogs.tif
176
1
290
0
176
1
 40
1.0
176
1
 40
1.0
176
1
  0
VISUALSTYLE
  5
70
102
{ACAD_REACTORS
330
16
102
}
330
16
100
AcDbVisualStyle
  2
Thicken
 70
13
177
3
291
1
 70
58
 90
2
176
1
 90
2
176
1
 90
0
176
1
 90
2
176
1
 40
0.6
176
1
 40
30.0
176
1
 62
7
420
16777215
176
1
 90
1
176
1
 90
4
176
1
 62
7
176
1
 62
257
176
1
 90
1
176
1
 90
1
176
1
 40
1.0
176
1
 90
8
176
1
 62
7
176
1
 40
1.0
176
1
 90
1
176
1
 90
6
176
1
 90
2
176
1
 62
7
176
1
 90
5
176
1
 90
0
176
1
 90
0
176
1
290
0
176
1
 90
1
176
1
 40
0.0
176
1
 90
0
176
1
290
0
176
1
290
1
176
1
290
1
176
1
290
0
176
1
290
0
176
1
290
0
176
1
290
0
176
1
290
0
176
1
290
0
176
1
 90
50
176
1
 40
0.0
176
1
 40
1.0
176
1
 90
0
176
1
 62
18
420
0
176
1
 90
50
176
1
 90
3
176
1
 62
5
420
255
176
1
290
0
176
1
 90
50
176
1
 90
50
176
1
 90
50
176
1
290
0
176
1
 90
50
176
1
 62
256
176
0
 40
1.0
176
0
 90
2
176
1
  1
strokes_ogs.tif
176
1
290
0
176
1
 40
1.0
176
1
 40
1.0
176
1
  0
VISUALSTYLE
  5
71
102
{ACAD_REACTORS
330
16
102
}
330
16
100
AcDbVisualStyle
  2
Wireframe
 70
5
177
3
291
0
 70
58
 90
2
176
1
 90
2
176
1
 90
0
176
1
 90
0
176
1
 40
0.6
176
1
 40
30.0
176
1
 62
7
420
16777215
176
1
 90
1
176
1
 90
4
176
1
 62
7
176
1
 62
257
176
1
 90
1
176
1
 90
1
176
1
 40
1.0
176
1
 90
8
176
1
 62
7
176
1
 40
1.0
176
1
 90
1
176
1
 90
6
176
1
 90
2
176
1
 62
7
176
1
 90
5
176
1
 90
0
176
1
 90
0
176
1
290
0
176
1
 90
1
176
1
 40
0.0
176
1
 90
0
176
1
290
0
176
1
290
1
176
1
290
1
176
1
290
0
176
1
290
0
176
1
290
0
176
1
290
0
176
1
290
0
176
1
290
0
176
1
 90
50
176
1
 40
0.0
176
1
 40
1.0
176
1
 90
0
176
1
 62
18
420
0
176
1
 90
50
176
1
 90
3
176
1
 62
5
420
255
176
1
290
0
176
1
 90
50
176
1
 90
50
176
1
 90
50
176
1
290
0
176
1
 90
50
176
1
 62
256
176
0
 40
1.0
176
0
 90
2
176
1
  1
strokes_ogs.tif
176
1
290
0
176
1
 40
1.0
176
1
 40
1.0
176
1
  0
VISUALSTYLE
  5
72
102
{ACAD_REACTORS
330
16
102
}
330
16
100
AcDbVisualStyle
  2
X-Ray
 70
25
177
3
291
0
 70
58
 90
2
176
1
 90
2
176
1
 90
0
176
1
 90
2
176
1
 40
0.5
176
1
 40
30.0
176
1
 62
7
420
16777215
176
1
 90
1
176
1
 90
4
176
1
 62
7
176
1
 62
257
176
1
 90
1
176
1
 90
1
176
1
 40
1.0
176
1
 90
8
176
1
 62
7
176
1
 40
1.0
176
1
 90
1
176
1
 90
6
176
1
 90
2
176
1
 62
7
176
1
 90
5
176
1
 90
0
176
1
 90
0
176
1
290
0
176
1
 90
1
176
1
 40
0.0
176
1
 90
0
176
1
290
0
176
1
290
1
176
1
290
1
176
1
290
0
176
1
290
0
176
1
290
0
176
1
290
0
176
1
290
0
176
1
290
0
176
1
 90
50
176
1
 40
0.0
176
1
 40
1.0
176
1
 90
0
176
1
 62
18
420
0
176
1
 90
50
176
1
 90
3
176
1
 62
5
420
255
176
1
290
0
176
1
 90
50
176
1
 90
50
176
1
 90
50
176
1
290
0
176
1
 90
50
176
1
 62
256
176
0
 40
1.0
176
0
 90
2
176
1
  1
strokes_ogs.tif
176
1
290
0
176
1
 40
1.0
176
1
 40
1.0
176
1
  0
LAYOUT
  5
273
330
D
100
AcDbPlotSettings
  1

  2
DWG to PDF.pc3
  4
ezdxf_(841.00_x_594.00_MM)
  6

 40
0.0
 41
0.0
 42
0.0
 43
0.0
 44
841.0
 45
594.0
 46
0.0
 47
0.0
 48
0.0
 49
0.0
140
0.0
141
0.0
142
1.0
143
1.0
 70
672
 72
1
 73
0
 74
5
  7

 75
16
 76
0
 77
2
 78
300
147
1.0
148
0.0
149
0.0
100
AcDbLayout
  1
C02-DETALLES
 70
1
 71
3
 10
-0.0
 20
-0.0
 11
841.0
 21
594.0
 12
0.0
 22
0.0
 32
0.0
 14
1e+20
 24
1e+20
 34
1e+20
 15
-1e+20
 25
-1e+20
 35
-1e+20
146
0.0
 13
0.0
 23
0.0
 33
0.0
 16
1.0
 26
0.0
 36
0.0
 17
0.0
 27
1.0
 37
0.0
 76
1
330
270
331
274
  0
DICTIONARYVAR
  5
335
330
2D
100
DictionaryVariables
280
0
  1
1.4.4 @ 2026-10-06T20:23:35.853449+00:00
  0
ENDSEC
  0
EOF
