  0
SECTION
  2
HEADER
  9
$ACADVER
  1
AC1032
  9
$ACADMAINTVER
 90
4
  9
$DWGCODEPAGE
  3
ANSI_1252
  9
$LASTSAVEDBY
  1
ezdxf
  9
$REQUIREDVERSIONS
160
0
  9
$INSBASE
 10
0.0
 20
0.0
 30
0.0
  9
$EXTMIN
 10
1e+20
 20
1e+20
 30
1e+20
  9
$EXTMAX
 10
-1e+20
 20
-1e+20
 30
-1e+20
  9
$LIMMIN
 10
0.0
 20
0.0
  9
$LIMMAX
 10
420.0
 20
297.0
  9
$ORTHOMODE
 70
0
  9
$REGENMODE
 70
1
  9
$FILLMODE
 70
1
  9
$QTEXTMODE
 70
0
  9
$MIRRTEXT
 70
1
  9
$LTSCALE
 40
1.0
  9
$ATTMODE
 70
1
  9
$TEXTSIZE
 40
2.5
  9
$TRACEWID
 40
1.0
  9
$TEXTSTYLE
  7
OpenSans
  9
$CLAYER
  8
0
  9
$CELTYPE
  6
ByLayer
  9
$CECOLOR
 62
256
  9
$CELTSCALE
 40
1.0
  9
$DISPSILH
 70
0
  9
$DIMSCALE
 40
1.0
  9
$DIMASZ
 40
0.175
  9
$DIMEXO
 40
0.125
  9
$DIMDLI
 40
3.75
  9
$DIMRND
 40
0.0
  9
$DIMDLE
 40
0.0
  9
$DIMEXE
 40
0.375
  9
$DIMTP
 40
0.0
  9
$DIMTM
 40
0.0
  9
$DIMTXT
 40
0.25
  9
$DIMCEN
 40
2.5
  9
$DIMTSZ
 40
0.0
  9
$DIMTOL
 70
0
  9
$DIMLIM
 70
0
  9
$DIMTIH
 70
0
  9
$DIMTOH
 70
0
  9
$DIMSE1
 70
0
  9
$DIMSE2
 70
0
  9
$DIMTAD
 70
1
  9
$DIMZIN
 70
12
  9
$DIMBLK
  1
ARCHTICK
  9
$DIMASO
 70
1
  9
$DIMSHO
 70
1
  9
$DIMPOST
  1

  9
$DIMAPOST
  1

  9
$DIMALT
 70
0
  9
$DIMALTD
 70
3
  9
$DIMALTF
 40
0.03937007874
  9
$DIMLFAC
 40
100.0
  9
$DIMTOFL
 70
1
  9
$DIMTVP
 40
0.0
  9
$DIMTIX
 70
0
  9
$DIMSOXD
 70
0
  9
$DIMSAH
 70
0
  9
$DIMBLK1
  1

  9
$DIMBLK2
  1

  9
$DIMSTYLE
  2
EZDXF
  9
$DIMCLRD
 70
0
  9
$DIMCLRE
 70
0
  9
$DIMCLRT
 70
0
  9
$DIMTFAC
 40
0.5
  9
$DIMGAP
 40
0.1
  9
$DIMJUST
 70
0
  9
$DIMSD1
 70
0
  9
$DIMSD2
 70
0
  9
$DIMTOLJ
 70
0
  9
$DIMTZIN
 70
8
  9
$DIMALTZ
 70
0
  9
$DIMALTTZ
 70
0
  9
$DIMUPT
 70
1
  9
$DIMDEC
 70
2
  9
$DIMTDEC
 70
2
  9
$DIMALTU
 70
2
  9
$DIMALTTD
 70
3
  9
$DIMTXSTY
  7
OpenSansCondensed-Light
  9
$DIMAUNIT
 70
0
  9
$DIMADEC
 70
2
  9
$DIMALTRND
 40
0.0
  9
$DIMAZIN
 70
3
  9
$DIMDSEP
 70
46
  9
$DIMATFIT
 70
3
  9
$DIMFRAC
 70
0
  9
$DIMLDRBLK
  1

  9
$DIMLUNIT
 70
2
  9
$DIMLWD
 70
-2
  9
$DIMLWE
 70
-2
  9
$DIMTMOVE
 70
2
  9
$DIMFXL
 40
1.0
  9
$DIMFXLON
 70
0
  9
$DIMJOGANG
 40
0.785398163397
  9
$DIMTFILL
 70
0
  9
$DIMTFILLCLR
 70
0
  9
$DIMARCSYM
 70
0
  9
$DIMLTYPE
  6

  9
$DIMLTEX1
  6

  9
$DIMLTEX2
  6

  9
$DIMTXTDIRECTION
 70
0
  9
$LUNITS
 70
2
  9
$LUPREC
 70
2
  9
$SKETCHINC
 40
1.0
  9
$FILLETRAD
 40
10.0
  9
$AUNITS
 70
1
  9
$AUPREC
 70
2
  9
$MENU
  1
.
  9
$ELEVATION
 40
0.0
  9
$PELEVATION
 40
0.0
  9
$THICKNESS
 40
0.0
  9
$LIMCHECK
 70
0
  9
$CHAMFERA
 40
0.0
  9
$CHAMFERB
 40
0.0
  9
$CHAMFERC
 40
0.0
  9
$CHAMFERD
 40
0.0
  9
$SKPOLY
 70
0
  9
$TDCREATE
 40
2461320.9110185187
  9
$TDUCREATE
 40
2458532.153996898
  9
$TDUPDATE
 40
2461320.9110300927
  9
$TDUUPDATE
 40
2458532.1544311
  9
$TDINDWG
 40
0.0
  9
$TDUSRTIMER
 40
0.0
  9
$USRTIMER
 70
1
  9
$ANGBASE
 50
0.0
  9
$ANGDIR
 70
0
  9
$PDMODE
 70
0
  9
$PDSIZE
 40
0.0
  9
$PLINEWID
 40
0.0
  9
$SPLFRAME
 70
0
  9
$SPLINETYPE
 70
6
  9
$SPLINESEGS
 70
8
  9
$HANDSEED
  5
3DE
  9
$SURFTAB1
 70
6
  9
$SURFTAB2
 70
6
  9
$SURFTYPE
 70
6
  9
$SURFU
 70
6
  9
$SURFV
 70
6
  9
$UCSBASE
  2

  9
$UCSNAME
  2

  9
$UCSORG
 10
0.0
 20
0.0
 30
0.0
  9
$UCSXDIR
 10
1.0
 20
0.0
 30
0.0
  9
$UCSYDIR
 10
0.0
 20
1.0
 30
0.0
  9
$UCSORTHOREF
  2

  9
$UCSORTHOVIEW
 70
0
  9
$UCSORGTOP
 10
0.0
 20
0.0
 30
0.0
  9
$UCSORGBOTTOM
 10
0.0
 20
0.0
 30
0.0
  9
$UCSORGLEFT
 10
0.0
 20
0.0
 30
0.0
  9
$UCSORGRIGHT
 10
0.0
 20
0.0
 30
0.0
  9
$UCSORGFRONT
 10
0.0
 20
0.0
 30
0.0
  9
$UCSORGBACK
 10
0.0
 20
0.0
 30
0.0
  9
$PUCSBASE
  2

  9
$PUCSNAME
  2

  9
$PUCSORG
 10
0.0
 20
0.0
 30
0.0
  9
$PUCSXDIR
 10
1.0
 20
0.0
 30
0.0
  9
$PUCSYDIR
 10
0.0
 20
1.0
 30
0.0
  9
$PUCSORTHOREF
  2

  9
$PUCSORTHOVIEW
 70
0
  9
$PUCSORGTOP
 10
0.0
 20
0.0
 30
0.0
  9
$PUCSORGBOTTOM
 10
0.0
 20
0.0
 30
0.0
  9
$PUCSORGLEFT
 10
0.0
 20
0.0
 30
0.0
  9
$PUCSORGRIGHT
 10
0.0
 20
0.0
 30
0.0
  9
$PUCSORGFRONT
 10
0.0
 20
0.0
 30
0.0
  9
$PUCSORGBACK
 10
0.0
 20
0.0
 30
0.0
  9
$USERI1
 70
0
  9
$USERI2
 70
0
  9
$USERI3
 70
0
  9
$USERI4
 70
0
  9
$USERI5
 70
0
  9
$USERR1
 40
0.0
  9
$USERR2
 40
0.0
  9
$USERR3
 40
0.0
  9
$USERR4
 40
0.0
  9
$USERR5
 40
0.0
  9
$WORLDVIEW
 70
1
  9
$SHADEDGE
 70
3
  9
$SHADEDIF
 70
70
  9
$TILEMODE
 70
1
  9
$MAXACTVP
 70
64
  9
$PINSBASE
 10
0.0
 20
0.0
 30
0.0
  9
$PLIMCHECK
 70
0
  9
$PEXTMIN
 10
1e+20
 20
1e+20
 30
1e+20
  9
$PEXTMAX
 10
-1e+20
 20
-1e+20
 30
-1e+20
  9
$PLIMMIN
 10
-0.0
 20
-0.0
  9
$PLIMMAX
 10
841.0
 20
594.0
  9
$UNITMODE
 70
0
  9
$VISRETAIN
 70
1
  9
$PLINEGEN
 70
0
  9
$PSLTSCALE
 70
1
  9
$TREEDEPTH
 70
3020
  9
$CMLSTYLE
  2
Standard
  9
$CMLJUST
 70
0
  9
$CMLSCALE
 40
20.0
  9
$PROXYGRAPHICS
 70
1
  9
$MEASUREMENT
 70
1
  9
$CELWEIGHT
370
-1
  9
$ENDCAPS
280
0
  9
$JOINSTYLE
280
0
  9
$LWDISPLAY
290
1
  9
$INSUNITS
 70
6
  9
$HYPERLINKBASE
  1

  9
$STYLESHEET
  1

  9
$XEDIT
290
1
  9
$CEPSNTYPE
380
0
  9
$PSTYLEMODE
290
1
  9
$FINGERPRINTGUID
  2
{AD43C09A-943C-496E-99E8-A4C9C837DEDF}
  9
$VERSIONGUID
  2
{7F6DC177-E174-4AC9-AE6C-698142AB466F}
  9
$EXTNAMES
290
1
  9
$PSVPSCALE
 40
0.0
  9
$OLESTARTUP
290
0
  9
$SORTENTS
280
127
  9
$INDEXCTL
280
0
  9
$HIDETEXT
280
1
  9
$XCLIPFRAME
280
1
  9
$HALOGAP
280
0
  9
$OBSCOLOR
 70
257
  9
$OBSLTYPE
280
0
  9
$INTERSECTIONDISPLAY
280
0
  9
$INTERSECTIONCOLOR
 70
257
  9
$DIMASSOC
280
2
  9
$PROJECTNAME
  1

  9
$CAMERADISPLAY
290
0
  9
$LENSLENGTH
 40
50.0
  9
$CAMERAHEIGHT
 40
0.0
  9
$STEPSPERSEC
 40
24.0
  9
$STEPSIZE
 40
100.0
  9
$3DDWFPREC
 40
2.0
  9
$PSOLWIDTH
 40
0.005
  9
$PSOLHEIGHT
 40
0.08
  9
$LOFTANG1
 40
1.570796326795
  9
$LOFTANG2
 40
1.570796326795
  9
$LOFTMAG1
 40
0.0
  9
$LOFTMAG2
 40
0.0
  9
$LOFTPARAM
 70
7
  9
$LOFTNORMALS
280
1
  9
$LATITUDE
 40
37.795
  9
$LONGITUDE
 40
-122.394
  9
$NORTHDIRECTION
 40
0.0
  9
$TIMEZONE
 70
-8000
  9
$LIGHTGLYPHDISPLAY
280
1
  9
$TILEMODELIGHTSYNCH
280
1
  9
$CMATERIAL
347
20
  9
$SOLIDHIST
280
0
  9
$SHOWHIST
280
1
  9
$DWFFRAME
280
2
  9
$DGNFRAME
280
2
  9
$REALWORLDSCALE
290
1
  9
$INTERFERECOLOR
 62
256
  9
$CSHADOW
280
0
  9
$SHADOWPLANELOCATION
 40
0.0
  0
ENDSEC
  0
SECTION
  2
CLASSES
  0
CLASS
  1
ACDBDICTIONARYWDFLT
  2
AcDbDictionaryWithDefault
  3
ObjectDBX Classes
 90
0
 91
0
280
0
281
0
  0
CLASS
  1
SUN
  2
AcDbSun
  3
SCENEOE
 90
1153
 91
0
280
0
281
0
  0
CLASS
  1
VISUALSTYLE
  2
AcDbVisualStyle
  3
ObjectDBX Classes
 90
4095
 91
0
280
0
281
0
  0
CLASS
  1
MATERIAL
  2
AcDbMaterial
  3
ObjectDBX Classes
 90
1153
 91
0
280
0
281
0
  0
CLASS
  1
SCALE
  2
AcDbScale
  3
ObjectDBX Classes
 90
1153
 91
0
280
0
281
0
  0
CLASS
  1
TABLESTYLE
  2
AcDbTableStyle
  3
ObjectDBX Classes
 90
4095
 91
0
280
0
281
0
  0
CLASS
  1
MLEADERSTYLE
  2
AcDbMLeaderStyle
  3
ACDB_MLEADERSTYLE_CLASS
 90
4095
 91
0
280
0
281
0
  0
CLASS
  1
DICTIONARYVAR
  2
AcDbDictionaryVar
  3
ObjectDBX Classes
 90
0
 91
0
280
0
281
0
  0
CLASS
  1
CELLSTYLEMAP
  2
AcDbCellStyleMap
  3
ObjectDBX Classes
 90
1152
 91
0
280
0
281
0
  0
CLASS
  1
MENTALRAYRENDERSETTINGS
  2
AcDbMentalRayRenderSettings
  3
SCENEOE
 90
1024
 91
0
280
0
281
0
  0
CLASS
  1
ACDBDETAILVIEWSTYLE
  2
AcDbDetailViewStyle
  3
ObjectDBX Classes
 90
1025
 91
0
280
0
281
0
  0
CLASS
  1
ACDBSECTIONVIEWSTYLE
  2
AcDbSectionViewStyle
  3
ObjectDBX Classes
 90
1025
 91
0
280
0
281
0
  0
CLASS
  1
RASTERVARIABLES
  2
AcDbRasterVariables
  3
ISM
 90
0
 91
0
280
0
281
0
  0
CLASS
  1
ACDBPLACEHOLDER
  2
AcDbPlaceHolder
  3
ObjectDBX Classes
 90
0
 91
0
280
0
281
0
  0
CLASS
  1
LAYOUT
  2
AcDbLayout
  3
ObjectDBX Classes
 90
0
 91
0
280
0
281
0
  0
ENDSEC
  0
SECTION
  2
TABLES
  0
TABLE
  2
VPORT
  5
8
330
0
100
AcDbSymbolTable
 70
1
  0
VPORT
  5
23
330
8
100
AcDbSymbolTableRecord
100
AcDbViewportTableRecord
  2
*Active
 70
0
 10
0.0
 20
0.0
 11
1.0
 21
1.0
 12
0.0
 22
0.0
 13
0.0
 23
0.0
 14
0.5
 24
0.5
 15
0.5
 25
0.5
 16
0.0
 26
0.0
 36
1.0
 17
0.0
 27
0.0
 37
0.0
 40
1000.0
 41
1.34
 42
50.0
 43
0.0
 44
0.0
 50
0.0
 51
0.0
 71
0
 72
1000
 73
1
 74
3
 75
0
 76
0
 77
0
 78
0
281
0
 65
0
146
0.0
  0
ENDTAB
  0
TABLE
  2
LTYPE
  5
2
330
0
100
AcDbSymbolTable
 70
21
  0
LTYPE
  5
24
330
2
100
AcDbSymbolTableRecord
100
AcDbLinetypeTableRecord
  2
ByBlock
 70
0
  3

 72
65
 73
0
 40
0.0
  0
LTYPE
  5
25
330
2
100
AcDbSymbolTableRecord
100
AcDbLinetypeTableRecord
  2
ByLayer
 70
0
  3

 72
65
 73
0
 40
0.0
  0
LTYPE
  5
26
330
2
100
AcDbSymbolTableRecord
100
AcDbLinetypeTableRecord
  2
Continuous
 70
0
  3

 72
65
 73
0
 40
0.0
  0
LTYPE
  5
2F
330
2
100
AcDbSymbolTableRecord
100
AcDbLinetypeTableRecord
  2
CENTER
 70
0
  3
Center ____ _ ____ _ ____ _ ____ _ ____ _ ____
 72
65
 73
4
 40
5.08
 49
3.175
 74
0
 49
-0.635
 74
0
 49
0.635
 74
0
 49
-0.635
 74
0
  0
LTYPE
  5
30
330
2
100
AcDbSymbolTableRecord
100
AcDbLinetypeTableRecord
  2
CENTERX2
 70
0
  3
Center (2x) ________  __  ________  __  ________
 72
65
 73
4
 40
8.89
 49
6.35
 74
0
 49
-0.635
 74
0
 49
1.27
 74
0
 49
-0.635
 74
0
  0
LTYPE
  5
31
330
2
100
AcDbSymbolTableRecord
100
AcDbLinetypeTableRecord
  2
CENTER2
 70
0
  3
Center (.5x) ____ _ ____ _ ____ _ ____ _ ____
 72
65
 73
4
 40
2.54
 49
1.587
 74
0
 49
-0.318
 74
0
 49
0.318
 74
0
 49
-0.318
 74
0
  0
LTYPE
  5
32
330
2
100
AcDbSymbolTableRecord
100
AcDbLinetypeTableRecord
  2
DASHED
 70
0
  3
Dashed __ __ __ __ __ __ __ __ __ __ __ __ __ _
 72
65
 73
2
 40
1.524
 49
1.27
 74
0
 49
-0.254
 74
0
  0
LTYPE
  5
33
330
2
100
AcDbSymbolTableRecord
100
AcDbLinetypeTableRecord
  2
DASHEDX2
 70
0
  3
Dashed (2x) ____  ____  ____  ____  ____  ____
 72
65
 73
2
 40
3.048
 49
2.54
 74
0
 49
-0.508
 74
0
  0
LTYPE
  5
34
330
2
100
AcDbSymbolTableRecord
100
AcDbLinetypeTableRecord
  2
DASHED2
 70
0
  3
Dashed (.5x) _ _ _ _ _ _ _ _ _ _ _ _ _ _
 72
65
 73
2
 40
0.762
 49
0.635
 74
0
 49
-0.127
 74
0
  0
LTYPE
  5
35
330
2
100
AcDbSymbolTableRecord
100
AcDbLinetypeTableRecord
  2
PHANTOM
 70
0
  3
Phantom ______  __  __  ______  __  __  ______
 72
65
 73
6
 40
6.35
 49
3.175
 74
0
 49
-0.635
 74
0
 49
0.635
 74
0
 49
-0.635
 74
0
 49
0.635
 74
0
 49
-0.635
 74
0
  0
LTYPE
  5
36
330
2
100
AcDbSymbolTableRecord
100
AcDbLinetypeTableRecord
  2
PHANTOMX2
 70
0
  3
Phantom (2x)____________    ____    ____    ____________
 72
65
 73
6
 40
10.795
 49
6.35
 74
0
 49
-0.635
 74
0
 49
1.27
 74
0
 49
-0.635
 74
0
 49
1.27
 74
0
 49
-0.635
 74
0
  0
LTYPE
  5
37
330
2
100
AcDbSymbolTableRecord
100
AcDbLinetypeTableRecord
  2
PHANTOM2
 70
0
  3
Phantom (.5x) ___ _ _ ___ _ _ ___ _ _ ___ _ _ ___
 72
65
 73
6
 40
3.175
 49
1.587
 74
0
 49
-0.318
 74
0
 49
0.318
 74
0
 49
-0.318
 74
0
 49
0.318
 74
0
 49
-0.318
 74
0
  0
LTYPE
  5
38
330
2
100
AcDbSymbolTableRecord
100
AcDbLinetypeTableRecord
  2
DASHDOT
 70
0
  3
Dash dot __ . __ . __ . __ . __ . __ . __ . __
 72
65
 73
4
 40
3.556
 49
2.54
 74
0
 49
-0.508
 74
0
 49
0.0
 74
0
 49
-0.508
 74
0
  0
LTYPE
  5
39
330
2
100
AcDbSymbolTableRecord
100
AcDbLinetypeTableRecord
  2
DASHDOTX2
 70
0
  3
Dash dot (2x) ____  .  ____  .  ____  .  ____
 72
65
 73
4
 40
6.096
 49
5.08
 74
0
 49
-0.508
 74
0
 49
0.0
 74
0
 49
-0.508
 74
0
  0
LTYPE
  5
3A
330
2
100
AcDbSymbolTableRecord
100
AcDbLinetypeTableRecord
  2
DASHDOT2
 70
0
  3
Dash dot (.5x) _ . _ . _ . _ . _ . _ . _ . _
 72
65
 73
4
 40
1.778
 49
1.27
 74
0
 49
-0.254
 74
0
 49
0.0
 74
0
 49
-0.254
 74
0
  0
LTYPE
  5
3B
330
2
100
AcDbSymbolTableRecord
100
AcDbLinetypeTableRecord
  2
DOT
 70
0
  3
Dot .  .  .  .  .  .  .  .  .  .  .  .  .  .  .  .
 72
65
 73
2
 40
0.508
 49
0.0
 74
0
 49
-0.508
 74
0
  0
LTYPE
  5
3C
330
2
100
AcDbSymbolTableRecord
100
AcDbLinetypeTableRecord
  2
DOTX2
 70
0
  3
Dot (2x) .    .    .    .    .    .    .    . 
 72
65
 73
2
 40
1.016
 49
0.0
 74
0
 49
-1.016
 74
0
  0
LTYPE
  5
3D
330
2
100
AcDbSymbolTableRecord
100
AcDbLinetypeTableRecord
  2
DOT2
 70
0
  3
Dot (.5) . . . . . . . . . . . . . . . . . . . 
 72
65
 73
2
 40
0.254
 49
0.0
 74
0
 49
-0.254
 74
0
  0
LTYPE
  5
3E
330
2
100
AcDbSymbolTableRecord
100
AcDbLinetypeTableRecord
  2
DIVIDE
 70
0
  3
Divide __ . . __ . . __ . . __ . . __ . . __
 72
65
 73
6
 40
4.064
 49
2.54
 74
0
 49
-0.508
 74
0
 49
0.0
 74
0
 49
-0.508
 74
0
 49
0.0
 74
0
 49
-0.508
 74
0
  0
LTYPE
  5
3F
330
2
100
AcDbSymbolTableRecord
100
AcDbLinetypeTableRecord
  2
DIVIDEX2
 70
0
  3
Divide (2x) ____  . .  ____  . .  ____  . .  ____
 72
65
 73
6
 40
6.604
 49
5.08
 74
0
 49
-0.508
 74
0
 49
0.0
 74
0
 49
-0.508
 74
0
 49
0.0
 74
0
 49
-0.508
 74
0
  0
LTYPE
  5
40
330
2
100
AcDbSymbolTableRecord
100
AcDbLinetypeTableRecord
  2
DIVIDE2
 70
0
  3
Divide(.5x) _ . _ . _ . _ . _ . _ . _ . _
 72
65
 73
6
 40
2.032
 49
1.27
 74
0
 49
-0.254
 74
0
 49
0.0
 74
0
 49
-0.254
 74
0
 49
0.0
 74
0
 49
-0.254
 74
0
  0
ENDTAB
  0
TABLE
  2
LAYER
  5
1
330
0
100
AcDbSymbolTable
 70
56
  0
LAYER
  5
27
330
1
100
AcDbSymbolTableRecord
100
AcDbLayerTableRecord
  2
0
 70
0
 62
7
  6
Continuous
370
-3
390
13
347
21
  0
LAYER
  5
28
330
1
100
AcDbSymbolTableRecord
100
AcDbLayerTableRecord
  2
Defpoints
 70
0
 62
7
  6
Continuous
290
0
370
-3
390
13
347
21
  0
LAYER
  5
8B
330
1
100
AcDbSymbolTableRecord
100
AcDbLayerTableRecord
  2
A-MARCO
 70
0
 62
7
  6
Continuous
370
70
390
13
347
21
  0
LAYER
  5
8C
330
1
100
AcDbSymbolTableRecord
100
AcDbLayerTableRecord
  2
A-CAJETIN
 70
0
 62
7
  6
Continuous
370
35
390
13
347
21
  0
LAYER
  5
8D
330
1
100
AcDbSymbolTableRecord
100
AcDbLayerTableRecord
  2
A-CAJETIN-TXT
 70
0
 62
7
  6
Continuous
370
25
390
13
347
21
  0
LAYER
  5
8E
330
1
100
AcDbSymbolTableRecord
100
AcDbLayerTableRecord
  2
A-TITULOS
 70
0
 62
7
  6
Continuous
370
35
390
13
347
21
  0
LAYER
  5
8F
330
1
100
AcDbSymbolTableRecord
100
AcDbLayerTableRecord
  2
A-TEXTO
 70
0
 62
7
  6
Continuous
370
18
390
13
347
21
  0
LAYER
  5
90
330
1
100
AcDbSymbolTableRecord
100
AcDbLayerTableRecord
  2
A-TABLAS
 70
0
 62
7
  6
Continuous
370
25
390
13
347
21
  0
LAYER
  5
91
330
1
100
AcDbSymbolTableRecord
100
AcDbLayerTableRecord
  2
A-NOTAS
 70
0
 62
7
  6
Continuous
370
18
390
13
347
21
  0
LAYER
  5
92
330
1
100
AcDbSymbolTableRecord
100
AcDbLayerTableRecord
  2
A-ESCALA-GRAF
 70
0
 62
7
  6
Continuous
370
18
390
13
347
21
  0
LAYER
  5
93
330
1
100
AcDbSymbolTableRecord
100
AcDbLayerTableRecord
  2
A-NORTE
 70
0
 62
7
  6
Continuous
370
25
390
13
347
21
  0
LAYER
  5
94
330
1
100
AcDbSymbolTableRecord
100
AcDbLayerTableRecord
  2
A-IMAGEN-REF
 70
0
 62
7
  6
Continuous
370
13
390
13
347
21
  0
LAYER
  5
95
330
1
100
AcDbSymbolTableRecord
100
AcDbLayerTableRecord
  2
A-VIEWPORT
 70
0
 62
8
  6
Continuous
290
0
370
13
390
13
347
21
  0
LAYER
  5
96
330
1
100
AcDbSymbolTableRecord
100
AcDbLayerTableRecord
  2
A-PENDIENTE
 70
0
 62
1
  6
Continuous
370
25
390
13
347
21
  0
LAYER
  5
97
330
1
100
AcDbSymbolTableRecord
100
AcDbLayerTableRecord
  2
T-LINDERO
 70
0
 62
7
  6
Continuous
370
50
390
13
347
21
  0
LAYER
  5
98
330
1
100
AcDbSymbolTableRecord
100
AcDbLayerTableRecord
  2
T-VERTICE
 70
0
 62
7
  6
Continuous
370
25
390
13
347
21
  0
LAYER
  5
99
330
1
100
AcDbSymbolTableRecord
100
AcDbLayerTableRecord
  2
T-CALLE
 70
0
 62
8
  6
DASHED
370
18
390
13
347
21
  0
LAYER
  5
9A
330
1
100
AcDbSymbolTableRecord
100
AcDbLayerTableRecord
  2
T-TXT-200
 70
0
 62
7
  6
Continuous
370
18
390
13
347
21
  0
LAYER
  5
9B
330
1
100
AcDbSymbolTableRecord
100
AcDbLayerTableRecord
  2
T-COTA-200
 70
0
 62
7
  6
Continuous
370
18
390
13
347
21
  0
LAYER
  5
9C
330
1
100
AcDbSymbolTableRecord
100
AcDbLayerTableRecord
  2
T-TXT-100
 70
0
 62
7
  6
Continuous
370
18
390
13
347
21
  0
LAYER
  5
9D
330
1
100
AcDbSymbolTableRecord
100
AcDbLayerTableRecord
  2
T-COTA-100
 70
0
 62
7
  6
Continuous
370
18
390
13
347
21
  0
LAYER
  5
9E
330
1
100
AcDbSymbolTableRecord
100
AcDbLayerTableRecord
  2
A-HUELLA
 70
0
 62
7
  6
Continuous
370
35
390
13
347
21
  0
LAYER
  5
9F
330
1
100
AcDbSymbolTableRecord
100
AcDbLayerTableRecord
  2
A-HUELLA-TRAMA
 70
0
 62
8
  6
Continuous
370
9
390
13
347
21
  0
LAYER
  5
A0
330
1
100
AcDbSymbolTableRecord
100
AcDbLayerTableRecord
  2
A-PATIO
 70
0
 62
7
  6
Continuous
370
25
390
13
347
21
  0
LAYER
  5
A1
330
1
100
AcDbSymbolTableRecord
100
AcDbLayerTableRecord
  2
A-RETIRO
 70
0
 62
8
  6
DASHED2
370
18
390
13
347
21
  0
LAYER
  5
A2
330
1
100
AcDbSymbolTableRecord
100
AcDbLayerTableRecord
  2
A-MURO
 70
0
 62
7
  6
Continuous
370
50
390
13
347
21
  0
LAYER
  5
A3
330
1
100
AcDbSymbolTableRecord
100
AcDbLayerTableRecord
  2
A-MURO-TRAMA
 70
0
 62
8
  6
Continuous
370
9
390
13
347
21
  0
LAYER
  5
A4
330
1
100
AcDbSymbolTableRecord
100
AcDbLayerTableRecord
  2
A-PUERTA
 70
0
 62
7
  6
Continuous
370
25
390
13
347
21
  0
LAYER
  5
A5
330
1
100
AcDbSymbolTableRecord
100
AcDbLayerTableRecord
  2
A-VENTANA
 70
0
 62
7
  6
Continuous
370
25
390
13
347
21
  0
LAYER
  5
A6
330
1
100
AcDbSymbolTableRecord
100
AcDbLayerTableRecord
  2
A-ESCALERA
 70
0
 62
7
  6
Continuous
370
25
390
13
347
21
  0
LAYER
  5
A7
330
1
100
AcDbSymbolTableRecord
100
AcDbLayerTableRecord
  2
A-VEHICULO
 70
0
 62
8
  6
Continuous
370
18
390
13
347
21
  0
LAYER
  5
A8
330
1
100
AcDbSymbolTableRecord
100
AcDbLayerTableRecord
  2
A-MOBILIARIO
 70
0
 62
8
  6
Continuous
370
18
390
13
347
21
  0
LAYER
  5
A9
330
1
100
AcDbSymbolTableRecord
100
AcDbLayerTableRecord
  2
A-DEMARCACION
 70
0
 62
8
  6
DASHED
370
18
390
13
347
21
  0
LAYER
  5
AA
330
1
100
AcDbSymbolTableRecord
100
AcDbLayerTableRecord
  2
A-PROYECCION
 70
0
 62
8
  6
DASHED
370
18
390
13
347
21
  0
LAYER
  5
AB
330
1
100
AcDbSymbolTableRecord
100
AcDbLayerTableRecord
  2
A-EJES
 70
0
 62
8
  6
CENTER
370
13
390
13
347
21
  0
LAYER
  5
AC
330
1
100
AcDbSymbolTableRecord
100
AcDbLayerTableRecord
  2
A-EJES-TXT
 70
0
 62
7
  6
Continuous
370
25
390
13
347
21
  0
LAYER
  5
AD
330
1
100
AcDbSymbolTableRecord
100
AcDbLayerTableRecord
  2
A-COTA-50
 70
0
 62
7
  6
Continuous
370
18
390
13
347
21
  0
LAYER
  5
AE
330
1
100
AcDbSymbolTableRecord
100
AcDbLayerTableRecord
  2
A-TXT-50
 70
0
 62
7
  6
Continuous
370
18
390
13
347
21
  0
LAYER
  5
AF
330
1
100
AcDbSymbolTableRecord
100
AcDbLayerTableRecord
  2
A-ESPACIOS
 70
0
 62
7
  6
Continuous
370
25
390
13
347
21
  0
LAYER
  5
B0
330
1
100
AcDbSymbolTableRecord
100
AcDbLayerTableRecord
  2
A-NIVELES
 70
0
 62
7
  6
Continuous
370
18
390
13
347
21
  0
LAYER
  5
B1
330
1
100
AcDbSymbolTableRecord
100
AcDbLayerTableRecord
  2
A-CORTES
 70
0
 62
7
  6
Continuous
370
35
390
13
347
21
  0
LAYER
  5
B2
330
1
100
AcDbSymbolTableRecord
100
AcDbLayerTableRecord
  2
A-JARDIN
 70
0
 62
8
  6
Continuous
370
9
390
13
347
21
  0
LAYER
  5
B3
330
1
100
AcDbSymbolTableRecord
100
AcDbLayerTableRecord
  2
E-COLUMNA
 70
0
 62
7
  6
Continuous
370
35
390
13
347
21
  0
LAYER
  5
BF
330
1
100
AcDbSymbolTableRecord
100
AcDbLayerTableRecord
  2
E-VIGA
 70
0
 62
7
  6
Continuous
370
35
390
13
347
21
  0
LAYER
  5
C0
330
1
100
AcDbSymbolTableRecord
100
AcDbLayerTableRecord
  2
E-CERCHA
 70
0
 62
7
  6
Continuous
370
35
390
13
347
21
  0
LAYER
  5
C1
330
1
100
AcDbSymbolTableRecord
100
AcDbLayerTableRecord
  2
E-CLAVADOR
 70
0
 62
7
  6
Continuous
370
13
390
13
347
21
  0
LAYER
  5
C2
330
1
100
AcDbSymbolTableRecord
100
AcDbLayerTableRecord
  2
E-CUBIERTA
 70
0
 62
7
  6
Continuous
370
25
390
13
347
21
  0
LAYER
  5
C3
330
1
100
AcDbSymbolTableRecord
100
AcDbLayerTableRecord
  2
E-CUMBRERA
 70
0
 62
7
  6
DASHDOT
370
18
390
13
347
21
  0
LAYER
  5
C4
330
1
100
AcDbSymbolTableRecord
100
AcDbLayerTableRecord
  2
E-VACIO
 70
0
 62
8
  6
Continuous
370
13
390
13
347
21
  0
LAYER
  5
C5
330
1
100
AcDbSymbolTableRecord
100
AcDbLayerTableRecord
  2
E-PLUVIAL
 70
0
 62
7
  6
Continuous
370
18
390
13
347
21
  0
LAYER
  5
C6
330
1
100
AcDbSymbolTableRecord
100
AcDbLayerTableRecord
  2
E-FORRO
 70
0
 62
8
  6
DASHED
370
13
390
13
347
21
  0
LAYER
  5
C7
330
1
100
AcDbSymbolTableRecord
100
AcDbLayerTableRecord
  2
E-TXT
 70
0
 62
7
  6
Continuous
370
18
390
13
347
21
  0
LAYER
  5
C8
330
1
100
AcDbSymbolTableRecord
100
AcDbLayerTableRecord
  2
E-DET
 70
0
 62
7
  6
Continuous
370
50
390
13
347
21
  0
LAYER
  5
C9
330
1
100
AcDbSymbolTableRecord
100
AcDbLayerTableRecord
  2
E-REF
 70
0
 62
7
  6
Continuous
370
25
390
13
347
21
  0
LAYER
  5
CA
330
1
100
AcDbSymbolTableRecord
100
AcDbLayerTableRecord
  2
E-TRAMA
 70
0
 62
8
  6
Continuous
370
9
390
13
347
21
  0
LAYER
  5
CB
330
1
100
AcDbSymbolTableRecord
100
AcDbLayerTableRecord
  2
E-COTA
 70
0
 62
7
  6
Continuous
370
18
390
13
347
21
  0
ENDTAB
  0
TABLE
  2
STYLE
  5
5
330
0
100
AcDbSymbolTable
 70
27
  0
STYLE
  5
29
330
5
100
AcDbSymbolTableRecord
100
AcDbTextStyleTableRecord
  2
Standard
 70
0
 40
0.0
 41
1.0
 50
0.0
 71
0
 42
2.5
  3
txt
  4

  0
STYLE
  5
41
330
5
100
AcDbSymbolTableRecord
100
AcDbTextStyleTableRecord
  2
OpenSans-Light
 70
0
 40
0.0
 41
1.0
 50
0.0
 71
0
 42
2.5
  3
OpenSans-Light.ttf
  4

  0
STYLE
  5
42
330
5
100
AcDbSymbolTableRecord
100
AcDbTextStyleTableRecord
  2
OpenSans-Light-Italic
 70
0
 40
0.0
 41
1.0
 50
0.0
 71
0
 42
2.5
  3
OpenSans-LightItalic.ttf
  4

  0
STYLE
  5
43
330
5
100
AcDbSymbolTableRecord
100
AcDbTextStyleTableRecord
  2
OpenSans
 70
0
 40
0.0
 41
1.0
 50
0.0
 71
0
 42
2.5
  3
OpenSans-Regular.ttf
  4

  0
STYLE
  5
44
330
5
100
AcDbSymbolTableRecord
100
AcDbTextStyleTableRecord
  2
OpenSans-Italic
 70
0
 40
0.0
 41
1.0
 50
0.0
 71
0
 42
2.5
  3
OpenSans-Italic.ttf
  4

  0
STYLE
  5
45
330
5
100
AcDbSymbolTableRecord
100
AcDbTextStyleTableRecord
  2
OpenSans-SemiBold
 70
0
 40
0.0
 41
1.0
 50
0.0
 71
0
 42
2.5
  3
OpenSans-SemiBold.ttf
  4

  0
STYLE
  5
46
330
5
100
AcDbSymbolTableRecord
100
AcDbTextStyleTableRecord
  2
OpenSans-SemiBoldItalic
 70
0
 40
0.0
 41
1.0
 50
0.0
 71
0
 42
2.5
  3
OpenSans-SemiBoldItalic.ttf
  4

  0
STYLE
  5
47
330
5
100
AcDbSymbolTableRecord
100
AcDbTextStyleTableRecord
  2
OpenSans-Bold
 70
0
 40
0.0
 41
1.0
 50
0.0
 71
0
 42
2.5
  3
OpenSans-Bold.ttf
  4

  0
STYLE
  5
48
330
5
100
AcDbSymbolTableRecord
100
AcDbTextStyleTableRecord
  2
OpenSans-BoldItalic
 70
0
 40
0.0
 41
1.0
 50
0.0
 71
0
 42
2.5
  3
OpenSans-BoldItalic.ttf
  4

  0
STYLE
  5
49
330
5
100
AcDbSymbolTableRecord
100
AcDbTextStyleTableRecord
  2
OpenSans-ExtraBold
 70
0
 40
0.0
 41
1.0
 50
0.0
 71
0
 42
2.5
  3
OpenSans-ExtraBold.ttf
  4

  0
STYLE
  5
4A
330
5
100
AcDbSymbolTableRecord
100
AcDbTextStyleTableRecord
  2
OpenSans-ExtraBoldItalic
 70
0
 40
0.0
 41
1.0
 50
0.0
 71
0
 42
2.5
  3
OpenSans-ExtraBoldItalic.ttf
  4

  0
STYLE
  5
4B
330
5
100
AcDbSymbolTableRecord
100
AcDbTextStyleTableRecord
  2
OpenSansCondensed-Bold
 70
0
 40
0.0
 41
1.0
 50
0.0
 71
0
 42
2.5
  3
OpenSansCondensed-Bold.ttf
  4

  0
STYLE
  5
4C
330
5
100
AcDbSymbolTableRecord
100
AcDbTextStyleTableRecord
  2
OpenSansCondensed-Light
 70
0
 40
0.0
 41
1.0
 50
0.0
 71
0
 42
2.5
  3
OpenSansCondensed-Light.ttf
  4

  0
STYLE
  5
4D
330
5
100
AcDbSymbolTableRecord
100
AcDbTextStyleTableRecord
  2
OpenSansCondensed-Italic
 70
0
 40
0.0
 41
1.0
 50
0.0
 71
0
 42
2.5
  3
OpenSansCondensed-LightItalic.ttf
  4

  0
STYLE
  5
4E
330
5
100
AcDbSymbolTableRecord
100
AcDbTextStyleTableRecord
  2
LiberationSans
 70
0
 40
0.0
 41
1.0
 50
0.0
 71
0
 42
2.5
  3
LiberationSans-Regular.ttf
  4

  0
STYLE
  5
4F
330
5
100
AcDbSymbolTableRecord
100
AcDbTextStyleTableRecord
  2
LiberationSans-Bold
 70
0
 40
0.0
 41
1.0
 50
0.0
 71
0
 42
2.5
  3
LiberationSans-Bold.ttf
  4

  0
STYLE
  5
50
330
5
100
AcDbSymbolTableRecord
100
AcDbTextStyleTableRecord
  2
LiberationSans-BoldItalic
 70
0
 40
0.0
 41
1.0
 50
0.0
 71
0
 42
2.5
  3
LiberationSans-BoldItalic.ttf
  4

  0
STYLE
  5
51
330
5
100
AcDbSymbolTableRecord
100
AcDbTextStyleTableRecord
  2
LiberationSans-Italic
 70
0
 40
0.0
 41
1.0
 50
0.0
 71
0
 42
2.5
  3
LiberationSans-Italic.ttf
  4

  0
STYLE
  5
52
330
5
100
AcDbSymbolTableRecord
100
AcDbTextStyleTableRecord
  2
LiberationSerif
 70
0
 40
0.0
 41
1.0
 50
0.0
 71
0
 42
2.5
  3
LiberationSerif-Regular.ttf
  4

  0
STYLE
  5
53
330
5
100
AcDbSymbolTableRecord
100
AcDbTextStyleTableRecord
  2
LiberationSerif-Bold
 70
0
 40
0.0
 41
1.0
 50
0.0
 71
0
 42
2.5
  3
LiberationSerif-Bold.ttf
  4

  0
STYLE
  5
54
330
5
100
AcDbSymbolTableRecord
100
AcDbTextStyleTableRecord
  2
LiberationSerif-BoldItalic
 70
0
 40
0.0
 41
1.0
 50
0.0
 71
0
 42
2.5
  3
LiberationSerif-BoldItalic.ttf
  4

  0
STYLE
  5
55
330
5
100
AcDbSymbolTableRecord
100
AcDbTextStyleTableRecord
  2
LiberationSerif-Italic
 70
0
 40
0.0
 41
1.0
 50
0.0
 71
0
 42
2.5
  3
LiberationSerif-Italic.ttf
  4

  0
STYLE
  5
56
330
5
100
AcDbSymbolTableRecord
100
AcDbTextStyleTableRecord
  2
LiberationMono
 70
0
 40
0.0
 41
1.0
 50
0.0
 71
0
 42
2.5
  3
LiberationMono-Regular.ttf
  4

  0
STYLE
  5
57
330
5
100
AcDbSymbolTableRecord
100
AcDbTextStyleTableRecord
  2
LiberationMono-Bold
 70
0
 40
0.0
 41
1.0
 50
0.0
 71
0
 42
2.5
  3
LiberationMono-Bold.ttf
  4

  0
STYLE
  5
58
330
5
100
AcDbSymbolTableRecord
100
AcDbTextStyleTableRecord
  2
LiberationMono-BoldItalic
 70
0
 40
0.0
 41
1.0
 50
0.0
 71
0
 42
2.5
  3
LiberationMono-BoldItalic.ttf
  4

  0
STYLE
  5
59
330
5
100
AcDbSymbolTableRecord
100
AcDbTextStyleTableRecord
  2
LiberationMono-Italic
 70
0
 40
0.0
 41
1.0
 50
0.0
 71
0
 42
2.5
  3
LiberationMono-Italic.ttf
  4

  0
STYLE
  5
8A
330
5
100
AcDbSymbolTableRecord
100
AcDbTextStyleTableRecord
  2
ARIAL
 70
0
 40
0.0
 41
1.0
 50
0.0
 71
0
 42
2.5
  3
arial.ttf
  4

  0
ENDTAB
  0
TABLE
  2
VIEW
  5
7
330
0
100
AcDbSymbolTable
 70
0
  0
ENDTAB
  0
TABLE
  2
UCS
  5
6
330
0
100
AcDbSymbolTable
 70
1
  0
UCS
  5
BE
330
6
100
AcDbSymbolTableRecord
100
AcDbUCSTableRecord
  2
CRTM05
 70
0
 10
1082031.2332330009
 20
-541190.9422756801
 30
0.0
 11
0.047348521075471196
 21
0.9988784298161442
 31
0.0
 12
-0.9988784298161442
 22
0.047348521075471196
 32
0.0
  0
ENDTAB
  0
TABLE
  2
APPID
  5
3
330
0
100
AcDbSymbolTable
 70
3
  0
APPID
  5
2A
330
3
100
AcDbSymbolTableRecord
100
AcDbRegAppTableRecord
  2
ACAD
 70
0
  0
APPID
  5
3DB
330
3
100
AcDbSymbolTableRecord
100
AcDbRegAppTableRecord
  2
HATCHBACKGROUNDCOLOR
 70
0
  0
APPID
  5
3DC
330
3
100
AcDbSymbolTableRecord
100
AcDbRegAppTableRecord
  2
EZDXF
 70
0
  0
ENDTAB
  0
TABLE
  2
DIMSTYLE
  5
4
330
0
100
AcDbSymbolTable
 70
17
100
AcDbDimStyleTable
  0
DIMSTYLE
105
2B
330
4
100
AcDbSymbolTableRecord
100
AcDbDimStyleTableRecord
  2
Standard
 70
0
 40
1.0
 41
2.5
 42
0.625
 43
3.75
 44
1.25
 45
0.0
 46
0.0
 47
0.0
 48
0.0
 49
2.5
140
2.5
141
2.5
142
0.0
143
0.03937007874
144
1.0
145
0.0
146
1.0
147
0.625
148
0.0
 69
0
 70
0
 71
0
 72
0
 73
0
 74
0
 75
0
 76
0
 77
1
 78
8
 79
3
170
0
171
3
172
1
173
0
174
0
175
0
176
0
177
0
178
0
179
2
271
2
272
2
273
2
274
3
275
0
276
0
277
2
278
44
279
0
280
0
281
0
282
0
283
0
284
8
285
0
286
0
288
0
289
3
290
0
371
-2
372
-2
  0
DIMSTYLE
105
73
330
4
100
AcDbSymbolTableRecord
100
AcDbDimStyleTableRecord
  2
EZDXF
 70
0
 40
1.0
 41
0.175
 42
0.125
 43
3.75
 44
0.375
 45
0.0
 46
0.0
 47
0.0
 48
0.0
 49
2.5
140
0.25
141
2.5
142
0.0
143
0.03937007874
144
100.0
145
0.0
146
0.5
147
0.1
148
0.0
 69
0
 70
0
 71
0
 72
0
 73
0
 74
0
 75
0
 76
0
 77
1
 78
12
 79
3
170
0
171
3
172
1
173
0
174
0
175
0
176
0
177
0
178
0
179
2
271
2
272
2
273
2
274
3
275
0
276
0
277
2
278
46
279
2
280
0
281
0
282
0
283
0
284
8
285
0
286
0
288
1
289
3
290
0
340
4C
342
74
371
-2
372
-2
  0
DIMSTYLE
105
7C
330
4
100
AcDbSymbolTableRecord
100
AcDbDimStyleTableRecord
  2
EZ_M_100_H25_CM
 70
0
 40
1.0
 41
0.25
 42
0.125
 43
3.75
 44
0.375
 45
0.0
 46
0.0
 47
0.0
 48
0.0
 49
2.5
140
0.25
141
2.5
142
0.125
143
0.03937007874
144
100.0
145
0.0
146
0.5
147
0.1
148
0.0
 69
0
 70
0
 71
0
 72
0
 73
0
 74
0
 75
0
 76
0
 77
1
 78
12
 79
3
170
0
171
3
172
1
173
0
174
0
175
0
176
0
177
0
178
0
179
2
271
2
272
2
273
2
274
3
275
0
276
0
277
2
278
46
279
2
280
0
281
0
282
0
283
0
284
8
285
0
286
0
288
1
289
3
290
0
340
4C
371
-2
372
-2
  0
DIMSTYLE
105
7D
330
4
100
AcDbSymbolTableRecord
100
AcDbDimStyleTableRecord
  2
EZ_M_50_H25_CM
 70
0
 40
1.0
 41
0.125
 42
0.0625
 43
3.75
 44
0.1875
 45
0.0
 46
0.0
 47
0.0
 48
0.0
 49
2.5
140
0.125
141
2.5
142
0.0625
143
0.03937007874
144
100.0
145
0.0
146
0.5
147
0.05
148
0.0
 69
0
 70
0
 71
0
 72
0
 73
0
 74
0
 75
0
 76
0
 77
1
 78
12
 79
3
170
0
171
3
172
1
173
0
174
0
175
0
176
0
177
0
178
0
179
2
271
2
272
2
273
2
274
3
275
0
276
0
277
2
278
46
279
2
280
0
281
0
282
0
283
0
284
8
285
0
286
0
288
1
289
3
290
0
340
4C
371
-2
372
-2
  0
DIMSTYLE
105
7E
330
4
100
AcDbSymbolTableRecord
100
AcDbDimStyleTableRecord
  2
EZ_M_25_H25_CM
 70
0
 40
1.0
 41
0.0625
 42
0.03125
 43
3.75
 44
0.09375
 45
0.0
 46
0.0
 47
0.0
 48
0.0
 49
2.5
140
0.0625
141
2.5
142
0.03125
143
0.03937007874
144
100.0
145
0.0
146
0.5
147
0.025
148
0.0
 69
0
 70
0
 71
0
 72
0
 73
0
 74
0
 75
0
 76
0
 77
1
 78
12
 79
3
170
0
171
3
172
1
173
0
174
0
175
0
176
0
177
0
178
0
179
2
271
2
272
2
273
2
274
3
275
0
276
0
277
2
278
46
279
2
280
0
281
0
282
0
283
0
284
8
285
0
286
0
288
1
289
3
290
0
340
4C
371
-2
372
-2
  0
DIMSTYLE
105
7F
330
4
100
AcDbSymbolTableRecord
100
AcDbDimStyleTableRecord
  2
EZ_M_20_H25_CM
 70
0
 40
1.0
 41
0.05
 42
0.025
 43
3.75
 44
0.07500000000000001
 45
0.0
 46
0.0
 47
0.0
 48
0.0
 49
2.5
140
0.05
141
2.5
142
0.025
143
0.03937007874
144
100.0
145
0.0
146
0.5
147
0.020000000000000004
148
0.0
 69
0
 70
0
 71
0
 72
0
 73
0
 74
0
 75
0
 76
0
 77
1
 78
12
 79
3
170
0
171
3
172
1
173
0
174
0
175
0
176
0
177
0
178
0
179
2
271
2
272
2
273
2
274
3
275
0
276
0
277
2
278
46
279
2
280
0
281
0
282
0
283
0
284
8
285
0
286
0
288
1
289
3
290
0
340
4C
371
-2
372
-2
  0
DIMSTYLE
105
80
330
4
100
AcDbSymbolTableRecord
100
AcDbDimStyleTableRecord
  2
EZ_M_10_H25_CM
 70
0
 40
1.0
 41
0.025
 42
0.0125
 43
3.75
 44
0.037500000000000006
 45
0.0
 46
0.0
 47
0.0
 48
0.0
 49
2.5
140
0.025
141
2.5
142
0.0125
143
0.03937007874
144
100.0
145
0.0
146
0.5
147
0.010000000000000002
148
0.0
 69
0
 70
0
 71
0
 72
0
 73
0
 74
0
 75
0
 76
0
 77
1
 78
12
 79
3
170
0
171
3
172
1
173
0
174
0
175
0
176
0
177
0
178
0
179
2
271
2
272
2
273
2
274
3
275
0
276
0
277
2
278
46
279
2
280
0
281
0
282
0
283
0
284
8
285
0
286
0
288
1
289
3
290
0
340
4C
371
-2
372
-2
  0
DIMSTYLE
105
81
330
4
100
AcDbSymbolTableRecord
100
AcDbDimStyleTableRecord
  2
EZ_M_5_H25_CM
 70
0
 40
1.0
 41
0.0125
 42
0.00625
 43
3.75
 44
0.018750000000000003
 45
0.0
 46
0.0
 47
0.0
 48
0.0
 49
2.5
140
0.0125
141
2.5
142
0.00625
143
0.03937007874
144
100.0
145
0.0
146
0.5
147
0.005000000000000001
148
0.0
 69
0
 70
0
 71
0
 72
0
 73
0
 74
0
 75
0
 76
0
 77
1
 78
12
 79
3
170
0
171
3
172
1
173
0
174
0
175
0
176
0
177
0
178
0
179
2
271
2
272
2
273
2
274
3
275
0
276
0
277
2
278
46
279
2
280
0
281
0
282
0
283
0
284
8
285
0
286
0
288
1
289
3
290
0
340
4C
371
-2
372
-2
  0
DIMSTYLE
105
82
330
4
100
AcDbSymbolTableRecord
100
AcDbDimStyleTableRecord
  2
EZ_M_1_H25_CM
 70
0
 40
1.0
 41
0.0025
 42
0.00125
 43
3.75
 44
0.00375
 45
0.0
 46
0.0
 47
0.0
 48
0.0
 49
2.5
140
0.0025
141
2.5
142
0.00125
143
0.03937007874
144
100.0
145
0.0
146
0.5
147
0.001
148
0.0
 69
0
 70
0
 71
0
 72
0
 73
0
 74
0
 75
0
 76
0
 77
1
 78
12
 79
3
170
0
171
3
172
1
173
0
174
0
175
0
176
0
177
0
178
0
179
2
271
2
272
2
273
2
274
3
275
0
276
0
277
2
278
46
279
2
280
0
281
0
282
0
283
0
284
8
285
0
286
0
288
1
289
3
290
0
340
4C
371
-2
372
-2
  0
DIMSTYLE
105
83
330
4
100
AcDbSymbolTableRecord
100
AcDbDimStyleTableRecord
  2
EZ_RADIUS
 70
0
 40
1.0
 41
0.25
 42
0.125
 43
3.75
 44
0.375
 45
0.0
 46
0.0
 47
0.0
 48
0.0
 49
2.5
140
0.25
141
0.0
142
0.0
143
0.03937007874
144
100.0
145
0.0
146
0.5
147
0.1
148
0.0
 69
0
 70
0
 71
0
 72
0
 73
0
 74
0
 75
0
 76
0
 77
1
 78
12
 79
3
170
0
171
3
172
0
173
0
174
0
175
0
176
0
177
0
178
0
179
2
271
2
272
2
273
2
274
3
275
0
276
0
277
2
278
46
279
1
280
0
281
0
282
0
283
0
284
8
285
0
286
0
288
1
289
3
290
0
340
4C
342
84
371
-2
372
-2
  0
DIMSTYLE
105
88
330
4
100
AcDbSymbolTableRecord
100
AcDbDimStyleTableRecord
  2
EZ_RADIUS_INSIDE
 70
0
 40
1.0
 41
0.25
 42
0.125
 43
3.75
 44
0.375
 45
0.0
 46
0.0
 47
0.0
 48
0.0
 49
2.5
140
0.25
141
0.0
142
0.0
143
0.03937007874
144
100.0
145
0.0
146
0.5
147
0.1
148
0.0
 69
0
 70
0
 71
0
 72
0
 73
0
 74
0
 75
0
 76
0
 77
0
 78
12
 79
3
170
0
171
3
172
0
173
0
174
1
175
0
176
0
177
0
178
0
179
2
271
2
272
2
273
2
274
3
275
0
276
0
277
2
278
46
279
0
280
0
281
0
282
0
283
0
284
8
285
0
286
0
288
1
289
0
290
0
340
4C
342
84
371
-2
372
-2
  0
DIMSTYLE
105
89
330
4
100
AcDbSymbolTableRecord
100
AcDbDimStyleTableRecord
  2
EZ_CURVED
 70
0
 40
1.0
 41
0.25
 42
0.125
 43
3.75
 44
0.375
 45
0.0
 46
0.0
 47
0.0
 48
0.0
 49
2.5
140
0.25
141
2.5
142
0.0
143
0.03937007874
144
100.0
145
0.0
146
0.5
147
0.1
148
0.0
 69
0
 70
0
 71
0
 72
0
 73
0
 74
0
 75
0
 76
0
 77
1
 78
12
 79
2
 90
2
170
0
171
3
172
1
173
0
174
0
175
0
176
0
177
0
178
0
179
2
271
2
272
2
273
2
274
3
275
0
276
0
277
2
278
46
279
2
280
0
281
0
282
0
283
0
284
8
285
0
286
0
288
1
289
3
290
0
340
4C
371
-2
372
-2
  0
DIMSTYLE
105
B4
330
4
100
AcDbSymbolTableRecord
100
AcDbDimStyleTableRecord
  2
COTA-50
 70
0
 40
1.0
 41
0.06
 42
0.05
 43
3.75
 44
0.05
 45
0.0
 46
0.05
 47
0.0
 48
0.0
 49
2.5
140
0.11000000000000001
141
2.5
142
0.06
143
0.03937007874
144
1.0
145
0.0
146
1.0
147
0.04000000000000001
148
0.0
 69
0
 70
0
 71
0
 72
0
 73
0
 74
0
 75
0
 76
0
 77
1
 78
0
 79
3
170
0
171
3
172
1
173
0
174
0
175
0
176
7
177
7
178
7
179
2
271
2
272
2
273
2
274
3
275
0
276
0
277
2
278
46
279
0
280
0
281
0
282
0
283
0
284
8
285
0
286
0
288
0
289
3
290
0
340
8A
371
18
372
13
  0
DIMSTYLE
105
B5
330
4
100
AcDbSymbolTableRecord
100
AcDbDimStyleTableRecord
  2
COTA-100
 70
0
 40
1.0
 41
0.12
 42
0.1
 43
3.75
 44
0.1
 45
0.0
 46
0.1
 47
0.0
 48
0.0
 49
2.5
140
0.22000000000000003
141
2.5
142
0.12
143
0.03937007874
144
1.0
145
0.0
146
1.0
147
0.08000000000000002
148
0.0
 69
0
 70
0
 71
0
 72
0
 73
0
 74
0
 75
0
 76
0
 77
1
 78
0
 79
3
170
0
171
3
172
1
173
0
174
0
175
0
176
7
177
7
178
7
179
2
271
2
272
2
273
2
274
3
275
0
276
0
277
2
278
46
279
0
280
0
281
0
282
0
283
0
284
8
285
0
286
0
288
0
289
3
290
0
340
8A
371
18
372
13
  0
DIMSTYLE
105
B6
330
4
100
AcDbSymbolTableRecord
100
AcDbDimStyleTableRecord
  2
COTA-200
 70
0
 40
1.0
 41
0.24
 42
0.2
 43
3.75
 44
0.2
 45
0.0
 46
0.2
 47
0.0
 48
0.0
 49
2.5
140
0.44000000000000006
141
2.5
142
0.24
143
0.03937007874
144
1.0
145
0.0
146
1.0
147
0.16000000000000003
148
0.0
 69
0
 70
0
 71
0
 72
0
 73
0
 74
0
 75
0
 76
0
 77
1
 78
0
 79
3
170
0
171
3
172
1
173
0
174
0
175
0
176
7
177
7
178
7
179
2
271
2
272
2
273
2
274
3
275
0
276
0
277
2
278
46
279
0
280
0
281
0
282
0
283
0
284
8
285
0
286
0
288
0
289
3
290
0
340
8A
371
18
372
13
  0
DIMSTYLE
105
CC
330
4
100
AcDbSymbolTableRecord
100
AcDbDimStyleTableRecord
  2
COTA-10
 70
0
 40
1.0
 41
0.012
 42
0.01
 43
3.75
 44
0.01
 45
0.0
 46
0.01
 47
0.0
 48
0.0
 49
2.5
140
0.022000000000000002
141
2.5
142
0.012
143
0.03937007874
144
1.0
145
0.0
146
1.0
147
0.008
148
0.0
 69
0
 70
0
 71
0
 72
0
 73
0
 74
0
 75
0
 76
0
 77
1
 78
0
 79
3
170
0
171
3
172
1
173
0
174
0
175
0
176
7
177
7
178
7
179
2
271
2
272
2
273
2
274
3
275
0
276
0
277
2
278
46
279
0
280
0
281
0
282
0
283
0
284
8
285
0
286
0
288
0
289
3
290
0
340
8A
371
18
372
13
  0
DIMSTYLE
105
CD
330
4
100
AcDbSymbolTableRecord
100
AcDbDimStyleTableRecord
  2
COTA-75
 70
0
 40
1.0
 41
0.09
 42
0.075
 43
3.75
 44
0.075
 45
0.0
 46
0.075
 47
0.0
 48
0.0
 49
2.5
140
0.165
141
2.5
142
0.09
143
0.03937007874
144
1.0
145
0.0
146
1.0
147
0.06
148
0.0
 69
0
 70
0
 71
0
 72
0
 73
0
 74
0
 75
0
 76
0
 77
1
 78
0
 79
3
170
0
171
3
172
1
173
0
174
0
175
0
176
7
177
7
178
7
179
2
271
2
272
2
273
2
274
3
275
0
276
0
277
2
278
46
279
0
280
0
281
0
282
0
283
0
284
8
285
0
286
0
288
0
289
3
290
0
340
8A
371
18
372
13
  0
ENDTAB
  0
TABLE
  2
BLOCK_RECORD
  5
9
330
0
100
AcDbSymbolTable
 70
28
  0
BLOCK_RECORD
  5
17
330
9
100
AcDbSymbolTableRecord
100
AcDbBlockTableRecord
  2
*Model_Space
340
1A
 70
0
280
1
281
0
  0
BLOCK_RECORD
  5
74
330
9
100
AcDbSymbolTableRecord
100
AcDbBlockTableRecord
  2
_ARCHTICK
340
0
 70
0
280
1
281
0
  0
BLOCK_RECORD
  5
78
330
9
100
AcDbSymbolTableRecord
100
AcDbBlockTableRecord
  2
_CLOSEDFILLED
340
0
 70
0
280
1
281
0
  0
BLOCK_RECORD
  5
84
330
9
100
AcDbSymbolTableRecord
100
AcDbBlockTableRecord
  2
_CLOSEDBLANK
340
0
 70
0
280
1
281
0
  0
BLOCK_RECORD
  5
B7
330
9
100
AcDbSymbolTableRecord
100
AcDbBlockTableRecord
  2
NORTE
340
0
 70
0
280
1
281
0
  0
BLOCK_RECORD
  5
17F
330
9
100
AcDbSymbolTableRecord
100
AcDbBlockTableRecord
  2
*D1
340
0
 70
0
280
1
281
0
  0
BLOCK_RECORD
  5
184
330
9
100
AcDbSymbolTableRecord
100
AcDbBlockTableRecord
  2
_OBLIQUE
340
0
 70
0
280
1
281
0
  0
BLOCK_RECORD
  5
192
330
9
100
AcDbSymbolTableRecord
100
AcDbBlockTableRecord
  2
*D2
340
0
 70
0
280
1
281
0
  0
BLOCK_RECORD
  5
1A1
330
9
100
AcDbSymbolTableRecord
100
AcDbBlockTableRecord
  2
*D3
340
0
 70
0
280
1
281
0
  0
BLOCK_RECORD
  5
1B0
330
9
100
AcDbSymbolTableRecord
100
AcDbBlockTableRecord
  2
*D4
340
0
 70
0
280
1
281
0
  0
BLOCK_RECORD
  5
1BF
330
9
100
AcDbSymbolTableRecord
100
AcDbBlockTableRecord
  2
*D5
340
0
 70
0
280
1
281
0
  0
BLOCK_RECORD
  5
1CE
330
9
100
AcDbSymbolTableRecord
100
AcDbBlockTableRecord
  2
*D6
340
0
 70
0
280
1
281
0
  0
BLOCK_RECORD
  5
1DD
330
9
100
AcDbSymbolTableRecord
100
AcDbBlockTableRecord
  2
*D7
340
0
 70
0
280
1
281
0
  0
BLOCK_RECORD
  5
1EC
330
9
100
AcDbSymbolTableRecord
100
AcDbBlockTableRecord
  2
*D8
340
0
 70
0
280
1
281
0
  0
BLOCK_RECORD
  5
1FB
330
9
100
AcDbSymbolTableRecord
100
AcDbBlockTableRecord
  2
*D9
340
0
 70
0
280
1
281
0
  0
BLOCK_RECORD
  5
20A
330
9
100
AcDbSymbolTableRecord
100
AcDbBlockTableRecord
  2
*D10
340
0
 70
0
280
1
281
0
  0
BLOCK_RECORD
  5
219
330
9
100
AcDbSymbolTableRecord
100
AcDbBlockTableRecord
  2
*D11
340
0
 70
0
280
1
281
0
  0
BLOCK_RECORD
  5
228
330
9
100
AcDbSymbolTableRecord
100
AcDbBlockTableRecord
  2
*D12
340
0
 70
0
280
1
281
0
  0
BLOCK_RECORD
  5
237
330
9
100
AcDbSymbolTableRecord
100
AcDbBlockTableRecord
  2
*D13
340
0
 70
0
280
1
281
0
  0
BLOCK_RECORD
  5
2AC
330
9
100
AcDbSymbolTableRecord
100
AcDbBlockTableRecord
  2
*D14
340
0
 70
0
280
1
281
0
  0
BLOCK_RECORD
  5
2BB
330
9
100
AcDbSymbolTableRecord
100
AcDbBlockTableRecord
  2
*D15
340
0
 70
0
280
1
281
0
  0
BLOCK_RECORD
  5
2CA
330
9
100
AcDbSymbolTableRecord
100
AcDbBlockTableRecord
  2
*D16
340
0
 70
0
280
1
281
0
  0
BLOCK_RECORD
  5
2E7
330
9
100
AcDbSymbolTableRecord
100
AcDbBlockTableRecord
  2
*D17
340
0
 70
0
280
1
281
0
  0
BLOCK_RECORD
  5
2F6
330
9
100
AcDbSymbolTableRecord
100
AcDbBlockTableRecord
  2
*D18
340
0
 70
0
280
1
281
0
  0
BLOCK_RECORD
  5
305
330
9
100
AcDbSymbolTableRecord
100
AcDbBlockTableRecord
  2
*D19
340
0
 70
0
280
1
281
0
  0
BLOCK_RECORD
  5
313
330
9
100
AcDbSymbolTableRecord
100
AcDbBlockTableRecord
  2
*Paper_Space
340
316
 70
0
280
1
281
0
  0
BLOCK_RECORD
  5
1B
330
9
100
AcDbSymbolTableRecord
100
AcDbBlockTableRecord
  2
*Paper_Space0
340
1E
 70
0
280
1
281
0
  0
BLOCK_RECORD
  5
36F
330
9
100
AcDbSymbolTableRecord
100
AcDbBlockTableRecord
  2
CAJETIN_A1
340
0
 70
0
280
1
281
0
  0
ENDTAB
  0
ENDSEC
  0
SECTION
  2
BLOCKS
  0
BLOCK
  5
18
330
17
100
AcDbEntity
  8
0
100
AcDbBlockBegin
  2
*Model_Space
 70
0
 10
0.0
 20
0.0
 30
0.0
  3
*Model_Space
  1

  0
ENDBLK
  5
19
330
17
100
AcDbEntity
  8
0
100
AcDbBlockEnd
  0
BLOCK
  5
75
330
74
100
AcDbEntity
  8
0
100
AcDbBlockBegin
  2
_ARCHTICK
 70
0
 10
0.0
 20
0.0
 30
0.0
  3
_ARCHTICK
  1

  0
LWPOLYLINE
  5
77
330
74
100
AcDbEntity
  8
0
  6
BYBLOCK
 62
0
100
AcDbPolyline
 90
2
 70
0
 43
0.15
 10
-0.5
 20
-0.5
 10
0.5
 20
0.5
  0
ENDBLK
  5
76
330
74
100
AcDbEntity
  8
0
100
AcDbBlockEnd
  0
BLOCK
  5
79
330
78
100
AcDbEntity
  8
0
100
AcDbBlockBegin
  2
_CLOSEDFILLED
 70
0
 10
0.0
 20
0.0
 30
0.0
  3
_CLOSEDFILLED
  1

  0
SOLID
  5
7B
330
78
100
AcDbEntity
  8
0
  6
BYBLOCK
 62
0
100
AcDbTrace
 10
-1.0
 20
0.16439898372402537
 30
0.0
 11
0.0
 21
0.0
 31
0.0
 12
-1.0
 22
-0.16439898372402537
 32
0.0
 13
-1.0
 23
-0.16439898372402537
 33
0.0
  0
ENDBLK
  5
7A
330
78
100
AcDbEntity
  8
0
100
AcDbBlockEnd
  0
BLOCK
  5
85
330
84
100
AcDbEntity
  8
0
100
AcDbBlockBegin
  2
_CLOSEDBLANK
 70
0
 10
0.0
 20
0.0
 30
0.0
  3
_CLOSEDBLANK
  1

  0
LWPOLYLINE
  5
87
330
84
100
AcDbEntity
  8
0
  6
BYBLOCK
 62
0
100
AcDbPolyline
 90
3
 70
1
 10
-1.0
 20
0.16439898372402537
 10
0.0
 20
0.0
 10
-1.0
 20
-0.16439898372402537
  0
ENDBLK
  5
86
330
84
100
AcDbEntity
  8
0
100
AcDbBlockEnd
  0
BLOCK
  5
B8
330
B7
100
AcDbEntity
  8
0
100
AcDbBlockBegin
  2
NORTE
 70
0
 10
0.0
 20
0.0
 30
0.0
  3
NORTE
  1

  0
LWPOLYLINE
  5
BA
330
B7
100
AcDbEntity
  8
0
100
AcDbPolyline
 90
4
 70
1
 10
0.0
 20
12.0
 10
-4.5
 20
-9.0
 10
0.0
 20
-5.0
 10
4.5
 20
-9.0
  0
HATCH
  5
BB
330
B7
100
AcDbEntity
  8
0
 62
0
100
AcDbHatch
 10
0.0
 20
0.0
 30
0.0
210
0.0
220
0.0
230
1.0
  2
SOLID
 70
1
 71
0
 91
1
 92
3
 72
0
 73
1
 93
3
 10
0.0
 20
12.0
 10
0.0
 20
-5.0
 10
-4.5
 20
-9.0
 97
0
 75
0
 76
1
 98
0
  0
CIRCLE
  5
BC
330
B7
100
AcDbEntity
  8
0
100
AcDbCircle
 10
0.0
 20
0.0
 30
0.0
 40
10.5
  0
TEXT
  5
BD
330
B7
100
AcDbEntity
  8
0
100
AcDbText
 10
0.0
 20
14.5
 30
0.0
 40
5.0
  1
N
  7
ARIAL
 72
1
 11
0.0
 21
14.5
 31
0.0
100
AcDbText
 73
1
  0
ENDBLK
  5
B9
330
B7
100
AcDbEntity
  8
0
100
AcDbBlockEnd
  0
BLOCK
  5
180
330
17F
100
AcDbEntity
  8
0
100
AcDbBlockBegin
  2
*D1
 70
1
 10
0.0
 20
0.0
 30
0.0
  3
*D1
  1

  0
LINE
  5
182
330
17F
100
AcDbEntity
  8
0
 62
7
370
13
100
AcDbLine
 10
0.0
 20
-0.05
 30
0.0
 11
0.0
 21
-1.8
 31
0.0
  0
LINE
  5
183
330
17F
100
AcDbEntity
  8
0
 62
7
370
13
100
AcDbLine
 10
2.06
 20
-0.05
 30
0.0
 11
2.06
 21
-1.8
 31
0.0
  0
INSERT
  5
188
330
17F
100
AcDbEntity
  8
A-COTA-50
 62
7
100
AcDbBlockReference
  2
_OBLIQUE
 10
0.0
 20
-1.75
 30
0.0
 41
0.12
 42
0.12
  0
INSERT
  5
18A
330
17F
100
AcDbEntity
  8
A-COTA-50
 62
7
100
AcDbBlockReference
  2
_OBLIQUE
 10
2.06
 20
-1.75
 30
0.0
 41
0.12
 42
0.12
  0
LINE
  5
18C
330
17F
100
AcDbEntity
  8
0
 62
7
370
18
100
AcDbLine
 10
-0.05
 20
-1.75
 30
0.0
 11
2.11
 21
-1.75
 31
0.0
  0
MTEXT
  5
18D
330
17F
100
AcDbEntity
  8
A-COTA-50
 62
7
100
AcDbMText
 10
1.03
 20
-1.655
 30
0.0
 40
0.11000000000000001
 71
5
  1
2.06
  7
ARIAL
  0
POINT
  5
18E
330
17F
100
AcDbEntity
  8
Defpoints
100
AcDbPoint
 10
0.0
 20
-1.75
 30
0.0
  0
POINT
  5
18F
330
17F
100
AcDbEntity
  8
Defpoints
100
AcDbPoint
 10
0.0
 20
0.0
 30
0.0
  0
POINT
  5
190
330
17F
100
AcDbEntity
  8
Defpoints
100
AcDbPoint
 10
2.06
 20
0.0
 30
0.0
  0
ENDBLK
  5
181
330
17F
100
AcDbEntity
  8
0
100
AcDbBlockEnd
  0
BLOCK
  5
185
330
184
100
AcDbEntity
  8
0
100
AcDbBlockBegin
  2
_OBLIQUE
 70
0
 10
0.0
 20
0.0
 30
0.0
  3
_OBLIQUE
  1

  0
LINE
  5
187
330
184
100
AcDbEntity
  8
0
  6
BYBLOCK
 62
0
100
AcDbLine
 10
-0.5
 20
-0.5
 30
0.0
 11
0.5
 21
0.5
 31
0.0
  0
ENDBLK
  5
186
330
184
100
AcDbEntity
  8
0
100
AcDbBlockEnd
  0
BLOCK
  5
193
330
192
100
AcDbEntity
  8
0
100
AcDbBlockBegin
  2
*D2
 70
1
 10
0.0
 20
0.0
 30
0.0
  3
*D2
  1

  0
LINE
  5
195
330
192
100
AcDbEntity
  8
0
 62
7
370
13
100
AcDbLine
 10
2.06
 20
-0.05
 30
0.0
 11
2.06
 21
-1.8
 31
0.0
  0
LINE
  5
196
330
192
100
AcDbEntity
  8
0
 62
7
370
13
100
AcDbLine
 10
25.18
 20
-0.05
 30
0.0
 11
25.18
 21
-1.8
 31
0.0
  0
INSERT
  5
197
330
192
100
AcDbEntity
  8
A-COTA-50
 62
7
100
AcDbBlockReference
  2
_OBLIQUE
 10
2.06
 20
-1.75
 30
0.0
 41
0.12
 42
0.12
  0
INSERT
  5
199
330
192
100
AcDbEntity
  8
A-COTA-50
 62
7
100
AcDbBlockReference
  2
_OBLIQUE
 10
25.18
 20
-1.75
 30
0.0
 41
0.12
 42
0.12
  0
LINE
  5
19B
330
192
100
AcDbEntity
  8
0
 62
7
370
18
100
AcDbLine
 10
2.0100000000000002
 20
-1.75
 30
0.0
 11
25.23
 21
-1.75
 31
0.0
  0
MTEXT
  5
19C
330
192
100
AcDbEntity
  8
A-COTA-50
 62
7
100
AcDbMText
 10
13.620000000000001
 20
-1.655
 30
0.0
 40
0.11000000000000001
 71
5
  1
23.12
  7
ARIAL
  0
POINT
  5
19D
330
192
100
AcDbEntity
  8
Defpoints
100
AcDbPoint
 10
2.06
 20
-1.75
 30
0.0
  0
POINT
  5
19E
330
192
100
AcDbEntity
  8
Defpoints
100
AcDbPoint
 10
2.06
 20
0.0
 30
0.0
  0
POINT
  5
19F
330
192
100
AcDbEntity
  8
Defpoints
100
AcDbPoint
 10
25.18
 20
0.0
 30
0.0
  0
ENDBLK
  5
194
330
192
100
AcDbEntity
  8
0
100
AcDbBlockEnd
  0
BLOCK
  5
1A2
330
1A1
100
AcDbEntity
  8
0
100
AcDbBlockBegin
  2
*D3
 70
1
 10
0.0
 20
0.0
 30
0.0
  3
*D3
  1

  0
LINE
  5
1A4
330
1A1
100
AcDbEntity
  8
0
 62
7
370
13
100
AcDbLine
 10
25.18
 20
-0.05
 30
0.0
 11
25.18
 21
-1.8
 31
0.0
  0
LINE
  5
1A5
330
1A1
100
AcDbEntity
  8
0
 62
7
370
13
100
AcDbLine
 10
28.511978184595964
 20
-0.05
 30
0.0
 11
28.511978184595964
 21
-1.8
 31
0.0
  0
INSERT
  5
1A6
330
1A1
100
AcDbEntity
  8
A-COTA-50
 62
7
100
AcDbBlockReference
  2
_OBLIQUE
 10
25.18
 20
-1.75
 30
0.0
 41
0.12
 42
0.12
  0
INSERT
  5
1A8
330
1A1
100
AcDbEntity
  8
A-COTA-50
 62
7
100
AcDbBlockReference
  2
_OBLIQUE
 10
28.511978184595964
 20
-1.75
 30
0.0
 41
0.12
 42
0.12
  0
LINE
  5
1AA
330
1A1
100
AcDbEntity
  8
0
 62
7
370
18
100
AcDbLine
 10
25.13
 20
-1.75
 30
0.0
 11
28.561978184595965
 21
-1.75
 31
0.0
  0
MTEXT
  5
1AB
330
1A1
100
AcDbEntity
  8
A-COTA-50
 62
7
100
AcDbMText
 10
26.845989092297984
 20
-1.655
 30
0.0
 40
0.11000000000000001
 71
5
  1
3.33
  7
ARIAL
  0
POINT
  5
1AC
330
1A1
100
AcDbEntity
  8
Defpoints
100
AcDbPoint
 10
25.18
 20
-1.75
 30
0.0
  0
POINT
  5
1AD
330
1A1
100
AcDbEntity
  8
Defpoints
100
AcDbPoint
 10
25.18
 20
0.0
 30
0.0
  0
POINT
  5
1AE
330
1A1
100
AcDbEntity
  8
Defpoints
100
AcDbPoint
 10
28.511978184595964
 20
0.0
 30
0.0
  0
ENDBLK
  5
1A3
330
1A1
100
AcDbEntity
  8
0
100
AcDbBlockEnd
  0
BLOCK
  5
1B1
330
1B0
100
AcDbEntity
  8
0
100
AcDbBlockBegin
  2
*D4
 70
1
 10
0.0
 20
0.0
 30
0.0
  3
*D4
  1

  0
LINE
  5
1B3
330
1B0
100
AcDbEntity
  8
0
 62
7
370
13
100
AcDbLine
 10
2.1350000000000002
 20
0.024999999999999994
 30
0.0
 11
2.1350000000000002
 21
-1.2
 31
0.0
  0
LINE
  5
1B4
330
1B0
100
AcDbEntity
  8
0
 62
7
370
13
100
AcDbLine
 10
7.685
 20
0.024999999999999994
 30
0.0
 11
7.685
 21
-1.2
 31
0.0
  0
INSERT
  5
1B5
330
1B0
100
AcDbEntity
  8
A-COTA-50
 62
7
100
AcDbBlockReference
  2
_OBLIQUE
 10
2.1350000000000002
 20
-1.15
 30
0.0
 41
0.12
 42
0.12
  0
INSERT
  5
1B7
330
1B0
100
AcDbEntity
  8
A-COTA-50
 62
7
100
AcDbBlockReference
  2
_OBLIQUE
 10
7.685
 20
-1.15
 30
0.0
 41
0.12
 42
0.12
  0
LINE
  5
1B9
330
1B0
100
AcDbEntity
  8
0
 62
7
370
18
100
AcDbLine
 10
2.0850000000000004
 20
-1.15
 30
0.0
 11
7.734999999999999
 21
-1.15
 31
0.0
  0
MTEXT
  5
1BA
330
1B0
100
AcDbEntity
  8
A-COTA-50
 62
7
100
AcDbMText
 10
4.91
 20
-1.055
 30
0.0
 40
0.11000000000000001
 71
5
  1
5.55
  7
ARIAL
  0
POINT
  5
1BB
330
1B0
100
AcDbEntity
  8
Defpoints
100
AcDbPoint
 10
2.1350000000000002
 20
-1.15
 30
0.0
  0
POINT
  5
1BC
330
1B0
100
AcDbEntity
  8
Defpoints
100
AcDbPoint
 10
2.1350000000000002
 20
0.075
 30
0.0
  0
POINT
  5
1BD
330
1B0
100
AcDbEntity
  8
Defpoints
100
AcDbPoint
 10
7.685
 20
0.075
 30
0.0
  0
ENDBLK
  5
1B2
330
1B0
100
AcDbEntity
  8
0
100
AcDbBlockEnd
  0
BLOCK
  5
1C0
330
1BF
100
AcDbEntity
  8
0
100
AcDbBlockBegin
  2
*D5
 70
1
 10
0.0
 20
0.0
 30
0.0
  3
*D5
  1

  0
LINE
  5
1C2
330
1BF
100
AcDbEntity
  8
0
 62
7
370
13
100
AcDbLine
 10
7.685
 20
0.024999999999999994
 30
0.0
 11
7.685
 21
-1.2
 31
0.0
  0
LINE
  5
1C3
330
1BF
100
AcDbEntity
  8
0
 62
7
370
13
100
AcDbLine
 10
10.335
 20
0.024999999999999994
 30
0.0
 11
10.335
 21
-1.2
 31
0.0
  0
INSERT
  5
1C4
330
1BF
100
AcDbEntity
  8
A-COTA-50
 62
7
100
AcDbBlockReference
  2
_OBLIQUE
 10
7.685
 20
-1.15
 30
0.0
 41
0.12
 42
0.12
  0
INSERT
  5
1C6
330
1BF
100
AcDbEntity
  8
A-COTA-50
 62
7
100
AcDbBlockReference
  2
_OBLIQUE
 10
10.335
 20
-1.15
 30
0.0
 41
0.12
 42
0.12
  0
LINE
  5
1C8
330
1BF
100
AcDbEntity
  8
0
 62
7
370
18
100
AcDbLine
 10
7.635
 20
-1.15
 30
0.0
 11
10.385000000000002
 21
-1.15
 31
0.0
  0
MTEXT
  5
1C9
330
1BF
100
AcDbEntity
  8
A-COTA-50
 62
7
100
AcDbMText
 10
9.01
 20
-1.055
 30
0.0
 40
0.11000000000000001
 71
5
  1
2.65
  7
ARIAL
  0
POINT
  5
1CA
330
1BF
100
AcDbEntity
  8
Defpoints
100
AcDbPoint
 10
7.685
 20
-1.15
 30
0.0
  0
POINT
  5
1CB
330
1BF
100
AcDbEntity
  8
Defpoints
100
AcDbPoint
 10
7.685
 20
0.075
 30
0.0
  0
POINT
  5
1CC
330
1BF
100
AcDbEntity
  8
Defpoints
100
AcDbPoint
 10
10.335
 20
0.075
 30
0.0
  0
ENDBLK
  5
1C1
330
1BF
100
AcDbEntity
  8
0
100
AcDbBlockEnd
  0
BLOCK
  5
1CF
330
1CE
100
AcDbEntity
  8
0
100
AcDbBlockBegin
  2
*D6
 70
1
 10
0.0
 20
0.0
 30
0.0
  3
*D6
  1

  0
LINE
  5
1D1
330
1CE
100
AcDbEntity
  8
0
 62
7
370
13
100
AcDbLine
 10
10.335
 20
0.024999999999999994
 30
0.0
 11
10.335
 21
-1.2
 31
0.0
  0
LINE
  5
1D2
330
1CE
100
AcDbEntity
  8
0
 62
7
370
13
100
AcDbLine
 10
16.905
 20
0.024999999999999994
 30
0.0
 11
16.905
 21
-1.2
 31
0.0
  0
INSERT
  5
1D3
330
1CE
100
AcDbEntity
  8
A-COTA-50
 62
7
100
AcDbBlockReference
  2
_OBLIQUE
 10
10.335
 20
-1.15
 30
0.0
 41
0.12
 42
0.12
  0
INSERT
  5
1D5
330
1CE
100
AcDbEntity
  8
A-COTA-50
 62
7
100
AcDbBlockReference
  2
_OBLIQUE
 10
16.905
 20
-1.15
 30
0.0
 41
0.12
 42
0.12
  0
LINE
  5
1D7
330
1CE
100
AcDbEntity
  8
0
 62
7
370
18
100
AcDbLine
 10
10.285
 20
-1.15
 30
0.0
 11
16.955000000000002
 21
-1.15
 31
0.0
  0
MTEXT
  5
1D8
330
1CE
100
AcDbEntity
  8
A-COTA-50
 62
7
100
AcDbMText
 10
13.620000000000001
 20
-1.055
 30
0.0
 40
0.11000000000000001
 71
5
  1
6.57
  7
ARIAL
  0
POINT
  5
1D9
330
1CE
100
AcDbEntity
  8
Defpoints
100
AcDbPoint
 10
10.335
 20
-1.15
 30
0.0
  0
POINT
  5
1DA
330
1CE
100
AcDbEntity
  8
Defpoints
100
AcDbPoint
 10
10.335
 20
0.075
 30
0.0
  0
POINT
  5
1DB
330
1CE
100
AcDbEntity
  8
Defpoints
100
AcDbPoint
 10
16.905
 20
0.075
 30
0.0
  0
ENDBLK
  5
1D0
330
1CE
100
AcDbEntity
  8
0
100
AcDbBlockEnd
  0
BLOCK
  5
1DE
330
1DD
100
AcDbEntity
  8
0
100
AcDbBlockBegin
  2
*D7
 70
1
 10
0.0
 20
0.0
 30
0.0
  3
*D7
  1

  0
LINE
  5
1E0
330
1DD
100
AcDbEntity
  8
0
 62
7
370
13
100
AcDbLine
 10
16.905
 20
0.024999999999999994
 30
0.0
 11
16.905
 21
-1.2
 31
0.0
  0
LINE
  5
1E1
330
1DD
100
AcDbEntity
  8
0
 62
7
370
13
100
AcDbLine
 10
19.555
 20
0.024999999999999994
 30
0.0
 11
19.555
 21
-1.2
 31
0.0
  0
INSERT
  5
1E2
330
1DD
100
AcDbEntity
  8
A-COTA-50
 62
7
100
AcDbBlockReference
  2
_OBLIQUE
 10
16.905
 20
-1.15
 30
0.0
 41
0.12
 42
0.12
  0
INSERT
  5
1E4
330
1DD
100
AcDbEntity
  8
A-COTA-50
 62
7
100
AcDbBlockReference
  2
_OBLIQUE
 10
19.555
 20
-1.15
 30
0.0
 41
0.12
 42
0.12
  0
LINE
  5
1E6
330
1DD
100
AcDbEntity
  8
0
 62
7
370
18
100
AcDbLine
 10
16.855
 20
-1.15
 30
0.0
 11
19.605
 21
-1.15
 31
0.0
  0
MTEXT
  5
1E7
330
1DD
100
AcDbEntity
  8
A-COTA-50
 62
7
100
AcDbMText
 10
18.23
 20
-1.055
 30
0.0
 40
0.11000000000000001
 71
5
  1
2.65
  7
ARIAL
  0
POINT
  5
1E8
330
1DD
100
AcDbEntity
  8
Defpoints
100
AcDbPoint
 10
16.905
 20
-1.15
 30
0.0
  0
POINT
  5
1E9
330
1DD
100
AcDbEntity
  8
Defpoints
100
AcDbPoint
 10
16.905
 20
0.075
 30
0.0
  0
POINT
  5
1EA
330
1DD
100
AcDbEntity
  8
Defpoints
100
AcDbPoint
 10
19.555
 20
0.075
 30
0.0
  0
ENDBLK
  5
1DF
330
1DD
100
AcDbEntity
  8
0
100
AcDbBlockEnd
  0
BLOCK
  5
1ED
330
1EC
100
AcDbEntity
  8
0
100
AcDbBlockBegin
  2
*D8
 70
1
 10
0.0
 20
0.0
 30
0.0
  3
*D8
  1

  0
LINE
  5
1EF
330
1EC
100
AcDbEntity
  8
0
 62
7
370
13
100
AcDbLine
 10
19.555
 20
0.024999999999999994
 30
0.0
 11
19.555
 21
-1.2
 31
0.0
  0
LINE
  5
1F0
330
1EC
100
AcDbEntity
  8
0
 62
7
370
13
100
AcDbLine
 10
25.105
 20
0.024999999999999994
 30
0.0
 11
25.105
 21
-1.2
 31
0.0
  0
INSERT
  5
1F1
330
1EC
100
AcDbEntity
  8
A-COTA-50
 62
7
100
AcDbBlockReference
  2
_OBLIQUE
 10
19.555
 20
-1.15
 30
0.0
 41
0.12
 42
0.12
  0
INSERT
  5
1F3
330
1EC
100
AcDbEntity
  8
A-COTA-50
 62
7
100
AcDbBlockReference
  2
_OBLIQUE
 10
25.105
 20
-1.15
 30
0.0
 41
0.12
 42
0.12
  0
LINE
  5
1F5
330
1EC
100
AcDbEntity
  8
0
 62
7
370
18
100
AcDbLine
 10
19.505
 20
-1.15
 30
0.0
 11
25.155
 21
-1.15
 31
0.0
  0
MTEXT
  5
1F6
330
1EC
100
AcDbEntity
  8
A-COTA-50
 62
7
100
AcDbMText
 10
22.33
 20
-1.055
 30
0.0
 40
0.11000000000000001
 71
5
  1
5.55
  7
ARIAL
  0
POINT
  5
1F7
330
1EC
100
AcDbEntity
  8
Defpoints
100
AcDbPoint
 10
19.555
 20
-1.15
 30
0.0
  0
POINT
  5
1F8
330
1EC
100
AcDbEntity
  8
Defpoints
100
AcDbPoint
 10
19.555
 20
0.075
 30
0.0
  0
POINT
  5
1F9
330
1EC
100
AcDbEntity
  8
Defpoints
100
AcDbPoint
 10
25.105
 20
0.075
 30
0.0
  0
ENDBLK
  5
1EE
330
1EC
100
AcDbEntity
  8
0
100
AcDbBlockEnd
  0
BLOCK
  5
1FC
330
1FB
100
AcDbEntity
  8
0
100
AcDbBlockBegin
  2
*D9
 70
1
 10
0.0
 20
0.0
 30
0.0
  3
*D9
  1

  0
LINE
  5
1FE
330
1FB
100
AcDbEntity
  8
0
 62
7
370
13
100
AcDbLine
 10
25.23
 20
0.075
 30
0.0
 11
29.3
 21
0.075
 31
0.0
  0
LINE
  5
1FF
330
1FB
100
AcDbEntity
  8
0
 62
7
370
13
100
AcDbLine
 10
25.23
 20
1.4100000000000001
 30
0.0
 11
29.3
 21
1.4100000000000001
 31
0.0
  0
INSERT
  5
200
330
1FB
100
AcDbEntity
  8
A-COTA-50
 62
7
100
AcDbBlockReference
  2
_OBLIQUE
 10
29.25
 20
0.075
 30
0.0
 41
0.12
 42
0.12
 50
90.0
  0
INSERT
  5
202
330
1FB
100
AcDbEntity
  8
A-COTA-50
 62
7
100
AcDbBlockReference
  2
_OBLIQUE
 10
29.25
 20
1.4100000000000001
 30
0.0
 41
0.12
 42
0.12
 50
90.0
  0
LINE
  5
204
330
1FB
100
AcDbEntity
  8
0
 62
7
370
18
100
AcDbLine
 10
29.25
 20
0.024999999999999994
 30
0.0
 11
29.25
 21
1.4600000000000002
 31
0.0
  0
MTEXT
  5
205
330
1FB
100
AcDbEntity
  8
A-COTA-50
 62
7
100
AcDbMText
 10
29.155
 20
0.7425
 30
0.0
 40
0.11000000000000001
 71
5
  1
1.34
  7
ARIAL
 50
90.0
  0
POINT
  5
206
330
1FB
100
AcDbEntity
  8
Defpoints
100
AcDbPoint
 10
29.25
 20
0.075
 30
0.0
  0
POINT
  5
207
330
1FB
100
AcDbEntity
  8
Defpoints
100
AcDbPoint
 10
25.18
 20
0.075
 30
0.0
  0
POINT
  5
208
330
1FB
100
AcDbEntity
  8
Defpoints
100
AcDbPoint
 10
25.18
 20
1.4100000000000001
 30
0.0
  0
ENDBLK
  5
1FD
330
1FB
100
AcDbEntity
  8
0
100
AcDbBlockEnd
  0
BLOCK
  5
20B
330
20A
100
AcDbEntity
  8
0
100
AcDbBlockBegin
  2
*D10
 70
1
 10
0.0
 20
0.0
 30
0.0
  3
*D10
  1

  0
LINE
  5
20D
330
20A
100
AcDbEntity
  8
0
 62
7
370
13
100
AcDbLine
 10
25.23
 20
1.4100000000000001
 30
0.0
 11
29.3
 21
1.4100000000000001
 31
0.0
  0
LINE
  5
20E
330
20A
100
AcDbEntity
  8
0
 62
7
370
13
100
AcDbLine
 10
25.23
 20
4.84
 30
0.0
 11
29.3
 21
4.84
 31
0.0
  0
INSERT
  5
20F
330
20A
100
AcDbEntity
  8
A-COTA-50
 62
7
100
AcDbBlockReference
  2
_OBLIQUE
 10
29.25
 20
1.4100000000000001
 30
0.0
 41
0.12
 42
0.12
 50
90.0
  0
INSERT
  5
211
330
20A
100
AcDbEntity
  8
A-COTA-50
 62
7
100
AcDbBlockReference
  2
_OBLIQUE
 10
29.25
 20
4.84
 30
0.0
 41
0.12
 42
0.12
 50
90.0
  0
LINE
  5
213
330
20A
100
AcDbEntity
  8
0
 62
7
370
18
100
AcDbLine
 10
29.25
 20
1.36
 30
0.0
 11
29.25
 21
4.89
 31
0.0
  0
MTEXT
  5
214
330
20A
100
AcDbEntity
  8
A-COTA-50
 62
7
100
AcDbMText
 10
29.155
 20
3.125
 30
0.0
 40
0.11000000000000001
 71
5
  1
3.43
  7
ARIAL
 50
90.0
  0
POINT
  5
215
330
20A
100
AcDbEntity
  8
Defpoints
100
AcDbPoint
 10
29.25
 20
1.4100000000000001
 30
0.0
  0
POINT
  5
216
330
20A
100
AcDbEntity
  8
Defpoints
100
AcDbPoint
 10
25.18
 20
1.4100000000000001
 30
0.0
  0
POINT
  5
217
330
20A
100
AcDbEntity
  8
Defpoints
100
AcDbPoint
 10
25.18
 20
4.84
 30
0.0
  0
ENDBLK
  5
20C
330
20A
100
AcDbEntity
  8
0
100
AcDbBlockEnd
  0
BLOCK
  5
21A
330
219
100
AcDbEntity
  8
0
100
AcDbBlockBegin
  2
*D11
 70
1
 10
0.0
 20
0.0
 30
0.0
  3
*D11
  1

  0
LINE
  5
21C
330
219
100
AcDbEntity
  8
0
 62
7
370
13
100
AcDbLine
 10
25.23
 20
4.84
 30
0.0
 11
29.3
 21
4.84
 31
0.0
  0
LINE
  5
21D
330
219
100
AcDbEntity
  8
0
 62
7
370
13
100
AcDbLine
 10
25.23
 20
8.925
 30
0.0
 11
29.3
 21
8.925
 31
0.0
  0
INSERT
  5
21E
330
219
100
AcDbEntity
  8
A-COTA-50
 62
7
100
AcDbBlockReference
  2
_OBLIQUE
 10
29.25
 20
4.84
 30
0.0
 41
0.12
 42
0.12
 50
90.0
  0
INSERT
  5
220
330
219
100
AcDbEntity
  8
A-COTA-50
 62
7
100
AcDbBlockReference
  2
_OBLIQUE
 10
29.25
 20
8.925
 30
0.0
 41
0.12
 42
0.12
 50
90.0
  0
LINE
  5
222
330
219
100
AcDbEntity
  8
0
 62
7
370
18
100
AcDbLine
 10
29.25
 20
4.79
 30
0.0
 11
29.25
 21
8.975000000000001
 31
0.0
  0
MTEXT
  5
223
330
219
100
AcDbEntity
  8
A-COTA-50
 62
7
100
AcDbMText
 10
29.155
 20
6.8825
 30
0.0
 40
0.11000000000000001
 71
5
  1
4.09
  7
ARIAL
 50
90.0
  0
POINT
  5
224
330
219
100
AcDbEntity
  8
Defpoints
100
AcDbPoint
 10
29.25
 20
4.84
 30
0.0
  0
POINT
  5
225
330
219
100
AcDbEntity
  8
Defpoints
100
AcDbPoint
 10
25.18
 20
4.84
 30
0.0
  0
POINT
  5
226
330
219
100
AcDbEntity
  8
Defpoints
100
AcDbPoint
 10
25.18
 20
8.925
 30
0.0
  0
ENDBLK
  5
21B
330
219
100
AcDbEntity
  8
0
100
AcDbBlockEnd
  0
BLOCK
  5
229
330
228
100
AcDbEntity
  8
0
100
AcDbBlockBegin
  2
*D12
 70
1
 10
0.0
 20
0.0
 30
0.0
  3
*D12
  1

  0
LINE
  5
22B
330
228
100
AcDbEntity
  8
0
 62
7
370
13
100
AcDbLine
 10
2.06
 20
9.05
 30
0.0
 11
2.06
 21
10.700000000000001
 31
0.0
  0
LINE
  5
22C
330
228
100
AcDbEntity
  8
0
 62
7
370
13
100
AcDbLine
 10
25.18
 20
9.05
 30
0.0
 11
25.18
 21
10.700000000000001
 31
0.0
  0
INSERT
  5
22D
330
228
100
AcDbEntity
  8
A-COTA-50
 62
7
100
AcDbBlockReference
  2
_OBLIQUE
 10
2.06
 20
10.65
 30
0.0
 41
0.12
 42
0.12
  0
INSERT
  5
22F
330
228
100
AcDbEntity
  8
A-COTA-50
 62
7
100
AcDbBlockReference
  2
_OBLIQUE
 10
25.18
 20
10.65
 30
0.0
 41
0.12
 42
0.12
  0
LINE
  5
231
330
228
100
AcDbEntity
  8
0
 62
7
370
18
100
AcDbLine
 10
2.0100000000000002
 20
10.65
 30
0.0
 11
25.23
 21
10.65
 31
0.0
  0
MTEXT
  5
232
330
228
100
AcDbEntity
  8
A-COTA-50
 62
7
100
AcDbMText
 10
13.620000000000001
 20
10.745000000000001
 30
0.0
 40
0.11000000000000001
 71
5
  1
23.12
  7
ARIAL
  0
POINT
  5
233
330
228
100
AcDbEntity
  8
Defpoints
100
AcDbPoint
 10
2.06
 20
10.65
 30
0.0
  0
POINT
  5
234
330
228
100
AcDbEntity
  8
Defpoints
100
AcDbPoint
 10
2.06
 20
9.0
 30
0.0
  0
POINT
  5
235
330
228
100
AcDbEntity
  8
Defpoints
100
AcDbPoint
 10
25.18
 20
9.0
 30
0.0
  0
ENDBLK
  5
22A
330
228
100
AcDbEntity
  8
0
100
AcDbBlockEnd
  0
BLOCK
  5
238
330
237
100
AcDbEntity
  8
0
100
AcDbBlockBegin
  2
*D13
 70
1
 10
0.0
 20
0.0
 30
0.0
  3
*D13
  1

  0
LINE
  5
23A
330
237
100
AcDbEntity
  8
0
 62
7
370
13
100
AcDbLine
 10
2.0100000000000002
 20
0.0
 30
0.0
 11
-1.4000000000000001
 21
0.0
 31
0.0
  0
LINE
  5
23B
330
237
100
AcDbEntity
  8
0
 62
7
370
13
100
AcDbLine
 10
2.0100000000000002
 20
9.0
 30
0.0
 11
-1.4000000000000001
 21
9.0
 31
0.0
  0
INSERT
  5
23C
330
237
100
AcDbEntity
  8
A-COTA-50
 62
7
100
AcDbBlockReference
  2
_OBLIQUE
 10
-1.35
 20
0.0
 30
0.0
 41
0.12
 42
0.12
 50
90.0
  0
INSERT
  5
23E
330
237
100
AcDbEntity
  8
A-COTA-50
 62
7
100
AcDbBlockReference
  2
_OBLIQUE
 10
-1.35
 20
9.0
 30
0.0
 41
0.12
 42
0.12
 50
90.0
  0
LINE
  5
240
330
237
100
AcDbEntity
  8
0
 62
7
370
18
100
AcDbLine
 10
-1.35
 20
-0.05
 30
0.0
 11
-1.35
 21
9.05
 31
0.0
  0
MTEXT
  5
241
330
237
100
AcDbEntity
  8
A-COTA-50
 62
7
100
AcDbMText
 10
-1.445
 20
4.5
 30
0.0
 40
0.11000000000000001
 71
5
  1
9.00
  7
ARIAL
 50
90.0
  0
POINT
  5
242
330
237
100
AcDbEntity
  8
Defpoints
100
AcDbPoint
 10
-1.35
 20
0.0
 30
0.0
  0
POINT
  5
243
330
237
100
AcDbEntity
  8
Defpoints
100
AcDbPoint
 10
2.06
 20
0.0
 30
0.0
  0
POINT
  5
244
330
237
100
AcDbEntity
  8
Defpoints
100
AcDbPoint
 10
2.06
 20
9.0
 30
0.0
  0
ENDBLK
  5
239
330
237
100
AcDbEntity
  8
0
100
AcDbBlockEnd
  0
BLOCK
  5
2AD
330
2AC
100
AcDbEntity
  8
0
100
AcDbBlockBegin
  2
*D14
 70
1
 10
0.0
 20
0.0
 30
0.0
  3
*D14
  1

  0
LINE
  5
2AF
330
2AC
100
AcDbEntity
  8
0
 62
7
370
13
100
AcDbLine
 10
102.06
 20
9.274999999999999
 30
0.0
 11
102.06
 21
11.227799999999998
 31
0.0
  0
LINE
  5
2B0
330
2AC
100
AcDbEntity
  8
0
 62
7
370
13
100
AcDbLine
 10
125.18
 20
9.274999999999999
 30
0.0
 11
125.18
 21
11.227799999999998
 31
0.0
  0
INSERT
  5
2B1
330
2AC
100
AcDbEntity
  8
E-COTA
 62
7
100
AcDbBlockReference
  2
_OBLIQUE
 10
102.06
 20
11.1528
 30
0.0
 41
0.18
 42
0.18
  0
INSERT
  5
2B3
330
2AC
100
AcDbEntity
  8
E-COTA
 62
7
100
AcDbBlockReference
  2
_OBLIQUE
 10
125.18
 20
11.1528
 30
0.0
 41
0.18
 42
0.18
  0
LINE
  5
2B5
330
2AC
100
AcDbEntity
  8
0
 62
7
370
18
100
AcDbLine
 10
101.985
 20
11.1528
 30
0.0
 11
125.25500000000001
 21
11.1528
 31
0.0
  0
MTEXT
  5
2B6
330
2AC
100
AcDbEntity
  8
E-COTA
 62
7
100
AcDbMText
 10
113.62
 20
11.2953
 30
0.0
 40
0.165
 71
5
  1
23.12
  7
ARIAL
  0
POINT
  5
2B7
330
2AC
100
AcDbEntity
  8
Defpoints
100
AcDbPoint
 10
102.06
 20
11.1528
 30
0.0
  0
POINT
  5
2B8
330
2AC
100
AcDbEntity
  8
Defpoints
100
AcDbPoint
 10
102.06
 20
9.2
 30
0.0
  0
POINT
  5
2B9
330
2AC
100
AcDbEntity
  8
Defpoints
100
AcDbPoint
 10
125.18
 20
9.2
 30
0.0
  0
ENDBLK
  5
2AE
330
2AC
100
AcDbEntity
  8
0
100
AcDbBlockEnd
  0
BLOCK
  5
2BC
330
2BB
100
AcDbEntity
  8
0
100
AcDbBlockBegin
  2
*D15
 70
1
 10
0.0
 20
0.0
 30
0.0
  3
*D15
  1

  0
LINE
  5
2BE
330
2BB
100
AcDbEntity
  8
0
 62
7
370
13
100
AcDbLine
 10
101.985
 20
9.0
 30
0.0
 11
101.535
 21
9.0
 31
0.0
  0
LINE
  5
2BF
330
2BB
100
AcDbEntity
  8
0
 62
7
370
13
100
AcDbLine
 10
101.985
 20
9.1
 30
0.0
 11
101.535
 21
9.1
 31
0.0
  0
INSERT
  5
2C0
330
2BB
100
AcDbEntity
  8
E-COTA
 62
7
100
AcDbBlockReference
  2
_OBLIQUE
 10
101.61
 20
9.0
 30
0.0
 41
0.18
 42
0.18
 50
90.0
  0
INSERT
  5
2C2
330
2BB
100
AcDbEntity
  8
E-COTA
 62
7
100
AcDbBlockReference
  2
_OBLIQUE
 10
101.61
 20
9.1
 30
0.0
 41
0.18
 42
0.18
 50
90.0
  0
LINE
  5
2C4
330
2BB
100
AcDbEntity
  8
0
 62
7
370
18
100
AcDbLine
 10
101.61
 20
8.925
 30
0.0
 11
101.61
 21
9.174999999999999
 31
0.0
  0
MTEXT
  5
2C5
330
2BB
100
AcDbEntity
  8
E-COTA
 62
7
100
AcDbMText
 10
101.3925
 20
9.05
 30
0.0
 40
0.165
 71
5
  1
0.10
  7
ARIAL
 50
90.0
  0
POINT
  5
2C6
330
2BB
100
AcDbEntity
  8
Defpoints
100
AcDbPoint
 10
101.61
 20
9.0
 30
0.0
  0
POINT
  5
2C7
330
2BB
100
AcDbEntity
  8
Defpoints
100
AcDbPoint
 10
102.06
 20
9.0
 30
0.0
  0
POINT
  5
2C8
330
2BB
100
AcDbEntity
  8
Defpoints
100
AcDbPoint
 10
102.06
 20
9.1
 30
0.0
  0
ENDBLK
  5
2BD
330
2BB
100
AcDbEntity
  8
0
100
AcDbBlockEnd
  0
BLOCK
  5
2CB
330
2CA
100
AcDbEntity
  8
0
100
AcDbBlockBegin
  2
*D16
 70
1
 10
0.0
 20
0.0
 30
0.0
  3
*D16
  1

  0
LINE
  5
2CD
330
2CA
100
AcDbEntity
  8
0
 62
7
370
13
100
AcDbLine
 10
113.69500000000001
 20
9.0
 30
0.0
 11
114.245
 21
9.0
 31
0.0
  0
LINE
  5
2CE
330
2CA
100
AcDbEntity
  8
0
 62
7
370
13
100
AcDbLine
 10
113.69500000000001
 20
10.6028
 30
0.0
 11
114.245
 21
10.6028
 31
0.0
  0
INSERT
  5
2CF
330
2CA
100
AcDbEntity
  8
E-COTA
 62
7
100
AcDbBlockReference
  2
_OBLIQUE
 10
114.17
 20
9.0
 30
0.0
 41
0.18
 42
0.18
 50
90.0
  0
INSERT
  5
2D1
330
2CA
100
AcDbEntity
  8
E-COTA
 62
7
100
AcDbBlockReference
  2
_OBLIQUE
 10
114.17
 20
10.6028
 30
0.0
 41
0.18
 42
0.18
 50
90.0
  0
LINE
  5
2D3
330
2CA
100
AcDbEntity
  8
0
 62
7
370
18
100
AcDbLine
 10
114.17
 20
8.925
 30
0.0
 11
114.17
 21
10.6778
 31
0.0
  0
MTEXT
  5
2D4
330
2CA
100
AcDbEntity
  8
E-COTA
 62
7
100
AcDbMText
 10
114.0275
 20
9.801400000000001
 30
0.0
 40
0.165
 71
5
  1
1.60
  7
ARIAL
 50
90.0
  0
POINT
  5
2D5
330
2CA
100
AcDbEntity
  8
Defpoints
100
AcDbPoint
 10
114.17
 20
9.0
 30
0.0
  0
POINT
  5
2D6
330
2CA
100
AcDbEntity
  8
Defpoints
100
AcDbPoint
 10
113.62
 20
9.0
 30
0.0
  0
POINT
  5
2D7
330
2CA
100
AcDbEntity
  8
Defpoints
100
AcDbPoint
 10
113.62
 20
10.6028
 30
0.0
  0
ENDBLK
  5
2CC
330
2CA
100
AcDbEntity
  8
0
100
AcDbBlockEnd
  0
BLOCK
  5
2E8
330
2E7
100
AcDbEntity
  8
0
100
AcDbBlockBegin
  2
*D17
 70
1
 10
0.0
 20
0.0
 30
0.0
  3
*D17
  1

  0
LINE
  5
2EA
330
2E7
100
AcDbEntity
  8
0
 62
7
370
13
100
AcDbLine
 10
200.45999999999998
 20
-0.2
 30
0.0
 11
200.52999999999997
 21
-0.2
 31
0.0
  0
LINE
  5
2EB
330
2E7
100
AcDbEntity
  8
0
 62
7
370
13
100
AcDbLine
 10
200.45999999999998
 20
0.0
 30
0.0
 11
200.52999999999997
 21
0.0
 31
0.0
  0
INSERT
  5
2EC
330
2E7
100
AcDbEntity
  8
E-COTA
 62
7
100
AcDbBlockReference
  2
_OBLIQUE
 10
200.51999999999998
 20
-0.2
 30
0.0
 41
0.024
 42
0.024
 50
90.0
  0
INSERT
  5
2EE
330
2E7
100
AcDbEntity
  8
E-COTA
 62
7
100
AcDbBlockReference
  2
_OBLIQUE
 10
200.51999999999998
 20
0.0
 30
0.0
 41
0.024
 42
0.024
 50
90.0
  0
LINE
  5
2F0
330
2E7
100
AcDbEntity
  8
0
 62
7
370
18
100
AcDbLine
 10
200.51999999999998
 20
-0.21000000000000002
 30
0.0
 11
200.51999999999998
 21
0.01
 31
0.0
  0
MTEXT
  5
2F1
330
2E7
100
AcDbEntity
  8
E-COTA
 62
7
100
AcDbMText
 10
200.50099999999998
 20
-0.1
 30
0.0
 40
0.022000000000000002
 71
5
  1
0.20
  7
ARIAL
 50
90.0
  0
POINT
  5
2F2
330
2E7
100
AcDbEntity
  8
Defpoints
100
AcDbPoint
 10
200.51999999999998
 20
-0.2
 30
0.0
  0
POINT
  5
2F3
330
2E7
100
AcDbEntity
  8
Defpoints
100
AcDbPoint
 10
200.45
 20
-0.2
 30
0.0
  0
POINT
  5
2F4
330
2E7
100
AcDbEntity
  8
Defpoints
100
AcDbPoint
 10
200.45
 20
0.0
 30
0.0
  0
ENDBLK
  5
2E9
330
2E7
100
AcDbEntity
  8
0
100
AcDbBlockEnd
  0
BLOCK
  5
2F7
330
2F6
100
AcDbEntity
  8
0
100
AcDbBlockBegin
  2
*D18
 70
1
 10
0.0
 20
0.0
 30
0.0
  3
*D18
  1

  0
LINE
  5
2F9
330
2F6
100
AcDbEntity
  8
0
 62
7
370
13
100
AcDbLine
 10
200.45999999999998
 20
0.45
 30
0.0
 11
200.52999999999997
 21
0.45
 31
0.0
  0
LINE
  5
2FA
330
2F6
100
AcDbEntity
  8
0
 62
7
370
13
100
AcDbLine
 10
200.45999999999998
 20
0.55
 30
0.0
 11
200.52999999999997
 21
0.55
 31
0.0
  0
INSERT
  5
2FB
330
2F6
100
AcDbEntity
  8
E-COTA
 62
7
100
AcDbBlockReference
  2
_OBLIQUE
 10
200.51999999999998
 20
0.45
 30
0.0
 41
0.024
 42
0.024
 50
90.0
  0
INSERT
  5
2FD
330
2F6
100
AcDbEntity
  8
E-COTA
 62
7
100
AcDbBlockReference
  2
_OBLIQUE
 10
200.51999999999998
 20
0.55
 30
0.0
 41
0.024
 42
0.024
 50
90.0
  0
LINE
  5
2FF
330
2F6
100
AcDbEntity
  8
0
 62
7
370
18
100
AcDbLine
 10
200.51999999999998
 20
0.44
 30
0.0
 11
200.51999999999998
 21
0.56
 31
0.0
  0
MTEXT
  5
300
330
2F6
100
AcDbEntity
  8
E-COTA
 62
7
100
AcDbMText
 10
200.50099999999998
 20
0.5
 30
0.0
 40
0.022000000000000002
 71
5
  1
0.10
  7
ARIAL
 50
90.0
  0
POINT
  5
301
330
2F6
100
AcDbEntity
  8
Defpoints
100
AcDbPoint
 10
200.51999999999998
 20
0.45
 30
0.0
  0
POINT
  5
302
330
2F6
100
AcDbEntity
  8
Defpoints
100
AcDbPoint
 10
200.45
 20
0.45
 30
0.0
  0
POINT
  5
303
330
2F6
100
AcDbEntity
  8
Defpoints
100
AcDbPoint
 10
200.45
 20
0.55
 30
0.0
  0
ENDBLK
  5
2F8
330
2F6
100
AcDbEntity
  8
0
100
AcDbBlockEnd
  0
BLOCK
  5
306
330
305
100
AcDbEntity
  8
0
100
AcDbBlockBegin
  2
*D19
 70
1
 10
0.0
 20
0.0
 30
0.0
  3
*D19
  1

  0
LINE
  5
308
330
305
100
AcDbEntity
  8
0
 62
7
370
13
100
AcDbLine
 10
199.925
 20
-0.21000000000000002
 30
0.0
 11
199.925
 21
-0.28
 31
0.0
  0
LINE
  5
309
330
305
100
AcDbEntity
  8
0
 62
7
370
13
100
AcDbLine
 10
200.075
 20
-0.21000000000000002
 30
0.0
 11
200.075
 21
-0.28
 31
0.0
  0
INSERT
  5
30A
330
305
100
AcDbEntity
  8
E-COTA
 62
7
100
AcDbBlockReference
  2
_OBLIQUE
 10
199.925
 20
-0.27
 30
0.0
 41
0.024
 42
0.024
  0
INSERT
  5
30C
330
305
100
AcDbEntity
  8
E-COTA
 62
7
100
AcDbBlockReference
  2
_OBLIQUE
 10
200.075
 20
-0.27
 30
0.0
 41
0.024
 42
0.024
  0
LINE
  5
30E
330
305
100
AcDbEntity
  8
0
 62
7
370
18
100
AcDbLine
 10
199.91500000000002
 20
-0.27
 30
0.0
 11
200.08499999999998
 21
-0.27
 31
0.0
  0
MTEXT
  5
30F
330
305
100
AcDbEntity
  8
E-COTA
 62
7
100
AcDbMText
 10
200.0
 20
-0.251
 30
0.0
 40
0.022000000000000002
 71
5
  1
0.15
  7
ARIAL
  0
POINT
  5
310
330
305
100
AcDbEntity
  8
Defpoints
100
AcDbPoint
 10
199.925
 20
-0.27
 30
0.0
  0
POINT
  5
311
330
305
100
AcDbEntity
  8
Defpoints
100
AcDbPoint
 10
199.925
 20
-0.2
 30
0.0
  0
POINT
  5
312
330
305
100
AcDbEntity
  8
Defpoints
100
AcDbPoint
 10
200.075
 20
-0.2
 30
0.0
  0
ENDBLK
  5
307
330
305
100
AcDbEntity
  8
0
100
AcDbBlockEnd
  0
BLOCK
  5
314
330
313
100
AcDbEntity
  8
0
100
AcDbBlockBegin
  2
*Paper_Space
 70
0
 10
0.0
 20
0.0
 30
0.0
  3
*Paper_Space
  1

  0
ENDBLK
  5
315
330
313
100
AcDbEntity
  8
0
100
AcDbBlockEnd
  0
BLOCK
  5
1C
330
1B
100
AcDbEntity
  8
0
100
AcDbBlockBegin
  2
*Paper_Space0
 70
0
 10
0.0
 20
0.0
 30
0.0
  3
*Paper_Space0
  1

  0
ENDBLK
  5
1D
330
1B
100
AcDbEntity
  8
0
100
AcDbBlockEnd
  0
BLOCK
  5
370
330
36F
100
AcDbEntity
  8
0
100
AcDbBlockBegin
  2
CAJETIN_A1
 70
2
 10
0.0
 20
0.0
 30
0.0
  3
CAJETIN_A1
  1

  0
LWPOLYLINE
  5
372
330
36F
100
AcDbEntity
  8
0
100
AcDbPolyline
 90
4
 70
1
 10
0.0
 20
0.0
 10
120.0
 20
0.0
 10
120.0
 20
574.0
 10
0.0
 20
574.0
  0
TEXT
  5
373
330
36F
100
AcDbEntity
  8
0
100
AcDbText
 10
3.0
 20
571.0
 30
0.0
 40
2.0
  1
ESPACIO PARA SELLOS Y TIMBRES
  7
ARIAL
 11
3.0
 21
571.0
 31
0.0
100
AcDbText
 73
3
  0
LINE
  5
374
330
36F
100
AcDbEntity
  8
0
100
AcDbLine
 10
0.0
 20
255.6
 30
0.0
 11
120.0
 21
255.6
 31
0.0
  0
ATTDEF
  5
375
330
36F
100
AcDbEntity
  8
0
100
AcDbText
 10
60.0
 20
251.6
 30
0.0
 40
3.2
  1

  7
ARIAL
 72
1
 11
60.0
 21
251.6
 31
0.0
100
AcDbAttributeDefinition
  3

  2
EMPRESA
 70
0
 74
3
 71
1
 72
0
 11
60.0
 21
251.6
 31
0.0
  0
ATTDEF
  5
376
330
36F
100
AcDbEntity
  8
0
100
AcDbText
 10
60.0
 20
245.6
 30
0.0
 40
2.5
  1

  7
ARIAL
 72
1
 11
60.0
 21
245.6
 31
0.0
100
AcDbAttributeDefinition
  3

  2
EMPRESA_CED
 70
0
 74
3
 71
1
 72
0
 11
60.0
 21
245.6
 31
0.0
  0
LINE
  5
377
330
36F
100
AcDbEntity
  8
0
100
AcDbLine
 10
0.0
 20
237.6
 30
0.0
 11
120.0
 21
237.6
 31
0.0
  0
TEXT
  5
378
330
36F
100
AcDbEntity
  8
0
100
AcDbText
 10
3.0
 20
235.1
 30
0.0
 40
2.2
  1
PROFESIONAL RESPONSABLE:
  7
ARIAL
 11
3.0
 21
235.1
 31
0.0
100
AcDbText
 73
3
  0
ATTDEF
  5
379
330
36F
100
AcDbEntity
  8
0
100
AcDbText
 10
3.0
 20
230.1
 30
0.0
 40
2.6
  1

  7
ARIAL
 11
3.0
 21
230.1
 31
0.0
100
AcDbAttributeDefinition
  3

  2
PROF_1
 70
0
 74
3
 71
1
 72
0
 11
3.0
 21
230.1
 31
0.0
  0
ATTDEF
  5
37A
330
36F
100
AcDbEntity
  8
0
100
AcDbText
 10
3.0
 20
225.6
 30
0.0
 40
2.6
  1

  7
ARIAL
 11
3.0
 21
225.6
 31
0.0
100
AcDbAttributeDefinition
  3

  2
PROF_2
 70
0
 74
3
 71
1
 72
0
 11
3.0
 21
225.6
 31
0.0
  0
ATTDEF
  5
37B
330
36F
100
AcDbEntity
  8
0
100
AcDbText
 10
3.0
 20
221.1
 30
0.0
 40
2.6
  1

  7
ARIAL
 11
3.0
 21
221.1
 31
0.0
100
AcDbAttributeDefinition
  3

  2
PROF_3
 70
0
 74
3
 71
1
 72
0
 11
3.0
 21
221.1
 31
0.0
  0
LINE
  5
37C
330
36F
100
AcDbEntity
  8
0
100
AcDbLine
 10
0.0
 20
215.6
 30
0.0
 11
120.0
 21
215.6
 31
0.0
  0
TEXT
  5
37D
330
36F
100
AcDbEntity
  8
0
100
AcDbText
 10
3.0
 20
213.1
 30
0.0
 40
2.2
  1
PROYECTO:
  7
ARIAL
 11
3.0
 21
213.1
 31
0.0
100
AcDbText
 73
3
  0
ATTDEF
  5
37E
330
36F
100
AcDbEntity
  8
0
100
AcDbText
 10
3.0
 20
208.1
 30
0.0
 40
4.2
  1

  7
ARIAL
 11
3.0
 21
208.1
 31
0.0
100
AcDbAttributeDefinition
  3

  2
PROYECTO
 70
0
 74
3
 71
1
 72
0
 11
3.0
 21
208.1
 31
0.0
  0
ATTDEF
  5
37F
330
36F
100
AcDbEntity
  8
0
100
AcDbText
 10
3.0
 20
201.1
 30
0.0
 40
2.5
  1

  7
ARIAL
 11
3.0
 21
201.1
 31
0.0
100
AcDbAttributeDefinition
  3

  2
UBIC_1
 70
0
 74
3
 71
1
 72
0
 11
3.0
 21
201.1
 31
0.0
  0
ATTDEF
  5
380
330
36F
100
AcDbEntity
  8
0
100
AcDbText
 10
3.0
 20
196.6
 30
0.0
 40
2.5
  1

  7
ARIAL
 11
3.0
 21
196.6
 31
0.0
100
AcDbAttributeDefinition
  3

  2
UBIC_2
 70
0
 74
3
 71
1
 72
0
 11
3.0
 21
196.6
 31
0.0
  0
ATTDEF
  5
381
330
36F
100
AcDbEntity
  8
0
100
AcDbText
 10
3.0
 20
192.1
 30
0.0
 40
2.5
  1

  7
ARIAL
 11
3.0
 21
192.1
 31
0.0
100
AcDbAttributeDefinition
  3

  2
UBIC_3
 70
0
 74
3
 71
1
 72
0
 11
3.0
 21
192.1
 31
0.0
  0
LINE
  5
382
330
36F
100
AcDbEntity
  8
0
100
AcDbLine
 10
0.0
 20
186.6
 30
0.0
 11
120.0
 21
186.6
 31
0.0
  0
TEXT
  5
383
330
36F
100
AcDbEntity
  8
0
100
AcDbText
 10
3.0
 20
184.1
 30
0.0
 40
2.2
  1
INFORMACIÓN REGISTRO PÚBLICO:
  7
ARIAL
 11
3.0
 21
184.1
 31
0.0
100
AcDbText
 73
3
  0
ATTDEF
  5
384
330
36F
100
AcDbEntity
  8
0
100
AcDbText
 10
3.0
 20
179.1
 30
0.0
 40
2.5
  1

  7
ARIAL
 11
3.0
 21
179.1
 31
0.0
100
AcDbAttributeDefinition
  3

  2
REG_1
 70
0
 74
3
 71
1
 72
0
 11
3.0
 21
179.1
 31
0.0
  0
ATTDEF
  5
385
330
36F
100
AcDbEntity
  8
0
100
AcDbText
 10
3.0
 20
174.6
 30
0.0
 40
2.5
  1

  7
ARIAL
 11
3.0
 21
174.6
 31
0.0
100
AcDbAttributeDefinition
  3

  2
REG_2
 70
0
 74
3
 71
1
 72
0
 11
3.0
 21
174.6
 31
0.0
  0
ATTDEF
  5
386
330
36F
100
AcDbEntity
  8
0
100
AcDbText
 10
3.0
 20
170.1
 30
0.0
 40
2.5
  1

  7
ARIAL
 11
3.0
 21
170.1
 31
0.0
100
AcDbAttributeDefinition
  3

  2
REG_3
 70
0
 74
3
 71
1
 72
0
 11
3.0
 21
170.1
 31
0.0
  0
LINE
  5
387
330
36F
100
AcDbEntity
  8
0
100
AcDbLine
 10
0.0
 20
164.6
 30
0.0
 11
120.0
 21
164.6
 31
0.0
  0
TEXT
  5
388
330
36F
100
AcDbEntity
  8
0
100
AcDbText
 10
3.0
 20
162.1
 30
0.0
 40
2.2
  1
CONTENIDO:
  7
ARIAL
 11
3.0
 21
162.1
 31
0.0
100
AcDbText
 73
3
  0
ATTDEF
  5
389
330
36F
100
AcDbEntity
  8
0
100
AcDbText
 10
3.0
 20
157.1
 30
0.0
 40
5.0
  1

  7
ARIAL
 11
3.0
 21
157.1
 31
0.0
100
AcDbAttributeDefinition
  3

  2
CONT_TIT
 70
0
 74
3
 71
1
 72
0
 11
3.0
 21
157.1
 31
0.0
  0
ATTDEF
  5
38A
330
36F
100
AcDbEntity
  8
0
100
AcDbText
 10
3.0
 20
149.6
 30
0.0
 40
3.0
  1

  7
ARIAL
 11
3.0
 21
149.6
 31
0.0
100
AcDbAttributeDefinition
  3

  2
CONT_1
 70
0
 74
3
 71
1
 72
0
 11
3.0
 21
149.6
 31
0.0
  0
ATTDEF
  5
38B
330
36F
100
AcDbEntity
  8
0
100
AcDbText
 10
3.0
 20
144.1
 30
0.0
 40
3.0
  1

  7
ARIAL
 11
3.0
 21
144.1
 31
0.0
100
AcDbAttributeDefinition
  3

  2
CONT_2
 70
0
 74
3
 71
1
 72
0
 11
3.0
 21
144.1
 31
0.0
  0
ATTDEF
  5
38C
330
36F
100
AcDbEntity
  8
0
100
AcDbText
 10
3.0
 20
138.6
 30
0.0
 40
3.0
  1

  7
ARIAL
 11
3.0
 21
138.6
 31
0.0
100
AcDbAttributeDefinition
  3

  2
CONT_3
 70
0
 74
3
 71
1
 72
0
 11
3.0
 21
138.6
 31
0.0
  0
ATTDEF
  5
38D
330
36F
100
AcDbEntity
  8
0
100
AcDbText
 10
3.0
 20
133.1
 30
0.0
 40
3.0
  1

  7
ARIAL
 11
3.0
 21
133.1
 31
0.0
100
AcDbAttributeDefinition
  3

  2
CONT_4
 70
0
 74
3
 71
1
 72
0
 11
3.0
 21
133.1
 31
0.0
  0
ATTDEF
  5
38E
330
36F
100
AcDbEntity
  8
0
100
AcDbText
 10
3.0
 20
127.6
 30
0.0
 40
3.0
  1

  7
ARIAL
 11
3.0
 21
127.6
 31
0.0
100
AcDbAttributeDefinition
  3

  2
CONT_5
 70
0
 74
3
 71
1
 72
0
 11
3.0
 21
127.6
 31
0.0
  0
ATTDEF
  5
38F
330
36F
100
AcDbEntity
  8
0
100
AcDbText
 10
3.0
 20
122.1
 30
0.0
 40
3.0
  1

  7
ARIAL
 11
3.0
 21
122.1
 31
0.0
100
AcDbAttributeDefinition
  3

  2
CONT_6
 70
0
 74
3
 71
1
 72
0
 11
3.0
 21
122.1
 31
0.0
  0
LINE
  5
390
330
36F
100
AcDbEntity
  8
0
100
AcDbLine
 10
0.0
 20
114.6
 30
0.0
 11
120.0
 21
114.6
 31
0.0
  0
TEXT
  5
391
330
36F
100
AcDbEntity
  8
0
100
AcDbText
 10
3.0
 20
112.1
 30
0.0
 40
2.2
  1
ESCALAS:
  7
ARIAL
 11
3.0
 21
112.1
 31
0.0
100
AcDbText
 73
3
  0
ATTDEF
  5
392
330
36F
100
AcDbEntity
  8
0
100
AcDbText
 10
25.0
 20
112.1
 30
0.0
 40
2.2
  1

  7
ARIAL
 11
25.0
 21
112.1
 31
0.0
100
AcDbAttributeDefinition
  3

  2
ESCALAS
 70
0
 74
3
 71
1
 72
0
 11
25.0
 21
112.1
 31
0.0
  0
LINE
  5
393
330
36F
100
AcDbEntity
  8
0
100
AcDbLine
 10
0.0
 20
107.6
 30
0.0
 11
120.0
 21
107.6
 31
0.0
  0
TEXT
  5
394
330
36F
100
AcDbEntity
  8
0
100
AcDbText
 10
3.0
 20
105.6
 30
0.0
 40
2.2
  1
CONTROL DE REVISIONES
  7
ARIAL
 11
3.0
 21
105.6
 31
0.0
100
AcDbText
 73
3
  0
LINE
  5
395
330
36F
100
AcDbEntity
  8
0
100
AcDbLine
 10
0.0
 20
101.6
 30
0.0
 11
120.0
 21
101.6
 31
0.0
  0
TEXT
  5
396
330
36F
100
AcDbEntity
  8
0
100
AcDbText
 10
6.0
 20
99.1
 30
0.0
 40
2.0
  1
REV.
  7
ARIAL
 72
1
 11
6.0
 21
99.1
 31
0.0
100
AcDbText
 73
2
  0
TEXT
  5
397
330
36F
100
AcDbEntity
  8
0
100
AcDbText
 10
23.0
 20
99.1
 30
0.0
 40
2.0
  1
FECHA
  7
ARIAL
 72
1
 11
23.0
 21
99.1
 31
0.0
100
AcDbText
 73
2
  0
TEXT
  5
398
330
36F
100
AcDbEntity
  8
0
100
AcDbText
 10
77.0
 20
99.1
 30
0.0
 40
2.0
  1
DESCRIPCIÓN
  7
ARIAL
 72
1
 11
77.0
 21
99.1
 31
0.0
100
AcDbText
 73
2
  0
LINE
  5
399
330
36F
100
AcDbEntity
  8
0
100
AcDbLine
 10
0.0
 20
96.6
 30
0.0
 11
120.0
 21
96.6
 31
0.0
  0
ATTDEF
  5
39A
330
36F
100
AcDbEntity
  8
0
100
AcDbText
 10
6.0
 20
94.0
 30
0.0
 40
2.0
  1

  7
ARIAL
 72
1
 11
6.0
 21
94.0
 31
0.0
100
AcDbAttributeDefinition
  3

  2
REV0_N
 70
0
 74
2
 71
1
 72
0
 11
6.0
 21
94.0
 31
0.0
  0
ATTDEF
  5
39B
330
36F
100
AcDbEntity
  8
0
100
AcDbText
 10
23.0
 20
94.0
 30
0.0
 40
2.0
  1

  7
ARIAL
 72
1
 11
23.0
 21
94.0
 31
0.0
100
AcDbAttributeDefinition
  3

  2
REV0_F
 70
0
 74
2
 71
1
 72
0
 11
23.0
 21
94.0
 31
0.0
  0
ATTDEF
  5
39C
330
36F
100
AcDbEntity
  8
0
100
AcDbText
 10
35.5
 20
94.0
 30
0.0
 40
2.0
  1

  7
ARIAL
 11
35.5
 21
94.0
 31
0.0
100
AcDbAttributeDefinition
  3

  2
REV0_D
 70
0
 74
2
 71
1
 72
0
 11
35.5
 21
94.0
 31
0.0
  0
LINE
  5
39D
330
36F
100
AcDbEntity
  8
0
100
AcDbLine
 10
0.0
 20
91.39999999999999
 30
0.0
 11
120.0
 21
91.39999999999999
 31
0.0
  0
ATTDEF
  5
39E
330
36F
100
AcDbEntity
  8
0
100
AcDbText
 10
6.0
 20
88.8
 30
0.0
 40
2.0
  1

  7
ARIAL
 72
1
 11
6.0
 21
88.8
 31
0.0
100
AcDbAttributeDefinition
  3

  2
REV1_N
 70
0
 74
2
 71
1
 72
0
 11
6.0
 21
88.8
 31
0.0
  0
ATTDEF
  5
39F
330
36F
100
AcDbEntity
  8
0
100
AcDbText
 10
23.0
 20
88.8
 30
0.0
 40
2.0
  1

  7
ARIAL
 72
1
 11
23.0
 21
88.8
 31
0.0
100
AcDbAttributeDefinition
  3

  2
REV1_F
 70
0
 74
2
 71
1
 72
0
 11
23.0
 21
88.8
 31
0.0
  0
ATTDEF
  5
3A0
330
36F
100
AcDbEntity
  8
0
100
AcDbText
 10
35.5
 20
88.8
 30
0.0
 40
2.0
  1

  7
ARIAL
 11
35.5
 21
88.8
 31
0.0
100
AcDbAttributeDefinition
  3

  2
REV1_D
 70
0
 74
2
 71
1
 72
0
 11
35.5
 21
88.8
 31
0.0
  0
LINE
  5
3A1
330
36F
100
AcDbEntity
  8
0
100
AcDbLine
 10
0.0
 20
86.19999999999999
 30
0.0
 11
120.0
 21
86.19999999999999
 31
0.0
  0
ATTDEF
  5
3A2
330
36F
100
AcDbEntity
  8
0
100
AcDbText
 10
6.0
 20
83.6
 30
0.0
 40
2.0
  1

  7
ARIAL
 72
1
 11
6.0
 21
83.6
 31
0.0
100
AcDbAttributeDefinition
  3

  2
REV2_N
 70
0
 74
2
 71
1
 72
0
 11
6.0
 21
83.6
 31
0.0
  0
ATTDEF
  5
3A3
330
36F
100
AcDbEntity
  8
0
100
AcDbText
 10
23.0
 20
83.6
 30
0.0
 40
2.0
  1

  7
ARIAL
 72
1
 11
23.0
 21
83.6
 31
0.0
100
AcDbAttributeDefinition
  3

  2
REV2_F
 70
0
 74
2
 71
1
 72
0
 11
23.0
 21
83.6
 31
0.0
  0
ATTDEF
  5
3A4
330
36F
100
AcDbEntity
  8
0
100
AcDbText
 10
35.5
 20
83.6
 30
0.0
 40
2.0
  1

  7
ARIAL
 11
35.5
 21
83.6
 31
0.0
100
AcDbAttributeDefinition
  3

  2
REV2_D
 70
0
 74
2
 71
1
 72
0
 11
35.5
 21
83.6
 31
0.0
  0
LINE
  5
3A5
330
36F
100
AcDbEntity
  8
0
100
AcDbLine
 10
0.0
 20
80.99999999999999
 30
0.0
 11
120.0
 21
80.99999999999999
 31
0.0
  0
LINE
  5
3A6
330
36F
100
AcDbEntity
  8
0
100
AcDbLine
 10
12.0
 20
101.6
 30
0.0
 11
12.0
 21
80.99999999999999
 31
0.0
  0
LINE
  5
3A7
330
36F
100
AcDbEntity
  8
0
100
AcDbLine
 10
34.0
 20
101.6
 30
0.0
 11
34.0
 21
80.99999999999999
 31
0.0
  0
TEXT
  5
3A8
330
36F
100
AcDbEntity
  8
0
100
AcDbText
 10
3.0
 20
78.49999999999999
 30
0.0
 40
2.2
  1
ESTADO:
  7
ARIAL
 11
3.0
 21
78.49999999999999
 31
0.0
100
AcDbText
 73
3
  0
ATTDEF
  5
3A9
330
36F
100
AcDbEntity
  8
0
100
AcDbText
 10
60.0
 20
72.99999999999999
 30
0.0
 40
3.0
  1

  7
ARIAL
 72
1
 11
60.0
 21
72.99999999999999
 31
0.0
100
AcDbAttributeDefinition
  3

  2
ESTADO_1
 70
0
 74
3
 71
1
 72
0
 11
60.0
 21
72.99999999999999
 31
0.0
  0
ATTDEF
  5
3AA
330
36F
100
AcDbEntity
  8
0
100
AcDbText
 10
60.0
 20
67.99999999999999
 30
0.0
 40
2.4
  1

  7
ARIAL
 72
1
 11
60.0
 21
67.99999999999999
 31
0.0
100
AcDbAttributeDefinition
  3

  2
ESTADO_2
 70
0
 74
3
 71
1
 72
0
 11
60.0
 21
67.99999999999999
 31
0.0
  0
LINE
  5
3AB
330
36F
100
AcDbEntity
  8
0
100
AcDbLine
 10
0.0
 20
61.999999999999986
 30
0.0
 11
120.0
 21
61.999999999999986
 31
0.0
  0
LINE
  5
3AC
330
36F
100
AcDbEntity
  8
0
100
AcDbLine
 10
0.0
 20
52.999999999999986
 30
0.0
 11
120.0
 21
52.999999999999986
 31
0.0
  0
LINE
  5
3AD
330
36F
100
AcDbEntity
  8
0
100
AcDbLine
 10
0.0
 20
26.999999999999986
 30
0.0
 11
120.0
 21
26.999999999999986
 31
0.0
  0
LINE
  5
3AE
330
36F
100
AcDbEntity
  8
0
100
AcDbLine
 10
66.0
 20
61.999999999999986
 30
0.0
 11
66.0
 21
0.0
 31
0.0
  0
TEXT
  5
3AF
330
36F
100
AcDbEntity
  8
0
100
AcDbText
 10
33.0
 20
57.499999999999986
 30
0.0
 40
3.0
  1
LUGAR
  7
ARIAL
 72
1
 11
33.0
 21
57.499999999999986
 31
0.0
100
AcDbText
 73
2
  0
TEXT
  5
3B0
330
36F
100
AcDbEntity
  8
0
100
AcDbText
 10
93.0
 20
57.499999999999986
 30
0.0
 40
3.0
  1
LÁMINA
  7
ARIAL
 72
1
 11
93.0
 21
57.499999999999986
 31
0.0
100
AcDbText
 73
2
  0
ATTDEF
  5
3B1
330
36F
100
AcDbEntity
  8
0
100
AcDbText
 10
33.0
 20
39.999999999999986
 30
0.0
 40
5.0
  1

  7
ARIAL
 72
1
 11
33.0
 21
39.999999999999986
 31
0.0
100
AcDbAttributeDefinition
  3

  2
LUGAR
 70
0
 74
2
 71
1
 72
0
 11
33.0
 21
39.999999999999986
 31
0.0
  0
ATTDEF
  5
3B2
330
36F
100
AcDbEntity
  8
0
100
AcDbText
 10
93.0
 20
39.999999999999986
 30
0.0
 40
14.0
  1

  7
ARIAL
 72
1
 11
93.0
 21
39.999999999999986
 31
0.0
100
AcDbAttributeDefinition
  3

  2
LAMINA
 70
0
 74
2
 71
1
 72
0
 11
93.0
 21
39.999999999999986
 31
0.0
  0
ATTDEF
  5
3B3
330
36F
100
AcDbEntity
  8
0
100
AcDbText
 10
33.0
 20
13.499999999999993
 30
0.0
 40
6.0
  1

  7
ARIAL
 72
1
 11
33.0
 21
13.499999999999993
 31
0.0
100
AcDbAttributeDefinition
  3

  2
FECHA
 70
0
 74
2
 71
1
 72
0
 11
33.0
 21
13.499999999999993
 31
0.0
  0
TEXT
  5
3B4
330
36F
100
AcDbEntity
  8
0
100
AcDbText
 10
70.0
 20
13.499999999999993
 30
0.0
 40
3.0
  1
TOTAL
  7
ARIAL
 11
70.0
 21
13.499999999999993
 31
0.0
100
AcDbText
 73
2
  0
ATTDEF
  5
3B5
330
36F
100
AcDbEntity
  8
0
100
AcDbText
 10
104.0
 20
13.499999999999993
 30
0.0
 40
9.0
  1

  7
ARIAL
 72
1
 11
104.0
 21
13.499999999999993
 31
0.0
100
AcDbAttributeDefinition
  3

  2
TOTAL
 70
0
 74
2
 71
1
 72
0
 11
104.0
 21
13.499999999999993
 31
0.0
  0
ENDBLK
  5
371
330
36F
100
AcDbEntity
  8
0
100
AcDbBlockEnd
  0
ENDSEC
  0
SECTION
  2
ENTITIES
  0
LWPOLYLINE
  5
CE
330
17
100
AcDbEntity
  8
T-LINDERO
100
AcDbPolyline
 90
5
 70
1
 10
0.0
 20
0.0
 10
0.010879637986303953
 20
4.664716672341735
 10
0.05655167053563409
 20
9.007424821148515
 10
28.51811244861565
 20
8.999803462886003
 10
28.511978184595964
 20
0.0
  0
CIRCLE
  5
CF
330
17
100
AcDbEntity
  8
T-VERTICE
100
AcDbCircle
 10
0.0
 20
0.0
 30
0.0
 40
0.18
  0
TEXT
  5
D0
330
17
100
AcDbEntity
  8
T-VERTICE
100
AcDbText
 10
-0.35
 20
-0.35
 30
0.0
 40
0.18
  1
1
  7
ARIAL
 72
1
 11
-0.35
 21
-0.35
 31
0.0
100
AcDbText
 73
2
  0
CIRCLE
  5
D1
330
17
100
AcDbEntity
  8
T-VERTICE
100
AcDbCircle
 10
0.010879637986303953
 20
4.664716672341735
 30
0.0
 40
0.18
  0
TEXT
  5
D2
330
17
100
AcDbEntity
  8
T-VERTICE
100
AcDbText
 10
-0.35
 20
-0.35
 30
0.0
 40
0.18
  1
2
  7
ARIAL
 72
1
 11
-0.35
 21
-0.35
 31
0.0
100
AcDbText
 73
2
  0
CIRCLE
  5
D3
330
17
100
AcDbEntity
  8
T-VERTICE
100
AcDbCircle
 10
0.05655167053563409
 20
9.007424821148515
 30
0.0
 40
0.18
  0
TEXT
  5
D4
330
17
100
AcDbEntity
  8
T-VERTICE
100
AcDbText
 10
-0.35
 20
9.35
 30
0.0
 40
0.18
  1
3
  7
ARIAL
 72
1
 11
-0.35
 21
9.35
 31
0.0
100
AcDbText
 73
2
  0
CIRCLE
  5
D5
330
17
100
AcDbEntity
  8
T-VERTICE
100
AcDbCircle
 10
28.51811244861565
 20
8.999803462886003
 30
0.0
 40
0.18
  0
TEXT
  5
D6
330
17
100
AcDbEntity
  8
T-VERTICE
100
AcDbText
 10
28.85
 20
9.35
 30
0.0
 40
0.18
  1
4
  7
ARIAL
 72
1
 11
28.85
 21
9.35
 31
0.0
100
AcDbText
 73
2
  0
CIRCLE
  5
D7
330
17
100
AcDbEntity
  8
T-VERTICE
100
AcDbCircle
 10
28.511978184595964
 20
0.0
 30
0.0
 40
0.18
  0
TEXT
  5
D8
330
17
100
AcDbEntity
  8
T-VERTICE
100
AcDbText
 10
28.85
 20
-0.35
 30
0.0
 40
0.18
  1
5
  7
ARIAL
 72
1
 11
28.85
 21
-0.35
 31
0.0
100
AcDbText
 73
2
  0
LWPOLYLINE
  5
D9
330
17
100
AcDbEntity
  8
E-CUBIERTA
100
AcDbPolyline
 90
4
 70
1
 10
2.06
 20
0.0
 10
2.06
 20
9.0
 10
25.18
 20
9.0
 10
25.18
 20
0.0
  0
LINE
  5
DA
330
17
100
AcDbEntity
  8
E-CUMBRERA
 48
0.02
100
AcDbLine
 10
13.62
 20
0.0
 30
0.0
 11
13.62
 21
9.0
 31
0.0
  0
TEXT
  5
DB
330
17
100
AcDbEntity
  8
E-TXT
100
AcDbText
 10
13.84
 20
0.85
 30
0.0
 40
0.13
  1
CUMBRERA
 50
90.0
  7
ARIAL
 72
1
 11
13.84
 21
0.85
 31
0.0
100
AcDbText
 73
2
  0
LWPOLYLINE
  5
DC
330
17
100
AcDbEntity
  8
E-CUBIERTA
100
AcDbPolyline
 90
4
 70
1
 10
7.76
 20
1.47
 10
7.76
 20
8.85
 10
10.26
 20
8.85
 10
10.26
 20
1.47
  0
LINE
  5
DD
330
17
100
AcDbEntity
  8
E-VACIO
100
AcDbLine
 10
7.76
 20
1.47
 30
0.0
 11
10.26
 21
8.85
 31
0.0
  0
LINE
  5
DE
330
17
100
AcDbEntity
  8
E-VACIO
100
AcDbLine
 10
7.76
 20
8.85
 30
0.0
 11
10.26
 21
1.47
 31
0.0
  0
TEXT
  5
DF
330
17
100
AcDbEntity
  8
E-TXT
100
AcDbText
 10
9.01
 20
4.0600000000000005
 30
0.0
 40
0.12
  1
PATIO P1 (ABIERTO, SIN CUBIERTA)
  7
ARIAL
 72
1
 11
9.01
 21
4.0600000000000005
 31
0.0
100
AcDbText
 73
2
  0
LWPOLYLINE
  5
E0
330
17
100
AcDbEntity
  8
E-CUBIERTA
100
AcDbPolyline
 90
4
 70
1
 10
16.98
 20
4.81
 10
16.98
 20
8.85
 10
19.48
 20
8.85
 10
19.48
 20
4.81
  0
LINE
  5
E1
330
17
100
AcDbEntity
  8
E-VACIO
100
AcDbLine
 10
16.98
 20
4.81
 30
0.0
 11
19.48
 21
8.85
 31
0.0
  0
LINE
  5
E2
330
17
100
AcDbEntity
  8
E-VACIO
100
AcDbLine
 10
16.98
 20
8.85
 30
0.0
 11
19.48
 21
4.81
 31
0.0
  0
TEXT
  5
E3
330
17
100
AcDbEntity
  8
E-TXT
100
AcDbText
 10
18.23
 20
5.73
 30
0.0
 40
0.12
  1
PATIO P2 (ABIERTO, SIN CUBIERTA)
  7
ARIAL
 72
1
 11
18.23
 21
5.73
 31
0.0
100
AcDbText
 73
2
  0
LWPOLYLINE
  5
E4
330
17
100
AcDbEntity
  8
E-COLUMNA
100
AcDbPolyline
 90
4
 70
1
 10
2.06
 20
0.0
 10
2.06
 20
0.15
 10
2.2100000000000004
 20
0.15
 10
2.2100000000000004
 20
0.0
  0
HATCH
  5
E5
330
17
100
AcDbEntity
  8
E-COLUMNA
 62
7
100
AcDbHatch
 10
0.0
 20
0.0
 30
0.0
210
0.0
220
0.0
230
1.0
  2
SOLID
 70
1
 71
0
 91
1
 92
3
 72
0
 73
1
 93
4
 10
2.06
 20
0.0
 10
2.06
 20
0.15
 10
2.2100000000000004
 20
0.15
 10
2.2100000000000004
 20
0.0
 97
0
 75
0
 76
1
 98
0
  0
LWPOLYLINE
  5
E6
330
17
100
AcDbEntity
  8
E-COLUMNA
100
AcDbPolyline
 90
4
 70
1
 10
7.609999999999999
 20
0.0
 10
7.609999999999999
 20
0.15
 10
7.76
 20
0.15
 10
7.76
 20
0.0
  0
HATCH
  5
E7
330
17
100
AcDbEntity
  8
E-COLUMNA
 62
7
100
AcDbHatch
 10
0.0
 20
0.0
 30
0.0
210
0.0
220
0.0
230
1.0
  2
SOLID
 70
1
 71
0
 91
1
 92
3
 72
0
 73
1
 93
4
 10
7.609999999999999
 20
0.0
 10
7.609999999999999
 20
0.15
 10
7.76
 20
0.15
 10
7.76
 20
0.0
 97
0
 75
0
 76
1
 98
0
  0
LWPOLYLINE
  5
E8
330
17
100
AcDbEntity
  8
E-COLUMNA
100
AcDbPolyline
 90
4
 70
1
 10
10.260000000000002
 20
0.0
 10
10.260000000000002
 20
0.15
 10
10.41
 20
0.15
 10
10.41
 20
0.0
  0
HATCH
  5
E9
330
17
100
AcDbEntity
  8
E-COLUMNA
 62
7
100
AcDbHatch
 10
0.0
 20
0.0
 30
0.0
210
0.0
220
0.0
230
1.0
  2
SOLID
 70
1
 71
0
 91
1
 92
3
 72
0
 73
1
 93
4
 10
10.260000000000002
 20
0.0
 10
10.260000000000002
 20
0.15
 10
10.41
 20
0.15
 10
10.41
 20
0.0
 97
0
 75
0
 76
1
 98
0
  0
LWPOLYLINE
  5
EA
330
17
100
AcDbEntity
  8
E-COLUMNA
100
AcDbPolyline
 90
4
 70
1
 10
16.830000000000002
 20
0.0
 10
16.830000000000002
 20
0.15
 10
16.98
 20
0.15
 10
16.98
 20
0.0
  0
HATCH
  5
EB
330
17
100
AcDbEntity
  8
E-COLUMNA
 62
7
100
AcDbHatch
 10
0.0
 20
0.0
 30
0.0
210
0.0
220
0.0
230
1.0
  2
SOLID
 70
1
 71
0
 91
1
 92
3
 72
0
 73
1
 93
4
 10
16.830000000000002
 20
0.0
 10
16.830000000000002
 20
0.15
 10
16.98
 20
0.15
 10
16.98
 20
0.0
 97
0
 75
0
 76
1
 98
0
  0
LWPOLYLINE
  5
EC
330
17
100
AcDbEntity
  8
E-COLUMNA
100
AcDbPolyline
 90
4
 70
1
 10
19.48
 20
0.0
 10
19.48
 20
0.15
 10
19.63
 20
0.15
 10
19.63
 20
0.0
  0
HATCH
  5
ED
330
17
100
AcDbEntity
  8
E-COLUMNA
 62
7
100
AcDbHatch
 10
0.0
 20
0.0
 30
0.0
210
0.0
220
0.0
230
1.0
  2
SOLID
 70
1
 71
0
 91
1
 92
3
 72
0
 73
1
 93
4
 10
19.48
 20
0.0
 10
19.48
 20
0.15
 10
19.63
 20
0.15
 10
19.63
 20
0.0
 97
0
 75
0
 76
1
 98
0
  0
LWPOLYLINE
  5
EE
330
17
100
AcDbEntity
  8
E-COLUMNA
100
AcDbPolyline
 90
4
 70
1
 10
25.03
 20
0.0
 10
25.03
 20
0.15
 10
25.18
 20
0.15
 10
25.18
 20
0.0
  0
HATCH
  5
EF
330
17
100
AcDbEntity
  8
E-COLUMNA
 62
7
100
AcDbHatch
 10
0.0
 20
0.0
 30
0.0
210
0.0
220
0.0
230
1.0
  2
SOLID
 70
1
 71
0
 91
1
 92
3
 72
0
 73
1
 93
4
 10
25.03
 20
0.0
 10
25.03
 20
0.15
 10
25.18
 20
0.15
 10
25.18
 20
0.0
 97
0
 75
0
 76
1
 98
0
  0
LWPOLYLINE
  5
F0
330
17
100
AcDbEntity
  8
E-COLUMNA
100
AcDbPolyline
 90
4
 70
1
 10
2.06
 20
8.850000000000001
 10
2.06
 20
9.0
 10
2.2100000000000004
 20
9.0
 10
2.2100000000000004
 20
8.850000000000001
  0
HATCH
  5
F1
330
17
100
AcDbEntity
  8
E-COLUMNA
 62
7
100
AcDbHatch
 10
0.0
 20
0.0
 30
0.0
210
0.0
220
0.0
230
1.0
  2
SOLID
 70
1
 71
0
 91
1
 92
3
 72
0
 73
1
 93
4
 10
2.06
 20
8.850000000000001
 10
2.06
 20
9.0
 10
2.2100000000000004
 20
9.0
 10
2.2100000000000004
 20
8.850000000000001
 97
0
 75
0
 76
1
 98
0
  0
LWPOLYLINE
  5
F2
330
17
100
AcDbEntity
  8
E-COLUMNA
100
AcDbPolyline
 90
4
 70
1
 10
7.609999999999999
 20
8.850000000000001
 10
7.609999999999999
 20
9.0
 10
7.76
 20
9.0
 10
7.76
 20
8.850000000000001
  0
HATCH
  5
F3
330
17
100
AcDbEntity
  8
E-COLUMNA
 62
7
100
AcDbHatch
 10
0.0
 20
0.0
 30
0.0
210
0.0
220
0.0
230
1.0
  2
SOLID
 70
1
 71
0
 91
1
 92
3
 72
0
 73
1
 93
4
 10
7.609999999999999
 20
8.850000000000001
 10
7.609999999999999
 20
9.0
 10
7.76
 20
9.0
 10
7.76
 20
8.850000000000001
 97
0
 75
0
 76
1
 98
0
  0
LWPOLYLINE
  5
F4
330
17
100
AcDbEntity
  8
E-COLUMNA
100
AcDbPolyline
 90
4
 70
1
 10
10.260000000000002
 20
8.850000000000001
 10
10.260000000000002
 20
9.0
 10
10.41
 20
9.0
 10
10.41
 20
8.850000000000001
  0
HATCH
  5
F5
330
17
100
AcDbEntity
  8
E-COLUMNA
 62
7
100
AcDbHatch
 10
0.0
 20
0.0
 30
0.0
210
0.0
220
0.0
230
1.0
  2
SOLID
 70
1
 71
0
 91
1
 92
3
 72
0
 73
1
 93
4
 10
10.260000000000002
 20
8.850000000000001
 10
10.260000000000002
 20
9.0
 10
10.41
 20
9.0
 10
10.41
 20
8.850000000000001
 97
0
 75
0
 76
1
 98
0
  0
LWPOLYLINE
  5
F6
330
17
100
AcDbEntity
  8
E-COLUMNA
100
AcDbPolyline
 90
4
 70
1
 10
16.830000000000002
 20
8.850000000000001
 10
16.830000000000002
 20
9.0
 10
16.98
 20
9.0
 10
16.98
 20
8.850000000000001
  0
HATCH
  5
F7
330
17
100
AcDbEntity
  8
E-COLUMNA
 62
7
100
AcDbHatch
 10
0.0
 20
0.0
 30
0.0
210
0.0
220
0.0
230
1.0
  2
SOLID
 70
1
 71
0
 91
1
 92
3
 72
0
 73
1
 93
4
 10
16.830000000000002
 20
8.850000000000001
 10
16.830000000000002
 20
9.0
 10
16.98
 20
9.0
 10
16.98
 20
8.850000000000001
 97
0
 75
0
 76
1
 98
0
  0
LWPOLYLINE
  5
F8
330
17
100
AcDbEntity
  8
E-COLUMNA
100
AcDbPolyline
 90
4
 70
1
 10
19.48
 20
8.850000000000001
 10
19.48
 20
9.0
 10
19.63
 20
9.0
 10
19.63
 20
8.850000000000001
  0
HATCH
  5
F9
330
17
100
AcDbEntity
  8
E-COLUMNA
 62
7
100
AcDbHatch
 10
0.0
 20
0.0
 30
0.0
210
0.0
220
0.0
230
1.0
  2
SOLID
 70
1
 71
0
 91
1
 92
3
 72
0
 73
1
 93
4
 10
19.48
 20
8.850000000000001
 10
19.48
 20
9.0
 10
19.63
 20
9.0
 10
19.63
 20
8.850000000000001
 97
0
 75
0
 76
1
 98
0
  0
LWPOLYLINE
  5
FA
330
17
100
AcDbEntity
  8
E-COLUMNA
100
AcDbPolyline
 90
4
 70
1
 10
25.03
 20
8.850000000000001
 10
25.03
 20
9.0
 10
25.18
 20
9.0
 10
25.18
 20
8.850000000000001
  0
HATCH
  5
FB
330
17
100
AcDbEntity
  8
E-COLUMNA
 62
7
100
AcDbHatch
 10
0.0
 20
0.0
 30
0.0
210
0.0
220
0.0
230
1.0
  2
SOLID
 70
1
 71
0
 91
1
 92
3
 72
0
 73
1
 93
4
 10
25.03
 20
8.850000000000001
 10
25.03
 20
9.0
 10
25.18
 20
9.0
 10
25.18
 20
8.850000000000001
 97
0
 75
0
 76
1
 98
0
  0
LWPOLYLINE
  5
FC
330
17
100
AcDbEntity
  8
E-COLUMNA
100
AcDbPolyline
 90
4
 70
1
 10
7.609999999999999
 20
4.765
 10
7.609999999999999
 20
4.915
 10
7.76
 20
4.915
 10
7.76
 20
4.765
  0
HATCH
  5
FD
330
17
100
AcDbEntity
  8
E-COLUMNA
 62
7
100
AcDbHatch
 10
0.0
 20
0.0
 30
0.0
210
0.0
220
0.0
230
1.0
  2
SOLID
 70
1
 71
0
 91
1
 92
3
 72
0
 73
1
 93
4
 10
7.609999999999999
 20
4.765
 10
7.609999999999999
 20
4.915
 10
7.76
 20
4.915
 10
7.76
 20
4.765
 97
0
 75
0
 76
1
 98
0
  0
LWPOLYLINE
  5
FE
330
17
100
AcDbEntity
  8
E-FORRO
100
AcDbPolyline
 90
4
 70
1
 10
7.534999999999999
 20
4.6899999999999995
 10
7.534999999999999
 20
4.99
 10
7.835
 20
4.99
 10
7.835
 20
4.6899999999999995
  0
LWPOLYLINE
  5
FF
330
17
100
AcDbEntity
  8
E-COLUMNA
100
AcDbPolyline
 90
4
 70
1
 10
10.260000000000002
 20
4.765
 10
10.260000000000002
 20
4.915
 10
10.41
 20
4.915
 10
10.41
 20
4.765
  0
HATCH
  5
100
330
17
100
AcDbEntity
  8
E-COLUMNA
 62
7
100
AcDbHatch
 10
0.0
 20
0.0
 30
0.0
210
0.0
220
0.0
230
1.0
  2
SOLID
 70
1
 71
0
 91
1
 92
3
 72
0
 73
1
 93
4
 10
10.260000000000002
 20
4.765
 10
10.260000000000002
 20
4.915
 10
10.41
 20
4.915
 10
10.41
 20
4.765
 97
0
 75
0
 76
1
 98
0
  0
LWPOLYLINE
  5
101
330
17
100
AcDbEntity
  8
E-FORRO
100
AcDbPolyline
 90
4
 70
1
 10
10.185
 20
4.6899999999999995
 10
10.185
 20
4.99
 10
10.485000000000001
 20
4.99
 10
10.485000000000001
 20
4.6899999999999995
  0
LWPOLYLINE
  5
102
330
17
100
AcDbEntity
  8
E-COLUMNA
100
AcDbPolyline
 90
4
 70
1
 10
16.830000000000002
 20
4.765
 10
16.830000000000002
 20
4.915
 10
16.98
 20
4.915
 10
16.98
 20
4.765
  0
HATCH
  5
103
330
17
100
AcDbEntity
  8
E-COLUMNA
 62
7
100
AcDbHatch
 10
0.0
 20
0.0
 30
0.0
210
0.0
220
0.0
230
1.0
  2
SOLID
 70
1
 71
0
 91
1
 92
3
 72
0
 73
1
 93
4
 10
16.830000000000002
 20
4.765
 10
16.830000000000002
 20
4.915
 10
16.98
 20
4.915
 10
16.98
 20
4.765
 97
0
 75
0
 76
1
 98
0
  0
LWPOLYLINE
  5
104
330
17
100
AcDbEntity
  8
E-FORRO
100
AcDbPolyline
 90
4
 70
1
 10
16.755000000000003
 20
4.6899999999999995
 10
16.755000000000003
 20
4.99
 10
17.055
 20
4.99
 10
17.055
 20
4.6899999999999995
  0
LWPOLYLINE
  5
105
330
17
100
AcDbEntity
  8
E-COLUMNA
100
AcDbPolyline
 90
4
 70
1
 10
19.48
 20
4.765
 10
19.48
 20
4.915
 10
19.63
 20
4.915
 10
19.63
 20
4.765
  0
HATCH
  5
106
330
17
100
AcDbEntity
  8
E-COLUMNA
 62
7
100
AcDbHatch
 10
0.0
 20
0.0
 30
0.0
210
0.0
220
0.0
230
1.0
  2
SOLID
 70
1
 71
0
 91
1
 92
3
 72
0
 73
1
 93
4
 10
19.48
 20
4.765
 10
19.48
 20
4.915
 10
19.63
 20
4.915
 10
19.63
 20
4.765
 97
0
 75
0
 76
1
 98
0
  0
LWPOLYLINE
  5
107
330
17
100
AcDbEntity
  8
E-FORRO
100
AcDbPolyline
 90
4
 70
1
 10
19.405
 20
4.6899999999999995
 10
19.405
 20
4.99
 10
19.705
 20
4.99
 10
19.705
 20
4.6899999999999995
  0
LWPOLYLINE
  5
108
330
17
100
AcDbEntity
  8
E-COLUMNA
100
AcDbPolyline
 90
4
 70
1
 10
24.955000000000002
 20
4.765
 10
24.955000000000002
 20
4.915
 10
25.105
 20
4.915
 10
25.105
 20
4.765
  0
HATCH
  5
109
330
17
100
AcDbEntity
  8
E-COLUMNA
 62
7
100
AcDbHatch
 10
0.0
 20
0.0
 30
0.0
210
0.0
220
0.0
230
1.0
  2
SOLID
 70
1
 71
0
 91
1
 92
3
 72
0
 73
1
 93
4
 10
24.955000000000002
 20
4.765
 10
24.955000000000002
 20
4.915
 10
25.105
 20
4.915
 10
25.105
 20
4.765
 97
0
 75
0
 76
1
 98
0
  0
LWPOLYLINE
  5
10A
330
17
100
AcDbEntity
  8
E-FORRO
100
AcDbPolyline
 90
4
 70
1
 10
24.880000000000003
 20
4.6899999999999995
 10
24.880000000000003
 20
4.99
 10
25.18
 20
4.99
 10
25.18
 20
4.6899999999999995
  0
LWPOLYLINE
  5
10B
330
17
100
AcDbEntity
  8
E-COLUMNA
100
AcDbPolyline
 90
4
 70
1
 10
2.135
 20
4.765
 10
2.135
 20
4.915
 10
2.285
 20
4.915
 10
2.285
 20
4.765
  0
HATCH
  5
10C
330
17
100
AcDbEntity
  8
E-COLUMNA
 62
7
100
AcDbHatch
 10
0.0
 20
0.0
 30
0.0
210
0.0
220
0.0
230
1.0
  2
SOLID
 70
1
 71
0
 91
1
 92
3
 72
0
 73
1
 93
4
 10
2.135
 20
4.765
 10
2.135
 20
4.915
 10
2.285
 20
4.915
 10
2.285
 20
4.765
 97
0
 75
0
 76
1
 98
0
  0
LWPOLYLINE
  5
10D
330
17
100
AcDbEntity
  8
E-FORRO
100
AcDbPolyline
 90
4
 70
1
 10
2.06
 20
4.6899999999999995
 10
2.06
 20
4.99
 10
2.36
 20
4.99
 10
2.36
 20
4.6899999999999995
  0
LWPOLYLINE
  5
10E
330
17
100
AcDbEntity
  8
E-VIGA
100
AcDbPolyline
 90
4
 70
1
 10
2.0850000000000004
 20
0.075
 10
2.0850000000000004
 20
8.925
 10
2.185
 20
8.925
 10
2.185
 20
0.075
  0
LWPOLYLINE
  5
10F
330
17
100
AcDbEntity
  8
E-VIGA
100
AcDbPolyline
 90
4
 70
1
 10
7.635
 20
0.075
 10
7.635
 20
8.925
 10
7.734999999999999
 20
8.925
 10
7.734999999999999
 20
0.075
  0
LWPOLYLINE
  5
110
330
17
100
AcDbEntity
  8
E-VIGA
100
AcDbPolyline
 90
4
 70
1
 10
10.285
 20
0.075
 10
10.285
 20
8.925
 10
10.385000000000002
 20
8.925
 10
10.385000000000002
 20
0.075
  0
LWPOLYLINE
  5
111
330
17
100
AcDbEntity
  8
E-VIGA
100
AcDbPolyline
 90
4
 70
1
 10
16.855
 20
0.075
 10
16.855
 20
8.925
 10
16.955000000000002
 20
8.925
 10
16.955000000000002
 20
0.075
  0
LWPOLYLINE
  5
112
330
17
100
AcDbEntity
  8
E-VIGA
100
AcDbPolyline
 90
4
 70
1
 10
19.505
 20
0.075
 10
19.505
 20
8.925
 10
19.605
 20
8.925
 10
19.605
 20
0.075
  0
LWPOLYLINE
  5
113
330
17
100
AcDbEntity
  8
E-VIGA
100
AcDbPolyline
 90
4
 70
1
 10
25.055
 20
0.075
 10
25.055
 20
8.925
 10
25.155
 20
8.925
 10
25.155
 20
0.075
  0
LWPOLYLINE
  5
114
330
17
100
AcDbEntity
  8
E-VIGA
100
AcDbPolyline
 90
4
 70
1
 10
2.1350000000000002
 20
0.024999999999999994
 10
2.1350000000000002
 20
0.125
 10
25.105
 20
0.125
 10
25.105
 20
0.024999999999999994
  0
LWPOLYLINE
  5
115
330
17
100
AcDbEntity
  8
E-VIGA
100
AcDbPolyline
 90
4
 70
1
 10
2.1350000000000002
 20
8.875
 10
2.1350000000000002
 20
8.975000000000001
 10
25.105
 20
8.975000000000001
 10
25.105
 20
8.875
  0
LWPOLYLINE
  5
116
330
17
100
AcDbEntity
  8
E-VIGA
100
AcDbPolyline
 90
4
 70
1
 10
2.1350000000000002
 20
4.79
 10
2.1350000000000002
 20
4.89
 10
7.685
 20
4.89
 10
7.685
 20
4.79
  0
LWPOLYLINE
  5
117
330
17
100
AcDbEntity
  8
E-VIGA
100
AcDbPolyline
 90
4
 70
1
 10
10.335
 20
4.79
 10
10.335
 20
4.89
 10
25.105
 20
4.89
 10
25.105
 20
4.79
  0
TEXT
  5
118
330
17
100
AcDbEntity
  8
E-TXT
100
AcDbText
 10
2.375
 20
7.7
 30
0.0
 40
0.13
  1
V1
  7
ARIAL
 72
1
 11
2.375
 21
7.7
 31
0.0
100
AcDbText
 73
2
  0
TEXT
  5
119
330
17
100
AcDbEntity
  8
E-TXT
100
AcDbText
 10
7.925
 20
7.7
 30
0.0
 40
0.13
  1
V1
  7
ARIAL
 72
1
 11
7.925
 21
7.7
 31
0.0
100
AcDbText
 73
2
  0
TEXT
  5
11A
330
17
100
AcDbEntity
  8
E-TXT
100
AcDbText
 10
10.575000000000001
 20
7.7
 30
0.0
 40
0.13
  1
V1
  7
ARIAL
 72
1
 11
10.575000000000001
 21
7.7
 31
0.0
100
AcDbText
 73
2
  0
TEXT
  5
11B
330
17
100
AcDbEntity
  8
E-TXT
100
AcDbText
 10
17.145
 20
7.7
 30
0.0
 40
0.13
  1
V1
  7
ARIAL
 72
1
 11
17.145
 21
7.7
 31
0.0
100
AcDbText
 73
2
  0
TEXT
  5
11C
330
17
100
AcDbEntity
  8
E-TXT
100
AcDbText
 10
19.794999999999998
 20
7.7
 30
0.0
 40
0.13
  1
V1
  7
ARIAL
 72
1
 11
19.794999999999998
 21
7.7
 31
0.0
100
AcDbText
 73
2
  0
TEXT
  5
11D
330
17
100
AcDbEntity
  8
E-TXT
100
AcDbText
 10
24.865000000000002
 20
7.7
 30
0.0
 40
0.13
  1
V1
  7
ARIAL
 72
1
 11
24.865000000000002
 21
7.7
 31
0.0
100
AcDbText
 73
2
  0
LWPOLYLINE
  5
11E
330
17
100
AcDbEntity
  8
E-CERCHA
100
AcDbPolyline
 90
4
 70
1
 10
2.06
 20
0.22499999999999998
 10
2.06
 20
0.375
 10
25.18
 20
0.375
 10
25.18
 20
0.22499999999999998
  0
LWPOLYLINE
  5
11F
330
17
100
AcDbEntity
  8
E-CERCHA
100
AcDbPolyline
 90
4
 70
1
 10
2.06
 20
1.3350000000000002
 10
2.06
 20
1.485
 10
25.18
 20
1.485
 10
25.18
 20
1.3350000000000002
  0
LWPOLYLINE
  5
120
330
17
100
AcDbEntity
  8
E-CERCHA
100
AcDbPolyline
 90
4
 70
1
 10
2.06
 20
4.765
 10
2.06
 20
4.915
 10
25.18
 20
4.915
 10
25.18
 20
4.765
  0
LWPOLYLINE
  5
121
330
17
100
AcDbEntity
  8
E-CERCHA
100
AcDbPolyline
 90
4
 70
1
 10
2.06
 20
8.625
 10
2.06
 20
8.774999999999999
 10
25.18
 20
8.774999999999999
 10
25.18
 20
8.625
  0
TEXT
  5
122
330
17
100
AcDbEntity
  8
E-TXT
100
AcDbText
 10
5.0
 20
0.62
 30
0.0
 40
0.13
  1
CE-1
  7
ARIAL
 72
1
 11
5.0
 21
0.62
 31
0.0
100
AcDbText
 73
2
  0
TEXT
  5
123
330
17
100
AcDbEntity
  8
E-TXT
100
AcDbText
 10
21.9
 20
0.62
 30
0.0
 40
0.13
  1
CE-1
  7
ARIAL
 72
1
 11
21.9
 21
0.62
 31
0.0
100
AcDbText
 73
2
  0
TEXT
  5
124
330
17
100
AcDbEntity
  8
E-TXT
100
AcDbText
 10
5.0
 20
1.7300000000000002
 30
0.0
 40
0.13
  1
CE-1
  7
ARIAL
 72
1
 11
5.0
 21
1.7300000000000002
 31
0.0
100
AcDbText
 73
2
  0
TEXT
  5
125
330
17
100
AcDbEntity
  8
E-TXT
100
AcDbText
 10
21.9
 20
1.7300000000000002
 30
0.0
 40
0.13
  1
CE-1
  7
ARIAL
 72
1
 11
21.9
 21
1.7300000000000002
 31
0.0
100
AcDbText
 73
2
  0
TEXT
  5
126
330
17
100
AcDbEntity
  8
E-TXT
100
AcDbText
 10
5.0
 20
5.16
 30
0.0
 40
0.13
  1
CE-1
  7
ARIAL
 72
1
 11
5.0
 21
5.16
 31
0.0
100
AcDbText
 73
2
  0
TEXT
  5
127
330
17
100
AcDbEntity
  8
E-TXT
100
AcDbText
 10
21.9
 20
5.16
 30
0.0
 40
0.13
  1
CE-1
  7
ARIAL
 72
1
 11
21.9
 21
5.16
 31
0.0
100
AcDbText
 73
2
  0
TEXT
  5
128
330
17
100
AcDbEntity
  8
E-TXT
100
AcDbText
 10
5.0
 20
8.379999999999999
 30
0.0
 40
0.13
  1
CE-1
  7
ARIAL
 72
1
 11
5.0
 21
8.379999999999999
 31
0.0
100
AcDbText
 73
2
  0
TEXT
  5
129
330
17
100
AcDbEntity
  8
E-TXT
100
AcDbText
 10
21.9
 20
8.379999999999999
 30
0.0
 40
0.13
  1
CE-1
  7
ARIAL
 72
1
 11
21.9
 21
8.379999999999999
 31
0.0
100
AcDbText
 73
2
  0
LINE
  5
12A
330
17
100
AcDbEntity
  8
E-CLAVADOR
100
AcDbLine
 10
2.11
 20
0.15
 30
0.0
 11
2.11
 21
8.85
 31
0.0
  0
LINE
  5
12B
330
17
100
AcDbEntity
  8
E-CLAVADOR
100
AcDbLine
 10
2.9876923076923076
 20
0.15
 30
0.0
 11
2.9876923076923076
 21
8.85
 31
0.0
  0
LINE
  5
12C
330
17
100
AcDbEntity
  8
E-CLAVADOR
100
AcDbLine
 10
3.865384615384615
 20
0.15
 30
0.0
 11
3.865384615384615
 21
8.85
 31
0.0
  0
LINE
  5
12D
330
17
100
AcDbEntity
  8
E-CLAVADOR
100
AcDbLine
 10
4.743076923076924
 20
0.15
 30
0.0
 11
4.743076923076924
 21
8.85
 31
0.0
  0
LINE
  5
12E
330
17
100
AcDbEntity
  8
E-CLAVADOR
100
AcDbLine
 10
5.6207692307692305
 20
0.15
 30
0.0
 11
5.6207692307692305
 21
8.85
 31
0.0
  0
LINE
  5
12F
330
17
100
AcDbEntity
  8
E-CLAVADOR
100
AcDbLine
 10
6.498461538461537
 20
0.15
 30
0.0
 11
6.498461538461537
 21
8.85
 31
0.0
  0
LINE
  5
130
330
17
100
AcDbEntity
  8
E-CLAVADOR
100
AcDbLine
 10
7.376153846153846
 20
0.15
 30
0.0
 11
7.376153846153846
 21
8.85
 31
0.0
  0
LINE
  5
131
330
17
100
AcDbEntity
  8
E-CLAVADOR
100
AcDbLine
 10
8.253846153846155
 20
0.15
 30
0.0
 11
8.253846153846155
 21
1.47
 31
0.0
  0
LINE
  5
132
330
17
100
AcDbEntity
  8
E-CLAVADOR
100
AcDbLine
 10
9.131538461538462
 20
0.15
 30
0.0
 11
9.131538461538462
 21
1.47
 31
0.0
  0
LINE
  5
133
330
17
100
AcDbEntity
  8
E-CLAVADOR
100
AcDbLine
 10
10.009230769230768
 20
0.15
 30
0.0
 11
10.009230769230768
 21
1.47
 31
0.0
  0
LINE
  5
134
330
17
100
AcDbEntity
  8
E-CLAVADOR
100
AcDbLine
 10
10.886923076923075
 20
0.15
 30
0.0
 11
10.886923076923075
 21
8.85
 31
0.0
  0
LINE
  5
135
330
17
100
AcDbEntity
  8
E-CLAVADOR
100
AcDbLine
 10
11.764615384615384
 20
0.15
 30
0.0
 11
11.764615384615384
 21
8.85
 31
0.0
  0
LINE
  5
136
330
17
100
AcDbEntity
  8
E-CLAVADOR
100
AcDbLine
 10
12.642307692307693
 20
0.15
 30
0.0
 11
12.642307692307693
 21
8.85
 31
0.0
  0
LINE
  5
137
330
17
100
AcDbEntity
  8
E-CLAVADOR
100
AcDbLine
 10
13.52
 20
0.15
 30
0.0
 11
13.52
 21
8.85
 31
0.0
  0
LINE
  5
138
330
17
100
AcDbEntity
  8
E-CLAVADOR
100
AcDbLine
 10
13.719999999999999
 20
0.15
 30
0.0
 11
13.719999999999999
 21
8.85
 31
0.0
  0
LINE
  5
139
330
17
100
AcDbEntity
  8
E-CLAVADOR
100
AcDbLine
 10
14.597692307692306
 20
0.15
 30
0.0
 11
14.597692307692306
 21
8.85
 31
0.0
  0
LINE
  5
13A
330
17
100
AcDbEntity
  8
E-CLAVADOR
100
AcDbLine
 10
15.475384615384614
 20
0.15
 30
0.0
 11
15.475384615384614
 21
8.85
 31
0.0
  0
LINE
  5
13B
330
17
100
AcDbEntity
  8
E-CLAVADOR
100
AcDbLine
 10
16.353076923076923
 20
0.15
 30
0.0
 11
16.353076923076923
 21
8.85
 31
0.0
  0
LINE
  5
13C
330
17
100
AcDbEntity
  8
E-CLAVADOR
100
AcDbLine
 10
17.23076923076923
 20
0.15
 30
0.0
 11
17.23076923076923
 21
4.81
 31
0.0
  0
LINE
  5
13D
330
17
100
AcDbEntity
  8
E-CLAVADOR
100
AcDbLine
 10
18.108461538461537
 20
0.15
 30
0.0
 11
18.108461538461537
 21
4.81
 31
0.0
  0
LINE
  5
13E
330
17
100
AcDbEntity
  8
E-CLAVADOR
100
AcDbLine
 10
18.986153846153847
 20
0.15
 30
0.0
 11
18.986153846153847
 21
4.81
 31
0.0
  0
LINE
  5
13F
330
17
100
AcDbEntity
  8
E-CLAVADOR
100
AcDbLine
 10
19.863846153846154
 20
0.15
 30
0.0
 11
19.863846153846154
 21
8.85
 31
0.0
  0
LINE
  5
140
330
17
100
AcDbEntity
  8
E-CLAVADOR
100
AcDbLine
 10
20.74153846153846
 20
0.15
 30
0.0
 11
20.74153846153846
 21
8.85
 31
0.0
  0
LINE
  5
141
330
17
100
AcDbEntity
  8
E-CLAVADOR
100
AcDbLine
 10
21.619230769230768
 20
0.15
 30
0.0
 11
21.619230769230768
 21
8.85
 31
0.0
  0
LINE
  5
142
330
17
100
AcDbEntity
  8
E-CLAVADOR
100
AcDbLine
 10
22.496923076923075
 20
0.15
 30
0.0
 11
22.496923076923075
 21
8.85
 31
0.0
  0
LINE
  5
143
330
17
100
AcDbEntity
  8
E-CLAVADOR
100
AcDbLine
 10
23.37461538461538
 20
0.15
 30
0.0
 11
23.37461538461538
 21
8.85
 31
0.0
  0
LINE
  5
144
330
17
100
AcDbEntity
  8
E-CLAVADOR
100
AcDbLine
 10
24.252307692307692
 20
0.15
 30
0.0
 11
24.252307692307692
 21
8.85
 31
0.0
  0
LINE
  5
145
330
17
100
AcDbEntity
  8
E-CLAVADOR
100
AcDbLine
 10
25.13
 20
0.15
 30
0.0
 11
25.13
 21
8.85
 31
0.0
  0
LINE
  5
146
330
17
100
AcDbEntity
  8
E-TXT
100
AcDbLine
 10
13.02
 20
3.1
 30
0.0
 11
11.42
 21
3.1
 31
0.0
  0
LWPOLYLINE
  5
147
330
17
100
AcDbEntity
  8
E-TXT
100
AcDbPolyline
 90
3
 70
1
 10
11.42
 20
3.1
 10
11.7
 20
3.02
 10
11.7
 20
3.18
  0
TEXT
  5
148
330
17
100
AcDbEntity
  8
E-TXT
100
AcDbText
 10
12.219999999999999
 20
2.88
 30
0.0
 40
0.11
  1
PENDIENTE 13 %
  7
ARIAL
 72
1
 11
12.219999999999999
 21
2.88
 31
0.0
100
AcDbText
 73
2
  0
LINE
  5
149
330
17
100
AcDbEntity
  8
E-TXT
100
AcDbLine
 10
14.219999999999999
 20
3.1
 30
0.0
 11
15.819999999999999
 21
3.1
 31
0.0
  0
LWPOLYLINE
  5
14A
330
17
100
AcDbEntity
  8
E-TXT
100
AcDbPolyline
 90
3
 70
1
 10
15.819999999999999
 20
3.1
 10
15.54
 20
3.02
 10
15.54
 20
3.18
  0
TEXT
  5
14B
330
17
100
AcDbEntity
  8
E-TXT
100
AcDbText
 10
15.02
 20
2.88
 30
0.0
 40
0.11
  1
PENDIENTE 13 %
  7
ARIAL
 72
1
 11
15.02
 21
2.88
 31
0.0
100
AcDbText
 73
2
  0
LINE
  5
14C
330
17
100
AcDbEntity
  8
E-TXT
100
AcDbLine
 10
13.02
 20
6.7
 30
0.0
 11
11.42
 21
6.7
 31
0.0
  0
LWPOLYLINE
  5
14D
330
17
100
AcDbEntity
  8
E-TXT
100
AcDbPolyline
 90
3
 70
1
 10
11.42
 20
6.7
 10
11.7
 20
6.62
 10
11.7
 20
6.78
  0
TEXT
  5
14E
330
17
100
AcDbEntity
  8
E-TXT
100
AcDbText
 10
12.219999999999999
 20
6.48
 30
0.0
 40
0.11
  1
PENDIENTE 13 %
  7
ARIAL
 72
1
 11
12.219999999999999
 21
6.48
 31
0.0
100
AcDbText
 73
2
  0
LINE
  5
14F
330
17
100
AcDbEntity
  8
E-TXT
100
AcDbLine
 10
14.219999999999999
 20
6.7
 30
0.0
 11
15.819999999999999
 21
6.7
 31
0.0
  0
LWPOLYLINE
  5
150
330
17
100
AcDbEntity
  8
E-TXT
100
AcDbPolyline
 90
3
 70
1
 10
15.819999999999999
 20
6.7
 10
15.54
 20
6.62
 10
15.54
 20
6.78
  0
TEXT
  5
151
330
17
100
AcDbEntity
  8
E-TXT
100
AcDbText
 10
15.02
 20
6.48
 30
0.0
 40
0.11
  1
PENDIENTE 13 %
  7
ARIAL
 72
1
 11
15.02
 21
6.48
 31
0.0
100
AcDbText
 73
2
  0
LWPOLYLINE
  5
152
330
17
100
AcDbEntity
  8
E-PLUVIAL
100
AcDbPolyline
 90
4
 70
1
 10
1.86
 20
0.0
 10
1.86
 20
9.0
 10
2.06
 20
9.0
 10
2.06
 20
0.0
  0
LWPOLYLINE
  5
153
330
17
100
AcDbEntity
  8
E-PLUVIAL
100
AcDbPolyline
 90
4
 70
1
 10
25.18
 20
0.0
 10
25.18
 20
9.0
 10
25.38
 20
9.0
 10
25.38
 20
0.0
  0
LWPOLYLINE
  5
154
330
17
100
AcDbEntity
  8
E-PLUVIAL
100
AcDbPolyline
 90
4
 70
1
 10
10.06
 20
1.47
 10
10.06
 20
8.85
 10
10.26
 20
8.85
 10
10.26
 20
1.47
  0
LWPOLYLINE
  5
155
330
17
100
AcDbEntity
  8
E-PLUVIAL
100
AcDbPolyline
 90
4
 70
1
 10
16.98
 20
4.81
 10
16.98
 20
8.85
 10
17.18
 20
8.85
 10
17.18
 20
4.81
  0
CIRCLE
  5
156
330
17
100
AcDbEntity
  8
E-PLUVIAL
100
AcDbCircle
 10
1.96
 20
0.24
 30
0.0
 40
0.06
  0
CIRCLE
  5
157
330
17
100
AcDbEntity
  8
E-PLUVIAL
100
AcDbCircle
 10
1.96
 20
8.76
 30
0.0
 40
0.06
  0
CIRCLE
  5
158
330
17
100
AcDbEntity
  8
E-PLUVIAL
100
AcDbCircle
 10
25.28
 20
0.24
 30
0.0
 40
0.06
  0
CIRCLE
  5
159
330
17
100
AcDbEntity
  8
E-PLUVIAL
100
AcDbCircle
 10
25.28
 20
8.76
 30
0.0
 40
0.06
  0
TEXT
  5
15A
330
17
100
AcDbEntity
  8
E-TXT
100
AcDbText
 10
1.51
 20
4.5
 30
0.0
 40
0.12
  1
CANOA Y BAJANTES (VER LÁMINA PLUVIAL)
 50
90.0
  7
ARIAL
 72
1
 11
1.51
 21
4.5
 31
0.0
100
AcDbText
 73
2
  0
TEXT
  5
15B
330
17
100
AcDbEntity
  8
E-TXT
100
AcDbText
 10
25.73
 20
4.5
 30
0.0
 40
0.12
  1
CANOA Y BAJANTES (VER LÁMINA PLUVIAL)
 50
90.0
  7
ARIAL
 72
1
 11
25.73
 21
4.5
 31
0.0
100
AcDbText
 73
2
  0
TEXT
  5
15C
330
17
100
AcDbEntity
  8
E-TXT
100
AcDbText
 10
9.86
 20
6.6
 30
0.0
 40
0.11
  1
CANOA HACIA P1
 50
90.0
  7
ARIAL
 72
1
 11
9.86
 21
6.6
 31
0.0
100
AcDbText
 73
2
  0
TEXT
  5
15D
330
17
100
AcDbEntity
  8
E-TXT
100
AcDbText
 10
17.38
 20
6.65
 30
0.0
 40
0.11
  1
CANOA HACIA P2
 50
90.0
  7
ARIAL
 72
1
 11
17.38
 21
6.65
 31
0.0
100
AcDbText
 73
2
  0
MTEXT
  5
15E
330
17
100
AcDbEntity
  8
E-TXT
100
AcDbMText
 10
4.0
 20
2.6
 30
0.0
 40
0.12
 41
3.6
 71
5
  1
CLAVADORES RT 2x4" EN 1,50 mm\P@0,90 m MÁX.
  7
ARIAL
  0
MTEXT
  5
15F
330
17
100
AcDbEntity
  8
E-TXT
100
AcDbMText
 10
23.0
 20
2.6
 30
0.0
 40
0.12
 41
3.6
 71
5
  1
CLAVADORES RT 2x4" EN 1,50 mm\P@0,90 m MÁX.
  7
ARIAL
  0
LINE
  5
160
330
17
100
AcDbEntity
  8
A-EJES
 48
0.05
100
AcDbLine
 10
-0.2
 20
0.075
 30
0.0
 11
29.85
 21
0.075
 31
0.0
  0
CIRCLE
  5
161
330
17
100
AcDbEntity
  8
A-EJES-TXT
100
AcDbCircle
 10
30.130000000000003
 20
0.075
 30
0.0
 40
0.28
  0
TEXT
  5
162
330
17
100
AcDbEntity
  8
A-EJES-TXT
100
AcDbText
 10
30.130000000000003
 20
0.075
 30
0.0
 40
0.22
  1
A
  7
ARIAL
 72
1
 11
30.130000000000003
 21
0.075
 31
0.0
100
AcDbText
 73
2
  0
LINE
  5
163
330
17
100
AcDbEntity
  8
A-EJES
 48
0.05
100
AcDbLine
 10
-0.2
 20
1.4100000000000001
 30
0.0
 11
29.85
 21
1.4100000000000001
 31
0.0
  0
CIRCLE
  5
164
330
17
100
AcDbEntity
  8
A-EJES-TXT
100
AcDbCircle
 10
30.130000000000003
 20
1.4100000000000001
 30
0.0
 40
0.28
  0
TEXT
  5
165
330
17
100
AcDbEntity
  8
A-EJES-TXT
100
AcDbText
 10
30.130000000000003
 20
1.4100000000000001
 30
0.0
 40
0.22
  1
B
  7
ARIAL
 72
1
 11
30.130000000000003
 21
1.4100000000000001
 31
0.0
100
AcDbText
 73
2
  0
LINE
  5
166
330
17
100
AcDbEntity
  8
A-EJES
 48
0.05
100
AcDbLine
 10
-0.2
 20
4.84
 30
0.0
 11
29.85
 21
4.84
 31
0.0
  0
CIRCLE
  5
167
330
17
100
AcDbEntity
  8
A-EJES-TXT
100
AcDbCircle
 10
30.130000000000003
 20
4.84
 30
0.0
 40
0.28
  0
TEXT
  5
168
330
17
100
AcDbEntity
  8
A-EJES-TXT
100
AcDbText
 10
30.130000000000003
 20
4.84
 30
0.0
 40
0.22
  1
C
  7
ARIAL
 72
1
 11
30.130000000000003
 21
4.84
 31
0.0
100
AcDbText
 73
2
  0
LINE
  5
169
330
17
100
AcDbEntity
  8
A-EJES
 48
0.05
100
AcDbLine
 10
-0.2
 20
8.925
 30
0.0
 11
29.85
 21
8.925
 31
0.0
  0
CIRCLE
  5
16A
330
17
100
AcDbEntity
  8
A-EJES-TXT
100
AcDbCircle
 10
30.130000000000003
 20
8.925
 30
0.0
 40
0.28
  0
TEXT
  5
16B
330
17
100
AcDbEntity
  8
A-EJES-TXT
100
AcDbText
 10
30.130000000000003
 20
8.925
 30
0.0
 40
0.22
  1
D
  7
ARIAL
 72
1
 11
30.130000000000003
 21
8.925
 31
0.0
100
AcDbText
 73
2
  0
LINE
  5
16C
330
17
100
AcDbEntity
  8
A-EJES
 48
0.05
100
AcDbLine
 10
2.1350000000000002
 20
-2.35
 30
0.0
 11
2.1350000000000002
 21
10.2
 31
0.0
  0
CIRCLE
  5
16D
330
17
100
AcDbEntity
  8
A-EJES-TXT
100
AcDbCircle
 10
2.1350000000000002
 20
-2.63
 30
0.0
 40
0.28
  0
TEXT
  5
16E
330
17
100
AcDbEntity
  8
A-EJES-TXT
100
AcDbText
 10
2.1350000000000002
 20
-2.63
 30
0.0
 40
0.22
  1
1
  7
ARIAL
 72
1
 11
2.1350000000000002
 21
-2.63
 31
0.0
100
AcDbText
 73
2
  0
LINE
  5
16F
330
17
100
AcDbEntity
  8
A-EJES
 48
0.05
100
AcDbLine
 10
7.685
 20
-2.35
 30
0.0
 11
7.685
 21
10.2
 31
0.0
  0
CIRCLE
  5
170
330
17
100
AcDbEntity
  8
A-EJES-TXT
100
AcDbCircle
 10
7.685
 20
-2.63
 30
0.0
 40
0.28
  0
TEXT
  5
171
330
17
100
AcDbEntity
  8
A-EJES-TXT
100
AcDbText
 10
7.685
 20
-2.63
 30
0.0
 40
0.22
  1
2
  7
ARIAL
 72
1
 11
7.685
 21
-2.63
 31
0.0
100
AcDbText
 73
2
  0
LINE
  5
172
330
17
100
AcDbEntity
  8
A-EJES
 48
0.05
100
AcDbLine
 10
10.335
 20
-2.35
 30
0.0
 11
10.335
 21
10.2
 31
0.0
  0
CIRCLE
  5
173
330
17
100
AcDbEntity
  8
A-EJES-TXT
100
AcDbCircle
 10
10.335
 20
-2.63
 30
0.0
 40
0.28
  0
TEXT
  5
174
330
17
100
AcDbEntity
  8
A-EJES-TXT
100
AcDbText
 10
10.335
 20
-2.63
 30
0.0
 40
0.22
  1
3
  7
ARIAL
 72
1
 11
10.335
 21
-2.63
 31
0.0
100
AcDbText
 73
2
  0
LINE
  5
175
330
17
100
AcDbEntity
  8
A-EJES
 48
0.05
100
AcDbLine
 10
16.905
 20
-2.35
 30
0.0
 11
16.905
 21
10.2
 31
0.0
  0
CIRCLE
  5
176
330
17
100
AcDbEntity
  8
A-EJES-TXT
100
AcDbCircle
 10
16.905
 20
-2.63
 30
0.0
 40
0.28
  0
TEXT
  5
177
330
17
100
AcDbEntity
  8
A-EJES-TXT
100
AcDbText
 10
16.905
 20
-2.63
 30
0.0
 40
0.22
  1
4
  7
ARIAL
 72
1
 11
16.905
 21
-2.63
 31
0.0
100
AcDbText
 73
2
  0
LINE
  5
178
330
17
100
AcDbEntity
  8
A-EJES
 48
0.05
100
AcDbLine
 10
19.555
 20
-2.35
 30
0.0
 11
19.555
 21
10.2
 31
0.0
  0
CIRCLE
  5
179
330
17
100
AcDbEntity
  8
A-EJES-TXT
100
AcDbCircle
 10
19.555
 20
-2.63
 30
0.0
 40
0.28
  0
TEXT
  5
17A
330
17
100
AcDbEntity
  8
A-EJES-TXT
100
AcDbText
 10
19.555
 20
-2.63
 30
0.0
 40
0.22
  1
5
  7
ARIAL
 72
1
 11
19.555
 21
-2.63
 31
0.0
100
AcDbText
 73
2
  0
LINE
  5
17B
330
17
100
AcDbEntity
  8
A-EJES
 48
0.05
100
AcDbLine
 10
25.105
 20
-2.35
 30
0.0
 11
25.105
 21
10.2
 31
0.0
  0
CIRCLE
  5
17C
330
17
100
AcDbEntity
  8
A-EJES-TXT
100
AcDbCircle
 10
25.105
 20
-2.63
 30
0.0
 40
0.28
  0
TEXT
  5
17D
330
17
100
AcDbEntity
  8
A-EJES-TXT
100
AcDbText
 10
25.105
 20
-2.63
 30
0.0
 40
0.22
  1
6
  7
ARIAL
 72
1
 11
25.105
 21
-2.63
 31
0.0
100
AcDbText
 73
2
  0
DIMENSION
  5
17E
330
17
100
AcDbEntity
  8
A-COTA-50
100
AcDbDimension
280
0
  2
*D1
  3
COTA-50
 10
0.0
 20
-1.75
 30
0.0
 11
1.03
 21
-1.655
 31
0.0
 70
32
 71
5
  1
<>
100
AcDbAlignedDimension
 13
0.0
 23
0.0
 33
0.0
 14
2.06
 24
0.0
 34
0.0
 50
0.0
100
AcDbRotatedDimension
  0
DIMENSION
  5
191
330
17
100
AcDbEntity
  8
A-COTA-50
100
AcDbDimension
280
0
  2
*D2
  3
COTA-50
 10
2.06
 20
-1.75
 30
0.0
 11
13.620000000000001
 21
-1.655
 31
0.0
 70
32
 71
5
  1
<>
100
AcDbAlignedDimension
 13
2.06
 23
0.0
 33
0.0
 14
25.18
 24
0.0
 34
0.0
 50
0.0
100
AcDbRotatedDimension
  0
DIMENSION
  5
1A0
330
17
100
AcDbEntity
  8
A-COTA-50
100
AcDbDimension
280
0
  2
*D3
  3
COTA-50
 10
25.18
 20
-1.75
 30
0.0
 11
26.845989092297984
 21
-1.655
 31
0.0
 70
32
 71
5
  1
<>
100
AcDbAlignedDimension
 13
25.18
 23
0.0
 33
0.0
 14
28.511978184595964
 24
0.0
 34
0.0
 50
0.0
100
AcDbRotatedDimension
  0
DIMENSION
  5
1AF
330
17
100
AcDbEntity
  8
A-COTA-50
100
AcDbDimension
280
0
  2
*D4
  3
COTA-50
 10
2.1350000000000002
 20
-1.15
 30
0.0
 11
4.91
 21
-1.055
 31
0.0
 70
32
 71
5
  1
<>
100
AcDbAlignedDimension
 13
2.1350000000000002
 23
0.075
 33
0.0
 14
7.685
 24
0.075
 34
0.0
 50
0.0
100
AcDbRotatedDimension
  0
DIMENSION
  5
1BE
330
17
100
AcDbEntity
  8
A-COTA-50
100
AcDbDimension
280
0
  2
*D5
  3
COTA-50
 10
7.685
 20
-1.15
 30
0.0
 11
9.01
 21
-1.055
 31
0.0
 70
32
 71
5
  1
<>
100
AcDbAlignedDimension
 13
7.685
 23
0.075
 33
0.0
 14
10.335
 24
0.075
 34
0.0
 50
0.0
100
AcDbRotatedDimension
  0
DIMENSION
  5
1CD
330
17
100
AcDbEntity
  8
A-COTA-50
100
AcDbDimension
280
0
  2
*D6
  3
COTA-50
 10
10.335
 20
-1.15
 30
0.0
 11
13.620000000000001
 21
-1.055
 31
0.0
 70
32
 71
5
  1
<>
100
AcDbAlignedDimension
 13
10.335
 23
0.075
 33
0.0
 14
16.905
 24
0.075
 34
0.0
 50
0.0
100
AcDbRotatedDimension
  0
DIMENSION
  5
1DC
330
17
100
AcDbEntity
  8
A-COTA-50
100
AcDbDimension
280
0
  2
*D7
  3
COTA-50
 10
16.905
 20
-1.15
 30
0.0
 11
18.23
 21
-1.055
 31
0.0
 70
32
 71
5
  1
<>
100
AcDbAlignedDimension
 13
16.905
 23
0.075
 33
0.0
 14
19.555
 24
0.075
 34
0.0
 50
0.0
100
AcDbRotatedDimension
  0
DIMENSION
  5
1EB
330
17
100
AcDbEntity
  8
A-COTA-50
100
AcDbDimension
280
0
  2
*D8
  3
COTA-50
 10
19.555
 20
-1.15
 30
0.0
 11
22.33
 21
-1.055
 31
0.0
 70
32
 71
5
  1
<>
100
AcDbAlignedDimension
 13
19.555
 23
0.075
 33
0.0
 14
25.105
 24
0.075
 34
0.0
 50
0.0
100
AcDbRotatedDimension
  0
DIMENSION
  5
1FA
330
17
100
AcDbEntity
  8
A-COTA-50
100
AcDbDimension
280
0
  2
*D9
  3
COTA-50
 10
29.25
 20
0.075
 30
0.0
 11
29.155
 21
0.7425
 31
0.0
 70
32
 71
5
  1
<>
100
AcDbAlignedDimension
 13
25.18
 23
0.075
 33
0.0
 14
25.18
 24
1.4100000000000001
 34
0.0
 50
90.0
100
AcDbRotatedDimension
  0
DIMENSION
  5
209
330
17
100
AcDbEntity
  8
A-COTA-50
100
AcDbDimension
280
0
  2
*D10
  3
COTA-50
 10
29.25
 20
1.4100000000000001
 30
0.0
 11
29.155
 21
3.125
 31
0.0
 70
32
 71
5
  1
<>
100
AcDbAlignedDimension
 13
25.18
 23
1.4100000000000001
 33
0.0
 14
25.18
 24
4.84
 34
0.0
 50
90.0
100
AcDbRotatedDimension
  0
DIMENSION
  5
218
330
17
100
AcDbEntity
  8
A-COTA-50
100
AcDbDimension
280
0
  2
*D11
  3
COTA-50
 10
29.25
 20
4.84
 30
0.0
 11
29.155
 21
6.8825
 31
0.0
 70
32
 71
5
  1
<>
100
AcDbAlignedDimension
 13
25.18
 23
4.84
 33
0.0
 14
25.18
 24
8.925
 34
0.0
 50
90.0
100
AcDbRotatedDimension
  0
DIMENSION
  5
227
330
17
100
AcDbEntity
  8
A-COTA-50
100
AcDbDimension
280
0
  2
*D12
  3
COTA-50
 10
2.06
 20
10.65
 30
0.0
 11
13.620000000000001
 21
10.745000000000001
 31
0.0
 70
32
 71
5
  1
<>
100
AcDbAlignedDimension
 13
2.06
 23
9.0
 33
0.0
 14
25.18
 24
9.0
 34
0.0
 50
0.0
100
AcDbRotatedDimension
  0
DIMENSION
  5
236
330
17
100
AcDbEntity
  8
A-COTA-50
100
AcDbDimension
280
0
  2
*D13
  3
COTA-50
 10
-1.35
 20
0.0
 30
0.0
 11
-1.445
 21
4.5
 31
0.0
 70
32
 71
5
  1
<>
100
AcDbAlignedDimension
 13
2.06
 23
0.0
 33
0.0
 14
2.06
 24
9.0
 34
0.0
 50
90.0
100
AcDbRotatedDimension
  0
TEXT
  5
245
330
17
100
AcDbEntity
  8
A-ESPACIOS
100
AcDbText
 10
-2.15
 20
4.5
 30
0.0
 40
0.22
  1
CALLE PÚBLICA
 50
90.0
  7
ARIAL
 72
1
 11
-2.15
 21
4.5
 31
0.0
100
AcDbText
 73
2
  0
MTEXT
  5
246
330
17
100
AcDbEntity
  8
A-TXT-50
100
AcDbMText
 10
14.0
 20
-0.35
 30
0.0
 40
0.1
 41
6.0
 71
5
  1
COLINDANCIA
  7
ARIAL
  0
MTEXT
  5
247
330
17
100
AcDbEntity
  8
A-TXT-50
100
AcDbMText
 10
14.0
 20
9.35
 30
0.0
 40
0.1
 41
6.0
 71
5
  1
COLINDANCIA
  7
ARIAL
  0
LWPOLYLINE
  5
248
330
17
100
AcDbEntity
  8
E-DET
100
AcDbPolyline
 90
4
 70
1
 10
102.06
 20
9.0
 10
125.18
 20
9.0
 10
125.18
 20
9.05
 10
102.06
 20
9.05
  0
LWPOLYLINE
  5
249
330
17
100
AcDbEntity
  8
E-DET
100
AcDbPolyline
 90
3
 70
0
 10
102.06
 20
9.1
 10
113.62
 20
10.6028
 10
125.18
 20
9.1
  0
LWPOLYLINE
  5
24A
330
17
100
AcDbEntity
  8
E-DET
100
AcDbPolyline
 90
3
 70
0
 10
102.06
 20
9.049999999999999
 10
113.62
 20
10.5528
 10
125.18
 20
9.049999999999999
  0
LINE
  5
24B
330
17
100
AcDbEntity
  8
E-DET
100
AcDbLine
 10
102.06
 20
9.0
 30
0.0
 11
102.06
 21
9.1
 31
0.0
  0
LINE
  5
24C
330
17
100
AcDbEntity
  8
E-DET
100
AcDbLine
 10
125.18
 20
9.0
 30
0.0
 11
125.18
 21
9.1
 31
0.0
  0
LINE
  5
24D
330
17
100
AcDbEntity
  8
E-REF
100
AcDbLine
 10
103.98666666666666
 20
9.05
 30
0.0
 11
103.98666666666666
 21
9.300466666666665
 31
0.0
  0
LINE
  5
24E
330
17
100
AcDbEntity
  8
E-REF
100
AcDbLine
 10
104.95
 20
9.05
 30
0.0
 11
104.95
 21
9.425699999999999
 31
0.0
  0
LINE
  5
24F
330
17
100
AcDbEntity
  8
E-REF
100
AcDbLine
 10
105.91333333333333
 20
9.05
 30
0.0
 11
105.91333333333333
 21
9.550933333333333
 31
0.0
  0
LINE
  5
250
330
17
100
AcDbEntity
  8
E-REF
100
AcDbLine
 10
106.87666666666667
 20
9.05
 30
0.0
 11
106.87666666666667
 21
9.676166666666665
 31
0.0
  0
LINE
  5
251
330
17
100
AcDbEntity
  8
E-REF
100
AcDbLine
 10
107.84
 20
9.05
 30
0.0
 11
107.84
 21
9.8014
 31
0.0
  0
LINE
  5
252
330
17
100
AcDbEntity
  8
E-REF
100
AcDbLine
 10
108.80333333333333
 20
9.05
 30
0.0
 11
108.80333333333333
 21
9.926633333333331
 31
0.0
  0
LINE
  5
253
330
17
100
AcDbEntity
  8
E-REF
100
AcDbLine
 10
109.76666666666667
 20
9.05
 30
0.0
 11
109.76666666666667
 21
10.051866666666665
 31
0.0
  0
LINE
  5
254
330
17
100
AcDbEntity
  8
E-REF
100
AcDbLine
 10
110.73
 20
9.05
 30
0.0
 11
110.73
 21
10.1771
 31
0.0
  0
LINE
  5
255
330
17
100
AcDbEntity
  8
E-REF
100
AcDbLine
 10
111.69333333333333
 20
9.05
 30
0.0
 11
111.69333333333333
 21
10.302333333333332
 31
0.0
  0
LINE
  5
256
330
17
100
AcDbEntity
  8
E-REF
100
AcDbLine
 10
112.65666666666667
 20
9.05
 30
0.0
 11
112.65666666666667
 21
10.427566666666666
 31
0.0
  0
LINE
  5
257
330
17
100
AcDbEntity
  8
E-REF
100
AcDbLine
 10
113.62
 20
9.05
 30
0.0
 11
113.62
 21
10.552799999999998
 31
0.0
  0
LINE
  5
258
330
17
100
AcDbEntity
  8
E-REF
100
AcDbLine
 10
114.58333333333333
 20
9.05
 30
0.0
 11
114.58333333333333
 21
10.427566666666666
 31
0.0
  0
LINE
  5
259
330
17
100
AcDbEntity
  8
E-REF
100
AcDbLine
 10
115.54666666666667
 20
9.05
 30
0.0
 11
115.54666666666667
 21
10.302333333333332
 31
0.0
  0
LINE
  5
25A
330
17
100
AcDbEntity
  8
E-REF
100
AcDbLine
 10
116.50999999999999
 20
9.05
 30
0.0
 11
116.50999999999999
 21
10.1771
 31
0.0
  0
LINE
  5
25B
330
17
100
AcDbEntity
  8
E-REF
100
AcDbLine
 10
117.47333333333333
 20
9.05
 30
0.0
 11
117.47333333333333
 21
10.051866666666665
 31
0.0
  0
LINE
  5
25C
330
17
100
AcDbEntity
  8
E-REF
100
AcDbLine
 10
118.43666666666667
 20
9.05
 30
0.0
 11
118.43666666666667
 21
9.926633333333331
 31
0.0
  0
LINE
  5
25D
330
17
100
AcDbEntity
  8
E-REF
100
AcDbLine
 10
119.4
 20
9.05
 30
0.0
 11
119.4
 21
9.8014
 31
0.0
  0
LINE
  5
25E
330
17
100
AcDbEntity
  8
E-REF
100
AcDbLine
 10
120.36333333333333
 20
9.05
 30
0.0
 11
120.36333333333333
 21
9.676166666666665
 31
0.0
  0
LINE
  5
25F
330
17
100
AcDbEntity
  8
E-REF
100
AcDbLine
 10
121.32666666666667
 20
9.05
 30
0.0
 11
121.32666666666667
 21
9.550933333333331
 31
0.0
  0
LINE
  5
260
330
17
100
AcDbEntity
  8
E-REF
100
AcDbLine
 10
122.28999999999999
 20
9.05
 30
0.0
 11
122.28999999999999
 21
9.425699999999999
 31
0.0
  0
LINE
  5
261
330
17
100
AcDbEntity
  8
E-REF
100
AcDbLine
 10
123.25333333333333
 20
9.05
 30
0.0
 11
123.25333333333333
 21
9.300466666666665
 31
0.0
  0
LINE
  5
262
330
17
100
AcDbEntity
  8
E-REF
100
AcDbLine
 10
103.98666666666666
 20
9.05
 30
0.0
 11
104.95
 21
9.425699999999999
 31
0.0
  0
LINE
  5
263
330
17
100
AcDbEntity
  8
E-REF
100
AcDbLine
 10
104.95
 20
9.05
 30
0.0
 11
105.91333333333333
 21
9.550933333333333
 31
0.0
  0
LINE
  5
264
330
17
100
AcDbEntity
  8
E-REF
100
AcDbLine
 10
105.91333333333333
 20
9.05
 30
0.0
 11
106.87666666666667
 21
9.676166666666665
 31
0.0
  0
LINE
  5
265
330
17
100
AcDbEntity
  8
E-REF
100
AcDbLine
 10
106.87666666666667
 20
9.05
 30
0.0
 11
107.84
 21
9.8014
 31
0.0
  0
LINE
  5
266
330
17
100
AcDbEntity
  8
E-REF
100
AcDbLine
 10
107.84
 20
9.05
 30
0.0
 11
108.80333333333333
 21
9.926633333333331
 31
0.0
  0
LINE
  5
267
330
17
100
AcDbEntity
  8
E-REF
100
AcDbLine
 10
108.80333333333333
 20
9.05
 30
0.0
 11
109.76666666666667
 21
10.051866666666665
 31
0.0
  0
LINE
  5
268
330
17
100
AcDbEntity
  8
E-REF
100
AcDbLine
 10
109.76666666666667
 20
9.05
 30
0.0
 11
110.73
 21
10.1771
 31
0.0
  0
LINE
  5
269
330
17
100
AcDbEntity
  8
E-REF
100
AcDbLine
 10
110.73
 20
9.05
 30
0.0
 11
111.69333333333333
 21
10.302333333333332
 31
0.0
  0
LINE
  5
26A
330
17
100
AcDbEntity
  8
E-REF
100
AcDbLine
 10
111.69333333333333
 20
9.05
 30
0.0
 11
112.65666666666667
 21
10.427566666666666
 31
0.0
  0
LINE
  5
26B
330
17
100
AcDbEntity
  8
E-REF
100
AcDbLine
 10
112.65666666666667
 20
9.05
 30
0.0
 11
113.62
 21
10.552799999999998
 31
0.0
  0
LINE
  5
26C
330
17
100
AcDbEntity
  8
E-REF
100
AcDbLine
 10
113.62
 20
10.552799999999998
 30
0.0
 11
114.58333333333333
 21
9.05
 31
0.0
  0
LINE
  5
26D
330
17
100
AcDbEntity
  8
E-REF
100
AcDbLine
 10
114.58333333333333
 20
10.427566666666666
 30
0.0
 11
115.54666666666667
 21
9.05
 31
0.0
  0
LINE
  5
26E
330
17
100
AcDbEntity
  8
E-REF
100
AcDbLine
 10
115.54666666666667
 20
10.302333333333332
 30
0.0
 11
116.50999999999999
 21
9.05
 31
0.0
  0
LINE
  5
26F
330
17
100
AcDbEntity
  8
E-REF
100
AcDbLine
 10
116.50999999999999
 20
10.1771
 30
0.0
 11
117.47333333333333
 21
9.05
 31
0.0
  0
LINE
  5
270
330
17
100
AcDbEntity
  8
E-REF
100
AcDbLine
 10
117.47333333333333
 20
10.051866666666665
 30
0.0
 11
118.43666666666667
 21
9.05
 31
0.0
  0
LINE
  5
271
330
17
100
AcDbEntity
  8
E-REF
100
AcDbLine
 10
118.43666666666667
 20
9.926633333333331
 30
0.0
 11
119.4
 21
9.05
 31
0.0
  0
LINE
  5
272
330
17
100
AcDbEntity
  8
E-REF
100
AcDbLine
 10
119.4
 20
9.8014
 30
0.0
 11
120.36333333333333
 21
9.05
 31
0.0
  0
LINE
  5
273
330
17
100
AcDbEntity
  8
E-REF
100
AcDbLine
 10
120.36333333333333
 20
9.676166666666665
 30
0.0
 11
121.32666666666667
 21
9.05
 31
0.0
  0
LINE
  5
274
330
17
100
AcDbEntity
  8
E-REF
100
AcDbLine
 10
121.32666666666667
 20
9.550933333333331
 30
0.0
 11
122.28999999999999
 21
9.05
 31
0.0
  0
LINE
  5
275
330
17
100
AcDbEntity
  8
E-REF
100
AcDbLine
 10
122.28999999999999
 20
9.425699999999999
 30
0.0
 11
123.25333333333333
 21
9.05
 31
0.0
  0
LWPOLYLINE
  5
276
330
17
100
AcDbEntity
  8
E-REF
100
AcDbPolyline
 90
4
 70
1
 10
102.085
 20
9.1065
 10
102.135
 20
9.1065
 10
102.135
 20
9.2065
 10
102.085
 20
9.2065
  0
LWPOLYLINE
  5
277
330
17
100
AcDbEntity
  8
E-REF
100
AcDbPolyline
 90
4
 70
1
 10
102.96269230769231
 20
9.2206
 10
103.0126923076923
 20
9.2206
 10
103.0126923076923
 20
9.320599999999999
 10
102.96269230769231
 20
9.320599999999999
  0
LWPOLYLINE
  5
278
330
17
100
AcDbEntity
  8
E-REF
100
AcDbPolyline
 90
4
 70
1
 10
103.84038461538462
 20
9.3347
 10
103.89038461538462
 20
9.3347
 10
103.89038461538462
 20
9.4347
 10
103.84038461538462
 20
9.4347
  0
LWPOLYLINE
  5
279
330
17
100
AcDbEntity
  8
E-REF
100
AcDbPolyline
 90
4
 70
1
 10
104.71807692307692
 20
9.4488
 10
104.76807692307692
 20
9.4488
 10
104.76807692307692
 20
9.5488
 10
104.71807692307692
 20
9.5488
  0
LWPOLYLINE
  5
27A
330
17
100
AcDbEntity
  8
E-REF
100
AcDbPolyline
 90
4
 70
1
 10
105.59576923076924
 20
9.562899999999999
 10
105.64576923076923
 20
9.562899999999999
 10
105.64576923076923
 20
9.662899999999999
 10
105.59576923076924
 20
9.662899999999999
  0
LWPOLYLINE
  5
27B
330
17
100
AcDbEntity
  8
E-REF
100
AcDbPolyline
 90
4
 70
1
 10
106.47346153846154
 20
9.677
 10
106.52346153846153
 20
9.677
 10
106.52346153846153
 20
9.777
 10
106.47346153846154
 20
9.777
  0
LWPOLYLINE
  5
27C
330
17
100
AcDbEntity
  8
E-REF
100
AcDbPolyline
 90
4
 70
1
 10
107.35115384615385
 20
9.7911
 10
107.40115384615385
 20
9.7911
 10
107.40115384615385
 20
9.8911
 10
107.35115384615385
 20
9.8911
  0
LWPOLYLINE
  5
27D
330
17
100
AcDbEntity
  8
E-REF
100
AcDbPolyline
 90
4
 70
1
 10
108.22884615384615
 20
9.905199999999999
 10
108.27884615384616
 20
9.905199999999999
 10
108.27884615384616
 20
10.005199999999999
 10
108.22884615384615
 20
10.005199999999999
  0
LWPOLYLINE
  5
27E
330
17
100
AcDbEntity
  8
E-REF
100
AcDbPolyline
 90
4
 70
1
 10
109.10653846153846
 20
10.0193
 10
109.15653846153846
 20
10.0193
 10
109.15653846153846
 20
10.119299999999999
 10
109.10653846153846
 20
10.119299999999999
  0
LWPOLYLINE
  5
27F
330
17
100
AcDbEntity
  8
E-REF
100
AcDbPolyline
 90
4
 70
1
 10
109.98423076923076
 20
10.1334
 10
110.03423076923077
 20
10.1334
 10
110.03423076923077
 20
10.2334
 10
109.98423076923076
 20
10.2334
  0
LWPOLYLINE
  5
280
330
17
100
AcDbEntity
  8
E-REF
100
AcDbPolyline
 90
4
 70
1
 10
110.86192307692308
 20
10.247499999999999
 10
110.91192307692307
 20
10.247499999999999
 10
110.91192307692307
 20
10.347499999999998
 10
110.86192307692308
 20
10.347499999999998
  0
LWPOLYLINE
  5
281
330
17
100
AcDbEntity
  8
E-REF
100
AcDbPolyline
 90
4
 70
1
 10
111.73961538461538
 20
10.3616
 10
111.78961538461539
 20
10.3616
 10
111.78961538461539
 20
10.461599999999999
 10
111.73961538461538
 20
10.461599999999999
  0
LWPOLYLINE
  5
282
330
17
100
AcDbEntity
  8
E-REF
100
AcDbPolyline
 90
4
 70
1
 10
112.61730769230769
 20
10.4757
 10
112.66730769230769
 20
10.4757
 10
112.66730769230769
 20
10.5757
 10
112.61730769230769
 20
10.5757
  0
LWPOLYLINE
  5
283
330
17
100
AcDbEntity
  8
E-REF
100
AcDbPolyline
 90
4
 70
1
 10
113.495
 20
10.5898
 10
113.545
 20
10.5898
 10
113.545
 20
10.6898
 10
113.495
 20
10.6898
  0
LWPOLYLINE
  5
284
330
17
100
AcDbEntity
  8
E-REF
100
AcDbPolyline
 90
4
 70
1
 10
113.695
 20
10.5898
 10
113.745
 20
10.5898
 10
113.745
 20
10.6898
 10
113.695
 20
10.6898
  0
LWPOLYLINE
  5
285
330
17
100
AcDbEntity
  8
E-REF
100
AcDbPolyline
 90
4
 70
1
 10
114.57269230769231
 20
10.4757
 10
114.6226923076923
 20
10.4757
 10
114.6226923076923
 20
10.5757
 10
114.57269230769231
 20
10.5757
  0
LWPOLYLINE
  5
286
330
17
100
AcDbEntity
  8
E-REF
100
AcDbPolyline
 90
4
 70
1
 10
115.45038461538462
 20
10.3616
 10
115.50038461538462
 20
10.3616
 10
115.50038461538462
 20
10.461599999999999
 10
115.45038461538462
 20
10.461599999999999
  0
LWPOLYLINE
  5
287
330
17
100
AcDbEntity
  8
E-REF
100
AcDbPolyline
 90
4
 70
1
 10
116.32807692307692
 20
10.247499999999999
 10
116.37807692307692
 20
10.247499999999999
 10
116.37807692307692
 20
10.347499999999998
 10
116.32807692307692
 20
10.347499999999998
  0
LWPOLYLINE
  5
288
330
17
100
AcDbEntity
  8
E-REF
100
AcDbPolyline
 90
4
 70
1
 10
117.20576923076923
 20
10.1334
 10
117.25576923076923
 20
10.1334
 10
117.25576923076923
 20
10.2334
 10
117.20576923076923
 20
10.2334
  0
LWPOLYLINE
  5
289
330
17
100
AcDbEntity
  8
E-REF
100
AcDbPolyline
 90
4
 70
1
 10
118.08346153846153
 20
10.0193
 10
118.13346153846153
 20
10.0193
 10
118.13346153846153
 20
10.119299999999999
 10
118.08346153846153
 20
10.119299999999999
  0
LWPOLYLINE
  5
28A
330
17
100
AcDbEntity
  8
E-REF
100
AcDbPolyline
 90
4
 70
1
 10
118.96115384615385
 20
9.905199999999999
 10
119.01115384615385
 20
9.905199999999999
 10
119.01115384615385
 20
10.005199999999999
 10
118.96115384615385
 20
10.005199999999999
  0
LWPOLYLINE
  5
28B
330
17
100
AcDbEntity
  8
E-REF
100
AcDbPolyline
 90
4
 70
1
 10
119.83884615384616
 20
9.7911
 10
119.88884615384615
 20
9.7911
 10
119.88884615384615
 20
9.8911
 10
119.83884615384616
 20
9.8911
  0
LWPOLYLINE
  5
28C
330
17
100
AcDbEntity
  8
E-REF
100
AcDbPolyline
 90
4
 70
1
 10
120.71653846153846
 20
9.677
 10
120.76653846153846
 20
9.677
 10
120.76653846153846
 20
9.777
 10
120.71653846153846
 20
9.777
  0
LWPOLYLINE
  5
28D
330
17
100
AcDbEntity
  8
E-REF
100
AcDbPolyline
 90
4
 70
1
 10
121.59423076923076
 20
9.562899999999999
 10
121.64423076923077
 20
9.562899999999999
 10
121.64423076923077
 20
9.662899999999999
 10
121.59423076923076
 20
9.662899999999999
  0
LWPOLYLINE
  5
28E
330
17
100
AcDbEntity
  8
E-REF
100
AcDbPolyline
 90
4
 70
1
 10
122.47192307692308
 20
9.4488
 10
122.52192307692307
 20
9.4488
 10
122.52192307692307
 20
9.5488
 10
122.47192307692308
 20
9.5488
  0
LWPOLYLINE
  5
28F
330
17
100
AcDbEntity
  8
E-REF
100
AcDbPolyline
 90
4
 70
1
 10
123.34961538461539
 20
9.3347
 10
123.39961538461537
 20
9.3347
 10
123.39961538461537
 20
9.4347
 10
123.34961538461539
 20
9.4347
  0
LWPOLYLINE
  5
290
330
17
100
AcDbEntity
  8
E-REF
100
AcDbPolyline
 90
4
 70
1
 10
124.22730769230769
 20
9.2206
 10
124.27730769230769
 20
9.2206
 10
124.27730769230769
 20
9.320599999999999
 10
124.22730769230769
 20
9.320599999999999
  0
LWPOLYLINE
  5
291
330
17
100
AcDbEntity
  8
E-REF
100
AcDbPolyline
 90
4
 70
1
 10
125.105
 20
9.1065
 10
125.155
 20
9.1065
 10
125.155
 20
9.2065
 10
125.105
 20
9.2065
  0
LWPOLYLINE
  5
292
330
17
100
AcDbEntity
  8
E-DET
100
AcDbPolyline
 90
3
 70
0
 10
102.06
 20
9.2
 10
113.62
 20
10.7028
 10
125.18
 20
9.2
  0
LWPOLYLINE
  5
293
330
17
100
AcDbEntity
  8
E-DET
100
AcDbPolyline
 90
4
 70
1
 10
102.085
 20
8.8
 10
102.185
 20
8.8
 10
102.185
 20
9.0
 10
102.085
 20
9.0
  0
CIRCLE
  5
294
330
17
100
AcDbEntity
  8
E-REF
100
AcDbCircle
 10
102.135
 20
8.25
 30
0.0
 40
0.18
  0
LWPOLYLINE
  5
295
330
17
100
AcDbEntity
  8
E-DET
100
AcDbPolyline
 90
4
 70
1
 10
107.635
 20
8.8
 10
107.735
 20
8.8
 10
107.735
 20
9.0
 10
107.635
 20
9.0
  0
CIRCLE
  5
296
330
17
100
AcDbEntity
  8
E-REF
100
AcDbCircle
 10
107.685
 20
8.25
 30
0.0
 40
0.18
  0
LWPOLYLINE
  5
297
330
17
100
AcDbEntity
  8
E-DET
100
AcDbPolyline
 90
4
 70
1
 10
110.285
 20
8.8
 10
110.385
 20
8.8
 10
110.385
 20
9.0
 10
110.285
 20
9.0
  0
CIRCLE
  5
298
330
17
100
AcDbEntity
  8
E-REF
100
AcDbCircle
 10
110.33500000000001
 20
8.25
 30
0.0
 40
0.18
  0
LWPOLYLINE
  5
299
330
17
100
AcDbEntity
  8
E-DET
100
AcDbPolyline
 90
4
 70
1
 10
116.855
 20
8.8
 10
116.955
 20
8.8
 10
116.955
 20
9.0
 10
116.855
 20
9.0
  0
CIRCLE
  5
29A
330
17
100
AcDbEntity
  8
E-REF
100
AcDbCircle
 10
116.905
 20
8.25
 30
0.0
 40
0.18
  0
LWPOLYLINE
  5
29B
330
17
100
AcDbEntity
  8
E-DET
100
AcDbPolyline
 90
4
 70
1
 10
119.505
 20
8.8
 10
119.605
 20
8.8
 10
119.605
 20
9.0
 10
119.505
 20
9.0
  0
CIRCLE
  5
29C
330
17
100
AcDbEntity
  8
E-REF
100
AcDbCircle
 10
119.555
 20
8.25
 30
0.0
 40
0.18
  0
LWPOLYLINE
  5
29D
330
17
100
AcDbEntity
  8
E-DET
100
AcDbPolyline
 90
4
 70
1
 10
125.055
 20
8.8
 10
125.155
 20
8.8
 10
125.155
 20
9.0
 10
125.055
 20
9.0
  0
CIRCLE
  5
29E
330
17
100
AcDbEntity
  8
E-REF
100
AcDbCircle
 10
125.105
 20
8.25
 30
0.0
 40
0.18
  0
TEXT
  5
29F
330
17
100
AcDbEntity
  8
E-TXT
100
AcDbText
 10
102.135
 20
8.25
 30
0.0
 40
0.18
  1
1
  7
ARIAL
 72
1
 11
102.135
 21
8.25
 31
0.0
100
AcDbText
 73
2
  0
LINE
  5
2A0
330
17
100
AcDbEntity
  8
E-REF
100
AcDbLine
 10
102.135
 20
8.43
 30
0.0
 11
102.135
 21
8.78
 31
0.0
  0
TEXT
  5
2A1
330
17
100
AcDbEntity
  8
E-TXT
100
AcDbText
 10
107.685
 20
8.25
 30
0.0
 40
0.18
  1
2
  7
ARIAL
 72
1
 11
107.685
 21
8.25
 31
0.0
100
AcDbText
 73
2
  0
LINE
  5
2A2
330
17
100
AcDbEntity
  8
E-REF
100
AcDbLine
 10
107.685
 20
8.43
 30
0.0
 11
107.685
 21
8.78
 31
0.0
  0
TEXT
  5
2A3
330
17
100
AcDbEntity
  8
E-TXT
100
AcDbText
 10
110.33500000000001
 20
8.25
 30
0.0
 40
0.18
  1
3
  7
ARIAL
 72
1
 11
110.33500000000001
 21
8.25
 31
0.0
100
AcDbText
 73
2
  0
LINE
  5
2A4
330
17
100
AcDbEntity
  8
E-REF
100
AcDbLine
 10
110.33500000000001
 20
8.43
 30
0.0
 11
110.33500000000001
 21
8.78
 31
0.0
  0
TEXT
  5
2A5
330
17
100
AcDbEntity
  8
E-TXT
100
AcDbText
 10
116.905
 20
8.25
 30
0.0
 40
0.18
  1
4
  7
ARIAL
 72
1
 11
116.905
 21
8.25
 31
0.0
100
AcDbText
 73
2
  0
LINE
  5
2A6
330
17
100
AcDbEntity
  8
E-REF
100
AcDbLine
 10
116.905
 20
8.43
 30
0.0
 11
116.905
 21
8.78
 31
0.0
  0
TEXT
  5
2A7
330
17
100
AcDbEntity
  8
E-TXT
100
AcDbText
 10
119.555
 20
8.25
 30
0.0
 40
0.18
  1
5
  7
ARIAL
 72
1
 11
119.555
 21
8.25
 31
0.0
100
AcDbText
 73
2
  0
LINE
  5
2A8
330
17
100
AcDbEntity
  8
E-REF
100
AcDbLine
 10
119.555
 20
8.43
 30
0.0
 11
119.555
 21
8.78
 31
0.0
  0
TEXT
  5
2A9
330
17
100
AcDbEntity
  8
E-TXT
100
AcDbText
 10
125.105
 20
8.25
 30
0.0
 40
0.18
  1
6
  7
ARIAL
 72
1
 11
125.105
 21
8.25
 31
0.0
100
AcDbText
 73
2
  0
LINE
  5
2AA
330
17
100
AcDbEntity
  8
E-REF
100
AcDbLine
 10
125.105
 20
8.43
 30
0.0
 11
125.105
 21
8.78
 31
0.0
  0
DIMENSION
  5
2AB
330
17
100
AcDbEntity
  8
E-COTA
100
AcDbDimension
280
0
  2
*D14
  3
COTA-75
 10
102.06
 20
11.1528
 30
0.0
 11
113.62
 21
11.2953
 31
0.0
 70
32
 71
5
  1
<>
100
AcDbAlignedDimension
 13
102.06
 23
9.2
 33
0.0
 14
125.18
 24
9.2
 34
0.0
 50
0.0
100
AcDbRotatedDimension
  0
DIMENSION
  5
2BA
330
17
100
AcDbEntity
  8
E-COTA
100
AcDbDimension
280
0
  2
*D15
  3
COTA-75
 10
101.61
 20
9.0
 30
0.0
 11
101.3925
 21
9.05
 31
0.0
 70
32
 71
5
  1
<>
100
AcDbAlignedDimension
 13
102.06
 23
9.0
 33
0.0
 14
102.06
 24
9.1
 34
0.0
 50
90.0
100
AcDbRotatedDimension
  0
DIMENSION
  5
2C9
330
17
100
AcDbEntity
  8
E-COTA
100
AcDbDimension
280
0
  2
*D16
  3
COTA-75
 10
114.17
 20
9.0
 30
0.0
 11
114.0275
 21
9.801400000000001
 31
0.0
 70
32
 71
5
  1
<>
100
AcDbAlignedDimension
 13
113.62
 23
9.0
 33
0.0
 14
113.62
 24
10.6028
 34
0.0
 50
90.0
100
AcDbRotatedDimension
  0
TEXT
  5
2D8
330
17
100
AcDbEntity
  8
E-TXT
100
AcDbText
 10
102.735
 20
8.6
 30
0.0
 40
0.16
  1
+9.00 CARA SUPERIOR V1 / CORDÓN INFERIOR
  7
ARIAL
 11
102.735
 21
8.6
 31
0.0
100
AcDbText
 73
2
  0
TEXT
  5
2D9
330
17
100
AcDbEntity
  8
E-TXT
100
AcDbText
 10
120.155
 20
8.6
 30
0.0
 40
0.16
  1
+9.20 LÁMINA EN EL ALERO (VER NOTA 6)
  7
ARIAL
 11
120.155
 21
8.6
 31
0.0
100
AcDbText
 73
2
  0
TEXT
  5
2DA
330
17
100
AcDbEntity
  8
E-TXT
100
AcDbText
 10
114.62
 20
10.822799999999999
 30
0.0
 40
0.16
  1
+10.70 LÁMINA EN LA CUMBRERA (VER NOTA 6)
  7
ARIAL
 11
114.62
 21
10.822799999999999
 31
0.0
100
AcDbText
 73
2
  0
LWPOLYLINE
  5
2DB
330
17
100
AcDbEntity
  8
E-REF
100
AcDbPolyline
 90
4
 70
1
 10
199.55
 20
-0.2
 10
200.45
 20
-0.2
 10
200.45
 20
0.0
 10
199.55
 20
0.0
  0
LWPOLYLINE
  5
2DC
330
17
100
AcDbEntity
  8
E-DET
100
AcDbPolyline
 90
4
 70
1
 10
199.925
 20
0.0
 10
200.075
 20
0.0
 10
200.075
 20
0.05
 10
199.925
 20
0.05
  0
LWPOLYLINE
  5
2DD
330
17
100
AcDbEntity
  8
E-REF
100
AcDbPolyline
 90
4
 70
1
 10
199.92976000000002
 20
0.00476
 10
200.07023999999998
 20
0.00476
 10
200.07023999999998
 20
0.04524
 10
199.92976000000002
 20
0.04524
  0
LWPOLYLINE
  5
2DE
330
17
100
AcDbEntity
  8
E-REF
100
AcDbPolyline
 90
4
 70
1
 10
199.975
 20
0.05
 10
200.025
 20
0.05
 10
200.025
 20
0.4
 10
199.975
 20
0.4
  0
LWPOLYLINE
  5
2DF
330
17
100
AcDbEntity
  8
E-DET
100
AcDbPolyline
 90
4
 70
1
 10
199.925
 20
0.4
 10
200.075
 20
0.4
 10
200.075
 20
0.45
 10
199.925
 20
0.45
  0
LWPOLYLINE
  5
2E0
330
17
100
AcDbEntity
  8
E-REF
100
AcDbPolyline
 90
4
 70
1
 10
199.92976000000002
 20
0.40476
 10
200.07023999999998
 20
0.40476
 10
200.07023999999998
 20
0.44524
 10
199.92976000000002
 20
0.44524
  0
LWPOLYLINE
  5
2E1
330
17
100
AcDbEntity
  8
E-REF
100
AcDbPolyline
 90
4
 70
1
 10
199.55
 20
0.45
 10
200.45
 20
0.45
 10
200.45
 20
0.55
 10
199.55
 20
0.55
  0
LINE
  5
2E2
330
17
100
AcDbEntity
  8
E-REF
100
AcDbLine
 10
199.94
 20
0.22
 30
0.0
 11
199.99
 21
0.24
 31
0.0
  0
LINE
  5
2E3
330
17
100
AcDbEntity
  8
E-REF
100
AcDbLine
 10
199.99
 20
0.24
 30
0.0
 11
200.01
 21
0.2
 31
0.0
  0
LINE
  5
2E4
330
17
100
AcDbEntity
  8
E-REF
100
AcDbLine
 10
200.01
 20
0.2
 30
0.0
 11
200.06
 21
0.22
 31
0.0
  0
LWPOLYLINE
  5
2E5
330
17
100
AcDbEntity
  8
E-DET
100
AcDbPolyline
 90
19
 70
0
 10
199.55
 20
0.55
 10
199.62
 20
0.55
 10
199.65
 20
0.5850000000000001
 10
199.7
 20
0.5850000000000001
 10
199.73
 20
0.55
 10
199.8
 20
0.55
 10
199.87
 20
0.55
 10
199.9
 20
0.5850000000000001
 10
199.95
 20
0.5850000000000001
 10
199.98
 20
0.55
 10
200.05
 20
0.55
 10
200.12
 20
0.55
 10
200.15
 20
0.5850000000000001
 10
200.2
 20
0.5850000000000001
 10
200.23
 20
0.55
 10
200.3
 20
0.55
 10
200.37
 20
0.55
 10
200.4
 20
0.5850000000000001
 10
200.45
 20
0.5850000000000001
  0
DIMENSION
  5
2E6
330
17
100
AcDbEntity
  8
E-COTA
100
AcDbDimension
280
0
  2
*D17
  3
COTA-10
 10
200.51999999999998
 20
-0.2
 30
0.0
 11
200.50099999999998
 21
-0.1
 31
0.0
 70
32
 71
5
  1
<>
100
AcDbAlignedDimension
 13
200.45
 23
-0.2
 33
0.0
 14
200.45
 24
0.0
 34
0.0
 50
90.0
100
AcDbRotatedDimension
  0
DIMENSION
  5
2F5
330
17
100
AcDbEntity
  8
E-COTA
100
AcDbDimension
280
0
  2
*D18
  3
COTA-10
 10
200.51999999999998
 20
0.45
 30
0.0
 11
200.50099999999998
 21
0.5
 31
0.0
 70
32
 71
5
  1
<>
100
AcDbAlignedDimension
 13
200.45
 23
0.45
 33
0.0
 14
200.45
 24
0.55
 34
0.0
 50
90.0
100
AcDbRotatedDimension
  0
DIMENSION
  5
304
330
17
100
AcDbEntity
  8
E-COTA
100
AcDbDimension
280
0
  2
*D19
  3
COTA-10
 10
199.925
 20
-0.27
 30
0.0
 11
200.0
 21
-0.251
 31
0.0
 70
32
 71
5
  1
<>
100
AcDbAlignedDimension
 13
199.925
 23
-0.2
 33
0.0
 14
200.075
 24
-0.2
 34
0.0
 50
0.0
100
AcDbRotatedDimension
  0
VIEWPORT
  5
317
330
313
100
AcDbEntity
 67
1
  8
VIEWPORTS
100
AcDbViewport
 10
420.5
 20
297.0
 30
0.0
 40
925.1
 41
653.4000000000001
 68
1
 69
1
 12
420.5
 22
297.0
 13
0.0
 23
0.0
 14
10.0
 24
10.0
 15
10.0
 25
10.0
 16
0.0
 26
0.0
 36
1.0
 17
0.0
 27
0.0
 37
0.0
 42
50.0
 43
0.0
 44
0.0
 45
653.4000000000001
 50
0.0
 51
0.0
 72
100
 90
557088
  1

281
0
 71
0
 74
0
110
0.0
120
0.0
130
0.0
111
1.0
121
0.0
131
0.0
112
0.0
122
1.0
132
0.0
 79
0
146
0.0
282
0
  0
LWPOLYLINE
  5
318
330
313
100
AcDbEntity
 67
1
  8
A-VIEWPORT
100
AcDbPolyline
 90
4
 70
1
 10
0.0
 20
0.0
 10
841.0
 20
0.0
 10
841.0
 20
594.0
 10
0.0
 20
594.0
  0
LWPOLYLINE
  5
319
330
313
100
AcDbEntity
 67
1
  8
A-MARCO
100
AcDbPolyline
 90
4
 70
1
 10
25.0
 20
10.0
 10
831.0
 20
10.0
 10
831.0
 20
584.0
 10
25.0
 20
584.0
  0
TEXT
  5
31A
330
313
100
AcDbEntity
 67
1
  8
A-TEXTO
100
AcDbText
 10
25.0
 20
4.0
 30
0.0
 40
1.8
  1
FORMATO A1  841 mm x 594 mm
  7
ARIAL
 11
25.0
 21
4.0
 31
0.0
100
AcDbText
  0
VIEWPORT
  5
31B
330
313
100
AcDbEntity
 67
1
  8
A-VIEWPORT
100
AcDbViewport
 10
368.0
 20
430.0
 30
0.0
 40
668.0
 41
296.0
 68
2
 69
3
 12
14.05
 22
4.05
 13
0.0
 23
0.0
 14
10.0
 24
10.0
 15
10.0
 25
10.0
 16
0.0
 26
0.0
 36
1.0
 17
0.0
 27
0.0
 37
0.0
 42
50.0
 43
0.0
 44
0.0
 45
14.8
 50
0.0
 51
0.0
 72
100
331
9C
331
9A
331
9D
331
9B
 90
16384
  1

281
0
 71
0
 74
0
110
0.0
120
0.0
130
0.0
111
1.0
121
0.0
131
0.0
112
0.0
122
1.0
132
0.0
 79
0
146
0.0
282
0
  0
INSERT
  5
31C
330
313
100
AcDbEntity
 67
1
  8
A-NORTE
100
AcDbBlockReference
  2
NORTE
 10
672.0
 20
300.0
 30
0.0
 50
87.28611489610071
  0
TEXT
  5
31E
330
313
100
AcDbEntity
 67
1
  8
A-TEXTO
100
AcDbText
 10
672.0
 20
280.0
 30
0.0
 40
1.8
  1
NORTE SEGÚN CATASTRO
  7
ARIAL
 72
1
 11
672.0
 21
280.0
 31
0.0
100
AcDbText
 73
3
  0
TEXT
  5
31F
330
313
100
AcDbEntity
 67
1
  8
A-TITULOS
100
AcDbText
 10
35.0
 20
262.0
 30
0.0
 40
6.0
  1
PLANTA DE TECHO
  7
ARIAL
 11
35.0
 21
262.0
 31
0.0
100
AcDbText
 73
1
  0
LINE
  5
320
330
313
100
AcDbEntity
 67
1
  8
A-TITULOS
100
AcDbLine
 10
35.0
 20
260.5
 30
0.0
 11
185.0
 21
260.5
 31
0.0
  0
TEXT
  5
321
330
313
100
AcDbEntity
 67
1
  8
A-TEXTO
100
AcDbText
 10
35.0
 20
254.5
 30
0.0
 40
3.5
  1
ESTRUCTURA DE CUBIERTA
  7
ARIAL
 11
35.0
 21
254.5
 31
0.0
100
AcDbText
 73
1
  0
TEXT
  5
322
330
313
100
AcDbEntity
 67
1
  8
A-TEXTO
100
AcDbText
 10
35.0
 20
249.0
 30
0.0
 40
3.0
  1
Esc. 1:50
  7
ARIAL
 11
35.0
 21
249.0
 31
0.0
100
AcDbText
 73
1
  0
LWPOLYLINE
  5
323
330
313
100
AcDbEntity
 67
1
  8
A-ESCALA-GRAF
100
AcDbPolyline
 90
4
 70
1
 10
35.0
 20
236.0
 10
55.0
 20
236.0
 10
55.0
 20
237.6
 10
35.0
 20
237.6
  0
HATCH
  5
324
330
313
100
AcDbEntity
 67
1
  8
A-ESCALA-GRAF
 62
7
100
AcDbHatch
 10
0.0
 20
0.0
 30
0.0
210
0.0
220
0.0
230
1.0
  2
SOLID
 70
1
 71
0
 91
1
 92
3
 72
0
 73
1
 93
4
 10
35.0
 20
236.0
 10
55.0
 20
236.0
 10
55.0
 20
237.6
 10
35.0
 20
237.6
 97
0
 75
0
 76
1
 98
0
  0
LWPOLYLINE
  5
325
330
313
100
AcDbEntity
 67
1
  8
A-ESCALA-GRAF
100
AcDbPolyline
 90
4
 70
1
 10
55.0
 20
236.0
 10
75.0
 20
236.0
 10
75.0
 20
237.6
 10
55.0
 20
237.6
  0
LWPOLYLINE
  5
326
330
313
100
AcDbEntity
 67
1
  8
A-ESCALA-GRAF
100
AcDbPolyline
 90
4
 70
1
 10
75.0
 20
236.0
 10
95.0
 20
236.0
 10
95.0
 20
237.6
 10
75.0
 20
237.6
  0
HATCH
  5
327
330
313
100
AcDbEntity
 67
1
  8
A-ESCALA-GRAF
 62
7
100
AcDbHatch
 10
0.0
 20
0.0
 30
0.0
210
0.0
220
0.0
230
1.0
  2
SOLID
 70
1
 71
0
 91
1
 92
3
 72
0
 73
1
 93
4
 10
75.0
 20
236.0
 10
95.0
 20
236.0
 10
95.0
 20
237.6
 10
75.0
 20
237.6
 97
0
 75
0
 76
1
 98
0
  0
LWPOLYLINE
  5
328
330
313
100
AcDbEntity
 67
1
  8
A-ESCALA-GRAF
100
AcDbPolyline
 90
4
 70
1
 10
95.0
 20
236.0
 10
115.0
 20
236.0
 10
115.0
 20
237.6
 10
95.0
 20
237.6
  0
LWPOLYLINE
  5
329
330
313
100
AcDbEntity
 67
1
  8
A-ESCALA-GRAF
100
AcDbPolyline
 90
4
 70
1
 10
115.0
 20
236.0
 10
135.0
 20
236.0
 10
135.0
 20
237.6
 10
115.0
 20
237.6
  0
HATCH
  5
32A
330
313
100
AcDbEntity
 67
1
  8
A-ESCALA-GRAF
 62
7
100
AcDbHatch
 10
0.0
 20
0.0
 30
0.0
210
0.0
220
0.0
230
1.0
  2
SOLID
 70
1
 71
0
 91
1
 92
3
 72
0
 73
1
 93
4
 10
115.0
 20
236.0
 10
135.0
 20
236.0
 10
135.0
 20
237.6
 10
115.0
 20
237.6
 97
0
 75
0
 76
1
 98
0
  0
TEXT
  5
32B
330
313
100
AcDbEntity
 67
1
  8
A-ESCALA-GRAF
100
AcDbText
 10
35.0
 20
234.8
 30
0.0
 40
1.87
  1
0
  7
ARIAL
 72
1
 11
35.0
 21
234.8
 31
0.0
100
AcDbText
 73
3
  0
TEXT
  5
32C
330
313
100
AcDbEntity
 67
1
  8
A-ESCALA-GRAF
100
AcDbText
 10
55.0
 20
234.8
 30
0.0
 40
1.87
  1
1
  7
ARIAL
 72
1
 11
55.0
 21
234.8
 31
0.0
100
AcDbText
 73
3
  0
TEXT
  5
32D
330
313
100
AcDbEntity
 67
1
  8
A-ESCALA-GRAF
100
AcDbText
 10
75.0
 20
234.8
 30
0.0
 40
1.87
  1
2
  7
ARIAL
 72
1
 11
75.0
 21
234.8
 31
0.0
100
AcDbText
 73
3
  0
TEXT
  5
32E
330
313
100
AcDbEntity
 67
1
  8
A-ESCALA-GRAF
100
AcDbText
 10
95.0
 20
234.8
 30
0.0
 40
1.87
  1
3
  7
ARIAL
 72
1
 11
95.0
 21
234.8
 31
0.0
100
AcDbText
 73
3
  0
TEXT
  5
32F
330
313
100
AcDbEntity
 67
1
  8
A-ESCALA-GRAF
100
AcDbText
 10
115.0
 20
234.8
 30
0.0
 40
1.87
  1
4
  7
ARIAL
 72
1
 11
115.0
 21
234.8
 31
0.0
100
AcDbText
 73
3
  0
TEXT
  5
330
330
313
100
AcDbEntity
 67
1
  8
A-ESCALA-GRAF
100
AcDbText
 10
135.0
 20
234.8
 30
0.0
 40
1.87
  1
5
  7
ARIAL
 72
1
 11
135.0
 21
234.8
 31
0.0
100
AcDbText
 73
3
  0
TEXT
  5
331
330
313
100
AcDbEntity
 67
1
  8
A-ESCALA-GRAF
100
AcDbText
 10
138.0
 20
236.8
 30
0.0
 40
1.87
  1
m
  7
ARIAL
 11
138.0
 21
236.8
 31
0.0
100
AcDbText
 73
2
  0
TEXT
  5
332
330
313
100
AcDbEntity
 67
1
  8
A-TITULOS
100
AcDbText
 10
35.0
 20
214.0
 30
0.0
 40
3.5
  1
SIMBOLOGÍA ELEMENTOS PORTANTES
  7
ARIAL
 11
35.0
 21
214.0
 31
0.0
100
AcDbText
 73
3
  0
LWPOLYLINE
  5
333
330
313
100
AcDbEntity
 67
1
  8
A-TABLAS
100
AcDbPolyline
 90
4
 70
1
 10
35.0
 20
169.0
 10
193.0
 20
169.0
 10
193.0
 20
208.0
 10
35.0
 20
208.0
  0
TEXT
  5
334
330
313
100
AcDbEntity
 67
1
  8
A-TEXTO
100
AcDbText
 10
44.0
 20
204.75
 30
0.0
 40
2.2
  1
C1
  7
ARIAL
 72
1
 11
44.0
 21
204.75
 31
0.0
100
AcDbText
 73
2
  0
LINE
  5
335
330
313
100
AcDbEntity
 67
1
  8
A-TABLAS
100
AcDbLine
 10
53.0
 20
208.0
 30
0.0
 11
53.0
 21
201.5
 31
0.0
  0
TEXT
  5
336
330
313
100
AcDbEntity
 67
1
  8
A-TEXTO
100
AcDbText
 10
54.5
 20
204.75
 30
0.0
 40
2.2
  1
COLUMNA - TUBO DE ACERO 6x6" EN 3,17 mm [PR]
  7
ARIAL
 11
54.5
 21
204.75
 31
0.0
100
AcDbText
 73
2
  0
LINE
  5
337
330
313
100
AcDbEntity
 67
1
  8
A-TABLAS
100
AcDbLine
 10
35.0
 20
201.5
 30
0.0
 11
193.0
 21
201.5
 31
0.0
  0
TEXT
  5
338
330
313
100
AcDbEntity
 67
1
  8
A-TEXTO
100
AcDbText
 10
44.0
 20
198.25
 30
0.0
 40
2.2
  1
V1
  7
ARIAL
 72
1
 11
44.0
 21
198.25
 31
0.0
100
AcDbText
 73
2
  0
LINE
  5
339
330
313
100
AcDbEntity
 67
1
  8
A-TABLAS
100
AcDbLine
 10
53.0
 20
201.5
 30
0.0
 11
53.0
 21
195.0
 31
0.0
  0
TEXT
  5
33A
330
313
100
AcDbEntity
 67
1
  8
A-TEXTO
100
AcDbText
 10
54.5
 20
198.25
 30
0.0
 40
2.2
  1
VIGA DE CORONA - TUBO 4x8" EN 3,17 mm, +9,00 [PR]
  7
ARIAL
 11
54.5
 21
198.25
 31
0.0
100
AcDbText
 73
2
  0
LINE
  5
33B
330
313
100
AcDbEntity
 67
1
  8
A-TABLAS
100
AcDbLine
 10
35.0
 20
195.0
 30
0.0
 11
193.0
 21
195.0
 31
0.0
  0
TEXT
  5
33C
330
313
100
AcDbEntity
 67
1
  8
A-TEXTO
100
AcDbText
 10
44.0
 20
191.75
 30
0.0
 40
2.2
  1
CE-1
  7
ARIAL
 72
1
 11
44.0
 21
191.75
 31
0.0
100
AcDbText
 73
2
  0
LINE
  5
33D
330
313
100
AcDbEntity
 67
1
  8
A-TABLAS
100
AcDbLine
 10
53.0
 20
195.0
 30
0.0
 11
53.0
 21
188.5
 31
0.0
  0
TEXT
  5
33E
330
313
100
AcDbEntity
 67
1
  8
A-TEXTO
100
AcDbText
 10
54.5
 20
191.75
 30
0.0
 40
2.2
  1
CERCHA - CORDONES 2x6" EN 2,38 mm
  7
ARIAL
 11
54.5
 21
191.75
 31
0.0
100
AcDbText
 73
2
  0
LINE
  5
33F
330
313
100
AcDbEntity
 67
1
  8
A-TABLAS
100
AcDbLine
 10
35.0
 20
188.5
 30
0.0
 11
193.0
 21
188.5
 31
0.0
  0
LINE
  5
340
330
313
100
AcDbEntity
 67
1
  8
A-TABLAS
100
AcDbLine
 10
53.0
 20
188.5
 30
0.0
 11
53.0
 21
182.0
 31
0.0
  0
TEXT
  5
341
330
313
100
AcDbEntity
 67
1
  8
A-TEXTO
100
AcDbText
 10
54.5
 20
185.25
 30
0.0
 40
2.2
  1
DIAGONALES Y MONTANTES 2x2" EN 1,50 mm
  7
ARIAL
 11
54.5
 21
185.25
 31
0.0
100
AcDbText
 73
2
  0
LINE
  5
342
330
313
100
AcDbEntity
 67
1
  8
A-TABLAS
100
AcDbLine
 10
35.0
 20
182.0
 30
0.0
 11
193.0
 21
182.0
 31
0.0
  0
TEXT
  5
343
330
313
100
AcDbEntity
 67
1
  8
A-TEXTO
100
AcDbText
 10
44.0
 20
178.75
 30
0.0
 40
2.2
  1
CL
  7
ARIAL
 72
1
 11
44.0
 21
178.75
 31
0.0
100
AcDbText
 73
2
  0
LINE
  5
344
330
313
100
AcDbEntity
 67
1
  8
A-TABLAS
100
AcDbLine
 10
53.0
 20
182.0
 30
0.0
 11
53.0
 21
175.5
 31
0.0
  0
TEXT
  5
345
330
313
100
AcDbEntity
 67
1
  8
A-TEXTO
100
AcDbText
 10
54.5
 20
178.75
 30
0.0
 40
2.2
  1
CLAVADOR - TUBO RT 2x4" EN 1,50 mm @0,90 m MÁX.
  7
ARIAL
 11
54.5
 21
178.75
 31
0.0
100
AcDbText
 73
2
  0
LINE
  5
346
330
313
100
AcDbEntity
 67
1
  8
A-TABLAS
100
AcDbLine
 10
35.0
 20
175.5
 30
0.0
 11
193.0
 21
175.5
 31
0.0
  0
LINE
  5
347
330
313
100
AcDbEntity
 67
1
  8
A-TABLAS
100
AcDbLine
 10
53.0
 20
175.5
 30
0.0
 11
53.0
 21
169.0
 31
0.0
  0
TEXT
  5
348
330
313
100
AcDbEntity
 67
1
  8
A-TEXTO
100
AcDbText
 10
54.5
 20
172.25
 30
0.0
 40
2.2
  1
PATIO ABIERTO (SIN CUBIERTA)
  7
ARIAL
 11
54.5
 21
172.25
 31
0.0
100
AcDbText
 73
2
  0
LWPOLYLINE
  5
349
330
313
100
AcDbEntity
 67
1
  8
A-TEXTO
100
AcDbPolyline
 90
4
 70
1
 10
39.0
 20
170.2
 10
49.0
 20
170.2
 10
49.0
 20
174.3
 10
39.0
 20
174.3
  0
LINE
  5
34A
330
313
100
AcDbEntity
 67
1
  8
A-TEXTO
100
AcDbLine
 10
39.0
 20
170.2
 30
0.0
 11
49.0
 21
174.3
 31
0.0
  0
LINE
  5
34B
330
313
100
AcDbEntity
 67
1
  8
A-TEXTO
100
AcDbLine
 10
39.0
 20
174.3
 30
0.0
 11
49.0
 21
170.2
 31
0.0
  0
VIEWPORT
  5
34C
330
313
100
AcDbEntity
 67
1
  8
A-VIEWPORT
100
AcDbViewport
 10
378.0
 20
228.0
 30
0.0
 40
336.0
 41
52.0
 68
2
 69
4
 12
113.9
 22
9.55
 13
0.0
 23
0.0
 14
10.0
 24
10.0
 15
10.0
 25
10.0
 16
0.0
 26
0.0
 36
1.0
 17
0.0
 27
0.0
 37
0.0
 42
50.0
 43
0.0
 44
0.0
 45
3.9
 50
0.0
 51
0.0
 72
100
 90
16384
  1

281
0
 71
0
 74
0
110
0.0
120
0.0
130
0.0
111
1.0
121
0.0
131
0.0
112
0.0
122
1.0
132
0.0
 79
0
146
0.0
282
0
  0
TEXT
  5
34D
330
313
100
AcDbEntity
 67
1
  8
A-TITULOS
100
AcDbText
 10
212.0
 20
198.0
 30
0.0
 40
4.5
  1
CERCHA TÍPICA CE-1 (ELEVACIÓN)
  7
ARIAL
 11
212.0
 21
198.0
 31
0.0
100
AcDbText
 73
3
  0
TEXT
  5
34E
330
313
100
AcDbEntity
 67
1
  8
A-TEXTO
100
AcDbText
 10
212.0
 20
191.5
 30
0.0
 40
2.5
  1
EN x 0,30 / EJE B / EJE C / x 8,70 - Esc. 1:75
  7
ARIAL
 11
212.0
 21
191.5
 31
0.0
100
AcDbText
 73
3
  0
VIEWPORT
  5
34F
330
313
100
AcDbEntity
 67
1
  8
A-VIEWPORT
100
AcDbViewport
 10
268.0
 20
130.0
 30
0.0
 40
112.0
 41
112.0
 68
2
 69
5
 12
200.04
 22
0.21
 13
0.0
 23
0.0
 14
10.0
 24
10.0
 15
10.0
 25
10.0
 16
0.0
 26
0.0
 36
1.0
 17
0.0
 27
0.0
 37
0.0
 42
50.0
 43
0.0
 44
0.0
 45
1.12
 50
0.0
 51
0.0
 72
100
 90
16384
  1

281
0
 71
0
 74
0
110
0.0
120
0.0
130
0.0
111
1.0
121
0.0
131
0.0
112
0.0
122
1.0
132
0.0
 79
0
146
0.0
282
0
  0
TEXT
  5
350
330
313
100
AcDbEntity
 67
1
  8
A-TITULOS
100
AcDbText
 10
212.0
 20
68.0
 30
0.0
 40
4.5
  1
SECCIÓN TÍPICA DE CUBIERTA
  7
ARIAL
 11
212.0
 21
68.0
 31
0.0
100
AcDbText
 73
3
  0
TEXT
  5
351
330
313
100
AcDbEntity
 67
1
  8
A-TEXTO
100
AcDbText
 10
212.0
 20
61.5
 30
0.0
 40
2.5
  1
PERPENDICULAR A LA CERCHA - Esc. 1:10
  7
ARIAL
 11
212.0
 21
61.5
 31
0.0
100
AcDbText
 73
3
  0
LINE
  5
352
330
313
100
AcDbEntity
 67
1
  8
A-TEXTO
100
AcDbLine
 10
336.0
 20
168.0
 30
0.0
 11
294.00000000000193
 21
167.5
 31
0.0
  0
CIRCLE
  5
353
330
313
100
AcDbEntity
 67
1
  8
A-TEXTO
100
AcDbCircle
 10
294.00000000000193
 20
167.5
 30
0.0
 40
0.6
  0
MTEXT
  5
354
330
313
100
AcDbEntity
 67
1
  8
A-TEXTO
100
AcDbMText
 10
338.0
 20
168.0
 30
0.0
 40
2.0
 41
80.0
 71
4
  1
LÁMINA ESTRUCTURAL CAL. 26, NATURAL GALVANIZADA (A5)
  7
ARIAL
  0
LINE
  5
355
330
313
100
AcDbEntity
 67
1
  8
A-TEXTO
100
AcDbLine
 10
336.0
 20
158.0
 30
0.0
 11
297.00000000000205
 21
159.0
 31
0.0
  0
CIRCLE
  5
356
330
313
100
AcDbEntity
 67
1
  8
A-TEXTO
100
AcDbCircle
 10
297.00000000000205
 20
159.0
 30
0.0
 40
0.6
  0
MTEXT
  5
357
330
313
100
AcDbEntity
 67
1
  8
A-TEXTO
100
AcDbMText
 10
338.0
 20
158.0
 30
0.0
 40
2.0
 41
80.0
 71
4
  1
CLAVADOR TUBO RT 2x4" EN 1,50 mm @0,90 m MÁX.
  7
ARIAL
  0
LINE
  5
358
330
313
100
AcDbEntity
 67
1
  8
A-TEXTO
100
AcDbLine
 10
336.0
 20
148.0
 30
0.0
 11
269.00000000000193
 21
151.5
 31
0.0
  0
CIRCLE
  5
359
330
313
100
AcDbEntity
 67
1
  8
A-TEXTO
100
AcDbCircle
 10
269.00000000000193
 20
151.5
 30
0.0
 40
0.6
  0
MTEXT
  5
35A
330
313
100
AcDbEntity
 67
1
  8
A-TEXTO
100
AcDbMText
 10
338.0
 20
148.0
 30
0.0
 40
2.0
 41
80.0
 71
4
  1
CORDÓN SUPERIOR TUBO 2x6" EN 2,38 mm (PLANO)
  7
ARIAL
  0
LINE
  5
35B
330
313
100
AcDbEntity
 67
1
  8
A-TEXTO
100
AcDbLine
 10
336.0
 20
138.0
 30
0.0
 11
264.0000000000008
 21
142.0
 31
0.0
  0
CIRCLE
  5
35C
330
313
100
AcDbEntity
 67
1
  8
A-TEXTO
100
AcDbCircle
 10
264.0000000000008
 20
142.0
 30
0.0
 40
0.6
  0
MTEXT
  5
35D
330
313
100
AcDbEntity
 67
1
  8
A-TEXTO
100
AcDbMText
 10
338.0
 20
138.0
 30
0.0
 40
2.0
 41
80.0
 71
4
  1
MONTANTES Y DIAGONALES TUBO 2x2" EN 1,50 mm; PERALTE VARIABLE 0,10 A 1,60 m
  7
ARIAL
  0
LINE
  5
35E
330
313
100
AcDbEntity
 67
1
  8
A-TEXTO
100
AcDbLine
 10
336.0
 20
124.0
 30
0.0
 11
269.00000000000193
 21
111.5
 31
0.0
  0
CIRCLE
  5
35F
330
313
100
AcDbEntity
 67
1
  8
A-TEXTO
100
AcDbCircle
 10
269.00000000000193
 20
111.5
 30
0.0
 40
0.6
  0
MTEXT
  5
360
330
313
100
AcDbEntity
 67
1
  8
A-TEXTO
100
AcDbMText
 10
338.0
 20
124.0
 30
0.0
 40
2.0
 41
80.0
 71
4
  1
CORDÓN INFERIOR TUBO 2x6" EN 2,38 mm (PLANO)
  7
ARIAL
  0
LINE
  5
361
330
313
100
AcDbEntity
 67
1
  8
A-TEXTO
100
AcDbLine
 10
336.0
 20
112.0
 30
0.0
 11
294.00000000000193
 21
99.0
 31
0.0
  0
CIRCLE
  5
362
330
313
100
AcDbEntity
 67
1
  8
A-TEXTO
100
AcDbCircle
 10
294.00000000000193
 20
99.0
 30
0.0
 40
0.6
  0
MTEXT
  5
363
330
313
100
AcDbEntity
 67
1
  8
A-TEXTO
100
AcDbMText
 10
338.0
 20
112.0
 30
0.0
 40
2.0
 41
80.0
 71
4
  1
VIGA DE CORONA V1 TUBO 4x8" EN 3,17 mm, CARA SUPERIOR +9,00 [PR]
  7
ARIAL
  0
MTEXT
  5
364
330
313
100
AcDbEntity
 67
1
  8
A-TEXTO
100
AcDbMText
 10
336.0
 20
102.0
 30
0.0
 40
2.0
 41
80.0
 71
1
  1
UNIONES SOLDADAS (CORDONES, MONTANTES, DIAGONALES, CLAVADORES Y APOYO SOBRE V1) SEGÚN MEMORIA DE CÁLCULO (PD).
  7
ARIAL
  0
TEXT
  5
365
330
313
100
AcDbEntity
 67
1
  8
A-TITULOS
100
AcDbText
 10
556.0
 20
262.0
 30
0.0
 40
3.5
  1
NOTAS:
  7
ARIAL
 11
556.0
 21
262.0
 31
0.0
100
AcDbText
 73
3
  0
MTEXT
  5
366
330
313
100
AcDbEntity
 67
1
  8
A-NOTAS
100
AcDbMText
 10
556.0
 20
256.0
 30
0.0
 40
2.0
 41
148.0
 71
1
  1
1.- TODAS LAS MEDIDAS ESTÁN DADAS EN METROS, SALVO INDICACIÓN CONTRARIA. [PR]
  7
ARIAL
  0
MTEXT
  5
367
330
313
100
AcDbEntity
 67
1
  8
A-NOTAS
100
AcDbMText
 10
556.0
 20
252.0
 30
0.0
 40
2.0
 41
148.0
 71
1
  1
2.- CUBIERTA DE LÁMINA ESTRUCTURAL CAL. 26 A DOS AGUAS (FRENTE Y FONDO), PENDIENTE 13 %, SOBRE CLAVADORES Y CERCHAS METÁLICAS EN LA DIRECCIÓN DE LA PENDIENTE (A5, A6).
  7
ARIAL
  0
MTEXT
  5
368
330
313
100
AcDbEntity
 67
1
  8
A-NOTAS
100
AcDbMText
 10
556.0
 20
245.1
 30
0.0
 40
2.0
 41
148.0
 71
1
  1
3.- CERCHAS CE-1 EN x 0,30, EJE B, EJE C Y x 8,70, APOYADAS EN LAS VIGAS DE CORONA V1 DE LOS EJES 1 A 6. LA CERCHA DEL EJE C ES CONTINUA SOBRE EL PATIO P1.
  7
ARIAL
  0
MTEXT
  5
369
330
313
100
AcDbEntity
 67
1
  8
A-NOTAS
100
AcDbMText
 10
556.0
 20
238.2
 30
0.0
 40
2.0
 41
148.0
 71
1
  1
4.- VIGAS DE CORONA V1 A +9,00 EN LOS EJES 1 A 6 Y EN A, C Y D, SOBRE LAS COLUMNAS C1, IGUAL QUE EN LOS ENTREPISOS (C03). [PR]
  7
ARIAL
  0
MTEXT
  5
36A
330
313
100
AcDbEntity
 67
1
  8
A-NOTAS
100
AcDbMText
 10
556.0
 20
231.29999999999998
 30
0.0
 40
2.0
 41
148.0
 71
1
  1
5.- PATIOS P1 Y P2 ABIERTOS, SIN CUBIERTA. CANOAS AL FRENTE, AL FONDO Y HACIA LOS PATIOS; BAJANTES Y DETALLE DE CANOA SEGÚN LÁMINA PLUVIAL.
  7
ARIAL
  0
MTEXT
  5
36B
330
313
100
AcDbEntity
 67
1
  8
A-NOTAS
100
AcDbMText
 10
556.0
 20
224.39999999999998
 30
0.0
 40
2.0
 41
148.0
 71
1
  1
6.- NIVELES DE LÁMINA RESULTANTES DE LA CERCHA: +9,20 EN EL ALERO Y +10,70 EN LA CUMBRERA (A5 Y A6 INDICAN +9,00 Y +10,50). PENDIENTE DE CONFIRMAR (PD).
  7
ARIAL
  0
MTEXT
  5
36C
330
313
100
AcDbEntity
 67
1
  8
A-NOTAS
100
AcDbMText
 10
556.0
 20
217.49999999999997
 30
0.0
 40
2.0
 41
148.0
 71
1
  1
7.- UNIONES SOLDADAS Y VERIFICACIÓN DE PERFILES SEGÚN MEMORIA DE CÁLCULO (PD).
  7
ARIAL
  0
MTEXT
  5
36D
330
313
100
AcDbEntity
 67
1
  8
A-NOTAS
100
AcDbMText
 10
556.0
 20
213.49999999999997
 30
0.0
 40
2.0
 41
148.0
 71
1
  1
8.- MATERIALES, PROTECCIÓN ANTICORROSIVA Y ESPECIFICACIONES SEGÚN LÁMINA C06.
  7
ARIAL
  0
MTEXT
  5
36E
330
313
100
AcDbEntity
 67
1
  8
A-NOTAS
100
AcDbMText
 10
556.0
 20
209.49999999999997
 30
0.0
 40
2.0
 41
148.0
 71
1
  1
[PR] = NOTA TOMADA DEL PROYECTO DE REFERENCIA, PENDIENTE DE REVISIÓN.
  7
ARIAL
  0
INSERT
  5
3B6
330
313
100
AcDbEntity
 67
1
  8
A-CAJETIN
100
AcDbBlockReference
 66
1
  2
CAJETIN_A1
 10
711.0
 20
10.0
 30
0.0
  0
ATTRIB
  5
3B8
330
313
100
AcDbEntity
 67
1
  8
A-CAJETIN-TXT
100
AcDbText
 10
771.0
 20
261.6
 30
0.0
 40
3.2
  1
CivilCon Diseño y Construcción SRLTDA
  7
ARIAL
 72
1
 11
771.0
 21
261.6
 31
0.0
100
AcDbAttribute
  2
EMPRESA
 70
0
 74
3
 71
1
 72
0
 11
771.0
 21
261.6
 31
0.0
  0
ATTRIB
  5
3B9
330
313
100
AcDbEntity
 67
1
  8
A-CAJETIN-TXT
100
AcDbText
 10
771.0
 20
255.6
 30
0.0
 40
2.5
  1
Céd. Jurídica: 3-102-762712
  7
ARIAL
 72
1
 11
771.0
 21
255.6
 31
0.0
100
AcDbAttribute
  2
EMPRESA_CED
 70
0
 74
3
 71
1
 72
0
 11
771.0
 21
255.6
 31
0.0
  0
ATTRIB
  5
3BA
330
313
100
AcDbEntity
 67
1
  8
A-CAJETIN-TXT
100
AcDbText
 10
714.0
 20
240.1
 30
0.0
 40
2.6
  1
DIRECTOR TÉCNICO:
  7
ARIAL
 11
714.0
 21
240.1
 31
0.0
100
AcDbAttribute
  2
PROF_1
 70
0
 74
3
 71
1
 72
0
 11
714.0
 21
240.1
 31
0.0
  0
ATTRIB
  5
3BB
330
313
100
AcDbEntity
 67
1
  8
A-CAJETIN-TXT
100
AcDbText
 10
714.0
 20
235.6
 30
0.0
 40
2.6
  1
Steven Viales (Civil) IC-40759
  7
ARIAL
 11
714.0
 21
235.6
 31
0.0
100
AcDbAttribute
  2
PROF_2
 70
0
 74
3
 71
1
 72
0
 11
714.0
 21
235.6
 31
0.0
  0
ATTRIB
  5
3BC
330
313
100
AcDbEntity
 67
1
  8
A-CAJETIN-TXT
100
AcDbText
 10
714.0
 20
231.1
 30
0.0
 40
2.6
  1
David Barrantes (Electricidad) IE-27499
  7
ARIAL
 11
714.0
 21
231.1
 31
0.0
100
AcDbAttribute
  2
PROF_3
 70
0
 74
3
 71
1
 72
0
 11
714.0
 21
231.1
 31
0.0
  0
ATTRIB
  5
3BD
330
313
100
AcDbEntity
 67
1
  8
A-CAJETIN-TXT
100
AcDbText
 10
714.0
 20
218.1
 30
0.0
 40
4.2
  1
VIVIENDA UNIFAMILIAR
  7
ARIAL
 11
714.0
 21
218.1
 31
0.0
100
AcDbAttribute
  2
PROYECTO
 70
0
 74
3
 71
1
 72
0
 11
714.0
 21
218.1
 31
0.0
  0
ATTRIB
  5
3BE
330
313
100
AcDbEntity
 67
1
  8
A-CAJETIN-TXT
100
AcDbText
 10
714.0
 20
211.1
 30
0.0
 40
2.5
  1
DISTRITO 03 SANTIAGO, CANTÓN 05 SAN RAFAEL,
  7
ARIAL
 11
714.0
 21
211.1
 31
0.0
100
AcDbAttribute
  2
UBIC_1
 70
0
 74
3
 71
1
 72
0
 11
714.0
 21
211.1
 31
0.0
  0
ATTRIB
  5
3BF
330
313
100
AcDbEntity
 67
1
  8
A-CAJETIN-TXT
100
AcDbText
 10
714.0
 20
206.6
 30
0.0
 40
2.5
  1
PROVINCIA 04 HEREDIA, COSTA RICA.
  7
ARIAL
 11
714.0
 21
206.6
 31
0.0
100
AcDbAttribute
  2
UBIC_2
 70
0
 74
3
 71
1
 72
0
 11
714.0
 21
206.6
 31
0.0
  0
ATTRIB
  5
3C0
330
313
100
AcDbEntity
 67
1
  8
A-CAJETIN-TXT
100
AcDbText
 10
714.0
 20
202.1
 30
0.0
 40
2.5
  1

  7
ARIAL
 11
714.0
 21
202.1
 31
0.0
100
AcDbAttribute
  2
UBIC_3
 70
0
 74
3
 71
1
 72
0
 11
714.0
 21
202.1
 31
0.0
  0
ATTRIB
  5
3C1
330
313
100
AcDbEntity
 67
1
  8
A-CAJETIN-TXT
100
AcDbText
 10
714.0
 20
189.1
 30
0.0
 40
2.5
  1
FOLIO REAL: 4-041200-000
  7
ARIAL
 11
714.0
 21
189.1
 31
0.0
100
AcDbAttribute
  2
REG_1
 70
0
 74
3
 71
1
 72
0
 11
714.0
 21
189.1
 31
0.0
  0
ATTRIB
  5
3C2
330
313
100
AcDbEntity
 67
1
  8
A-CAJETIN-TXT
100
AcDbText
 10
714.0
 20
184.6
 30
0.0
 40
2.5
  1
PLANO CATASTRADO: 4-57389-2023
  7
ARIAL
 11
714.0
 21
184.6
 31
0.0
100
AcDbAttribute
  2
REG_2
 70
0
 74
3
 71
1
 72
0
 11
714.0
 21
184.6
 31
0.0
  0
ATTRIB
  5
3C3
330
313
100
AcDbEntity
 67
1
  8
A-CAJETIN-TXT
100
AcDbText
 10
714.0
 20
180.1
 30
0.0
 40
2.5
  1
ÁREA SEGÚN CATASTRO: 256 m²
  7
ARIAL
 11
714.0
 21
180.1
 31
0.0
100
AcDbAttribute
  2
REG_3
 70
0
 74
3
 71
1
 72
0
 11
714.0
 21
180.1
 31
0.0
  0
ATTRIB
  5
3C4
330
313
100
AcDbEntity
 67
1
  8
A-CAJETIN-TXT
100
AcDbText
 10
714.0
 20
167.1
 30
0.0
 40
5.0
  1
TECHO
  7
ARIAL
 11
714.0
 21
167.1
 31
0.0
100
AcDbAttribute
  2
CONT_TIT
 70
0
 74
3
 71
1
 72
0
 11
714.0
 21
167.1
 31
0.0
  0
ATTRIB
  5
3C5
330
313
100
AcDbEntity
 67
1
  8
A-CAJETIN-TXT
100
AcDbText
 10
714.0
 20
159.6
 30
0.0
 40
3.0
  1
PLANTA DE TECHO.
  7
ARIAL
 11
714.0
 21
159.6
 31
0.0
100
AcDbAttribute
  2
CONT_1
 70
0
 74
3
 71
1
 72
0
 11
714.0
 21
159.6
 31
0.0
  0
ATTRIB
  5
3C6
330
313
100
AcDbEntity
 67
1
  8
A-CAJETIN-TXT
100
AcDbText
 10
714.0
 20
154.1
 30
0.0
 40
3.0
  1
CERCHA TÍPICA CE-1.
  7
ARIAL
 11
714.0
 21
154.1
 31
0.0
100
AcDbAttribute
  2
CONT_2
 70
0
 74
3
 71
1
 72
0
 11
714.0
 21
154.1
 31
0.0
  0
ATTRIB
  5
3C7
330
313
100
AcDbEntity
 67
1
  8
A-CAJETIN-TXT
100
AcDbText
 10
714.0
 20
148.6
 30
0.0
 40
3.0
  1
SECCIÓN TÍPICA DE CUBIERTA.
  7
ARIAL
 11
714.0
 21
148.6
 31
0.0
100
AcDbAttribute
  2
CONT_3
 70
0
 74
3
 71
1
 72
0
 11
714.0
 21
148.6
 31
0.0
  0
ATTRIB
  5
3C8
330
313
100
AcDbEntity
 67
1
  8
A-CAJETIN-TXT
100
AcDbText
 10
714.0
 20
143.1
 30
0.0
 40
3.0
  1
SIMBOLOGÍA.
  7
ARIAL
 11
714.0
 21
143.1
 31
0.0
100
AcDbAttribute
  2
CONT_4
 70
0
 74
3
 71
1
 72
0
 11
714.0
 21
143.1
 31
0.0
  0
ATTRIB
  5
3C9
330
313
100
AcDbEntity
 67
1
  8
A-CAJETIN-TXT
100
AcDbText
 10
714.0
 20
137.6
 30
0.0
 40
3.0
  1
NOTAS.
  7
ARIAL
 11
714.0
 21
137.6
 31
0.0
100
AcDbAttribute
  2
CONT_5
 70
0
 74
3
 71
1
 72
0
 11
714.0
 21
137.6
 31
0.0
  0
ATTRIB
  5
3CA
330
313
100
AcDbEntity
 67
1
  8
A-CAJETIN-TXT
100
AcDbText
 10
714.0
 20
132.1
 30
0.0
 40
3.0
  1

  7
ARIAL
 11
714.0
 21
132.1
 31
0.0
100
AcDbAttribute
  2
CONT_6
 70
0
 74
3
 71
1
 72
0
 11
714.0
 21
132.1
 31
0.0
  0
ATTRIB
  5
3CB
330
313
100
AcDbEntity
 67
1
  8
A-CAJETIN-TXT
100
AcDbText
 10
736.0
 20
122.1
 30
0.0
 40
2.2
  1
1:50 / INDICADAS
  7
ARIAL
 11
736.0
 21
122.1
 31
0.0
100
AcDbAttribute
  2
ESCALAS
 70
0
 74
3
 71
1
 72
0
 11
736.0
 21
122.1
 31
0.0
  0
ATTRIB
  5
3CC
330
313
100
AcDbEntity
 67
1
  8
A-CAJETIN-TXT
100
AcDbText
 10
717.0
 20
104.0
 30
0.0
 40
2.0
  1
0
  7
ARIAL
 72
1
 11
717.0
 21
104.0
 31
0.0
100
AcDbAttribute
  2
REV0_N
 70
0
 74
2
 71
1
 72
0
 11
717.0
 21
104.0
 31
0.0
  0
ATTRIB
  5
3CD
330
313
100
AcDbEntity
 67
1
  8
A-CAJETIN-TXT
100
AcDbText
 10
734.0
 20
104.0
 30
0.0
 40
2.0
  1
06-10-2026
  7
ARIAL
 72
1
 11
734.0
 21
104.0
 31
0.0
100
AcDbAttribute
  2
REV0_F
 70
0
 74
2
 71
1
 72
0
 11
734.0
 21
104.0
 31
0.0
  0
ATTRIB
  5
3CE
330
313
100
AcDbEntity
 67
1
  8
A-CAJETIN-TXT
100
AcDbText
 10
746.5
 20
104.0
 30
0.0
 40
2.0
  1
VERSIÓN DE TRABAJO PARA REVISIÓN
  7
ARIAL
 11
746.5
 21
104.0
 31
0.0
100
AcDbAttribute
  2
REV0_D
 70
0
 74
2
 71
1
 72
0
 11
746.5
 21
104.0
 31
0.0
  0
ATTRIB
  5
3CF
330
313
100
AcDbEntity
 67
1
  8
A-CAJETIN-TXT
100
AcDbText
 10
717.0
 20
98.8
 30
0.0
 40
2.0
  1
1
  7
ARIAL
 72
1
 11
717.0
 21
98.8
 31
0.0
100
AcDbAttribute
  2
REV1_N
 70
0
 74
2
 71
1
 72
0
 11
717.0
 21
98.8
 31
0.0
  0
ATTRIB
  5
3D0
330
313
100
AcDbEntity
 67
1
  8
A-CAJETIN-TXT
100
AcDbText
 10
734.0
 20
98.8
 30
0.0
 40
2.0
  1
06-10-2026
  7
ARIAL
 72
1
 11
734.0
 21
98.8
 31
0.0
100
AcDbAttribute
  2
REV1_F
 70
0
 74
2
 71
1
 72
0
 11
734.0
 21
98.8
 31
0.0
  0
ATTRIB
  5
3D1
330
313
100
AcDbEntity
 67
1
  8
A-CAJETIN-TXT
100
AcDbText
 10
746.5
 20
98.8
 30
0.0
 40
2.0
  1
C1 EJE C-1 HASTA CORONA; REFERENCIA A C06
  7
ARIAL
 11
746.5
 21
98.8
 31
0.0
100
AcDbAttribute
  2
REV1_D
 70
0
 74
2
 71
1
 72
0
 11
746.5
 21
98.8
 31
0.0
  0
ATTRIB
  5
3D2
330
313
100
AcDbEntity
 67
1
  8
A-CAJETIN-TXT
100
AcDbText
 10
717.0
 20
93.6
 30
0.0
 40
2.0
  1

  7
ARIAL
 72
1
 11
717.0
 21
93.6
 31
0.0
100
AcDbAttribute
  2
REV2_N
 70
0
 74
2
 71
1
 72
0
 11
717.0
 21
93.6
 31
0.0
  0
ATTRIB
  5
3D3
330
313
100
AcDbEntity
 67
1
  8
A-CAJETIN-TXT
100
AcDbText
 10
734.0
 20
93.6
 30
0.0
 40
2.0
  1

  7
ARIAL
 72
1
 11
734.0
 21
93.6
 31
0.0
100
AcDbAttribute
  2
REV2_F
 70
0
 74
2
 71
1
 72
0
 11
734.0
 21
93.6
 31
0.0
  0
ATTRIB
  5
3D4
330
313
100
AcDbEntity
 67
1
  8
A-CAJETIN-TXT
100
AcDbText
 10
746.5
 20
93.6
 30
0.0
 40
2.0
  1

  7
ARIAL
 11
746.5
 21
93.6
 31
0.0
100
AcDbAttribute
  2
REV2_D
 70
0
 74
2
 71
1
 72
0
 11
746.5
 21
93.6
 31
0.0
  0
ATTRIB
  5
3D5
330
313
100
AcDbEntity
 67
1
  8
A-CAJETIN-TXT
100
AcDbText
 10
771.0
 20
82.99999999999999
 30
0.0
 40
3.0
  1
VERSIÓN DE TRABAJO
  7
ARIAL
 72
1
 11
771.0
 21
82.99999999999999
 31
0.0
100
AcDbAttribute
  2
ESTADO_1
 70
0
 74
3
 71
1
 72
0
 11
771.0
 21
82.99999999999999
 31
0.0
  0
ATTRIB
  5
3D6
330
313
100
AcDbEntity
 67
1
  8
A-CAJETIN-TXT
100
AcDbText
 10
771.0
 20
77.99999999999999
 30
0.0
 40
2.4
  1
NO APTA PARA CONSTRUCCIÓN NI TRÁMITE
  7
ARIAL
 72
1
 11
771.0
 21
77.99999999999999
 31
0.0
100
AcDbAttribute
  2
ESTADO_2
 70
0
 74
3
 71
1
 72
0
 11
771.0
 21
77.99999999999999
 31
0.0
  0
ATTRIB
  5
3D7
330
313
100
AcDbEntity
 67
1
  8
A-CAJETIN-TXT
100
AcDbText
 10
744.0
 20
49.999999999999986
 30
0.0
 40
5.0
  1
COSTA RICA
  7
ARIAL
 72
1
 11
744.0
 21
49.999999999999986
 31
0.0
100
AcDbAttribute
  2
LUGAR
 70
0
 74
2
 71
1
 72
0
 11
744.0
 21
49.999999999999986
 31
0.0
  0
ATTRIB
  5
3D8
330
313
100
AcDbEntity
 67
1
  8
A-CAJETIN-TXT
100
AcDbText
 10
804.0
 20
49.999999999999986
 30
0.0
 40
14.0
  1
C04
  7
ARIAL
 72
1
 11
804.0
 21
49.999999999999986
 31
0.0
100
AcDbAttribute
  2
LAMINA
 70
0
 74
2
 71
1
 72
0
 11
804.0
 21
49.999999999999986
 31
0.0
  0
ATTRIB
  5
3D9
330
313
100
AcDbEntity
 67
1
  8
A-CAJETIN-TXT
100
AcDbText
 10
744.0
 20
23.499999999999993
 30
0.0
 40
6.0
  1
OCT 2026
  7
ARIAL
 72
1
 11
744.0
 21
23.499999999999993
 31
0.0
100
AcDbAttribute
  2
FECHA
 70
0
 74
2
 71
1
 72
0
 11
744.0
 21
23.499999999999993
 31
0.0
  0
ATTRIB
  5
3DA
330
313
100
AcDbEntity
 67
1
  8
A-CAJETIN-TXT
100
AcDbText
 10
815.0
 20
23.499999999999993
 30
0.0
 40
9.0
  1
--
  7
ARIAL
 72
1
 11
815.0
 21
23.499999999999993
 31
0.0
100
AcDbAttribute
  2
TOTAL
 70
0
 74
2
 71
1
 72
0
 11
815.0
 21
23.499999999999993
 31
0.0
  0
SEQEND
  5
3B7
330
3B6
100
AcDbEntity
 67
1
  8
A-CAJETIN
  0
ENDSEC
  0
SECTION
  2
OBJECTS
  0
DICTIONARY
  5
A
330
0
100
AcDbDictionary
281
1
  3
ACAD_COLOR
350
B
  3
ACAD_GROUP
350
C
  3
ACAD_LAYOUT
350
D
  3
ACAD_MATERIAL
350
E
  3
ACAD_MLEADERSTYLE
350
F
  3
ACAD_MLINESTYLE
350
10
  3
ACAD_PLOTSETTINGS
350
11
  3
ACAD_PLOTSTYLENAME
350
12
  3
ACAD_SCALELIST
350
14
  3
ACAD_TABLESTYLE
350
15
  3
ACAD_VISUALSTYLE
350
16
  3
EZDXF_META
350
2D
  0
DICTIONARY
  5
B
330
A
100
AcDbDictionary
281
1
  0
DICTIONARY
  5
C
330
A
100
AcDbDictionary
281
1
  0
DICTIONARY
  5
D
330
A
100
AcDbDictionary
281
1
  3
Model
350
1A
  3
Layout1
350
1E
  3
C04-TECHO
350
316
  0
DICTIONARY
  5
E
330
A
100
AcDbDictionary
281
1
  3
ByBlock
350
1F
  3
ByLayer
350
20
  3
Global
350
21
  0
DICTIONARY
  5
F
330
A
100
AcDbDictionary
281
1
  3
Standard
350
2C
  0
DICTIONARY
  5
10
330
A
100
AcDbDictionary
281
1
  3
Standard
350
22
  0
DICTIONARY
  5
11
330
A
100
AcDbDictionary
281
1
  0
ACDBDICTIONARYWDFLT
  5
12
330
A
100
AcDbDictionary
281
1
  3
Normal
350
13
100
AcDbDictionaryWithDefault
340
13
  0
ACDBPLACEHOLDER
  5
13
330
12
  0
DICTIONARY
  5
14
330
A
100
AcDbDictionary
281
1
  0
DICTIONARY
  5
15
330
A
100
AcDbDictionary
281
1
  0
DICTIONARY
  5
16
330
A
100
AcDbDictionary
281
1
  3
2dWireframe
350
5A
  3
Basic
350
5B
  3
Brighten
350
5C
  3
ColorChange
350
5D
  3
Conceptual
350
5E
  3
Dim
350
5F
  3
EdgeColorOff
350
60
  3
Facepattern
350
61
  3
Flat
350
62
  3
FlatWithEdges
350
63
  3
Gouraud
350
64
  3
GouraudWithEdges
350
65
  3
Hidden
350
66
  3
JitterOff
350
67
  3
Linepattern
350
68
  3
Modeling
350
69
  3
OverhangOff
350
6A
  3
Realistic
350
6B
  3
Shaded
350
6C
  3
Shaded with edges
350
6D
  3
Shades of Gray
350
6E
  3
Sketchy
350
6F
  3
Thicken
350
70
  3
Wireframe
350
71
  3
X-Ray
350
72
  0
LAYOUT
  5
1A
330
D
100
AcDbPlotSettings
  1

  4
A3
  6

 40
7.5
 41
20.0
 42
7.5
 43
20.0
 44
420.0
 45
297.0
 46
0.0
 47
0.0
 48
0.0
 49
0.0
140
0.0
141
0.0
142
1.0
143
1.0
 70
1024
 72
1
 73
0
 74
5
  7

 75
16
 76
0
 77
2
 78
300
147
1.0
148
0.0
149
0.0
100
AcDbLayout
  1
Model
 70
1
 71
0
 10
0.0
 20
0.0
 11
420.0
 21
297.0
 12
0.0
 22
0.0
 32
0.0
 14
1e+20
 24
1e+20
 34
1e+20
 15
-1e+20
 25
-1e+20
 35
-1e+20
146
0.0
 13
0.0
 23
0.0
 33
0.0
 16
1.0
 26
0.0
 36
0.0
 17
0.0
 27
1.0
 37
0.0
 76
1
330
17
  0
LAYOUT
  5
1E
330
D
100
AcDbPlotSettings
  1

  4
A3
  6

 40
7.5
 41
20.0
 42
7.5
 43
20.0
 44
420.0
 45
297.0
 46
0.0
 47
0.0
 48
0.0
 49
0.0
140
0.0
141
0.0
142
1.0
143
1.0
 70
0
 72
1
 73
0
 74
5
  7

 75
16
 76
0
 77
2
 78
300
147
1.0
148
0.0
149
0.0
100
AcDbLayout
  1
Layout1
 70
1
 71
1
 10
0.0
 20
0.0
 11
420.0
 21
297.0
 12
0.0
 22
0.0
 32
0.0
 14
1e+20
 24
1e+20
 34
1e+20
 15
-1e+20
 25
-1e+20
 35
-1e+20
146
0.0
 13
0.0
 23
0.0
 33
0.0
 16
1.0
 26
0.0
 36
0.0
 17
0.0
 27
1.0
 37
0.0
 76
1
330
1B
  0
MATERIAL
  5
1F
102
{ACAD_REACTORS
330
E
102
}
330
E
100
AcDbMaterial
  1
ByBlock
  2

 70
0
 40
1.0
 71
1
 41
1.0
 91
-1023410177
 42
1.0
 72
1
  3

 73
1
 74
1
 75
1
 44
0.5
 73
0
 45
1.0
 46
1.0
 77
1
  4

 78
1
 79
1
170
1
 48
1.0
171
1
  6

172
1
173
1
174
1
140
1.0
141
1.0
175
1
  7

176
1
177
1
178
1
143
1.0
179
1
  8

270
1
271
1
272
1
145
1.0
146
1.0
273
1
  9

274
1
275
1
276
1
 42
1.0
 72
1
  3

 73
1
 74
1
 75
1
 94
63
  0
MATERIAL
  5
20
102
{ACAD_REACTORS
330
E
102
}
330
E
100
AcDbMaterial
  1
ByLayer
  2

 70
0
 40
1.0
 71
1
 41
1.0
 91
-1023410177
 42
1.0
 72
1
  3

 73
1
 74
1
 75
1
 44
0.5
 73
0
 45
1.0
 46
1.0
 77
1
  4

 78
1
 79
1
170
1
 48
1.0
171
1
  6

172
1
173
1
174
1
140
1.0
141
1.0
175
1
  7

176
1
177
1
178
1
143
1.0
179
1
  8

270
1
271
1
272
1
145
1.0
146
1.0
273
1
  9

274
1
275
1
276
1
 42
1.0
 72
1
  3

 73
1
 74
1
 75
1
 94
63
  0
MATERIAL
  5
21
102
{ACAD_REACTORS
330
E
102
}
330
E
100
AcDbMaterial
  1
Global
  2

 70
0
 40
1.0
 71
1
 41
1.0
 91
-1023410177
 42
1.0
 72
1
  3

 73
1
 74
1
 75
1
 44
0.5
 73
0
 45
1.0
 46
1.0
 77
1
  4

 78
1
 79
1
170
1
 48
1.0
171
1
  6

172
1
173
1
174
1
140
1.0
141
1.0
175
1
  7

176
1
177
1
178
1
143
1.0
179
1
  8

270
1
271
1
272
1
145
1.0
146
1.0
273
1
  9

274
1
275
1
276
1
 42
1.0
 72
1
  3

 73
1
 74
1
 75
1
 94
63
  0
MLINESTYLE
  5
22
102
{ACAD_REACTORS
330
10
102
}
330
10
100
AcDbMlineStyle
  2
Standard
 70
0
  3

 62
256
 51
90.0
 52
90.0
 71
2
 49
0.5
 62
256
  6
BYLAYER
 49
-0.5
 62
256
  6
BYLAYER
  0
MLEADERSTYLE
  5
2C
102
{ACAD_REACTORS
330
F
102
}
330
F
100
AcDbMLeaderStyle
179
2
170
2
171
1
172
0
 90
2
 40
0.0
 41
0.0
173
1
 91
-1056964608
 92
-2
290
1
 42
2.0
291
1
 43
8.0
  3
Standard
 44
4.0
300

342
29
174
1
175
1
176
0
178
1
 93
-1056964608
 45
4.0
292
0
297
0
 46
4.0
 94
-1056964608
 47
1.0
 49
1.0
140
1.0
294
1
141
0.0
177
0
142
1.0
295
0
296
0
143
3.75
271
0
272
9
273
9
  0
DICTIONARY
  5
2D
330
A
100
AcDbDictionary
280
1
281
1
  3
CREATED_BY_EZDXF
350
2E
  3
WRITTEN_BY_EZDXF
350
3DD
  0
DICTIONARYVAR
  5
2E
330
2D
100
DictionaryVariables
280
0
  1
1.4.4 @ 2026-10-06T21:51:52.931480+00:00
  0
VISUALSTYLE
  5
5A
102
{ACAD_REACTORS
330
16
102
}
330
16
100
AcDbVisualStyle
  2
2dWireframe
 70
4
177
3
291
0
 70
58
 90
2
176
1
 90
2
176
1
 90
0
176
1
 90
0
176
1
 40
0.6
176
1
 40
30.0
176
1
 62
7
420
16777215
176
1
 90
1
176
1
 90
4
176
1
 62
7
176
1
 62
257
176
1
 90
1
176
1
 90
1
176
1
 40
1.0
176
1
 90
8
176
1
 62
7
176
1
 40
1.0
176
1
 90
1
176
1
 90
6
176
1
 90
2
176
1
 62
7
176
1
 90
5
176
1
 90
0
176
1
 90
0
176
1
290
0
176
1
 90
1
176
1
 40
0.0
176
1
 90
0
176
1
290
1
176
1
290
1
176
1
290
0
176
1
290
0
176
1
290
0
176
1
290
0
176
1
290
0
176
1
290
0
176
1
290
0
176
1
 90
50
176
1
 40
0.0
176
1
 40
1.0
176
1
 90
0
176
1
 62
18
420
0
176
1
 90
50
176
1
 90
3
176
1
 62
5
420
255
176
1
290
0
176
1
 90
50
176
1
 90
50
176
1
 90
50
176
1
290
0
176
1
 90
50
176
1
 62
256
176
0
 40
1.0
176
0
 90
2
176
1
  1
strokes_ogs.tif
176
1
290
0
176
1
 40
1.0
176
1
 40
1.0
176
1
  0
VISUALSTYLE
  5
5B
102
{ACAD_REACTORS
330
16
102
}
330
16
100
AcDbVisualStyle
  2
Basic
 70
7
177
3
291
1
 70
58
 90
2
176
1
 90
2
176
1
 90
0
176
1
 90
1
176
1
 40
0.6
176
1
 40
30.0
176
1
 62
7
420
16777215
176
1
 90
1
176
1
 90
4
176
1
 62
7
176
1
 62
257
176
1
 90
1
176
1
 90
1
176
1
 40
1.0
176
1
 90
8
176
1
 62
7
176
1
 40
1.0
176
1
 90
1
176
1
 90
6
176
1
 90
2
176
1
 62
7
176
1
 90
5
176
1
 90
0
176
1
 90
0
176
1
290
0
176
1
 90
1
176
1
 40
0.0
176
1
 90
0
176
1
290
0
176
1
290
1
176
1
290
1
176
1
290
0
176
1
290
0
176
1
290
0
176
1
290
0
176
1
290
0
176
1
290
0
176
1
 90
50
176
1
 40
0.0
176
1
 40
1.0
176
1
 90
0
176
1
 62
18
420
0
176
1
 90
50
176
1
 90
3
176
1
 62
5
420
255
176
1
290
0
176
1
 90
50
176
1
 90
50
176
1
 90
50
176
1
290
0
176
1
 90
50
176
1
 62
256
176
0
 40
1.0
176
0
 90
2
176
1
  1
strokes_ogs.tif
176
1
290
0
176
1
 40
1.0
176
1
 40
1.0
176
1
  0
VISUALSTYLE
  5
5C
102
{ACAD_REACTORS
330
16
102
}
330
16
100
AcDbVisualStyle
  2
Brighten
 70
12
177
3
291
1
 70
58
 90
2
176
1
 90
2
176
1
 90
0
176
1
 90
2
176
1
 40
0.6
176
1
 40
30.0
176
1
 62
7
420
16777215
176
1
 90
1
176
1
 90
4
176
1
 62
7
176
1
 62
257
176
1
 90
1
176
1
 90
1
176
1
 40
1.0
176
1
 90
8
176
1
 62
7
176
1
 40
1.0
176
1
 90
1
176
1
 90
6
176
1
 90
2
176
1
 62
7
176
1
 90
5
176
1
 90
0
176
1
 90
0
176
1
290
0
176
1
 90
1
176
1
 40
0.0
176
1
 90
0
176
1
290
0
176
1
290
1
176
1
290
1
176
1
290
0
176
1
290
0
176
1
290
0
176
1
290
0
176
1
290
0
176
1
290
0
176
1
 90
50
176
1
 40
0.0
176
1
 40
1.0
176
1
 90
0
176
1
 62
18
420
0
176
1
 90
50
176
1
 90
3
176
1
 62
5
420
255
176
1
290
0
176
1
 90
50
176
1
 90
50
176
1
 90
50
176
1
290
0
176
1
 90
50
176
1
 62
256
176
0
 40
1.0
176
0
 90
2
176
1
  1
strokes_ogs.tif
176
1
290
0
176
1
 40
1.0
176
1
 40
1.0
176
1
  0
VISUALSTYLE
  5
5D
102
{ACAD_REACTORS
330
16
102
}
330
16
100
AcDbVisualStyle
  2
ColorChange
 70
16
177
3
291
1
 70
58
 90
2
176
1
 90
2
176
1
 90
0
176
1
 90
2
176
1
 40
0.6
176
1
 40
30.0
176
1
 62
7
420
16777215
176
1
 90
1
176
1
 90
4
176
1
 62
7
176
1
 62
257
176
1
 90
1
176
1
 90
1
176
1
 40
1.0
176
1
 90
8
176
1
 62
7
176
1
 40
1.0
176
1
 90
1
176
1
 90
6
176
1
 90
2
176
1
 62
7
176
1
 90
5
176
1
 90
0
176
1
 90
0
176
1
290
0
176
1
 90
1
176
1
 40
0.0
176
1
 90
0
176
1
290
0
176
1
290
1
176
1
290
1
176
1
290
0
176
1
290
0
176
1
290
0
176
1
290
0
176
1
290
0
176
1
290
0
176
1
 90
50
176
1
 40
0.0
176
1
 40
1.0
176
1
 90
0
176
1
 62
18
420
0
176
1
 90
50
176
1
 90
3
176
1
 62
5
420
255
176
1
290
0
176
1
 90
50
176
1
 90
50
176
1
 90
50
176
1
290
0
176
1
 90
50
176
1
 62
256
176
0
 40
1.0
176
0
 90
2
176
1
  1
strokes_ogs.tif
176
1
290
0
176
1
 40
1.0
176
1
 40
1.0
176
1
  0
VISUALSTYLE
  5
5E
102
{ACAD_REACTORS
330
16
102
}
330
16
100
AcDbVisualStyle
  2
Conceptual
 70
9
177
3
291
0
 70
58
 90
2
176
1
 90
2
176
1
 90
0
176
1
 90
3
176
1
 40
0.6
176
1
 40
30.0
176
1
 62
7
420
16777215
176
1
 90
1
176
1
 90
4
176
1
 62
7
176
1
 62
257
176
1
 90
1
176
1
 90
1
176
1
 40
1.0
176
1
 90
8
176
1
 62
7
176
1
 40
1.0
176
1
 90
1
176
1
 90
6
176
1
 90
2
176
1
 62
7
176
1
 90
5
176
1
 90
0
176
1
 90
0
176
1
290
0
176
1
 90
1
176
1
 40
0.0
176
1
 90
0
176
1
290
0
176
1
290
1
176
1
290
1
176
1
290
0
176
1
290
0
176
1
290
0
176
1
290
0
176
1
290
0
176
1
290
0
176
1
 90
50
176
1
 40
0.0
176
1
 40
1.0
176
1
 90
0
176
1
 62
18
420
0
176
1
 90
50
176
1
 90
3
176
1
 62
5
420
255
176
1
290
0
176
1
 90
50
176
1
 90
50
176
1
 90
50
176
1
290
0
176
1
 90
50
176
1
 62
256
176
0
 40
1.0
176
0
 90
2
176
1
  1
strokes_ogs.tif
176
1
290
0
176
1
 40
1.0
176
1
 40
1.0
176
1
  0
VISUALSTYLE
  5
5F
102
{ACAD_REACTORS
330
16
102
}
330
16
100
AcDbVisualStyle
  2
Dim
 70
11
177
3
291
1
 70
58
 90
2
176
1
 90
2
176
1
 90
0
176
1
 90
2
176
1
 40
0.6
176
1
 40
30.0
176
1
 62
7
420
16777215
176
1
 90
1
176
1
 90
4
176
1
 62
7
176
1
 62
257
176
1
 90
1
176
1
 90
1
176
1
 40
1.0
176
1
 90
8
176
1
 62
7
176
1
 40
1.0
176
1
 90
1
176
1
 90
6
176
1
 90
2
176
1
 62
7
176
1
 90
5
176
1
 90
0
176
1
 90
0
176
1
290
0
176
1
 90
1
176
1
 40
0.0
176
1
 90
0
176
1
290
0
176
1
290
1
176
1
290
1
176
1
290
0
176
1
290
0
176
1
290
0
176
1
290
0
176
1
290
0
176
1
290
0
176
1
 90
50
176
1
 40
0.0
176
1
 40
1.0
176
1
 90
0
176
1
 62
18
420
0
176
1
 90
50
176
1
 90
3
176
1
 62
5
420
255
176
1
290
0
176
1
 90
50
176
1
 90
50
176
1
 90
50
176
1
290
0
176
1
 90
50
176
1
 62
256
176
0
 40
1.0
176
0
 90
2
176
1
  1
strokes_ogs.tif
176
1
290
0
176
1
 40
1.0
176
1
 40
1.0
176
1
  0
VISUALSTYLE
  5
60
102
{ACAD_REACTORS
330
16
102
}
330
16
100
AcDbVisualStyle
  2
EdgeColorOff
 70
22
177
3
291
1
 70
58
 90
2
176
1
 90
2
176
1
 90
0
176
1
 90
2
176
1
 40
0.6
176
1
 40
30.0
176
1
 62
7
420
16777215
176
1
 90
1
176
1
 90
4
176
1
 62
7
176
1
 62
257
176
1
 90
1
176
1
 90
1
176
1
 40
1.0
176
1
 90
8
176
1
 62
7
176
1
 40
1.0
176
1
 90
1
176
1
 90
6
176
1
 90
2
176
1
 62
7
176
1
 90
5
176
1
 90
0
176
1
 90
0
176
1
290
0
176
1
 90
1
176
1
 40
0.0
176
1
 90
0
176
1
290
0
176
1
290
1
176
1
290
1
176
1
290
0
176
1
290
0
176
1
290
0
176
1
290
0
176
1
290
0
176
1
290
0
176
1
 90
50
176
1
 40
0.0
176
1
 40
1.0
176
1
 90
0
176
1
 62
18
420
0
176
1
 90
50
176
1
 90
3
176
1
 62
5
420
255
176
1
290
0
176
1
 90
50
176
1
 90
50
176
1
 90
50
176
1
290
0
176
1
 90
50
176
1
 62
256
176
0
 40
1.0
176
0
 90
2
176
1
  1
strokes_ogs.tif
176
1
290
0
176
1
 40
1.0
176
1
 40
1.0
176
1
  0
VISUALSTYLE
  5
61
102
{ACAD_REACTORS
330
16
102
}
330
16
100
AcDbVisualStyle
  2
Facepattern
 70
15
177
3
291
1
 70
58
 90
2
176
1
 90
2
176
1
 90
0
176
1
 90
2
176
1
 40
0.6
176
1
 40
30.0
176
1
 62
7
420
16777215
176
1
 90
1
176
1
 90
4
176
1
 62
7
176
1
 62
257
176
1
 90
1
176
1
 90
1
176
1
 40
1.0
176
1
 90
8
176
1
 62
7
176
1
 40
1.0
176
1
 90
1
176
1
 90
6
176
1
 90
2
176
1
 62
7
176
1
 90
5
176
1
 90
0
176
1
 90
0
176
1
290
0
176
1
 90
1
176
1
 40
0.0
176
1
 90
0
176
1
290
0
176
1
290
1
176
1
290
1
176
1
290
0
176
1
290
0
176
1
290
0
176
1
290
0
176
1
290
0
176
1
290
0
176
1
 90
50
176
1
 40
0.0
176
1
 40
1.0
176
1
 90
0
176
1
 62
18
420
0
176
1
 90
50
176
1
 90
3
176
1
 62
5
420
255
176
1
290
0
176
1
 90
50
176
1
 90
50
176
1
 90
50
176
1
290
0
176
1
 90
50
176
1
 62
256
176
0
 40
1.0
176
0
 90
2
176
1
  1
strokes_ogs.tif
176
1
290
0
176
1
 40
1.0
176
1
 40
1.0
176
1
  0
VISUALSTYLE
  5
62
102
{ACAD_REACTORS
330
16
102
}
330
16
100
AcDbVisualStyle
  2
Flat
 70
0
177
3
291
1
 70
58
 90
2
176
1
 90
2
176
1
 90
0
176
1
 90
2
176
1
 40
0.6
176
1
 40
30.0
176
1
 62
7
420
16777215
176
1
 90
1
176
1
 90
4
176
1
 62
7
176
1
 62
257
176
1
 90
1
176
1
 90
1
176
1
 40
1.0
176
1
 90
8
176
1
 62
7
176
1
 40
1.0
176
1
 90
1
176
1
 90
6
176
1
 90
2
176
1
 62
7
176
1
 90
5
176
1
 90
0
176
1
 90
0
176
1
290
0
176
1
 90
1
176
1
 40
0.0
176
1
 90
0
176
1
290
0
176
1
290
1
176
1
290
1
176
1
290
0
176
1
290
0
176
1
290
0
176
1
290
0
176
1
290
0
176
1
290
0
176
1
 90
50
176
1
 40
0.0
176
1
 40
1.0
176
1
 90
0
176
1
 62
18
420
0
176
1
 90
50
176
1
 90
3
176
1
 62
5
420
255
176
1
290
0
176
1
 90
50
176
1
 90
50
176
1
 90
50
176
1
290
0
176
1
 90
50
176
1
 62
256
176
0
 40
1.0
176
0
 90
2
176
1
  1
strokes_ogs.tif
176
1
290
0
176
1
 40
1.0
176
1
 40
1.0
176
1
  0
VISUALSTYLE
  5
63
102
{ACAD_REACTORS
330
16
102
}
330
16
100
AcDbVisualStyle
  2
FlatWithEdges
 70
1
177
3
291
1
 70
58
 90
2
176
1
 90
2
176
1
 90
0
176
1
 90
2
176
1
 40
0.6
176
1
 40
30.0
176
1
 62
7
420
16777215
176
1
 90
1
176
1
 90
4
176
1
 62
7
176
1
 62
257
176
1
 90
1
176
1
 90
1
176
1
 40
1.0
176
1
 90
8
176
1
 62
7
176
1
 40
1.0
176
1
 90
1
176
1
 90
6
176
1
 90
2
176
1
 62
7
176
1
 90
5
176
1
 90
0
176
1
 90
0
176
1
290
0
176
1
 90
1
176
1
 40
0.0
176
1
 90
0
176
1
290
0
176
1
290
1
176
1
290
1
176
1
290
0
176
1
290
0
176
1
290
0
176
1
290
0
176
1
290
0
176
1
290
0
176
1
 90
50
176
1
 40
0.0
176
1
 40
1.0
176
1
 90
0
176
1
 62
18
420
0
176
1
 90
50
176
1
 90
3
176
1
 62
5
420
255
176
1
290
0
176
1
 90
50
176
1
 90
50
176
1
 90
50
176
1
290
0
176
1
 90
50
176
1
 62
256
176
0
 40
1.0
176
0
 90
2
176
1
  1
strokes_ogs.tif
176
1
290
0
176
1
 40
1.0
176
1
 40
1.0
176
1
  0
VISUALSTYLE
  5
64
102
{ACAD_REACTORS
330
16
102
}
330
16
100
AcDbVisualStyle
  2
Gouraud
 70
2
177
3
291
1
 70
58
 90
2
176
1
 90
2
176
1
 90
0
176
1
 90
2
176
1
 40
0.6
176
1
 40
30.0
176
1
 62
7
420
16777215
176
1
 90
1
176
1
 90
4
176
1
 62
7
176
1
 62
257
176
1
 90
1
176
1
 90
1
176
1
 40
1.0
176
1
 90
8
176
1
 62
7
176
1
 40
1.0
176
1
 90
1
176
1
 90
6
176
1
 90
2
176
1
 62
7
176
1
 90
5
176
1
 90
0
176
1
 90
0
176
1
290
0
176
1
 90
1
176
1
 40
0.0
176
1
 90
0
176
1
290
0
176
1
290
1
176
1
290
1
176
1
290
0
176
1
290
0
176
1
290
0
176
1
290
0
176
1
290
0
176
1
290
0
176
1
 90
50
176
1
 40
0.0
176
1
 40
1.0
176
1
 90
0
176
1
 62
18
420
0
176
1
 90
50
176
1
 90
3
176
1
 62
5
420
255
176
1
290
0
176
1
 90
50
176
1
 90
50
176
1
 90
50
176
1
290
0
176
1
 90
50
176
1
 62
256
176
0
 40
1.0
176
0
 90
2
176
1
  1
strokes_ogs.tif
176
1
290
0
176
1
 40
1.0
176
1
 40
1.0
176
1
  0
VISUALSTYLE
  5
65
102
{ACAD_REACTORS
330
16
102
}
330
16
100
AcDbVisualStyle
  2
GouraudWithEdges
 70
3
177
3
291
1
 70
58
 90
2
176
1
 90
2
176
1
 90
0
176
1
 90
2
176
1
 40
0.6
176
1
 40
30.0
176
1
 62
7
420
16777215
176
1
 90
1
176
1
 90
4
176
1
 62
7
176
1
 62
257
176
1
 90
1
176
1
 90
1
176
1
 40
1.0
176
1
 90
8
176
1
 62
7
176
1
 40
1.0
176
1
 90
1
176
1
 90
6
176
1
 90
2
176
1
 62
7
176
1
 90
5
176
1
 90
0
176
1
 90
0
176
1
290
0
176
1
 90
1
176
1
 40
0.0
176
1
 90
0
176
1
290
0
176
1
290
1
176
1
290
1
176
1
290
0
176
1
290
0
176
1
290
0
176
1
290
0
176
1
290
0
176
1
290
0
176
1
 90
50
176
1
 40
0.0
176
1
 40
1.0
176
1
 90
0
176
1
 62
18
420
0
176
1
 90
50
176
1
 90
3
176
1
 62
5
420
255
176
1
290
0
176
1
 90
50
176
1
 90
50
176
1
 90
50
176
1
290
0
176
1
 90
50
176
1
 62
256
176
0
 40
1.0
176
0
 90
2
176
1
  1
strokes_ogs.tif
176
1
290
0
176
1
 40
1.0
176
1
 40
1.0
176
1
  0
VISUALSTYLE
  5
66
102
{ACAD_REACTORS
330
16
102
}
330
16
100
AcDbVisualStyle
  2
Hidden
 70
6
177
3
291
0
 70
58
 90
2
176
1
 90
2
176
1
 90
0
176
1
 90
1
176
1
 40
0.6
176
1
 40
30.0
176
1
 62
7
420
16777215
176
1
 90
1
176
1
 90
4
176
1
 62
7
176
1
 62
257
176
1
 90
1
176
1
 90
1
176
1
 40
1.0
176
1
 90
8
176
1
 62
7
176
1
 40
1.0
176
1
 90
1
176
1
 90
6
176
1
 90
2
176
1
 62
7
176
1
 90
5
176
1
 90
0
176
1
 90
0
176
1
290
0
176
1
 90
1
176
1
 40
0.0
176
1
 90
0
176
1
290
0
176
1
290
1
176
1
290
1
176
1
290
0
176
1
290
0
176
1
290
0
176
1
290
0
176
1
290
0
176
1
290
0
176
1
 90
50
176
1
 40
0.0
176
1
 40
1.0
176
1
 90
0
176
1
 62
18
420
0
176
1
 90
50
176
1
 90
3
176
1
 62
5
420
255
176
1
290
0
176
1
 90
50
176
1
 90
50
176
1
 90
50
176
1
290
0
176
1
 90
50
176
1
 62
256
176
0
 40
1.0
176
0
 90
2
176
1
  1
strokes_ogs.tif
176
1
290
0
176
1
 40
1.0
176
1
 40
1.0
176
1
  0
VISUALSTYLE
  5
67
102
{ACAD_REACTORS
330
16
102
}
330
16
100
AcDbVisualStyle
  2
JitterOff
 70
20
177
3
291
1
 70
58
 90
2
176
1
 90
2
176
1
 90
0
176
1
 90
2
176
1
 40
0.6
176
1
 40
30.0
176
1
 62
7
420
16777215
176
1
 90
1
176
1
 90
4
176
1
 62
7
176
1
 62
257
176
1
 90
1
176
1
 90
1
176
1
 40
1.0
176
1
 90
8
176
1
 62
7
176
1
 40
1.0
176
1
 90
1
176
1
 90
6
176
1
 90
2
176
1
 62
7
176
1
 90
5
176
1
 90
0
176
1
 90
0
176
1
290
0
176
1
 90
1
176
1
 40
0.0
176
1
 90
0
176
1
290
0
176
1
290
1
176
1
290
1
176
1
290
0
176
1
290
0
176
1
290
0
176
1
290
0
176
1
290
0
176
1
290
0
176
1
 90
50
176
1
 40
0.0
176
1
 40
1.0
176
1
 90
0
176
1
 62
18
420
0
176
1
 90
50
176
1
 90
3
176
1
 62
5
420
255
176
1
290
0
176
1
 90
50
176
1
 90
50
176
1
 90
50
176
1
290
0
176
1
 90
50
176
1
 62
256
176
0
 40
1.0
176
0
 90
2
176
1
  1
strokes_ogs.tif
176
1
290
0
176
1
 40
1.0
176
1
 40
1.0
176
1
  0
VISUALSTYLE
  5
68
102
{ACAD_REACTORS
330
16
102
}
330
16
100
AcDbVisualStyle
  2
Linepattern
 70
14
177
3
291
1
 70
58
 90
2
176
1
 90
2
176
1
 90
0
176
1
 90
2
176
1
 40
0.6
176
1
 40
30.0
176
1
 62
7
420
16777215
176
1
 90
1
176
1
 90
4
176
1
 62
7
176
1
 62
257
176
1
 90
1
176
1
 90
1
176
1
 40
1.0
176
1
 90
8
176
1
 62
7
176
1
 40
1.0
176
1
 90
1
176
1
 90
6
176
1
 90
2
176
1
 62
7
176
1
 90
5
176
1
 90
0
176
1
 90
0
176
1
290
0
176
1
 90
1
176
1
 40
0.0
176
1
 90
0
176
1
290
0
176
1
290
1
176
1
290
1
176
1
290
0
176
1
290
0
176
1
290
0
176
1
290
0
176
1
290
0
176
1
290
0
176
1
 90
50
176
1
 40
0.0
176
1
 40
1.0
176
1
 90
0
176
1
 62
18
420
0
176
1
 90
50
176
1
 90
3
176
1
 62
5
420
255
176
1
290
0
176
1
 90
50
176
1
 90
50
176
1
 90
50
176
1
290
0
176
1
 90
50
176
1
 62
256
176
0
 40
1.0
176
0
 90
2
176
1
  1
strokes_ogs.tif
176
1
290
0
176
1
 40
1.0
176
1
 40
1.0
176
1
  0
VISUALSTYLE
  5
69
102
{ACAD_REACTORS
330
16
102
}
330
16
100
AcDbVisualStyle
  2
Modeling
 70
10
177
3
291
0
 70
58
 90
2
176
1
 90
2
176
1
 90
0
176
1
 90
2
176
1
 40
0.6
176
1
 40
30.0
176
1
 62
7
420
16777215
176
1
 90
1
176
1
 90
4
176
1
 62
7
176
1
 62
257
176
1
 90
1
176
1
 90
1
176
1
 40
1.0
176
1
 90
8
176
1
 62
7
176
1
 40
1.0
176
1
 90
1
176
1
 90
6
176
1
 90
2
176
1
 62
7
176
1
 90
5
176
1
 90
0
176
1
 90
0
176
1
290
0
176
1
 90
1
176
1
 40
0.0
176
1
 90
0
176
1
290
0
176
1
290
1
176
1
290
1
176
1
290
0
176
1
290
0
176
1
290
0
176
1
290
0
176
1
290
0
176
1
290
0
176
1
 90
50
176
1
 40
0.0
176
1
 40
1.0
176
1
 90
0
176
1
 62
18
420
0
176
1
 90
50
176
1
 90
3
176
1
 62
5
420
255
176
1
290
0
176
1
 90
50
176
1
 90
50
176
1
 90
50
176
1
290
0
176
1
 90
50
176
1
 62
256
176
0
 40
1.0
176
0
 90
2
176
1
  1
strokes_ogs.tif
176
1
290
0
176
1
 40
1.0
176
1
 40
1.0
176
1
  0
VISUALSTYLE
  5
6A
102
{ACAD_REACTORS
330
16
102
}
330
16
100
AcDbVisualStyle
  2
OverhangOff
 70
21
177
3
291
1
 70
58
 90
2
176
1
 90
2
176
1
 90
0
176
1
 90
2
176
1
 40
0.6
176
1
 40
30.0
176
1
 62
7
420
16777215
176
1
 90
1
176
1
 90
4
176
1
 62
7
176
1
 62
257
176
1
 90
1
176
1
 90
1
176
1
 40
1.0
176
1
 90
8
176
1
 62
7
176
1
 40
1.0
176
1
 90
1
176
1
 90
6
176
1
 90
2
176
1
 62
7
176
1
 90
5
176
1
 90
0
176
1
 90
0
176
1
290
0
176
1
 90
1
176
1
 40
0.0
176
1
 90
0
176
1
290
0
176
1
290
1
176
1
290
1
176
1
290
0
176
1
290
0
176
1
290
0
176
1
290
0
176
1
290
0
176
1
290
0
176
1
 90
50
176
1
 40
0.0
176
1
 40
1.0
176
1
 90
0
176
1
 62
18
420
0
176
1
 90
50
176
1
 90
3
176
1
 62
5
420
255
176
1
290
0
176
1
 90
50
176
1
 90
50
176
1
 90
50
176
1
290
0
176
1
 90
50
176
1
 62
256
176
0
 40
1.0
176
0
 90
2
176
1
  1
strokes_ogs.tif
176
1
290
0
176
1
 40
1.0
176
1
 40
1.0
176
1
  0
VISUALSTYLE
  5
6B
102
{ACAD_REACTORS
330
16
102
}
330
16
100
AcDbVisualStyle
  2
Realistic
 70
8
177
3
291
0
 70
58
 90
2
176
1
 90
2
176
1
 90
0
176
1
 90
2
176
1
 40
0.6
176
1
 40
30.0
176
1
 62
7
420
16777215
176
1
 90
1
176
1
 90
4
176
1
 62
7
176
1
 62
257
176
1
 90
1
176
1
 90
1
176
1
 40
1.0
176
1
 90
8
176
1
 62
7
176
1
 40
1.0
176
1
 90
1
176
1
 90
6
176
1
 90
2
176
1
 62
7
176
1
 90
5
176
1
 90
0
176
1
 90
0
176
1
290
0
176
1
 90
1
176
1
 40
0.0
176
1
 90
0
176
1
290
0
176
1
290
1
176
1
290
1
176
1
290
0
176
1
290
0
176
1
290
0
176
1
290
0
176
1
290
0
176
1
290
0
176
1
 90
50
176
1
 40
0.0
176
1
 40
1.0
176
1
 90
0
176
1
 62
18
420
0
176
1
 90
50
176
1
 90
3
176
1
 62
5
420
255
176
1
290
0
176
1
 90
50
176
1
 90
50
176
1
 90
50
176
1
290
0
176
1
 90
50
176
1
 62
256
176
0
 40
1.0
176
0
 90
2
176
1
  1
strokes_ogs.tif
176
1
290
0
176
1
 40
1.0
176
1
 40
1.0
176
1
  0
VISUALSTYLE
  5
6C
102
{ACAD_REACTORS
330
16
102
}
330
16
100
AcDbVisualStyle
  2
Shaded
 70
27
177
3
291
0
 70
58
 90
2
176
1
 90
2
176
1
 90
0
176
1
 90
2
176
1
 40
0.6
176
1
 40
30.0
176
1
 62
7
420
16777215
176
1
 90
1
176
1
 90
4
176
1
 62
7
176
1
 62
257
176
1
 90
1
176
1
 90
1
176
1
 40
1.0
176
1
 90
8
176
1
 62
7
176
1
 40
1.0
176
1
 90
1
176
1
 90
6
176
1
 90
2
176
1
 62
7
176
1
 90
5
176
1
 90
0
176
1
 90
0
176
1
290
0
176
1
 90
1
176
1
 40
0.0
176
1
 90
0
176
1
290
0
176
1
290
1
176
1
290
1
176
1
290
0
176
1
290
0
176
1
290
0
176
1
290
0
176
1
290
0
176
1
290
0
176
1
 90
50
176
1
 40
0.0
176
1
 40
1.0
176
1
 90
0
176
1
 62
18
420
0
176
1
 90
50
176
1
 90
3
176
1
 62
5
420
255
176
1
290
0
176
1
 90
50
176
1
 90
50
176
1
 90
50
176
1
290
0
176
1
 90
50
176
1
 62
256
176
0
 40
1.0
176
0
 90
2
176
1
  1
strokes_ogs.tif
176
1
290
0
176
1
 40
1.0
176
1
 40
1.0
176
1
  0
VISUALSTYLE
  5
6D
102
{ACAD_REACTORS
330
16
102
}
330
16
100
AcDbVisualStyle
  2
Shaded with edges
 70
26
177
3
291
0
 70
58
 90
2
176
1
 90
2
176
1
 90
0
176
1
 90
2
176
1
 40
0.6
176
1
 40
30.0
176
1
 62
7
420
16777215
176
1
 90
1
176
1
 90
4
176
1
 62
7
176
1
 62
257
176
1
 90
1
176
1
 90
1
176
1
 40
1.0
176
1
 90
8
176
1
 62
7
176
1
 40
1.0
176
1
 90
1
176
1
 90
6
176
1
 90
2
176
1
 62
7
176
1
 90
5
176
1
 90
0
176
1
 90
0
176
1
290
0
176
1
 90
1
176
1
 40
0.0
176
1
 90
0
176
1
290
0
176
1
290
1
176
1
290
1
176
1
290
0
176
1
290
0
176
1
290
0
176
1
290
0
176
1
290
0
176
1
290
0
176
1
 90
50
176
1
 40
0.0
176
1
 40
1.0
176
1
 90
0
176
1
 62
18
420
0
176
1
 90
50
176
1
 90
3
176
1
 62
5
420
255
176
1
290
0
176
1
 90
50
176
1
 90
50
176
1
 90
50
176
1
290
0
176
1
 90
50
176
1
 62
256
176
0
 40
1.0
176
0
 90
2
176
1
  1
strokes_ogs.tif
176
1
290
0
176
1
 40
1.0
176
1
 40
1.0
176
1
  0
VISUALSTYLE
  5
6E
102
{ACAD_REACTORS
330
16
102
}
330
16
100
AcDbVisualStyle
  2
Shades of Gray
 70
23
177
3
291
0
 70
58
 90
2
176
1
 90
2
176
1
 90
0
176
1
 90
2
176
1
 40
0.6
176
1
 40
30.0
176
1
 62
7
420
16777215
176
1
 90
1
176
1
 90
4
176
1
 62
7
176
1
 62
257
176
1
 90
1
176
1
 90
1
176
1
 40
1.0
176
1
 90
8
176
1
 62
7
176
1
 40
1.0
176
1
 90
1
176
1
 90
6
176
1
 90
2
176
1
 62
7
176
1
 90
5
176
1
 90
0
176
1
 90
0
176
1
290
0
176
1
 90
1
176
1
 40
0.0
176
1
 90
0
176
1
290
0
176
1
290
1
176
1
290
1
176
1
290
0
176
1
290
0
176
1
290
0
176
1
290
0
176
1
290
0
176
1
290
0
176
1
 90
50
176
1
 40
0.0
176
1
 40
1.0
176
1
 90
0
176
1
 62
18
420
0
176
1
 90
50
176
1
 90
3
176
1
 62
5
420
255
176
1
290
0
176
1
 90
50
176
1
 90
50
176
1
 90
50
176
1
290
0
176
1
 90
50
176
1
 62
256
176
0
 40
1.0
176
0
 90
2
176
1
  1
strokes_ogs.tif
176
1
290
0
176
1
 40
1.0
176
1
 40
1.0
176
1
  0
VISUALSTYLE
  5
6F
102
{ACAD_REACTORS
330
16
102
}
330
16
100
AcDbVisualStyle
  2
Sketchy
 70
24
177
3
291
0
 70
58
 90
2
176
1
 90
2
176
1
 90
0
176
1
 90
1
176
1
 40
0.6
176
1
 40
30.0
176
1
 62
7
420
16777215
176
1
 90
1
176
1
 90
4
176
1
 62
7
176
1
 62
257
176
1
 90
1
176
1
 90
1
176
1
 40
1.0
176
1
 90
8
176
1
 62
7
176
1
 40
1.0
176
1
 90
1
176
1
 90
6
176
1
 90
2
176
1
 62
7
176
1
 90
5
176
1
 90
0
176
1
 90
0
176
1
290
0
176
1
 90
1
176
1
 40
0.0
176
1
 90
0
176
1
290
0
176
1
290
1
176
1
290
1
176
1
290
0
176
1
290
0
176
1
290
0
176
1
290
0
176
1
290
0
176
1
290
0
176
1
 90
50
176
1
 40
0.0
176
1
 40
1.0
176
1
 90
0
176
1
 62
18
420
0
176
1
 90
50
176
1
 90
3
176
1
 62
5
420
255
176
1
290
0
176
1
 90
50
176
1
 90
50
176
1
 90
50
176
1
290
0
176
1
 90
50
176
1
 62
256
176
0
 40
1.0
176
0
 90
2
176
1
  1
strokes_ogs.tif
176
1
290
0
176
1
 40
1.0
176
1
 40
1.0
176
1
  0
VISUALSTYLE
  5
70
102
{ACAD_REACTORS
330
16
102
}
330
16
100
AcDbVisualStyle
  2
Thicken
 70
13
177
3
291
1
 70
58
 90
2
176
1
 90
2
176
1
 90
0
176
1
 90
2
176
1
 40
0.6
176
1
 40
30.0
176
1
 62
7
420
16777215
176
1
 90
1
176
1
 90
4
176
1
 62
7
176
1
 62
257
176
1
 90
1
176
1
 90
1
176
1
 40
1.0
176
1
 90
8
176
1
 62
7
176
1
 40
1.0
176
1
 90
1
176
1
 90
6
176
1
 90
2
176
1
 62
7
176
1
 90
5
176
1
 90
0
176
1
 90
0
176
1
290
0
176
1
 90
1
176
1
 40
0.0
176
1
 90
0
176
1
290
0
176
1
290
1
176
1
290
1
176
1
290
0
176
1
290
0
176
1
290
0
176
1
290
0
176
1
290
0
176
1
290
0
176
1
 90
50
176
1
 40
0.0
176
1
 40
1.0
176
1
 90
0
176
1
 62
18
420
0
176
1
 90
50
176
1
 90
3
176
1
 62
5
420
255
176
1
290
0
176
1
 90
50
176
1
 90
50
176
1
 90
50
176
1
290
0
176
1
 90
50
176
1
 62
256
176
0
 40
1.0
176
0
 90
2
176
1
  1
strokes_ogs.tif
176
1
290
0
176
1
 40
1.0
176
1
 40
1.0
176
1
  0
VISUALSTYLE
  5
71
102
{ACAD_REACTORS
330
16
102
}
330
16
100
AcDbVisualStyle
  2
Wireframe
 70
5
177
3
291
0
 70
58
 90
2
176
1
 90
2
176
1
 90
0
176
1
 90
0
176
1
 40
0.6
176
1
 40
30.0
176
1
 62
7
420
16777215
176
1
 90
1
176
1
 90
4
176
1
 62
7
176
1
 62
257
176
1
 90
1
176
1
 90
1
176
1
 40
1.0
176
1
 90
8
176
1
 62
7
176
1
 40
1.0
176
1
 90
1
176
1
 90
6
176
1
 90
2
176
1
 62
7
176
1
 90
5
176
1
 90
0
176
1
 90
0
176
1
290
0
176
1
 90
1
176
1
 40
0.0
176
1
 90
0
176
1
290
0
176
1
290
1
176
1
290
1
176
1
290
0
176
1
290
0
176
1
290
0
176
1
290
0
176
1
290
0
176
1
290
0
176
1
 90
50
176
1
 40
0.0
176
1
 40
1.0
176
1
 90
0
176
1
 62
18
420
0
176
1
 90
50
176
1
 90
3
176
1
 62
5
420
255
176
1
290
0
176
1
 90
50
176
1
 90
50
176
1
 90
50
176
1
290
0
176
1
 90
50
176
1
 62
256
176
0
 40
1.0
176
0
 90
2
176
1
  1
strokes_ogs.tif
176
1
290
0
176
1
 40
1.0
176
1
 40
1.0
176
1
  0
VISUALSTYLE
  5
72
102
{ACAD_REACTORS
330
16
102
}
330
16
100
AcDbVisualStyle
  2
X-Ray
 70
25
177
3
291
0
 70
58
 90
2
176
1
 90
2
176
1
 90
0
176
1
 90
2
176
1
 40
0.5
176
1
 40
30.0
176
1
 62
7
420
16777215
176
1
 90
1
176
1
 90
4
176
1
 62
7
176
1
 62
257
176
1
 90
1
176
1
 90
1
176
1
 40
1.0
176
1
 90
8
176
1
 62
7
176
1
 40
1.0
176
1
 90
1
176
1
 90
6
176
1
 90
2
176
1
 62
7
176
1
 90
5
176
1
 90
0
176
1
 90
0
176
1
290
0
176
1
 90
1
176
1
 40
0.0
176
1
 90
0
176
1
290
0
176
1
290
1
176
1
290
1
176
1
290
0
176
1
290
0
176
1
290
0
176
1
290
0
176
1
290
0
176
1
290
0
176
1
 90
50
176
1
 40
0.0
176
1
 40
1.0
176
1
 90
0
176
1
 62
18
420
0
176
1
 90
50
176
1
 90
3
176
1
 62
5
420
255
176
1
290
0
176
1
 90
50
176
1
 90
50
176
1
 90
50
176
1
290
0
176
1
 90
50
176
1
 62
256
176
0
 40
1.0
176
0
 90
2
176
1
  1
strokes_ogs.tif
176
1
290
0
176
1
 40
1.0
176
1
 40
1.0
176
1
  0
LAYOUT
  5
316
330
D
100
AcDbPlotSettings
  1

  2
DWG to PDF.pc3
  4
ezdxf_(841.00_x_594.00_MM)
  6

 40
0.0
 41
0.0
 42
0.0
 43
0.0
 44
841.0
 45
594.0
 46
0.0
 47
0.0
 48
0.0
 49
0.0
140
0.0
141
0.0
142
1.0
143
1.0
 70
672
 72
1
 73
0
 74
5
  7

 75
16
 76
0
 77
2
 78
300
147
1.0
148
0.0
149
0.0
100
AcDbLayout
  1
C04-TECHO
 70
1
 71
3
 10
-0.0
 20
-0.0
 11
841.0
 21
594.0
 12
0.0
 22
0.0
 32
0.0
 14
1e+20
 24
1e+20
 34
1e+20
 15
-1e+20
 25
-1e+20
 35
-1e+20
146
0.0
 13
0.0
 23
0.0
 33
0.0
 16
1.0
 26
0.0
 36
0.0
 17
0.0
 27
1.0
 37
0.0
 76
1
330
313
331
317
  0
DICTIONARYVAR
  5
3DD
330
2D
100
DictionaryVariables
280
0
  1
1.4.4 @ 2026-10-06T21:51:53.040245+00:00
  0
ENDSEC
  0
EOF
