  0
SECTION
  2
HEADER
  9
$ACADVER
  1
AC1032
  9
$ACADMAINTVER
 90
4
  9
$DWGCODEPAGE
  3
ANSI_1252
  9
$LASTSAVEDBY
  1
ezdxf
  9
$REQUIREDVERSIONS
160
0
  9
$INSBASE
 10
0.0
 20
0.0
 30
0.0
  9
$EXTMIN
 10
1e+20
 20
1e+20
 30
1e+20
  9
$EXTMAX
 10
-1e+20
 20
-1e+20
 30
-1e+20
  9
$LIMMIN
 10
0.0
 20
0.0
  9
$LIMMAX
 10
420.0
 20
297.0
  9
$ORTHOMODE
 70
0
  9
$REGENMODE
 70
1
  9
$FILLMODE
 70
1
  9
$QTEXTMODE
 70
0
  9
$MIRRTEXT
 70
1
  9
$LTSCALE
 40
1.0
  9
$ATTMODE
 70
1
  9
$TEXTSIZE
 40
2.5
  9
$TRACEWID
 40
1.0
  9
$TEXTSTYLE
  7
OpenSans
  9
$CLAYER
  8
0
  9
$CELTYPE
  6
ByLayer
  9
$CECOLOR
 62
256
  9
$CELTSCALE
 40
1.0
  9
$DISPSILH
 70
0
  9
$DIMSCALE
 40
1.0
  9
$DIMASZ
 40
0.175
  9
$DIMEXO
 40
0.125
  9
$DIMDLI
 40
3.75
  9
$DIMRND
 40
0.0
  9
$DIMDLE
 40
0.0
  9
$DIMEXE
 40
0.375
  9
$DIMTP
 40
0.0
  9
$DIMTM
 40
0.0
  9
$DIMTXT
 40
0.25
  9
$DIMCEN
 40
2.5
  9
$DIMTSZ
 40
0.0
  9
$DIMTOL
 70
0
  9
$DIMLIM
 70
0
  9
$DIMTIH
 70
0
  9
$DIMTOH
 70
0
  9
$DIMSE1
 70
0
  9
$DIMSE2
 70
0
  9
$DIMTAD
 70
1
  9
$DIMZIN
 70
12
  9
$DIMBLK
  1
ARCHTICK
  9
$DIMASO
 70
1
  9
$DIMSHO
 70
1
  9
$DIMPOST
  1

  9
$DIMAPOST
  1

  9
$DIMALT
 70
0
  9
$DIMALTD
 70
3
  9
$DIMALTF
 40
0.03937007874
  9
$DIMLFAC
 40
100.0
  9
$DIMTOFL
 70
1
  9
$DIMTVP
 40
0.0
  9
$DIMTIX
 70
0
  9
$DIMSOXD
 70
0
  9
$DIMSAH
 70
0
  9
$DIMBLK1
  1

  9
$DIMBLK2
  1

  9
$DIMSTYLE
  2
EZDXF
  9
$DIMCLRD
 70
0
  9
$DIMCLRE
 70
0
  9
$DIMCLRT
 70
0
  9
$DIMTFAC
 40
0.5
  9
$DIMGAP
 40
0.1
  9
$DIMJUST
 70
0
  9
$DIMSD1
 70
0
  9
$DIMSD2
 70
0
  9
$DIMTOLJ
 70
0
  9
$DIMTZIN
 70
8
  9
$DIMALTZ
 70
0
  9
$DIMALTTZ
 70
0
  9
$DIMUPT
 70
1
  9
$DIMDEC
 70
2
  9
$DIMTDEC
 70
2
  9
$DIMALTU
 70
2
  9
$DIMALTTD
 70
3
  9
$DIMTXSTY
  7
OpenSansCondensed-Light
  9
$DIMAUNIT
 70
0
  9
$DIMADEC
 70
2
  9
$DIMALTRND
 40
0.0
  9
$DIMAZIN
 70
3
  9
$DIMDSEP
 70
46
  9
$DIMATFIT
 70
3
  9
$DIMFRAC
 70
0
  9
$DIMLDRBLK
  1

  9
$DIMLUNIT
 70
2
  9
$DIMLWD
 70
-2
  9
$DIMLWE
 70
-2
  9
$DIMTMOVE
 70
2
  9
$DIMFXL
 40
1.0
  9
$DIMFXLON
 70
0
  9
$DIMJOGANG
 40
0.785398163397
  9
$DIMTFILL
 70
0
  9
$DIMTFILLCLR
 70
0
  9
$DIMARCSYM
 70
0
  9
$DIMLTYPE
  6

  9
$DIMLTEX1
  6

  9
$DIMLTEX2
  6

  9
$DIMTXTDIRECTION
 70
0
  9
$LUNITS
 70
2
  9
$LUPREC
 70
2
  9
$SKETCHINC
 40
1.0
  9
$FILLETRAD
 40
10.0
  9
$AUNITS
 70
1
  9
$AUPREC
 70
2
  9
$MENU
  1
.
  9
$ELEVATION
 40
0.0
  9
$PELEVATION
 40
0.0
  9
$THICKNESS
 40
0.0
  9
$LIMCHECK
 70
0
  9
$CHAMFERA
 40
0.0
  9
$CHAMFERB
 40
0.0
  9
$CHAMFERC
 40
0.0
  9
$CHAMFERD
 40
0.0
  9
$SKPOLY
 70
0
  9
$TDCREATE
 40
2461321.104861111
  9
$TDUCREATE
 40
2458532.153996898
  9
$TDUPDATE
 40
2461321.104861111
  9
$TDUUPDATE
 40
2458532.1544311
  9
$TDINDWG
 40
0.0
  9
$TDUSRTIMER
 40
0.0
  9
$USRTIMER
 70
1
  9
$ANGBASE
 50
0.0
  9
$ANGDIR
 70
0
  9
$PDMODE
 70
0
  9
$PDSIZE
 40
0.0
  9
$PLINEWID
 40
0.0
  9
$SPLFRAME
 70
0
  9
$SPLINETYPE
 70
6
  9
$SPLINESEGS
 70
8
  9
$HANDSEED
  5
23E
  9
$SURFTAB1
 70
6
  9
$SURFTAB2
 70
6
  9
$SURFTYPE
 70
6
  9
$SURFU
 70
6
  9
$SURFV
 70
6
  9
$UCSBASE
  2

  9
$UCSNAME
  2

  9
$UCSORG
 10
0.0
 20
0.0
 30
0.0
  9
$UCSXDIR
 10
1.0
 20
0.0
 30
0.0
  9
$UCSYDIR
 10
0.0
 20
1.0
 30
0.0
  9
$UCSORTHOREF
  2

  9
$UCSORTHOVIEW
 70
0
  9
$UCSORGTOP
 10
0.0
 20
0.0
 30
0.0
  9
$UCSORGBOTTOM
 10
0.0
 20
0.0
 30
0.0
  9
$UCSORGLEFT
 10
0.0
 20
0.0
 30
0.0
  9
$UCSORGRIGHT
 10
0.0
 20
0.0
 30
0.0
  9
$UCSORGFRONT
 10
0.0
 20
0.0
 30
0.0
  9
$UCSORGBACK
 10
0.0
 20
0.0
 30
0.0
  9
$PUCSBASE
  2

  9
$PUCSNAME
  2

  9
$PUCSORG
 10
0.0
 20
0.0
 30
0.0
  9
$PUCSXDIR
 10
1.0
 20
0.0
 30
0.0
  9
$PUCSYDIR
 10
0.0
 20
1.0
 30
0.0
  9
$PUCSORTHOREF
  2

  9
$PUCSORTHOVIEW
 70
0
  9
$PUCSORGTOP
 10
0.0
 20
0.0
 30
0.0
  9
$PUCSORGBOTTOM
 10
0.0
 20
0.0
 30
0.0
  9
$PUCSORGLEFT
 10
0.0
 20
0.0
 30
0.0
  9
$PUCSORGRIGHT
 10
0.0
 20
0.0
 30
0.0
  9
$PUCSORGFRONT
 10
0.0
 20
0.0
 30
0.0
  9
$PUCSORGBACK
 10
0.0
 20
0.0
 30
0.0
  9
$USERI1
 70
0
  9
$USERI2
 70
0
  9
$USERI3
 70
0
  9
$USERI4
 70
0
  9
$USERI5
 70
0
  9
$USERR1
 40
0.0
  9
$USERR2
 40
0.0
  9
$USERR3
 40
0.0
  9
$USERR4
 40
0.0
  9
$USERR5
 40
0.0
  9
$WORLDVIEW
 70
1
  9
$SHADEDGE
 70
3
  9
$SHADEDIF
 70
70
  9
$TILEMODE
 70
1
  9
$MAXACTVP
 70
64
  9
$PINSBASE
 10
0.0
 20
0.0
 30
0.0
  9
$PLIMCHECK
 70
0
  9
$PEXTMIN
 10
1e+20
 20
1e+20
 30
1e+20
  9
$PEXTMAX
 10
-1e+20
 20
-1e+20
 30
-1e+20
  9
$PLIMMIN
 10
-0.0
 20
-0.0
  9
$PLIMMAX
 10
841.0
 20
594.0
  9
$UNITMODE
 70
0
  9
$VISRETAIN
 70
1
  9
$PLINEGEN
 70
0
  9
$PSLTSCALE
 70
1
  9
$TREEDEPTH
 70
3020
  9
$CMLSTYLE
  2
Standard
  9
$CMLJUST
 70
0
  9
$CMLSCALE
 40
20.0
  9
$PROXYGRAPHICS
 70
1
  9
$MEASUREMENT
 70
1
  9
$CELWEIGHT
370
-1
  9
$ENDCAPS
280
0
  9
$JOINSTYLE
280
0
  9
$LWDISPLAY
290
1
  9
$INSUNITS
 70
6
  9
$HYPERLINKBASE
  1

  9
$STYLESHEET
  1

  9
$XEDIT
290
1
  9
$CEPSNTYPE
380
0
  9
$PSTYLEMODE
290
1
  9
$FINGERPRINTGUID
  2
{3A6FCAA8-88AB-4235-A420-2E5B417A1911}
  9
$VERSIONGUID
  2
{CF774389-0E69-40B5-AB34-FC1932FEDF1C}
  9
$EXTNAMES
290
1
  9
$PSVPSCALE
 40
0.0
  9
$OLESTARTUP
290
0
  9
$SORTENTS
280
127
  9
$INDEXCTL
280
0
  9
$HIDETEXT
280
1
  9
$XCLIPFRAME
280
1
  9
$HALOGAP
280
0
  9
$OBSCOLOR
 70
257
  9
$OBSLTYPE
280
0
  9
$INTERSECTIONDISPLAY
280
0
  9
$INTERSECTIONCOLOR
 70
257
  9
$DIMASSOC
280
2
  9
$PROJECTNAME
  1

  9
$CAMERADISPLAY
290
0
  9
$LENSLENGTH
 40
50.0
  9
$CAMERAHEIGHT
 40
0.0
  9
$STEPSPERSEC
 40
24.0
  9
$STEPSIZE
 40
100.0
  9
$3DDWFPREC
 40
2.0
  9
$PSOLWIDTH
 40
0.005
  9
$PSOLHEIGHT
 40
0.08
  9
$LOFTANG1
 40
1.570796326795
  9
$LOFTANG2
 40
1.570796326795
  9
$LOFTMAG1
 40
0.0
  9
$LOFTMAG2
 40
0.0
  9
$LOFTPARAM
 70
7
  9
$LOFTNORMALS
280
1
  9
$LATITUDE
 40
37.795
  9
$LONGITUDE
 40
-122.394
  9
$NORTHDIRECTION
 40
0.0
  9
$TIMEZONE
 70
-8000
  9
$LIGHTGLYPHDISPLAY
280
1
  9
$TILEMODELIGHTSYNCH
280
1
  9
$CMATERIAL
347
20
  9
$SOLIDHIST
280
0
  9
$SHOWHIST
280
1
  9
$DWFFRAME
280
2
  9
$DGNFRAME
280
2
  9
$REALWORLDSCALE
290
1
  9
$INTERFERECOLOR
 62
256
  9
$CSHADOW
280
0
  9
$SHADOWPLANELOCATION
 40
0.0
  0
ENDSEC
  0
SECTION
  2
CLASSES
  0
CLASS
  1
ACDBDICTIONARYWDFLT
  2
AcDbDictionaryWithDefault
  3
ObjectDBX Classes
 90
0
 91
0
280
0
281
0
  0
CLASS
  1
SUN
  2
AcDbSun
  3
SCENEOE
 90
1153
 91
0
280
0
281
0
  0
CLASS
  1
VISUALSTYLE
  2
AcDbVisualStyle
  3
ObjectDBX Classes
 90
4095
 91
0
280
0
281
0
  0
CLASS
  1
MATERIAL
  2
AcDbMaterial
  3
ObjectDBX Classes
 90
1153
 91
0
280
0
281
0
  0
CLASS
  1
SCALE
  2
AcDbScale
  3
ObjectDBX Classes
 90
1153
 91
0
280
0
281
0
  0
CLASS
  1
TABLESTYLE
  2
AcDbTableStyle
  3
ObjectDBX Classes
 90
4095
 91
0
280
0
281
0
  0
CLASS
  1
MLEADERSTYLE
  2
AcDbMLeaderStyle
  3
ACDB_MLEADERSTYLE_CLASS
 90
4095
 91
0
280
0
281
0
  0
CLASS
  1
DICTIONARYVAR
  2
AcDbDictionaryVar
  3
ObjectDBX Classes
 90
0
 91
0
280
0
281
0
  0
CLASS
  1
CELLSTYLEMAP
  2
AcDbCellStyleMap
  3
ObjectDBX Classes
 90
1152
 91
0
280
0
281
0
  0
CLASS
  1
MENTALRAYRENDERSETTINGS
  2
AcDbMentalRayRenderSettings
  3
SCENEOE
 90
1024
 91
0
280
0
281
0
  0
CLASS
  1
ACDBDETAILVIEWSTYLE
  2
AcDbDetailViewStyle
  3
ObjectDBX Classes
 90
1025
 91
0
280
0
281
0
  0
CLASS
  1
ACDBSECTIONVIEWSTYLE
  2
AcDbSectionViewStyle
  3
ObjectDBX Classes
 90
1025
 91
0
280
0
281
0
  0
CLASS
  1
RASTERVARIABLES
  2
AcDbRasterVariables
  3
ISM
 90
0
 91
0
280
0
281
0
  0
CLASS
  1
LAYOUT
  2
AcDbLayout
  3
ObjectDBX Classes
 90
0
 91
0
280
0
281
0
  0
CLASS
  1
ACDBPLACEHOLDER
  2
AcDbPlaceHolder
  3
ObjectDBX Classes
 90
0
 91
0
280
0
281
0
  0
ENDSEC
  0
SECTION
  2
TABLES
  0
TABLE
  2
VPORT
  5
8
330
0
100
AcDbSymbolTable
 70
1
  0
VPORT
  5
23
330
8
100
AcDbSymbolTableRecord
100
AcDbViewportTableRecord
  2
*Active
 70
0
 10
0.0
 20
0.0
 11
1.0
 21
1.0
 12
0.0
 22
0.0
 13
0.0
 23
0.0
 14
0.5
 24
0.5
 15
0.5
 25
0.5
 16
0.0
 26
0.0
 36
1.0
 17
0.0
 27
0.0
 37
0.0
 40
1000.0
 41
1.34
 42
50.0
 43
0.0
 44
0.0
 50
0.0
 51
0.0
 71
0
 72
1000
 73
1
 74
3
 75
0
 76
0
 77
0
 78
0
281
0
 65
0
146
0.0
  0
ENDTAB
  0
TABLE
  2
LTYPE
  5
2
330
0
100
AcDbSymbolTable
 70
21
  0
LTYPE
  5
24
330
2
100
AcDbSymbolTableRecord
100
AcDbLinetypeTableRecord
  2
ByBlock
 70
0
  3

 72
65
 73
0
 40
0.0
  0
LTYPE
  5
25
330
2
100
AcDbSymbolTableRecord
100
AcDbLinetypeTableRecord
  2
ByLayer
 70
0
  3

 72
65
 73
0
 40
0.0
  0
LTYPE
  5
26
330
2
100
AcDbSymbolTableRecord
100
AcDbLinetypeTableRecord
  2
Continuous
 70
0
  3

 72
65
 73
0
 40
0.0
  0
LTYPE
  5
2F
330
2
100
AcDbSymbolTableRecord
100
AcDbLinetypeTableRecord
  2
CENTER
 70
0
  3
Center ____ _ ____ _ ____ _ ____ _ ____ _ ____
 72
65
 73
4
 40
5.08
 49
3.175
 74
0
 49
-0.635
 74
0
 49
0.635
 74
0
 49
-0.635
 74
0
  0
LTYPE
  5
30
330
2
100
AcDbSymbolTableRecord
100
AcDbLinetypeTableRecord
  2
CENTERX2
 70
0
  3
Center (2x) ________  __  ________  __  ________
 72
65
 73
4
 40
8.89
 49
6.35
 74
0
 49
-0.635
 74
0
 49
1.27
 74
0
 49
-0.635
 74
0
  0
LTYPE
  5
31
330
2
100
AcDbSymbolTableRecord
100
AcDbLinetypeTableRecord
  2
CENTER2
 70
0
  3
Center (.5x) ____ _ ____ _ ____ _ ____ _ ____
 72
65
 73
4
 40
2.54
 49
1.587
 74
0
 49
-0.318
 74
0
 49
0.318
 74
0
 49
-0.318
 74
0
  0
LTYPE
  5
32
330
2
100
AcDbSymbolTableRecord
100
AcDbLinetypeTableRecord
  2
DASHED
 70
0
  3
Dashed __ __ __ __ __ __ __ __ __ __ __ __ __ _
 72
65
 73
2
 40
1.524
 49
1.27
 74
0
 49
-0.254
 74
0
  0
LTYPE
  5
33
330
2
100
AcDbSymbolTableRecord
100
AcDbLinetypeTableRecord
  2
DASHEDX2
 70
0
  3
Dashed (2x) ____  ____  ____  ____  ____  ____
 72
65
 73
2
 40
3.048
 49
2.54
 74
0
 49
-0.508
 74
0
  0
LTYPE
  5
34
330
2
100
AcDbSymbolTableRecord
100
AcDbLinetypeTableRecord
  2
DASHED2
 70
0
  3
Dashed (.5x) _ _ _ _ _ _ _ _ _ _ _ _ _ _
 72
65
 73
2
 40
0.762
 49
0.635
 74
0
 49
-0.127
 74
0
  0
LTYPE
  5
35
330
2
100
AcDbSymbolTableRecord
100
AcDbLinetypeTableRecord
  2
PHANTOM
 70
0
  3
Phantom ______  __  __  ______  __  __  ______
 72
65
 73
6
 40
6.35
 49
3.175
 74
0
 49
-0.635
 74
0
 49
0.635
 74
0
 49
-0.635
 74
0
 49
0.635
 74
0
 49
-0.635
 74
0
  0
LTYPE
  5
36
330
2
100
AcDbSymbolTableRecord
100
AcDbLinetypeTableRecord
  2
PHANTOMX2
 70
0
  3
Phantom (2x)____________    ____    ____    ____________
 72
65
 73
6
 40
10.795
 49
6.35
 74
0
 49
-0.635
 74
0
 49
1.27
 74
0
 49
-0.635
 74
0
 49
1.27
 74
0
 49
-0.635
 74
0
  0
LTYPE
  5
37
330
2
100
AcDbSymbolTableRecord
100
AcDbLinetypeTableRecord
  2
PHANTOM2
 70
0
  3
Phantom (.5x) ___ _ _ ___ _ _ ___ _ _ ___ _ _ ___
 72
65
 73
6
 40
3.175
 49
1.587
 74
0
 49
-0.318
 74
0
 49
0.318
 74
0
 49
-0.318
 74
0
 49
0.318
 74
0
 49
-0.318
 74
0
  0
LTYPE
  5
38
330
2
100
AcDbSymbolTableRecord
100
AcDbLinetypeTableRecord
  2
DASHDOT
 70
0
  3
Dash dot __ . __ . __ . __ . __ . __ . __ . __
 72
65
 73
4
 40
3.556
 49
2.54
 74
0
 49
-0.508
 74
0
 49
0.0
 74
0
 49
-0.508
 74
0
  0
LTYPE
  5
39
330
2
100
AcDbSymbolTableRecord
100
AcDbLinetypeTableRecord
  2
DASHDOTX2
 70
0
  3
Dash dot (2x) ____  .  ____  .  ____  .  ____
 72
65
 73
4
 40
6.096
 49
5.08
 74
0
 49
-0.508
 74
0
 49
0.0
 74
0
 49
-0.508
 74
0
  0
LTYPE
  5
3A
330
2
100
AcDbSymbolTableRecord
100
AcDbLinetypeTableRecord
  2
DASHDOT2
 70
0
  3
Dash dot (.5x) _ . _ . _ . _ . _ . _ . _ . _
 72
65
 73
4
 40
1.778
 49
1.27
 74
0
 49
-0.254
 74
0
 49
0.0
 74
0
 49
-0.254
 74
0
  0
LTYPE
  5
3B
330
2
100
AcDbSymbolTableRecord
100
AcDbLinetypeTableRecord
  2
DOT
 70
0
  3
Dot .  .  .  .  .  .  .  .  .  .  .  .  .  .  .  .
 72
65
 73
2
 40
0.508
 49
0.0
 74
0
 49
-0.508
 74
0
  0
LTYPE
  5
3C
330
2
100
AcDbSymbolTableRecord
100
AcDbLinetypeTableRecord
  2
DOTX2
 70
0
  3
Dot (2x) .    .    .    .    .    .    .    . 
 72
65
 73
2
 40
1.016
 49
0.0
 74
0
 49
-1.016
 74
0
  0
LTYPE
  5
3D
330
2
100
AcDbSymbolTableRecord
100
AcDbLinetypeTableRecord
  2
DOT2
 70
0
  3
Dot (.5) . . . . . . . . . . . . . . . . . . . 
 72
65
 73
2
 40
0.254
 49
0.0
 74
0
 49
-0.254
 74
0
  0
LTYPE
  5
3E
330
2
100
AcDbSymbolTableRecord
100
AcDbLinetypeTableRecord
  2
DIVIDE
 70
0
  3
Divide __ . . __ . . __ . . __ . . __ . . __
 72
65
 73
6
 40
4.064
 49
2.54
 74
0
 49
-0.508
 74
0
 49
0.0
 74
0
 49
-0.508
 74
0
 49
0.0
 74
0
 49
-0.508
 74
0
  0
LTYPE
  5
3F
330
2
100
AcDbSymbolTableRecord
100
AcDbLinetypeTableRecord
  2
DIVIDEX2
 70
0
  3
Divide (2x) ____  . .  ____  . .  ____  . .  ____
 72
65
 73
6
 40
6.604
 49
5.08
 74
0
 49
-0.508
 74
0
 49
0.0
 74
0
 49
-0.508
 74
0
 49
0.0
 74
0
 49
-0.508
 74
0
  0
LTYPE
  5
40
330
2
100
AcDbSymbolTableRecord
100
AcDbLinetypeTableRecord
  2
DIVIDE2
 70
0
  3
Divide(.5x) _ . _ . _ . _ . _ . _ . _ . _
 72
65
 73
6
 40
2.032
 49
1.27
 74
0
 49
-0.254
 74
0
 49
0.0
 74
0
 49
-0.254
 74
0
 49
0.0
 74
0
 49
-0.254
 74
0
  0
ENDTAB
  0
TABLE
  2
LAYER
  5
1
330
0
100
AcDbSymbolTable
 70
54
  0
LAYER
  5
27
330
1
100
AcDbSymbolTableRecord
100
AcDbLayerTableRecord
  2
0
 70
0
 62
7
  6
Continuous
370
-3
390
13
347
21
  0
LAYER
  5
28
330
1
100
AcDbSymbolTableRecord
100
AcDbLayerTableRecord
  2
Defpoints
 70
0
 62
7
  6
Continuous
290
0
370
-3
390
13
347
21
  0
LAYER
  5
8B
330
1
100
AcDbSymbolTableRecord
100
AcDbLayerTableRecord
  2
A-MARCO
 70
0
 62
7
  6
Continuous
370
70
390
13
347
21
  0
LAYER
  5
8C
330
1
100
AcDbSymbolTableRecord
100
AcDbLayerTableRecord
  2
A-CAJETIN
 70
0
 62
7
  6
Continuous
370
35
390
13
347
21
  0
LAYER
  5
8D
330
1
100
AcDbSymbolTableRecord
100
AcDbLayerTableRecord
  2
A-CAJETIN-TXT
 70
0
 62
7
  6
Continuous
370
25
390
13
347
21
  0
LAYER
  5
8E
330
1
100
AcDbSymbolTableRecord
100
AcDbLayerTableRecord
  2
A-TITULOS
 70
0
 62
7
  6
Continuous
370
35
390
13
347
21
  0
LAYER
  5
8F
330
1
100
AcDbSymbolTableRecord
100
AcDbLayerTableRecord
  2
A-TEXTO
 70
0
 62
7
  6
Continuous
370
18
390
13
347
21
  0
LAYER
  5
90
330
1
100
AcDbSymbolTableRecord
100
AcDbLayerTableRecord
  2
A-TABLAS
 70
0
 62
7
  6
Continuous
370
25
390
13
347
21
  0
LAYER
  5
91
330
1
100
AcDbSymbolTableRecord
100
AcDbLayerTableRecord
  2
A-NOTAS
 70
0
 62
7
  6
Continuous
370
18
390
13
347
21
  0
LAYER
  5
92
330
1
100
AcDbSymbolTableRecord
100
AcDbLayerTableRecord
  2
A-ESCALA-GRAF
 70
0
 62
7
  6
Continuous
370
18
390
13
347
21
  0
LAYER
  5
93
330
1
100
AcDbSymbolTableRecord
100
AcDbLayerTableRecord
  2
A-NORTE
 70
0
 62
7
  6
Continuous
370
25
390
13
347
21
  0
LAYER
  5
94
330
1
100
AcDbSymbolTableRecord
100
AcDbLayerTableRecord
  2
A-IMAGEN-REF
 70
0
 62
7
  6
Continuous
370
13
390
13
347
21
  0
LAYER
  5
95
330
1
100
AcDbSymbolTableRecord
100
AcDbLayerTableRecord
  2
A-VIEWPORT
 70
0
 62
8
  6
Continuous
290
0
370
13
390
13
347
21
  0
LAYER
  5
96
330
1
100
AcDbSymbolTableRecord
100
AcDbLayerTableRecord
  2
A-PENDIENTE
 70
0
 62
1
  6
Continuous
370
25
390
13
347
21
  0
LAYER
  5
97
330
1
100
AcDbSymbolTableRecord
100
AcDbLayerTableRecord
  2
T-LINDERO
 70
0
 62
7
  6
Continuous
370
50
390
13
347
21
  0
LAYER
  5
98
330
1
100
AcDbSymbolTableRecord
100
AcDbLayerTableRecord
  2
T-VERTICE
 70
0
 62
7
  6
Continuous
370
25
390
13
347
21
  0
LAYER
  5
99
330
1
100
AcDbSymbolTableRecord
100
AcDbLayerTableRecord
  2
T-CALLE
 70
0
 62
8
  6
DASHED
370
18
390
13
347
21
  0
LAYER
  5
9A
330
1
100
AcDbSymbolTableRecord
100
AcDbLayerTableRecord
  2
T-TXT-200
 70
0
 62
7
  6
Continuous
370
18
390
13
347
21
  0
LAYER
  5
9B
330
1
100
AcDbSymbolTableRecord
100
AcDbLayerTableRecord
  2
T-COTA-200
 70
0
 62
7
  6
Continuous
370
18
390
13
347
21
  0
LAYER
  5
9C
330
1
100
AcDbSymbolTableRecord
100
AcDbLayerTableRecord
  2
T-TXT-100
 70
0
 62
7
  6
Continuous
370
18
390
13
347
21
  0
LAYER
  5
9D
330
1
100
AcDbSymbolTableRecord
100
AcDbLayerTableRecord
  2
T-COTA-100
 70
0
 62
7
  6
Continuous
370
18
390
13
347
21
  0
LAYER
  5
9E
330
1
100
AcDbSymbolTableRecord
100
AcDbLayerTableRecord
  2
A-HUELLA
 70
0
 62
7
  6
Continuous
370
35
390
13
347
21
  0
LAYER
  5
9F
330
1
100
AcDbSymbolTableRecord
100
AcDbLayerTableRecord
  2
A-HUELLA-TRAMA
 70
0
 62
8
  6
Continuous
370
9
390
13
347
21
  0
LAYER
  5
A0
330
1
100
AcDbSymbolTableRecord
100
AcDbLayerTableRecord
  2
A-PATIO
 70
0
 62
7
  6
Continuous
370
25
390
13
347
21
  0
LAYER
  5
A1
330
1
100
AcDbSymbolTableRecord
100
AcDbLayerTableRecord
  2
A-RETIRO
 70
0
 62
8
  6
DASHED2
370
18
390
13
347
21
  0
LAYER
  5
A2
330
1
100
AcDbSymbolTableRecord
100
AcDbLayerTableRecord
  2
A-MURO
 70
0
 62
7
  6
Continuous
370
50
390
13
347
21
  0
LAYER
  5
A3
330
1
100
AcDbSymbolTableRecord
100
AcDbLayerTableRecord
  2
A-MURO-TRAMA
 70
0
 62
8
  6
Continuous
370
9
390
13
347
21
  0
LAYER
  5
A4
330
1
100
AcDbSymbolTableRecord
100
AcDbLayerTableRecord
  2
A-PUERTA
 70
0
 62
7
  6
Continuous
370
25
390
13
347
21
  0
LAYER
  5
A5
330
1
100
AcDbSymbolTableRecord
100
AcDbLayerTableRecord
  2
A-VENTANA
 70
0
 62
7
  6
Continuous
370
25
390
13
347
21
  0
LAYER
  5
A6
330
1
100
AcDbSymbolTableRecord
100
AcDbLayerTableRecord
  2
A-ESCALERA
 70
0
 62
7
  6
Continuous
370
25
390
13
347
21
  0
LAYER
  5
A7
330
1
100
AcDbSymbolTableRecord
100
AcDbLayerTableRecord
  2
A-VEHICULO
 70
0
 62
8
  6
Continuous
370
18
390
13
347
21
  0
LAYER
  5
A8
330
1
100
AcDbSymbolTableRecord
100
AcDbLayerTableRecord
  2
A-MOBILIARIO
 70
0
 62
8
  6
Continuous
370
18
390
13
347
21
  0
LAYER
  5
A9
330
1
100
AcDbSymbolTableRecord
100
AcDbLayerTableRecord
  2
A-DEMARCACION
 70
0
 62
8
  6
DASHED
370
18
390
13
347
21
  0
LAYER
  5
AA
330
1
100
AcDbSymbolTableRecord
100
AcDbLayerTableRecord
  2
A-PROYECCION
 70
0
 62
8
  6
DASHED
370
18
390
13
347
21
  0
LAYER
  5
AB
330
1
100
AcDbSymbolTableRecord
100
AcDbLayerTableRecord
  2
A-EJES
 70
0
 62
8
  6
CENTER
370
13
390
13
347
21
  0
LAYER
  5
AC
330
1
100
AcDbSymbolTableRecord
100
AcDbLayerTableRecord
  2
A-EJES-TXT
 70
0
 62
7
  6
Continuous
370
25
390
13
347
21
  0
LAYER
  5
AD
330
1
100
AcDbSymbolTableRecord
100
AcDbLayerTableRecord
  2
A-COTA-50
 70
0
 62
7
  6
Continuous
370
18
390
13
347
21
  0
LAYER
  5
AE
330
1
100
AcDbSymbolTableRecord
100
AcDbLayerTableRecord
  2
A-TXT-50
 70
0
 62
7
  6
Continuous
370
18
390
13
347
21
  0
LAYER
  5
AF
330
1
100
AcDbSymbolTableRecord
100
AcDbLayerTableRecord
  2
A-ESPACIOS
 70
0
 62
7
  6
Continuous
370
25
390
13
347
21
  0
LAYER
  5
B0
330
1
100
AcDbSymbolTableRecord
100
AcDbLayerTableRecord
  2
A-NIVELES
 70
0
 62
7
  6
Continuous
370
18
390
13
347
21
  0
LAYER
  5
B1
330
1
100
AcDbSymbolTableRecord
100
AcDbLayerTableRecord
  2
A-CORTES
 70
0
 62
7
  6
Continuous
370
35
390
13
347
21
  0
LAYER
  5
B2
330
1
100
AcDbSymbolTableRecord
100
AcDbLayerTableRecord
  2
A-JARDIN
 70
0
 62
8
  6
Continuous
370
9
390
13
347
21
  0
LAYER
  5
B3
330
1
100
AcDbSymbolTableRecord
100
AcDbLayerTableRecord
  2
E-COLUMNA
 70
0
 62
7
  6
Continuous
370
35
390
13
347
21
  0
LAYER
  5
B7
330
1
100
AcDbSymbolTableRecord
100
AcDbLayerTableRecord
  2
E-LUM
 70
0
 62
7
  6
Continuous
370
25
390
13
347
21
  0
LAYER
  5
B8
330
1
100
AcDbSymbolTableRecord
100
AcDbLayerTableRecord
  2
E-TOMA
 70
0
 62
7
  6
Continuous
370
25
390
13
347
21
  0
LAYER
  5
B9
330
1
100
AcDbSymbolTableRecord
100
AcDbLayerTableRecord
  2
E-APAG
 70
0
 62
7
  6
Continuous
370
25
390
13
347
21
  0
LAYER
  5
BA
330
1
100
AcDbSymbolTableRecord
100
AcDbLayerTableRecord
  2
E-CIRC
 70
0
 62
7
  6
Continuous
370
13
390
13
347
21
  0
LAYER
  5
BB
330
1
100
AcDbSymbolTableRecord
100
AcDbLayerTableRecord
  2
E-TABLERO
 70
0
 62
7
  6
Continuous
370
35
390
13
347
21
  0
LAYER
  5
BC
330
1
100
AcDbSymbolTableRecord
100
AcDbLayerTableRecord
  2
E-VD
 70
0
 62
7
  6
Continuous
370
25
390
13
347
21
  0
LAYER
  5
BD
330
1
100
AcDbSymbolTableRecord
100
AcDbLayerTableRecord
  2
E-TXT-EL
 70
0
 62
7
  6
Continuous
370
18
390
13
347
21
  0
LAYER
  5
BE
330
1
100
AcDbSymbolTableRecord
100
AcDbLayerTableRecord
  2
D-LINEAS
 70
0
 62
7
  6
Continuous
370
25
390
13
347
21
  0
LAYER
  5
BF
330
1
100
AcDbSymbolTableRecord
100
AcDbLayerTableRecord
  2
D-FINO
 70
0
 62
8
  6
Continuous
370
13
390
13
347
21
  0
LAYER
  5
C0
330
1
100
AcDbSymbolTableRecord
100
AcDbLayerTableRecord
  2
D-TRAMA
 70
0
 62
8
  6
Continuous
370
9
390
13
347
21
  0
LAYER
  5
C1
330
1
100
AcDbSymbolTableRecord
100
AcDbLayerTableRecord
  2
D-COND
 70
0
 62
7
  6
Continuous
370
35
390
13
347
21
  0
ENDTAB
  0
TABLE
  2
STYLE
  5
5
330
0
100
AcDbSymbolTable
 70
27
  0
STYLE
  5
29
330
5
100
AcDbSymbolTableRecord
100
AcDbTextStyleTableRecord
  2
Standard
 70
0
 40
0.0
 41
1.0
 50
0.0
 71
0
 42
2.5
  3
txt
  4

  0
STYLE
  5
41
330
5
100
AcDbSymbolTableRecord
100
AcDbTextStyleTableRecord
  2
OpenSans-Light
 70
0
 40
0.0
 41
1.0
 50
0.0
 71
0
 42
2.5
  3
OpenSans-Light.ttf
  4

  0
STYLE
  5
42
330
5
100
AcDbSymbolTableRecord
100
AcDbTextStyleTableRecord
  2
OpenSans-Light-Italic
 70
0
 40
0.0
 41
1.0
 50
0.0
 71
0
 42
2.5
  3
OpenSans-LightItalic.ttf
  4

  0
STYLE
  5
43
330
5
100
AcDbSymbolTableRecord
100
AcDbTextStyleTableRecord
  2
OpenSans
 70
0
 40
0.0
 41
1.0
 50
0.0
 71
0
 42
2.5
  3
OpenSans-Regular.ttf
  4

  0
STYLE
  5
44
330
5
100
AcDbSymbolTableRecord
100
AcDbTextStyleTableRecord
  2
OpenSans-Italic
 70
0
 40
0.0
 41
1.0
 50
0.0
 71
0
 42
2.5
  3
OpenSans-Italic.ttf
  4

  0
STYLE
  5
45
330
5
100
AcDbSymbolTableRecord
100
AcDbTextStyleTableRecord
  2
OpenSans-SemiBold
 70
0
 40
0.0
 41
1.0
 50
0.0
 71
0
 42
2.5
  3
OpenSans-SemiBold.ttf
  4

  0
STYLE
  5
46
330
5
100
AcDbSymbolTableRecord
100
AcDbTextStyleTableRecord
  2
OpenSans-SemiBoldItalic
 70
0
 40
0.0
 41
1.0
 50
0.0
 71
0
 42
2.5
  3
OpenSans-SemiBoldItalic.ttf
  4

  0
STYLE
  5
47
330
5
100
AcDbSymbolTableRecord
100
AcDbTextStyleTableRecord
  2
OpenSans-Bold
 70
0
 40
0.0
 41
1.0
 50
0.0
 71
0
 42
2.5
  3
OpenSans-Bold.ttf
  4

  0
STYLE
  5
48
330
5
100
AcDbSymbolTableRecord
100
AcDbTextStyleTableRecord
  2
OpenSans-BoldItalic
 70
0
 40
0.0
 41
1.0
 50
0.0
 71
0
 42
2.5
  3
OpenSans-BoldItalic.ttf
  4

  0
STYLE
  5
49
330
5
100
AcDbSymbolTableRecord
100
AcDbTextStyleTableRecord
  2
OpenSans-ExtraBold
 70
0
 40
0.0
 41
1.0
 50
0.0
 71
0
 42
2.5
  3
OpenSans-ExtraBold.ttf
  4

  0
STYLE
  5
4A
330
5
100
AcDbSymbolTableRecord
100
AcDbTextStyleTableRecord
  2
OpenSans-ExtraBoldItalic
 70
0
 40
0.0
 41
1.0
 50
0.0
 71
0
 42
2.5
  3
OpenSans-ExtraBoldItalic.ttf
  4

  0
STYLE
  5
4B
330
5
100
AcDbSymbolTableRecord
100
AcDbTextStyleTableRecord
  2
OpenSansCondensed-Bold
 70
0
 40
0.0
 41
1.0
 50
0.0
 71
0
 42
2.5
  3
OpenSansCondensed-Bold.ttf
  4

  0
STYLE
  5
4C
330
5
100
AcDbSymbolTableRecord
100
AcDbTextStyleTableRecord
  2
OpenSansCondensed-Light
 70
0
 40
0.0
 41
1.0
 50
0.0
 71
0
 42
2.5
  3
OpenSansCondensed-Light.ttf
  4

  0
STYLE
  5
4D
330
5
100
AcDbSymbolTableRecord
100
AcDbTextStyleTableRecord
  2
OpenSansCondensed-Italic
 70
0
 40
0.0
 41
1.0
 50
0.0
 71
0
 42
2.5
  3
OpenSansCondensed-LightItalic.ttf
  4

  0
STYLE
  5
4E
330
5
100
AcDbSymbolTableRecord
100
AcDbTextStyleTableRecord
  2
LiberationSans
 70
0
 40
0.0
 41
1.0
 50
0.0
 71
0
 42
2.5
  3
LiberationSans-Regular.ttf
  4

  0
STYLE
  5
4F
330
5
100
AcDbSymbolTableRecord
100
AcDbTextStyleTableRecord
  2
LiberationSans-Bold
 70
0
 40
0.0
 41
1.0
 50
0.0
 71
0
 42
2.5
  3
LiberationSans-Bold.ttf
  4

  0
STYLE
  5
50
330
5
100
AcDbSymbolTableRecord
100
AcDbTextStyleTableRecord
  2
LiberationSans-BoldItalic
 70
0
 40
0.0
 41
1.0
 50
0.0
 71
0
 42
2.5
  3
LiberationSans-BoldItalic.ttf
  4

  0
STYLE
  5
51
330
5
100
AcDbSymbolTableRecord
100
AcDbTextStyleTableRecord
  2
LiberationSans-Italic
 70
0
 40
0.0
 41
1.0
 50
0.0
 71
0
 42
2.5
  3
LiberationSans-Italic.ttf
  4

  0
STYLE
  5
52
330
5
100
AcDbSymbolTableRecord
100
AcDbTextStyleTableRecord
  2
LiberationSerif
 70
0
 40
0.0
 41
1.0
 50
0.0
 71
0
 42
2.5
  3
LiberationSerif-Regular.ttf
  4

  0
STYLE
  5
53
330
5
100
AcDbSymbolTableRecord
100
AcDbTextStyleTableRecord
  2
LiberationSerif-Bold
 70
0
 40
0.0
 41
1.0
 50
0.0
 71
0
 42
2.5
  3
LiberationSerif-Bold.ttf
  4

  0
STYLE
  5
54
330
5
100
AcDbSymbolTableRecord
100
AcDbTextStyleTableRecord
  2
LiberationSerif-BoldItalic
 70
0
 40
0.0
 41
1.0
 50
0.0
 71
0
 42
2.5
  3
LiberationSerif-BoldItalic.ttf
  4

  0
STYLE
  5
55
330
5
100
AcDbSymbolTableRecord
100
AcDbTextStyleTableRecord
  2
LiberationSerif-Italic
 70
0
 40
0.0
 41
1.0
 50
0.0
 71
0
 42
2.5
  3
LiberationSerif-Italic.ttf
  4

  0
STYLE
  5
56
330
5
100
AcDbSymbolTableRecord
100
AcDbTextStyleTableRecord
  2
LiberationMono
 70
0
 40
0.0
 41
1.0
 50
0.0
 71
0
 42
2.5
  3
LiberationMono-Regular.ttf
  4

  0
STYLE
  5
57
330
5
100
AcDbSymbolTableRecord
100
AcDbTextStyleTableRecord
  2
LiberationMono-Bold
 70
0
 40
0.0
 41
1.0
 50
0.0
 71
0
 42
2.5
  3
LiberationMono-Bold.ttf
  4

  0
STYLE
  5
58
330
5
100
AcDbSymbolTableRecord
100
AcDbTextStyleTableRecord
  2
LiberationMono-BoldItalic
 70
0
 40
0.0
 41
1.0
 50
0.0
 71
0
 42
2.5
  3
LiberationMono-BoldItalic.ttf
  4

  0
STYLE
  5
59
330
5
100
AcDbSymbolTableRecord
100
AcDbTextStyleTableRecord
  2
LiberationMono-Italic
 70
0
 40
0.0
 41
1.0
 50
0.0
 71
0
 42
2.5
  3
LiberationMono-Italic.ttf
  4

  0
STYLE
  5
8A
330
5
100
AcDbSymbolTableRecord
100
AcDbTextStyleTableRecord
  2
ARIAL
 70
0
 40
0.0
 41
1.0
 50
0.0
 71
0
 42
2.5
  3
arial.ttf
  4

  0
ENDTAB
  0
TABLE
  2
VIEW
  5
7
330
0
100
AcDbSymbolTable
 70
0
  0
ENDTAB
  0
TABLE
  2
UCS
  5
6
330
0
100
AcDbSymbolTable
 70
0
  0
ENDTAB
  0
TABLE
  2
APPID
  5
3
330
0
100
AcDbSymbolTable
 70
3
  0
APPID
  5
2A
330
3
100
AcDbSymbolTableRecord
100
AcDbRegAppTableRecord
  2
ACAD
 70
0
  0
APPID
  5
23B
330
3
100
AcDbSymbolTableRecord
100
AcDbRegAppTableRecord
  2
HATCHBACKGROUNDCOLOR
 70
0
  0
APPID
  5
23C
330
3
100
AcDbSymbolTableRecord
100
AcDbRegAppTableRecord
  2
EZDXF
 70
0
  0
ENDTAB
  0
TABLE
  2
DIMSTYLE
  5
4
330
0
100
AcDbSymbolTable
 70
15
100
AcDbDimStyleTable
  0
DIMSTYLE
105
2B
330
4
100
AcDbSymbolTableRecord
100
AcDbDimStyleTableRecord
  2
Standard
 70
0
 40
1.0
 41
2.5
 42
0.625
 43
3.75
 44
1.25
 45
0.0
 46
0.0
 47
0.0
 48
0.0
 49
2.5
140
2.5
141
2.5
142
0.0
143
0.03937007874
144
1.0
145
0.0
146
1.0
147
0.625
148
0.0
 69
0
 70
0
 71
0
 72
0
 73
0
 74
0
 75
0
 76
0
 77
1
 78
8
 79
3
170
0
171
3
172
1
173
0
174
0
175
0
176
0
177
0
178
0
179
2
271
2
272
2
273
2
274
3
275
0
276
0
277
2
278
44
279
0
280
0
281
0
282
0
283
0
284
8
285
0
286
0
288
0
289
3
290
0
371
-2
372
-2
  0
DIMSTYLE
105
73
330
4
100
AcDbSymbolTableRecord
100
AcDbDimStyleTableRecord
  2
EZDXF
 70
0
 40
1.0
 41
0.175
 42
0.125
 43
3.75
 44
0.375
 45
0.0
 46
0.0
 47
0.0
 48
0.0
 49
2.5
140
0.25
141
2.5
142
0.0
143
0.03937007874
144
100.0
145
0.0
146
0.5
147
0.1
148
0.0
 69
0
 70
0
 71
0
 72
0
 73
0
 74
0
 75
0
 76
0
 77
1
 78
12
 79
3
170
0
171
3
172
1
173
0
174
0
175
0
176
0
177
0
178
0
179
2
271
2
272
2
273
2
274
3
275
0
276
0
277
2
278
46
279
2
280
0
281
0
282
0
283
0
284
8
285
0
286
0
288
1
289
3
290
0
340
4C
342
74
371
-2
372
-2
  0
DIMSTYLE
105
7C
330
4
100
AcDbSymbolTableRecord
100
AcDbDimStyleTableRecord
  2
EZ_M_100_H25_CM
 70
0
 40
1.0
 41
0.25
 42
0.125
 43
3.75
 44
0.375
 45
0.0
 46
0.0
 47
0.0
 48
0.0
 49
2.5
140
0.25
141
2.5
142
0.125
143
0.03937007874
144
100.0
145
0.0
146
0.5
147
0.1
148
0.0
 69
0
 70
0
 71
0
 72
0
 73
0
 74
0
 75
0
 76
0
 77
1
 78
12
 79
3
170
0
171
3
172
1
173
0
174
0
175
0
176
0
177
0
178
0
179
2
271
2
272
2
273
2
274
3
275
0
276
0
277
2
278
46
279
2
280
0
281
0
282
0
283
0
284
8
285
0
286
0
288
1
289
3
290
0
340
4C
371
-2
372
-2
  0
DIMSTYLE
105
7D
330
4
100
AcDbSymbolTableRecord
100
AcDbDimStyleTableRecord
  2
EZ_M_50_H25_CM
 70
0
 40
1.0
 41
0.125
 42
0.0625
 43
3.75
 44
0.1875
 45
0.0
 46
0.0
 47
0.0
 48
0.0
 49
2.5
140
0.125
141
2.5
142
0.0625
143
0.03937007874
144
100.0
145
0.0
146
0.5
147
0.05
148
0.0
 69
0
 70
0
 71
0
 72
0
 73
0
 74
0
 75
0
 76
0
 77
1
 78
12
 79
3
170
0
171
3
172
1
173
0
174
0
175
0
176
0
177
0
178
0
179
2
271
2
272
2
273
2
274
3
275
0
276
0
277
2
278
46
279
2
280
0
281
0
282
0
283
0
284
8
285
0
286
0
288
1
289
3
290
0
340
4C
371
-2
372
-2
  0
DIMSTYLE
105
7E
330
4
100
AcDbSymbolTableRecord
100
AcDbDimStyleTableRecord
  2
EZ_M_25_H25_CM
 70
0
 40
1.0
 41
0.0625
 42
0.03125
 43
3.75
 44
0.09375
 45
0.0
 46
0.0
 47
0.0
 48
0.0
 49
2.5
140
0.0625
141
2.5
142
0.03125
143
0.03937007874
144
100.0
145
0.0
146
0.5
147
0.025
148
0.0
 69
0
 70
0
 71
0
 72
0
 73
0
 74
0
 75
0
 76
0
 77
1
 78
12
 79
3
170
0
171
3
172
1
173
0
174
0
175
0
176
0
177
0
178
0
179
2
271
2
272
2
273
2
274
3
275
0
276
0
277
2
278
46
279
2
280
0
281
0
282
0
283
0
284
8
285
0
286
0
288
1
289
3
290
0
340
4C
371
-2
372
-2
  0
DIMSTYLE
105
7F
330
4
100
AcDbSymbolTableRecord
100
AcDbDimStyleTableRecord
  2
EZ_M_20_H25_CM
 70
0
 40
1.0
 41
0.05
 42
0.025
 43
3.75
 44
0.07500000000000001
 45
0.0
 46
0.0
 47
0.0
 48
0.0
 49
2.5
140
0.05
141
2.5
142
0.025
143
0.03937007874
144
100.0
145
0.0
146
0.5
147
0.020000000000000004
148
0.0
 69
0
 70
0
 71
0
 72
0
 73
0
 74
0
 75
0
 76
0
 77
1
 78
12
 79
3
170
0
171
3
172
1
173
0
174
0
175
0
176
0
177
0
178
0
179
2
271
2
272
2
273
2
274
3
275
0
276
0
277
2
278
46
279
2
280
0
281
0
282
0
283
0
284
8
285
0
286
0
288
1
289
3
290
0
340
4C
371
-2
372
-2
  0
DIMSTYLE
105
80
330
4
100
AcDbSymbolTableRecord
100
AcDbDimStyleTableRecord
  2
EZ_M_10_H25_CM
 70
0
 40
1.0
 41
0.025
 42
0.0125
 43
3.75
 44
0.037500000000000006
 45
0.0
 46
0.0
 47
0.0
 48
0.0
 49
2.5
140
0.025
141
2.5
142
0.0125
143
0.03937007874
144
100.0
145
0.0
146
0.5
147
0.010000000000000002
148
0.0
 69
0
 70
0
 71
0
 72
0
 73
0
 74
0
 75
0
 76
0
 77
1
 78
12
 79
3
170
0
171
3
172
1
173
0
174
0
175
0
176
0
177
0
178
0
179
2
271
2
272
2
273
2
274
3
275
0
276
0
277
2
278
46
279
2
280
0
281
0
282
0
283
0
284
8
285
0
286
0
288
1
289
3
290
0
340
4C
371
-2
372
-2
  0
DIMSTYLE
105
81
330
4
100
AcDbSymbolTableRecord
100
AcDbDimStyleTableRecord
  2
EZ_M_5_H25_CM
 70
0
 40
1.0
 41
0.0125
 42
0.00625
 43
3.75
 44
0.018750000000000003
 45
0.0
 46
0.0
 47
0.0
 48
0.0
 49
2.5
140
0.0125
141
2.5
142
0.00625
143
0.03937007874
144
100.0
145
0.0
146
0.5
147
0.005000000000000001
148
0.0
 69
0
 70
0
 71
0
 72
0
 73
0
 74
0
 75
0
 76
0
 77
1
 78
12
 79
3
170
0
171
3
172
1
173
0
174
0
175
0
176
0
177
0
178
0
179
2
271
2
272
2
273
2
274
3
275
0
276
0
277
2
278
46
279
2
280
0
281
0
282
0
283
0
284
8
285
0
286
0
288
1
289
3
290
0
340
4C
371
-2
372
-2
  0
DIMSTYLE
105
82
330
4
100
AcDbSymbolTableRecord
100
AcDbDimStyleTableRecord
  2
EZ_M_1_H25_CM
 70
0
 40
1.0
 41
0.0025
 42
0.00125
 43
3.75
 44
0.00375
 45
0.0
 46
0.0
 47
0.0
 48
0.0
 49
2.5
140
0.0025
141
2.5
142
0.00125
143
0.03937007874
144
100.0
145
0.0
146
0.5
147
0.001
148
0.0
 69
0
 70
0
 71
0
 72
0
 73
0
 74
0
 75
0
 76
0
 77
1
 78
12
 79
3
170
0
171
3
172
1
173
0
174
0
175
0
176
0
177
0
178
0
179
2
271
2
272
2
273
2
274
3
275
0
276
0
277
2
278
46
279
2
280
0
281
0
282
0
283
0
284
8
285
0
286
0
288
1
289
3
290
0
340
4C
371
-2
372
-2
  0
DIMSTYLE
105
83
330
4
100
AcDbSymbolTableRecord
100
AcDbDimStyleTableRecord
  2
EZ_RADIUS
 70
0
 40
1.0
 41
0.25
 42
0.125
 43
3.75
 44
0.375
 45
0.0
 46
0.0
 47
0.0
 48
0.0
 49
2.5
140
0.25
141
0.0
142
0.0
143
0.03937007874
144
100.0
145
0.0
146
0.5
147
0.1
148
0.0
 69
0
 70
0
 71
0
 72
0
 73
0
 74
0
 75
0
 76
0
 77
1
 78
12
 79
3
170
0
171
3
172
0
173
0
174
0
175
0
176
0
177
0
178
0
179
2
271
2
272
2
273
2
274
3
275
0
276
0
277
2
278
46
279
1
280
0
281
0
282
0
283
0
284
8
285
0
286
0
288
1
289
3
290
0
340
4C
342
84
371
-2
372
-2
  0
DIMSTYLE
105
88
330
4
100
AcDbSymbolTableRecord
100
AcDbDimStyleTableRecord
  2
EZ_RADIUS_INSIDE
 70
0
 40
1.0
 41
0.25
 42
0.125
 43
3.75
 44
0.375
 45
0.0
 46
0.0
 47
0.0
 48
0.0
 49
2.5
140
0.25
141
0.0
142
0.0
143
0.03937007874
144
100.0
145
0.0
146
0.5
147
0.1
148
0.0
 69
0
 70
0
 71
0
 72
0
 73
0
 74
0
 75
0
 76
0
 77
0
 78
12
 79
3
170
0
171
3
172
0
173
0
174
1
175
0
176
0
177
0
178
0
179
2
271
2
272
2
273
2
274
3
275
0
276
0
277
2
278
46
279
0
280
0
281
0
282
0
283
0
284
8
285
0
286
0
288
1
289
0
290
0
340
4C
342
84
371
-2
372
-2
  0
DIMSTYLE
105
89
330
4
100
AcDbSymbolTableRecord
100
AcDbDimStyleTableRecord
  2
EZ_CURVED
 70
0
 40
1.0
 41
0.25
 42
0.125
 43
3.75
 44
0.375
 45
0.0
 46
0.0
 47
0.0
 48
0.0
 49
2.5
140
0.25
141
2.5
142
0.0
143
0.03937007874
144
100.0
145
0.0
146
0.5
147
0.1
148
0.0
 69
0
 70
0
 71
0
 72
0
 73
0
 74
0
 75
0
 76
0
 77
1
 78
12
 79
2
 90
2
170
0
171
3
172
1
173
0
174
0
175
0
176
0
177
0
178
0
179
2
271
2
272
2
273
2
274
3
275
0
276
0
277
2
278
46
279
2
280
0
281
0
282
0
283
0
284
8
285
0
286
0
288
1
289
3
290
0
340
4C
371
-2
372
-2
  0
DIMSTYLE
105
B4
330
4
100
AcDbSymbolTableRecord
100
AcDbDimStyleTableRecord
  2
COTA-50
 70
0
 40
1.0
 41
0.06
 42
0.05
 43
3.75
 44
0.05
 45
0.0
 46
0.05
 47
0.0
 48
0.0
 49
2.5
140
0.11000000000000001
141
2.5
142
0.06
143
0.03937007874
144
1.0
145
0.0
146
1.0
147
0.04000000000000001
148
0.0
 69
0
 70
0
 71
0
 72
0
 73
0
 74
0
 75
0
 76
0
 77
1
 78
0
 79
3
170
0
171
3
172
1
173
0
174
0
175
0
176
7
177
7
178
7
179
2
271
2
272
2
273
2
274
3
275
0
276
0
277
2
278
46
279
0
280
0
281
0
282
0
283
0
284
8
285
0
286
0
288
0
289
3
290
0
340
8A
371
18
372
13
  0
DIMSTYLE
105
B5
330
4
100
AcDbSymbolTableRecord
100
AcDbDimStyleTableRecord
  2
COTA-100
 70
0
 40
1.0
 41
0.12
 42
0.1
 43
3.75
 44
0.1
 45
0.0
 46
0.1
 47
0.0
 48
0.0
 49
2.5
140
0.22000000000000003
141
2.5
142
0.12
143
0.03937007874
144
1.0
145
0.0
146
1.0
147
0.08000000000000002
148
0.0
 69
0
 70
0
 71
0
 72
0
 73
0
 74
0
 75
0
 76
0
 77
1
 78
0
 79
3
170
0
171
3
172
1
173
0
174
0
175
0
176
7
177
7
178
7
179
2
271
2
272
2
273
2
274
3
275
0
276
0
277
2
278
46
279
0
280
0
281
0
282
0
283
0
284
8
285
0
286
0
288
0
289
3
290
0
340
8A
371
18
372
13
  0
DIMSTYLE
105
B6
330
4
100
AcDbSymbolTableRecord
100
AcDbDimStyleTableRecord
  2
COTA-200
 70
0
 40
1.0
 41
0.24
 42
0.2
 43
3.75
 44
0.2
 45
0.0
 46
0.2
 47
0.0
 48
0.0
 49
2.5
140
0.44000000000000006
141
2.5
142
0.24
143
0.03937007874
144
1.0
145
0.0
146
1.0
147
0.16000000000000003
148
0.0
 69
0
 70
0
 71
0
 72
0
 73
0
 74
0
 75
0
 76
0
 77
1
 78
0
 79
3
170
0
171
3
172
1
173
0
174
0
175
0
176
7
177
7
178
7
179
2
271
2
272
2
273
2
274
3
275
0
276
0
277
2
278
46
279
0
280
0
281
0
282
0
283
0
284
8
285
0
286
0
288
0
289
3
290
0
340
8A
371
18
372
13
  0
ENDTAB
  0
TABLE
  2
BLOCK_RECORD
  5
9
330
0
100
AcDbSymbolTable
 70
7
  0
BLOCK_RECORD
  5
17
330
9
100
AcDbSymbolTableRecord
100
AcDbBlockTableRecord
  2
*Model_Space
340
1A
 70
0
280
1
281
0
  0
BLOCK_RECORD
  5
74
330
9
100
AcDbSymbolTableRecord
100
AcDbBlockTableRecord
  2
_ARCHTICK
340
0
 70
0
280
1
281
0
  0
BLOCK_RECORD
  5
78
330
9
100
AcDbSymbolTableRecord
100
AcDbBlockTableRecord
  2
_CLOSEDFILLED
340
0
 70
0
280
1
281
0
  0
BLOCK_RECORD
  5
84
330
9
100
AcDbSymbolTableRecord
100
AcDbBlockTableRecord
  2
_CLOSEDBLANK
340
0
 70
0
280
1
281
0
  0
BLOCK_RECORD
  5
C2
330
9
100
AcDbSymbolTableRecord
100
AcDbBlockTableRecord
  2
*Paper_Space
340
C5
 70
0
280
1
281
0
  0
BLOCK_RECORD
  5
1B
330
9
100
AcDbSymbolTableRecord
100
AcDbBlockTableRecord
  2
*Paper_Space0
340
1E
 70
0
280
1
281
0
  0
BLOCK_RECORD
  5
1CF
330
9
100
AcDbSymbolTableRecord
100
AcDbBlockTableRecord
  2
CAJETIN_A1
340
0
 70
0
280
1
281
0
  0
ENDTAB
  0
ENDSEC
  0
SECTION
  2
BLOCKS
  0
BLOCK
  5
18
330
17
100
AcDbEntity
  8
0
100
AcDbBlockBegin
  2
*Model_Space
 70
0
 10
0.0
 20
0.0
 30
0.0
  3
*Model_Space
  1

  0
ENDBLK
  5
19
330
17
100
AcDbEntity
  8
0
100
AcDbBlockEnd
  0
BLOCK
  5
75
330
74
100
AcDbEntity
  8
0
100
AcDbBlockBegin
  2
_ARCHTICK
 70
0
 10
0.0
 20
0.0
 30
0.0
  3
_ARCHTICK
  1

  0
LWPOLYLINE
  5
77
330
74
100
AcDbEntity
  8
0
  6
BYBLOCK
 62
0
100
AcDbPolyline
 90
2
 70
0
 43
0.15
 10
-0.5
 20
-0.5
 10
0.5
 20
0.5
  0
ENDBLK
  5
76
330
74
100
AcDbEntity
  8
0
100
AcDbBlockEnd
  0
BLOCK
  5
79
330
78
100
AcDbEntity
  8
0
100
AcDbBlockBegin
  2
_CLOSEDFILLED
 70
0
 10
0.0
 20
0.0
 30
0.0
  3
_CLOSEDFILLED
  1

  0
SOLID
  5
7B
330
78
100
AcDbEntity
  8
0
  6
BYBLOCK
 62
0
100
AcDbTrace
 10
-1.0
 20
0.16439898372402537
 30
0.0
 11
0.0
 21
0.0
 31
0.0
 12
-1.0
 22
-0.16439898372402537
 32
0.0
 13
-1.0
 23
-0.16439898372402537
 33
0.0
  0
ENDBLK
  5
7A
330
78
100
AcDbEntity
  8
0
100
AcDbBlockEnd
  0
BLOCK
  5
85
330
84
100
AcDbEntity
  8
0
100
AcDbBlockBegin
  2
_CLOSEDBLANK
 70
0
 10
0.0
 20
0.0
 30
0.0
  3
_CLOSEDBLANK
  1

  0
LWPOLYLINE
  5
87
330
84
100
AcDbEntity
  8
0
  6
BYBLOCK
 62
0
100
AcDbPolyline
 90
3
 70
1
 10
-1.0
 20
0.16439898372402537
 10
0.0
 20
0.0
 10
-1.0
 20
-0.16439898372402537
  0
ENDBLK
  5
86
330
84
100
AcDbEntity
  8
0
100
AcDbBlockEnd
  0
BLOCK
  5
C3
330
C2
100
AcDbEntity
  8
0
100
AcDbBlockBegin
  2
*Paper_Space
 70
0
 10
0.0
 20
0.0
 30
0.0
  3
*Paper_Space
  1

  0
ENDBLK
  5
C4
330
C2
100
AcDbEntity
  8
0
100
AcDbBlockEnd
  0
BLOCK
  5
1C
330
1B
100
AcDbEntity
  8
0
100
AcDbBlockBegin
  2
*Paper_Space0
 70
0
 10
0.0
 20
0.0
 30
0.0
  3
*Paper_Space0
  1

  0
ENDBLK
  5
1D
330
1B
100
AcDbEntity
  8
0
100
AcDbBlockEnd
  0
BLOCK
  5
1D0
330
1CF
100
AcDbEntity
  8
0
100
AcDbBlockBegin
  2
CAJETIN_A1
 70
2
 10
0.0
 20
0.0
 30
0.0
  3
CAJETIN_A1
  1

  0
LWPOLYLINE
  5
1D2
330
1CF
100
AcDbEntity
  8
0
100
AcDbPolyline
 90
4
 70
1
 10
0.0
 20
0.0
 10
120.0
 20
0.0
 10
120.0
 20
574.0
 10
0.0
 20
574.0
  0
TEXT
  5
1D3
330
1CF
100
AcDbEntity
  8
0
100
AcDbText
 10
3.0
 20
571.0
 30
0.0
 40
2.0
  1
ESPACIO PARA SELLOS Y TIMBRES
  7
ARIAL
 11
3.0
 21
571.0
 31
0.0
100
AcDbText
 73
3
  0
LINE
  5
1D4
330
1CF
100
AcDbEntity
  8
0
100
AcDbLine
 10
0.0
 20
255.6
 30
0.0
 11
120.0
 21
255.6
 31
0.0
  0
ATTDEF
  5
1D5
330
1CF
100
AcDbEntity
  8
0
100
AcDbText
 10
60.0
 20
251.6
 30
0.0
 40
3.2
  1

  7
ARIAL
 72
1
 11
60.0
 21
251.6
 31
0.0
100
AcDbAttributeDefinition
  3

  2
EMPRESA
 70
0
 74
3
 71
1
 72
0
 11
60.0
 21
251.6
 31
0.0
  0
ATTDEF
  5
1D6
330
1CF
100
AcDbEntity
  8
0
100
AcDbText
 10
60.0
 20
245.6
 30
0.0
 40
2.5
  1

  7
ARIAL
 72
1
 11
60.0
 21
245.6
 31
0.0
100
AcDbAttributeDefinition
  3

  2
EMPRESA_CED
 70
0
 74
3
 71
1
 72
0
 11
60.0
 21
245.6
 31
0.0
  0
LINE
  5
1D7
330
1CF
100
AcDbEntity
  8
0
100
AcDbLine
 10
0.0
 20
237.6
 30
0.0
 11
120.0
 21
237.6
 31
0.0
  0
TEXT
  5
1D8
330
1CF
100
AcDbEntity
  8
0
100
AcDbText
 10
3.0
 20
235.1
 30
0.0
 40
2.2
  1
PROFESIONAL RESPONSABLE:
  7
ARIAL
 11
3.0
 21
235.1
 31
0.0
100
AcDbText
 73
3
  0
ATTDEF
  5
1D9
330
1CF
100
AcDbEntity
  8
0
100
AcDbText
 10
3.0
 20
230.1
 30
0.0
 40
2.6
  1

  7
ARIAL
 11
3.0
 21
230.1
 31
0.0
100
AcDbAttributeDefinition
  3

  2
PROF_1
 70
0
 74
3
 71
1
 72
0
 11
3.0
 21
230.1
 31
0.0
  0
ATTDEF
  5
1DA
330
1CF
100
AcDbEntity
  8
0
100
AcDbText
 10
3.0
 20
225.6
 30
0.0
 40
2.6
  1

  7
ARIAL
 11
3.0
 21
225.6
 31
0.0
100
AcDbAttributeDefinition
  3

  2
PROF_2
 70
0
 74
3
 71
1
 72
0
 11
3.0
 21
225.6
 31
0.0
  0
ATTDEF
  5
1DB
330
1CF
100
AcDbEntity
  8
0
100
AcDbText
 10
3.0
 20
221.1
 30
0.0
 40
2.6
  1

  7
ARIAL
 11
3.0
 21
221.1
 31
0.0
100
AcDbAttributeDefinition
  3

  2
PROF_3
 70
0
 74
3
 71
1
 72
0
 11
3.0
 21
221.1
 31
0.0
  0
LINE
  5
1DC
330
1CF
100
AcDbEntity
  8
0
100
AcDbLine
 10
0.0
 20
215.6
 30
0.0
 11
120.0
 21
215.6
 31
0.0
  0
TEXT
  5
1DD
330
1CF
100
AcDbEntity
  8
0
100
AcDbText
 10
3.0
 20
213.1
 30
0.0
 40
2.2
  1
PROYECTO:
  7
ARIAL
 11
3.0
 21
213.1
 31
0.0
100
AcDbText
 73
3
  0
ATTDEF
  5
1DE
330
1CF
100
AcDbEntity
  8
0
100
AcDbText
 10
3.0
 20
208.1
 30
0.0
 40
4.2
  1

  7
ARIAL
 11
3.0
 21
208.1
 31
0.0
100
AcDbAttributeDefinition
  3

  2
PROYECTO
 70
0
 74
3
 71
1
 72
0
 11
3.0
 21
208.1
 31
0.0
  0
ATTDEF
  5
1DF
330
1CF
100
AcDbEntity
  8
0
100
AcDbText
 10
3.0
 20
201.1
 30
0.0
 40
2.5
  1

  7
ARIAL
 11
3.0
 21
201.1
 31
0.0
100
AcDbAttributeDefinition
  3

  2
UBIC_1
 70
0
 74
3
 71
1
 72
0
 11
3.0
 21
201.1
 31
0.0
  0
ATTDEF
  5
1E0
330
1CF
100
AcDbEntity
  8
0
100
AcDbText
 10
3.0
 20
196.6
 30
0.0
 40
2.5
  1

  7
ARIAL
 11
3.0
 21
196.6
 31
0.0
100
AcDbAttributeDefinition
  3

  2
UBIC_2
 70
0
 74
3
 71
1
 72
0
 11
3.0
 21
196.6
 31
0.0
  0
ATTDEF
  5
1E1
330
1CF
100
AcDbEntity
  8
0
100
AcDbText
 10
3.0
 20
192.1
 30
0.0
 40
2.5
  1

  7
ARIAL
 11
3.0
 21
192.1
 31
0.0
100
AcDbAttributeDefinition
  3

  2
UBIC_3
 70
0
 74
3
 71
1
 72
0
 11
3.0
 21
192.1
 31
0.0
  0
LINE
  5
1E2
330
1CF
100
AcDbEntity
  8
0
100
AcDbLine
 10
0.0
 20
186.6
 30
0.0
 11
120.0
 21
186.6
 31
0.0
  0
TEXT
  5
1E3
330
1CF
100
AcDbEntity
  8
0
100
AcDbText
 10
3.0
 20
184.1
 30
0.0
 40
2.2
  1
INFORMACIÓN REGISTRO PÚBLICO:
  7
ARIAL
 11
3.0
 21
184.1
 31
0.0
100
AcDbText
 73
3
  0
ATTDEF
  5
1E4
330
1CF
100
AcDbEntity
  8
0
100
AcDbText
 10
3.0
 20
179.1
 30
0.0
 40
2.5
  1

  7
ARIAL
 11
3.0
 21
179.1
 31
0.0
100
AcDbAttributeDefinition
  3

  2
REG_1
 70
0
 74
3
 71
1
 72
0
 11
3.0
 21
179.1
 31
0.0
  0
ATTDEF
  5
1E5
330
1CF
100
AcDbEntity
  8
0
100
AcDbText
 10
3.0
 20
174.6
 30
0.0
 40
2.5
  1

  7
ARIAL
 11
3.0
 21
174.6
 31
0.0
100
AcDbAttributeDefinition
  3

  2
REG_2
 70
0
 74
3
 71
1
 72
0
 11
3.0
 21
174.6
 31
0.0
  0
ATTDEF
  5
1E6
330
1CF
100
AcDbEntity
  8
0
100
AcDbText
 10
3.0
 20
170.1
 30
0.0
 40
2.5
  1

  7
ARIAL
 11
3.0
 21
170.1
 31
0.0
100
AcDbAttributeDefinition
  3

  2
REG_3
 70
0
 74
3
 71
1
 72
0
 11
3.0
 21
170.1
 31
0.0
  0
LINE
  5
1E7
330
1CF
100
AcDbEntity
  8
0
100
AcDbLine
 10
0.0
 20
164.6
 30
0.0
 11
120.0
 21
164.6
 31
0.0
  0
TEXT
  5
1E8
330
1CF
100
AcDbEntity
  8
0
100
AcDbText
 10
3.0
 20
162.1
 30
0.0
 40
2.2
  1
CONTENIDO:
  7
ARIAL
 11
3.0
 21
162.1
 31
0.0
100
AcDbText
 73
3
  0
ATTDEF
  5
1E9
330
1CF
100
AcDbEntity
  8
0
100
AcDbText
 10
3.0
 20
157.1
 30
0.0
 40
5.0
  1

  7
ARIAL
 11
3.0
 21
157.1
 31
0.0
100
AcDbAttributeDefinition
  3

  2
CONT_TIT
 70
0
 74
3
 71
1
 72
0
 11
3.0
 21
157.1
 31
0.0
  0
ATTDEF
  5
1EA
330
1CF
100
AcDbEntity
  8
0
100
AcDbText
 10
3.0
 20
149.6
 30
0.0
 40
3.0
  1

  7
ARIAL
 11
3.0
 21
149.6
 31
0.0
100
AcDbAttributeDefinition
  3

  2
CONT_1
 70
0
 74
3
 71
1
 72
0
 11
3.0
 21
149.6
 31
0.0
  0
ATTDEF
  5
1EB
330
1CF
100
AcDbEntity
  8
0
100
AcDbText
 10
3.0
 20
144.1
 30
0.0
 40
3.0
  1

  7
ARIAL
 11
3.0
 21
144.1
 31
0.0
100
AcDbAttributeDefinition
  3

  2
CONT_2
 70
0
 74
3
 71
1
 72
0
 11
3.0
 21
144.1
 31
0.0
  0
ATTDEF
  5
1EC
330
1CF
100
AcDbEntity
  8
0
100
AcDbText
 10
3.0
 20
138.6
 30
0.0
 40
3.0
  1

  7
ARIAL
 11
3.0
 21
138.6
 31
0.0
100
AcDbAttributeDefinition
  3

  2
CONT_3
 70
0
 74
3
 71
1
 72
0
 11
3.0
 21
138.6
 31
0.0
  0
ATTDEF
  5
1ED
330
1CF
100
AcDbEntity
  8
0
100
AcDbText
 10
3.0
 20
133.1
 30
0.0
 40
3.0
  1

  7
ARIAL
 11
3.0
 21
133.1
 31
0.0
100
AcDbAttributeDefinition
  3

  2
CONT_4
 70
0
 74
3
 71
1
 72
0
 11
3.0
 21
133.1
 31
0.0
  0
ATTDEF
  5
1EE
330
1CF
100
AcDbEntity
  8
0
100
AcDbText
 10
3.0
 20
127.6
 30
0.0
 40
3.0
  1

  7
ARIAL
 11
3.0
 21
127.6
 31
0.0
100
AcDbAttributeDefinition
  3

  2
CONT_5
 70
0
 74
3
 71
1
 72
0
 11
3.0
 21
127.6
 31
0.0
  0
ATTDEF
  5
1EF
330
1CF
100
AcDbEntity
  8
0
100
AcDbText
 10
3.0
 20
122.1
 30
0.0
 40
3.0
  1

  7
ARIAL
 11
3.0
 21
122.1
 31
0.0
100
AcDbAttributeDefinition
  3

  2
CONT_6
 70
0
 74
3
 71
1
 72
0
 11
3.0
 21
122.1
 31
0.0
  0
LINE
  5
1F0
330
1CF
100
AcDbEntity
  8
0
100
AcDbLine
 10
0.0
 20
114.6
 30
0.0
 11
120.0
 21
114.6
 31
0.0
  0
TEXT
  5
1F1
330
1CF
100
AcDbEntity
  8
0
100
AcDbText
 10
3.0
 20
112.1
 30
0.0
 40
2.2
  1
ESCALAS:
  7
ARIAL
 11
3.0
 21
112.1
 31
0.0
100
AcDbText
 73
3
  0
ATTDEF
  5
1F2
330
1CF
100
AcDbEntity
  8
0
100
AcDbText
 10
25.0
 20
112.1
 30
0.0
 40
2.2
  1

  7
ARIAL
 11
25.0
 21
112.1
 31
0.0
100
AcDbAttributeDefinition
  3

  2
ESCALAS
 70
0
 74
3
 71
1
 72
0
 11
25.0
 21
112.1
 31
0.0
  0
LINE
  5
1F3
330
1CF
100
AcDbEntity
  8
0
100
AcDbLine
 10
0.0
 20
107.6
 30
0.0
 11
120.0
 21
107.6
 31
0.0
  0
TEXT
  5
1F4
330
1CF
100
AcDbEntity
  8
0
100
AcDbText
 10
3.0
 20
105.6
 30
0.0
 40
2.2
  1
CONTROL DE REVISIONES
  7
ARIAL
 11
3.0
 21
105.6
 31
0.0
100
AcDbText
 73
3
  0
LINE
  5
1F5
330
1CF
100
AcDbEntity
  8
0
100
AcDbLine
 10
0.0
 20
101.6
 30
0.0
 11
120.0
 21
101.6
 31
0.0
  0
TEXT
  5
1F6
330
1CF
100
AcDbEntity
  8
0
100
AcDbText
 10
6.0
 20
99.1
 30
0.0
 40
2.0
  1
REV.
  7
ARIAL
 72
1
 11
6.0
 21
99.1
 31
0.0
100
AcDbText
 73
2
  0
TEXT
  5
1F7
330
1CF
100
AcDbEntity
  8
0
100
AcDbText
 10
23.0
 20
99.1
 30
0.0
 40
2.0
  1
FECHA
  7
ARIAL
 72
1
 11
23.0
 21
99.1
 31
0.0
100
AcDbText
 73
2
  0
TEXT
  5
1F8
330
1CF
100
AcDbEntity
  8
0
100
AcDbText
 10
77.0
 20
99.1
 30
0.0
 40
2.0
  1
DESCRIPCIÓN
  7
ARIAL
 72
1
 11
77.0
 21
99.1
 31
0.0
100
AcDbText
 73
2
  0
LINE
  5
1F9
330
1CF
100
AcDbEntity
  8
0
100
AcDbLine
 10
0.0
 20
96.6
 30
0.0
 11
120.0
 21
96.6
 31
0.0
  0
ATTDEF
  5
1FA
330
1CF
100
AcDbEntity
  8
0
100
AcDbText
 10
6.0
 20
94.0
 30
0.0
 40
2.0
  1

  7
ARIAL
 72
1
 11
6.0
 21
94.0
 31
0.0
100
AcDbAttributeDefinition
  3

  2
REV0_N
 70
0
 74
2
 71
1
 72
0
 11
6.0
 21
94.0
 31
0.0
  0
ATTDEF
  5
1FB
330
1CF
100
AcDbEntity
  8
0
100
AcDbText
 10
23.0
 20
94.0
 30
0.0
 40
2.0
  1

  7
ARIAL
 72
1
 11
23.0
 21
94.0
 31
0.0
100
AcDbAttributeDefinition
  3

  2
REV0_F
 70
0
 74
2
 71
1
 72
0
 11
23.0
 21
94.0
 31
0.0
  0
ATTDEF
  5
1FC
330
1CF
100
AcDbEntity
  8
0
100
AcDbText
 10
35.5
 20
94.0
 30
0.0
 40
2.0
  1

  7
ARIAL
 11
35.5
 21
94.0
 31
0.0
100
AcDbAttributeDefinition
  3

  2
REV0_D
 70
0
 74
2
 71
1
 72
0
 11
35.5
 21
94.0
 31
0.0
  0
LINE
  5
1FD
330
1CF
100
AcDbEntity
  8
0
100
AcDbLine
 10
0.0
 20
91.39999999999999
 30
0.0
 11
120.0
 21
91.39999999999999
 31
0.0
  0
ATTDEF
  5
1FE
330
1CF
100
AcDbEntity
  8
0
100
AcDbText
 10
6.0
 20
88.8
 30
0.0
 40
2.0
  1

  7
ARIAL
 72
1
 11
6.0
 21
88.8
 31
0.0
100
AcDbAttributeDefinition
  3

  2
REV1_N
 70
0
 74
2
 71
1
 72
0
 11
6.0
 21
88.8
 31
0.0
  0
ATTDEF
  5
1FF
330
1CF
100
AcDbEntity
  8
0
100
AcDbText
 10
23.0
 20
88.8
 30
0.0
 40
2.0
  1

  7
ARIAL
 72
1
 11
23.0
 21
88.8
 31
0.0
100
AcDbAttributeDefinition
  3

  2
REV1_F
 70
0
 74
2
 71
1
 72
0
 11
23.0
 21
88.8
 31
0.0
  0
ATTDEF
  5
200
330
1CF
100
AcDbEntity
  8
0
100
AcDbText
 10
35.5
 20
88.8
 30
0.0
 40
2.0
  1

  7
ARIAL
 11
35.5
 21
88.8
 31
0.0
100
AcDbAttributeDefinition
  3

  2
REV1_D
 70
0
 74
2
 71
1
 72
0
 11
35.5
 21
88.8
 31
0.0
  0
LINE
  5
201
330
1CF
100
AcDbEntity
  8
0
100
AcDbLine
 10
0.0
 20
86.19999999999999
 30
0.0
 11
120.0
 21
86.19999999999999
 31
0.0
  0
ATTDEF
  5
202
330
1CF
100
AcDbEntity
  8
0
100
AcDbText
 10
6.0
 20
83.6
 30
0.0
 40
2.0
  1

  7
ARIAL
 72
1
 11
6.0
 21
83.6
 31
0.0
100
AcDbAttributeDefinition
  3

  2
REV2_N
 70
0
 74
2
 71
1
 72
0
 11
6.0
 21
83.6
 31
0.0
  0
ATTDEF
  5
203
330
1CF
100
AcDbEntity
  8
0
100
AcDbText
 10
23.0
 20
83.6
 30
0.0
 40
2.0
  1

  7
ARIAL
 72
1
 11
23.0
 21
83.6
 31
0.0
100
AcDbAttributeDefinition
  3

  2
REV2_F
 70
0
 74
2
 71
1
 72
0
 11
23.0
 21
83.6
 31
0.0
  0
ATTDEF
  5
204
330
1CF
100
AcDbEntity
  8
0
100
AcDbText
 10
35.5
 20
83.6
 30
0.0
 40
2.0
  1

  7
ARIAL
 11
35.5
 21
83.6
 31
0.0
100
AcDbAttributeDefinition
  3

  2
REV2_D
 70
0
 74
2
 71
1
 72
0
 11
35.5
 21
83.6
 31
0.0
  0
LINE
  5
205
330
1CF
100
AcDbEntity
  8
0
100
AcDbLine
 10
0.0
 20
80.99999999999999
 30
0.0
 11
120.0
 21
80.99999999999999
 31
0.0
  0
LINE
  5
206
330
1CF
100
AcDbEntity
  8
0
100
AcDbLine
 10
12.0
 20
101.6
 30
0.0
 11
12.0
 21
80.99999999999999
 31
0.0
  0
LINE
  5
207
330
1CF
100
AcDbEntity
  8
0
100
AcDbLine
 10
34.0
 20
101.6
 30
0.0
 11
34.0
 21
80.99999999999999
 31
0.0
  0
TEXT
  5
208
330
1CF
100
AcDbEntity
  8
0
100
AcDbText
 10
3.0
 20
78.49999999999999
 30
0.0
 40
2.2
  1
ESTADO:
  7
ARIAL
 11
3.0
 21
78.49999999999999
 31
0.0
100
AcDbText
 73
3
  0
ATTDEF
  5
209
330
1CF
100
AcDbEntity
  8
0
100
AcDbText
 10
60.0
 20
72.99999999999999
 30
0.0
 40
3.0
  1

  7
ARIAL
 72
1
 11
60.0
 21
72.99999999999999
 31
0.0
100
AcDbAttributeDefinition
  3

  2
ESTADO_1
 70
0
 74
3
 71
1
 72
0
 11
60.0
 21
72.99999999999999
 31
0.0
  0
ATTDEF
  5
20A
330
1CF
100
AcDbEntity
  8
0
100
AcDbText
 10
60.0
 20
67.99999999999999
 30
0.0
 40
2.4
  1

  7
ARIAL
 72
1
 11
60.0
 21
67.99999999999999
 31
0.0
100
AcDbAttributeDefinition
  3

  2
ESTADO_2
 70
0
 74
3
 71
1
 72
0
 11
60.0
 21
67.99999999999999
 31
0.0
  0
LINE
  5
20B
330
1CF
100
AcDbEntity
  8
0
100
AcDbLine
 10
0.0
 20
61.999999999999986
 30
0.0
 11
120.0
 21
61.999999999999986
 31
0.0
  0
LINE
  5
20C
330
1CF
100
AcDbEntity
  8
0
100
AcDbLine
 10
0.0
 20
52.999999999999986
 30
0.0
 11
120.0
 21
52.999999999999986
 31
0.0
  0
LINE
  5
20D
330
1CF
100
AcDbEntity
  8
0
100
AcDbLine
 10
0.0
 20
26.999999999999986
 30
0.0
 11
120.0
 21
26.999999999999986
 31
0.0
  0
LINE
  5
20E
330
1CF
100
AcDbEntity
  8
0
100
AcDbLine
 10
66.0
 20
61.999999999999986
 30
0.0
 11
66.0
 21
0.0
 31
0.0
  0
TEXT
  5
20F
330
1CF
100
AcDbEntity
  8
0
100
AcDbText
 10
33.0
 20
57.499999999999986
 30
0.0
 40
3.0
  1
LUGAR
  7
ARIAL
 72
1
 11
33.0
 21
57.499999999999986
 31
0.0
100
AcDbText
 73
2
  0
TEXT
  5
210
330
1CF
100
AcDbEntity
  8
0
100
AcDbText
 10
93.0
 20
57.499999999999986
 30
0.0
 40
3.0
  1
LÁMINA
  7
ARIAL
 72
1
 11
93.0
 21
57.499999999999986
 31
0.0
100
AcDbText
 73
2
  0
ATTDEF
  5
211
330
1CF
100
AcDbEntity
  8
0
100
AcDbText
 10
33.0
 20
39.999999999999986
 30
0.0
 40
5.0
  1

  7
ARIAL
 72
1
 11
33.0
 21
39.999999999999986
 31
0.0
100
AcDbAttributeDefinition
  3

  2
LUGAR
 70
0
 74
2
 71
1
 72
0
 11
33.0
 21
39.999999999999986
 31
0.0
  0
ATTDEF
  5
212
330
1CF
100
AcDbEntity
  8
0
100
AcDbText
 10
93.0
 20
39.999999999999986
 30
0.0
 40
14.0
  1

  7
ARIAL
 72
1
 11
93.0
 21
39.999999999999986
 31
0.0
100
AcDbAttributeDefinition
  3

  2
LAMINA
 70
0
 74
2
 71
1
 72
0
 11
93.0
 21
39.999999999999986
 31
0.0
  0
ATTDEF
  5
213
330
1CF
100
AcDbEntity
  8
0
100
AcDbText
 10
33.0
 20
13.499999999999993
 30
0.0
 40
6.0
  1

  7
ARIAL
 72
1
 11
33.0
 21
13.499999999999993
 31
0.0
100
AcDbAttributeDefinition
  3

  2
FECHA
 70
0
 74
2
 71
1
 72
0
 11
33.0
 21
13.499999999999993
 31
0.0
  0
TEXT
  5
214
330
1CF
100
AcDbEntity
  8
0
100
AcDbText
 10
70.0
 20
13.499999999999993
 30
0.0
 40
3.0
  1
TOTAL
  7
ARIAL
 11
70.0
 21
13.499999999999993
 31
0.0
100
AcDbText
 73
2
  0
ATTDEF
  5
215
330
1CF
100
AcDbEntity
  8
0
100
AcDbText
 10
104.0
 20
13.499999999999993
 30
0.0
 40
9.0
  1

  7
ARIAL
 72
1
 11
104.0
 21
13.499999999999993
 31
0.0
100
AcDbAttributeDefinition
  3

  2
TOTAL
 70
0
 74
2
 71
1
 72
0
 11
104.0
 21
13.499999999999993
 31
0.0
  0
ENDBLK
  5
1D1
330
1CF
100
AcDbEntity
  8
0
100
AcDbBlockEnd
  0
ENDSEC
  0
SECTION
  2
ENTITIES
  0
VIEWPORT
  5
C6
330
C2
100
AcDbEntity
 67
1
  8
VIEWPORTS
100
AcDbViewport
 10
420.5
 20
297.0
 30
0.0
 40
925.1
 41
653.4000000000001
 68
1
 69
1
 12
420.5
 22
297.0
 13
0.0
 23
0.0
 14
10.0
 24
10.0
 15
10.0
 25
10.0
 16
0.0
 26
0.0
 36
1.0
 17
0.0
 27
0.0
 37
0.0
 42
50.0
 43
0.0
 44
0.0
 45
653.4000000000001
 50
0.0
 51
0.0
 72
100
 90
557088
  1

281
0
 71
0
 74
0
110
0.0
120
0.0
130
0.0
111
1.0
121
0.0
131
0.0
112
0.0
122
1.0
132
0.0
 79
0
146
0.0
282
0
  0
LWPOLYLINE
  5
C7
330
C2
100
AcDbEntity
 67
1
  8
A-VIEWPORT
100
AcDbPolyline
 90
4
 70
1
 10
0.0
 20
0.0
 10
841.0
 20
0.0
 10
841.0
 20
594.0
 10
0.0
 20
594.0
  0
LWPOLYLINE
  5
C8
330
C2
100
AcDbEntity
 67
1
  8
A-MARCO
100
AcDbPolyline
 90
4
 70
1
 10
25.0
 20
10.0
 10
831.0
 20
10.0
 10
831.0
 20
584.0
 10
25.0
 20
584.0
  0
TEXT
  5
C9
330
C2
100
AcDbEntity
 67
1
  8
A-TEXTO
100
AcDbText
 10
25.0
 20
4.0
 30
0.0
 40
1.8
  1
FORMATO A1  841 mm x 594 mm
  7
ARIAL
 11
25.0
 21
4.0
 31
0.0
100
AcDbText
  0
LWPOLYLINE
  5
CA
330
C2
100
AcDbEntity
 67
1
  8
D-FINO
100
AcDbPolyline
 90
4
 70
1
 10
33.0
 20
305.0
 10
199.0
 20
305.0
 10
199.0
 20
577.0
 10
33.0
 20
577.0
  0
TEXT
  5
CB
330
C2
100
AcDbEntity
 67
1
  8
A-TITULOS
100
AcDbText
 10
37.0
 20
315.0
 30
0.0
 40
3.0
  1
DET. 1 - ALTURAS DE MONTAJE
  7
ARIAL
 11
37.0
 21
315.0
 31
0.0
100
AcDbText
 73
1
  0
TEXT
  5
CC
330
C2
100
AcDbEntity
 67
1
  8
A-TEXTO
100
AcDbText
 10
37.0
 20
310.0
 30
0.0
 40
2.2
  1
ELEVACIÓN DE PARED - S/E
  7
ARIAL
 11
37.0
 21
310.0
 31
0.0
100
AcDbText
 73
1
  0
LINE
  5
CD
330
C2
100
AcDbEntity
 67
1
  8
D-COND
100
AcDbLine
 10
55.0
 20
345.0
 30
0.0
 11
175.0
 21
345.0
 31
0.0
  0
HATCH
  5
CE
330
C2
100
AcDbEntity
 67
1
  8
D-TRAMA
 62
7
100
AcDbHatch
 10
0.0
 20
0.0
 30
0.0
210
0.0
220
0.0
230
1.0
  2
ANSI31
 70
0
 71
0
 91
1
 92
3
 72
0
 73
1
 93
4
 10
55.0
 20
342.0
 10
175.0
 20
342.0
 10
175.0
 20
345.0
 10
55.0
 20
345.0
 97
0
 75
1
 76
1
 52
0.0
 41
0.5
 77
0
 78
1
 53
45.0
 43
0.0
 44
0.0
 45
-1.1225320152
 46
1.1225320152
 79
0
 98
0
  0
TEXT
  5
CF
330
C2
100
AcDbEntity
 67
1
  8
A-TEXTO
100
AcDbText
 10
177.0
 20
345.0
 30
0.0
 40
1.9
  1
NPT
  7
ARIAL
 11
177.0
 21
345.0
 31
0.0
100
AcDbText
 73
2
  0
CIRCLE
  5
D0
330
C2
100
AcDbEntity
 67
1
  8
E-TOMA
100
AcDbCircle
 10
70.0
 20
357.0
 30
0.0
 40
2.4000000000000004
  0
LINE
  5
D1
330
C2
100
AcDbEntity
 67
1
  8
E-TOMA
100
AcDbLine
 10
69.1
 20
354.6
 30
0.0
 11
69.1
 21
360.9
 31
0.0
  0
LINE
  5
D2
330
C2
100
AcDbEntity
 67
1
  8
E-TOMA
100
AcDbLine
 10
70.9
 20
354.6
 30
0.0
 11
70.9
 21
360.9
 31
0.0
  0
LINE
  5
D3
330
C2
100
AcDbEntity
 67
1
  8
D-FINO
100
AcDbLine
 10
76.0
 20
345.0
 30
0.0
 11
76.0
 21
357.0
 31
0.0
  0
LINE
  5
D4
330
C2
100
AcDbEntity
 67
1
  8
D-FINO
100
AcDbLine
 10
74.5
 20
345.0
 30
0.0
 11
77.5
 21
345.0
 31
0.0
  0
LINE
  5
D5
330
C2
100
AcDbEntity
 67
1
  8
D-FINO
100
AcDbLine
 10
74.5
 20
357.0
 30
0.0
 11
77.5
 21
357.0
 31
0.0
  0
TEXT
  5
D6
330
C2
100
AcDbEntity
 67
1
  8
A-TEXTO
100
AcDbText
 10
77.5
 20
351.0
 30
0.0
 40
1.9
  1
0,30
 50
90.0
  7
ARIAL
 11
77.5
 21
351.0
 31
0.0
100
AcDbText
 73
2
  0
MTEXT
  5
D7
330
C2
100
AcDbEntity
 67
1
  8
A-TEXTO
100
AcDbMText
 10
70.0
 20
366.0
 30
0.0
 40
1.7
 41
26.0
 71
8
  1
TOMACORRIENTE 0,30 m
  7
ARIAL
  0
CIRCLE
  5
D8
330
C2
100
AcDbEntity
 67
1
  8
E-TOMA
100
AcDbCircle
 10
100.0
 20
405.0
 30
0.0
 40
2.4000000000000004
  0
LINE
  5
D9
330
C2
100
AcDbEntity
 67
1
  8
E-TOMA
100
AcDbLine
 10
99.1
 20
402.6
 30
0.0
 11
99.1
 21
408.9
 31
0.0
  0
LINE
  5
DA
330
C2
100
AcDbEntity
 67
1
  8
E-TOMA
100
AcDbLine
 10
100.9
 20
402.6
 30
0.0
 11
100.9
 21
408.9
 31
0.0
  0
HATCH
  5
DB
330
C2
100
AcDbEntity
 67
1
  8
E-TOMA
 62
7
100
AcDbHatch
 10
0.0
 20
0.0
 30
0.0
210
0.0
220
0.0
230
1.0
  2
SOLID
 70
1
 71
0
 91
1
 92
3
 72
0
 73
1
 93
4
 10
99.1
 20
402.75
 10
100.9
 20
402.75
 10
100.9
 20
407.25
 10
99.1
 20
407.25
 97
0
 75
0
 76
1
 98
0
  0
LINE
  5
DC
330
C2
100
AcDbEntity
 67
1
  8
D-FINO
100
AcDbLine
 10
106.0
 20
345.0
 30
0.0
 11
106.0
 21
405.0
 31
0.0
  0
LINE
  5
DD
330
C2
100
AcDbEntity
 67
1
  8
D-FINO
100
AcDbLine
 10
104.5
 20
345.0
 30
0.0
 11
107.5
 21
345.0
 31
0.0
  0
LINE
  5
DE
330
C2
100
AcDbEntity
 67
1
  8
D-FINO
100
AcDbLine
 10
104.5
 20
405.0
 30
0.0
 11
107.5
 21
405.0
 31
0.0
  0
TEXT
  5
DF
330
C2
100
AcDbEntity
 67
1
  8
A-TEXTO
100
AcDbText
 10
107.5
 20
375.0
 30
0.0
 40
1.9
  1
1,50
 50
90.0
  7
ARIAL
 11
107.5
 21
375.0
 31
0.0
100
AcDbText
 73
2
  0
MTEXT
  5
E0
330
C2
100
AcDbEntity
 67
1
  8
A-TEXTO
100
AcDbMText
 10
100.0
 20
414.0
 30
0.0
 40
1.7
 41
26.0
 71
8
  1
TOMACORRIENTE 1,50 m
  7
ARIAL
  0
TEXT
  5
E1
330
C2
100
AcDbEntity
 67
1
  8
E-APAG
100
AcDbText
 10
130.0
 20
397.0
 30
0.0
 40
5.699999999999999
  1
$
  7
ARIAL
 72
1
 11
130.0
 21
397.0
 31
0.0
100
AcDbText
 73
2
  0
LINE
  5
E2
330
C2
100
AcDbEntity
 67
1
  8
D-FINO
100
AcDbLine
 10
136.0
 20
345.0
 30
0.0
 11
136.0
 21
397.0
 31
0.0
  0
LINE
  5
E3
330
C2
100
AcDbEntity
 67
1
  8
D-FINO
100
AcDbLine
 10
134.5
 20
345.0
 30
0.0
 11
137.5
 21
345.0
 31
0.0
  0
LINE
  5
E4
330
C2
100
AcDbEntity
 67
1
  8
D-FINO
100
AcDbLine
 10
134.5
 20
397.0
 30
0.0
 11
137.5
 21
397.0
 31
0.0
  0
TEXT
  5
E5
330
C2
100
AcDbEntity
 67
1
  8
A-TEXTO
100
AcDbText
 10
137.5
 20
371.0
 30
0.0
 40
1.9
  1
1,30
 50
90.0
  7
ARIAL
 11
137.5
 21
371.0
 31
0.0
100
AcDbText
 73
2
  0
MTEXT
  5
E6
330
C2
100
AcDbEntity
 67
1
  8
A-TEXTO
100
AcDbMText
 10
130.0
 20
406.0
 30
0.0
 40
1.7
 41
26.0
 71
8
  1
APAGADOR 1,30 m
  7
ARIAL
  0
CIRCLE
  5
E7
330
C2
100
AcDbEntity
 67
1
  8
E-TABLERO
100
AcDbCircle
 10
160.0
 20
421.0
 30
0.0
 40
3.5999999999999996
  0
TEXT
  5
E8
330
C2
100
AcDbEntity
 67
1
  8
E-TABLERO
100
AcDbText
 10
160.0
 20
421.0
 30
0.0
 40
3.3000000000000003
  1
M
  7
ARIAL
 72
1
 11
160.0
 21
421.0
 31
0.0
100
AcDbText
 73
2
  0
LINE
  5
E9
330
C2
100
AcDbEntity
 67
1
  8
D-FINO
100
AcDbLine
 10
166.0
 20
345.0
 30
0.0
 11
166.0
 21
421.0
 31
0.0
  0
LINE
  5
EA
330
C2
100
AcDbEntity
 67
1
  8
D-FINO
100
AcDbLine
 10
164.5
 20
345.0
 30
0.0
 11
167.5
 21
345.0
 31
0.0
  0
LINE
  5
EB
330
C2
100
AcDbEntity
 67
1
  8
D-FINO
100
AcDbLine
 10
164.5
 20
421.0
 30
0.0
 11
167.5
 21
421.0
 31
0.0
  0
TEXT
  5
EC
330
C2
100
AcDbEntity
 67
1
  8
A-TEXTO
100
AcDbText
 10
167.5
 20
383.0
 30
0.0
 40
1.9
  1
1,90
 50
90.0
  7
ARIAL
 11
167.5
 21
383.0
 31
0.0
100
AcDbText
 73
2
  0
MTEXT
  5
ED
330
C2
100
AcDbEntity
 67
1
  8
A-TEXTO
100
AcDbMText
 10
160.0
 20
430.0
 30
0.0
 40
1.7
 41
26.0
 71
8
  1
MEDIDOR 1,90 m (EXTERIOR)
  7
ARIAL
  0
MTEXT
  5
EE
330
C2
100
AcDbEntity
 67
1
  8
A-TEXTO
100
AcDbMText
 10
39.0
 20
335.0
 30
0.0
 40
1.8
 41
154.0
 71
7
  1
ALTURAS AL CENTRO DE LA CAJA, SOBRE EL NIVEL DE PISO TERMINADO (S.N.P.T.), SEGÚN LA SIMBOLOGÍA (E01-E04). TOMAS DE 1,50 m SOBRE MUEBLES DE COCINA Y DESPENSA. SALIDAS DE 240 V SEGÚN FABRICANTE.
  7
ARIAL
  0
LWPOLYLINE
  5
EF
330
C2
100
AcDbEntity
 67
1
  8
D-FINO
100
AcDbPolyline
 90
4
 70
1
 10
202.0
 20
305.0
 10
368.0
 20
305.0
 10
368.0
 20
577.0
 10
202.0
 20
577.0
  0
TEXT
  5
F0
330
C2
100
AcDbEntity
 67
1
  8
A-TITULOS
100
AcDbText
 10
206.0
 20
315.0
 30
0.0
 40
3.0
  1
DET. 2 - CONEXIÓN DE APAGADOR
  7
ARIAL
 11
206.0
 21
315.0
 31
0.0
100
AcDbText
 73
1
  0
TEXT
  5
F1
330
C2
100
AcDbEntity
 67
1
  8
A-TEXTO
100
AcDbText
 10
206.0
 20
310.0
 30
0.0
 40
2.2
  1
VISTA FRONTAL - S/E
  7
ARIAL
 11
206.0
 21
310.0
 31
0.0
100
AcDbText
 73
1
  0
LWPOLYLINE
  5
F2
330
C2
100
AcDbEntity
 67
1
  8
D-LINEAS
100
AcDbPolyline
 90
4
 70
1
 10
247.0
 20
425.0
 10
273.0
 20
425.0
 10
273.0
 20
465.0
 10
247.0
 20
465.0
  0
LWPOLYLINE
  5
F3
330
C2
100
AcDbEntity
 67
1
  8
D-FINO
100
AcDbPolyline
 90
4
 70
1
 10
249.0
 20
427.0
 10
271.0
 20
427.0
 10
271.0
 20
463.0
 10
249.0
 20
463.0
  0
LWPOLYLINE
  5
F4
330
C2
100
AcDbEntity
 67
1
  8
D-LINEAS
100
AcDbPolyline
 90
4
 70
1
 10
256.0
 20
465.0
 10
264.0
 20
465.0
 10
264.0
 20
495.0
 10
256.0
 20
495.0
  0
LWPOLYLINE
  5
F5
330
C2
100
AcDbEntity
 67
1
  8
D-LINEAS
100
AcDbPolyline
 90
4
 70
1
 10
254.0
 20
465.0
 10
266.0
 20
465.0
 10
266.0
 20
471.0
 10
254.0
 20
471.0
  0
LWPOLYLINE
  5
F6
330
C2
100
AcDbEntity
 67
1
  8
D-LINEAS
100
AcDbPolyline
 90
4
 70
1
 10
281.0
 20
429.0
 10
297.0
 20
429.0
 10
297.0
 20
461.0
 10
281.0
 20
461.0
  0
LWPOLYLINE
  5
F7
330
C2
100
AcDbEntity
 67
1
  8
D-LINEAS
100
AcDbPolyline
 90
4
 70
1
 10
286.0
 20
440.0
 10
292.0
 20
440.0
 10
292.0
 20
450.0
 10
286.0
 20
450.0
  0
LWPOLYLINE
  5
F8
330
C2
100
AcDbEntity
 67
1
  8
D-COND
100
AcDbPolyline
 90
3
 70
0
 10
259.0
 20
485.0
 10
259.0
 20
455.0
 10
283.0
 20
453.0
  0
LWPOLYLINE
  5
F9
330
C2
100
AcDbEntity
 67
1
  8
D-COND
100
AcDbPolyline
 90
3
 70
0
 10
261.0
 20
485.0
 10
261.0
 20
447.0
 10
283.0
 20
439.0
  0
LWPOLYLINE
  5
FA
330
C2
100
AcDbEntity
 67
1
  8
D-FINO
100
AcDbPolyline
 90
3
 70
0
 10
257.0
 20
485.0
 10
253.0
 20
433.0
 10
283.0
 20
431.0
  0
LINE
  5
FB
330
C2
100
AcDbEntity
 67
1
  8
D-FINO
100
AcDbLine
 10
307.0
 20
517.0
 30
0.0
 11
260.0
 21
491.0
 31
0.0
  0
CIRCLE
  5
FC
330
C2
100
AcDbEntity
 67
1
  8
D-FINO
100
AcDbCircle
 10
260.0
 20
491.0
 30
0.0
 40
0.5
  0
MTEXT
  5
FD
330
C2
100
AcDbEntity
 67
1
  8
A-TEXTO
100
AcDbMText
 10
308.5
 20
517.0
 30
0.0
 40
1.8
 41
48.0
 71
4
  1
TUBERÍA ELÉCTRICA
  7
ARIAL
  0
LINE
  5
FE
330
C2
100
AcDbEntity
 67
1
  8
D-FINO
100
AcDbLine
 10
307.0
 20
505.0
 30
0.0
 11
265.0
 21
468.0
 31
0.0
  0
CIRCLE
  5
FF
330
C2
100
AcDbEntity
 67
1
  8
D-FINO
100
AcDbCircle
 10
265.0
 20
468.0
 30
0.0
 40
0.5
  0
MTEXT
  5
100
330
C2
100
AcDbEntity
 67
1
  8
A-TEXTO
100
AcDbMText
 10
308.5
 20
505.0
 30
0.0
 40
1.8
 41
48.0
 71
4
  1
CONECTOR DE PRESIÓN
  7
ARIAL
  0
LINE
  5
101
330
C2
100
AcDbEntity
 67
1
  8
D-FINO
100
AcDbLine
 10
307.0
 20
493.0
 30
0.0
 11
273.0
 21
461.0
 31
0.0
  0
CIRCLE
  5
102
330
C2
100
AcDbEntity
 67
1
  8
D-FINO
100
AcDbCircle
 10
273.0
 20
461.0
 30
0.0
 40
0.5
  0
MTEXT
  5
103
330
C2
100
AcDbEntity
 67
1
  8
A-TEXTO
100
AcDbMText
 10
308.5
 20
493.0
 30
0.0
 40
1.8
 41
48.0
 71
4
  1
CAJA RECTANGULAR CERTIFICADA
  7
ARIAL
  0
LINE
  5
104
330
C2
100
AcDbEntity
 67
1
  8
D-FINO
100
AcDbLine
 10
307.0
 20
479.0
 30
0.0
 11
271.0
 21
454.0
 31
0.0
  0
CIRCLE
  5
105
330
C2
100
AcDbEntity
 67
1
  8
D-FINO
100
AcDbCircle
 10
271.0
 20
454.0
 30
0.0
 40
0.5
  0
MTEXT
  5
106
330
C2
100
AcDbEntity
 67
1
  8
A-TEXTO
100
AcDbMText
 10
308.5
 20
479.0
 30
0.0
 40
1.8
 41
48.0
 71
4
  1
FASE (ROJO)
  7
ARIAL
  0
LINE
  5
107
330
C2
100
AcDbEntity
 67
1
  8
D-FINO
100
AcDbLine
 10
307.0
 20
467.0
 30
0.0
 11
271.0
 21
443.0
 31
0.0
  0
CIRCLE
  5
108
330
C2
100
AcDbEntity
 67
1
  8
D-FINO
100
AcDbCircle
 10
271.0
 20
443.0
 30
0.0
 40
0.5
  0
MTEXT
  5
109
330
C2
100
AcDbEntity
 67
1
  8
A-TEXTO
100
AcDbMText
 10
308.5
 20
467.0
 30
0.0
 40
1.8
 41
48.0
 71
4
  1
RETORNO (AZUL)
  7
ARIAL
  0
LINE
  5
10A
330
C2
100
AcDbEntity
 67
1
  8
D-FINO
100
AcDbLine
 10
307.0
 20
445.0
 30
0.0
 11
267.0
 21
432.0
 31
0.0
  0
CIRCLE
  5
10B
330
C2
100
AcDbEntity
 67
1
  8
D-FINO
100
AcDbCircle
 10
267.0
 20
432.0
 30
0.0
 40
0.5
  0
MTEXT
  5
10C
330
C2
100
AcDbEntity
 67
1
  8
A-TEXTO
100
AcDbMText
 10
308.5
 20
445.0
 30
0.0
 40
1.8
 41
48.0
 71
4
  1
TIERRA (VERDE)
  7
ARIAL
  0
LINE
  5
10D
330
C2
100
AcDbEntity
 67
1
  8
D-FINO
100
AcDbLine
 10
307.0
 20
431.0
 30
0.0
 11
289.0
 21
458.0
 31
0.0
  0
CIRCLE
  5
10E
330
C2
100
AcDbEntity
 67
1
  8
D-FINO
100
AcDbCircle
 10
289.0
 20
458.0
 30
0.0
 40
0.5
  0
MTEXT
  5
10F
330
C2
100
AcDbEntity
 67
1
  8
A-TEXTO
100
AcDbMText
 10
308.5
 20
431.0
 30
0.0
 40
1.8
 41
48.0
 71
4
  1
APAGADOR
  7
ARIAL
  0
MTEXT
  5
110
330
C2
100
AcDbEntity
 67
1
  8
A-TEXTO
100
AcDbMText
 10
208.0
 20
380.0
 30
0.0
 40
1.8
 41
154.0
 71
7
  1
NOTAS: DEJAR COLAS DE CABLE DE 15 cm. EL BORDE FRONTAL DE LA CAJA RECTANGULAR DEBERÁ QUEDAR A MÁXIMO 6 mm DEL REPELLO TERMINADO EN MATERIALES NO INFLAMABLES, Y A RAS DE PARED TERMINADA EN MATERIALES INFLAMABLES.
  7
ARIAL
  0
LWPOLYLINE
  5
111
330
C2
100
AcDbEntity
 67
1
  8
D-FINO
100
AcDbPolyline
 90
4
 70
1
 10
371.0
 20
305.0
 10
537.0
 20
305.0
 10
537.0
 20
577.0
 10
371.0
 20
577.0
  0
TEXT
  5
112
330
C2
100
AcDbEntity
 67
1
  8
A-TITULOS
100
AcDbText
 10
375.0
 20
315.0
 30
0.0
 40
3.0
  1
DET. 3 - CONEXIÓN DE TOMACORRIENTE
  7
ARIAL
 11
375.0
 21
315.0
 31
0.0
100
AcDbText
 73
1
  0
TEXT
  5
113
330
C2
100
AcDbEntity
 67
1
  8
A-TEXTO
100
AcDbText
 10
375.0
 20
310.0
 30
0.0
 40
2.2
  1
VISTA FRONTAL - S/E
  7
ARIAL
 11
375.0
 21
310.0
 31
0.0
100
AcDbText
 73
1
  0
LWPOLYLINE
  5
114
330
C2
100
AcDbEntity
 67
1
  8
D-LINEAS
100
AcDbPolyline
 90
4
 70
1
 10
416.0
 20
425.0
 10
442.0
 20
425.0
 10
442.0
 20
465.0
 10
416.0
 20
465.0
  0
LWPOLYLINE
  5
115
330
C2
100
AcDbEntity
 67
1
  8
D-FINO
100
AcDbPolyline
 90
4
 70
1
 10
418.0
 20
427.0
 10
440.0
 20
427.0
 10
440.0
 20
463.0
 10
418.0
 20
463.0
  0
LWPOLYLINE
  5
116
330
C2
100
AcDbEntity
 67
1
  8
D-LINEAS
100
AcDbPolyline
 90
4
 70
1
 10
425.0
 20
465.0
 10
433.0
 20
465.0
 10
433.0
 20
495.0
 10
425.0
 20
495.0
  0
LWPOLYLINE
  5
117
330
C2
100
AcDbEntity
 67
1
  8
D-LINEAS
100
AcDbPolyline
 90
4
 70
1
 10
423.0
 20
465.0
 10
435.0
 20
465.0
 10
435.0
 20
471.0
 10
423.0
 20
471.0
  0
LWPOLYLINE
  5
118
330
C2
100
AcDbEntity
 67
1
  8
D-LINEAS
100
AcDbPolyline
 90
4
 70
1
 10
450.0
 20
429.0
 10
466.0
 20
429.0
 10
466.0
 20
461.0
 10
450.0
 20
461.0
  0
CIRCLE
  5
119
330
C2
100
AcDbEntity
 67
1
  8
D-LINEAS
100
AcDbCircle
 10
458.0
 20
438.0
 30
0.0
 40
3.2
  0
CIRCLE
  5
11A
330
C2
100
AcDbEntity
 67
1
  8
D-LINEAS
100
AcDbCircle
 10
458.0
 20
450.0
 30
0.0
 40
3.2
  0
LWPOLYLINE
  5
11B
330
C2
100
AcDbEntity
 67
1
  8
D-COND
100
AcDbPolyline
 90
3
 70
0
 10
428.0
 20
485.0
 10
428.0
 20
455.0
 10
452.0
 20
453.0
  0
LWPOLYLINE
  5
11C
330
C2
100
AcDbEntity
 67
1
  8
D-COND
100
AcDbPolyline
 90
3
 70
0
 10
430.0
 20
485.0
 10
430.0
 20
447.0
 10
452.0
 20
439.0
  0
LWPOLYLINE
  5
11D
330
C2
100
AcDbEntity
 67
1
  8
D-FINO
100
AcDbPolyline
 90
3
 70
0
 10
426.0
 20
485.0
 10
422.0
 20
433.0
 10
452.0
 20
431.0
  0
LINE
  5
11E
330
C2
100
AcDbEntity
 67
1
  8
D-FINO
100
AcDbLine
 10
476.0
 20
517.0
 30
0.0
 11
429.0
 21
491.0
 31
0.0
  0
CIRCLE
  5
11F
330
C2
100
AcDbEntity
 67
1
  8
D-FINO
100
AcDbCircle
 10
429.0
 20
491.0
 30
0.0
 40
0.5
  0
MTEXT
  5
120
330
C2
100
AcDbEntity
 67
1
  8
A-TEXTO
100
AcDbMText
 10
477.5
 20
517.0
 30
0.0
 40
1.8
 41
48.0
 71
4
  1
TUBERÍA ELÉCTRICA
  7
ARIAL
  0
LINE
  5
121
330
C2
100
AcDbEntity
 67
1
  8
D-FINO
100
AcDbLine
 10
476.0
 20
505.0
 30
0.0
 11
434.0
 21
468.0
 31
0.0
  0
CIRCLE
  5
122
330
C2
100
AcDbEntity
 67
1
  8
D-FINO
100
AcDbCircle
 10
434.0
 20
468.0
 30
0.0
 40
0.5
  0
MTEXT
  5
123
330
C2
100
AcDbEntity
 67
1
  8
A-TEXTO
100
AcDbMText
 10
477.5
 20
505.0
 30
0.0
 40
1.8
 41
48.0
 71
4
  1
CONECTOR DE PRESIÓN
  7
ARIAL
  0
LINE
  5
124
330
C2
100
AcDbEntity
 67
1
  8
D-FINO
100
AcDbLine
 10
476.0
 20
493.0
 30
0.0
 11
442.0
 21
461.0
 31
0.0
  0
CIRCLE
  5
125
330
C2
100
AcDbEntity
 67
1
  8
D-FINO
100
AcDbCircle
 10
442.0
 20
461.0
 30
0.0
 40
0.5
  0
MTEXT
  5
126
330
C2
100
AcDbEntity
 67
1
  8
A-TEXTO
100
AcDbMText
 10
477.5
 20
493.0
 30
0.0
 40
1.8
 41
48.0
 71
4
  1
CAJA RECTANGULAR CERTIFICADA
  7
ARIAL
  0
LINE
  5
127
330
C2
100
AcDbEntity
 67
1
  8
D-FINO
100
AcDbLine
 10
476.0
 20
479.0
 30
0.0
 11
440.0
 21
454.0
 31
0.0
  0
CIRCLE
  5
128
330
C2
100
AcDbEntity
 67
1
  8
D-FINO
100
AcDbCircle
 10
440.0
 20
454.0
 30
0.0
 40
0.5
  0
MTEXT
  5
129
330
C2
100
AcDbEntity
 67
1
  8
A-TEXTO
100
AcDbMText
 10
477.5
 20
479.0
 30
0.0
 40
1.8
 41
48.0
 71
4
  1
FASE (ROJO)
  7
ARIAL
  0
LINE
  5
12A
330
C2
100
AcDbEntity
 67
1
  8
D-FINO
100
AcDbLine
 10
476.0
 20
467.0
 30
0.0
 11
440.0
 21
443.0
 31
0.0
  0
CIRCLE
  5
12B
330
C2
100
AcDbEntity
 67
1
  8
D-FINO
100
AcDbCircle
 10
440.0
 20
443.0
 30
0.0
 40
0.5
  0
MTEXT
  5
12C
330
C2
100
AcDbEntity
 67
1
  8
A-TEXTO
100
AcDbMText
 10
477.5
 20
467.0
 30
0.0
 40
1.8
 41
48.0
 71
4
  1
NEUTRO (BLANCO)
  7
ARIAL
  0
LINE
  5
12D
330
C2
100
AcDbEntity
 67
1
  8
D-FINO
100
AcDbLine
 10
476.0
 20
445.0
 30
0.0
 11
436.0
 21
432.0
 31
0.0
  0
CIRCLE
  5
12E
330
C2
100
AcDbEntity
 67
1
  8
D-FINO
100
AcDbCircle
 10
436.0
 20
432.0
 30
0.0
 40
0.5
  0
MTEXT
  5
12F
330
C2
100
AcDbEntity
 67
1
  8
A-TEXTO
100
AcDbMText
 10
477.5
 20
445.0
 30
0.0
 40
1.8
 41
48.0
 71
4
  1
TIERRA (VERDE)
  7
ARIAL
  0
LINE
  5
130
330
C2
100
AcDbEntity
 67
1
  8
D-FINO
100
AcDbLine
 10
476.0
 20
431.0
 30
0.0
 11
458.0
 21
458.0
 31
0.0
  0
CIRCLE
  5
131
330
C2
100
AcDbEntity
 67
1
  8
D-FINO
100
AcDbCircle
 10
458.0
 20
458.0
 30
0.0
 40
0.5
  0
MTEXT
  5
132
330
C2
100
AcDbEntity
 67
1
  8
A-TEXTO
100
AcDbMText
 10
477.5
 20
431.0
 30
0.0
 40
1.8
 41
48.0
 71
4
  1
TOMACORRIENTE DOBLE POLARIZADO
  7
ARIAL
  0
MTEXT
  5
133
330
C2
100
AcDbEntity
 67
1
  8
A-TEXTO
100
AcDbMText
 10
377.0
 20
380.0
 30
0.0
 40
1.8
 41
154.0
 71
7
  1
NOTAS: DEJAR COLAS DE CABLE DE 15 cm. EL BORDE FRONTAL DE LA CAJA RECTANGULAR DEBERÁ QUEDAR A MÁXIMO 6 mm DEL REPELLO TERMINADO EN MATERIALES NO INFLAMABLES, Y A RAS DE PARED TERMINADA EN MATERIALES INFLAMABLES.
  7
ARIAL
  0
LWPOLYLINE
  5
134
330
C2
100
AcDbEntity
 67
1
  8
D-FINO
100
AcDbPolyline
 90
4
 70
1
 10
540.0
 20
305.0
 10
706.0
 20
305.0
 10
706.0
 20
577.0
 10
540.0
 20
577.0
  0
TEXT
  5
135
330
C2
100
AcDbEntity
 67
1
  8
A-TITULOS
100
AcDbText
 10
544.0
 20
315.0
 30
0.0
 40
3.0
  1
DET. 4 - CAJA OCTOGONAL DE PASO
  7
ARIAL
 11
544.0
 21
315.0
 31
0.0
100
AcDbText
 73
1
  0
TEXT
  5
136
330
C2
100
AcDbEntity
 67
1
  8
A-TEXTO
100
AcDbText
 10
544.0
 20
310.0
 30
0.0
 40
2.2
  1
CONEXIÓN DE LUMINARIA - S/E
  7
ARIAL
 11
544.0
 21
310.0
 31
0.0
100
AcDbText
 73
1
  0
LWPOLYLINE
  5
137
330
C2
100
AcDbEntity
 67
1
  8
D-LINEAS
100
AcDbPolyline
 90
8
 70
1
 10
622.1731087802709
 20
464.18440237676214
 10
609.1844023767621
 20
477.17310878027087
 10
590.8155976232379
 20
477.17310878027087
 10
577.8268912197291
 20
464.18440237676214
 10
577.8268912197291
 20
445.81559762323786
 10
590.8155976232379
 20
432.82689121972913
 10
609.1844023767621
 20
432.82689121972913
 10
622.1731087802709
 20
445.81559762323786
  0
LWPOLYLINE
  5
138
330
C2
100
AcDbEntity
 67
1
  8
D-LINEAS
100
AcDbPolyline
 90
4
 70
1
 10
576.0
 20
451.0
 10
554.0
 20
451.0
 10
554.0
 20
459.0
 10
576.0
 20
459.0
  0
LWPOLYLINE
  5
139
330
C2
100
AcDbEntity
 67
1
  8
D-LINEAS
100
AcDbPolyline
 90
4
 70
1
 10
624.0
 20
451.0
 10
646.0
 20
451.0
 10
646.0
 20
459.0
 10
624.0
 20
459.0
  0
LWPOLYLINE
  5
13A
330
C2
100
AcDbEntity
 67
1
  8
D-LINEAS
100
AcDbPolyline
 90
4
 70
1
 10
596.0
 20
477.0
 10
604.0
 20
477.0
 10
604.0
 20
497.0
 10
596.0
 20
497.0
  0
LWPOLYLINE
  5
13B
330
C2
100
AcDbEntity
 67
1
  8
D-COND
100
AcDbPolyline
 90
3
 70
0
 10
558.0
 20
456.0
 10
596.0
 20
459.0
 10
600.0
 20
493.0
  0
LWPOLYLINE
  5
13C
330
C2
100
AcDbEntity
 67
1
  8
D-COND
100
AcDbPolyline
 90
3
 70
0
 10
558.0
 20
454.0
 10
604.0
 20
451.0
 10
642.0
 20
454.0
  0
LWPOLYLINE
  5
13D
330
C2
100
AcDbEntity
 67
1
  8
D-FINO
100
AcDbPolyline
 90
3
 70
0
 10
558.0
 20
452.0
 10
600.0
 20
441.0
 10
642.0
 20
452.0
  0
LINE
  5
13E
330
C2
100
AcDbEntity
 67
1
  8
D-FINO
100
AcDbLine
 10
640.0
 20
525.0
 30
0.0
 11
600.0
 21
495.0
 31
0.0
  0
CIRCLE
  5
13F
330
C2
100
AcDbEntity
 67
1
  8
D-FINO
100
AcDbCircle
 10
600.0
 20
495.0
 30
0.0
 40
0.5
  0
MTEXT
  5
140
330
C2
100
AcDbEntity
 67
1
  8
A-TEXTO
100
AcDbMText
 10
641.5
 20
525.0
 30
0.0
 40
1.8
 41
44.0
 71
4
  1
COLA PARA LUMINARIA, CABLE 3 x 14 AWG
  7
ARIAL
  0
LINE
  5
141
330
C2
100
AcDbEntity
 67
1
  8
D-FINO
100
AcDbLine
 10
585.0
 20
500.0
 30
0.0
 11
564.0
 21
459.0
 31
0.0
  0
CIRCLE
  5
142
330
C2
100
AcDbEntity
 67
1
  8
D-FINO
100
AcDbCircle
 10
564.0
 20
459.0
 30
0.0
 40
0.5
  0
MTEXT
  5
143
330
C2
100
AcDbEntity
 67
1
  8
A-TEXTO
100
AcDbMText
 10
586.5
 20
500.0
 30
0.0
 40
1.8
 41
30.0
 71
4
  1
TUBERÍA ELÉCTRICA
  7
ARIAL
  0
LINE
  5
144
330
C2
100
AcDbEntity
 67
1
  8
D-FINO
100
AcDbLine
 10
585.0
 20
488.0
 30
0.0
 11
598.0
 21
461.0
 31
0.0
  0
CIRCLE
  5
145
330
C2
100
AcDbEntity
 67
1
  8
D-FINO
100
AcDbCircle
 10
598.0
 20
461.0
 30
0.0
 40
0.5
  0
MTEXT
  5
146
330
C2
100
AcDbEntity
 67
1
  8
A-TEXTO
100
AcDbMText
 10
583.5
 20
488.0
 30
0.0
 40
1.8
 41
30.0
 71
6
  1
FASE (ROJO)
  7
ARIAL
  0
LINE
  5
147
330
C2
100
AcDbEntity
 67
1
  8
D-FINO
100
AcDbLine
 10
650.0
 20
485.0
 30
0.0
 11
610.0
 21
452.0
 31
0.0
  0
CIRCLE
  5
148
330
C2
100
AcDbEntity
 67
1
  8
D-FINO
100
AcDbCircle
 10
610.0
 20
452.0
 30
0.0
 40
0.5
  0
MTEXT
  5
149
330
C2
100
AcDbEntity
 67
1
  8
A-TEXTO
100
AcDbMText
 10
651.5
 20
485.0
 30
0.0
 40
1.8
 41
40.0
 71
4
  1
NEUTRO (BLANCO)
  7
ARIAL
  0
LINE
  5
14A
330
C2
100
AcDbEntity
 67
1
  8
D-FINO
100
AcDbLine
 10
585.0
 20
419.0
 30
0.0
 11
600.0
 21
442.0
 31
0.0
  0
CIRCLE
  5
14B
330
C2
100
AcDbEntity
 67
1
  8
D-FINO
100
AcDbCircle
 10
600.0
 20
442.0
 30
0.0
 40
0.5
  0
MTEXT
  5
14C
330
C2
100
AcDbEntity
 67
1
  8
A-TEXTO
100
AcDbMText
 10
583.5
 20
419.0
 30
0.0
 40
1.8
 41
30.0
 71
6
  1
TIERRA (VERDE)
  7
ARIAL
  0
LINE
  5
14D
330
C2
100
AcDbEntity
 67
1
  8
D-FINO
100
AcDbLine
 10
650.0
 20
467.0
 30
0.0
 11
634.0
 21
459.0
 31
0.0
  0
CIRCLE
  5
14E
330
C2
100
AcDbEntity
 67
1
  8
D-FINO
100
AcDbCircle
 10
634.0
 20
459.0
 30
0.0
 40
0.5
  0
MTEXT
  5
14F
330
C2
100
AcDbEntity
 67
1
  8
A-TEXTO
100
AcDbMText
 10
651.5
 20
467.0
 30
0.0
 40
1.8
 41
40.0
 71
4
  1
CONECTOR DE PRESIÓN
  7
ARIAL
  0
LINE
  5
150
330
C2
100
AcDbEntity
 67
1
  8
D-FINO
100
AcDbLine
 10
650.0
 20
415.0
 30
0.0
 11
616.8
 21
438.2
 31
0.0
  0
CIRCLE
  5
151
330
C2
100
AcDbEntity
 67
1
  8
D-FINO
100
AcDbCircle
 10
616.8
 20
438.2
 30
0.0
 40
0.5
  0
MTEXT
  5
152
330
C2
100
AcDbEntity
 67
1
  8
A-TEXTO
100
AcDbMText
 10
651.5
 20
415.0
 30
0.0
 40
1.8
 41
40.0
 71
4
  1
CAJA OCTOGONAL CERTIFICADA
  7
ARIAL
  0
MTEXT
  5
153
330
C2
100
AcDbEntity
 67
1
  8
A-TEXTO
100
AcDbMText
 10
546.0
 20
355.0
 30
0.0
 40
1.8
 41
154.0
 71
7
  1
EMPALMES ÚNICAMENTE DENTRO DE CAJAS, CON CONECTORES DE EMPALME. LOS CONDUCTORES VIAJAN CONTINUOS ENTRE CAJA Y CAJA.
  7
ARIAL
  0
LWPOLYLINE
  5
154
330
C2
100
AcDbEntity
 67
1
  8
D-FINO
100
AcDbPolyline
 90
4
 70
1
 10
33.0
 20
28.0
 10
199.0
 20
28.0
 10
199.0
 20
300.0
 10
33.0
 20
300.0
  0
TEXT
  5
155
330
C2
100
AcDbEntity
 67
1
  8
A-TITULOS
100
AcDbText
 10
37.0
 20
38.0
 30
0.0
 40
3.0
  1
DET. 5 - UBICACIÓN DE ACCESORIOS EN PARED
  7
ARIAL
 11
37.0
 21
38.0
 31
0.0
100
AcDbText
 73
1
  0
TEXT
  5
156
330
C2
100
AcDbEntity
 67
1
  8
A-TEXTO
100
AcDbText
 10
37.0
 20
33.0
 30
0.0
 40
2.2
  1
ELEVACIONES - S/E
  7
ARIAL
 11
37.0
 21
33.0
 31
0.0
100
AcDbText
 73
1
  0
LINE
  5
157
330
C2
100
AcDbEntity
 67
1
  8
D-COND
100
AcDbLine
 10
43.0
 20
68.0
 30
0.0
 11
89.0
 21
68.0
 31
0.0
  0
TEXT
  5
158
330
C2
100
AcDbEntity
 67
1
  8
A-TEXTO
100
AcDbText
 10
66.0
 20
62.0
 30
0.0
 40
1.8
  1
EN PARED
  7
ARIAL
 72
1
 11
66.0
 21
62.0
 31
0.0
100
AcDbText
 73
2
  0
LINE
  5
159
330
C2
100
AcDbEntity
 67
1
  8
D-COND
100
AcDbLine
 10
95.0
 20
68.0
 30
0.0
 11
141.0
 21
68.0
 31
0.0
  0
TEXT
  5
15A
330
C2
100
AcDbEntity
 67
1
  8
A-TEXTO
100
AcDbText
 10
118.0
 20
62.0
 30
0.0
 40
1.8
  1
EN MOCHETA
  7
ARIAL
 72
1
 11
118.0
 21
62.0
 31
0.0
100
AcDbText
 73
2
  0
LINE
  5
15B
330
C2
100
AcDbEntity
 67
1
  8
D-COND
100
AcDbLine
 10
147.0
 20
68.0
 30
0.0
 11
193.0
 21
68.0
 31
0.0
  0
TEXT
  5
15C
330
C2
100
AcDbEntity
 67
1
  8
A-TEXTO
100
AcDbText
 10
170.0
 20
62.0
 30
0.0
 40
1.8
  1
ACCESORIOS ADYACENTES
  7
ARIAL
 72
1
 11
170.0
 21
62.0
 31
0.0
100
AcDbText
 73
2
  0
LINE
  5
15D
330
C2
100
AcDbEntity
 67
1
  8
D-LINEAS
100
AcDbLine
 10
47.0
 20
68.0
 30
0.0
 11
47.0
 21
238.0
 31
0.0
  0
LWPOLYLINE
  5
15E
330
C2
100
AcDbEntity
 67
1
  8
D-LINEAS
100
AcDbPolyline
 90
4
 70
1
 10
55.0
 20
188.0
 10
61.0
 20
188.0
 10
61.0
 20
198.0
 10
55.0
 20
198.0
  0
LWPOLYLINE
  5
15F
330
C2
100
AcDbEntity
 67
1
  8
D-LINEAS
100
AcDbPolyline
 90
4
 70
1
 10
55.0
 20
83.0
 10
63.0
 20
83.0
 10
63.0
 20
89.0
 10
55.0
 20
89.0
  0
LINE
  5
160
330
C2
100
AcDbEntity
 67
1
  8
D-FINO
100
AcDbLine
 10
73.0
 20
228.0
 30
0.0
 11
47.0
 21
158.0
 31
0.0
  0
CIRCLE
  5
161
330
C2
100
AcDbEntity
 67
1
  8
D-FINO
100
AcDbCircle
 10
47.0
 20
158.0
 30
0.0
 40
0.5
  0
MTEXT
  5
162
330
C2
100
AcDbEntity
 67
1
  8
A-TEXTO
100
AcDbMText
 10
74.5
 20
228.0
 30
0.0
 40
1.6
 41
18.0
 71
4
  1
BORDE DE PARED
  7
ARIAL
  0
LINE
  5
163
330
C2
100
AcDbEntity
 67
1
  8
D-LINEAS
100
AcDbLine
 10
109.0
 20
68.0
 30
0.0
 11
109.0
 21
238.0
 31
0.0
  0
LINE
  5
164
330
C2
100
AcDbEntity
 67
1
  8
D-LINEAS
100
AcDbLine
 10
125.0
 20
68.0
 30
0.0
 11
125.0
 21
238.0
 31
0.0
  0
LWPOLYLINE
  5
165
330
C2
100
AcDbEntity
 67
1
  8
D-LINEAS
100
AcDbPolyline
 90
4
 70
1
 10
114.0
 20
188.0
 10
120.0
 20
188.0
 10
120.0
 20
198.0
 10
114.0
 20
198.0
  0
LWPOLYLINE
  5
166
330
C2
100
AcDbEntity
 67
1
  8
D-LINEAS
100
AcDbPolyline
 90
4
 70
1
 10
113.0
 20
83.0
 10
121.0
 20
83.0
 10
121.0
 20
89.0
 10
113.0
 20
89.0
  0
LINE
  5
167
330
C2
100
AcDbEntity
 67
1
  8
D-FINO
100
AcDbLine
 10
131.0
 20
250.0
 30
0.0
 11
125.0
 21
218.0
 31
0.0
  0
CIRCLE
  5
168
330
C2
100
AcDbEntity
 67
1
  8
D-FINO
100
AcDbCircle
 10
125.0
 20
218.0
 30
0.0
 40
0.5
  0
MTEXT
  5
169
330
C2
100
AcDbEntity
 67
1
  8
A-TEXTO
100
AcDbMText
 10
132.5
 20
250.0
 30
0.0
 40
1.6
 41
22.0
 71
4
  1
MOCHETA MENOR A 40 cm: ACCESORIO CENTRADO
  7
ARIAL
  0
LINE
  5
16A
330
C2
100
AcDbEntity
 67
1
  8
D-LINEAS
100
AcDbLine
 10
151.0
 20
68.0
 30
0.0
 11
151.0
 21
238.0
 31
0.0
  0
LWPOLYLINE
  5
16B
330
C2
100
AcDbEntity
 67
1
  8
D-LINEAS
100
AcDbPolyline
 90
4
 70
1
 10
157.0
 20
188.0
 10
177.0
 20
188.0
 10
177.0
 20
198.0
 10
157.0
 20
198.0
  0
LWPOLYLINE
  5
16C
330
C2
100
AcDbEntity
 67
1
  8
D-FINO
100
AcDbPolyline
 90
4
 70
1
 10
159.0
 20
190.0
 10
163.0
 20
190.0
 10
163.0
 20
196.0
 10
159.0
 20
196.0
  0
LWPOLYLINE
  5
16D
330
C2
100
AcDbEntity
 67
1
  8
D-FINO
100
AcDbPolyline
 90
4
 70
1
 10
165.0
 20
190.0
 10
169.0
 20
190.0
 10
169.0
 20
196.0
 10
165.0
 20
196.0
  0
LWPOLYLINE
  5
16E
330
C2
100
AcDbEntity
 67
1
  8
D-FINO
100
AcDbPolyline
 90
4
 70
1
 10
171.0
 20
190.0
 10
175.0
 20
190.0
 10
175.0
 20
196.0
 10
171.0
 20
196.0
  0
LWPOLYLINE
  5
16F
330
C2
100
AcDbEntity
 67
1
  8
D-LINEAS
100
AcDbPolyline
 90
4
 70
1
 10
157.0
 20
83.0
 10
165.0
 20
83.0
 10
165.0
 20
89.0
 10
157.0
 20
89.0
  0
LWPOLYLINE
  5
170
330
C2
100
AcDbEntity
 67
1
  8
D-LINEAS
100
AcDbPolyline
 90
4
 70
1
 10
169.0
 20
83.0
 10
177.0
 20
83.0
 10
177.0
 20
89.0
 10
169.0
 20
89.0
  0
LWPOLYLINE
  5
171
330
C2
100
AcDbEntity
 67
1
  8
D-LINEAS
100
AcDbPolyline
 90
4
 70
1
 10
181.0
 20
83.0
 10
189.0
 20
83.0
 10
189.0
 20
89.0
 10
181.0
 20
89.0
  0
LINE
  5
172
330
C2
100
AcDbEntity
 67
1
  8
D-FINO
100
AcDbLine
 10
181.0
 20
218.0
 30
0.0
 11
177.0
 21
193.0
 31
0.0
  0
CIRCLE
  5
173
330
C2
100
AcDbEntity
 67
1
  8
D-FINO
100
AcDbCircle
 10
177.0
 20
193.0
 30
0.0
 40
0.5
  0
MTEXT
  5
174
330
C2
100
AcDbEntity
 67
1
  8
A-TEXTO
100
AcDbMText
 10
182.5
 20
218.0
 30
0.0
 40
1.6
 41
16.0
 71
4
  1
APAGADORES ADYACENTES EN CAJA DE MÚLTIPLES GANGS
  7
ARIAL
  0
MTEXT
  5
175
330
C2
100
AcDbEntity
 67
1
  8
A-TEXTO
100
AcDbMText
 10
39.0
 20
50.0
 30
0.0
 40
1.8
 41
154.0
 71
7
  1
ALTURAS SEGÚN DET. 1.
  7
ARIAL
  0
LWPOLYLINE
  5
176
330
C2
100
AcDbEntity
 67
1
  8
D-FINO
100
AcDbPolyline
 90
4
 70
1
 10
202.0
 20
28.0
 10
368.0
 20
28.0
 10
368.0
 20
300.0
 10
202.0
 20
300.0
  0
TEXT
  5
177
330
C2
100
AcDbEntity
 67
1
  8
A-TITULOS
100
AcDbText
 10
206.0
 20
38.0
 30
0.0
 40
3.0
  1
DET. 6 - PREVISTAS PARA TV EN PARED
  7
ARIAL
 11
206.0
 21
38.0
 31
0.0
100
AcDbText
 73
1
  0
TEXT
  5
178
330
C2
100
AcDbEntity
 67
1
  8
A-TEXTO
100
AcDbText
 10
206.0
 20
33.0
 30
0.0
 40
2.2
  1
ELEVACIÓN - S/E
  7
ARIAL
 11
206.0
 21
33.0
 31
0.0
100
AcDbText
 73
1
  0
LINE
  5
179
330
C2
100
AcDbEntity
 67
1
  8
D-COND
100
AcDbLine
 10
214.0
 20
78.0
 30
0.0
 11
314.0
 21
78.0
 31
0.0
  0
LWPOLYLINE
  5
17A
330
C2
100
AcDbEntity
 67
1
  8
D-LINEAS
100
AcDbPolyline
 90
4
 70
1
 10
219.0
 20
198.0
 10
309.0
 20
198.0
 10
309.0
 20
263.0
 10
219.0
 20
263.0
  0
TEXT
  5
17B
330
C2
100
AcDbEntity
 67
1
  8
A-TEXTO
100
AcDbText
 10
264.0
 20
256.0
 30
0.0
 40
1.9
  1
TV EN PARED
  7
ARIAL
 72
1
 11
264.0
 21
256.0
 31
0.0
100
AcDbText
 73
2
  0
LWPOLYLINE
  5
17C
330
C2
100
AcDbEntity
 67
1
  8
D-LINEAS
100
AcDbPolyline
 90
4
 70
1
 10
235.0
 20
228.0
 10
243.0
 20
228.0
 10
243.0
 20
236.0
 10
235.0
 20
236.0
  0
LINE
  5
17D
330
C2
100
AcDbEntity
 67
1
  8
D-FINO
100
AcDbLine
 10
239.0
 20
228.0
 30
0.0
 11
239.0
 21
96.0
 31
0.0
  0
LWPOLYLINE
  5
17E
330
C2
100
AcDbEntity
 67
1
  8
D-LINEAS
100
AcDbPolyline
 90
4
 70
1
 10
235.0
 20
88.0
 10
243.0
 20
88.0
 10
243.0
 20
96.0
 10
235.0
 20
96.0
  0
LWPOLYLINE
  5
17F
330
C2
100
AcDbEntity
 67
1
  8
D-LINEAS
100
AcDbPolyline
 90
4
 70
1
 10
260.0
 20
228.0
 10
268.0
 20
228.0
 10
268.0
 20
236.0
 10
260.0
 20
236.0
  0
LINE
  5
180
330
C2
100
AcDbEntity
 67
1
  8
D-FINO
100
AcDbLine
 10
264.0
 20
228.0
 30
0.0
 11
264.0
 21
96.0
 31
0.0
  0
LWPOLYLINE
  5
181
330
C2
100
AcDbEntity
 67
1
  8
D-LINEAS
100
AcDbPolyline
 90
4
 70
1
 10
260.0
 20
88.0
 10
268.0
 20
88.0
 10
268.0
 20
96.0
 10
260.0
 20
96.0
  0
LWPOLYLINE
  5
182
330
C2
100
AcDbEntity
 67
1
  8
D-LINEAS
100
AcDbPolyline
 90
4
 70
1
 10
285.0
 20
228.0
 10
293.0
 20
228.0
 10
293.0
 20
236.0
 10
285.0
 20
236.0
  0
LINE
  5
183
330
C2
100
AcDbEntity
 67
1
  8
D-FINO
100
AcDbLine
 10
289.0
 20
228.0
 30
0.0
 11
289.0
 21
96.0
 31
0.0
  0
LWPOLYLINE
  5
184
330
C2
100
AcDbEntity
 67
1
  8
D-LINEAS
100
AcDbPolyline
 90
4
 70
1
 10
285.0
 20
88.0
 10
293.0
 20
88.0
 10
293.0
 20
96.0
 10
285.0
 20
96.0
  0
LINE
  5
185
330
C2
100
AcDbEntity
 67
1
  8
D-FINO
100
AcDbLine
 10
320.0
 20
283.0
 30
0.0
 11
243.0
 21
232.0
 31
0.0
  0
CIRCLE
  5
186
330
C2
100
AcDbEntity
 67
1
  8
D-FINO
100
AcDbCircle
 10
243.0
 20
232.0
 30
0.0
 40
0.5
  0
MTEXT
  5
187
330
C2
100
AcDbEntity
 67
1
  8
A-TEXTO
100
AcDbMText
 10
321.5
 20
283.0
 30
0.0
 40
1.6
 41
40.0
 71
4
  1
CAJA CUADRADA CON ARO DE REPELLO DE 1 GANG
  7
ARIAL
  0
LINE
  5
188
330
C2
100
AcDbEntity
 67
1
  8
D-FINO
100
AcDbLine
 10
320.0
 20
183.0
 30
0.0
 11
239.0
 21
168.0
 31
0.0
  0
CIRCLE
  5
189
330
C2
100
AcDbEntity
 67
1
  8
D-FINO
100
AcDbCircle
 10
239.0
 20
168.0
 30
0.0
 40
0.5
  0
MTEXT
  5
18A
330
C2
100
AcDbEntity
 67
1
  8
A-TEXTO
100
AcDbMText
 10
321.5
 20
183.0
 30
0.0
 40
1.6
 41
40.0
 71
4
  1
TOMACORRIENTES: C. 13 mm Ø
  7
ARIAL
  0
LINE
  5
18B
330
C2
100
AcDbEntity
 67
1
  8
D-FINO
100
AcDbLine
 10
320.0
 20
158.0
 30
0.0
 11
289.0
 21
148.0
 31
0.0
  0
CIRCLE
  5
18C
330
C2
100
AcDbEntity
 67
1
  8
D-FINO
100
AcDbCircle
 10
289.0
 20
148.0
 30
0.0
 40
0.5
  0
MTEXT
  5
18D
330
C2
100
AcDbEntity
 67
1
  8
A-TEXTO
100
AcDbMText
 10
321.5
 20
158.0
 30
0.0
 40
1.6
 41
40.0
 71
4
  1
SALIDA DE TV: C. 25 mm Ø
  7
ARIAL
  0
LINE
  5
18E
330
C2
100
AcDbEntity
 67
1
  8
D-FINO
100
AcDbLine
 10
320.0
 20
133.0
 30
0.0
 11
264.0
 21
128.0
 31
0.0
  0
CIRCLE
  5
18F
330
C2
100
AcDbEntity
 67
1
  8
D-FINO
100
AcDbCircle
 10
264.0
 20
128.0
 30
0.0
 40
0.5
  0
MTEXT
  5
190
330
C2
100
AcDbEntity
 67
1
  8
A-TEXTO
100
AcDbMText
 10
321.5
 20
133.0
 30
0.0
 40
1.6
 41
40.0
 71
4
  1
C. 19 mm Ø
  7
ARIAL
  0
LINE
  5
191
330
C2
100
AcDbEntity
 67
1
  8
D-FINO
100
AcDbLine
 10
320.0
 20
108.0
 30
0.0
 11
293.0
 21
92.0
 31
0.0
  0
CIRCLE
  5
192
330
C2
100
AcDbEntity
 67
1
  8
D-FINO
100
AcDbCircle
 10
293.0
 20
92.0
 30
0.0
 40
0.5
  0
MTEXT
  5
193
330
C2
100
AcDbEntity
 67
1
  8
A-TEXTO
100
AcDbMText
 10
321.5
 20
108.0
 30
0.0
 40
1.6
 41
40.0
 71
4
  1
SALIDAS INFERIORES A 0,30 m (DET. 1)
  7
ARIAL
  0
LWPOLYLINE
  5
194
330
C2
100
AcDbEntity
 67
1
  8
D-FINO
100
AcDbPolyline
 90
4
 70
1
 10
371.0
 20
28.0
 10
537.0
 20
28.0
 10
537.0
 20
300.0
 10
371.0
 20
300.0
  0
TEXT
  5
195
330
C2
100
AcDbEntity
 67
1
  8
A-TITULOS
100
AcDbText
 10
375.0
 20
38.0
 30
0.0
 40
3.0
  1
DET. 7 - ZANJA DE ACOMETIDA SUBTERRÁNEA
  7
ARIAL
 11
375.0
 21
38.0
 31
0.0
100
AcDbText
 73
1
  0
TEXT
  5
196
330
C2
100
AcDbEntity
 67
1
  8
A-TEXTO
100
AcDbText
 10
375.0
 20
33.0
 30
0.0
 40
2.2
  1
CORTE - S/E
  7
ARIAL
 11
375.0
 21
33.0
 31
0.0
100
AcDbText
 73
1
  0
LINE
  5
197
330
C2
100
AcDbEntity
 67
1
  8
D-COND
100
AcDbLine
 10
378.0
 20
228.0
 30
0.0
 11
481.0
 21
228.0
 31
0.0
  0
LWPOLYLINE
  5
198
330
C2
100
AcDbEntity
 67
1
  8
D-LINEAS
100
AcDbPolyline
 90
4
 70
0
 10
386.0
 20
228.0
 10
386.0
 20
124.0
 10
456.0
 20
124.0
 10
456.0
 20
228.0
  0
HATCH
  5
199
330
C2
100
AcDbEntity
 67
1
  8
D-TRAMA
 62
7
100
AcDbHatch
 10
0.0
 20
0.0
 30
0.0
210
0.0
220
0.0
230
1.0
  2
AR-SAND
 70
0
 71
0
 91
1
 92
3
 72
0
 73
1
 93
4
 10
386.0
 20
124.0
 10
456.0
 20
124.0
 10
456.0
 20
132.0
 10
386.0
 20
132.0
 97
0
 75
1
 76
1
 52
0.0
 41
0.3
 77
0
 78
4
 53
37.5
 43
0.0
 44
0.0
 45
-0.4800093888
 46
14.6823971199
 79
6
 49
0.0
 49
-11.5824
 49
0.0
 49
-12.954
 49
0.0
 49
-12.3825
 53
7.5
 43
0.0
 44
0.0
 45
13.4856984941
 46
21.504753017
 79
6
 49
0.0
 49
-6.2484
 49
0.0
 49
-10.4394
 49
0.0
 49
-4.0005
 53
-32.5
 43
-9.3726
 44
0.0
 45
23.7297711072
 46
0.0431155404
 79
6
 49
0.0
 49
-3.81
 49
0.0
 49
-13.716
 49
0.0
 49
-17.907
 53
-42.5
 43
-9.3726
 44
0.0
 45
22.9066935742
 46
6.6878796977
 79
6
 49
0.0
 49
-1.905
 49
0.0
 49
-8.9916
 49
0.0
 49
-10.287
 98
0
  0
CIRCLE
  5
19A
330
C2
100
AcDbEntity
 67
1
  8
D-LINEAS
100
AcDbCircle
 10
406.0
 20
152.0
 30
0.0
 40
4.5
  0
HATCH
  5
19B
330
C2
100
AcDbEntity
 67
1
  8
D-TRAMA
 62
7
100
AcDbHatch
 10
0.0
 20
0.0
 30
0.0
210
0.0
220
0.0
230
1.0
  2
DOTS
 70
0
 71
0
 91
1
 92
3
 72
0
 73
1
 93
4
 10
386.0
 20
132.0
 10
456.0
 20
132.0
 10
456.0
 20
172.0
 10
386.0
 20
172.0
 97
0
 75
1
 76
1
 52
0.0
 41
0.4
 77
0
 78
1
 53
0.0
 43
0.0
 44
0.0
 45
0.3175
 46
0.635
 79
2
 49
0.0
 49
-0.635
 98
0
  0
CIRCLE
  5
19C
330
C2
100
AcDbEntity
 67
1
  8
D-LINEAS
100
AcDbCircle
 10
436.0
 20
191.0
 30
0.0
 40
3.0
  0
LINE
  5
19D
330
C2
100
AcDbEntity
 67
1
  8
D-FINO
100
AcDbLine
 10
406.0
 20
152.0
 30
0.0
 11
436.0
 21
152.0
 31
0.0
  0
TEXT
  5
19E
330
C2
100
AcDbEntity
 67
1
  8
A-TEXTO
100
AcDbText
 10
421.0
 20
154.0
 30
0.0
 40
1.6
  1
≥ 15 cm
  7
ARIAL
 72
1
 11
421.0
 21
154.0
 31
0.0
100
AcDbText
 73
1
  0
LINE
  5
19F
330
C2
100
AcDbEntity
 67
1
  8
D-FINO
100
AcDbLine
 10
476.0
 20
228.0
 30
0.0
 11
476.0
 21
152.0
 31
0.0
  0
LINE
  5
1A0
330
C2
100
AcDbEntity
 67
1
  8
D-FINO
100
AcDbLine
 10
474.0
 20
152.0
 30
0.0
 11
478.0
 21
152.0
 31
0.0
  0
TEXT
  5
1A1
330
C2
100
AcDbEntity
 67
1
  8
A-TEXTO
100
AcDbText
 10
477.5
 20
190.0
 30
0.0
 40
1.7
  1
0,50 m MÍN.
 50
90.0
  7
ARIAL
 72
1
 11
477.5
 21
190.0
 31
0.0
100
AcDbText
 73
2
  0
LINE
  5
1A2
330
C2
100
AcDbEntity
 67
1
  8
D-FINO
100
AcDbLine
 10
462.0
 20
228.0
 30
0.0
 11
462.0
 21
191.0
 31
0.0
  0
LINE
  5
1A3
330
C2
100
AcDbEntity
 67
1
  8
D-FINO
100
AcDbLine
 10
460.0
 20
191.0
 30
0.0
 11
464.0
 21
191.0
 31
0.0
  0
TEXT
  5
1A4
330
C2
100
AcDbEntity
 67
1
  8
A-TEXTO
100
AcDbText
 10
463.5
 20
209.5
 30
0.0
 40
1.7
  1
0,25 m MÍN.
 50
90.0
  7
ARIAL
 72
1
 11
463.5
 21
209.5
 31
0.0
100
AcDbText
 73
2
  0
LINE
  5
1A5
330
C2
100
AcDbEntity
 67
1
  8
D-FINO
100
AcDbLine
 10
476.0
 20
126.0
 30
0.0
 11
406.0
 21
152.0
 31
0.0
  0
CIRCLE
  5
1A6
330
C2
100
AcDbEntity
 67
1
  8
D-FINO
100
AcDbCircle
 10
406.0
 20
152.0
 30
0.0
 40
0.5
  0
MTEXT
  5
1A7
330
C2
100
AcDbEntity
 67
1
  8
A-TEXTO
100
AcDbMText
 10
477.5
 20
126.0
 30
0.0
 40
1.6
 41
52.0
 71
4
  1
ACOMETIDA ELÉCTRICA: PVC SCH-40 Ø 2"
  7
ARIAL
  0
LINE
  5
1A8
330
C2
100
AcDbEntity
 67
1
  8
D-FINO
100
AcDbLine
 10
476.0
 20
253.0
 30
0.0
 11
436.0
 21
191.0
 31
0.0
  0
CIRCLE
  5
1A9
330
C2
100
AcDbEntity
 67
1
  8
D-FINO
100
AcDbCircle
 10
436.0
 20
191.0
 30
0.0
 40
0.5
  0
MTEXT
  5
1AA
330
C2
100
AcDbEntity
 67
1
  8
A-TEXTO
100
AcDbMText
 10
477.5
 20
253.0
 30
0.0
 40
1.6
 41
52.0
 71
4
  1
VOZ Y DATOS: 2 C. 1" PVC
  7
ARIAL
  0
LINE
  5
1AB
330
C2
100
AcDbEntity
 67
1
  8
D-FINO
100
AcDbLine
 10
476.0
 20
112.0
 30
0.0
 11
396.0
 21
126.0
 31
0.0
  0
CIRCLE
  5
1AC
330
C2
100
AcDbEntity
 67
1
  8
D-FINO
100
AcDbCircle
 10
396.0
 20
126.0
 30
0.0
 40
0.5
  0
MTEXT
  5
1AD
330
C2
100
AcDbEntity
 67
1
  8
A-TEXTO
100
AcDbMText
 10
477.5
 20
112.0
 30
0.0
 40
1.6
 41
52.0
 71
4
  1
CAMA DE LASTRE COMPACTADO 5 cm
  7
ARIAL
  0
LINE
  5
1AE
330
C2
100
AcDbEntity
 67
1
  8
D-FINO
100
AcDbLine
 10
476.0
 20
160.0
 30
0.0
 11
446.0
 21
160.0
 31
0.0
  0
CIRCLE
  5
1AF
330
C2
100
AcDbEntity
 67
1
  8
D-FINO
100
AcDbCircle
 10
446.0
 20
160.0
 30
0.0
 40
0.5
  0
MTEXT
  5
1B0
330
C2
100
AcDbEntity
 67
1
  8
A-TEXTO
100
AcDbMText
 10
477.5
 20
160.0
 30
0.0
 40
1.6
 41
52.0
 71
4
  1
ARENA LIMPIA 10 cm SOBRE EL TUBO
  7
ARIAL
  0
MTEXT
  5
1B1
330
C2
100
AcDbEntity
 67
1
  8
A-TEXTO
100
AcDbMText
 10
377.0
 20
78.0
 30
0.0
 40
1.8
 41
154.0
 71
7
  1
CANALIZACIONES ELÉCTRICAS A 50 cm MÍNIMO CUBIERTAS CON 10 cm DE ARENA LIMPIA; TELEFÓNICAS A 25 cm MÍNIMO CON 5 cm DE ARENA; SEPARACIÓN ENTRE DUCTOS 15 cm MÍNIMO (E04).
  7
ARIAL
  0
LWPOLYLINE
  5
1B2
330
C2
100
AcDbEntity
 67
1
  8
D-FINO
100
AcDbPolyline
 90
4
 70
1
 10
540.0
 20
28.0
 10
706.0
 20
28.0
 10
706.0
 20
300.0
 10
540.0
 20
300.0
  0
TEXT
  5
1B3
330
C2
100
AcDbEntity
 67
1
  8
A-TITULOS
100
AcDbText
 10
544.0
 20
38.0
 30
0.0
 40
3.0
  1
DET. 8 - SISTEMA DE PUESTA A TIERRA
  7
ARIAL
 11
544.0
 21
38.0
 31
0.0
100
AcDbText
 73
1
  0
TEXT
  5
1B4
330
C2
100
AcDbEntity
 67
1
  8
A-TEXTO
100
AcDbText
 10
544.0
 20
33.0
 30
0.0
 40
2.2
  1
CORTE ESQUEMÁTICO - S/E
  7
ARIAL
 11
544.0
 21
33.0
 31
0.0
100
AcDbText
 73
1
  0
LINE
  5
1B5
330
C2
100
AcDbEntity
 67
1
  8
D-COND
100
AcDbLine
 10
555.0
 20
243.0
 30
0.0
 11
690.0
 21
243.0
 31
0.0
  0
LWPOLYLINE
  5
1B6
330
C2
100
AcDbEntity
 67
1
  8
D-LINEAS
100
AcDbPolyline
 90
4
 70
1
 10
577.0
 20
233.0
 10
593.0
 20
233.0
 10
593.0
 20
243.0
 10
577.0
 20
243.0
  0
LINE
  5
1B7
330
C2
100
AcDbEntity
 67
1
  8
D-COND
100
AcDbLine
 10
585.0
 20
233.0
 30
0.0
 11
585.0
 21
103.0
 31
0.0
  0
LWPOLYLINE
  5
1B8
330
C2
100
AcDbEntity
 67
1
  8
D-LINEAS
100
AcDbPolyline
 90
4
 70
1
 10
652.0
 20
233.0
 10
668.0
 20
233.0
 10
668.0
 20
243.0
 10
652.0
 20
243.0
  0
LINE
  5
1B9
330
C2
100
AcDbEntity
 67
1
  8
D-COND
100
AcDbLine
 10
660.0
 20
233.0
 30
0.0
 11
660.0
 21
103.0
 31
0.0
  0
LINE
  5
1BA
330
C2
100
AcDbEntity
 67
1
  8
D-FINO
100
AcDbLine
 10
585.0
 20
237.0
 30
0.0
 11
660.0
 21
237.0
 31
0.0
  0
LINE
  5
1BB
330
C2
100
AcDbEntity
 67
1
  8
D-FINO
100
AcDbLine
 10
585.0
 20
93.0
 30
0.0
 11
660.0
 21
93.0
 31
0.0
  0
LINE
  5
1BC
330
C2
100
AcDbEntity
 67
1
  8
D-FINO
100
AcDbLine
 10
585.0
 20
95.0
 30
0.0
 11
585.0
 21
91.0
 31
0.0
  0
LINE
  5
1BD
330
C2
100
AcDbEntity
 67
1
  8
D-FINO
100
AcDbLine
 10
660.0
 20
95.0
 30
0.0
 11
660.0
 21
91.0
 31
0.0
  0
TEXT
  5
1BE
330
C2
100
AcDbEntity
 67
1
  8
A-TEXTO
100
AcDbText
 10
622.0
 20
95.0
 30
0.0
 40
1.8
  1
3,00 m
  7
ARIAL
 72
1
 11
622.0
 21
95.0
 31
0.0
100
AcDbText
 73
1
  0
LINE
  5
1BF
330
C2
100
AcDbEntity
 67
1
  8
D-FINO
100
AcDbLine
 10
675.0
 20
243.0
 30
0.0
 11
675.0
 21
103.0
 31
0.0
  0
TEXT
  5
1C0
330
C2
100
AcDbEntity
 67
1
  8
A-TEXTO
100
AcDbText
 10
677.0
 20
173.0
 30
0.0
 40
1.8
  1
≥ 3,05 m
 50
90.0
  7
ARIAL
 11
677.0
 21
173.0
 31
0.0
100
AcDbText
 73
2
  0
LINE
  5
1C1
330
C2
100
AcDbEntity
 67
1
  8
D-FINO
100
AcDbLine
 10
585.0
 20
243.0
 30
0.0
 11
585.0
 21
263.0
 31
0.0
  0
LINE
  5
1C2
330
C2
100
AcDbEntity
 67
1
  8
D-FINO
100
AcDbLine
 10
605.0
 20
273.0
 30
0.0
 11
585.0
 21
258.0
 31
0.0
  0
CIRCLE
  5
1C3
330
C2
100
AcDbEntity
 67
1
  8
D-FINO
100
AcDbCircle
 10
585.0
 20
258.0
 30
0.0
 40
0.5
  0
MTEXT
  5
1C4
330
C2
100
AcDbEntity
 67
1
  8
A-TEXTO
100
AcDbMText
 10
606.5
 20
273.0
 30
0.0
 40
1.6
 41
50.0
 71
4
  1
CU 1 #6 AWG THHN EN C. 1/2" PVC AL TABLERO
  7
ARIAL
  0
LINE
  5
1C5
330
C2
100
AcDbEntity
 67
1
  8
D-FINO
100
AcDbLine
 10
625.0
 20
213.0
 30
0.0
 11
622.0
 21
237.0
 31
0.0
  0
CIRCLE
  5
1C6
330
C2
100
AcDbEntity
 67
1
  8
D-FINO
100
AcDbCircle
 10
622.0
 20
237.0
 30
0.0
 40
0.5
  0
MTEXT
  5
1C7
330
C2
100
AcDbEntity
 67
1
  8
A-TEXTO
100
AcDbMText
 10
626.5
 20
213.0
 30
0.0
 40
1.6
 41
40.0
 71
4
  1
INTERCONEXIÓN CABLE #6 AWG DESNUDO
  7
ARIAL
  0
LINE
  5
1C8
330
C2
100
AcDbEntity
 67
1
  8
D-FINO
100
AcDbLine
 10
625.0
 20
143.0
 30
0.0
 11
660.0
 21
163.0
 31
0.0
  0
CIRCLE
  5
1C9
330
C2
100
AcDbEntity
 67
1
  8
D-FINO
100
AcDbCircle
 10
660.0
 20
163.0
 30
0.0
 40
0.5
  0
MTEXT
  5
1CA
330
C2
100
AcDbEntity
 67
1
  8
A-TEXTO
100
AcDbMText
 10
623.5
 20
143.0
 30
0.0
 40
1.6
 41
30.0
 71
6
  1
ELECTRODO DE PUESTA A TIERRA VERTICAL
  7
ARIAL
  0
LINE
  5
1CB
330
C2
100
AcDbEntity
 67
1
  8
D-FINO
100
AcDbLine
 10
683.0
 20
257.0
 30
0.0
 11
668.0
 21
238.0
 31
0.0
  0
CIRCLE
  5
1CC
330
C2
100
AcDbEntity
 67
1
  8
D-FINO
100
AcDbCircle
 10
668.0
 20
238.0
 30
0.0
 40
0.5
  0
MTEXT
  5
1CD
330
C2
100
AcDbEntity
 67
1
  8
A-TEXTO
100
AcDbMText
 10
684.5
 20
257.0
 30
0.0
 40
1.6
 41
20.0
 71
4
  1
REGISTRO
  7
ARIAL
  0
MTEXT
  5
1CE
330
C2
100
AcDbEntity
 67
1
  8
A-TEXTO
100
AcDbMText
 10
546.0
 20
78.0
 30
0.0
 40
1.8
 41
154.0
 71
7
  1
DOS ELECTRODOS SEPARADOS 3 m ENTRE SÍ, INTERCONECTADOS CON CABLE #6 AWG DESNUDO, ENTERRADOS A NO MENOS DE 3,05 m EN POSICIÓN VERTICAL; UNO A 50 cm DEL BORDE DEL PEDESTAL. RESISTENCIA DE LA MALLA ≤ 25 OHM (E04).
  7
ARIAL
  0
INSERT
  5
216
330
C2
100
AcDbEntity
 67
1
  8
A-CAJETIN
100
AcDbBlockReference
 66
1
  2
CAJETIN_A1
 10
711.0
 20
10.0
 30
0.0
  0
ATTRIB
  5
218
330
C2
100
AcDbEntity
 67
1
  8
A-CAJETIN-TXT
100
AcDbText
 10
771.0
 20
261.6
 30
0.0
 40
3.2
  1
CivilCon Diseño y Construcción SRLTDA
  7
ARIAL
 72
1
 11
771.0
 21
261.6
 31
0.0
100
AcDbAttribute
  2
EMPRESA
 70
0
 74
3
 71
1
 72
0
 11
771.0
 21
261.6
 31
0.0
  0
ATTRIB
  5
219
330
C2
100
AcDbEntity
 67
1
  8
A-CAJETIN-TXT
100
AcDbText
 10
771.0
 20
255.6
 30
0.0
 40
2.5
  1
Céd. Jurídica: 3-102-762712
  7
ARIAL
 72
1
 11
771.0
 21
255.6
 31
0.0
100
AcDbAttribute
  2
EMPRESA_CED
 70
0
 74
3
 71
1
 72
0
 11
771.0
 21
255.6
 31
0.0
  0
ATTRIB
  5
21A
330
C2
100
AcDbEntity
 67
1
  8
A-CAJETIN-TXT
100
AcDbText
 10
714.0
 20
240.1
 30
0.0
 40
2.6
  1
DIRECTOR TÉCNICO:
  7
ARIAL
 11
714.0
 21
240.1
 31
0.0
100
AcDbAttribute
  2
PROF_1
 70
0
 74
3
 71
1
 72
0
 11
714.0
 21
240.1
 31
0.0
  0
ATTRIB
  5
21B
330
C2
100
AcDbEntity
 67
1
  8
A-CAJETIN-TXT
100
AcDbText
 10
714.0
 20
235.6
 30
0.0
 40
2.6
  1
Steven Viales (Civil) IC-40759
  7
ARIAL
 11
714.0
 21
235.6
 31
0.0
100
AcDbAttribute
  2
PROF_2
 70
0
 74
3
 71
1
 72
0
 11
714.0
 21
235.6
 31
0.0
  0
ATTRIB
  5
21C
330
C2
100
AcDbEntity
 67
1
  8
A-CAJETIN-TXT
100
AcDbText
 10
714.0
 20
231.1
 30
0.0
 40
2.6
  1
David Barrantes (Electricidad) IE-27499
  7
ARIAL
 11
714.0
 21
231.1
 31
0.0
100
AcDbAttribute
  2
PROF_3
 70
0
 74
3
 71
1
 72
0
 11
714.0
 21
231.1
 31
0.0
  0
ATTRIB
  5
21D
330
C2
100
AcDbEntity
 67
1
  8
A-CAJETIN-TXT
100
AcDbText
 10
714.0
 20
218.1
 30
0.0
 40
4.2
  1
VIVIENDA UNIFAMILIAR
  7
ARIAL
 11
714.0
 21
218.1
 31
0.0
100
AcDbAttribute
  2
PROYECTO
 70
0
 74
3
 71
1
 72
0
 11
714.0
 21
218.1
 31
0.0
  0
ATTRIB
  5
21E
330
C2
100
AcDbEntity
 67
1
  8
A-CAJETIN-TXT
100
AcDbText
 10
714.0
 20
211.1
 30
0.0
 40
2.5
  1
DISTRITO 03 SANTIAGO, CANTÓN 05 SAN RAFAEL,
  7
ARIAL
 11
714.0
 21
211.1
 31
0.0
100
AcDbAttribute
  2
UBIC_1
 70
0
 74
3
 71
1
 72
0
 11
714.0
 21
211.1
 31
0.0
  0
ATTRIB
  5
21F
330
C2
100
AcDbEntity
 67
1
  8
A-CAJETIN-TXT
100
AcDbText
 10
714.0
 20
206.6
 30
0.0
 40
2.5
  1
PROVINCIA 04 HEREDIA, COSTA RICA.
  7
ARIAL
 11
714.0
 21
206.6
 31
0.0
100
AcDbAttribute
  2
UBIC_2
 70
0
 74
3
 71
1
 72
0
 11
714.0
 21
206.6
 31
0.0
  0
ATTRIB
  5
220
330
C2
100
AcDbEntity
 67
1
  8
A-CAJETIN-TXT
100
AcDbText
 10
714.0
 20
202.1
 30
0.0
 40
2.5
  1

  7
ARIAL
 11
714.0
 21
202.1
 31
0.0
100
AcDbAttribute
  2
UBIC_3
 70
0
 74
3
 71
1
 72
0
 11
714.0
 21
202.1
 31
0.0
  0
ATTRIB
  5
221
330
C2
100
AcDbEntity
 67
1
  8
A-CAJETIN-TXT
100
AcDbText
 10
714.0
 20
189.1
 30
0.0
 40
2.5
  1
FOLIO REAL: 4-041200-000
  7
ARIAL
 11
714.0
 21
189.1
 31
0.0
100
AcDbAttribute
  2
REG_1
 70
0
 74
3
 71
1
 72
0
 11
714.0
 21
189.1
 31
0.0
  0
ATTRIB
  5
222
330
C2
100
AcDbEntity
 67
1
  8
A-CAJETIN-TXT
100
AcDbText
 10
714.0
 20
184.6
 30
0.0
 40
2.5
  1
PLANO CATASTRADO: 4-57389-2023
  7
ARIAL
 11
714.0
 21
184.6
 31
0.0
100
AcDbAttribute
  2
REG_2
 70
0
 74
3
 71
1
 72
0
 11
714.0
 21
184.6
 31
0.0
  0
ATTRIB
  5
223
330
C2
100
AcDbEntity
 67
1
  8
A-CAJETIN-TXT
100
AcDbText
 10
714.0
 20
180.1
 30
0.0
 40
2.5
  1
ÁREA SEGÚN CATASTRO: 256 m²
  7
ARIAL
 11
714.0
 21
180.1
 31
0.0
100
AcDbAttribute
  2
REG_3
 70
0
 74
3
 71
1
 72
0
 11
714.0
 21
180.1
 31
0.0
  0
ATTRIB
  5
224
330
C2
100
AcDbEntity
 67
1
  8
A-CAJETIN-TXT
100
AcDbText
 10
714.0
 20
167.1
 30
0.0
 40
5.0
  1
ELECTRICIDAD
  7
ARIAL
 11
714.0
 21
167.1
 31
0.0
100
AcDbAttribute
  2
CONT_TIT
 70
0
 74
3
 71
1
 72
0
 11
714.0
 21
167.1
 31
0.0
  0
ATTRIB
  5
225
330
C2
100
AcDbEntity
 67
1
  8
A-CAJETIN-TXT
100
AcDbText
 10
714.0
 20
159.6
 30
0.0
 40
3.0
  1
DETALLES ELÉCTRICOS.
  7
ARIAL
 11
714.0
 21
159.6
 31
0.0
100
AcDbAttribute
  2
CONT_1
 70
0
 74
3
 71
1
 72
0
 11
714.0
 21
159.6
 31
0.0
  0
ATTRIB
  5
226
330
C2
100
AcDbEntity
 67
1
  8
A-CAJETIN-TXT
100
AcDbText
 10
714.0
 20
154.1
 30
0.0
 40
3.0
  1
CONEXIONES Y ACCESORIOS.
  7
ARIAL
 11
714.0
 21
154.1
 31
0.0
100
AcDbAttribute
  2
CONT_2
 70
0
 74
3
 71
1
 72
0
 11
714.0
 21
154.1
 31
0.0
  0
ATTRIB
  5
227
330
C2
100
AcDbEntity
 67
1
  8
A-CAJETIN-TXT
100
AcDbText
 10
714.0
 20
148.6
 30
0.0
 40
3.0
  1
ALTURAS DE MONTAJE.
  7
ARIAL
 11
714.0
 21
148.6
 31
0.0
100
AcDbAttribute
  2
CONT_3
 70
0
 74
3
 71
1
 72
0
 11
714.0
 21
148.6
 31
0.0
  0
ATTRIB
  5
228
330
C2
100
AcDbEntity
 67
1
  8
A-CAJETIN-TXT
100
AcDbText
 10
714.0
 20
143.1
 30
0.0
 40
3.0
  1
ZANJA DE ACOMETIDA.
  7
ARIAL
 11
714.0
 21
143.1
 31
0.0
100
AcDbAttribute
  2
CONT_4
 70
0
 74
3
 71
1
 72
0
 11
714.0
 21
143.1
 31
0.0
  0
ATTRIB
  5
229
330
C2
100
AcDbEntity
 67
1
  8
A-CAJETIN-TXT
100
AcDbText
 10
714.0
 20
137.6
 30
0.0
 40
3.0
  1
PUESTA A TIERRA.
  7
ARIAL
 11
714.0
 21
137.6
 31
0.0
100
AcDbAttribute
  2
CONT_5
 70
0
 74
3
 71
1
 72
0
 11
714.0
 21
137.6
 31
0.0
  0
ATTRIB
  5
22A
330
C2
100
AcDbEntity
 67
1
  8
A-CAJETIN-TXT
100
AcDbText
 10
714.0
 20
132.1
 30
0.0
 40
3.0
  1

  7
ARIAL
 11
714.0
 21
132.1
 31
0.0
100
AcDbAttribute
  2
CONT_6
 70
0
 74
3
 71
1
 72
0
 11
714.0
 21
132.1
 31
0.0
  0
ATTRIB
  5
22B
330
C2
100
AcDbEntity
 67
1
  8
A-CAJETIN-TXT
100
AcDbText
 10
736.0
 20
122.1
 30
0.0
 40
2.2
  1
S/E
  7
ARIAL
 11
736.0
 21
122.1
 31
0.0
100
AcDbAttribute
  2
ESCALAS
 70
0
 74
3
 71
1
 72
0
 11
736.0
 21
122.1
 31
0.0
  0
ATTRIB
  5
22C
330
C2
100
AcDbEntity
 67
1
  8
A-CAJETIN-TXT
100
AcDbText
 10
717.0
 20
104.0
 30
0.0
 40
2.0
  1
0
  7
ARIAL
 72
1
 11
717.0
 21
104.0
 31
0.0
100
AcDbAttribute
  2
REV0_N
 70
0
 74
2
 71
1
 72
0
 11
717.0
 21
104.0
 31
0.0
  0
ATTRIB
  5
22D
330
C2
100
AcDbEntity
 67
1
  8
A-CAJETIN-TXT
100
AcDbText
 10
734.0
 20
104.0
 30
0.0
 40
2.0
  1
06-10-2026
  7
ARIAL
 72
1
 11
734.0
 21
104.0
 31
0.0
100
AcDbAttribute
  2
REV0_F
 70
0
 74
2
 71
1
 72
0
 11
734.0
 21
104.0
 31
0.0
  0
ATTRIB
  5
22E
330
C2
100
AcDbEntity
 67
1
  8
A-CAJETIN-TXT
100
AcDbText
 10
746.5
 20
104.0
 30
0.0
 40
2.0
  1
VERSIÓN DE TRABAJO PARA REVISIÓN
  7
ARIAL
 11
746.5
 21
104.0
 31
0.0
100
AcDbAttribute
  2
REV0_D
 70
0
 74
2
 71
1
 72
0
 11
746.5
 21
104.0
 31
0.0
  0
ATTRIB
  5
22F
330
C2
100
AcDbEntity
 67
1
  8
A-CAJETIN-TXT
100
AcDbText
 10
717.0
 20
98.8
 30
0.0
 40
2.0
  1
1
  7
ARIAL
 72
1
 11
717.0
 21
98.8
 31
0.0
100
AcDbAttribute
  2
REV1_N
 70
0
 74
2
 71
1
 72
0
 11
717.0
 21
98.8
 31
0.0
  0
ATTRIB
  5
230
330
C2
100
AcDbEntity
 67
1
  8
A-CAJETIN-TXT
100
AcDbText
 10
734.0
 20
98.8
 30
0.0
 40
2.0
  1
07-10-2026
  7
ARIAL
 72
1
 11
734.0
 21
98.8
 31
0.0
100
AcDbAttribute
  2
REV1_F
 70
0
 74
2
 71
1
 72
0
 11
734.0
 21
98.8
 31
0.0
  0
ATTRIB
  5
231
330
C2
100
AcDbEntity
 67
1
  8
A-CAJETIN-TXT
100
AcDbText
 10
746.5
 20
98.8
 30
0.0
 40
2.0
  1
LISTA DEFINITIVA (22); PARA TRÁMITE
  7
ARIAL
 11
746.5
 21
98.8
 31
0.0
100
AcDbAttribute
  2
REV1_D
 70
0
 74
2
 71
1
 72
0
 11
746.5
 21
98.8
 31
0.0
  0
ATTRIB
  5
232
330
C2
100
AcDbEntity
 67
1
  8
A-CAJETIN-TXT
100
AcDbText
 10
717.0
 20
93.6
 30
0.0
 40
2.0
  1

  7
ARIAL
 72
1
 11
717.0
 21
93.6
 31
0.0
100
AcDbAttribute
  2
REV2_N
 70
0
 74
2
 71
1
 72
0
 11
717.0
 21
93.6
 31
0.0
  0
ATTRIB
  5
233
330
C2
100
AcDbEntity
 67
1
  8
A-CAJETIN-TXT
100
AcDbText
 10
734.0
 20
93.6
 30
0.0
 40
2.0
  1

  7
ARIAL
 72
1
 11
734.0
 21
93.6
 31
0.0
100
AcDbAttribute
  2
REV2_F
 70
0
 74
2
 71
1
 72
0
 11
734.0
 21
93.6
 31
0.0
  0
ATTRIB
  5
234
330
C2
100
AcDbEntity
 67
1
  8
A-CAJETIN-TXT
100
AcDbText
 10
746.5
 20
93.6
 30
0.0
 40
2.0
  1

  7
ARIAL
 11
746.5
 21
93.6
 31
0.0
100
AcDbAttribute
  2
REV2_D
 70
0
 74
2
 71
1
 72
0
 11
746.5
 21
93.6
 31
0.0
  0
ATTRIB
  5
235
330
C2
100
AcDbEntity
 67
1
  8
A-CAJETIN-TXT
100
AcDbText
 10
771.0
 20
82.99999999999999
 30
0.0
 40
3.0
  1
PARA TRÁMITE
  7
ARIAL
 72
1
 11
771.0
 21
82.99999999999999
 31
0.0
100
AcDbAttribute
  2
ESTADO_1
 70
0
 74
3
 71
1
 72
0
 11
771.0
 21
82.99999999999999
 31
0.0
  0
ATTRIB
  5
236
330
C2
100
AcDbEntity
 67
1
  8
A-CAJETIN-TXT
100
AcDbText
 10
771.0
 20
77.99999999999999
 30
0.0
 40
2.4
  1
CFIA Y MUNICIPALIDAD
  7
ARIAL
 72
1
 11
771.0
 21
77.99999999999999
 31
0.0
100
AcDbAttribute
  2
ESTADO_2
 70
0
 74
3
 71
1
 72
0
 11
771.0
 21
77.99999999999999
 31
0.0
  0
ATTRIB
  5
237
330
C2
100
AcDbEntity
 67
1
  8
A-CAJETIN-TXT
100
AcDbText
 10
744.0
 20
49.999999999999986
 30
0.0
 40
5.0
  1
COSTA RICA
  7
ARIAL
 72
1
 11
744.0
 21
49.999999999999986
 31
0.0
100
AcDbAttribute
  2
LUGAR
 70
0
 74
2
 71
1
 72
0
 11
744.0
 21
49.999999999999986
 31
0.0
  0
ATTRIB
  5
238
330
C2
100
AcDbEntity
 67
1
  8
A-CAJETIN-TXT
100
AcDbText
 10
804.0
 20
49.999999999999986
 30
0.0
 40
14.0
  1
E05
  7
ARIAL
 72
1
 11
804.0
 21
49.999999999999986
 31
0.0
100
AcDbAttribute
  2
LAMINA
 70
0
 74
2
 71
1
 72
0
 11
804.0
 21
49.999999999999986
 31
0.0
  0
ATTRIB
  5
239
330
C2
100
AcDbEntity
 67
1
  8
A-CAJETIN-TXT
100
AcDbText
 10
744.0
 20
23.499999999999993
 30
0.0
 40
6.0
  1
OCT 2026
  7
ARIAL
 72
1
 11
744.0
 21
23.499999999999993
 31
0.0
100
AcDbAttribute
  2
FECHA
 70
0
 74
2
 71
1
 72
0
 11
744.0
 21
23.499999999999993
 31
0.0
  0
ATTRIB
  5
23A
330
C2
100
AcDbEntity
 67
1
  8
A-CAJETIN-TXT
100
AcDbText
 10
815.0
 20
23.499999999999993
 30
0.0
 40
9.0
  1
22
  7
ARIAL
 72
1
 11
815.0
 21
23.499999999999993
 31
0.0
100
AcDbAttribute
  2
TOTAL
 70
0
 74
2
 71
1
 72
0
 11
815.0
 21
23.499999999999993
 31
0.0
  0
SEQEND
  5
217
330
216
100
AcDbEntity
 67
1
  8
A-CAJETIN
  0
ENDSEC
  0
SECTION
  2
OBJECTS
  0
DICTIONARY
  5
A
330
0
100
AcDbDictionary
281
1
  3
ACAD_COLOR
350
B
  3
ACAD_GROUP
350
C
  3
ACAD_LAYOUT
350
D
  3
ACAD_MATERIAL
350
E
  3
ACAD_MLEADERSTYLE
350
F
  3
ACAD_MLINESTYLE
350
10
  3
ACAD_PLOTSETTINGS
350
11
  3
ACAD_PLOTSTYLENAME
350
12
  3
ACAD_SCALELIST
350
14
  3
ACAD_TABLESTYLE
350
15
  3
ACAD_VISUALSTYLE
350
16
  3
EZDXF_META
350
2D
  0
DICTIONARY
  5
B
330
A
100
AcDbDictionary
281
1
  0
DICTIONARY
  5
C
330
A
100
AcDbDictionary
281
1
  0
DICTIONARY
  5
D
330
A
100
AcDbDictionary
281
1
  3
Model
350
1A
  3
Layout1
350
1E
  3
E05-DETALLES
350
C5
  0
DICTIONARY
  5
E
330
A
100
AcDbDictionary
281
1
  3
ByBlock
350
1F
  3
ByLayer
350
20
  3
Global
350
21
  0
DICTIONARY
  5
F
330
A
100
AcDbDictionary
281
1
  3
Standard
350
2C
  0
DICTIONARY
  5
10
330
A
100
AcDbDictionary
281
1
  3
Standard
350
22
  0
DICTIONARY
  5
11
330
A
100
AcDbDictionary
281
1
  0
ACDBDICTIONARYWDFLT
  5
12
330
A
100
AcDbDictionary
281
1
  3
Normal
350
13
100
AcDbDictionaryWithDefault
340
13
  0
ACDBPLACEHOLDER
  5
13
330
12
  0
DICTIONARY
  5
14
330
A
100
AcDbDictionary
281
1
  0
DICTIONARY
  5
15
330
A
100
AcDbDictionary
281
1
  0
DICTIONARY
  5
16
330
A
100
AcDbDictionary
281
1
  3
2dWireframe
350
5A
  3
Basic
350
5B
  3
Brighten
350
5C
  3
ColorChange
350
5D
  3
Conceptual
350
5E
  3
Dim
350
5F
  3
EdgeColorOff
350
60
  3
Facepattern
350
61
  3
Flat
350
62
  3
FlatWithEdges
350
63
  3
Gouraud
350
64
  3
GouraudWithEdges
350
65
  3
Hidden
350
66
  3
JitterOff
350
67
  3
Linepattern
350
68
  3
Modeling
350
69
  3
OverhangOff
350
6A
  3
Realistic
350
6B
  3
Shaded
350
6C
  3
Shaded with edges
350
6D
  3
Shades of Gray
350
6E
  3
Sketchy
350
6F
  3
Thicken
350
70
  3
Wireframe
350
71
  3
X-Ray
350
72
  0
LAYOUT
  5
1A
330
D
100
AcDbPlotSettings
  1

  4
A3
  6

 40
7.5
 41
20.0
 42
7.5
 43
20.0
 44
420.0
 45
297.0
 46
0.0
 47
0.0
 48
0.0
 49
0.0
140
0.0
141
0.0
142
1.0
143
1.0
 70
1024
 72
1
 73
0
 74
5
  7

 75
16
 76
0
 77
2
 78
300
147
1.0
148
0.0
149
0.0
100
AcDbLayout
  1
Model
 70
1
 71
0
 10
0.0
 20
0.0
 11
420.0
 21
297.0
 12
0.0
 22
0.0
 32
0.0
 14
1e+20
 24
1e+20
 34
1e+20
 15
-1e+20
 25
-1e+20
 35
-1e+20
146
0.0
 13
0.0
 23
0.0
 33
0.0
 16
1.0
 26
0.0
 36
0.0
 17
0.0
 27
1.0
 37
0.0
 76
1
330
17
  0
LAYOUT
  5
1E
330
D
100
AcDbPlotSettings
  1

  4
A3
  6

 40
7.5
 41
20.0
 42
7.5
 43
20.0
 44
420.0
 45
297.0
 46
0.0
 47
0.0
 48
0.0
 49
0.0
140
0.0
141
0.0
142
1.0
143
1.0
 70
0
 72
1
 73
0
 74
5
  7

 75
16
 76
0
 77
2
 78
300
147
1.0
148
0.0
149
0.0
100
AcDbLayout
  1
Layout1
 70
1
 71
1
 10
0.0
 20
0.0
 11
420.0
 21
297.0
 12
0.0
 22
0.0
 32
0.0
 14
1e+20
 24
1e+20
 34
1e+20
 15
-1e+20
 25
-1e+20
 35
-1e+20
146
0.0
 13
0.0
 23
0.0
 33
0.0
 16
1.0
 26
0.0
 36
0.0
 17
0.0
 27
1.0
 37
0.0
 76
1
330
1B
  0
MATERIAL
  5
1F
102
{ACAD_REACTORS
330
E
102
}
330
E
100
AcDbMaterial
  1
ByBlock
  2

 70
0
 40
1.0
 71
1
 41
1.0
 91
-1023410177
 42
1.0
 72
1
  3

 73
1
 74
1
 75
1
 44
0.5
 73
0
 45
1.0
 46
1.0
 77
1
  4

 78
1
 79
1
170
1
 48
1.0
171
1
  6

172
1
173
1
174
1
140
1.0
141
1.0
175
1
  7

176
1
177
1
178
1
143
1.0
179
1
  8

270
1
271
1
272
1
145
1.0
146
1.0
273
1
  9

274
1
275
1
276
1
 42
1.0
 72
1
  3

 73
1
 74
1
 75
1
 94
63
  0
MATERIAL
  5
20
102
{ACAD_REACTORS
330
E
102
}
330
E
100
AcDbMaterial
  1
ByLayer
  2

 70
0
 40
1.0
 71
1
 41
1.0
 91
-1023410177
 42
1.0
 72
1
  3

 73
1
 74
1
 75
1
 44
0.5
 73
0
 45
1.0
 46
1.0
 77
1
  4

 78
1
 79
1
170
1
 48
1.0
171
1
  6

172
1
173
1
174
1
140
1.0
141
1.0
175
1
  7

176
1
177
1
178
1
143
1.0
179
1
  8

270
1
271
1
272
1
145
1.0
146
1.0
273
1
  9

274
1
275
1
276
1
 42
1.0
 72
1
  3

 73
1
 74
1
 75
1
 94
63
  0
MATERIAL
  5
21
102
{ACAD_REACTORS
330
E
102
}
330
E
100
AcDbMaterial
  1
Global
  2

 70
0
 40
1.0
 71
1
 41
1.0
 91
-1023410177
 42
1.0
 72
1
  3

 73
1
 74
1
 75
1
 44
0.5
 73
0
 45
1.0
 46
1.0
 77
1
  4

 78
1
 79
1
170
1
 48
1.0
171
1
  6

172
1
173
1
174
1
140
1.0
141
1.0
175
1
  7

176
1
177
1
178
1
143
1.0
179
1
  8

270
1
271
1
272
1
145
1.0
146
1.0
273
1
  9

274
1
275
1
276
1
 42
1.0
 72
1
  3

 73
1
 74
1
 75
1
 94
63
  0
MLINESTYLE
  5
22
102
{ACAD_REACTORS
330
10
102
}
330
10
100
AcDbMlineStyle
  2
Standard
 70
0
  3

 62
256
 51
90.0
 52
90.0
 71
2
 49
0.5
 62
256
  6
BYLAYER
 49
-0.5
 62
256
  6
BYLAYER
  0
MLEADERSTYLE
  5
2C
102
{ACAD_REACTORS
330
F
102
}
330
F
100
AcDbMLeaderStyle
179
2
170
2
171
1
172
0
 90
2
 40
0.0
 41
0.0
173
1
 91
-1056964608
 92
-2
290
1
 42
2.0
291
1
 43
8.0
  3
Standard
 44
4.0
300

342
29
174
1
175
1
176
0
178
1
 93
-1056964608
 45
4.0
292
0
297
0
 46
4.0
 94
-1056964608
 47
1.0
 49
1.0
140
1.0
294
1
141
0.0
177
0
142
1.0
295
0
296
0
143
3.75
271
0
272
9
273
9
  0
DICTIONARY
  5
2D
330
A
100
AcDbDictionary
280
1
281
1
  3
CREATED_BY_EZDXF
350
2E
  3
WRITTEN_BY_EZDXF
350
23D
  0
DICTIONARYVAR
  5
2E
330
2D
100
DictionaryVariables
280
0
  1
1.4.4 @ 2026-10-07T02:31:00.445666+00:00
  0
VISUALSTYLE
  5
5A
102
{ACAD_REACTORS
330
16
102
}
330
16
100
AcDbVisualStyle
  2
2dWireframe
 70
4
177
3
291
0
 70
58
 90
2
176
1
 90
2
176
1
 90
0
176
1
 90
0
176
1
 40
0.6
176
1
 40
30.0
176
1
 62
7
420
16777215
176
1
 90
1
176
1
 90
4
176
1
 62
7
176
1
 62
257
176
1
 90
1
176
1
 90
1
176
1
 40
1.0
176
1
 90
8
176
1
 62
7
176
1
 40
1.0
176
1
 90
1
176
1
 90
6
176
1
 90
2
176
1
 62
7
176
1
 90
5
176
1
 90
0
176
1
 90
0
176
1
290
0
176
1
 90
1
176
1
 40
0.0
176
1
 90
0
176
1
290
1
176
1
290
1
176
1
290
0
176
1
290
0
176
1
290
0
176
1
290
0
176
1
290
0
176
1
290
0
176
1
290
0
176
1
 90
50
176
1
 40
0.0
176
1
 40
1.0
176
1
 90
0
176
1
 62
18
420
0
176
1
 90
50
176
1
 90
3
176
1
 62
5
420
255
176
1
290
0
176
1
 90
50
176
1
 90
50
176
1
 90
50
176
1
290
0
176
1
 90
50
176
1
 62
256
176
0
 40
1.0
176
0
 90
2
176
1
  1
strokes_ogs.tif
176
1
290
0
176
1
 40
1.0
176
1
 40
1.0
176
1
  0
VISUALSTYLE
  5
5B
102
{ACAD_REACTORS
330
16
102
}
330
16
100
AcDbVisualStyle
  2
Basic
 70
7
177
3
291
1
 70
58
 90
2
176
1
 90
2
176
1
 90
0
176
1
 90
1
176
1
 40
0.6
176
1
 40
30.0
176
1
 62
7
420
16777215
176
1
 90
1
176
1
 90
4
176
1
 62
7
176
1
 62
257
176
1
 90
1
176
1
 90
1
176
1
 40
1.0
176
1
 90
8
176
1
 62
7
176
1
 40
1.0
176
1
 90
1
176
1
 90
6
176
1
 90
2
176
1
 62
7
176
1
 90
5
176
1
 90
0
176
1
 90
0
176
1
290
0
176
1
 90
1
176
1
 40
0.0
176
1
 90
0
176
1
290
0
176
1
290
1
176
1
290
1
176
1
290
0
176
1
290
0
176
1
290
0
176
1
290
0
176
1
290
0
176
1
290
0
176
1
 90
50
176
1
 40
0.0
176
1
 40
1.0
176
1
 90
0
176
1
 62
18
420
0
176
1
 90
50
176
1
 90
3
176
1
 62
5
420
255
176
1
290
0
176
1
 90
50
176
1
 90
50
176
1
 90
50
176
1
290
0
176
1
 90
50
176
1
 62
256
176
0
 40
1.0
176
0
 90
2
176
1
  1
strokes_ogs.tif
176
1
290
0
176
1
 40
1.0
176
1
 40
1.0
176
1
  0
VISUALSTYLE
  5
5C
102
{ACAD_REACTORS
330
16
102
}
330
16
100
AcDbVisualStyle
  2
Brighten
 70
12
177
3
291
1
 70
58
 90
2
176
1
 90
2
176
1
 90
0
176
1
 90
2
176
1
 40
0.6
176
1
 40
30.0
176
1
 62
7
420
16777215
176
1
 90
1
176
1
 90
4
176
1
 62
7
176
1
 62
257
176
1
 90
1
176
1
 90
1
176
1
 40
1.0
176
1
 90
8
176
1
 62
7
176
1
 40
1.0
176
1
 90
1
176
1
 90
6
176
1
 90
2
176
1
 62
7
176
1
 90
5
176
1
 90
0
176
1
 90
0
176
1
290
0
176
1
 90
1
176
1
 40
0.0
176
1
 90
0
176
1
290
0
176
1
290
1
176
1
290
1
176
1
290
0
176
1
290
0
176
1
290
0
176
1
290
0
176
1
290
0
176
1
290
0
176
1
 90
50
176
1
 40
0.0
176
1
 40
1.0
176
1
 90
0
176
1
 62
18
420
0
176
1
 90
50
176
1
 90
3
176
1
 62
5
420
255
176
1
290
0
176
1
 90
50
176
1
 90
50
176
1
 90
50
176
1
290
0
176
1
 90
50
176
1
 62
256
176
0
 40
1.0
176
0
 90
2
176
1
  1
strokes_ogs.tif
176
1
290
0
176
1
 40
1.0
176
1
 40
1.0
176
1
  0
VISUALSTYLE
  5
5D
102
{ACAD_REACTORS
330
16
102
}
330
16
100
AcDbVisualStyle
  2
ColorChange
 70
16
177
3
291
1
 70
58
 90
2
176
1
 90
2
176
1
 90
0
176
1
 90
2
176
1
 40
0.6
176
1
 40
30.0
176
1
 62
7
420
16777215
176
1
 90
1
176
1
 90
4
176
1
 62
7
176
1
 62
257
176
1
 90
1
176
1
 90
1
176
1
 40
1.0
176
1
 90
8
176
1
 62
7
176
1
 40
1.0
176
1
 90
1
176
1
 90
6
176
1
 90
2
176
1
 62
7
176
1
 90
5
176
1
 90
0
176
1
 90
0
176
1
290
0
176
1
 90
1
176
1
 40
0.0
176
1
 90
0
176
1
290
0
176
1
290
1
176
1
290
1
176
1
290
0
176
1
290
0
176
1
290
0
176
1
290
0
176
1
290
0
176
1
290
0
176
1
 90
50
176
1
 40
0.0
176
1
 40
1.0
176
1
 90
0
176
1
 62
18
420
0
176
1
 90
50
176
1
 90
3
176
1
 62
5
420
255
176
1
290
0
176
1
 90
50
176
1
 90
50
176
1
 90
50
176
1
290
0
176
1
 90
50
176
1
 62
256
176
0
 40
1.0
176
0
 90
2
176
1
  1
strokes_ogs.tif
176
1
290
0
176
1
 40
1.0
176
1
 40
1.0
176
1
  0
VISUALSTYLE
  5
5E
102
{ACAD_REACTORS
330
16
102
}
330
16
100
AcDbVisualStyle
  2
Conceptual
 70
9
177
3
291
0
 70
58
 90
2
176
1
 90
2
176
1
 90
0
176
1
 90
3
176
1
 40
0.6
176
1
 40
30.0
176
1
 62
7
420
16777215
176
1
 90
1
176
1
 90
4
176
1
 62
7
176
1
 62
257
176
1
 90
1
176
1
 90
1
176
1
 40
1.0
176
1
 90
8
176
1
 62
7
176
1
 40
1.0
176
1
 90
1
176
1
 90
6
176
1
 90
2
176
1
 62
7
176
1
 90
5
176
1
 90
0
176
1
 90
0
176
1
290
0
176
1
 90
1
176
1
 40
0.0
176
1
 90
0
176
1
290
0
176
1
290
1
176
1
290
1
176
1
290
0
176
1
290
0
176
1
290
0
176
1
290
0
176
1
290
0
176
1
290
0
176
1
 90
50
176
1
 40
0.0
176
1
 40
1.0
176
1
 90
0
176
1
 62
18
420
0
176
1
 90
50
176
1
 90
3
176
1
 62
5
420
255
176
1
290
0
176
1
 90
50
176
1
 90
50
176
1
 90
50
176
1
290
0
176
1
 90
50
176
1
 62
256
176
0
 40
1.0
176
0
 90
2
176
1
  1
strokes_ogs.tif
176
1
290
0
176
1
 40
1.0
176
1
 40
1.0
176
1
  0
VISUALSTYLE
  5
5F
102
{ACAD_REACTORS
330
16
102
}
330
16
100
AcDbVisualStyle
  2
Dim
 70
11
177
3
291
1
 70
58
 90
2
176
1
 90
2
176
1
 90
0
176
1
 90
2
176
1
 40
0.6
176
1
 40
30.0
176
1
 62
7
420
16777215
176
1
 90
1
176
1
 90
4
176
1
 62
7
176
1
 62
257
176
1
 90
1
176
1
 90
1
176
1
 40
1.0
176
1
 90
8
176
1
 62
7
176
1
 40
1.0
176
1
 90
1
176
1
 90
6
176
1
 90
2
176
1
 62
7
176
1
 90
5
176
1
 90
0
176
1
 90
0
176
1
290
0
176
1
 90
1
176
1
 40
0.0
176
1
 90
0
176
1
290
0
176
1
290
1
176
1
290
1
176
1
290
0
176
1
290
0
176
1
290
0
176
1
290
0
176
1
290
0
176
1
290
0
176
1
 90
50
176
1
 40
0.0
176
1
 40
1.0
176
1
 90
0
176
1
 62
18
420
0
176
1
 90
50
176
1
 90
3
176
1
 62
5
420
255
176
1
290
0
176
1
 90
50
176
1
 90
50
176
1
 90
50
176
1
290
0
176
1
 90
50
176
1
 62
256
176
0
 40
1.0
176
0
 90
2
176
1
  1
strokes_ogs.tif
176
1
290
0
176
1
 40
1.0
176
1
 40
1.0
176
1
  0
VISUALSTYLE
  5
60
102
{ACAD_REACTORS
330
16
102
}
330
16
100
AcDbVisualStyle
  2
EdgeColorOff
 70
22
177
3
291
1
 70
58
 90
2
176
1
 90
2
176
1
 90
0
176
1
 90
2
176
1
 40
0.6
176
1
 40
30.0
176
1
 62
7
420
16777215
176
1
 90
1
176
1
 90
4
176
1
 62
7
176
1
 62
257
176
1
 90
1
176
1
 90
1
176
1
 40
1.0
176
1
 90
8
176
1
 62
7
176
1
 40
1.0
176
1
 90
1
176
1
 90
6
176
1
 90
2
176
1
 62
7
176
1
 90
5
176
1
 90
0
176
1
 90
0
176
1
290
0
176
1
 90
1
176
1
 40
0.0
176
1
 90
0
176
1
290
0
176
1
290
1
176
1
290
1
176
1
290
0
176
1
290
0
176
1
290
0
176
1
290
0
176
1
290
0
176
1
290
0
176
1
 90
50
176
1
 40
0.0
176
1
 40
1.0
176
1
 90
0
176
1
 62
18
420
0
176
1
 90
50
176
1
 90
3
176
1
 62
5
420
255
176
1
290
0
176
1
 90
50
176
1
 90
50
176
1
 90
50
176
1
290
0
176
1
 90
50
176
1
 62
256
176
0
 40
1.0
176
0
 90
2
176
1
  1
strokes_ogs.tif
176
1
290
0
176
1
 40
1.0
176
1
 40
1.0
176
1
  0
VISUALSTYLE
  5
61
102
{ACAD_REACTORS
330
16
102
}
330
16
100
AcDbVisualStyle
  2
Facepattern
 70
15
177
3
291
1
 70
58
 90
2
176
1
 90
2
176
1
 90
0
176
1
 90
2
176
1
 40
0.6
176
1
 40
30.0
176
1
 62
7
420
16777215
176
1
 90
1
176
1
 90
4
176
1
 62
7
176
1
 62
257
176
1
 90
1
176
1
 90
1
176
1
 40
1.0
176
1
 90
8
176
1
 62
7
176
1
 40
1.0
176
1
 90
1
176
1
 90
6
176
1
 90
2
176
1
 62
7
176
1
 90
5
176
1
 90
0
176
1
 90
0
176
1
290
0
176
1
 90
1
176
1
 40
0.0
176
1
 90
0
176
1
290
0
176
1
290
1
176
1
290
1
176
1
290
0
176
1
290
0
176
1
290
0
176
1
290
0
176
1
290
0
176
1
290
0
176
1
 90
50
176
1
 40
0.0
176
1
 40
1.0
176
1
 90
0
176
1
 62
18
420
0
176
1
 90
50
176
1
 90
3
176
1
 62
5
420
255
176
1
290
0
176
1
 90
50
176
1
 90
50
176
1
 90
50
176
1
290
0
176
1
 90
50
176
1
 62
256
176
0
 40
1.0
176
0
 90
2
176
1
  1
strokes_ogs.tif
176
1
290
0
176
1
 40
1.0
176
1
 40
1.0
176
1
  0
VISUALSTYLE
  5
62
102
{ACAD_REACTORS
330
16
102
}
330
16
100
AcDbVisualStyle
  2
Flat
 70
0
177
3
291
1
 70
58
 90
2
176
1
 90
2
176
1
 90
0
176
1
 90
2
176
1
 40
0.6
176
1
 40
30.0
176
1
 62
7
420
16777215
176
1
 90
1
176
1
 90
4
176
1
 62
7
176
1
 62
257
176
1
 90
1
176
1
 90
1
176
1
 40
1.0
176
1
 90
8
176
1
 62
7
176
1
 40
1.0
176
1
 90
1
176
1
 90
6
176
1
 90
2
176
1
 62
7
176
1
 90
5
176
1
 90
0
176
1
 90
0
176
1
290
0
176
1
 90
1
176
1
 40
0.0
176
1
 90
0
176
1
290
0
176
1
290
1
176
1
290
1
176
1
290
0
176
1
290
0
176
1
290
0
176
1
290
0
176
1
290
0
176
1
290
0
176
1
 90
50
176
1
 40
0.0
176
1
 40
1.0
176
1
 90
0
176
1
 62
18
420
0
176
1
 90
50
176
1
 90
3
176
1
 62
5
420
255
176
1
290
0
176
1
 90
50
176
1
 90
50
176
1
 90
50
176
1
290
0
176
1
 90
50
176
1
 62
256
176
0
 40
1.0
176
0
 90
2
176
1
  1
strokes_ogs.tif
176
1
290
0
176
1
 40
1.0
176
1
 40
1.0
176
1
  0
VISUALSTYLE
  5
63
102
{ACAD_REACTORS
330
16
102
}
330
16
100
AcDbVisualStyle
  2
FlatWithEdges
 70
1
177
3
291
1
 70
58
 90
2
176
1
 90
2
176
1
 90
0
176
1
 90
2
176
1
 40
0.6
176
1
 40
30.0
176
1
 62
7
420
16777215
176
1
 90
1
176
1
 90
4
176
1
 62
7
176
1
 62
257
176
1
 90
1
176
1
 90
1
176
1
 40
1.0
176
1
 90
8
176
1
 62
7
176
1
 40
1.0
176
1
 90
1
176
1
 90
6
176
1
 90
2
176
1
 62
7
176
1
 90
5
176
1
 90
0
176
1
 90
0
176
1
290
0
176
1
 90
1
176
1
 40
0.0
176
1
 90
0
176
1
290
0
176
1
290
1
176
1
290
1
176
1
290
0
176
1
290
0
176
1
290
0
176
1
290
0
176
1
290
0
176
1
290
0
176
1
 90
50
176
1
 40
0.0
176
1
 40
1.0
176
1
 90
0
176
1
 62
18
420
0
176
1
 90
50
176
1
 90
3
176
1
 62
5
420
255
176
1
290
0
176
1
 90
50
176
1
 90
50
176
1
 90
50
176
1
290
0
176
1
 90
50
176
1
 62
256
176
0
 40
1.0
176
0
 90
2
176
1
  1
strokes_ogs.tif
176
1
290
0
176
1
 40
1.0
176
1
 40
1.0
176
1
  0
VISUALSTYLE
  5
64
102
{ACAD_REACTORS
330
16
102
}
330
16
100
AcDbVisualStyle
  2
Gouraud
 70
2
177
3
291
1
 70
58
 90
2
176
1
 90
2
176
1
 90
0
176
1
 90
2
176
1
 40
0.6
176
1
 40
30.0
176
1
 62
7
420
16777215
176
1
 90
1
176
1
 90
4
176
1
 62
7
176
1
 62
257
176
1
 90
1
176
1
 90
1
176
1
 40
1.0
176
1
 90
8
176
1
 62
7
176
1
 40
1.0
176
1
 90
1
176
1
 90
6
176
1
 90
2
176
1
 62
7
176
1
 90
5
176
1
 90
0
176
1
 90
0
176
1
290
0
176
1
 90
1
176
1
 40
0.0
176
1
 90
0
176
1
290
0
176
1
290
1
176
1
290
1
176
1
290
0
176
1
290
0
176
1
290
0
176
1
290
0
176
1
290
0
176
1
290
0
176
1
 90
50
176
1
 40
0.0
176
1
 40
1.0
176
1
 90
0
176
1
 62
18
420
0
176
1
 90
50
176
1
 90
3
176
1
 62
5
420
255
176
1
290
0
176
1
 90
50
176
1
 90
50
176
1
 90
50
176
1
290
0
176
1
 90
50
176
1
 62
256
176
0
 40
1.0
176
0
 90
2
176
1
  1
strokes_ogs.tif
176
1
290
0
176
1
 40
1.0
176
1
 40
1.0
176
1
  0
VISUALSTYLE
  5
65
102
{ACAD_REACTORS
330
16
102
}
330
16
100
AcDbVisualStyle
  2
GouraudWithEdges
 70
3
177
3
291
1
 70
58
 90
2
176
1
 90
2
176
1
 90
0
176
1
 90
2
176
1
 40
0.6
176
1
 40
30.0
176
1
 62
7
420
16777215
176
1
 90
1
176
1
 90
4
176
1
 62
7
176
1
 62
257
176
1
 90
1
176
1
 90
1
176
1
 40
1.0
176
1
 90
8
176
1
 62
7
176
1
 40
1.0
176
1
 90
1
176
1
 90
6
176
1
 90
2
176
1
 62
7
176
1
 90
5
176
1
 90
0
176
1
 90
0
176
1
290
0
176
1
 90
1
176
1
 40
0.0
176
1
 90
0
176
1
290
0
176
1
290
1
176
1
290
1
176
1
290
0
176
1
290
0
176
1
290
0
176
1
290
0
176
1
290
0
176
1
290
0
176
1
 90
50
176
1
 40
0.0
176
1
 40
1.0
176
1
 90
0
176
1
 62
18
420
0
176
1
 90
50
176
1
 90
3
176
1
 62
5
420
255
176
1
290
0
176
1
 90
50
176
1
 90
50
176
1
 90
50
176
1
290
0
176
1
 90
50
176
1
 62
256
176
0
 40
1.0
176
0
 90
2
176
1
  1
strokes_ogs.tif
176
1
290
0
176
1
 40
1.0
176
1
 40
1.0
176
1
  0
VISUALSTYLE
  5
66
102
{ACAD_REACTORS
330
16
102
}
330
16
100
AcDbVisualStyle
  2
Hidden
 70
6
177
3
291
0
 70
58
 90
2
176
1
 90
2
176
1
 90
0
176
1
 90
1
176
1
 40
0.6
176
1
 40
30.0
176
1
 62
7
420
16777215
176
1
 90
1
176
1
 90
4
176
1
 62
7
176
1
 62
257
176
1
 90
1
176
1
 90
1
176
1
 40
1.0
176
1
 90
8
176
1
 62
7
176
1
 40
1.0
176
1
 90
1
176
1
 90
6
176
1
 90
2
176
1
 62
7
176
1
 90
5
176
1
 90
0
176
1
 90
0
176
1
290
0
176
1
 90
1
176
1
 40
0.0
176
1
 90
0
176
1
290
0
176
1
290
1
176
1
290
1
176
1
290
0
176
1
290
0
176
1
290
0
176
1
290
0
176
1
290
0
176
1
290
0
176
1
 90
50
176
1
 40
0.0
176
1
 40
1.0
176
1
 90
0
176
1
 62
18
420
0
176
1
 90
50
176
1
 90
3
176
1
 62
5
420
255
176
1
290
0
176
1
 90
50
176
1
 90
50
176
1
 90
50
176
1
290
0
176
1
 90
50
176
1
 62
256
176
0
 40
1.0
176
0
 90
2
176
1
  1
strokes_ogs.tif
176
1
290
0
176
1
 40
1.0
176
1
 40
1.0
176
1
  0
VISUALSTYLE
  5
67
102
{ACAD_REACTORS
330
16
102
}
330
16
100
AcDbVisualStyle
  2
JitterOff
 70
20
177
3
291
1
 70
58
 90
2
176
1
 90
2
176
1
 90
0
176
1
 90
2
176
1
 40
0.6
176
1
 40
30.0
176
1
 62
7
420
16777215
176
1
 90
1
176
1
 90
4
176
1
 62
7
176
1
 62
257
176
1
 90
1
176
1
 90
1
176
1
 40
1.0
176
1
 90
8
176
1
 62
7
176
1
 40
1.0
176
1
 90
1
176
1
 90
6
176
1
 90
2
176
1
 62
7
176
1
 90
5
176
1
 90
0
176
1
 90
0
176
1
290
0
176
1
 90
1
176
1
 40
0.0
176
1
 90
0
176
1
290
0
176
1
290
1
176
1
290
1
176
1
290
0
176
1
290
0
176
1
290
0
176
1
290
0
176
1
290
0
176
1
290
0
176
1
 90
50
176
1
 40
0.0
176
1
 40
1.0
176
1
 90
0
176
1
 62
18
420
0
176
1
 90
50
176
1
 90
3
176
1
 62
5
420
255
176
1
290
0
176
1
 90
50
176
1
 90
50
176
1
 90
50
176
1
290
0
176
1
 90
50
176
1
 62
256
176
0
 40
1.0
176
0
 90
2
176
1
  1
strokes_ogs.tif
176
1
290
0
176
1
 40
1.0
176
1
 40
1.0
176
1
  0
VISUALSTYLE
  5
68
102
{ACAD_REACTORS
330
16
102
}
330
16
100
AcDbVisualStyle
  2
Linepattern
 70
14
177
3
291
1
 70
58
 90
2
176
1
 90
2
176
1
 90
0
176
1
 90
2
176
1
 40
0.6
176
1
 40
30.0
176
1
 62
7
420
16777215
176
1
 90
1
176
1
 90
4
176
1
 62
7
176
1
 62
257
176
1
 90
1
176
1
 90
1
176
1
 40
1.0
176
1
 90
8
176
1
 62
7
176
1
 40
1.0
176
1
 90
1
176
1
 90
6
176
1
 90
2
176
1
 62
7
176
1
 90
5
176
1
 90
0
176
1
 90
0
176
1
290
0
176
1
 90
1
176
1
 40
0.0
176
1
 90
0
176
1
290
0
176
1
290
1
176
1
290
1
176
1
290
0
176
1
290
0
176
1
290
0
176
1
290
0
176
1
290
0
176
1
290
0
176
1
 90
50
176
1
 40
0.0
176
1
 40
1.0
176
1
 90
0
176
1
 62
18
420
0
176
1
 90
50
176
1
 90
3
176
1
 62
5
420
255
176
1
290
0
176
1
 90
50
176
1
 90
50
176
1
 90
50
176
1
290
0
176
1
 90
50
176
1
 62
256
176
0
 40
1.0
176
0
 90
2
176
1
  1
strokes_ogs.tif
176
1
290
0
176
1
 40
1.0
176
1
 40
1.0
176
1
  0
VISUALSTYLE
  5
69
102
{ACAD_REACTORS
330
16
102
}
330
16
100
AcDbVisualStyle
  2
Modeling
 70
10
177
3
291
0
 70
58
 90
2
176
1
 90
2
176
1
 90
0
176
1
 90
2
176
1
 40
0.6
176
1
 40
30.0
176
1
 62
7
420
16777215
176
1
 90
1
176
1
 90
4
176
1
 62
7
176
1
 62
257
176
1
 90
1
176
1
 90
1
176
1
 40
1.0
176
1
 90
8
176
1
 62
7
176
1
 40
1.0
176
1
 90
1
176
1
 90
6
176
1
 90
2
176
1
 62
7
176
1
 90
5
176
1
 90
0
176
1
 90
0
176
1
290
0
176
1
 90
1
176
1
 40
0.0
176
1
 90
0
176
1
290
0
176
1
290
1
176
1
290
1
176
1
290
0
176
1
290
0
176
1
290
0
176
1
290
0
176
1
290
0
176
1
290
0
176
1
 90
50
176
1
 40
0.0
176
1
 40
1.0
176
1
 90
0
176
1
 62
18
420
0
176
1
 90
50
176
1
 90
3
176
1
 62
5
420
255
176
1
290
0
176
1
 90
50
176
1
 90
50
176
1
 90
50
176
1
290
0
176
1
 90
50
176
1
 62
256
176
0
 40
1.0
176
0
 90
2
176
1
  1
strokes_ogs.tif
176
1
290
0
176
1
 40
1.0
176
1
 40
1.0
176
1
  0
VISUALSTYLE
  5
6A
102
{ACAD_REACTORS
330
16
102
}
330
16
100
AcDbVisualStyle
  2
OverhangOff
 70
21
177
3
291
1
 70
58
 90
2
176
1
 90
2
176
1
 90
0
176
1
 90
2
176
1
 40
0.6
176
1
 40
30.0
176
1
 62
7
420
16777215
176
1
 90
1
176
1
 90
4
176
1
 62
7
176
1
 62
257
176
1
 90
1
176
1
 90
1
176
1
 40
1.0
176
1
 90
8
176
1
 62
7
176
1
 40
1.0
176
1
 90
1
176
1
 90
6
176
1
 90
2
176
1
 62
7
176
1
 90
5
176
1
 90
0
176
1
 90
0
176
1
290
0
176
1
 90
1
176
1
 40
0.0
176
1
 90
0
176
1
290
0
176
1
290
1
176
1
290
1
176
1
290
0
176
1
290
0
176
1
290
0
176
1
290
0
176
1
290
0
176
1
290
0
176
1
 90
50
176
1
 40
0.0
176
1
 40
1.0
176
1
 90
0
176
1
 62
18
420
0
176
1
 90
50
176
1
 90
3
176
1
 62
5
420
255
176
1
290
0
176
1
 90
50
176
1
 90
50
176
1
 90
50
176
1
290
0
176
1
 90
50
176
1
 62
256
176
0
 40
1.0
176
0
 90
2
176
1
  1
strokes_ogs.tif
176
1
290
0
176
1
 40
1.0
176
1
 40
1.0
176
1
  0
VISUALSTYLE
  5
6B
102
{ACAD_REACTORS
330
16
102
}
330
16
100
AcDbVisualStyle
  2
Realistic
 70
8
177
3
291
0
 70
58
 90
2
176
1
 90
2
176
1
 90
0
176
1
 90
2
176
1
 40
0.6
176
1
 40
30.0
176
1
 62
7
420
16777215
176
1
 90
1
176
1
 90
4
176
1
 62
7
176
1
 62
257
176
1
 90
1
176
1
 90
1
176
1
 40
1.0
176
1
 90
8
176
1
 62
7
176
1
 40
1.0
176
1
 90
1
176
1
 90
6
176
1
 90
2
176
1
 62
7
176
1
 90
5
176
1
 90
0
176
1
 90
0
176
1
290
0
176
1
 90
1
176
1
 40
0.0
176
1
 90
0
176
1
290
0
176
1
290
1
176
1
290
1
176
1
290
0
176
1
290
0
176
1
290
0
176
1
290
0
176
1
290
0
176
1
290
0
176
1
 90
50
176
1
 40
0.0
176
1
 40
1.0
176
1
 90
0
176
1
 62
18
420
0
176
1
 90
50
176
1
 90
3
176
1
 62
5
420
255
176
1
290
0
176
1
 90
50
176
1
 90
50
176
1
 90
50
176
1
290
0
176
1
 90
50
176
1
 62
256
176
0
 40
1.0
176
0
 90
2
176
1
  1
strokes_ogs.tif
176
1
290
0
176
1
 40
1.0
176
1
 40
1.0
176
1
  0
VISUALSTYLE
  5
6C
102
{ACAD_REACTORS
330
16
102
}
330
16
100
AcDbVisualStyle
  2
Shaded
 70
27
177
3
291
0
 70
58
 90
2
176
1
 90
2
176
1
 90
0
176
1
 90
2
176
1
 40
0.6
176
1
 40
30.0
176
1
 62
7
420
16777215
176
1
 90
1
176
1
 90
4
176
1
 62
7
176
1
 62
257
176
1
 90
1
176
1
 90
1
176
1
 40
1.0
176
1
 90
8
176
1
 62
7
176
1
 40
1.0
176
1
 90
1
176
1
 90
6
176
1
 90
2
176
1
 62
7
176
1
 90
5
176
1
 90
0
176
1
 90
0
176
1
290
0
176
1
 90
1
176
1
 40
0.0
176
1
 90
0
176
1
290
0
176
1
290
1
176
1
290
1
176
1
290
0
176
1
290
0
176
1
290
0
176
1
290
0
176
1
290
0
176
1
290
0
176
1
 90
50
176
1
 40
0.0
176
1
 40
1.0
176
1
 90
0
176
1
 62
18
420
0
176
1
 90
50
176
1
 90
3
176
1
 62
5
420
255
176
1
290
0
176
1
 90
50
176
1
 90
50
176
1
 90
50
176
1
290
0
176
1
 90
50
176
1
 62
256
176
0
 40
1.0
176
0
 90
2
176
1
  1
strokes_ogs.tif
176
1
290
0
176
1
 40
1.0
176
1
 40
1.0
176
1
  0
VISUALSTYLE
  5
6D
102
{ACAD_REACTORS
330
16
102
}
330
16
100
AcDbVisualStyle
  2
Shaded with edges
 70
26
177
3
291
0
 70
58
 90
2
176
1
 90
2
176
1
 90
0
176
1
 90
2
176
1
 40
0.6
176
1
 40
30.0
176
1
 62
7
420
16777215
176
1
 90
1
176
1
 90
4
176
1
 62
7
176
1
 62
257
176
1
 90
1
176
1
 90
1
176
1
 40
1.0
176
1
 90
8
176
1
 62
7
176
1
 40
1.0
176
1
 90
1
176
1
 90
6
176
1
 90
2
176
1
 62
7
176
1
 90
5
176
1
 90
0
176
1
 90
0
176
1
290
0
176
1
 90
1
176
1
 40
0.0
176
1
 90
0
176
1
290
0
176
1
290
1
176
1
290
1
176
1
290
0
176
1
290
0
176
1
290
0
176
1
290
0
176
1
290
0
176
1
290
0
176
1
 90
50
176
1
 40
0.0
176
1
 40
1.0
176
1
 90
0
176
1
 62
18
420
0
176
1
 90
50
176
1
 90
3
176
1
 62
5
420
255
176
1
290
0
176
1
 90
50
176
1
 90
50
176
1
 90
50
176
1
290
0
176
1
 90
50
176
1
 62
256
176
0
 40
1.0
176
0
 90
2
176
1
  1
strokes_ogs.tif
176
1
290
0
176
1
 40
1.0
176
1
 40
1.0
176
1
  0
VISUALSTYLE
  5
6E
102
{ACAD_REACTORS
330
16
102
}
330
16
100
AcDbVisualStyle
  2
Shades of Gray
 70
23
177
3
291
0
 70
58
 90
2
176
1
 90
2
176
1
 90
0
176
1
 90
2
176
1
 40
0.6
176
1
 40
30.0
176
1
 62
7
420
16777215
176
1
 90
1
176
1
 90
4
176
1
 62
7
176
1
 62
257
176
1
 90
1
176
1
 90
1
176
1
 40
1.0
176
1
 90
8
176
1
 62
7
176
1
 40
1.0
176
1
 90
1
176
1
 90
6
176
1
 90
2
176
1
 62
7
176
1
 90
5
176
1
 90
0
176
1
 90
0
176
1
290
0
176
1
 90
1
176
1
 40
0.0
176
1
 90
0
176
1
290
0
176
1
290
1
176
1
290
1
176
1
290
0
176
1
290
0
176
1
290
0
176
1
290
0
176
1
290
0
176
1
290
0
176
1
 90
50
176
1
 40
0.0
176
1
 40
1.0
176
1
 90
0
176
1
 62
18
420
0
176
1
 90
50
176
1
 90
3
176
1
 62
5
420
255
176
1
290
0
176
1
 90
50
176
1
 90
50
176
1
 90
50
176
1
290
0
176
1
 90
50
176
1
 62
256
176
0
 40
1.0
176
0
 90
2
176
1
  1
strokes_ogs.tif
176
1
290
0
176
1
 40
1.0
176
1
 40
1.0
176
1
  0
VISUALSTYLE
  5
6F
102
{ACAD_REACTORS
330
16
102
}
330
16
100
AcDbVisualStyle
  2
Sketchy
 70
24
177
3
291
0
 70
58
 90
2
176
1
 90
2
176
1
 90
0
176
1
 90
1
176
1
 40
0.6
176
1
 40
30.0
176
1
 62
7
420
16777215
176
1
 90
1
176
1
 90
4
176
1
 62
7
176
1
 62
257
176
1
 90
1
176
1
 90
1
176
1
 40
1.0
176
1
 90
8
176
1
 62
7
176
1
 40
1.0
176
1
 90
1
176
1
 90
6
176
1
 90
2
176
1
 62
7
176
1
 90
5
176
1
 90
0
176
1
 90
0
176
1
290
0
176
1
 90
1
176
1
 40
0.0
176
1
 90
0
176
1
290
0
176
1
290
1
176
1
290
1
176
1
290
0
176
1
290
0
176
1
290
0
176
1
290
0
176
1
290
0
176
1
290
0
176
1
 90
50
176
1
 40
0.0
176
1
 40
1.0
176
1
 90
0
176
1
 62
18
420
0
176
1
 90
50
176
1
 90
3
176
1
 62
5
420
255
176
1
290
0
176
1
 90
50
176
1
 90
50
176
1
 90
50
176
1
290
0
176
1
 90
50
176
1
 62
256
176
0
 40
1.0
176
0
 90
2
176
1
  1
strokes_ogs.tif
176
1
290
0
176
1
 40
1.0
176
1
 40
1.0
176
1
  0
VISUALSTYLE
  5
70
102
{ACAD_REACTORS
330
16
102
}
330
16
100
AcDbVisualStyle
  2
Thicken
 70
13
177
3
291
1
 70
58
 90
2
176
1
 90
2
176
1
 90
0
176
1
 90
2
176
1
 40
0.6
176
1
 40
30.0
176
1
 62
7
420
16777215
176
1
 90
1
176
1
 90
4
176
1
 62
7
176
1
 62
257
176
1
 90
1
176
1
 90
1
176
1
 40
1.0
176
1
 90
8
176
1
 62
7
176
1
 40
1.0
176
1
 90
1
176
1
 90
6
176
1
 90
2
176
1
 62
7
176
1
 90
5
176
1
 90
0
176
1
 90
0
176
1
290
0
176
1
 90
1
176
1
 40
0.0
176
1
 90
0
176
1
290
0
176
1
290
1
176
1
290
1
176
1
290
0
176
1
290
0
176
1
290
0
176
1
290
0
176
1
290
0
176
1
290
0
176
1
 90
50
176
1
 40
0.0
176
1
 40
1.0
176
1
 90
0
176
1
 62
18
420
0
176
1
 90
50
176
1
 90
3
176
1
 62
5
420
255
176
1
290
0
176
1
 90
50
176
1
 90
50
176
1
 90
50
176
1
290
0
176
1
 90
50
176
1
 62
256
176
0
 40
1.0
176
0
 90
2
176
1
  1
strokes_ogs.tif
176
1
290
0
176
1
 40
1.0
176
1
 40
1.0
176
1
  0
VISUALSTYLE
  5
71
102
{ACAD_REACTORS
330
16
102
}
330
16
100
AcDbVisualStyle
  2
Wireframe
 70
5
177
3
291
0
 70
58
 90
2
176
1
 90
2
176
1
 90
0
176
1
 90
0
176
1
 40
0.6
176
1
 40
30.0
176
1
 62
7
420
16777215
176
1
 90
1
176
1
 90
4
176
1
 62
7
176
1
 62
257
176
1
 90
1
176
1
 90
1
176
1
 40
1.0
176
1
 90
8
176
1
 62
7
176
1
 40
1.0
176
1
 90
1
176
1
 90
6
176
1
 90
2
176
1
 62
7
176
1
 90
5
176
1
 90
0
176
1
 90
0
176
1
290
0
176
1
 90
1
176
1
 40
0.0
176
1
 90
0
176
1
290
0
176
1
290
1
176
1
290
1
176
1
290
0
176
1
290
0
176
1
290
0
176
1
290
0
176
1
290
0
176
1
290
0
176
1
 90
50
176
1
 40
0.0
176
1
 40
1.0
176
1
 90
0
176
1
 62
18
420
0
176
1
 90
50
176
1
 90
3
176
1
 62
5
420
255
176
1
290
0
176
1
 90
50
176
1
 90
50
176
1
 90
50
176
1
290
0
176
1
 90
50
176
1
 62
256
176
0
 40
1.0
176
0
 90
2
176
1
  1
strokes_ogs.tif
176
1
290
0
176
1
 40
1.0
176
1
 40
1.0
176
1
  0
VISUALSTYLE
  5
72
102
{ACAD_REACTORS
330
16
102
}
330
16
100
AcDbVisualStyle
  2
X-Ray
 70
25
177
3
291
0
 70
58
 90
2
176
1
 90
2
176
1
 90
0
176
1
 90
2
176
1
 40
0.5
176
1
 40
30.0
176
1
 62
7
420
16777215
176
1
 90
1
176
1
 90
4
176
1
 62
7
176
1
 62
257
176
1
 90
1
176
1
 90
1
176
1
 40
1.0
176
1
 90
8
176
1
 62
7
176
1
 40
1.0
176
1
 90
1
176
1
 90
6
176
1
 90
2
176
1
 62
7
176
1
 90
5
176
1
 90
0
176
1
 90
0
176
1
290
0
176
1
 90
1
176
1
 40
0.0
176
1
 90
0
176
1
290
0
176
1
290
1
176
1
290
1
176
1
290
0
176
1
290
0
176
1
290
0
176
1
290
0
176
1
290
0
176
1
290
0
176
1
 90
50
176
1
 40
0.0
176
1
 40
1.0
176
1
 90
0
176
1
 62
18
420
0
176
1
 90
50
176
1
 90
3
176
1
 62
5
420
255
176
1
290
0
176
1
 90
50
176
1
 90
50
176
1
 90
50
176
1
290
0
176
1
 90
50
176
1
 62
256
176
0
 40
1.0
176
0
 90
2
176
1
  1
strokes_ogs.tif
176
1
290
0
176
1
 40
1.0
176
1
 40
1.0
176
1
  0
LAYOUT
  5
C5
330
D
100
AcDbPlotSettings
  1

  2
DWG to PDF.pc3
  4
ezdxf_(841.00_x_594.00_MM)
  6

 40
0.0
 41
0.0
 42
0.0
 43
0.0
 44
841.0
 45
594.0
 46
0.0
 47
0.0
 48
0.0
 49
0.0
140
0.0
141
0.0
142
1.0
143
1.0
 70
672
 72
1
 73
0
 74
5
  7

 75
16
 76
0
 77
2
 78
300
147
1.0
148
0.0
149
0.0
100
AcDbLayout
  1
E05-DETALLES
 70
1
 71
3
 10
-0.0
 20
-0.0
 11
841.0
 21
594.0
 12
0.0
 22
0.0
 32
0.0
 14
1e+20
 24
1e+20
 34
1e+20
 15
-1e+20
 25
-1e+20
 35
-1e+20
146
0.0
 13
0.0
 23
0.0
 33
0.0
 16
1.0
 26
0.0
 36
0.0
 17
0.0
 27
1.0
 37
0.0
 76
1
330
C2
331
C6
  0
DICTIONARYVAR
  5
23D
330
2D
100
DictionaryVariables
280
0
  1
1.4.4 @ 2026-10-07T02:31:00.458765+00:00
  0
ENDSEC
  0
EOF
